<svg width="18" height="18" viewBox="0 0 18 18" fill="none" xmlns="http://www.w3.org/2000/svg">
<path d="M9.05134 1.68551C11.4226 1.68551 11.7006 1.69597 12.6382 1.7326C13.505 1.76923 13.9738 1.91051 14.2845 2.02563C14.6988 2.18261 14.9932 2.36575 15.3039 2.66401C15.6146 2.96227 15.8054 3.24484 15.9689 3.64252C16.0889 3.94078 16.236 4.39078 16.2742 5.22277C16.3178 6.12279 16.3233 6.38965 16.3233 8.66585C16.3233 10.9421 16.3124 11.2089 16.2742 12.1089C16.236 12.9409 16.0889 13.3909 15.9689 13.6892C15.8108 14.0869 15.6146 14.3694 15.3039 14.6677C14.9932 14.966 14.6988 15.1491 14.2845 15.3061C13.9738 15.4212 13.4995 15.5625 12.6382 15.5991C11.7006 15.641 11.4226 15.6462 9.05134 15.6462C6.68006 15.6462 6.40204 15.6357 5.46443 15.5991C4.59768 15.5625 4.12888 15.4212 3.81817 15.3061C3.40387 15.1491 3.10951 14.966 2.79879 14.6677C2.48807 14.3694 2.29728 14.0869 2.13374 13.6892C2.01382 13.3909 1.86663 12.9357 1.82848 12.1089C1.78487 11.2089 1.77396 10.9421 1.77396 8.66585C1.77396 6.39489 1.78487 6.12279 1.82848 5.22277C1.86663 4.39078 2.01382 3.94078 2.13374 3.64252C2.29183 3.24484 2.48807 2.96227 2.79879 2.66401C3.10951 2.36575 3.40387 2.18261 3.81817 2.02563C4.12888 1.91051 4.59768 1.76923 5.46443 1.7326C6.40204 1.69597 6.68551 1.68551 9.05134 1.68551ZM9.05134 0.152344C6.6419 0.152344 6.34207 0.162809 5.39356 0.20467C4.4505 0.246532 3.80726 0.387813 3.24034 0.597119C2.65706 0.81689 2.16099 1.10468 1.67039 1.58086C1.17978 2.05703 0.874505 2.52796 0.645554 3.08786C0.427506 3.63205 0.274866 4.2495 0.231257 5.15475C0.187647 6.06523 0.176758 6.35303 0.176758 8.66585C0.176758 10.9787 0.187647 11.2665 0.231257 12.177C0.274866 13.0822 0.422054 13.7049 0.645554 14.2439C0.874505 14.8037 1.17432 15.2799 1.67039 15.7509C2.16645 16.227 2.65706 16.5148 3.24034 16.7346C3.80726 16.9439 4.4505 17.0904 5.39356 17.1323C6.34207 17.1741 6.6419 17.1846 9.05134 17.1846C11.4608 17.1846 11.7606 17.1741 12.7091 17.1323C13.6522 17.0904 14.3009 16.9491 14.8623 16.7346C15.4456 16.5148 15.9417 16.227 16.4323 15.7509C16.9229 15.2799 17.2281 14.8037 17.4571 14.2439C17.6751 13.6997 17.8278 13.0822 17.8714 12.177C17.915 11.2717 17.9259 10.9787 17.9259 8.66585C17.9259 6.35303 17.915 6.06523 17.8714 5.15475C17.8278 4.2495 17.6806 3.62682 17.4571 3.08786C17.2281 2.52796 16.9283 2.05179 16.4323 1.58086C15.9362 1.10992 15.4456 0.81689 14.8623 0.597119C14.3009 0.387813 13.6522 0.241299 12.7091 0.20467C11.766 0.162809 11.4608 0.152344 9.05134 0.152344Z" fill="#C0C0C0"/>
<path d="M9.05113 4.29475C6.53267 4.29475 4.4939 6.25176 4.4939 8.66924C4.4939 11.0867 6.53267 13.0437 9.05113 13.0437C11.5696 13.0437 13.6084 11.0867 13.6084 8.66924C13.6084 6.25176 11.5696 4.29475 9.05113 4.29475ZM9.05113 11.5053C7.41576 11.5053 6.0911 10.2338 6.0911 8.66924C6.0911 7.10468 7.41576 5.82792 9.05113 5.82792C10.6865 5.82792 12.0057 7.09945 12.0057 8.66924C12.0057 10.239 10.6865 11.5053 9.05113 11.5053Z" fill="#C0C0C0"/>
<path d="M14.8515 4.11738C14.8515 4.68251 14.3718 5.13775 13.7885 5.13775C13.1998 5.13775 12.7255 4.68251 12.7255 4.11738C12.7255 3.55226 13.1998 3.09702 13.7885 3.09702C14.3772 3.09702 14.8515 3.55749 14.8515 4.11738Z" fill="#C0C0C0"/>
</svg>
