<svg width="17" height="17" viewBox="0 0 17 17" fill="none" xmlns="http://www.w3.org/2000/svg">
<path d="M2.76591 4.73069C3.86161 4.73069 4.74471 3.87254 4.74471 2.81554C4.74471 1.75855 3.85616 0.900391 2.76591 0.900391C1.67021 0.900391 0.787109 1.75855 0.787109 2.81554C0.787109 3.87254 1.67566 4.73069 2.76591 4.73069Z" fill="#C0C0C0"/>
<path d="M4.45571 6.09301H1.10864V16.4798H4.45571V6.09301Z" fill="#C0C0C0"/>
<path d="M9.80923 11.0282C9.80923 9.56825 10.507 8.69964 11.848 8.69964C13.08 8.69964 13.6687 9.53686 13.6687 11.0282V16.4806H16.9994V9.90314C16.9994 7.11938 15.3586 5.77459 13.0636 5.77459C10.7686 5.77459 9.80378 7.49089 9.80378 7.49089V6.09378H6.59302V16.4806H9.80378V11.0282H9.80923Z" fill="#C0C0C0"/>
</svg>
