<svg width="17" height="15" viewBox="0 0 17 15" fill="none" xmlns="http://www.w3.org/2000/svg">
<path d="M0 13.2957C1.54252 14.3696 3.37528 15 5.34777 15C11.8242 15 15.479 9.05836 15.2586 3.73541C15.9412 3.20428 16.5324 2.53307 17 1.77432C16.3765 2.07782 15.6993 2.27626 14.9953 2.36965C15.7155 1.90272 16.269 1.16148 16.527 0.274319C15.8552 0.706225 15.1081 1.0214 14.3127 1.1965C13.6785 0.461089 12.7702 0 11.7651 0C9.51312 0 7.85773 2.2821 8.36832 4.65175C5.47139 4.49416 2.89693 2.98833 1.18242 0.694553C0.268732 2.39883 0.709453 4.62257 2.26273 5.74903C1.69301 5.73152 1.15017 5.55642 0.68258 5.27626C0.644958 7.03307 1.80051 8.67315 3.48277 9.03502C2.99368 9.18093 2.45621 9.21595 1.908 9.09922C2.34872 10.6051 3.63863 11.6965 5.16503 11.7315C3.69776 12.9747 1.84888 13.5292 0 13.2957Z" fill="#C0C0C0"/>
</svg>
