<svg width="171" height="170" viewBox="0 0 171 170" fill="none" xmlns="http://www.w3.org/2000/svg">
<path d="M2.39743 38.5392C1.10605 38.5392 0.0914034 37.5758 0.0914034 36.3982V2.1413C0.0914034 0.96372 1.12911 0.000245496 2.39743 0.000245496H32.86C34.1284 0.000245496 35.1661 0.96372 35.1661 2.1413C35.1661 3.31888 34.1284 4.28236 32.86 4.28236H6.98643C5.71812 4.28236 4.68041 5.24583 4.68041 6.42341V36.3982C4.68041 37.5758 3.66574 38.5392 2.39743 38.5392Z" fill="#16F898"/>
<path d="M167.739 38.539C166.448 38.539 165.433 37.5755 165.433 36.3979V6.42316C165.433 5.24558 164.396 4.28211 163.127 4.28211H137.277C136.009 4.28211 134.971 3.31863 134.971 2.14105C134.971 0.963475 136.009 0 137.277 0H167.739C169.008 0 170.045 0.963475 170.045 2.14105V36.3979C170.022 37.5755 169.008 38.539 167.739 38.539Z" fill="#16F898"/>
<path d="M167.739 170H137.277C136.008 170 134.971 169.036 134.971 167.859C134.971 166.681 136.008 165.718 137.277 165.718H163.127C164.396 165.718 165.433 164.754 165.433 163.577V133.602C165.433 132.424 166.471 131.461 167.739 131.461H167.762C169.031 131.461 170.068 132.424 170.068 133.602V167.859C170.022 169.036 169.008 170 167.739 170Z" fill="#16F898"/>
<path d="M32.837 170H2.37438C1.10607 170 0.0683594 169.036 0.0683594 167.859V133.602C0.0683594 132.424 1.10607 131.461 2.37438 131.461H2.39743C3.66574 131.461 4.70345 132.424 4.70345 133.602V163.577C4.70345 164.754 5.74116 165.718 7.00948 165.718H32.86C34.1283 165.718 35.166 166.681 35.166 167.859V167.88C35.1199 169.036 34.1053 170 32.837 170Z" fill="#16F898"/>
<path d="M88.3618 138.851C58.9667 138.851 35.0662 116.661 35.0662 89.3683C35.0662 62.076 58.9667 39.8853 88.3618 39.8853C96.4052 39.8853 104.135 41.5146 111.343 44.6958C112.388 45.1614 112.826 46.3252 112.325 47.2757C111.824 48.2262 110.591 48.6529 109.546 48.1874C102.924 45.239 95.7994 43.7454 88.3827 43.7454C61.3066 43.7454 39.2655 64.2097 39.2655 89.3489C39.2655 114.488 61.3066 134.952 88.3827 134.952C115.459 134.952 137.5 114.488 137.5 89.3489C137.5 82.8313 136.058 76.5465 133.196 70.6497C132.716 69.6798 133.196 68.516 134.241 68.0892C135.285 67.6431 136.518 68.0892 136.998 69.0591C140.09 75.4603 141.657 82.2688 141.657 89.3489C141.657 116.661 117.757 138.851 88.3618 138.851Z" fill="#16F898"/>
<path d="M88.3616 127.815C65.5266 127.815 46.9536 110.571 46.9536 89.3697C46.9536 68.1682 65.5266 50.9238 88.3616 50.9238C94.6084 50.9238 100.625 52.1847 106.203 54.6675C107.248 55.1331 107.687 56.2969 107.185 57.2474C106.684 58.2173 105.451 58.6246 104.407 58.1591C99.3718 55.9284 93.9816 54.7839 88.3616 54.7839C67.8248 54.7839 51.132 70.3019 51.132 89.3503C51.132 108.418 67.8457 123.917 88.3616 123.917C108.899 123.917 125.612 108.399 125.612 89.3503C125.612 84.4233 124.505 79.6515 122.353 75.1707C121.873 74.2008 122.353 73.037 123.398 72.6102C124.442 72.1641 125.696 72.6102 126.155 73.5801C128.558 78.5459 129.791 83.8608 129.791 89.3503C129.791 110.571 111.197 127.815 88.3616 127.815Z" fill="#16F898"/>
<path d="M112.701 79.2284C112.22 78.2586 110.988 77.8124 109.943 78.2586C109.4 78.4913 105.681 80.7802 105.138 81.013C104.093 81.4591 103.613 82.6036 104.093 83.5735C105.075 85.5908 105.18 86.8128 105.18 89.0242C105.18 97.6172 97.6377 104.62 88.3825 104.62C79.1274 104.62 71.5853 97.6366 71.5853 89.0242C71.5853 80.4311 79.1274 73.4286 88.3825 73.4286C90.9105 73.4286 93.3548 73.9329 95.6112 74.9416C96.6558 75.4071 97.9093 74.9998 98.3898 74.0299C98.557 73.7002 100.584 70.0922 100.855 69.5879C101.357 68.618 100.918 67.4542 99.8732 67.008C96.2589 65.4174 92.3938 64.6027 88.3825 64.6027C73.6745 64.6027 61.7034 75.7175 61.7034 89.3733C61.7034 103.029 73.6745 114.144 88.3825 114.144C103.091 114.144 115.062 103.029 115.062 89.3733C115.041 85.843 114.247 82.429 112.701 79.2284Z" fill="#16F898"/>
<path d="M88.3619 91.3045C87.7979 91.3045 87.2547 91.0911 86.8368 90.6838C86.0429 89.9079 86.0847 88.6664 86.9413 87.9487L127.66 52.6261C128.496 51.889 129.833 51.9278 130.606 52.7231C131.4 53.499 131.358 54.7404 130.501 55.4581L89.7826 90.7807C89.3857 91.1299 88.8842 91.3045 88.3619 91.3045Z" fill="#16F898"/>
<path d="M127.618 67.4097C127.597 67.4097 127.576 67.4097 127.535 67.4097L116.274 67.0217C115.689 67.0023 115.146 66.7696 114.77 66.3622C114.394 65.9549 114.206 65.4311 114.268 64.888L115.543 53.4822C115.605 53.0166 115.835 52.5899 116.19 52.2601L131.713 38.7982C132.34 38.255 133.238 38.1193 134.011 38.449C134.784 38.7788 135.265 39.4965 135.223 40.2724L134.91 48.6522L144.457 48.9431C145.293 48.9625 146.045 49.4669 146.337 50.204C146.63 50.9411 146.421 51.7752 145.815 52.2989L129.018 66.8666C128.663 67.2157 128.141 67.4097 127.618 67.4097ZM118.676 63.2198L126.824 63.5108L139.297 52.6869L132.695 52.4735C132.152 52.4541 131.609 52.2407 131.233 51.8528C130.856 51.4842 130.648 50.9799 130.668 50.4562L130.877 44.8308L119.617 54.6073L118.676 63.2198Z" fill="#16F898"/>
</svg>
