<svg width="4004" height="4256" viewBox="0 0 4004 4256" fill="none" xmlns="http://www.w3.org/2000/svg">
<path d="M1 872.863C198.229 909.368 396.708 994.351 435.949 1200.82C465.259 1354.98 383.023 1457.16 453.587 1546.98C547.499 1666.51 764.509 1576.37 1173.08 1564.02C1507.95 1553.89 1675.39 1548.81 1775.66 1620.64C2070.16 1831.59 1541.42 2418.92 1755.13 2710.76C1991.02 3032.88 2806.42 2551.17 3068.46 2841.85C3183.96 2969.97 3212.84 3271.32 2727.38 4068.01M23.3388 856.653C213.058 896.912 404.609 984.221 441.661 1189.53C468.981 1343.76 388.422 1446.45 458.81 1535.92C553.347 1656.01 772.003 1564.24 1176.78 1554.02C1202.5 1553.42 1227.23 1552.89 1251.03 1552.48C1534.25 1546.64 1679.38 1551.84 1770.18 1620.05C1887.41 1708.15 1871.11 1856.49 1826.52 2021.89C1762.6 2260.61 1638.61 2529.05 1766.24 2697.78C1837.04 2790.81 1956.52 2816 2095.41 2814.42C2427.8 2810.64 2868.39 2644.27 3050.01 2849.47C3061.81 2862.86 3072.76 2878.05 3082.41 2895.38C3165.31 3044.47 3149.17 3354.57 2742 4045.19M45.6835 840.432C227.889 884.428 413.171 973.955 447.384 1178.23C473.217 1332.43 393.842 1435.73 464.044 1524.84C559.207 1645.48 779.504 1552.06 1180.51 1544.02C1206.11 1543.59 1230.75 1543.36 1254.47 1543.14C1535.15 1540.55 1675.65 1549.25 1764.71 1619.45C1878.53 1709.16 1863.46 1856.31 1822.31 2020.55C1763.7 2257.98 1647.79 2520 1777.38 2684.79C1849.2 2776.12 1968.55 2801.18 2105.15 2802.38C2432.06 2805.24 2853.58 2651.33 3031.59 2857.07C3043.23 2870.52 3054.04 2885.73 3063.68 2903.01C3146.23 3051.02 3135.9 3355.07 2756.65 4022.33M68.0283 824.212C242.725 871.962 421.385 963.756 453.101 1166.94C477.182 1321.17 399.256 1425.01 469.289 1513.77C565.076 1634.97 787.025 1538.82 1184.24 1534.01C1209.75 1533.7 1234.28 1533.8 1257.91 1533.82C1536.04 1534.02 1671.9 1546.65 1759.25 1618.84C1869.65 1710.1 1855.38 1856.03 1818.09 2019.22C1764.16 2255.23 1657.23 2510.75 1788.52 2671.8C1861.5 2761.33 1980.59 2786.35 2114.9 2790.34C2436.32 2799.83 2838.56 2658.59 3013.18 2864.69C3024.64 2878.21 3035.34 2893.46 3044.98 2910.67C3127.18 3057.61 3122.66 3355.59 2771.33 3999.49M90.3773 808.009C257.56 859.497 429.592 953.593 458.829 1155.65C481.152 1309.93 404.68 1414.31 474.527 1502.71C570.94 1624.46 794.554 1526.34 1187.98 1524.02C1213.36 1523.88 1237.8 1524.24 1261.35 1524.5C1536.93 1527.48 1668.15 1544.01 1753.79 1618.26C1860.77 1711.01 1847.6 1855.85 1813.89 2017.89C1765.08 2252.59 1666.71 2501.52 1799.68 2658.84C1873.83 2746.57 1992.63 2771.56 2124.65 2778.33C2440.58 2794.46 2823.54 2665.89 2994.77 2872.33C3006.04 2885.93 3016.62 2901.21 3026.26 2918.36C3108.1 3064.23 3109.41 3356.16 2785.98 3976.7M112.722 791.788C272.396 847.03 437.78 943.418 464.547 1144.36C485.102 1298.67 410.095 1403.6 479.767 1491.65C576.804 1613.95 802.084 1513.87 1191.71 1514.03C1216.98 1514.04 1241.34 1514.69 1264.8 1515.18C1537.82 1520.91 1664.37 1541.31 1748.32 1617.66C1851.9 1711.85 1839.8 1855.67 1809.67 2016.57C1765.97 2249.95 1676.17 2492.29 1810.81 2645.86C1886.15 2731.78 2004.66 2756.75 2134.4 2766.3C2444.85 2789.06 2808.51 2673.18 2976.36 2879.95C2987.46 2893.62 2997.91 2908.93 3007.55 2926.01C3089.03 3070.81 3096.16 3356.68 2800.64 3953.87M135.067 775.568C287.227 834.548 445.952 933.249 470.264 1133.06C489.041 1287.43 415.51 1392.88 485.001 1480.58C582.664 1603.43 809.603 1501.4 1195.43 1504.03C1220.6 1504.2 1244.85 1505.12 1268.23 1505.85C1538.68 1514.33 1660.59 1538.59 1742.86 1617.06C1843.03 1712.61 1832.02 1855.48 1805.46 2015.23C1766.86 2247.33 1685.67 2483.04 1821.94 2632.87C1898.46 2717 2016.69 2741.92 2144.13 2754.25C2449.09 2783.64 2793.44 2680.46 2957.92 2887.56C2968.84 2901.3 2979.17 2916.63 2988.82 2933.65C3069.94 3077.38 3082.89 3357.19 2815.29 3931.02M157.412 759.347C302.068 822.07 454.118 923.088 475.987 1121.76C492.985 1276.19 420.93 1382.16 490.246 1469.5C588.533 1592.91 817.146 1488.96 1199.17 1494.02C1224.23 1494.35 1248.38 1495.54 1271.68 1496.52C1539.57 1507.71 1656.81 1535.79 1737.4 1616.45C1834.19 1713.32 1824.24 1855.31 1801.24 2013.89C1767.77 2244.7 1695.17 2473.78 1833.08 2619.88C1910.81 2702.2 2028.72 2727.1 2153.88 2742.2C2453.35 2778.24 2778.4 2687.77 2939.51 2895.17C2950.25 2908.99 2960.46 2924.35 2970.11 2941.31C3050.87 3083.96 3069.65 3357.72 2829.95 3908.19M179.752 743.138C316.888 809.609 462.247 912.949 481.699 1110.48C496.903 1264.97 426.344 1371.45 495.469 1458.45C594.382 1582.41 824.663 1476.54 1202.88 1484.04C1227.84 1484.54 1251.89 1485.99 1275.11 1487.21C1540.4 1501.11 1653 1532.99 1731.92 1615.87C1825.35 1713.99 1816.45 1855.15 1797.01 2012.58C1768.66 2242.1 1704.68 2464.56 1844.21 2606.92C1923.14 2687.44 2040.74 2712.3 2163.61 2730.18C2457.58 2772.85 2763.33 2695.11 2921.09 2902.8C2931.64 2916.69 2941.73 2932.08 2951.38 2948.98C3031.79 3090.56 3056.39 3358.26 2844.6 3885.37M202.096 726.919C331.729 797.134 470.376 902.811 487.422 1099.18C500.831 1253.73 431.754 1360.72 500.719 1447.37C600.256 1571.88 832.21 1464.12 1206.62 1474.04C1231.47 1474.69 1255.41 1476.42 1278.56 1477.88C1541.26 1494.46 1649.22 1530.12 1726.47 1615.27C1816.55 1714.57 1808.7 1854.99 1792.81 2011.25C1769.59 2239.51 1714.23 2455.3 1855.36 2593.94C1935.5 2672.66 2052.79 2697.48 2173.37 2718.15C2461.86 2767.46 2748.28 2702.44 2902.68 2910.42C2913.05 2924.39 2923.03 2939.79 2932.67 2956.64C3012.73 3097.14 3043.15 3358.79 2859.26 3862.54M224.441 710.699C346.554 784.662 478.495 892.666 493.139 1087.88C504.742 1242.52 437.168 1350.01 505.948 1436.3C606.11 1561.37 839.741 1451.72 1210.34 1464.04C1235.08 1464.86 1258.92 1466.86 1281.99 1468.56C1542.11 1487.8 1645.42 1527.22 1720.99 1614.68C1807.75 1715.11 1800.91 1854.84 1788.57 2009.91C1770.51 2236.92 1723.77 2446.05 1866.49 2580.95C1947.85 2657.87 2064.81 2682.67 2183.09 2706.11C2466.1 2762.06 2733.19 2709.79 2884.25 2918.04C2894.44 2932.09 2904.31 2947.52 2913.94 2964.29C2993.64 3103.73 3029.88 3359.31 2873.91 3839.71M246.781 694.487C361.391 772.193 486.588 882.544 498.852 1076.6C508.629 1231.3 442.578 1339.3 511.182 1425.25C611.969 1550.87 847.277 1439.37 1214.06 1454.05C1238.69 1455.04 1262.43 1457.29 1285.41 1459.24C1542.94 1481.12 1641.64 1524.27 1715.52 1614.09C1798.99 1715.57 1793.16 1854.69 1784.36 2008.59C1771.45 2234.34 1733.35 2436.79 1877.62 2567.98C1960.21 2643.08 2076.84 2667.85 2192.84 2694.08C2470.35 2756.66 2718.11 2717.14 2865.83 2925.65C2875.84 2939.78 2885.59 2955.23 2895.23 2971.95C2974.58 3110.31 3016.63 3359.83 2888.57 3816.87M269.125 678.269C376.231 759.719 494.669 872.421 504.574 1065.3C512.515 1220.09 447.997 1328.58 516.416 1414.18C617.818 1540.34 854.822 1426.99 1217.78 1444.05C1242.3 1445.2 1265.94 1447.71 1288.85 1449.91C1543.78 1474.41 1637.88 1521.27 1710.04 1613.48C1790.25 1715.97 1785.4 1854.54 1780.14 2007.25C1772.39 2231.75 1742.93 2427.51 1888.75 2554.99C1972.59 2628.28 2088.86 2653.02 2202.57 2682.03C2474.6 2751.25 2703.01 2724.5 2847.39 2933.26C2857.23 2947.46 2866.85 2962.94 2876.48 2979.59C2955.47 3116.89 3003.36 3360.36 2903.2 3794.03M291.47 662.049C391.057 747.247 502.736 862.3 510.282 1054C516.391 1208.88 453.402 1317.87 521.65 1403.1C623.683 1529.81 862.366 1414.64 1221.51 1434.04C1245.93 1435.35 1269.45 1438.12 1292.29 1440.58C1544.62 1467.67 1634.13 1518.23 1704.58 1612.88C1781.57 1716.32 1777.66 1854.39 1775.92 2005.91C1773.35 2229.17 1752.53 2418.22 1899.89 2542C1984.98 2613.47 2100.9 2638.21 2212.31 2670C2478.86 2745.85 2687.91 2731.88 2828.98 2940.89C2838.63 2955.18 2848.14 2970.67 2857.78 2987.26C2936.41 3123.48 2990.11 3360.9 2917.86 3771.22M313.814 645.828C405.898 734.77 510.787 852.184 516.005 1042.7C520.251 1197.66 458.822 1307.14 526.885 1392.02C629.543 1519.29 869.905 1402.31 1225.23 1424.03C1249.55 1425.51 1272.97 1428.55 1295.73 1431.24C1545.45 1460.91 1630.42 1515.13 1699.11 1612.27C1772.9 1716.61 1769.92 1854.25 1771.69 2004.57C1774.31 2226.6 1762.14 2408.92 1911.02 2529.01C1997.38 2598.66 2112.92 2623.37 2222.04 2657.95C2483.1 2740.44 2672.8 2739.25 2810.55 2948.49C2820 2962.86 2829.4 2978.38 2839.05 2994.91C2917.31 3130.05 2976.84 3361.41 2932.5 3748.37M336.154 629.619C420.718 722.309 518.816 842.084 521.717 1031.41C524.095 1186.48 464.231 1296.44 532.108 1380.97C635.391 1508.78 877.437 1390.01 1228.95 1414.05C1253.16 1415.7 1276.47 1418.98 1299.15 1421.94C1546.27 1454.16 1626.7 1512.03 1693.63 1611.69C1764.28 1716.88 1762.19 1854.14 1767.46 2003.27C1775.28 2224.07 1771.76 2399.64 1922.15 2516.05C2009.77 2583.88 2124.94 2608.59 2231.77 2645.93C2487.34 2735.07 2657.66 2746.67 2792.12 2956.12C2801.4 2970.58 2810.67 2986.12 2820.32 3002.58C2898.23 3136.65 2963.58 3361.96 2947.16 3725.55M358.498 613.399C435.559 709.831 526.826 831.972 527.435 1020.12C527.944 1175.29 469.645 1285.73 537.353 1369.9C641.26 1498.27 885 1377.72 1232.68 1404.04C1256.79 1405.86 1280 1409.39 1302.6 1412.6C1547.12 1447.36 1623.05 1508.87 1688.18 1611.08C1755.73 1717.09 1754.49 1854 1763.27 2001.91C1776.3 2221.49 1781.43 2390.3 1933.3 2503.04C2022.19 2569.04 2136.98 2593.75 2241.53 2633.87C2491.61 2729.64 2642.55 2754.05 2773.71 2963.72C2782.81 2978.26 2791.98 2993.81 2801.61 3010.22C2879.16 3143.22 2950.33 3362.47 2961.82 3702.7M380.843 597.178C450.384 697.359 534.83 821.871 533.158 1008.82C531.773 1164.09 475.061 1274.99 542.587 1358.82C647.12 1487.74 892.546 1365.44 1236.41 1394.04C1260.41 1396.04 1283.52 1399.8 1306.04 1403.27C1547.95 1440.53 1619.42 1505.66 1682.71 1610.47C1747.19 1717.25 1746.78 1853.86 1759.04 2000.57C1777.3 2218.94 1791.09 2380.97 1944.42 2490.06C2034.61 2554.21 2149.01 2578.92 2251.25 2621.83C2495.84 2724.24 2627.39 2761.46 2755.27 2971.33C2764.18 2985.95 2773.23 3001.52 2782.87 3017.87C2860.07 3149.8 2937.06 3362.99 2976.45 3679.87M403.182 580.966C465.22 684.891 542.802 811.777 538.87 997.533C535.581 1152.9 480.47 1264.29 547.821 1347.77C652.978 1477.24 900.097 1353.2 1240.14 1384.05C1264.03 1386.22 1287.03 1390.24 1309.47 1393.96C1548.78 1433.71 1615.82 1502.45 1677.25 1609.89C1738.7 1717.39 1739.07 1853.75 1754.83 1999.26C1778.33 2216.41 1800.78 2371.65 1955.57 2477.1C2047.05 2539.42 2161.05 2564.14 2261.01 2609.82C2500.12 2718.87 2612.26 2768.92 2736.88 2978.97C2745.6 2993.68 2754.54 3009.26 2764.18 3025.55C2841.03 3156.4 2923.84 3363.54 2991.14 3657.06M425.537 564.751C480.061 672.414 550.775 801.685 544.603 986.235C539.399 1141.72 485.9 1253.57 553.071 1336.68C658.853 1466.71 907.652 1340.95 1243.88 1374.04C1267.66 1376.38 1290.56 1380.63 1312.93 1384.62C1549.63 1426.83 1612.28 1499.17 1671.79 1609.28C1730.26 1717.47 1731.4 1853.61 1750.62 1997.92C1779.37 2213.85 1810.48 2362.28 1966.72 2464.1C2059.49 2524.56 2173.1 2549.3 2270.76 2597.77C2504.38 2713.44 2597.11 2776.33 2718.46 2986.57C2727 3001.36 2735.82 3016.96 2745.46 3033.18C2821.95 3162.96 2910.57 3364.04 3005.79 3634.2M447.882 548.534C494.896 659.95 558.728 791.585 550.32 974.945C543.181 1130.53 491.315 1242.86 558.31 1325.63C664.717 1456.21 915.211 1328.74 1247.6 1364.06C1271.28 1366.58 1294.07 1371.07 1316.36 1375.32C1550.46 1419.97 1608.76 1495.91 1666.32 1608.71C1721.86 1717.57 1723.72 1853.52 1746.4 1996.62C1780.43 2211.34 1820.18 2352.95 1977.85 2451.16C2071.93 2509.75 2185.13 2534.52 2280.5 2585.77C2508.63 2708.08 2581.94 2783.81 2700.05 2994.23C2708.4 3009.11 2717.11 3024.73 2726.74 3040.89C2802.88 3169.6 2897.33 3364.62 3020.44 3611.42M470.221 532.322C509.722 647.476 566.653 781.505 556.032 963.66C546.957 1119.35 496.723 1232.16 563.533 1314.57C670.565 1445.7 922.749 1316.55 1251.31 1354.07C1274.88 1356.76 1297.56 1361.48 1319.78 1366C1551.28 1413.06 1605.27 1492.6 1660.84 1608.11C1713.51 1717.6 1716.04 1853.38 1742.17 1995.28C1781.48 2208.79 1829.87 2343.57 1988.97 2438.17C2084.36 2494.89 2197.13 2519.7 2290.22 2573.72C2512.86 2702.66 2566.72 2791.25 2681.6 3001.82C2689.76 3016.79 2698.36 3032.43 2708 3048.52C2783.78 3176.16 2884.05 3365.12 3035.08 3588.57M492.566 516.104C524.557 635.012 574.57 771.399 561.755 952.36C550.719 1108.15 502.143 1221.44 568.783 1303.49C676.441 1435.18 930.303 1304.35 1255.05 1344.06C1278.52 1346.93 1301.1 1351.87 1323.23 1356.67C1552.13 1406.12 1601.87 1489.24 1655.38 1607.51C1705.19 1717.62 1708.39 1853.25 1737.96 1993.94C1782.56 2206.23 1836.02 2340.81 2000.11 2425.17C2098.99 2476 2209.18 2504.87 2299.97 2561.68C2517.13 2697.27 2551.53 2798.72 2663.18 3009.44C2671.15 3024.49 2679.64 3040.14 2689.29 3056.18C2764.7 3182.74 2870.8 3365.65 3049.74 3565.73M514.911 499.884C539.399 622.535 582.465 761.305 567.473 941.067C554.47 1096.98 507.558 1210.72 574.012 1292.42C682.295 1424.67 937.844 1292.2 1258.77 1334.06C1282.13 1337.11 1304.61 1342.28 1326.67 1347.34C1552.97 1399.18 1598.49 1485.89 1649.91 1606.91C1696.94 1717.61 1700.75 1853.13 1733.74 1992.6C1783.66 2203.67 1845.9 2331.44 2011.25 2412.18C2111.38 2461.07 2221.21 2490.05 2309.71 2549.64C2521.38 2691.86 2536.32 2806.17 2644.77 3017.06C2652.55 3032.18 2660.94 3047.85 2670.57 3063.83C2745.62 3189.32 2857.55 3366.17 3064.39 3542.9M537.256 483.663C554.23 610.052 590.351 751.205 573.196 929.763C558.207 1085.77 512.978 1200 579.257 1281.35C688.164 1414.15 945.395 1280.06 1262.51 1324.06C1285.76 1327.28 1308.14 1332.69 1330.12 1338.01C1553.83 1392.19 1595.2 1482.49 1644.45 1606.3C1688.73 1717.59 1693.12 1852.98 1729.52 1991.27C1784.77 2201.11 1859.09 2315.3 2022.39 2399.2C2121.76 2450.24 2233.24 2475.23 2319.46 2537.6C2525.63 2686.46 2521.1 2813.64 2626.36 3024.66C2633.94 3039.88 2642.22 3055.56 2651.86 3071.47C2726.56 3195.89 2844.3 3366.68 3079.06 3520.05M559.595 467.454C569.06 597.596 598.205 741.116 578.908 918.481C561.916 1074.6 518.382 1189.28 584.486 1270.29C694.018 1403.64 952.93 1267.94 1266.23 1314.06C1289.38 1317.47 1311.64 1323.09 1333.54 1328.69C1554.67 1385.2 1591.92 1479.12 1638.98 1605.72C1680.55 1717.57 1685.49 1852.86 1725.31 1989.96C1785.91 2198.57 1868.84 2305.87 2033.52 2386.23C2134.22 2435.37 2245.27 2460.42 2329.19 2525.57C2529.88 2681.07 2505.85 2821.14 2607.93 3032.3C2615.33 3047.6 2623.49 3063.3 2633.13 3079.16C2707.48 3202.51 2831.05 3367.24 3093.71 3497.24M581.94 451.234C583.891 585.114 606.064 731.016 584.631 907.178C565.627 1063.4 523.803 1178.56 589.73 1259.21C699.888 1393.12 960.474 1255.83 1269.96 1304.06C1293 1307.66 1315.17 1313.48 1336.99 1319.36C1555.55 1378.18 1588.73 1475.7 1633.52 1605.1C1672.43 1717.53 1677.88 1852.71 1721.1 1988.61C1787.05 2195.98 1878.61 2296.39 2044.67 2373.23C2146.71 2420.45 2257.31 2445.59 2338.94 2513.52C2534.15 2675.65 2490.61 2828.61 2589.52 3039.9C2596.72 3055.3 2604.79 3071.01 2614.42 3086.79C2688.4 3209.07 2817.79 3367.74 3108.36 3474.4M604.285 435.013C598.726 572.647 613.888 720.909 590.349 895.885C569.311 1052.2 529.217 1167.85 594.959 1248.15C705.741 1382.6 968.002 1243.76 1273.68 1294.06C1296.62 1297.84 1318.68 1303.89 1340.42 1310.04C1556.41 1371.15 1585.58 1472.29 1628.05 1604.52C1664.33 1717.5 1670.25 1852.58 1716.87 1987.29C1788.2 2193.43 1888.36 2286.92 2055.8 2360.27C2159.18 2405.55 2269.33 2430.8 2348.67 2501.5C2538.39 2670.26 2475.33 2836.12 2571.08 3047.52C2578.1 3063 2586.05 3078.73 2595.69 3094.45C2669.32 3215.66 2804.53 3368.27 3123.01 3451.56M626.624 418.804C613.552 560.176 621.707 710.814 596.051 884.598C572.965 1041.01 534.616 1157.14 600.178 1237.08C711.585 1372.09 975.514 1231.68 1277.39 1284.06C1300.22 1288.02 1322.18 1294.28 1343.85 1300.71C1557.28 1364.08 1582.47 1468.87 1622.57 1603.91C1656.28 1717.46 1662.66 1852.41 1712.64 1985.95C1789.36 2190.84 1898.11 2277.41 2066.93 2347.27C2171.65 2390.61 2281.36 2415.96 2358.41 2489.45C2542.65 2664.86 2460.06 2843.61 2552.67 3055.13C2559.48 3070.71 2567.33 3086.44 2576.98 3102.11C2650.25 3222.24 2791.29 3368.8 3137.67 3428.73M648.969 402.583C628.387 547.709 629.5 700.691 601.774 873.294C576.63 1029.8 540.036 1146.42 605.423 1226.01C717.455 1361.57 983.045 1219.65 1281.13 1274.06C1303.85 1278.21 1325.71 1284.67 1347.3 1291.38C1558.16 1356.98 1579.46 1465.45 1617.11 1603.31C1648.28 1717.41 1655.06 1852.26 1708.43 1984.6C1790.54 2188.23 1907.89 2267.88 2078.07 2334.29C2184.14 2375.67 2293.39 2401.15 2368.15 2477.41C2546.9 2659.45 2444.77 2851.1 2534.24 3062.74C2540.86 3078.4 2548.62 3094.16 2558.25 3109.76C2631.17 3228.83 2778.01 3369.33 3152.32 3405.9M671.314 386.363C643.218 535.226 637.294 690.568 607.491 862.001C580.273 1018.6 545.451 1135.71 610.651 1214.94C723.309 1351.05 990.565 1207.63 1284.85 1264.06C1307.46 1268.4 1329.23 1275.06 1350.73 1282.06C1559.05 1349.89 1576.47 1462.04 1611.64 1602.72C1640.31 1717.4 1647.47 1852.11 1704.21 1983.29C1791.72 2185.64 1917.65 2258.36 2089.19 2321.31C2196.61 2360.73 2305.41 2386.33 2377.88 2465.38C2551.14 2654.06 2429.46 2858.62 2515.82 3070.37C2522.25 3086.12 2529.9 3101.88 2539.52 3117.42C2612.08 3235.41 2764.75 3369.86 3166.97 3383.07M693.658 370.142C658.059 522.749 645.062 680.445 613.214 850.697C583.907 1007.37 550.87 1124.98 615.901 1203.86C729.189 1340.52 998.084 1195.61 1288.58 1254.06C1311.08 1258.58 1332.74 1265.44 1354.16 1272.72C1559.96 1342.76 1573.56 1458.61 1606.17 1602.1C1632.37 1717.36 1639.89 1851.92 1699.98 1981.93C1792.92 2183 1927.41 2248.79 2100.32 2308.31C2209.1 2345.75 2317.44 2371.5 2387.61 2453.33C2555.39 2648.65 2414.12 2866.11 2497.38 3077.97C2503.61 3093.81 2511.16 3109.58 2520.79 3125.06C2592.99 3241.98 2751.49 3370.38 3181.61 3360.22M715.998 353.933C672.879 510.288 652.815 670.327 618.926 839.416C587.515 996.166 556.28 1114.28 621.125 1192.8C735.038 1330.01 1005.58 1183.64 1292.29 1244.07C1314.69 1248.79 1336.26 1255.84 1357.59 1263.42C1560.87 1335.62 1570.68 1455.24 1600.69 1601.53C1624.45 1717.38 1632.31 1851.76 1695.76 1980.63C1794.13 2180.41 1937.18 2239.25 2111.46 2295.36C2221.57 2330.81 2329.46 2356.72 2397.36 2441.33C2559.64 2643.29 2398.79 2873.66 2478.96 3085.62C2484.99 3101.55 2492.43 3117.33 2502.07 3132.76C2573.92 3248.6 2738.23 3370.94 3196.26 3337.43M738.342 337.713C687.72 497.811 660.562 660.192 624.643 828.122C591.108 984.942 561.689 1103.55 626.363 1181.74C740.901 1319.51 1013.09 1171.69 1296.02 1234.08C1318.3 1238.99 1339.79 1246.23 1361.03 1254.09C1561.81 1328.46 1567.89 1451.84 1595.23 1600.92C1616.59 1717.39 1624.74 1851.57 1691.54 1979.3C1795.35 2177.76 1946.95 2229.66 2122.6 2282.37C2234.06 2315.82 2341.5 2341.89 2407.1 2429.29C2563.89 2637.87 2383.43 2881.17 2460.55 3093.23C2466.37 3109.25 2473.73 3125.04 2483.36 3140.41C2554.85 3255.18 2724.99 3371.46 3210.92 3314.59M760.697 321.498C702.566 485.35 668.3 650.053 630.377 816.825C594.707 973.707 567.12 1092.84 631.614 1170.66C746.777 1308.98 1020.59 1159.74 1299.76 1224.07C1321.94 1229.18 1343.34 1236.59 1364.48 1244.76C1562.76 1321.27 1565.14 1448.45 1589.77 1600.33C1608.76 1717.41 1617.19 1851.37 1687.34 1977.96C1796.6 2175.11 1956.73 2220.06 2133.75 2269.39C2246.56 2300.83 2353.54 2327.08 2416.86 2417.25C2568.16 2632.47 2368.09 2888.69 2442.14 3100.85C2447.76 3116.95 2455.02 3132.77 2464.65 3148.06C2535.78 3261.76 2711.74 3371.98 3225.59 3291.75M783.036 305.286C717.391 472.876 676.002 639.905 636.089 805.54C598.265 962.474 572.528 1082.13 636.847 1159.61C752.635 1298.48 1028.08 1147.83 1303.49 1214.08C1325.55 1219.4 1346.86 1226.99 1367.92 1235.45C1563.71 1314.08 1562.44 1445.09 1584.31 1599.74C1600.96 1717.48 1609.63 1851.19 1683.13 1976.64C1797.84 2172.46 1966.49 2210.44 2144.88 2256.41C2259.04 2285.83 2365.57 2312.27 2426.59 2405.21C2572.42 2627.07 2352.7 2896.21 2423.72 3108.47C2429.15 3124.67 2436.29 3140.49 2445.93 3155.72C2516.71 3268.35 2698.48 3372.51 3240.24 3268.93M805.381 289.068C732.232 460.402 683.715 629.741 641.811 794.24C601.817 951.23 577.948 1071.41 642.081 1148.53C758.494 1287.96 1035.55 1135.93 1307.21 1204.08C1329.16 1209.58 1350.39 1217.36 1371.36 1226.11C1564.69 1306.85 1559.79 1441.73 1578.84 1599.13C1593.17 1717.53 1602.08 1850.96 1678.91 1975.29C1799.08 2169.77 1976.24 2200.79 2156.02 2243.41C2271.52 2270.79 2377.6 2297.43 2436.33 2393.16C2576.66 2621.65 2337.31 2903.71 2405.3 3116.05C2410.52 3132.34 2417.57 3148.18 2427.21 3163.35C2497.63 3274.9 2685.23 3373.01 3254.9 3246.07M827.725 272.848C747.057 447.929 691.402 619.573 647.529 782.946C605.36 939.978 583.362 1060.7 647.32 1137.47C764.358 1277.45 1043.02 1124.06 1310.95 1194.09C1332.78 1199.8 1353.92 1207.74 1374.8 1216.8C1565.67 1299.63 1557.19 1438.42 1573.38 1598.55C1585.41 1717.63 1594.53 1850.77 1674.69 1973.98C1800.33 2167.09 1985.99 2191.18 2167.16 2230.45C2283.99 2255.78 2389.64 2282.63 2446.08 2381.14C2580.92 2616.27 2321.91 2911.25 2386.88 3123.7C2391.89 3140.08 2398.86 3155.91 2408.49 3171.03C2478.55 3281.51 2671.97 3373.56 3269.54 3223.26M850.07 256.627C761.899 435.452 699.085 609.39 653.247 771.653C608.883 928.715 588.777 1049.99 652.555 1126.4C770.217 1266.93 1050.47 1112.18 1314.67 1184.08C1336.39 1189.99 1357.45 1198.1 1378.24 1207.46C1566.68 1292.36 1554.64 1435.1 1567.91 1597.93C1577.68 1717.72 1586.98 1850.51 1670.47 1972.63C1801.57 2164.37 1995.74 2181.49 2178.29 2217.45C2296.47 2240.73 2401.67 2267.81 2455.81 2369.08C2585.17 2610.85 2306.48 2918.75 2368.46 3131.29C2373.26 3147.77 2380.13 3163.61 2389.77 3178.67C2459.48 3288.08 2658.71 3374.07 3284.2 3200.41M872.41 240.418C776.719 422.991 706.743 599.207 658.965 760.361C612.392 917.431 594.192 1039.28 657.794 1115.34C776.082 1256.42 1057.92 1100.35 1318.4 1174.09C1340.01 1180.21 1361 1188.48 1381.68 1198.15C1567.7 1285.12 1552.13 1431.83 1562.45 1597.35C1569.96 1717.87 1579.43 1850.31 1666.26 1971.32C1802.84 2161.68 2005.49 2171.85 2189.44 2204.49C2308.96 2225.7 2413.72 2253.01 2465.57 2357.07C2589.44 2605.48 2291.06 2926.29 2350.06 3138.93C2354.66 3155.49 2361.44 3171.36 2371.07 3186.35C2440.42 3294.67 2645.49 3374.62 3298.88 3177.6M894.754 224.197C791.56 410.514 714.396 589.007 664.682 749.067C615.883 906.151 599.606 1028.56 663.023 1104.27C781.935 1245.91 1065.34 1088.53 1322.12 1164.09C1343.61 1170.41 1364.53 1178.85 1385.11 1188.82C1568.74 1277.82 1549.65 1428.57 1556.98 1596.76C1562.26 1718.03 1571.88 1850.07 1662.04 1970C1804.09 2158.96 2015.21 2162.16 2200.57 2191.51C2321.4 2210.64 2425.74 2238.2 2475.29 2345.04C2593.67 2600.08 2275.58 2933.81 2331.62 3146.56C2336 3163.22 2342.7 3179.09 2352.34 3194.01C2421.33 3301.27 2632.22 3375.15 3313.52 3154.77M917.099 207.978C806.391 398.033 722.044 578.793 670.405 737.765C619.367 894.842 605.022 1017.83 668.263 1093.18C787.8 1235.37 1072.76 1076.72 1325.85 1154.08C1347.22 1160.61 1368.07 1169.19 1388.56 1179.48C1569.8 1270.51 1547.23 1425.31 1551.52 1596.13C1554.58 1718.19 1564.34 1849.78 1657.83 1968.62C1805.37 2156.18 2024.95 2152.42 2211.71 2178.49C2333.88 2195.55 2437.78 2223.33 2485.05 2332.97C2597.95 2594.65 2260.13 2941.29 2313.21 3154.14C2317.38 3170.88 2323.99 3186.77 2333.62 3201.64C2402.25 3307.82 2618.97 3375.65 3328.17 3131.92M939.438 191.768C821.221 385.576 729.677 568.583 676.116 726.483C622.829 883.546 610.43 1007.12 673.496 1082.13C793.658 1224.88 1080.16 1064.94 1329.56 1144.1C1350.82 1150.84 1371.59 1159.58 1391.98 1170.18C1570.85 1263.23 1544.82 1422.13 1546.03 1595.56C1546.89 1718.44 1557 1849.37 1653.59 1967.33C1806.96 2153.16 2034.64 2142.74 2222.82 2165.55C2346.31 2180.52 2449.79 2208.57 2494.76 2320.97C2602.17 2589.29 2244.62 2948.83 2294.75 3161.8C2298.71 3178.63 2305.24 3194.53 2314.87 3209.34C2383.15 3314.45 2605.68 3376.22 3342.79 3109.12M961.784 175.548C836.052 373.094 737.011 558.25 681.825 715.184C625.984 872.122 615.835 996.406 678.715 1071.06C799.503 1214.36 1087.4 1053.58 1333.27 1134.1C1354.39 1141.09 1375.12 1149.93 1395.4 1160.85C1571.94 1255.89 1542.43 1418.94 1540.54 1594.96C1539.21 1718.67 1549.32 1849.19 1649.35 1965.99C1808.01 2150.53 2044.37 2132.71 2233.94 2152.56C2358.76 2165.24 2461.8 2193.75 2504.49 2308.93C2606.41 2583.88 2228.82 2956.41 2276.33 3169.41C2280.05 3186.33 2286.51 3202.24 2296.15 3216.98C2364.07 3321.02 2592.42 3376.73 3357.45 3086.28M984.128 159.327C716.606 563.503 559.035 911.975 683.965 1059.98C815.916 1216.32 1146.45 1010.91 1398.86 1151.51C1694.61 1316.25 1393.34 1683.21 1645.15 1964.64C1917.36 2268.84 2412.64 2000.18 2514.25 2296.87C2618.37 2600.93 2147.09 3025.98 2277.45 3224.62C2345.01 3327.58 2579.18 3377.25 3372.12 3063.43M993.292 154.93C886.977 319.47 797.712 477.277 735.305 618.337C646.796 817.669 620.467 975.868 688.683 1066.41C768.418 1172.23 927.986 1127.75 1102.21 1121.6C1196.61 1118.26 1296.37 1123.99 1387.22 1170.84C1655.81 1309.37 1461.55 1605.11 1594.75 1867.67C1610.74 1898.89 1630.62 1929.98 1656.19 1960.2C1782.86 2109.83 1955.12 2132.15 2121.62 2142.96C2216.44 2149.35 2307.19 2149.41 2376.9 2175.26C2438.44 2198.09 2483.91 2238.03 2505.87 2311.11C2548.95 2453.07 2469.76 2621.37 2389.95 2779.26C2297.43 2961.5 2201.75 3130.67 2281.21 3234.97C2357.06 3334.53 2598.27 3381.82 3389.64 3073.11M1002.45 150.527C898.798 314.961 810.995 475.187 747.022 620.921C658.489 821.184 631.021 979.629 693.401 1072.84C767.214 1183.12 916.778 1145.08 1087.76 1142.49C1180.87 1141.07 1282.28 1145.73 1375.6 1190.17C1647.87 1319.84 1472.21 1602.23 1606.62 1861.67C1622.93 1893.15 1642.47 1924.81 1667.25 1955.76C1789.16 2108.1 1950.29 2139.09 2117.25 2153.18C2212.77 2161.23 2305.72 2158.83 2374.87 2186.24C2435.43 2210.24 2478.13 2251.47 2497.5 2325.35C2535.1 2468.67 2452.11 2638.53 2374.15 2796.22C2283.85 2977.15 2195.94 3143.4 2285 3245.33C2368.98 3341.44 2617.37 3386.39 3407.18 3082.8M1011.6 146.14C910.613 310.464 824.282 473.089 758.732 623.516C670.174 824.711 641.546 983.563 698.109 1079.26C766.037 1194.19 905.6 1162.43 1073.28 1163.37C1165.12 1163.89 1268.13 1167.47 1363.96 1209.49C1639.76 1330.4 1483.39 1599.07 1618.48 1855.67C1635.16 1887.35 1654.31 1919.62 1678.28 1951.32C1795.47 2106.32 1945.42 2146.23 2112.86 2163.4C2209.08 2173.26 2304.22 2168.26 2372.82 2197.22C2432.41 2222.37 2472.43 2264.88 2489.12 2339.58C2521.42 2484.15 2434.9 2655.88 2358.32 2813.17C2270.75 2993.02 2189.98 3156.11 2288.77 3255.68C2380.76 3348.38 2636.46 3390.95 3424.71 3092.49M1020.77 141.744C922.434 305.956 837.938 471.152 770.448 626.101C682.331 828.427 652.039 987.651 702.827 1085.69C764.882 1205.47 894.446 1179.8 1058.82 1184.26C1149.39 1186.72 1253.93 1189.26 1352.33 1228.82C1631.52 1341.07 1494.61 1595.89 1630.34 1849.67C1647.4 1881.57 1666.15 1914.43 1689.31 1946.89C1801.78 2104.51 1940.58 2153.4 2108.47 2173.63C2205.4 2185.3 2302.73 2177.7 2370.77 2208.22C2429.39 2234.51 2466.73 2278.29 2480.74 2353.84C2507.78 2499.68 2417.38 2673.13 2342.5 2830.15C2257.31 3008.77 2183.9 3168.88 2292.55 3266.05C2392.42 3355.36 2655.56 3395.53 3442.25 3102.19M1029.92 137.339C934.254 301.445 851.291 469.073 782.154 628.677C694.098 831.969 662.464 991.887 707.54 1092.1C763.688 1216.93 883.306 1197.19 1044.35 1205.13C1133.68 1209.54 1239.7 1211.04 1340.69 1248.13C1623.15 1351.83 1505.88 1592.68 1642.2 1843.65C1659.63 1875.77 1678 1909.2 1700.35 1942.42C1808.12 2102.62 1935.73 2160.55 2104.1 2183.82C2201.73 2197.31 2301.24 2187.06 2368.74 2219.16C2426.38 2246.57 2461.07 2291.63 2472.38 2368.05C2494.15 2515.13 2399.88 2690.31 2326.7 2847.06C2243.89 3024.44 2177.74 3181.62 2296.34 3276.36C2403.98 3362.34 2674.67 3400.06 3459.79 3111.83M1039.09 132.942C946.075 296.937 864.649 467.012 793.875 631.277C705.864 835.54 672.809 996.294 712.268 1098.54C762.455 1228.59 872.221 1214.63 1029.9 1226.02C1117.99 1232.39 1225.43 1232.89 1329.09 1267.46C1614.71 1362.73 1517.22 1589.46 1654.1 1837.65C1671.93 1869.97 1689.9 1903.99 1711.43 1937.97C1814.53 2100.71 1930.92 2167.73 2099.75 2194.03C2198.09 2209.35 2299.78 2196.43 2366.73 2230.14C2423.39 2258.67 2455.43 2305.02 2464.04 2382.28C2480.56 2530.59 2382.4 2707.52 2310.91 2864.02C2230.46 3040.15 2171.49 3194.46 2300.15 3286.71C2415.47 3369.42 2693.8 3404.63 3477.36 3121.52M1048.24 128.539C957.895 292.428 878.003 464.936 805.581 633.856C717.602 839.067 683.041 1000.81 716.976 1104.96C761.113 1240.4 861.12 1232.1 1015.42 1246.91C1102.31 1255.26 1211.11 1254.75 1317.44 1286.79C1606.12 1373.75 1528.55 1586.23 1665.95 1831.65C1684.16 1864.18 1701.75 1898.76 1722.46 1933.54C1820.89 2098.77 1926.07 2174.94 2095.36 2204.25C2194.4 2221.4 2296.92 2208.43 2364.68 2241.11C2421.5 2268.53 2449.77 2318.39 2455.66 2396.51C2466.94 2546.03 2364.87 2724.72 2295.09 2880.96C2216.99 3055.83 2165.13 3207.35 2303.92 3297.06C2426.86 3376.53 2712.89 3409.19 3494.89 3131.2M1057.41 124.142C969.716 287.919 891.346 462.854 817.297 636.44C729.344 842.61 693.161 1005.44 721.689 1111.38C759.656 1252.35 850.049 1249.58 1000.96 1267.78C1086.65 1278.11 1196.78 1276.64 1305.81 1306.09C1597.44 1384.89 1539.93 1582.97 1677.81 1825.63C1696.41 1858.38 1713.6 1893.52 1733.49 1929.08C1827.31 2096.77 1921.23 2182.14 2090.98 2214.46C2190.72 2233.45 2295.22 2218.02 2362.63 2252.09C2418.63 2280.38 2444.1 2331.75 2447.28 2410.75C2453.35 2561.48 2347.33 2741.92 2279.26 2897.93C2203.51 3071.53 2158.72 3220.32 2307.69 3307.42C2438.19 3383.73 2731.97 3413.77 3512.41 3140.88M1066.57 119.746C981.547 283.417 904.699 460.778 829.023 639.03C741.086 846.154 703.163 1010.17 726.417 1117.81C758.091 1264.42 839.021 1267.13 986.515 1288.68C1071.02 1301.01 1182.42 1298.59 1294.2 1325.43C1588.73 1396.16 1551.36 1579.72 1689.69 1819.64C1708.7 1852.59 1725.49 1888.29 1744.55 1924.65C1833.76 2094.76 1916.4 2189.38 2086.61 2224.69C2187.06 2245.52 2295.29 2224.48 2360.6 2263.07C2414.35 2294.84 2438.46 2345.12 2438.92 2425C2439.79 2576.93 2329.81 2759.12 2263.47 2914.89C2190.06 3087.23 2157.34 3224.44 2311.49 3317.79C2445.15 3398.72 2751.09 3418.36 3529.97 3150.59M1075.72 115.344C993.358 278.904 918.027 458.702 840.73 641.609C752.803 849.672 713.034 1014.95 731.131 1124.23C756.359 1276.57 827.992 1284.71 972.044 1309.56C1055.38 1323.93 1168.02 1320.56 1282.56 1344.75C1579.91 1407.55 1562.8 1576.44 1701.55 1813.63C1720.95 1846.79 1737.36 1883.04 1755.59 1920.19C1840.22 2092.7 1911.55 2196.61 2082.23 2234.89C2183.39 2257.58 2293.79 2233.77 2358.56 2274.04C2411.35 2306.85 2432.83 2358.47 2430.55 2439.21C2426.22 2592.34 2312.27 2776.29 2247.65 2931.82C2176.58 3102.87 2145.81 3246.41 2315.27 3328.11C2460.8 3398.27 2770.2 3422.9 3547.51 3160.25M1084.88 110.956C1005.18 274.41 931.355 456.624 852.44 644.203C764.519 853.213 722.773 1019.79 735.843 1130.66C754.478 1288.79 816.975 1302.35 957.576 1330.45C1039.74 1346.87 1153.61 1342.6 1270.93 1364.08C1571.05 1419.07 1574.27 1573.15 1713.41 1807.63C1733.21 1840.99 1749.23 1877.79 1766.63 1915.75C1846.73 2090.61 1906.71 2203.86 2077.85 2245.11C2179.72 2269.67 2292.31 2243.08 2356.52 2285.02C2408.35 2318.87 2427.2 2371.83 2422.18 2453.46C2412.69 2607.78 2294.73 2793.47 2231.83 2948.78C2163.08 3118.55 2139.29 3259.57 2319.04 3338.47C2472.04 3405.63 2789.28 3427.47 3565.03 3169.95M1094.04 106.554C1017 269.902 944.662 454.536 864.146 646.782C776.21 856.73 732.399 1024.64 740.556 1137.08C752.436 1301.05 805.973 1320.02 943.11 1351.32C1024.13 1369.81 1139.17 1364.64 1259.3 1383.4C1562.15 1430.69 1585.78 1569.83 1725.28 1801.62C1745.49 1835.19 1761.13 1872.52 1777.67 1911.3C1853.26 2088.49 1901.87 2211.11 2073.46 2255.32C2176.03 2281.74 2290.81 2252.34 2354.46 2295.98C2405.33 2330.85 2421.56 2385.18 2413.79 2467.69C2399.14 2623.2 2277.16 2810.64 2216 2965.72C2149.56 3134.21 2132.76 3272.78 2322.81 3348.82C2483.28 3413.03 2808.37 3432.03 3582.55 3179.62M1103.2 102.158C1028.82 265.394 957.985 452.444 875.867 649.382C787.917 860.268 741.931 1029.53 745.268 1143.52C750.24 1313.33 794.978 1337.78 928.638 1372.23C1008.52 1392.82 1124.73 1386.76 1247.66 1402.74C1553.21 1442.46 1597.31 1566.52 1737.15 1795.64C1757.75 1829.41 1773.02 1867.3 1788.7 1906.88C1859.83 2086.38 1897.02 2218.41 2069.09 2265.56C2172.36 2293.85 2289.33 2261.63 2352.43 2306.98C2402.35 2342.86 2415.96 2398.56 2405.42 2481.95C2385.64 2638.64 2259.6 2827.83 2200.19 2982.69C2136.06 3149.88 2126.24 3286.04 2326.59 3359.18C2494.51 3420.48 2827.47 3436.61 3600.09 3189.31M1112.35 97.7532C1040.64 260.883 971.293 450.354 887.573 651.959C799.608 863.781 751.356 1034.38 749.982 1149.93C747.894 1325.59 783.997 1355.55 914.172 1393.09C992.922 1415.81 1110.28 1408.89 1236.03 1422.05C1544.25 1454.29 1608.86 1563.17 1749.01 1789.62C1770.02 1823.59 1784.91 1862.01 1799.74 1902.42C1866.44 2084.21 1892.17 2225.69 2064.7 2275.76C2168.68 2305.94 2287.86 2270.87 2350.38 2317.95C2399.35 2354.82 2410.35 2411.91 2397.05 2496.17C2372.14 2654.05 2242.02 2844.99 2184.38 2999.64C2122.53 3165.53 2119.7 3299.35 2330.37 3369.53C2505.75 3427.96 2846.57 3441.18 3617.63 3199.01M1121.52 93.3568C1052.46 256.376 984.605 448.256 899.289 654.544C811.299 867.298 760.698 1039.24 754.699 1156.36C745.415 1337.83 773.018 1373.39 899.72 1413.98C977.337 1438.85 1095.84 1431.08 1224.41 1441.37C1535.3 1466.25 1620.46 1559.81 1760.89 1783.61C1782.32 1817.78 1796.85 1856.74 1810.8 1897.97C1873.09 2082.03 1887.34 2232.96 2060.34 2285.96C2165.02 2318.02 2286.41 2280.09 2348.36 2328.9C2396.41 2366.76 2404.76 2425.24 2388.69 2510.38C2358.68 2669.46 2224.47 2862.13 2168.59 3016.57C2109.02 3181.16 2113.19 3312.68 2334.18 3379.86C2517.01 3435.45 2865.7 3445.72 3635.19 3208.66M1130.68 88.9605C1064.3 251.873 997.913 446.169 911.005 657.129C822.981 870.809 769.96 1044.06 759.423 1162.78C742.79 1350.04 762.038 1391.28 885.259 1434.87C961.742 1461.92 1081.39 1453.32 1212.79 1460.7C1526.34 1478.32 1632.09 1556.43 1772.76 1777.6C1794.62 1811.96 1808.77 1851.46 1821.85 1893.52C1879.78 2079.84 1882.48 2240.27 2055.97 2296.17C2161.35 2330.14 2284.97 2289.31 2346.32 2339.88C2393.44 2378.71 2399.17 2438.6 2380.33 2524.63C2345.21 2684.9 2206.89 2879.29 2152.76 3033.53C2095.47 3196.8 2106.65 3326.07 2337.94 3390.22C2528.23 3443 2884.79 3450.3 3652.72 3218.35M1139.84 84.5585C1076.11 247.36 1011.2 444.07 922.722 659.713C834.663 874.32 779.166 1048.86 764.141 1169.21C740.048 1362.19 751.05 1409.24 870.797 1455.75C946.151 1485.02 1066.94 1475.6 1201.16 1480.02C1517.36 1490.46 1643.72 1553.05 1784.62 1771.6C1806.9 1806.16 1820.69 1846.18 1832.89 1889.08C1886.49 2077.65 1877.63 2247.58 2051.59 2306.4C2157.67 2342.26 2283.53 2298.52 2344.28 2350.87C2390.47 2390.66 2393.58 2451.98 2371.95 2538.87C2331.75 2700.34 2189.29 2896.46 2136.95 3050.48C2081.92 3212.44 2100.12 3339.5 2341.73 3400.57C2539.49 3450.55 2903.89 3454.86 3670.26 3228.03M1149 80.1593C1087.94 242.855 1024.49 441.969 934.438 662.295C846.344 877.829 788.302 1053.62 768.854 1175.62C737.189 1374.29 740.049 1427.24 856.331 1476.62C930.547 1508.15 1052.48 1497.89 1189.53 1499.33C1508.41 1502.69 1655.39 1549.62 1796.49 1765.59C1819.2 1800.34 1832.63 1840.9 1843.93 1884.62C1893.24 2075.43 1872.77 2254.9 2047.21 2316.59C2153.98 2354.36 2282.1 2307.7 2342.24 2361.82C2387.52 2402.57 2388.01 2465.32 2363.58 2553.08C2318.31 2715.75 2171.68 2913.58 2121.14 3067.41C2068.36 3228.05 2093.61 3352.93 2345.52 3410.9C2550.75 3458.13 2923 3459.41 3687.81 3237.7M1158.15 75.7687C1099.74 238.353 1037.76 439.876 946.138 664.886C857.999 881.34 797.382 1058.34 773.562 1182.05C734.225 1386.33 729.024 1445.31 841.854 1497.51C914.921 1531.31 1038.02 1520.25 1177.89 1518.67C1499.45 1515.03 1667.06 1546.22 1808.35 1759.6C1831.49 1794.53 1844.57 1835.63 1854.97 1880.2C1900.02 2073.23 1867.91 2262.25 2042.82 2326.83C2150.29 2366.51 2280.67 2316.9 2340.19 2372.83C2384.56 2414.51 2382.43 2478.71 2355.2 2567.35C2304.86 2731.22 2154.06 2930.75 2105.32 3084.4C2054.78 3243.72 2087.08 3366.45 2349.29 3421.28C2561.99 3465.78 2942.09 3464.01 3705.32 3247.42M1167.31 71.3695C1111.57 233.848 1051.05 437.765 957.849 667.478C869.666 884.853 806.438 1063.03 778.274 1188.49C731.175 1398.33 725.176 1450.99 827.387 1518.41C894.575 1562.72 1023.58 1542.65 1166.25 1538C1490.52 1527.43 1678.76 1542.79 1820.21 1753.6C1843.77 1788.72 1856.52 1830.36 1866.01 1875.75C1906.83 2071.03 1863.04 2269.59 2038.44 2337.05C2146.6 2378.64 2279.27 2326.07 2338.16 2383.8C2381.63 2426.42 2376.86 2492.08 2346.83 2581.59C2291.44 2746.68 2136.42 2947.89 2089.49 3101.35C2041.18 3259.33 2080.56 3379.93 2353.06 3431.63C2573.25 3473.39 2961.18 3468.57 3722.86 3257.09M1176.48 66.9732C1123.39 229.34 1064.33 435.661 969.575 670.069C881.331 888.37 815.471 1067.66 783.007 1194.91C728.073 1410.23 714.396 1469.59 812.951 1539.29C878.711 1585.8 1009.17 1565.07 1154.65 1557.32C1481.64 1539.91 1690.52 1539.34 1832.1 1747.59C1856.11 1782.89 1868.5 1825.08 1877.08 1871.3C1913.71 2068.81 1858.19 2276.93 2034.1 2347.26C2142.94 2390.77 2277.91 2335.23 2336.15 2394.77C2378.74 2438.32 2371.33 2505.45 2338.5 2595.81C2278.06 2762.12 2118.83 2965.02 2073.72 3118.3C2027.62 3274.95 2074.1 3393.46 2356.88 3441.98C2584.56 3481.04 2980.32 3473.14 3740.44 3266.77M1185.63 62.5712C1135.21 224.832 1077.58 433.557 981.281 672.648C892.982 891.864 824.454 1072.25 787.715 1201.34C724.875 1422.07 703.471 1488.34 798.479 1560.17C862.843 1608.83 994.752 1587.53 1143.01 1576.64C1472.75 1552.43 1702.25 1535.88 1843.96 1741.58C1868.4 1777.07 1880.45 1819.79 1888.11 1866.86C1920.57 2066.59 1853.31 2284.28 2029.7 2357.47C2139.23 2402.91 2276.51 2344.37 2334.09 2405.74C2375.8 2450.2 2365.76 2518.83 2330.11 2610.04C2264.63 2777.59 2101.15 2982.15 2057.89 3135.24C2013.99 3290.56 2067.6 3407 2360.64 3452.32C2595.83 3488.69 2999.4 3477.69 3757.95 3276.45M1194.79 58.1749C1147.03 220.324 1090.85 431.448 992.997 675.233C904.628 895.369 833.439 1076.81 792.429 1207.75C721.63 1433.83 684.703 1518.12 784.008 1581.05C852.316 1624.34 980.336 1610.01 1131.37 1595.96C1463.88 1565.02 1714.01 1532.39 1855.81 1735.58C1880.7 1771.24 1892.42 1814.51 1899.13 1862.41C1927.46 2064.38 1848.4 2291.64 2025.31 2367.67C2135.53 2415.04 2275.13 2353.5 2332.03 2416.71C2372.88 2462.09 2360.19 2532.2 2321.72 2624.28C2251.21 2793.06 2083.47 2999.28 2042.07 3152.19C2000.37 3306.18 2061.1 3420.56 2364.42 3462.67C2607.1 3496.36 3018.5 3482.26 3775.48 3286.13M1203.95 53.77C1158.85 215.813 1104.11 429.33 1004.7 677.809C916.279 898.861 842.384 1081.32 797.136 1214.17C718.335 1445.54 673.529 1536.44 769.536 1601.93C836.595 1647.68 965.932 1632.54 1119.74 1615.29C1455.07 1577.67 1725.79 1528.89 1867.68 1729.57C1893.01 1765.41 1904.4 1809.24 1910.17 1857.96C1934.38 2062.18 1843.51 2299.01 2020.93 2377.89C2131.81 2427.2 2273.78 2362.64 2330 2427.69C2369.98 2473.97 2354.64 2545.58 2313.35 2638.5C2237.81 2808.52 2065.8 3016.39 2026.25 3169.14C1986.73 3321.78 2054.62 3434.14 2368.2 3473.02C2618.4 3504.04 3037.6 3486.82 3793.03 3295.81M1213.11 49.3737C1170.69 211.311 1117.36 427.215 1016.43 680.399C927.935 902.371 851.347 1085.8 801.87 1220.6C715.027 1457.2 662.338 1554.79 755.09 1622.81C820.864 1671.04 951.569 1655.09 1108.13 1634.6C1446.3 1590.35 1737.62 1525.36 1879.56 1723.55C1905.35 1759.56 1916.4 1803.95 1921.24 1853.5C1941.37 2059.97 1838.65 2306.36 2016.57 2388.09C2128.13 2439.33 2272.47 2371.74 2327.97 2438.65C2367.11 2485.84 2349.1 2558.95 2304.99 2652.73C2224.43 2824 2048.12 3033.51 2010.44 3186.07C1973.09 3337.38 2048.18 3447.71 2371.98 3483.35C2629.71 3511.72 3056.69 3491.36 3810.56 3305.48M1222.28 44.9774C1182.51 206.803 1130.62 425.1 1028.15 682.984C939.586 905.866 860.289 1090.24 806.588 1227.03C711.665 1468.79 651.077 1573.2 740.623 1643.7C805.078 1694.45 937.209 1677.68 1096.5 1653.93C1437.54 1603.11 1749.43 1521.85 1891.44 1717.56C1917.68 1753.73 1928.41 1798.68 1932.29 1849.06C1948.36 2057.79 1833.76 2313.76 2012.2 2398.31C2124.45 2451.49 2271.16 2380.85 2325.95 2449.62C2364.26 2497.71 2343.57 2572.35 2296.64 2666.97C2211.06 2839.49 2030.43 3050.64 1994.65 3203.02C1959.44 3352.98 2041.73 3461.33 2375.79 3493.7C2641.04 3519.42 3075.81 3495.94 3828.12 3315.16M1231.43 40.5754C1194.33 202.295 1143.85 422.985 1039.85 685.574C951.206 909.37 869.213 1094.65 811.285 1233.45C708.265 1480.3 639.74 1591.61 726.151 1664.58C789.245 1717.88 922.849 1700.27 1084.86 1673.25C1428.81 1615.89 1761.26 1518.3 1903.29 1711.55C1930 1747.89 1940.4 1793.41 1943.32 1844.62C1955.36 2055.62 1828.86 2321.14 2007.81 2408.53C2120.72 2463.66 2269.85 2389.98 2323.89 2460.61C2361.38 2509.6 2338.01 2585.75 2288.25 2681.21C2197.65 2855 2012.69 3067.77 1978.81 3219.99C1945.75 3368.6 2035.26 3474.95 2379.54 3504.07C2652.33 3527.14 3094.88 3500.52 3845.63 3324.87M1240.59 36.1876C1206.14 197.796 1157.09 420.873 1051.57 688.172C962.852 912.874 878.154 1099.05 816.008 1239.89C704.871 1491.81 628.385 1610.07 711.694 1685.48C773.38 1741.34 908.523 1722.92 1073.23 1692.59C1420.13 1628.73 1773.12 1514.76 1915.16 1705.56C1942.33 1742.06 1952.41 1788.15 1954.36 1840.19C1962.38 2053.48 1823.95 2328.55 2003.43 2418.76C2117.01 2475.84 2268.56 2399.1 2321.85 2471.6C2358.51 2521.47 2332.47 2599.17 2279.88 2695.45C2184.27 2870.51 1994.95 3084.9 1963.01 3236.95C1932.07 3384.21 2028.82 3488.58 2383.33 3514.43C2663.67 3534.85 3114 3505.09 3863.18 3334.56M1249.74 31.7856C1217.96 193.298 1169.79 418.545 1063.27 690.752C974.047 916.2 887.082 1103.38 820.722 1246.31C701.451 1503.22 616.964 1628.51 697.223 1706.36C757.465 1764.8 894.197 1745.57 1061.59 1711.91C1411.49 1641.57 1784.96 1511.18 1927.01 1699.55C1954.66 1736.21 1964.41 1782.87 1965.39 1835.75C1969.41 2051.32 1819.02 2335.94 1999.05 2428.97C2113.28 2488.01 2267.29 2408.2 2319.8 2482.57C2355.66 2533.35 2326.92 2612.57 2271.5 2709.69C2170.88 2886.03 1977.2 3102.02 1947.19 3253.91C1918.35 3399.83 2022.38 3502.24 2387.11 3524.79C2674.99 3542.59 3133.09 3509.67 3880.72 3344.25M1258.91 27.3864C1229.78 188.788 1183.09 416.45 1074.99 693.334C985.739 919.714 896.014 1107.69 825.439 1252.73C698.021 1514.6 605.5 1646.97 682.761 1727.25C741.511 1788.28 879.9 1768.23 1049.97 1731.24C1402.88 1654.45 1796.85 1507.6 1938.89 1693.56C1967 1730.36 1976.44 1777.62 1976.45 1831.3C1976.5 2049.18 1814.12 2343.34 1994.68 2439.19C2109.58 2500.18 2266.03 2417.3 2317.78 2493.55C2352.84 2545.21 2321.39 2625.97 2263.14 2723.92C2157.52 2901.54 1959.44 3119.14 1931.38 3270.85C1904.64 3415.42 2015.95 3515.87 2390.89 3535.12C2686.32 3550.29 3152.2 3514.21 3898.25 3353.91M1268.07 22.9901C1241.61 184.286 1196.37 414.351 1086.7 695.919C997.43 923.231 904.948 1111.98 830.162 1259.15C694.587 1525.94 593.974 1665.44 668.305 1748.12C725.516 1811.77 865.628 1790.92 1038.35 1750.55C1394.32 1667.35 1808.75 1503.99 1950.76 1687.53C1979.35 1724.49 1988.47 1772.34 1987.5 1826.84C1983.59 2047.04 1809.82 2349.64 1990.31 2449.38C2105.48 2513.02 2264.8 2426.36 2315.74 2504.5C2350.01 2557.07 2315.85 2639.36 2254.77 2738.14C2144.14 2917.05 1941.65 3136.24 1915.57 3287.78C1890.91 3431.01 2009.53 3529.5 2394.68 3545.45C2697.68 3558.01 3171.31 3518.76 3915.8 3363.57M1277.23 18.5881C1253.42 179.772 1209.66 412.253 1098.42 698.503C1009.12 926.757 913.884 1116.25 834.876 1265.57C691.136 1537.21 582.383 1683.88 653.834 1769C709.449 1835.27 851.352 1813.63 1026.71 1769.87C1385.77 1680.28 1820.65 1500.36 1962.63 1681.53C1991.7 1718.63 2000.49 1767.09 1998.54 1822.4C1990.68 2044.93 1804.3 2358.13 1985.93 2459.6C2102.13 2524.51 2263.58 2435.47 2313.71 2515.48C2347.19 2568.94 2310.32 2652.78 2246.41 2752.38C2130.77 2932.58 1923.87 3153.36 1899.76 3304.74C1877.18 3446.63 2003.13 3543.16 2398.47 3555.81C2709.03 3565.74 3190.42 3523.33 3933.36 3373.26M1286.39 14.1918C1265.25 175.27 1222.96 410.16 1110.14 701.088C1020.81 930.274 922.836 1120.49 839.594 1272C687.691 1548.48 570.745 1702.33 639.372 1789.89C693.356 1858.77 837.104 1836.35 1015.08 1789.2C1377.27 1693.23 1832.57 1496.73 1974.49 1675.53C2004.05 1712.76 2012.52 1761.83 2009.58 1817.96C1997.79 2042.84 1799.17 2365.89 1981.55 2469.83C2098.29 2536.92 2262.37 2444.57 2311.66 2526.47C2344.37 2580.82 2304.95 2666.32 2238.04 2766.63C2117.69 2948.34 1906.04 3170.51 1883.95 3321.71C1863.41 3462.25 1996.72 3556.85 2402.25 3566.17C2720.39 3573.5 3209.52 3527.91 3950.88 3382.96M1295.54 9.78695C1277.06 170.753 1236.24 408.053 1121.84 703.675C1032.47 933.787 931.763 1124.72 844.302 1278.42C684.242 1559.7 559.057 1720.76 624.911 1810.77C677.222 1882.27 822.882 1859.09 1003.46 1808.51C1368.82 1706.19 1844.5 1493.07 1986.36 1669.51C2016.41 1706.88 2024.55 1756.57 2020.62 1813.5C2004.91 2040.75 1794.29 2373.17 1977.17 2480.02C2094.58 2549.01 2261.16 2453.64 2309.62 2537.42C2341.57 2592.66 2299.35 2679.68 2229.65 2780.83C2104.21 2963.79 1888.19 3187.6 1868.12 3338.64C1849.63 3477.84 1990.27 3571.17 2406.02 3576.5C2731.72 3581.75 3228.6 3532.47 3968.41 3392.62M1304.71 5.39063C1288.89 166.251 1249.53 405.96 1133.55 706.259C1044.16 937.304 940.722 1128.92 849.019 1284.85C680.794 1570.9 547.312 1739.17 610.443 1831.67C661.03 1905.78 808.648 1881.86 991.824 1827.85C1360.37 1719.18 1856.74 1489.15 1998.22 1663.52C2028.83 1700.97 2036.69 1751.34 2031.66 1809.06C2012.45 2038.71 1789.41 2380.49 1972.79 2490.24C2090.89 2561.13 2259.97 2462.74 2307.57 2548.41C2338.77 2604.56 2293.74 2693.08 2221.28 2795.08C2090.73 2979.27 1870.1 3204.71 1852.31 3355.59C1835.62 3493.45 1983.89 3584.51 2409.8 3586.86C2743.09 3589.23 3247.7 3537.03 3985.95 3402.31M1313.86 1C1300.71 161.755 1262.8 403.868 1145.27 708.856C891.478 1367.31 502.645 1705.89 595.982 1852.55C742.521 2082.8 1797.57 1399.93 2010.1 1657.53C2164.2 1844.31 1738.17 2359.39 1968.42 2500.47C2087.2 2573.26 2258.82 2471.86 2305.54 2559.4C2390.88 2719.31 1861.3 3138.32 1836.5 3372.57C1810.73 3615.86 2324.4 3707.43 4003.49 3412.03" stroke="url(#paint0_linear)" stroke-miterlimit="10"/>
<path d="M3103.5 3551L2853.5 3579.5L2459.5 4142L2699 4256L3103.5 3551Z" fill="#051421"/>
<defs>
<linearGradient id="paint0_linear" x1="-15.3742" y1="2005.81" x2="3479.68" y2="4371.97" gradientUnits="userSpaceOnUse">
<stop stop-color="#156268" stop-opacity="0.32"/>
<stop offset="1" stop-color="#156268"/>
</linearGradient>
</defs>
</svg>
