<svg width="3248" height="1930" viewBox="0 0 3248 1930" fill="none" xmlns="http://www.w3.org/2000/svg">
<path opacity="0.6" d="M0.475586 968.984C130.048 922.981 276.995 905.319 371.119 1014.39C441.407 1095.82 427.657 1184.67 500.351 1213.77C597.095 1252.49 694.957 1124.54 933.189 977.031C1128.44 856.129 1226.07 795.67 1310.23 803.897C1557.38 828.048 1445.09 1358.01 1672.05 1457.88C1922.56 1568.12 2241.2 1002.49 2496.44 1085.09C2608.94 1121.5 2729.47 1290.44 2714.7 1929.79M8.17173 951.7C134.576 910.501 278.209 896.597 370.638 1005.73C439.766 1087.89 427.188 1176.47 499.657 1205.42C596.963 1244.25 695.241 1114.77 931.959 969.83C947.012 960.648 961.509 951.849 975.49 943.44C1141.57 842.803 1229.49 796.096 1306.77 805.429C1406.57 817.489 1447.79 911.113 1478.08 1024.57C1522.05 1188.17 1540.56 1390.03 1674.19 1446.37C1748.13 1477.29 1827.67 1451.25 1909.56 1402.66C2105.53 1286.37 2309.92 1036.48 2488.11 1095.95C2499.7 1099.84 2511.41 1105.1 2523.08 1112.07C2623.44 1172.11 2720.24 1361.68 2715.55 1911.23M15.8675 934.408C139.095 898.005 279.769 887.568 370.157 997.059C438.393 1079.71 426.725 1168.24 498.964 1197.05C596.829 1235.99 695.516 1104.97 930.737 962.613C945.786 953.575 960.328 944.984 974.328 936.719C1140.01 838.882 1226.38 795.839 1303.32 806.945C1401.64 821.135 1443.19 913.636 1475.12 1025.23C1521.79 1186.24 1542.9 1381.51 1676.35 1434.84C1750.3 1464.4 1829.73 1438.33 1911.21 1392.17C2106.2 1281.71 2303.55 1045.75 2479.78 1106.78C2491.3 1110.76 2502.94 1116.09 2514.59 1123.03C2614.36 1182.55 2712.54 1366.53 2716.4 1892.64M23.5633 917.115C143.622 885.517 281.144 878.696 369.675 988.395C436.883 1071.67 426.264 1160.03 498.278 1188.68C596.704 1227.74 695.437 1094.53 929.523 955.395C944.551 946.462 959.146 938.102 973.174 930.005C1138.31 834.7 1223.27 795.582 1299.87 808.461C1396.7 824.742 1438.3 916.239 1472.15 1025.88C1521.13 1184.45 1545.33 1372.78 1678.5 1423.31C1752.53 1451.4 1831.79 1425.4 1912.87 1381.68C2106.87 1277.04 2297.13 1055.21 2471.47 1117.61C2482.91 1121.71 2494.49 1127.09 2506.11 1133.99C2605.31 1193 2704.87 1371.39 2717.28 1874.06M31.2673 899.831C148.149 873.029 282.528 869.849 369.202 979.732C435.381 1063.63 425.809 1151.81 497.592 1180.31C596.579 1219.49 695.621 1084.54 928.309 948.186C943.325 939.39 957.956 931.221 972.02 923.291C1136.59 830.511 1220.13 795.302 1296.43 809.984C1391.74 828.325 1433.62 918.805 1469.21 1026.53C1520.76 1182.56 1547.79 1364.05 1680.68 1411.79C1754.78 1438.41 1833.86 1412.48 1914.53 1371.2C2107.56 1272.39 2290.72 1064.7 2463.16 1128.47C2474.52 1132.67 2486.04 1138.1 2497.64 1144.98C2596.26 1203.47 2697.2 1376.27 2718.15 1855.5M38.9632 882.539C152.677 860.54 283.896 861.002 368.721 971.068C433.863 1055.6 425.348 1143.6 496.906 1171.95C596.454 1211.24 695.813 1074.56 927.095 940.976C942.098 932.309 956.774 924.339 970.866 916.577C1134.86 826.313 1216.97 794.998 1292.98 811.508C1386.77 831.868 1428.93 921.37 1466.25 1027.19C1520.38 1180.7 1550.24 1355.32 1682.83 1400.27C1757.02 1425.41 1835.92 1399.57 1916.19 1360.72C2108.24 1267.72 2284.3 1074.18 2454.86 1139.31C2466.13 1143.61 2477.58 1149.11 2489.17 1155.94C2587.2 1213.92 2689.51 1381.12 2719.02 1836.92M46.6591 865.246C157.196 848.044 285.256 852.163 368.239 962.405C432.345 1047.58 424.886 1135.38 496.213 1163.58C596.321 1202.99 695.997 1064.58 925.873 933.759C940.872 925.228 955.576 917.45 969.704 909.864C1133.11 822.108 1213.78 794.679 1289.53 813.024C1381.76 835.364 1424.24 923.928 1463.29 1027.85C1520.02 1178.83 1552.7 1346.58 1684.98 1388.74C1759.25 1412.41 1837.97 1386.64 1917.83 1350.23C2108.9 1263.05 2277.86 1083.67 2446.52 1150.14C2457.71 1154.55 2469.11 1160.11 2480.67 1166.9C2578.12 1224.36 2681.81 1385.98 2719.87 1818.34M54.3549 847.954C161.723 835.548 286.617 843.332 367.758 953.733C430.828 1039.55 424.423 1127.16 495.527 1155.21C596.196 1194.73 696.205 1054.6 924.659 926.542C939.645 918.139 954.386 910.561 968.549 903.142C1131.37 817.879 1210.58 794.32 1286.08 814.539C1376.76 838.82 1419.57 926.493 1460.33 1028.5C1519.65 1176.96 1555.16 1337.82 1687.14 1377.21C1761.51 1399.4 1840.02 1373.72 1919.48 1339.74C2109.57 1258.38 2271.44 1093.17 2438.21 1160.98C2449.32 1165.5 2460.65 1171.11 2472.19 1177.86C2569.07 1234.81 2674.14 1390.83 2720.74 1799.76M62.051 830.669C166.242 823.067 287.962 834.525 367.277 945.077C429.303 1031.54 423.961 1118.95 494.833 1146.86C596.064 1186.49 696.406 1044.66 923.437 919.34C938.419 911.074 953.188 903.688 967.388 896.444C1129.6 813.675 1207.36 793.961 1282.63 816.071C1371.74 842.244 1414.89 929.075 1457.37 1029.17C1519.29 1175.11 1557.64 1329.08 1689.29 1365.7C1763.76 1386.41 1842.08 1360.81 1921.13 1329.27C2110.24 1253.73 2265.01 1102.69 2429.89 1171.83C2440.92 1176.45 2452.19 1182.12 2463.71 1188.84C2560.01 1245.27 2666.45 1395.7 2721.61 1781.19M69.7468 813.377C170.769 810.571 289.308 825.719 366.795 936.406C427.777 1023.53 423.491 1110.72 494.147 1138.48C595.938 1178.23 696.622 1034.69 922.223 912.123C937.193 903.986 951.998 896.799 966.233 889.722C1127.83 809.431 1204.13 793.555 1279.19 817.586C1366.72 845.612 1410.24 931.64 1454.41 1029.82C1518.95 1173.25 1560.13 1320.31 1691.45 1354.17C1766.02 1373.39 1844.14 1347.88 1922.79 1318.78C2110.92 1249.06 2258.59 1112.21 2421.58 1182.66C2432.53 1187.39 2443.74 1193.11 2455.24 1199.8C2550.95 1255.72 2658.78 1400.56 2722.48 1762.61M77.4427 796.085C175.289 798.084 290.646 816.913 366.314 927.743C426.252 1015.53 423.029 1102.51 493.454 1130.12C595.805 1169.98 696.838 1024.75 921.001 904.914C935.967 896.913 950.801 889.918 965.072 883.017C1126.05 805.187 1200.88 793.133 1275.74 819.119C1361.68 848.949 1405.56 934.221 1451.45 1030.48C1518.61 1171.4 1562.62 1311.55 1693.6 1342.64C1768.28 1360.38 1846.19 1334.97 1924.43 1308.3C2111.58 1244.4 2252.16 1121.74 2413.26 1193.51C2424.13 1198.35 2435.27 1204.12 2446.75 1210.77C2541.89 1266.18 2651.08 1405.42 2723.33 1744.04M85.1388 778.8C179.816 785.595 291.976 808.13 365.833 919.087C424.712 1007.54 422.568 1094.3 492.768 1121.77C595.681 1161.74 697.071 1014.84 919.78 897.712C934.741 889.848 949.595 883.036 963.91 876.311C1124.25 800.942 1197.63 792.687 1272.29 820.642C1356.64 852.229 1400.91 936.794 1448.49 1031.14C1518.28 1169.55 1565.13 1302.77 1695.76 1331.12C1770.54 1347.36 1848.25 1322.04 1926.09 1297.81C2112.26 1239.74 2245.74 1131.28 2404.94 1204.35C2415.73 1209.3 2426.81 1215.12 2438.27 1221.73C2532.83 1276.62 2643.4 1410.28 2724.2 1725.45M92.8346 761.509C184.343 773.099 293.299 799.349 365.351 910.416C423.172 999.557 422.106 1086.08 492.074 1113.4C595.54 1153.48 697.304 1004.9 918.558 890.496C933.507 882.768 948.397 876.148 962.748 869.59C1122.44 796.667 1194.37 792.194 1268.83 822.158C1351.59 855.462 1396.25 939.367 1445.52 1031.8C1517.95 1167.69 1567.63 1293.97 1697.91 1319.59C1772.81 1334.33 1850.3 1309.12 1927.73 1287.32C2112.92 1235.07 2239.3 1140.83 2396.61 1215.18C2407.32 1220.24 2418.33 1226.13 2429.77 1232.7C2523.75 1287.08 2635.7 1415.14 2725.05 1706.88M100.53 744.216C188.862 760.611 294.613 790.575 364.862 901.752C421.624 991.57 421.636 1077.86 491.381 1105.03C595.406 1145.22 697.545 994.986 917.336 883.278C932.28 875.679 947.191 869.251 961.586 862.876C1120.63 792.384 1191.1 791.676 1265.38 823.674C1346.56 858.654 1391.61 941.932 1442.56 1032.45C1517.64 1165.83 1570.14 1285.17 1700.06 1308.06C1775.08 1321.29 1852.36 1296.2 1929.39 1276.84C2113.6 1230.41 2232.87 1150.39 2388.3 1226.03C2398.93 1231.2 2409.89 1237.13 2421.3 1243.67C2514.7 1297.54 2628.02 1420.01 2725.92 1688.31M108.226 726.923C193.389 748.114 295.921 781.809 364.381 893.081C420.068 983.591 421.174 1069.64 490.687 1096.66C595.273 1136.97 697.786 985.077 916.114 876.061C931.054 868.598 945.994 862.361 960.424 856.154C1118.81 788.084 1187.83 791.11 1261.92 825.189C1341.52 861.797 1386.97 944.504 1439.59 1033.1C1517.32 1163.98 1572.65 1276.35 1702.21 1296.54C1777.36 1308.25 1854.41 1283.27 1931.03 1266.35C2114.26 1225.74 2226.43 1159.95 2379.96 1236.87C2390.51 1242.15 2401.41 1248.14 2412.8 1254.64C2505.62 1307.98 2620.32 1424.87 2726.77 1669.72M115.922 709.64C197.909 735.634 297.221 773.06 363.899 884.426C418.513 975.637 420.712 1061.43 489.994 1088.31C595.141 1128.73 698.035 975.192 914.892 868.86C929.828 861.533 944.788 855.481 959.262 849.457C1116.97 783.794 1184.56 790.545 1258.47 826.729C1336.49 864.917 1382.34 947.093 1436.63 1033.78C1517.03 1162.14 1575.18 1267.54 1704.37 1285.03C1779.64 1295.22 1856.46 1270.37 1932.68 1255.89C2114.93 1221.1 2219.99 1169.55 2371.65 1247.72C2382.12 1253.11 2392.95 1259.15 2404.32 1265.61C2496.56 1318.45 2612.64 1429.74 2727.64 1651.16M123.618 692.347C202.436 723.138 298.505 764.311 363.418 875.762C416.957 967.675 420.25 1053.22 489.308 1079.94C595.016 1120.47 698.308 965.306 913.678 861.642C928.609 854.452 943.59 848.583 958.108 842.735C1115.14 779.47 1181.31 789.922 1255.03 828.236C1331.49 867.972 1377.72 949.648 1433.68 1034.42C1516.75 1160.26 1577.72 1258.68 1706.52 1273.48C1781.92 1282.15 1858.52 1257.43 1934.33 1245.38C2115.6 1216.41 2213.56 1179.11 2363.33 1258.54C2373.72 1264.05 2384.49 1270.13 2395.84 1276.57C2487.49 1328.89 2604.95 1434.59 2728.5 1632.56M131.314 675.054C206.955 710.649 299.789 755.57 362.937 867.09C415.386 959.712 419.78 1044.99 488.614 1071.57C594.883 1112.21 698.573 955.429 912.456 854.424C927.383 847.379 942.392 841.686 956.945 836.013C1113.3 775.131 1178.06 789.26 1251.58 829.752C1326.47 870.995 1373.1 952.212 1430.71 1035.07C1516.47 1158.4 1580.25 1249.83 1708.67 1261.96C1784.2 1269.1 1860.57 1244.51 1935.97 1234.9C2116.26 1211.75 2207.1 1188.71 2355 1269.39C2365.3 1275.01 2376.02 1281.14 2387.34 1287.54C2478.42 1339.34 2597.26 1439.45 2729.35 1613.99M139.01 657.77C211.483 698.161 301.058 746.846 362.455 858.435C413.808 951.767 419.318 1036.78 487.928 1063.21C594.758 1103.98 698.855 945.576 911.242 847.224C926.165 840.314 941.194 834.805 955.792 829.315C1111.45 770.801 1174.82 788.597 1248.13 831.284C1321.48 873.994 1368.49 954.792 1427.77 1035.74C1516.21 1156.55 1582.8 1240.97 1710.84 1250.45C1786.51 1256.05 1862.64 1231.6 1937.64 1224.42C2116.96 1207.1 2200.68 1198.33 2346.7 1280.23C2356.92 1285.97 2367.58 1292.15 2378.89 1298.51C2469.39 1349.8 2589.6 1444.32 2730.24 1595.42M146.714 640.478C216.01 685.665 302.327 738.121 361.982 849.763C412.237 943.821 418.864 1028.56 487.242 1054.84C594.632 1095.71 699.136 935.713 910.028 839.998C924.946 833.225 939.995 827.892 954.637 822.585C1109.59 766.422 1171.59 787.862 1244.68 832.791C1316.51 876.935 1363.89 957.34 1424.81 1036.39C1515.95 1154.67 1585.34 1232.09 1713 1238.91C1788.8 1242.96 1864.71 1218.67 1939.29 1213.92C2117.62 1202.42 2194.23 1207.93 2338.38 1291.06C2348.52 1296.91 2359.11 1303.14 2370.39 1309.46C2460.31 1360.24 2581.9 1449.16 2731.09 1576.82M154.41 623.186C220.537 673.177 303.581 729.398 361.5 841.1C410.643 935.884 418.402 1020.34 486.557 1046.48C594.507 1087.46 699.434 925.876 908.814 832.797C923.728 826.168 938.798 821.011 953.483 815.888C1107.73 762.068 1168.39 787.135 1241.24 834.331C1311.55 879.877 1359.3 959.919 1421.85 1037.06C1515.72 1152.82 1587.89 1223.22 1715.16 1227.41C1791.09 1229.9 1866.77 1205.77 1940.96 1203.46C2118.31 1197.77 2187.79 1217.57 2330.08 1301.92C2340.14 1307.89 2350.67 1314.17 2361.93 1320.46C2451.27 1370.72 2574.24 1454.05 2731.98 1558.28M162.106 605.901C225.056 660.689 304.827 720.698 361.019 832.444C409.049 927.954 417.94 1012.14 485.863 1038.12C594.375 1079.22 699.725 916.054 907.585 825.595C922.494 819.103 937.576 814.122 952.314 809.182C1105.85 757.69 1165.18 786.367 1237.79 835.855C1306.61 882.762 1354.7 962.475 1418.89 1037.72C1515.47 1150.95 1590.43 1214.33 1717.3 1215.88C1793.37 1216.82 1868.82 1192.85 1942.59 1192.98C2118.96 1193.11 2181.31 1227.2 2321.74 1312.76C2331.71 1318.84 2342.18 1325.17 2353.43 1331.42C2442.19 1381.17 2566.53 1458.91 2732.82 1539.7M169.802 588.609C229.583 648.201 306.057 711.983 360.538 823.773C407.44 920.018 417.478 1003.91 485.177 1029.74C594.249 1070.96 700.023 906.224 906.37 818.371C921.284 812.023 936.378 807.21 951.16 802.461C1103.97 753.281 1162 785.542 1234.34 837.371C1301.68 885.623 1350.11 965.022 1415.93 1038.37C1515.23 1149.05 1593.13 1210.58 1719.46 1204.35C1795.57 1200.59 1870.87 1179.92 1944.24 1182.49C2119.64 1188.45 2174.86 1236.85 2313.42 1323.6C2323.31 1329.79 2333.72 1336.17 2344.95 1342.38C2433.13 1391.61 2558.85 1463.76 2733.69 1521.11M177.498 571.317C234.11 635.704 307.28 703.283 360.057 815.109C405.83 912.096 417.016 995.697 484.484 1021.38C594.117 1062.71 700.329 896.426 905.148 811.161C920.058 804.958 935.172 800.312 949.998 795.747C1102.09 748.87 1158.85 784.709 1230.89 838.886C1296.78 888.451 1345.53 967.569 1412.96 1039.02C1515.01 1147.16 1595.78 1201.63 1721.61 1192.82C1797.81 1187.48 1872.93 1166.99 1945.89 1172C2120.31 1183.78 2168.39 1246.49 2305.1 1334.44C2314.91 1340.74 2325.27 1347.17 2336.46 1353.34C2424.06 1402.07 2551.16 1468.62 2734.55 1502.53M185.194 554.024C238.63 623.208 308.494 694.584 359.575 806.438C404.205 904.168 416.554 987.474 483.798 1013.01C593.991 1054.46 700.644 886.627 903.934 803.943C918.839 797.876 933.974 793.407 948.843 789.025C1100.2 744.428 1155.73 783.826 1227.44 840.402C1291.9 891.254 1340.96 970.099 1410 1039.68C1514.79 1145.25 1598.07 1187.53 1723.77 1181.29C1800.25 1177.49 1874.99 1154.07 1947.55 1161.5C2120.98 1179.11 2161.92 1256.14 2296.79 1345.27C2306.51 1351.7 2316.81 1358.16 2327.99 1364.3C2415 1412.51 2543.48 1473.47 2735.41 1483.94M192.89 536.74C243.157 610.728 309.694 685.902 359.094 797.782C402.573 896.264 416.084 979.26 483.104 1004.65C593.859 1046.21 700.959 876.853 902.712 796.734C917.621 790.812 932.76 786.511 947.682 782.32C1098.3 739.987 1152.63 782.944 1223.99 841.934C1287.04 894.049 1336.39 972.646 1407.05 1040.35C1514.59 1143.36 1600.62 1178.58 1725.92 1169.78C1802.54 1164.39 1877.04 1141.16 1949.2 1151.03C2121.65 1174.46 2155.44 1265.83 2288.47 1356.12C2298.11 1362.66 2308.34 1369.18 2319.51 1375.28C2405.95 1422.98 2535.8 1478.35 2736.28 1465.38M200.585 519.448C247.676 598.232 310.893 677.211 358.612 789.111C400.932 888.343 415.622 971.037 482.418 996.282C593.733 1037.95 701.282 867.078 901.498 789.517C916.403 783.746 931.561 779.597 946.527 775.597C1096.41 735.521 1149.56 782.012 1220.54 843.441C1282.21 896.81 1331.81 975.169 1404.09 1040.99C1514.38 1141.43 1603.16 1169.61 1728.08 1158.24C1804.84 1151.25 1879.1 1128.23 1950.85 1140.53C2122.33 1169.77 2148.97 1275.49 2280.15 1366.95C2289.71 1373.62 2299.89 1380.17 2311.02 1386.24C2396.88 1433.42 2528.11 1483.19 2737.14 1446.8M208.281 502.155C252.203 585.743 312.069 668.53 358.131 780.447C399.276 880.432 415.16 962.822 481.725 987.921C593.601 1029.71 701.605 857.328 900.276 782.308C915.185 776.682 930.348 772.701 945.365 768.892C1094.51 731.056 1146.52 781.072 1217.09 844.973C1277.39 899.572 1327.24 977.708 1401.13 1041.66C1514.18 1139.52 1605.7 1160.64 1730.23 1146.72C1807.12 1138.13 1881.16 1115.32 1952.5 1130.06C2122.99 1165.12 2142.47 1285.19 2271.83 1377.79C2281.3 1384.58 2291.42 1391.18 2302.53 1397.21C2387.82 1443.88 2520.41 1488.06 2738 1428.22M215.977 484.871C256.723 573.255 313.245 659.856 357.642 771.792C397.604 872.536 414.69 954.615 481.023 979.56C593.46 1021.46 701.921 847.585 899.047 775.099C913.951 769.617 929.134 765.796 944.196 762.178C1092.6 726.558 1143.5 780.107 1213.63 846.489C1272.6 902.309 1322.68 980.214 1398.16 1042.31C1513.98 1137.59 1608.23 1151.66 1732.38 1135.2C1809.4 1124.99 1883.21 1102.39 1954.15 1119.57C2123.67 1160.45 2135.98 1294.87 2263.51 1388.63C2272.9 1395.54 2282.96 1402.18 2294.05 1408.17C2378.76 1454.32 2512.74 1492.91 2738.87 1409.64M223.673 467.579C261.25 560.767 314.397 651.174 357.161 763.12C395.933 864.625 414.228 946.392 480.338 971.19C593.335 1013.2 702.261 837.858 897.833 767.881C912.741 762.552 927.927 758.883 943.041 755.456C1090.69 722.044 1140.54 779.108 1210.19 848.004C1267.83 905.028 1318.12 982.728 1395.2 1042.96C1513.79 1135.63 1610.76 1142.64 1734.54 1123.67C1811.69 1111.83 1885.26 1089.47 1955.8 1109.08C2124.33 1155.79 2129.47 1304.56 2255.19 1399.47C2264.49 1406.49 2274.5 1413.18 2285.57 1419.14C2369.69 1464.78 2505.05 1497.78 2739.73 1391.07M231.369 450.286C265.769 548.271 315.55 642.493 356.679 754.457C394.253 856.73 413.766 938.177 479.644 962.829C593.202 1004.96 702.602 828.147 896.611 760.672C911.515 755.487 926.721 751.97 941.88 748.751C1088.78 717.531 1137.6 778.109 1206.74 849.536C1263.1 907.756 1313.56 985.242 1392.24 1043.63C1513.6 1133.69 1613.29 1133.64 1736.69 1112.15C1813.96 1098.69 1887.31 1076.55 1957.45 1098.6C2125 1151.14 2122.97 1314.28 2246.87 1410.31C2256.09 1417.46 2266.03 1424.18 2277.08 1430.11C2360.62 1475.23 2497.35 1502.65 2740.59 1372.49M239.065 432.994C270.296 535.774 316.686 633.82 356.198 745.786C392.558 848.819 413.304 929.954 478.958 954.451C593.076 996.685 702.942 818.436 895.389 753.455C910.297 748.422 925.507 745.057 940.717 742.029C1086.88 712.985 1134.7 777.077 1203.28 851.044C1258.37 910.459 1309 987.733 1389.27 1044.27C1513.41 1131.71 1615.8 1124.62 1738.83 1100.61C1816.23 1085.51 1889.36 1063.63 1959.09 1088.11C2125.67 1146.47 2116.44 1323.99 2238.54 1421.15C2247.66 1428.42 2257.56 1435.19 2268.59 1441.07C2351.55 1485.68 2489.66 1507.5 2741.44 1353.91M246.761 415.71C274.816 523.294 317.816 625.155 355.717 737.13C390.855 840.933 412.842 921.747 478.265 946.098C592.944 988.446 703.283 808.758 894.167 746.253C909.079 741.373 924.301 738.152 939.556 735.332C1084.97 708.44 1131.83 776.06 1199.83 852.584C1253.68 913.185 1304.44 990.239 1386.32 1044.95C1513.24 1129.76 1618.32 1115.6 1741 1089.11C1818.51 1072.37 1891.43 1050.73 1960.75 1077.65C2126.35 1141.82 2109.93 1333.73 2230.23 1432.01C2239.27 1439.4 2249.1 1446.21 2260.12 1452.06C2342.5 1496.15 2481.98 1512.38 2742.31 1335.35M254.457 398.418C279.343 510.798 318.937 616.483 355.235 728.467C389.136 833.039 412.372 913.524 477.579 937.736C592.819 980.198 703.64 799.087 892.953 739.044C907.861 734.316 923.094 731.24 938.402 728.618C1083.07 703.87 1129.01 775.002 1196.38 854.1C1249.01 915.887 1299.89 992.722 1383.36 1045.6C1513.06 1127.77 1620.83 1106.56 1743.15 1077.58C1820.78 1059.18 1893.49 1037.8 1962.4 1067.16C2127.01 1137.15 2103.39 1343.46 2221.91 1442.84C2230.86 1450.35 2240.65 1457.21 2251.64 1463.02C2333.44 1506.6 2474.31 1517.24 2743.18 1316.77M262.161 381.125C283.878 498.309 320.05 607.811 354.762 719.795C387.418 825.136 411.918 905.301 476.893 929.358C592.693 971.934 703.99 789.423 891.739 731.818C906.651 727.243 921.895 724.302 937.247 721.896C1081.17 699.276 1126.21 773.935 1192.94 855.615C1244.38 918.587 1295.34 995.195 1380.41 1046.26C1512.89 1125.77 1623.34 1097.51 1745.32 1066.05C1823.05 1046 1895.55 1024.87 1964.06 1056.67C2127.7 1132.48 2096.87 1353.18 2213.6 1453.68C2222.46 1461.31 2232.19 1468.21 2243.16 1473.98C2324.38 1517.05 2466.62 1522.09 2744.05 1298.18M269.857 363.841C288.397 485.821 321.14 599.147 354.281 711.139C385.676 817.251 411.456 897.094 476.207 921.005C592.569 963.695 704.348 779.792 890.525 724.617C905.441 720.201 920.689 717.397 936.093 715.19C1079.27 694.682 1123.46 772.867 1189.5 857.146C1239.77 921.303 1290.79 997.685 1377.45 1046.92C1512.71 1123.77 1625.83 1088.45 1747.47 1054.53C1825.31 1032.82 1897.61 1011.96 1965.71 1046.18C2128.37 1127.82 2090.31 1362.92 2205.29 1464.53C2214.06 1472.28 2223.73 1479.22 2234.68 1484.95C2315.32 1527.5 2458.94 1526.96 2744.91 1279.62M277.553 346.548C292.924 473.325 322.229 590.467 353.799 702.468C383.926 809.358 410.994 888.871 475.514 912.636C592.436 955.439 704.698 770.161 889.303 717.4C904.215 713.137 919.482 710.468 934.931 708.469C1077.36 690.056 1120.74 771.782 1186.04 858.654C1235.17 924.003 1286.24 1000.14 1374.48 1047.56C1512.53 1121.75 1628.31 1079.38 1749.62 1042.99C1827.56 1019.61 1899.66 999.022 1967.35 1035.69C2129.03 1123.14 2083.75 1372.66 2196.95 1475.35C2205.64 1483.22 2215.26 1490.2 2226.19 1495.9C2306.25 1537.94 2451.25 1531.8 2745.77 1261.02M285.248 329.256C297.444 460.837 323.304 581.796 353.318 693.805C382.168 801.465 410.532 880.656 474.828 904.274C592.311 947.192 705.057 760.554 888.089 710.191C903.005 706.088 918.276 703.547 933.777 701.763C1075.47 685.43 1118.05 770.712 1182.6 860.186C1230.59 926.727 1281.69 1002.61 1371.53 1048.23C1512.35 1119.73 1630.8 1070.32 1751.78 1031.48C1829.82 1006.43 1901.72 986.116 1969.01 1025.21C2129.71 1118.49 2077.2 1382.41 2188.64 1486.2C2197.24 1494.21 2206.81 1501.21 2217.71 1506.88C2297.19 1548.41 2443.56 1536.68 2746.63 1242.46M292.944 311.964C301.971 448.34 324.369 573.117 352.836 685.141C380.394 793.572 410.07 872.441 474.134 895.905C592.177 938.936 705.407 750.947 886.867 702.973C901.787 699.031 917.069 696.618 932.615 695.041C1073.58 680.772 1115.4 769.617 1179.14 861.694C1226.04 929.433 1277.12 1005.05 1368.56 1048.88C1512.15 1117.69 1633.26 1061.23 1753.93 1019.94C1832.05 993.21 1903.78 973.186 1970.65 1014.71C2130.37 1113.82 2070.61 1392.16 2180.32 1497.03C2188.82 1505.16 2198.34 1512.2 2209.22 1517.84C2288.13 1558.85 2435.87 1541.53 2747.49 1223.87M300.64 294.679C306.49 435.86 325.42 564.446 352.355 676.477C378.605 785.672 409.608 864.226 473.448 887.543C592.053 930.689 705.767 741.372 885.653 695.764C900.578 691.981 915.87 689.689 931.461 688.335C1071.7 676.121 1112.79 768.537 1175.7 863.225C1221.51 932.171 1272.57 1007.52 1365.62 1049.55C1511.99 1115.66 1635.74 1052.16 1756.1 1008.43C1834.31 980.01 1905.85 960.271 1972.33 1004.24C2131.06 1109.16 2064.05 1401.92 2172.02 1507.88C2180.43 1516.13 2189.9 1523.21 2200.76 1528.8C2279.08 1569.3 2428.21 1546.39 2748.38 1205.29M308.336 277.387C311.017 423.364 326.462 555.768 351.874 667.814C376.808 777.78 409.146 856.011 472.755 879.182C591.92 922.441 706.119 731.813 884.431 688.555C899.352 684.933 914.663 682.76 930.299 681.622C1069.81 671.439 1110.2 767.449 1172.25 864.749C1216.99 934.909 1268 1009.97 1362.66 1050.21C1511.79 1113.61 1638.18 1043.08 1758.25 996.905C1836.53 966.803 1907.9 947.357 1973.97 993.766C2131.72 1104.5 2057.44 1411.7 2163.69 1518.73C2172.01 1527.11 2181.43 1534.23 2192.27 1539.78C2270.01 1579.77 2420.52 1551.26 2749.24 1186.73M316.032 260.095C315.536 410.868 327.497 547.082 351.392 659.143C374.994 769.872 408.676 847.781 472.061 870.804C591.786 914.178 706.463 722.255 883.209 681.329C898.134 677.876 913.448 675.816 929.137 674.892C1067.93 666.732 1107.64 766.344 1168.79 866.249C1212.49 937.639 1263.43 1012.39 1359.69 1050.84C1511.6 1111.52 1640.62 1033.96 1760.4 985.352C1838.75 953.564 1909.95 934.403 1975.61 983.252C2132.4 1099.81 2050.84 1421.43 2155.37 1529.54C2163.59 1538.05 2172.96 1545.21 2183.78 1550.73C2260.94 1590.2 2412.82 1556.1 2750.09 1168.13M323.728 242.811C320.064 398.388 328.523 538.403 350.911 650.487C373.174 761.981 408.214 839.574 471.375 862.451C591.662 905.938 706.816 712.728 881.988 674.136C896.917 670.843 912.242 668.903 927.976 668.203C1066.06 662.049 1105.12 765.286 1165.35 867.797C1208.01 940.423 1258.93 1014.66 1356.73 1051.52C1511.5 1109.18 1643.05 1024.89 1762.56 973.863C1840.98 940.381 1912.01 921.521 1977.26 972.802C2133.06 1095.19 2044.23 1431.23 2147.04 1540.42C2155.17 1549.05 2164.5 1556.25 2175.29 1561.73C2251.88 1600.69 2405.13 1561 2750.95 1149.59M331.424 225.518C324.583 385.891 329.331 529.755 350.422 641.824C371.126 754.119 407.744 831.359 470.674 854.089C591.521 897.691 707.216 703.504 880.758 666.927C895.692 663.834 911.027 661.965 926.806 661.489C1064.18 657.326 1102.61 764.212 1161.88 869.32C1203.54 943.192 1254.31 1017.19 1353.75 1052.18C1511.23 1107.27 1645.38 1015.6 1764.7 962.341C1843.12 927.039 1914.05 908.607 1978.9 962.32C2133.72 1090.53 2037.45 1441.15 2138.72 1551.26C2146.74 1560.03 2156.03 1567.25 2166.81 1572.69C2242.81 1611.13 2397.44 1565.85 2751.81 1131M339.12 208.226C319.024 539.874 345.068 800.74 469.988 845.712C601.934 893.222 727.621 657.918 925.651 654.759C1157.69 651.057 1104.8 972.199 1350.8 1052.82C1616.71 1139.96 1818.46 810.596 1980.56 951.813C2146.67 1096.54 2012.81 1510.48 2158.33 1583.64C2233.75 1621.57 2389.76 1570.7 2752.67 1112.41M343.05 202.472C336.408 336.597 337.574 460.875 348.934 566.001C364.796 714.663 403.447 817.581 474.994 847.909C558.621 883.356 638.058 802.211 739.341 738.788C794.224 704.418 855.388 673.591 925.38 670.226C1132.3 660.287 1118.48 902.45 1287.62 1012.57C1307.82 1025.61 1330.28 1037.24 1355.83 1046.4C1482.34 1091.74 1592.22 1045.89 1694.74 995.182C1753.21 966.437 1807.09 935.34 1857.33 926.764C1901.68 919.196 1942.37 927.302 1980.47 963.138C2054.74 1032.61 2065.49 1159.65 2072.3 1280.74C2079.91 1420.63 2081.17 1553.86 2164.11 1588.49C2243.28 1621.55 2402.66 1566.86 2766.39 1112.15M346.972 196.719C341.876 329.865 344.74 455.078 356.774 563.514C372.941 712.738 411.001 816.193 479.999 850.106C561.641 890.23 637.351 816.341 737.932 756.143C792.706 723.356 854.484 691.327 925.116 685.683C1131.19 669.224 1123.82 897.085 1292.6 1004.94C1313.08 1018.02 1335.54 1030.1 1360.86 1039.97C1485.48 1088.55 1591.74 1051.66 1695.65 1002.74C1755.11 974.751 1809.44 941.437 1859.89 933.978C1904.06 927.442 1943.55 937.263 1980.39 974.461C2051.87 1046.61 2060.91 1175.89 2068.74 1296.23C2077.22 1434.58 2082.09 1563.41 2169.91 1593.34C2252.73 1621.57 2415.56 1563.02 2780.12 1111.88M350.902 190.973C347.345 323.142 351.905 449.274 364.614 561.036C381.086 710.821 418.596 814.916 484.997 852.303C564.742 897.206 636.668 830.471 736.507 773.499C791.188 742.302 853.548 709.087 924.837 701.142C1130 678.275 1129.37 891.37 1297.58 997.303C1318.35 1010.39 1340.79 1022.96 1365.88 1033.55C1488.61 1085.33 1591.3 1057.57 1696.55 1010.31C1757.04 983.153 1811.79 947.543 1862.44 941.194C1906.43 935.68 1944.77 947.174 1980.3 985.778C2049.07 1060.49 2056.64 1192.1 2065.16 1311.71C2074.89 1448.5 2082.92 1572.99 2175.7 1598.19C2262.1 1621.64 2428.46 1559.18 2793.85 1111.61M354.832 185.22C352.813 316.411 359.345 443.438 372.454 558.55C389.575 708.856 426.226 813.742 490.003 854.5C567.925 904.293 636.01 844.608 735.09 790.863C789.686 761.248 852.598 726.888 924.565 716.608C1128.76 687.432 1134.94 885.631 1302.56 989.678C1323.63 1002.75 1346.03 1015.82 1370.91 1027.14C1491.74 1082.09 1590.88 1063.49 1697.46 1017.89C1758.99 991.562 1814.14 953.657 1864.99 948.425C1908.8 943.918 1945.99 957.086 1980.22 997.118C2046.3 1074.39 2052.16 1208.34 2061.6 1327.21C2072.32 1462.45 2083.69 1582.66 2181.5 1603.04C2271.41 1621.79 2441.36 1555.34 2807.59 1111.35M358.754 179.466C358.281 309.679 366.557 437.624 380.285 556.064C397.775 706.921 433.867 812.68 495.001 856.689C571.15 911.507 635.367 858.752 733.665 808.211C788.192 780.177 851.625 744.698 924.286 732.059C1127.49 696.693 1140.53 879.858 1307.53 982.037C1328.9 995.113 1351.27 1008.65 1375.93 1020.7C1494.85 1078.8 1590.46 1069.39 1698.36 1025.44C1760.93 999.948 1816.47 959.723 1867.54 955.616C1911.16 952.109 1947.21 966.949 1980.13 1008.42C2043.51 1088.24 2047.67 1224.54 2058.02 1342.68C2069.73 1476.36 2084.4 1592.33 2187.29 1607.87C2280.67 1621.96 2454.26 1551.48 2821.31 1111.05M362.684 173.712C363.75 302.948 373.778 431.818 388.133 553.586C405.983 705.003 441.518 811.746 500.014 858.886C574.418 918.849 634.771 872.904 732.256 825.567C786.721 799.122 850.653 762.555 924.03 747.509C1126.22 706.059 1146.16 874.061 1312.54 974.388C1334.21 987.456 1356.54 1001.48 1380.98 1014.26C1498 1075.47 1590.07 1075.31 1699.29 1032.99C1762.91 1008.34 1818.82 965.789 1870.12 962.823C1913.54 960.315 1948.45 976.828 1980.07 1019.73C2040.76 1102.07 2043.2 1240.75 2054.47 1358.16C2067.15 1490.29 2085.1 1602.1 2193.1 1612.7C2289.92 1622.22 2467.18 1547.63 2835.06 1110.78M366.606 167.959C369.218 296.217 380.99 426.005 395.965 551.1C414.158 703.07 449.141 810.918 505.012 861.083C577.674 926.318 634.176 887.08 730.831 842.931C785.258 818.075 849.658 780.446 923.75 762.975C1124.9 715.547 1151.77 868.257 1317.51 966.763C1339.48 979.823 1361.78 994.31 1386 1007.84C1501.11 1072.13 1589.67 1081.25 1700.19 1040.56C1764.85 1016.76 1821.24 973.89 1872.67 970.038C1915.79 966.816 1949.68 986.707 1979.97 1031.05C2037.97 1115.91 2038.7 1256.98 2050.89 1373.64C2064.54 1504.22 2085.74 1611.93 2198.89 1617.55C2299.12 1622.54 2480.07 1543.78 2848.78 1110.51M370.536 162.205C374.686 289.486 388.194 420.191 403.805 548.613C422.342 701.144 456.735 810.194 510.01 863.272C580.908 933.909 633.604 901.255 729.406 860.279C783.803 837.011 848.656 798.352 923.471 778.425C1123.58 725.13 1157.41 862.419 1322.49 959.123C1344.76 972.175 1367.02 987.136 1391.02 1001.41C1504.23 1068.74 1589.26 1087.19 1701.09 1048.12C1766.8 1025.18 1823.52 980.166 1875.21 977.253C1918.16 974.83 1950.89 996.578 1979.89 1042.37C2035.2 1129.74 2034.19 1273.2 2047.32 1389.14C2061.92 1518.15 2086.39 1621.82 2204.68 1622.41C2308.31 1622.92 2492.97 1539.95 2862.5 1110.25M374.466 156.452C380.162 282.755 395.407 414.378 411.652 546.127C430.527 699.218 464.293 809.567 515.024 865.469C584.123 941.612 633.08 915.453 728.005 877.635C782.388 855.963 847.67 816.307 923.215 793.883C1122.27 734.81 1163.07 856.565 1327.48 951.489C1350.07 964.526 1372.28 979.953 1396.07 994.987C1507.37 1065.33 1588.88 1093.14 1702.01 1055.69C1768.77 1033.59 1825.78 983.973 1877.78 984.468C1920.58 984.879 1952.14 1006.45 1979.82 1053.7C2032.46 1143.56 2029.7 1289.42 2043.77 1404.62C2059.33 1532.09 2086.98 1624.74 2210.49 1627.25C2317.58 1629.43 2505.89 1536.11 2876.25 1109.98M378.388 150.698C385.623 276.023 402.603 408.572 419.484 543.641C438.687 697.285 471.789 809.014 520.021 867.659C587.261 949.414 632.565 929.666 726.579 894.991C780.965 874.93 846.662 834.285 922.936 809.342C1120.94 744.594 1168.73 850.695 1332.46 943.857C1355.35 956.877 1377.52 972.762 1401.09 988.556C1510.5 1061.89 1588.48 1099.09 1702.91 1063.25C1770.73 1042.01 1828.07 990 1880.33 991.676C1922.91 993.038 1953.37 1016.3 1979.72 1065.01C2029.69 1157.36 2025.18 1305.62 2040.19 1420.09C2056.69 1545.99 2087.68 1641.74 2216.28 1632.08C2326.72 1623.79 2518.78 1532.26 2889.98 1109.69M382.318 144.953C391.099 269.3 409.8 402.767 427.324 541.163C446.855 695.368 479.233 808.551 525.027 869.864C590.339 957.314 632.081 943.919 725.163 912.355C779.558 893.906 845.67 852.304 922.664 824.808C1119.64 754.474 1174.41 844.808 1337.44 936.224C1360.63 949.229 1382.77 965.572 1406.12 982.133C1513.64 1058.42 1588.1 1105.06 1703.82 1070.82C1772.7 1050.44 1830.39 996.035 1882.89 998.891C1925.26 1001.2 1954.61 1026.17 1979.64 1076.33C2026.96 1171.17 2020.66 1321.84 2036.62 1435.59C2054.06 1559.93 2088.33 1651.79 2222.07 1636.94C2335.91 1624.3 2531.68 1528.42 2903.7 1109.44M386.24 139.199C396.567 262.569 416.981 396.962 435.156 538.677C455 693.443 486.607 808.121 530.025 872.053C593.332 965.287 631.614 958.18 723.737 929.703C778.167 912.88 844.664 870.339 922.392 840.258C1118.35 764.418 1180.11 838.889 1342.42 928.583C1365.93 941.572 1388.02 958.365 1411.14 975.701C1516.79 1054.92 1587.71 1111.02 1704.71 1078.38C1774.65 1058.87 1832.68 1002.05 1885.43 1006.11C1927.58 1009.35 1955.85 1036.02 1979.55 1087.65C2024.21 1184.97 2016.13 1338.06 2033.04 1451.08C2051.41 1573.86 2088.98 1661.86 2227.86 1641.79C2345.12 1624.84 2544.57 1524.58 2917.42 1109.17M390.17 133.446C402.036 255.838 424.17 391.149 443.003 536.199C463.161 691.526 493.943 807.757 535.031 874.258C596.241 973.327 631.18 972.488 722.321 947.075C776.792 931.887 843.682 888.421 922.121 855.733C1117.08 774.473 1185.81 832.969 1347.41 920.966C1371.23 933.939 1393.29 951.182 1416.17 969.294C1519.97 1051.42 1587.34 1117.01 1705.63 1085.96C1776.63 1067.32 1834.99 1008.06 1887.99 1013.33C1929.93 1017.5 1957.12 1045.88 1979.47 1098.99C2021.49 1198.76 2011.6 1354.28 2029.48 1466.57C2048.77 1587.79 2089.66 1671.97 2233.66 1646.64C2354.34 1625.4 2557.48 1520.74 2931.16 1108.9M394.092 127.692C407.504 249.106 431.351 385.344 450.835 533.713C471.305 689.601 501.201 807.402 540.029 876.447C599.056 981.409 630.761 986.803 720.896 964.423C775.425 950.885 842.7 906.512 921.842 871.183C1115.82 784.569 1191.52 827.018 1352.38 913.325C1376.51 926.274 1398.53 943.967 1421.19 962.863C1523.15 1047.87 1586.96 1123 1706.53 1093.52C1778.59 1075.76 1837.29 1014.05 1890.54 1020.54C1932.26 1025.63 1958.37 1055.73 1979.38 1110.3C2018.77 1212.54 2007.06 1370.5 2025.91 1482.06C2046.12 1601.73 2090.35 1682.11 2239.45 1651.49C2363.58 1625.99 2570.38 1516.9 2944.89 1108.64M398.022 121.938C412.972 242.375 438.532 379.531 458.675 531.227C479.45 687.677 508.413 807.081 545.034 878.644C601.786 989.526 630.367 1001.16 719.486 981.779C774.082 969.907 841.742 924.642 921.578 886.633C1114.62 794.735 1197.25 821.042 1357.37 905.684C1381.82 918.609 1403.81 936.744 1426.23 956.424C1526.35 1044.29 1586.58 1128.97 1707.44 1101.07C1780.56 1084.18 1839.59 1020.02 1893.1 1027.74C1934.6 1033.72 1959.62 1065.56 1979.3 1121.6C2016.07 1226.31 2002.52 1386.69 2022.34 1497.52C2043.46 1615.63 2091.06 1692.26 2245.26 1656.31C2372.83 1626.57 2583.29 1513.03 2958.62 1108.34M401.952 116.185C418.448 235.644 445.713 373.726 466.515 528.741C487.587 685.753 515.562 806.762 550.04 880.833C604.415 997.67 629.989 1015.54 718.069 999.135C772.739 988.945 840.794 942.796 921.306 902.092C1113.43 804.973 1202.99 815.049 1362.35 898.044C1387.12 910.936 1409.07 929.521 1431.26 949.992C1529.56 1040.69 1586.21 1134.97 1708.34 1108.63C1782.54 1092.63 1841.9 1025.99 1895.66 1034.95C1936.94 1041.83 1960.89 1075.41 1979.22 1132.93C2013.37 1240.09 1997.97 1402.91 2018.77 1513.01C2040.79 1629.57 2091.77 1702.44 2251.04 1661.17C2382.08 1627.2 2596.19 1509.2 2972.35 1108.08M405.874 110.431C423.909 228.913 452.879 367.922 474.354 526.254C495.724 683.828 522.671 806.451 555.046 883.03C606.957 1005.82 629.628 1029.97 716.652 1016.49C771.413 1008.01 839.861 960.973 921.035 917.55C1112.27 815.257 1208.73 809.049 1367.34 890.411C1392.41 903.279 1414.33 922.298 1436.29 943.569C1532.79 1037.09 1585.84 1140.98 1709.25 1116.2C1784.51 1101.09 1844.2 1031.95 1898.22 1042.17C1939.28 1049.94 1962.16 1085.26 1979.14 1144.25C2010.68 1253.87 1993.42 1419.14 2015.2 1528.5C2038.11 1643.5 2092.51 1712.66 2256.84 1666C2391.35 1627.82 2609.09 1505.36 2986.08 1107.81M409.804 104.678C429.385 222.182 460.044 362.117 482.194 523.768C503.861 681.904 529.726 806.142 560.043 885.219C609.413 1013.99 629.276 1044.43 715.227 1033.84C770.087 1027.08 838.929 979.166 920.763 933C1111.16 825.59 1214.48 803.016 1372.32 882.77C1397.72 895.606 1419.61 915.067 1441.31 937.138C1536.04 1033.46 1585.47 1146.99 1710.15 1123.75C1786.48 1109.54 1846.5 1037.89 1900.77 1049.37C1941.61 1058.02 1963.44 1095.09 1979.05 1155.56C2007.99 1267.63 1988.84 1435.34 2011.63 1543.97C2035.42 1657.42 2093.25 1722.86 2262.64 1670.84C2400.64 1628.46 2621.99 1501.5 2999.82 1107.52M413.726 98.9323C434.845 215.459 467.202 356.321 490.026 521.29C511.982 679.987 536.734 805.826 565.041 887.417C611.782 1022.15 628.933 1058.93 713.802 1051.2C768.762 1046.19 838.021 997.391 920.483 948.467C1110.07 835.985 1220.25 796.991 1377.3 875.145C1403.02 887.941 1424.88 907.843 1446.34 930.723C1539.31 1029.83 1585.1 1153.02 1711.06 1131.33C1788.45 1118.01 1848.81 1043.83 1903.32 1056.6C1943.96 1066.12 1964.72 1104.95 1978.97 1166.9C2005.32 1281.42 1984.28 1451.57 2008.07 1559.48C2032.74 1671.37 2094.01 1733.12 2268.43 1675.71C2409.93 1629.13 2634.9 1497.68 3013.54 1107.28M417.656 93.1784C440.321 208.727 474.367 350.508 497.866 518.812C520.111 678.071 543.717 805.502 570.047 889.621C614.089 1030.31 628.598 1063.63 712.385 1068.57C767.463 1071.81 837.138 1015.64 920.212 963.933C1109.03 846.412 1226.01 790.941 1382.28 867.52C1408.31 880.276 1430.17 900.619 1451.37 924.299C1542.59 1026.18 1584.73 1159.05 1711.97 1138.9C1790.43 1126.47 1851.12 1049.76 1905.88 1063.82C1946.3 1074.19 1966 1114.8 1978.88 1178.22C2002.65 1295.2 1979.69 1467.8 2004.49 1574.97C2030.02 1685.3 2094.77 1743.37 2274.22 1680.55C2419.23 1629.79 2647.79 1493.84 3027.27 1107.01M421.586 87.4249C445.79 201.996 481.525 344.704 505.713 516.326C528.241 676.155 550.669 805.156 575.061 891.81C616.333 1038.44 628.583 1078.36 710.984 1085.91C765.965 1090.95 836.278 1033.9 919.956 979.383C1108.04 856.861 1231.81 784.859 1387.28 859.871C1413.64 872.586 1435.46 893.371 1456.42 917.859C1545.92 1022.51 1584.37 1165.06 1712.9 1146.45C1792.42 1134.93 1853.46 1055.66 1908.45 1071.02C1948.67 1082.25 1967.3 1124.63 1978.82 1189.52C2000.01 1308.96 1975.13 1484 2000.94 1590.44C2027.33 1699.22 2095.57 1753.61 2280.04 1685.38C2428.56 1630.45 2660.72 1489.98 3041.02 1106.72M425.508 81.6716C451.258 195.265 488.667 338.908 513.545 513.84C536.354 674.231 557.574 804.795 580.059 894.008C618.497 1046.57 628.532 1093.24 709.559 1103.27C764.452 1110.07 835.426 1052.17 919.677 994.841C1107.06 867.342 1237.58 778.778 1392.25 852.238C1418.94 864.913 1440.75 886.132 1461.44 911.436C1549.22 1018.84 1583.99 1171.1 1713.79 1154.02C1794.38 1143.4 1855.77 1061.57 1911 1078.23C1951 1090.31 1968.59 1134.48 1978.72 1200.85C1997.35 1322.74 1970.51 1500.23 1997.36 1605.93C2024.6 1713.16 2096.36 1763.88 2285.82 1690.23C2437.87 1631.13 2673.61 1486.14 3054.73 1106.46M429.438 75.9178C456.726 188.533 495.816 333.104 521.385 511.353C544.468 672.315 564.469 804.417 585.056 896.197C620.606 1054.66 627.61 1117.35 708.134 1120.63C763.523 1122.88 834.583 1070.45 919.397 1010.3C1106.12 877.854 1243.36 772.672 1397.23 844.606C1424.23 857.232 1446.04 878.892 1466.45 905.013C1552.56 1015.16 1583.61 1177.15 1714.68 1161.58C1796.34 1151.88 1858.08 1067.46 1913.54 1085.45C1953.35 1098.36 1969.87 1144.33 1978.63 1212.17C1994.69 1336.52 1965.9 1516.46 1993.79 1621.41C2021.87 1727.1 2097.16 1774.15 2291.61 1695.08C2447.19 1631.81 2686.51 1482.29 3068.46 1106.19M433.36 70.1645C462.195 181.802 502.958 327.3 529.217 508.868C552.581 670.391 571.326 804.025 590.054 898.394C622.667 1062.74 627.264 1132.06 706.709 1137.98C762.202 1142.12 833.764 1088.76 919.126 1025.76C1105.22 888.389 1249.15 766.558 1402.21 836.973C1429.54 849.551 1451.33 871.652 1471.48 898.59C1555.91 1011.48 1583.24 1183.21 1715.59 1169.15C1798.31 1160.37 1860.42 1073.35 1916.1 1092.66C1955.71 1106.41 1971.16 1154.17 1978.54 1223.49C1992.05 1350.3 1961.28 1532.68 1990.22 1636.9C2019.13 1741.05 2097.97 1784.43 2297.41 1699.92C2456.54 1632.49 2699.41 1478.45 3082.19 1105.91M437.29 64.4106C467.671 175.071 510.1 321.496 537.064 506.381C560.702 668.475 578.182 803.609 595.068 900.583C624.704 1070.79 626.919 1146.79 705.3 1155.33C760.881 1161.39 832.976 1107.07 918.862 1041.2C1104.37 898.923 1254.96 760.403 1407.2 829.324C1434.86 841.845 1456.64 864.395 1476.51 892.143C1559.3 1007.77 1582.87 1189.24 1716.5 1176.7C1800.29 1168.83 1862.76 1079.2 1918.65 1099.86C1958.07 1114.44 1972.47 1164.01 1978.46 1234.79C1989.41 1364.08 1956.66 1548.91 1986.64 1652.37C2016.39 1754.98 2098.8 1794.7 2303.2 1704.76C2465.88 1633.17 2712.3 1474.59 3095.92 1105.63M441.22 58.6571C473.139 168.339 517.242 315.692 544.904 503.895C568.816 666.551 585.013 803.177 600.073 902.78C626.685 1078.82 626.551 1161.57 703.883 1172.69C759.545 1180.7 832.205 1125.41 918.59 1056.67C1103.55 909.496 1260.77 754.265 1412.19 821.691C1440.18 834.155 1461.96 857.147 1481.55 885.719C1562.7 1004.07 1582.51 1195.3 1717.42 1184.26C1802.28 1177.31 1865.11 1085.05 1921.22 1107.07C1960.45 1122.46 1973.78 1173.85 1978.39 1246.11C1986.8 1377.86 1952.04 1565.14 1983.09 1667.85C2013.64 1768.92 2099.65 1804.99 2309.01 1709.59C2475.25 1633.85 2725.22 1470.75 3109.66 1105.35M445.142 52.9038C478.607 161.608 524.368 309.897 552.736 501.417C576.914 664.644 591.821 802.73 605.063 904.977C628.619 1086.82 626.138 1176.39 702.458 1190.05C758.187 1200.03 831.433 1143.74 918.311 1072.12C1102.75 920.077 1266.57 748.103 1417.16 814.058C1445.48 826.458 1467.27 849.907 1486.57 879.296C1566.11 1000.39 1582.13 1201.36 1718.32 1191.83C1804.24 1185.81 1867.46 1090.92 1923.77 1114.29C1962.82 1130.51 1975.08 1183.72 1978.3 1257.44C1984.16 1391.66 1947.39 1581.39 1979.51 1683.35C2010.87 1782.89 2100.49 1815.3 2314.79 1714.46C2484.6 1634.56 2738.1 1466.92 3123.38 1105.11M449.072 47.1582C484.076 154.885 531.502 304.101 560.584 498.939C585.027 662.728 598.636 802.275 610.077 907.182C630.552 1094.82 625.733 1191.24 701.049 1207.41C756.821 1219.4 830.702 1162.1 918.047 1087.59C1102.01 930.672 1272.39 741.932 1422.15 806.433C1450.8 818.769 1472.59 842.666 1491.61 872.881C1569.54 996.707 1581.76 1207.44 1719.23 1199.41C1806.21 1194.31 1869.83 1096.78 1926.33 1121.52C1965.19 1138.54 1976.39 1193.58 1978.22 1268.77C1981.54 1405.46 1942.74 1597.64 1975.95 1698.84C2008.11 1796.85 2101.34 1825.59 2320.59 1719.3C2493.97 1635.25 2751.02 1463.08 3137.12 1104.84M452.994 41.4045C489.544 148.162 538.237 298.364 568.415 496.453C592.812 660.861 605.419 801.78 615.075 909.371C632.437 1102.76 625.281 1206.1 699.624 1224.77C755.425 1238.78 829.97 1180.46 917.768 1103.05C1101.28 941.258 1278.19 735.745 1427.12 798.8C1456.11 811.071 1477.9 835.417 1496.63 866.458C1572.97 993.01 1581.37 1213.52 1720.13 1206.97C1808.18 1202.81 1872.19 1102.61 1928.88 1128.73C1967.58 1146.57 1977.7 1203.44 1978.13 1280.09C1978.92 1419.26 1938.08 1613.89 1972.38 1714.33C2005.33 1810.82 2102.2 1835.91 2326.39 1724.16C2503.35 1635.95 2763.92 1459.24 3150.85 1104.57M456.924 35.651C495.012 141.431 545.411 292.559 576.255 493.967C600.957 658.936 612.202 801.278 620.081 911.568C634.306 1110.69 624.814 1220.99 698.207 1242.13C754.013 1258.19 829.262 1198.81 917.504 1118.51C1100.6 951.86 1284.02 729.542 1432.11 791.167C1461.42 803.366 1483.24 828.177 1501.66 860.026C1576.44 989.313 1581 1219.6 1721.04 1214.53C1810.15 1211.31 1874.57 1108.44 1931.44 1135.94C1969.97 1154.57 1979.02 1213.29 1978.05 1291.41C1976.31 1433.05 1933.41 1630.15 1968.81 1729.81C2002.54 1824.78 2103.06 1846.2 2332.18 1728.99C2512.71 1636.63 2776.81 1455.39 3164.57 1104.29M460.854 29.8975C500.488 134.699 552.576 286.755 584.095 491.481C609.102 657.011 618.977 800.759 625.086 913.757C636.158 1118.6 624.308 1235.91 696.789 1259.47C752.578 1277.62 828.578 1217.18 917.232 1133.96C1099.94 962.454 1289.84 723.315 1437.09 783.519C1466.74 795.644 1488.57 820.912 1506.69 853.587C1579.92 985.608 1580.61 1224.81 1721.95 1222.08C1812.13 1220.33 1876.95 1114.24 1933.99 1143.14C1972.36 1162.58 1980.33 1223.14 1977.97 1302.71C1973.69 1446.85 1928.72 1646.4 1965.24 1745.28C1999.74 1838.74 2103.93 1856.49 2337.97 1733.82C2522.1 1637.32 2789.72 1451.53 3178.31 1104M464.776 24.1438C505.949 127.968 559.742 280.95 591.934 488.994C617.247 655.095 625.743 800.225 630.084 915.946C637.978 1126.47 623.756 1250.83 695.365 1276.83C751.105 1297.07 827.894 1235.55 916.953 1149.42C1099.3 973.054 1295.66 717.079 1442.08 775.886C1472.06 787.93 1493.9 813.671 1511.72 847.164C1583.4 981.926 1580.25 1231.75 1722.85 1229.65C1814.09 1228.3 1879.35 1120.07 1936.55 1150.35C1974.76 1170.59 1981.65 1233 1977.89 1314.03C1971.09 1460.65 1924.04 1662.66 1961.67 1760.77C1996.95 1852.72 2104.82 1866.8 2343.78 1738.67C2531.49 1638.01 2802.63 1447.68 3192.05 1103.73M468.706 18.3903C511.425 121.237 566.915 275.146 599.774 486.508C625.391 653.17 632.509 799.667 635.09 918.144C639.798 1134.34 623.181 1265.77 693.948 1294.19C749.617 1316.54 827.234 1253.92 916.681 1164.87C1098.7 983.662 1301.49 710.836 1447.06 768.253C1477.38 780.209 1499.24 806.422 1516.75 840.74C1586.91 978.244 1579.87 1238.11 1723.76 1237.22C1816.06 1236.98 1881.75 1125.88 1939.1 1157.58C1977.17 1178.61 1983.1 1242.88 1977.81 1325.36C1968.73 1474.49 1919.35 1678.95 1958.11 1776.26C1994.14 1866.72 2105.71 1877.12 2349.58 1743.52C2540.89 1638.72 2815.53 1443.85 3205.77 1103.48M472.628 12.6366C516.885 114.506 574.072 269.341 607.606 484.03C633.521 651.254 639.259 799.117 640.088 920.34C641.602 1142.18 622.566 1280.72 692.53 1311.54C748.105 1336.02 826.597 1272.3 916.409 1180.32C1098.13 994.252 1307.31 704.569 1452.04 760.612C1482.69 772.479 1504.57 799.173 1521.77 834.309C1590.41 974.562 1579.47 1244.11 1724.66 1244.77C1818.01 1245.43 1884.15 1131.68 1941.65 1164.78C1979.56 1186.6 1984.36 1252.72 1977.7 1336.67C1966.03 1488.28 1914.62 1695.22 1954.53 1791.74C1991.31 1880.7 2106.8 1887.84 2355.36 1748.36C2550.45 1639.73 2828.42 1440.01 3219.49 1103.2M476.558 6.88316C522.362 107.774 581.246 263.537 615.446 481.544C641.665 649.329 646.016 798.535 645.093 922.538C643.397 1150.01 621.912 1295.67 691.114 1328.91C746.562 1355.53 825.961 1290.69 916.138 1195.79C1097.58 1004.86 1313.23 698.043 1457.02 752.987C1488.03 764.709 1509.98 791.906 1526.8 827.886C1594.19 970.769 1579.08 1250.12 1725.56 1252.34C1819.97 1253.89 1886.57 1137.49 1944.2 1172C1981.98 1194.62 1985.63 1262.6 1977.63 1347.99C1963.34 1502.1 1909.75 1711.58 1950.96 1807.23C1988.35 1894.77 2107.59 1897.94 2361.15 1753.21C2559.76 1640.27 2841.32 1436.16 3233.22 1102.93M480.481 1.1377C527.83 101.051 588.403 257.74 623.286 479.066C698.58 956.904 583.987 1291.25 689.696 1346.26C855.658 1432.63 1247.5 665.393 1462.01 745.354C1617.55 803.333 1541.43 1255.18 1726.48 1259.91C1821.95 1262.36 1889.01 1143.3 1946.77 1179.22C2052.28 1244.84 1881.75 1675.2 1947.4 1822.73C2015.58 1975.95 2351.84 1854.06 3246.97 1102.68" stroke="url(#paint0_linear)" stroke-miterlimit="10"/>
<defs>
<linearGradient id="paint0_linear" x1="379.46" y1="1646.97" x2="3265.45" y2="1852.08" gradientUnits="userSpaceOnUse">
<stop stop-color="#156268"/>
<stop offset="1" stop-color="#156268" stop-opacity="0"/>
</linearGradient>
</defs>
</svg>
