<svg width="12" height="11" viewBox="0 0 12 11" fill="none" xmlns="http://www.w3.org/2000/svg">
<path d="M1.84966 2.75765C2.60834 2.75765 3.21982 2.16344 3.21982 1.43156C3.21982 0.699674 2.60457 0.105469 1.84966 0.105469C1.09097 0.105469 0.479492 0.699674 0.479492 1.43156C0.479492 2.16344 1.09475 2.75765 1.84966 2.75765Z" fill="#16F898"/>
<path d="M3.01973 3.70117H0.702148V10.8932H3.01973V3.70117Z" fill="#16F898"/>
<path d="M6.72697 7.11815C6.72697 6.10728 7.21011 5.50583 8.13865 5.50583C8.99169 5.50583 9.39934 6.08554 9.39934 7.11815V10.8935H11.7056V6.33917C11.7056 4.41163 10.5694 3.48047 8.98037 3.48047C7.39129 3.48047 6.7232 4.66887 6.7232 4.66887V3.70148H4.5V10.8935H6.7232V7.11815H6.72697Z" fill="#16F898"/>
</svg>
