<svg xmlns="http://www.w3.org/2000/svg" xmlns:xlink="http://www.w3.org/1999/xlink" viewBox="0 0 426.45 125.43"><defs><style>.cls-1{fill:none;}.cls-2{fill:#edf0f1;}.cls-3{fill:#16f898;}.cls-4{clip-path:url(#clip-path);}.cls-5{fill:url(#Безымянный_градиент_31);}.cls-6{opacity:0.4;}.cls-7{clip-path:url(#clip-path-2);}.cls-8{clip-path:url(#clip-path-3);}.cls-9{fill:url(#Безымянный_градиент_32);}.cls-10{clip-path:url(#clip-path-4);}.cls-11{fill:url(#Безымянный_градиент_33);}.cls-12{clip-path:url(#clip-path-5);}.cls-13{clip-path:url(#clip-path-6);}.cls-14{fill:url(#Безымянный_градиент_34);}</style><clipPath id="clip-path"><path class="cls-1" d="M65.51,29.44l-29.2,9.47a4.67,4.67,0,0,0-1.4.68c-.29.22-.77.59-.19,2.39L44.93,73.47a10.13,10.13,0,0,0,3.54,5.32l26.17,21,12.59-4.08-25-27.37,14.4-4.67A4.53,4.53,0,0,0,78,63c.27-.22.78-.61.19-2.43L68.6,31a3,3,0,0,0-1-1.71,1.2,1.2,0,0,0-.58-.11,5,5,0,0,0-1.46.27"/></clipPath><linearGradient id="Безымянный_градиент_31" x1="-989.53" y1="5481.69" x2="-988.53" y2="5481.69" gradientTransform="translate(45325.08 -250785.76) scale(45.76)" gradientUnits="userSpaceOnUse"><stop offset="0" stop-color="#eba91d"/><stop offset="1" stop-color="#e61b28"/></linearGradient><clipPath id="clip-path-2"><rect class="cls-1" x="39.28" y="55.97" width="47.95" height="43.78"/></clipPath><clipPath id="clip-path-3"><path class="cls-1" d="M39.28,56.05C41,56,42.78,56,44.53,56A147.18,147.18,0,0,1,78,59.91l.2.63c.59,1.82.08,2.21-.19,2.43a4.58,4.58,0,0,1-1.38.66l-14.4,4.68,25,27.37L74.64,99.76l-26.17-21a10.13,10.13,0,0,1-3.54-5.32Z"/></clipPath><linearGradient id="Безымянный_градиент_32" x1="-989.53" y1="5481.78" x2="-988.53" y2="5481.78" gradientTransform="translate(45332.48 -250776.92) scale(45.76)" gradientUnits="userSpaceOnUse"><stop offset="0" stop-color="#fff"/><stop offset="1" stop-color="#e61b28"/></linearGradient><clipPath id="clip-path-4"><path class="cls-1" d="M74.74,27.27l25,27.37-14.4,4.67A4.66,4.66,0,0,0,84,60c-.27.21-.78.6-.19,2.43L93.37,92a3.08,3.08,0,0,0,1,1.72,3.1,3.1,0,0,0,2-.17L125.66,84a4.72,4.72,0,0,0,1.4-.67c.29-.23.77-.6.19-2.39L117,49.47a10.27,10.27,0,0,0-3.53-5.32l-26.18-21L74.74,27.27"/></clipPath><linearGradient id="Безымянный_градиент_33" x1="-988.39" y1="5472.04" x2="-987.39" y2="5472.04" gradientTransform="matrix(52.78, 0, 0, -52.78, 52245.83, 288892.92)" gradientUnits="userSpaceOnUse"><stop offset="0" stop-color="#156268"/><stop offset="1" stop-color="#16f898"/></linearGradient><clipPath id="clip-path-5"><rect class="cls-1" x="74.74" y="23.18" width="47.95" height="43.78"/></clipPath><clipPath id="clip-path-6"><path class="cls-1" d="M122.69,66.89c-1.75.06-3.5.08-5.25.08A147.19,147.19,0,0,1,84,63l-.2-.62c-.59-1.83-.08-2.22.19-2.43a4.53,4.53,0,0,1,1.38-.67l14.4-4.67-25-27.37,12.59-4.08,26.17,21A10.22,10.22,0,0,1,117,49.48Z"/></clipPath><linearGradient id="Безымянный_градиент_34" x1="-1015.55" y1="5462.09" x2="-1014.55" y2="5462.09" gradientTransform="matrix(-45.76, 0, 0, -45.76, -46360.82, 249999.12)" gradientUnits="userSpaceOnUse"><stop offset="0" stop-color="#fff"/><stop offset="1" stop-color="#1be6b8"/></linearGradient></defs><title>Ресурс 1</title><g id="Слой_2" data-name="Слой 2"><g id="Слой_1-2" data-name="Слой 1"><path class="cls-2" d="M161.82,79.44c-4.26,0-7.63-1.19-10.14-3.57a12.13,12.13,0,0,1-3.75-9.2V50.41H142.3V41.93h5.63V31.76l10.55-1.13v11.3h5.63v8.48h-5.63V65.17c0,2,.42,3.41,1.26,4.22A4.42,4.42,0,0,0,163,70.61a18.6,18.6,0,0,0,2.82-.48L168,77.67a11,11,0,0,1-6.19,1.77"/><path class="cls-2" d="M167.18,60.66A18,18,0,0,1,186,41.89q8.27,0,13.14,5.26T204,60.66v3.76h-25.9a6.61,6.61,0,0,0,2.62,4.69A8.53,8.53,0,0,0,186,70.8a15.6,15.6,0,0,0,9.39-3l6,6q-4.12,5.64-15.39,5.64a18,18,0,0,1-18.77-18.78m24-8.44a9,9,0,0,0-10.52,0,5.53,5.53,0,0,0-2.25,4.69h15a5.53,5.53,0,0,0-2.25-4.69"/><rect class="cls-2" x="207" y="23.12" width="10.51" height="56.31"/><path class="cls-2" d="M221.29,60.66a18,18,0,0,1,18.78-18.77q8.25,0,13.14,5.26t4.88,13.51v3.76H232.18a6.62,6.62,0,0,0,2.63,4.69,8.49,8.49,0,0,0,5.26,1.69,15.55,15.55,0,0,0,9.38-3l6,6q-4.12,5.64-15.39,5.64a18,18,0,0,1-18.78-18.78m24-8.44a9,9,0,0,0-10.51,0,5.53,5.53,0,0,0-2.25,4.69h15a5.53,5.53,0,0,0-2.25-4.69"/><path class="cls-2" d="M261.83,46.4a30.31,30.31,0,0,1,16.52-4.51q6.76,0,10.7,3.76T293,56.91V79.44H282.48v-3c-3.05,2-5.81,3-8.26,3q-7.52,0-11.26-3.2a10.92,10.92,0,0,1-3.76-8.82A14,14,0,0,1,262.75,58q3.56-4.14,11.47-4.13a19.23,19.23,0,0,1,8.26,2.25V55q-.08-4.12-6-4.5-6.75,0-10.51,2.25Zm20.65,21.77V63.93Q281,61,275.35,61q-6.77.75-7.14,5.26c.25,3,2.63,4.59,7.14,4.84q5.63,0,7.13-3"/><path class="cls-2" d="M332.78,23.16V79.44H322.26v-3a14.15,14.15,0,0,1-8.25,3q-8.64,0-13.71-5.64a19.56,19.56,0,0,1,0-26.28q5.07-5.62,13.71-5.63c3.75.25,6.5,1.27,8.25,3V23.12ZM322.26,64V58q-.75-6.3-7.88-7.39-9,.7-10.14,9.34.38,10.52,10.14,10.89,7.14-1.12,7.88-6.76"/><path class="cls-2" d="M334.79,60.66a18,18,0,0,1,18.77-18.77q8.26,0,13.15,5.26t4.88,13.51v3.76H345.68a6.62,6.62,0,0,0,2.63,4.69,8.48,8.48,0,0,0,5.25,1.69,15.56,15.56,0,0,0,9.39-3l6,6q-4.14,5.64-15.4,5.64a18,18,0,0,1-18.77-18.78m24-8.44a9,9,0,0,0-10.51,0,5.53,5.53,0,0,0-2.25,4.69h15a5.53,5.53,0,0,0-2.25-4.69"/><path class="cls-2" d="M384.3,46a13.17,13.17,0,0,1,9.8-4.13,19.47,19.47,0,0,1,3.49.3l-1.65,10.37a8,8,0,0,0-5.26-1.77q-3.82.27-6.38,5.56V79.44H373.79V43l10.51-1.12Z"/><path class="cls-2" d="M420.48,42.94a18.3,18.3,0,0,1,5.48,3.8l-5.85,6.6a8,8,0,0,0-6.39-3q-3.78,0-5.06,1.41t0,2.55q1.27,1.16,5.06,1.9a17.78,17.78,0,0,1,9.17,3.19q3.56,2.67,3.56,9.27a9.48,9.48,0,0,1-4.2,8.26,16.75,16.75,0,0,1-9.8,2.93,22.65,22.65,0,0,1-8.88-1.52,19.23,19.23,0,0,1-6.1-4.07l5.82-6.57q2.55,3,7.92,3.53,4.32,0,5.57-1.41a2.17,2.17,0,0,0,.38-2.82q-.89-1.41-6-1.89a20.62,20.62,0,0,1-8.39-2.82Q399,59.95,399,53.61a10.19,10.19,0,0,1,4.33-8.88,15.33,15.33,0,0,1,8.92-3.06,21.18,21.18,0,0,1,8.22,1.27"/><rect class="cls-3" x="148.05" y="87.74" width="2.03" height="12.06"/><polygon class="cls-3" points="168 89.57 168 99.81 165.97 99.81 165.97 89.57 162.16 89.57 162.16 87.75 171.83 87.75 171.83 89.57 168 89.57"/><rect class="cls-3" x="183.36" y="87.74" width="1.52" height="4.24"/><path class="cls-3" d="M206,88.9l-.84,1.79a7.24,7.24,0,0,0-3.54-1.12c-1.19,0-2,.45-2,1.26,0,2.64,6.51,1.22,6.5,5.57,0,2.15-1.9,3.48-4.55,3.48A7.41,7.41,0,0,1,196.7,98l.88-1.75A6.38,6.38,0,0,0,201.66,98c1.41,0,2.26-.53,2.26-1.46,0-2.69-6.52-1.19-6.52-5.48,0-2.07,1.78-3.36,4.4-3.36A7.85,7.85,0,0,1,206,88.9"/><polygon class="cls-3" points="238.62 99.81 236.61 99.81 236.61 95.86 232.11 87.75 234.16 87.75 237.6 93.62 240.98 87.75 243.05 87.75 238.62 95.79 238.62 99.81"/><path class="cls-3" d="M266.26,93.78a6.4,6.4,0,1,1-6.39-6.09,6.18,6.18,0,0,1,6.39,6.09m-10.72,0a4.33,4.33,0,0,0,4.35,4.29,4.28,4.28,0,1,0-4.35-4.29"/><path class="cls-3" d="M289,94.81c0,3.16-2,5.09-5.24,5.09s-5.26-1.93-5.26-5.09V87.75h2v7.06a3,3,0,0,0,3.24,3.26A3,3,0,0,0,287,94.81V87.75h2Z"/><path class="cls-3" d="M307.72,96.16h-3.41v3.64h-2V87.75h4.89c3.09,0,4.86,1.49,4.86,4.11a3.89,3.89,0,0,1-2.5,3.92l2.71,4h-2.31Zm-.55-1.81c1.86,0,2.93-.8,2.93-2.43s-1.07-2.35-2.93-2.35h-2.86v4.78Z"/><path class="cls-3" d="M349.79,89.55,348.6,91a4.72,4.72,0,0,0-3.36-1.54,4.25,4.25,0,1,0,0,8.5,5,5,0,0,0,3.36-1.43l1.2,1.34a6.83,6.83,0,0,1-4.67,2,6.11,6.11,0,1,1,.07-12.21,6.7,6.7,0,0,1,4.59,1.86"/><path class="cls-3" d="M363.83,97.09l-1.16,2.72h-2.12l5.33-12.07H368l5.27,12.07h-2.17l-1.16-2.72Zm3-7.17-2.27,5.36h4.55Z"/><polygon class="cls-3" points="392.44 97.97 392.44 99.81 385.18 99.81 385.18 87.75 387.21 87.75 387.21 97.97 392.44 97.97"/><polygon class="cls-3" points="411.98 97.97 411.98 99.81 404.72 99.81 404.72 87.75 406.75 87.75 406.75 97.97 411.98 97.97"/><path class="cls-3" d="M425.64,98.81a1.09,1.09,0,1,1-2.17,0,1.09,1.09,0,1,1,2.17,0"/><g class="cls-4"><rect class="cls-5" x="18.11" y="20.3" width="85.15" height="88.32" transform="translate(-26.74 50.49) rotate(-37.65)"/></g><g class="cls-6"><g class="cls-7"><g class="cls-8"><rect class="cls-9" x="30.9" y="45.89" width="64.71" height="63.95" transform="translate(-34.39 54.85) rotate(-37.65)"/></g></g></g><g class="cls-10"><rect class="cls-11" x="74.74" y="23.19" width="53.09" height="70.67"/></g><g class="cls-6"><g class="cls-12"><g class="cls-13"><rect class="cls-14" x="66.36" y="13.1" width="64.71" height="63.96" transform="translate(-6.98 69.68) rotate(-37.65)"/></g></g></g></g></g></svg>