<svg width="3726" height="2675" viewBox="0 0 3726 2675" fill="none" xmlns="http://www.w3.org/2000/svg">
<g opacity="0.5">
<path d="M185.21 1612.97C311.635 1543.66 460.789 1500.78 576.482 1597.92C662.874 1670.45 663.517 1764.72 743.637 1782.67C850.264 1806.55 930.144 1657.72 1152.05 1465.15C1333.93 1307.3 1424.87 1228.38 1513.36 1222.8C1773.24 1206.42 1745.73 1773.81 1997.39 1839.2C2275.16 1911.37 2510.3 1272.51 2788.34 1315.28C2910.89 1334.13 3063.94 1488.83 3155.69 2153.13" stroke="url(#paint0_linear)" stroke-miterlimit="10" stroke-linecap="round" stroke-linejoin="round"/>
<path d="M190.282 1593.79C314.231 1529.98 460.585 1491.54 574.534 1589.04C659.846 1662.51 661.656 1756.31 741.52 1774.14C848.746 1798.05 928.801 1647.56 1149.57 1457.9C1163.62 1445.87 1177.15 1434.34 1190.22 1423.29C1345.28 1291.31 1428.47 1228.25 1510.03 1224.97C1615.36 1220.74 1673.7 1310.76 1724.05 1423.13C1796.96 1585.12 1849.91 1790.97 1997.68 1826.92C2079.39 1846.54 2157.37 1806.27 2234 1742.27C2417.38 1589.09 2587.12 1296.19 2781.53 1327.91C2794.19 1330.01 2807.18 1333.49 2820.43 1338.75C2934.37 1384.1 3066.32 1564.12 3153.47 2133.78" stroke="url(#paint1_linear)" stroke-miterlimit="10" stroke-linecap="round" stroke-linejoin="round"/>
<path d="M195.353 1574.6C316.817 1516.29 460.688 1481.94 572.584 1580.14C657.057 1654.27 659.801 1747.87 739.4 1765.59C847.226 1789.52 927.446 1637.37 1147.1 1450.63C1161.16 1438.76 1174.78 1427.43 1187.89 1416.53C1343.02 1287.51 1425.22 1228.5 1506.72 1227.11C1610.87 1225.34 1669.36 1314.14 1721.09 1424.3C1796.37 1583.16 1850.91 1781.76 1997.98 1814.62C2079.48 1832.84 2157.33 1792.55 2233.95 1731.13C2417.3 1584.14 2582.08 1306.85 2774.73 1340.52C2787.32 1342.72 2800.25 1346.28 2813.47 1351.51C2926.72 1396.42 3059.16 1570.43 3151.24 2114.39" stroke="url(#paint2_linear)" stroke-miterlimit="10" stroke-linecap="round" stroke-linejoin="round"/>
<path d="M200.423 1555.42C319.412 1502.61 460.625 1472.52 570.634 1571.25C654.146 1646.2 657.947 1739.45 737.288 1757.04C845.714 1781 925.615 1626.58 1144.63 1443.36C1158.69 1431.6 1172.4 1420.5 1185.57 1409.77C1340.55 1283.47 1421.94 1228.75 1503.4 1229.26C1606.36 1229.9 1664.73 1317.65 1718.14 1425.48C1795.38 1581.42 1851.97 1772.31 1998.28 1802.33C2079.61 1819.01 2157.3 1778.82 2233.91 1720C2417.21 1579.2 2577.02 1317.72 2767.94 1353.13C2780.46 1355.45 2793.35 1359.08 2806.54 1364.28C2919.1 1408.75 3052.02 1576.74 3149.03 2095" stroke="url(#paint3_linear)" stroke-miterlimit="10" stroke-linecap="round" stroke-linejoin="round"/>
<path d="M205.505 1536.23C322.008 1488.92 460.577 1463.13 568.694 1562.37C651.246 1638.13 656.102 1731.02 735.179 1748.5C844.204 1772.48 924.133 1616.2 1142.17 1436.1C1156.24 1424.48 1170.02 1413.58 1183.25 1403.02C1338.07 1279.42 1418.65 1228.99 1500.09 1231.41C1601.82 1234.44 1660.32 1321.09 1715.2 1426.65C1794.69 1579.53 1853.05 1762.87 1998.6 1790.04C2079.77 1805.19 2157.28 1765.11 2233.88 1708.88C2417.14 1574.27 2571.97 1328.62 2761.16 1365.75C2773.62 1368.2 2786.45 1371.9 2799.61 1377.07C2911.49 1421.11 3044.9 1583.08 3146.83 2075.65" stroke="url(#paint4_linear)" stroke-miterlimit="10" stroke-linecap="round" stroke-linejoin="round"/>
<path d="M210.577 1517.04C324.604 1475.23 460.512 1453.74 566.746 1553.48C648.33 1630.07 654.249 1722.59 733.07 1739.96C842.695 1763.96 922.661 1605.84 1139.71 1428.84C1153.79 1417.36 1167.64 1406.65 1180.93 1396.26C1335.58 1275.36 1415.33 1229.2 1496.78 1233.57C1597.27 1238.94 1655.9 1324.53 1712.25 1427.82C1793.98 1577.66 1854.12 1753.43 1998.9 1777.75C2079.91 1791.36 2157.25 1751.39 2233.84 1697.75C2417.07 1569.32 2566.92 1339.5 2754.37 1378.36C2766.76 1380.93 2779.54 1384.7 2792.67 1389.83C2903.85 1433.44 3037.76 1589.39 3144.62 2056.27" stroke="url(#paint5_linear)" stroke-miterlimit="10" stroke-linecap="round" stroke-linejoin="round"/>
<path d="M215.649 1497.86C327.19 1461.54 460.441 1444.37 564.798 1544.59C645.417 1622.02 652.396 1714.16 730.951 1731.41C841.175 1755.44 921.182 1595.48 1137.24 1421.58C1151.33 1410.23 1165.25 1399.72 1178.61 1389.5C1333.06 1271.31 1411.98 1229.41 1493.46 1235.71C1592.68 1243.4 1651.48 1327.96 1709.29 1429C1793.29 1575.79 1855.21 1743.96 1999.2 1765.46C2080.05 1777.53 2157.21 1737.67 2233.78 1686.61C2416.97 1564.38 2561.84 1350.41 2747.56 1390.98C2759.88 1393.67 2772.6 1397.51 2785.71 1402.6C2896.21 1445.77 3030.6 1595.71 3142.39 2036.89" stroke="url(#paint6_linear)" stroke-miterlimit="10" stroke-linecap="round" stroke-linejoin="round"/>
<path d="M220.718 1478.67C329.783 1447.85 460.37 1435 562.846 1535.69C642.5 1613.96 650.539 1705.73 728.838 1722.86C839.662 1746.91 919.726 1585.12 1134.77 1414.31C1148.87 1403.1 1162.86 1392.79 1176.28 1382.74C1330.55 1267.22 1408.61 1229.57 1490.14 1237.86C1588.07 1247.81 1647.07 1331.4 1706.33 1430.17C1792.6 1573.91 1856.29 1734.48 1999.5 1753.16C2080.19 1763.68 2157.17 1723.95 2233.74 1675.47C2416.88 1559.43 2556.78 1361.31 2740.76 1403.58C2753.02 1406.4 2765.69 1410.31 2778.77 1415.37C2888.58 1458.1 3023.47 1602.01 3140.17 2017.51" stroke="url(#paint7_linear)" stroke-miterlimit="10" stroke-linecap="round" stroke-linejoin="round"/>
<path d="M225.792 1459.49C332.373 1434.17 460.289 1425.66 560.9 1526.81C639.583 1605.94 648.687 1697.3 726.723 1714.33C838.146 1738.41 918.269 1574.79 1132.3 1407.06C1146.42 1395.99 1160.48 1385.87 1173.96 1376C1328.01 1263.16 1405.21 1229.74 1486.83 1240.02C1583.45 1252.2 1642.66 1334.86 1703.38 1431.36C1791.92 1572.06 1857.39 1725.02 1999.8 1740.88C2080.35 1749.85 2157.14 1710.24 2233.69 1664.36C2416.79 1554.51 2551.73 1372.25 2733.97 1416.2C2746.16 1419.15 2758.78 1423.13 2771.83 1428.15C2880.96 1470.45 3016.33 1608.35 3137.96 1998.15" stroke="url(#paint8_linear)" stroke-miterlimit="10" stroke-linecap="round" stroke-linejoin="round"/>
<path d="M230.864 1440.3C334.967 1420.48 460.208 1416.31 558.95 1517.92C636.661 1597.89 646.824 1688.87 724.611 1705.78C836.633 1729.88 916.825 1564.44 1129.83 1399.79C1143.97 1388.86 1158.09 1378.94 1171.64 1369.24C1325.47 1259.07 1401.8 1229.86 1483.52 1242.17C1578.82 1256.52 1638.27 1338.29 1700.44 1432.53C1791.26 1570.19 1858.51 1715.53 2000.11 1728.59C2080.52 1736 2157.11 1696.51 2233.66 1653.22C2416.73 1549.56 2546.67 1383.17 2727.18 1428.82C2739.31 1431.88 2751.87 1435.92 2764.89 1440.92C2873.33 1482.78 3009.2 1614.66 3135.75 1978.76" stroke="url(#paint9_linear)" stroke-miterlimit="10" stroke-linecap="round" stroke-linejoin="round"/>
<path d="M235.935 1421.11C337.554 1406.8 460.118 1406.98 557.001 1509.03C633.744 1589.87 644.97 1680.45 722.492 1697.24C835.115 1721.36 915.384 1554.11 1127.36 1392.53C1141.51 1381.75 1155.7 1372.02 1169.32 1362.49C1322.92 1254.97 1398.37 1229.97 1480.2 1244.33C1574.16 1260.82 1633.86 1341.75 1697.47 1433.71C1790.59 1568.34 1859.61 1706.04 2000.4 1716.3C2080.67 1722.15 2157.07 1682.8 2233.6 1642.1C2416.63 1544.63 2541.61 1394.12 2720.38 1441.44C2732.45 1444.63 2744.95 1448.74 2757.94 1453.7C2865.7 1495.12 3002.05 1620.98 3133.53 1959.4" stroke="url(#paint10_linear)" stroke-miterlimit="10" stroke-linecap="round" stroke-linejoin="round"/>
<path d="M241.007 1401.93C340.149 1393.11 460.024 1397.66 555.053 1500.15C630.812 1581.86 643.117 1672.02 720.384 1688.7C833.605 1712.85 913.965 1543.81 1124.89 1385.28C1139.06 1374.64 1153.3 1365.1 1166.99 1355.74C1320.35 1250.88 1394.92 1230.05 1476.89 1246.48C1569.49 1265.06 1629.47 1345.19 1694.53 1434.89C1789.94 1566.47 1860.74 1696.53 2000.71 1704.01C2080.84 1708.3 2157.04 1669.08 2233.56 1630.97C2416.55 1539.69 2536.56 1405.07 2713.59 1454.04C2725.58 1457.36 2738.03 1461.54 2751 1466.46C2858.07 1507.45 2994.91 1627.29 3131.32 1940.01" stroke="url(#paint11_linear)" stroke-miterlimit="10" stroke-linecap="round" stroke-linejoin="round"/>
<path d="M246.079 1382.74C342.744 1379.42 459.924 1388.35 553.104 1491.26C627.881 1573.85 641.263 1663.59 718.265 1680.16C832.078 1704.33 912.543 1533.49 1122.42 1378.02C1136.6 1367.51 1150.91 1358.17 1164.66 1348.98C1317.76 1246.76 1391.47 1230.08 1473.56 1248.63C1564.81 1269.25 1625.09 1348.63 1691.56 1436.06C1789.29 1564.6 1861.85 1687 2001 1691.72C2081 1694.43 2157 1655.36 2233.5 1619.83C2416.45 1534.74 2531.49 1416.03 2706.78 1466.66C2718.71 1470.1 2731.1 1474.35 2744.04 1479.24C2850.43 1519.8 2987.75 1633.62 3129.08 1920.65" stroke="url(#paint12_linear)" stroke-miterlimit="10" stroke-linecap="round" stroke-linejoin="round"/>
<path d="M251.15 1363.55C345.332 1365.73 459.816 1379.05 551.148 1482.37C624.942 1565.84 639.402 1655.17 716.146 1671.61C830.557 1695.8 911.132 1523.18 1119.95 1370.75C1134.14 1360.38 1148.5 1351.23 1162.34 1342.22C1315.17 1242.63 1387.99 1230.1 1470.24 1250.78C1560.13 1273.4 1620.71 1352.06 1688.61 1437.23C1788.65 1562.73 1862.98 1677.47 2001.3 1679.42C2081.17 1680.55 2156.96 1641.64 2233.46 1608.71C2416.37 1529.8 2526.44 1427 2699.99 1479.28C2711.86 1482.85 2724.2 1487.16 2737.11 1492.02C2842.81 1532.14 2980.62 1639.95 3126.88 1901.28" stroke="url(#paint13_linear)" stroke-miterlimit="10" stroke-linecap="round" stroke-linejoin="round"/>
<path d="M256.221 1344.37C347.925 1352.04 459.701 1369.76 549.196 1473.48C621.995 1557.85 637.545 1646.73 714.026 1663.06C829.036 1687.28 909.722 1512.89 1117.47 1363.49C1131.69 1353.26 1146.11 1344.3 1160.01 1335.46C1312.56 1238.48 1384.51 1230.06 1466.92 1252.93C1555.44 1277.5 1616.33 1355.5 1685.64 1438.41C1788.02 1560.86 1864.1 1667.92 2001.59 1667.13C2081.34 1666.67 2156.92 1627.92 2233.4 1597.57C2416.27 1524.86 2521.37 1437.98 2693.18 1491.89C2704.98 1495.6 2717.27 1499.97 2730.15 1504.79C2835.16 1544.47 2973.46 1646.26 3124.65 1881.9" stroke="url(#paint14_linear)" stroke-miterlimit="10" stroke-linecap="round" stroke-linejoin="round"/>
<path d="M261.294 1325.18C350.514 1338.37 459.582 1360.48 547.25 1464.6C619.053 1549.87 635.694 1638.31 711.91 1654.53C827.52 1678.77 908.326 1502.61 1115 1356.23C1129.24 1346.15 1143.71 1337.38 1157.68 1328.72C1309.95 1234.35 1381.04 1230.02 1463.61 1255.1C1550.76 1281.57 1611.98 1358.96 1682.69 1439.6C1787.41 1559.01 1865.24 1658.38 2001.9 1654.86C2081.53 1652.81 2156.89 1614.22 2233.36 1586.46C2416.19 1519.94 2516.31 1448.99 2686.39 1504.52C2698.13 1508.35 2710.35 1512.79 2723.21 1517.57C2827.53 1556.82 2966.33 1652.59 3122.44 1862.53" stroke="url(#paint15_linear)" stroke-miterlimit="10" stroke-linecap="round" stroke-linejoin="round"/>
<path d="M266.365 1306C353.108 1324.67 459.447 1351.21 545.301 1455.71C616.11 1541.89 633.84 1629.89 709.799 1645.98C826.008 1670.24 906.953 1492.33 1112.54 1348.97C1126.79 1339.03 1141.31 1330.44 1155.36 1321.96C1307.33 1230.18 1377.57 1229.92 1460.3 1257.24C1546.09 1285.57 1607.63 1362.38 1679.74 1440.76C1786.8 1557.12 1866.39 1648.79 2002.2 1642.55C2081.7 1638.89 2156.85 1600.48 2233.31 1575.31C2416.1 1514.98 2511.26 1459.97 2679.59 1517.11C2691.26 1521.08 2703.44 1525.57 2716.26 1530.33C2819.9 1569.14 2959.18 1658.9 3120.21 1843.14" stroke="url(#paint16_linear)" stroke-miterlimit="10" stroke-linecap="round" stroke-linejoin="round"/>
<path d="M271.437 1286.81C355.696 1310.99 459.313 1341.95 543.351 1446.81C613.151 1533.91 631.976 1621.45 707.68 1637.44C824.488 1661.72 905.574 1482.06 1110.06 1341.7C1124.34 1331.91 1138.92 1323.5 1153.03 1315.19C1304.69 1226 1374.09 1229.78 1456.97 1259.38C1541.41 1289.54 1603.27 1365.8 1676.78 1441.93C1786.2 1555.24 1867.52 1639.2 2002.49 1630.26C2081.87 1625 2156.81 1586.76 2233.25 1564.19C2416 1510.04 2506.18 1470.99 2672.78 1529.74C2684.39 1533.83 2696.51 1538.38 2709.3 1543.11C2812.25 1581.49 2952.03 1665.22 3117.99 1823.78" stroke="url(#paint17_linear)" stroke-miterlimit="10" stroke-linecap="round" stroke-linejoin="round"/>
<path d="M276.508 1267.62C358.29 1297.3 459.165 1332.7 541.402 1437.93C610.185 1525.95 630.122 1613.03 705.57 1628.9C822.978 1653.21 904.215 1471.82 1107.6 1334.45C1121.89 1324.8 1136.53 1316.58 1150.72 1308.45C1302.05 1221.82 1370.62 1229.63 1453.66 1261.55C1536.74 1293.48 1598.93 1369.24 1673.84 1443.11C1785.62 1553.36 1868.68 1629.6 2002.81 1617.98C2082.07 1611.1 2156.8 1573.05 2233.23 1553.06C2415.95 1505.11 2501.14 1482.02 2666.01 1542.35C2677.55 1546.57 2689.61 1551.19 2702.39 1555.88C2804.65 1593.82 2944.91 1671.53 3115.8 1804.4" stroke="url(#paint18_linear)" stroke-miterlimit="10" stroke-linecap="round" stroke-linejoin="round"/>
<path d="M281.588 1248.44C360.884 1283.61 459.018 1323.46 539.461 1429.04C607.23 1517.99 628.276 1604.59 703.458 1620.35C821.466 1644.68 902.856 1461.56 1105.13 1327.17C1119.44 1317.66 1134.13 1309.62 1148.4 1301.68C1299.39 1217.6 1367.16 1229.41 1450.35 1263.68C1532.08 1297.35 1594.59 1372.65 1670.89 1444.28C1785.04 1551.46 1869.82 1619.98 2003.11 1605.67C2082.25 1597.17 2156.77 1559.31 2233.18 1541.92C2415.85 1500.15 2496.07 1493.03 2659.21 1554.95C2670.69 1559.31 2682.69 1563.99 2695.43 1568.64C2797.01 1606.15 2937.75 1677.84 3113.57 1785.01" stroke="url(#paint19_linear)" stroke-miterlimit="10" stroke-linecap="round" stroke-linejoin="round"/>
<path d="M286.66 1229.25C363.481 1269.93 458.856 1314.22 537.513 1420.15C604.252 1510.04 626.423 1596.17 701.349 1611.81C819.957 1636.16 901.518 1451.33 1102.67 1319.92C1117 1310.56 1131.74 1302.7 1146.08 1294.94C1296.74 1213.41 1363.72 1229.2 1447.04 1265.85C1527.45 1301.23 1590.27 1376.09 1667.94 1445.47C1784.49 1549.58 1870.98 1610.37 2003.43 1593.4C2082.45 1583.27 2156.75 1545.62 2233.15 1530.81C2415.78 1495.23 2491.02 1504.09 2652.43 1567.59C2663.85 1572.08 2675.8 1576.81 2688.51 1581.44C2789.41 1618.51 2930.64 1684.18 3111.38 1765.67" stroke="url(#paint20_linear)" stroke-miterlimit="10" stroke-linecap="round" stroke-linejoin="round"/>
<path d="M291.731 1210.07C366.067 1256.24 458.688 1305 535.564 1411.27C601.273 1502.09 624.57 1587.75 699.231 1603.27C818.438 1627.65 900.172 1441.11 1100.19 1312.67C1114.54 1303.46 1129.32 1295.77 1143.75 1288.19C1294.06 1209.19 1360.27 1228.94 1443.72 1268.01C1522.81 1305.04 1585.94 1379.51 1664.98 1446.65C1783.91 1547.69 1872.12 1600.74 2003.71 1581.12C2082.62 1569.35 2156.7 1531.91 2233.08 1519.68C2415.67 1490.3 2485.93 1515.15 2645.61 1580.2C2656.96 1584.82 2668.86 1589.62 2681.54 1594.21C2781.75 1630.84 2923.48 1690.5 3109.14 1746.29" stroke="url(#paint21_linear)" stroke-miterlimit="10" stroke-linecap="round" stroke-linejoin="round"/>
<path d="M296.804 1190.88C368.663 1242.56 458.503 1295.78 533.615 1402.37C598.279 1494.15 622.716 1579.31 697.12 1594.72C816.926 1619.12 898.836 1430.89 1097.73 1305.4C1112.1 1296.33 1126.92 1288.82 1141.43 1281.43C1291.37 1204.94 1356.85 1228.62 1440.4 1270.16C1518.19 1308.83 1581.62 1382.91 1662.03 1447.82C1783.35 1545.77 1874.29 1596.42 2004.01 1568.81C2082.18 1552.18 2156.66 1518.17 2233.04 1508.55C2415.6 1485.35 2480.86 1526.21 2638.82 1592.81C2650.1 1597.57 2661.94 1602.43 2674.6 1606.97C2774.12 1643.18 2916.34 1696.81 3106.92 1726.9" stroke="url(#paint22_linear)" stroke-miterlimit="10" stroke-linecap="round" stroke-linejoin="round"/>
<path d="M301.875 1171.69C371.257 1228.86 458.312 1286.57 531.667 1393.49C595.287 1486.22 620.862 1570.89 695.002 1586.18C815.408 1610.61 897.513 1420.69 1095.26 1298.14C1109.65 1289.22 1124.52 1281.88 1139.1 1274.68C1288.69 1200.69 1353.44 1228.28 1437.09 1272.3C1513.59 1312.58 1577.31 1386.32 1659.07 1448.99C1782.8 1543.84 1875.53 1586.71 2004.31 1556.52C2082.29 1538.24 2156.63 1504.45 2232.99 1497.41C2415.51 1480.41 2475.78 1537.28 2632.02 1605.42C2643.23 1610.31 2655.03 1615.23 2667.65 1619.74C2766.49 1655.52 2909.19 1703.13 3104.7 1707.53" stroke="url(#paint23_linear)" stroke-miterlimit="10" stroke-linecap="round" stroke-linejoin="round"/>
<path d="M306.946 1152.5C373.843 1215.17 458.114 1277.36 529.716 1384.59C592.277 1478.28 619.007 1562.45 692.891 1577.63C813.896 1602.08 896.198 1410.5 1092.79 1290.87C1107.2 1282.1 1122.12 1274.94 1136.78 1267.91C1285.99 1196.41 1350.07 1227.89 1433.77 1274.45C1509.01 1316.3 1572.99 1389.7 1656.11 1450.16C1782.26 1541.91 1875.54 1571.72 2004.61 1544.22C2083.15 1527.49 2156.59 1490.73 2232.95 1486.28C2415.42 1475.46 2470.7 1548.35 2625.23 1618.03C2636.37 1623.05 2648.11 1628.02 2660.71 1632.5C2758.86 1667.84 2902.05 1709.43 3102.49 1688.14" stroke="url(#paint24_linear)" stroke-miterlimit="10" stroke-linecap="round" stroke-linejoin="round"/>
<path d="M312.02 1133.32C376.441 1201.49 457.902 1268.17 527.77 1375.71C589.265 1470.38 617.146 1554.03 690.773 1569.09C812.378 1593.57 894.888 1400.33 1090.32 1283.61C1104.76 1274.99 1119.71 1268 1134.46 1261.16C1283.28 1192.13 1346.71 1227.5 1430.46 1276.61C1504.44 1320 1568.69 1393.1 1653.17 1451.35C1781.73 1539.98 1876.69 1562.04 2004.92 1531.94C2083.33 1513.54 2156.56 1477.02 2232.9 1475.16C2415.34 1470.54 2465.62 1559.46 2618.44 1630.65C2629.51 1635.81 2641.19 1640.84 2653.77 1645.29C2751.24 1680.2 2894.92 1715.77 3100.28 1668.78" stroke="url(#paint25_linear)" stroke-miterlimit="10" stroke-linecap="round" stroke-linejoin="round"/>
<path d="M317.091 1114.13C379.027 1187.8 457.688 1258.97 525.82 1366.82C586.24 1462.45 615.291 1545.59 688.662 1560.54C810.867 1585.04 893.586 1390.15 1087.85 1276.35C1102.32 1267.88 1117.31 1261.04 1132.14 1254.4C1280.58 1187.82 1343.38 1227.05 1427.14 1278.75C1499.91 1323.67 1564.38 1396.48 1650.21 1452.51C1781.2 1538.02 1877.82 1552.32 2005.22 1519.64C2083.5 1499.56 2156.52 1463.29 2232.86 1464.01C2415.26 1465.57 2460.53 1570.54 2611.64 1643.26C2622.65 1648.56 2634.28 1653.64 2646.82 1658.05C2743.6 1692.52 2887.77 1722.07 3098.06 1649.4" stroke="url(#paint26_linear)" stroke-miterlimit="10" stroke-linecap="round" stroke-linejoin="round"/>
<path d="M322.162 1094.95C381.622 1174.12 457.452 1249.79 523.871 1357.93C583.201 1454.54 613.437 1537.17 686.544 1552C809.348 1576.53 892.289 1380.01 1085.38 1269.09C1099.87 1260.77 1114.9 1254.11 1129.81 1247.65C1277.87 1183.52 1340.08 1226.58 1423.82 1280.91C1495.38 1327.34 1560.07 1399.87 1647.26 1453.7C1780.67 1536.08 1878.94 1542.62 2005.52 1507.36C2083.68 1485.59 2156.49 1449.59 2232.81 1452.9C2415.17 1460.65 2455.43 1581.67 2604.84 1655.88C2615.78 1661.31 2627.36 1666.45 2639.87 1670.83C2735.97 1704.86 2880.62 1728.4 3095.84 1630.03" stroke="url(#paint27_linear)" stroke-miterlimit="10" stroke-linecap="round" stroke-linejoin="round"/>
<path d="M327.235 1075.76C384.21 1160.43 457.218 1240.61 521.916 1349.05C580.15 1446.65 611.578 1528.75 684.419 1543.46C807.822 1568.01 890.985 1369.87 1082.9 1261.83C1097.41 1253.66 1112.49 1247.16 1127.48 1240.9C1275.13 1179.18 1336.79 1226.09 1420.5 1283.06C1490.88 1330.97 1555.77 1403.23 1644.3 1454.88C1780.14 1534.1 1880.05 1532.89 2005.82 1495.06C2083.84 1471.6 2156.45 1435.86 2232.76 1441.76C2415.08 1455.7 2450.33 1592.78 2598.04 1668.49C2608.91 1674.06 2620.44 1679.26 2632.93 1683.6C2728.34 1717.19 2873.49 1734.71 3093.62 1610.64" stroke="url(#paint28_linear)" stroke-miterlimit="10" stroke-linecap="round" stroke-linejoin="round"/>
<path d="M332.306 1056.57C386.805 1146.75 456.956 1231.43 519.965 1340.15C577.094 1438.74 609.722 1520.31 682.307 1534.91C806.31 1559.49 889.708 1359.74 1080.44 1254.56C1094.98 1246.55 1110.08 1240.21 1125.15 1234.13C1272.4 1174.83 1333.56 1225.55 1417.18 1285.21C1486.41 1334.58 1551.47 1406.6 1641.34 1456.04C1779.62 1532.12 1881.17 1523.13 2006.12 1482.77C2084 1457.6 2156.42 1422.14 2232.71 1430.62C2414.99 1450.76 2445.22 1603.9 2591.24 1681.1C2602.04 1686.81 2613.52 1692.06 2625.98 1696.37C2720.71 1729.53 2866.34 1741.04 3091.4 1591.28" stroke="url(#paint29_linear)" stroke-miterlimit="10" stroke-linecap="round" stroke-linejoin="round"/>
<path d="M337.377 1037.39C389.391 1133.06 456.696 1222.26 518.016 1331.27C574.034 1430.85 607.868 1511.89 680.189 1526.38C804.791 1550.97 888.434 1349.63 1077.97 1247.31C1092.53 1239.44 1107.68 1233.26 1122.83 1227.39C1269.67 1170.47 1330.35 1225.01 1413.87 1287.37C1481.96 1338.2 1547.17 1409.96 1638.39 1457.23C1779.09 1530.14 1882.28 1513.4 2006.41 1470.49C2084.15 1443.62 2156.37 1408.43 2232.66 1419.51C2414.9 1445.83 2440.11 1615.05 2584.45 1693.72C2595.18 1699.57 2606.61 1704.87 2619.03 1709.15C2713.06 1741.88 2859.19 1747.36 3089.18 1571.91" stroke="url(#paint30_linear)" stroke-miterlimit="10" stroke-linecap="round" stroke-linejoin="round"/>
<path d="M342.448 1018.2C391.985 1119.36 456.421 1213.09 516.066 1322.37C570.954 1422.94 606.013 1503.45 678.076 1517.82C803.277 1542.43 887.161 1339.53 1075.49 1240.04C1090.08 1232.33 1105.26 1226.3 1120.5 1220.62C1266.94 1166.09 1327.17 1224.43 1410.54 1289.51C1477.52 1341.79 1542.86 1413.3 1635.42 1458.39C1778.56 1528.12 1883.36 1503.63 2006.7 1458.19C2084.29 1429.6 2156.33 1394.7 2232.61 1408.38C2414.81 1440.89 2434.98 1626.2 2577.64 1706.33C2588.3 1712.32 2599.67 1717.68 2612.08 1721.92C2705.42 1754.21 2852.04 1753.68 3086.95 1552.53" stroke="url(#paint31_linear)" stroke-miterlimit="10" stroke-linecap="round" stroke-linejoin="round"/>
<path d="M347.521 999.018C394.574 1105.69 456.139 1203.93 514.119 1313.49C567.872 1415.06 604.162 1495.04 675.96 1509.29C801.76 1533.93 885.894 1329.45 1073.02 1232.79C1087.64 1225.24 1102.86 1219.36 1118.18 1213.88C1264.2 1161.7 1324.03 1223.85 1407.23 1291.68C1473.12 1345.4 1538.57 1416.66 1632.48 1459.59C1778.06 1526.13 1884.46 1493.88 2007.02 1445.92C2084.45 1415.61 2156.31 1381 2232.58 1397.26C2414.74 1435.97 2429.87 1637.37 2570.86 1718.97C2581.45 1725.1 2592.77 1730.5 2605.15 1734.71C2697.81 1766.56 2844.91 1760.01 3084.75 1533.17" stroke="url(#paint32_linear)" stroke-miterlimit="10" stroke-linecap="round" stroke-linejoin="round"/>
<path d="M352.592 979.83C397.167 1091.99 455.847 1194.76 512.17 1304.61C564.77 1407.18 602.297 1486.6 673.85 1500.75C800.249 1525.41 884.643 1319.38 1070.56 1225.53C1085.2 1218.14 1100.45 1212.41 1115.86 1207.13C1261.47 1157.29 1320.93 1223.23 1403.91 1293.83C1468.74 1348.98 1534.27 1419.99 1629.52 1460.76C1777.54 1524.1 1885.55 1484.1 2007.32 1433.62C2084.6 1401.58 2156.27 1367.27 2232.52 1386.13C2414.64 1431.02 2424.73 1648.53 2564.06 1731.57C2574.58 1737.84 2585.86 1743.3 2598.21 1747.48C2690.18 1778.9 2837.78 1766.32 3082.54 1513.79" stroke="url(#paint33_linear)" stroke-miterlimit="10" stroke-linecap="round" stroke-linejoin="round"/>
<path d="M357.672 960.641C399.772 1078.31 455.548 1185.6 510.228 1295.71C561.669 1399.29 600.451 1478.17 671.738 1492.19C798.737 1516.88 883.388 1309.32 1068.09 1218.25C1082.76 1211.02 1098.05 1205.43 1113.54 1200.36C1258.73 1152.85 1317.86 1222.6 1400.61 1295.97C1464.39 1352.55 1529.97 1423.32 1626.58 1461.93C1777.03 1522.06 1886.63 1474.31 2007.63 1421.33C2084.74 1387.56 2156.25 1353.55 2232.49 1374.99C2414.57 1426.07 2419.61 1659.69 2557.27 1744.18C2567.72 1750.59 2578.95 1756.1 2591.27 1760.24C2682.55 1791.23 2830.64 1772.64 3080.33 1494.41" stroke="url(#paint34_linear)" stroke-miterlimit="10" stroke-linecap="round" stroke-linejoin="round"/>
<path d="M362.743 941.459C402.358 1064.62 455.224 1176.45 508.28 1286.83C558.544 1391.41 598.598 1469.75 669.628 1483.66C797.226 1508.37 882.145 1299.29 1065.63 1211C1080.33 1203.93 1095.64 1198.48 1111.22 1193.61C1255.99 1148.42 1314.83 1221.95 1397.3 1298.13C1460.08 1356.13 1525.68 1426.65 1623.63 1463.11C1776.51 1520.02 1887.69 1464.52 2007.93 1409.04C2084.87 1373.53 2156.21 1339.84 2232.44 1363.86C2414.48 1421.13 2414.45 1670.87 2550.48 1756.8C2560.86 1763.35 2572.03 1768.91 2584.32 1773.02C2674.93 1803.57 2823.5 1778.96 3078.11 1475.04" stroke="url(#paint35_linear)" stroke-miterlimit="10" stroke-linecap="round" stroke-linejoin="round"/>
<path d="M367.815 922.271C404.953 1050.93 454.9 1167.28 506.331 1277.94C555.412 1383.54 596.744 1461.31 667.51 1475.11C795.707 1499.85 880.896 1289.26 1063.16 1203.74C1077.88 1196.83 1093.24 1191.51 1108.89 1186.85C1253.25 1143.95 1311.83 1221.28 1393.97 1300.28C1455.77 1359.7 1521.38 1429.95 1620.67 1464.27C1775.98 1517.95 1888.74 1454.71 2008.22 1396.74C2084.99 1359.48 2156.17 1326.1 2232.38 1352.72C2414.38 1416.18 2409.29 1682.05 2543.66 1769.4C2553.97 1776.09 2565.1 1781.71 2577.36 1785.77C2667.28 1815.88 2816.34 1785.26 3075.88 1455.65" stroke="url(#paint36_linear)" stroke-miterlimit="10" stroke-linecap="round" stroke-linejoin="round"/>
<path d="M372.887 903.082C407.54 1037.25 454.56 1158.13 504.382 1269.05C552.271 1375.66 594.89 1452.89 665.4 1466.57C794.197 1491.33 879.659 1279.25 1060.69 1196.48C1075.45 1189.73 1090.83 1184.55 1106.58 1180.1C1250.51 1139.47 1308.87 1220.62 1390.67 1302.44C1451.49 1363.28 1517.08 1433.28 1617.72 1465.46C1775.46 1515.9 1889.8 1444.92 2008.54 1384.45C2085.11 1345.46 2156.15 1312.4 2232.35 1341.6C2414.31 1411.25 2404.14 1693.24 2536.88 1782.02C2547.12 1788.87 2558.19 1794.52 2570.43 1798.56C2659.66 1828.24 2809.21 1791.59 3073.67 1436.29" stroke="url(#paint37_linear)" stroke-miterlimit="10" stroke-linecap="round" stroke-linejoin="round"/>
<path d="M377.958 883.895C410.134 1023.55 454.21 1148.97 502.433 1260.16C549.114 1367.79 593.037 1444.46 663.281 1458.02C792.678 1482.81 878.414 1269.25 1058.22 1189.21C1073 1182.63 1088.42 1177.58 1104.25 1173.34C1247.77 1134.97 1305.94 1219.94 1387.34 1304.58C1447.22 1366.85 1512.76 1436.57 1614.76 1466.63C1774.92 1513.82 1890.82 1435.1 2008.83 1372.15C2085.22 1331.4 2156.11 1298.67 2232.29 1330.46C2414.22 1406.3 2398.96 1704.43 2530.08 1794.63C2540.24 1801.62 2551.27 1807.32 2563.48 1811.32C2652.02 1840.56 2802.06 1797.9 3071.45 1416.91" stroke="url(#paint38_linear)" stroke-miterlimit="10" stroke-linecap="round" stroke-linejoin="round"/>
<path d="M383.031 864.713C412.723 1009.88 453.847 1139.81 500.485 1251.27C545.939 1359.91 591.183 1436.03 661.172 1449.48C791.168 1474.29 877.183 1259.28 1055.76 1181.95C1070.57 1175.54 1086.02 1170.6 1101.93 1166.59C1245.05 1130.47 1303.06 1219.25 1384.04 1306.74C1443 1370.44 1508.46 1439.88 1611.82 1467.81C1774.4 1511.74 1891.87 1425.3 2009.15 1359.87C2085.34 1317.36 2156.1 1284.95 2232.27 1319.34C2414.15 1401.37 2393.8 1715.64 2523.3 1807.24C2533.39 1814.37 2544.38 1820.12 2556.55 1824.09C2644.41 1852.9 2794.94 1804.21 3069.25 1397.53" stroke="url(#paint39_linear)" stroke-miterlimit="10" stroke-linecap="round" stroke-linejoin="round"/>
<path d="M388.102 845.525C415.317 996.183 453.472 1130.65 498.536 1242.38C542.756 1352.04 589.329 1427.61 659.053 1440.94C789.649 1465.77 875.946 1249.32 1053.28 1174.69C1068.12 1168.45 1083.61 1163.63 1099.6 1159.84C1242.31 1125.94 1300.2 1218.56 1380.72 1308.89C1438.78 1374.03 1504.15 1443.18 1608.87 1468.99C1773.86 1509.65 1892.88 1415.49 2009.44 1347.58C2085.43 1303.32 2156.05 1271.24 2232.21 1308.22C2414.05 1396.44 2388.59 1726.86 2516.5 1819.87C2526.51 1827.15 2537.45 1832.95 2549.61 1836.88C2636.77 1865.25 2787.79 1810.55 3067.04 1378.16" stroke="url(#paint40_linear)" stroke-miterlimit="10" stroke-linecap="round" stroke-linejoin="round"/>
<path d="M393.174 826.335C417.903 982.491 453.089 1121.49 496.586 1233.49C539.556 1344.16 587.465 1419.17 656.933 1432.39C788.128 1457.24 874.703 1239.37 1050.81 1167.42C1065.68 1161.34 1081.19 1156.65 1097.27 1153.06C1239.58 1121.38 1297.36 1217.84 1377.39 1311.02C1434.58 1377.61 1499.82 1446.45 1605.9 1470.14C1773.31 1507.52 1893.88 1405.63 2009.73 1335.26C2085.52 1289.24 2156.01 1257.49 2232.16 1297.06C2413.97 1391.47 2383.39 1738.05 2509.69 1832.46C2519.63 1839.88 2530.52 1845.73 2542.65 1849.63C2629.13 1877.57 2780.64 1816.84 3064.8 1358.77" stroke="url(#paint41_linear)" stroke-miterlimit="10" stroke-linecap="round" stroke-linejoin="round"/>
<path d="M398.246 807.156C420.5 968.815 452.699 1112.34 494.638 1224.61C536.35 1336.29 585.613 1410.75 654.824 1423.86C786.619 1448.73 873.473 1229.45 1048.34 1160.18C1063.24 1154.27 1078.78 1149.69 1094.95 1146.33C1236.86 1116.85 1294.58 1217.17 1374.08 1313.2C1430.41 1381.24 1495.54 1449.56 1602.95 1471.34C1772.82 1505.12 1894.88 1395.84 2010.04 1323.01C2085.61 1275.22 2155.98 1243.81 2232.12 1285.97C2413.88 1386.57 2378.18 1749.3 2502.9 1845.11C2512.75 1852.68 2523.61 1858.57 2535.7 1862.44C2621.5 1889.94 2773.5 1823.2 3062.59 1339.43" stroke="url(#paint42_linear)" stroke-miterlimit="10" stroke-linecap="round" stroke-linejoin="round"/>
<path d="M403.317 787.967C423.086 955.123 452.086 1103.25 492.682 1215.72C532.914 1328.5 583.751 1402.32 652.698 1415.32C785.092 1440.22 872.343 1219.84 1045.86 1152.92C1060.8 1147.22 1076.36 1142.72 1092.62 1139.58C1234.13 1112.27 1291.8 1216.48 1370.75 1315.36C1426.23 1384.85 1491.19 1452.95 1599.98 1472.53C1772.21 1503.18 1895.73 1385.84 2010.33 1310.73C2085.6 1261.05 2155.93 1230.1 2232.06 1274.84C2413.78 1381.63 2372.83 1760.7 2496.09 1857.72C2505.86 1865.46 2516.69 1871.38 2528.75 1875.21C2613.87 1902.28 2766.35 1829.51 3060.37 1320.05" stroke="url(#paint43_linear)" stroke-miterlimit="10" stroke-linecap="round" stroke-linejoin="round"/>
<path d="M408.388 768.779C443.111 1115.45 513.745 1381.12 650.585 1406.76C795.123 1433.85 885.833 1169.23 1090.29 1132.81C1329.87 1090.13 1328.89 1431.41 1597.03 1473.68C1886.88 1519.37 2040.58 1144.65 2232.01 1263.69C2428.2 1385.69 2358.94 1836.59 2521.81 1887.96C2606.24 1914.59 2759.21 1835.82 3058.15 1300.66" stroke="url(#paint44_linear)" stroke-miterlimit="10" stroke-linecap="round" stroke-linejoin="round"/>
<path d="M411.493 762.165C427.073 902.115 449.087 1030.57 478.447 1137.48C519.756 1288.72 576.996 1388.78 656.135 1408.2C748.636 1430.89 817.279 1333.59 911.504 1250.98C962.562 1206.22 1020.71 1164.07 1092.6 1148.86C1305.13 1103.93 1331.37 1356.92 1524.89 1442.59C1547.98 1452.71 1573.18 1460.99 1601.16 1466.19C1739.7 1491.94 1845.78 1426.08 1943.41 1356.43C1999.12 1316.89 2049.69 1275.68 2100.26 1258.39C2144.9 1243.13 2188.38 1244.71 2233.82 1275.42C2322.33 1334.9 2354.72 1464.61 2382.05 1588.82C2413.35 1732.35 2436.95 1870.05 2528.61 1892.02C2616.1 1912.98 2771.92 1829.69 3072.31 1298.09" stroke="url(#paint45_linear)" stroke-miterlimit="10" stroke-linecap="round" stroke-linejoin="round"/>
<path d="M414.589 755.552C431.606 894.232 455.534 1023.37 486.146 1133.6C527.864 1285.36 584.582 1386.08 661.684 1409.63C752.913 1437.5 818.913 1348.34 912.951 1269.18C964.161 1226.07 1022.75 1182.58 1094.92 1164.91C1305.48 1113.37 1336 1350.47 1528.77 1433.86C1552.16 1443.97 1577.43 1452.72 1605.3 1458.7C1742.43 1488.12 1846.24 1432.15 1945.62 1364.11C2002.48 1325.18 2053.15 1281.6 2104.11 1265.43C2148.74 1251.27 2191.26 1254.82 2235.63 1287.16C2321.7 1349.88 2352.7 1482.19 2380.95 1605.44C2412.9 1747.24 2439.5 1879.78 2535.43 1896.06C2625.88 1911.41 2784.63 1823.55 3086.48 1295.51" stroke="url(#paint46_linear)" stroke-miterlimit="10" stroke-linecap="round" stroke-linejoin="round"/>
<path d="M417.696 748.947C436.142 886.357 461.98 1016.16 493.847 1129.72C535.975 1282.01 592.232 1383.49 667.226 1411.07C757.292 1444.2 820.573 1363.08 914.382 1287.39C965.762 1245.94 1024.75 1201.12 1097.22 1180.96C1305.76 1122.94 1340.79 1343.63 1532.64 1425.12C1556.33 1435.19 1581.67 1444.45 1609.42 1451.21C1745.13 1484.26 1846.78 1438.33 1947.82 1371.79C2005.89 1333.55 2056.6 1287.52 2107.96 1272.47C2152.58 1259.4 2194.18 1264.88 2237.43 1298.89C2321.13 1364.72 2351 1499.68 2379.84 1622.07C2412.82 1762.03 2441.97 1889.56 2542.23 1900.11C2635.59 1909.92 2797.34 1817.41 3100.64 1292.94" stroke="url(#paint47_linear)" stroke-miterlimit="10" stroke-linecap="round" stroke-linejoin="round"/>
<path d="M420.801 742.333C440.675 878.473 468.704 1008.87 501.545 1125.83C544.433 1278.56 599.933 1380.99 672.775 1412.51C761.772 1451 822.257 1377.82 915.822 1305.6C967.379 1265.8 1026.75 1219.7 1099.52 1197.01C1306.02 1132.62 1345.6 1336.75 1536.52 1416.4C1560.52 1426.4 1585.9 1436.18 1613.55 1443.73C1747.82 1480.38 1847.34 1444.53 1950.03 1379.49C2009.31 1341.93 2060.05 1293.46 2111.82 1279.53C2156.41 1267.53 2197.11 1274.93 2239.25 1310.64C2320.59 1379.56 2349.08 1517.25 2378.75 1638.72C2412.49 1776.91 2444.39 1899.44 2549.05 1904.16C2645.26 1908.51 2810.06 1811.28 3114.82 1290.37" stroke="url(#paint48_linear)" stroke-miterlimit="10" stroke-linecap="round" stroke-linejoin="round"/>
<path d="M423.897 735.719C445.208 870.588 475.196 1001.64 509.236 1121.95C552.597 1275.18 607.664 1378.61 678.315 1413.93C766.318 1457.93 823.959 1392.57 917.251 1323.79C969 1285.65 1028.72 1238.3 1101.82 1213.05C1306.25 1142.42 1350.41 1329.84 1540.39 1407.65C1564.7 1417.61 1590.12 1427.88 1617.67 1436.22C1750.49 1476.45 1847.89 1450.71 1952.23 1387.14C2012.72 1350.28 2063.48 1299.35 2115.66 1286.54C2160.22 1275.61 2200.02 1284.94 2241.05 1322.35C2320.02 1394.36 2347.15 1534.77 2377.64 1655.32C2412.14 1791.74 2446.74 1909.33 2555.85 1908.19C2654.87 1907.14 2822.76 1805.12 3128.97 1287.76" stroke="url(#paint49_linear)" stroke-miterlimit="10" stroke-linecap="round" stroke-linejoin="round"/>
<path d="M427.001 729.106C449.741 862.706 481.697 994.426 516.944 1118.07C560.771 1271.82 615.427 1376.37 683.871 1415.37C770.929 1464.98 825.711 1407.32 918.697 1342C970.649 1305.5 1030.71 1256.95 1104.14 1229.09C1306.5 1152.33 1355.26 1322.9 1544.29 1398.9C1568.91 1408.79 1594.38 1419.57 1621.82 1428.71C1753.19 1472.48 1848.47 1456.9 1954.45 1394.81C2016.17 1358.64 2066.93 1305.23 2119.53 1293.57C2164.06 1283.71 2202.96 1294.96 2242.87 1334.07C2319.48 1409.15 2345.23 1552.29 2376.55 1671.94C2411.8 1806.59 2449.1 1919.33 2562.67 1912.22C2664.48 1905.86 2835.48 1798.97 3143.16 1285.18" stroke="url(#paint50_linear)" stroke-miterlimit="10" stroke-linecap="round" stroke-linejoin="round"/>
<path d="M430.098 722.493C454.274 854.822 488.19 987.2 524.635 1114.18C568.911 1268.45 623.179 1374.23 689.413 1416.81C775.55 1472.17 827.468 1422.09 920.129 1360.21C972.308 1325.37 1032.67 1275.63 1106.44 1245.14C1306.73 1162.37 1360.11 1315.95 1548.16 1390.17C1573.09 1400.01 1598.6 1411.27 1625.94 1421.23C1755.86 1468.5 1849.05 1463.12 1956.65 1402.49C2019.59 1367.03 2070.79 1313.21 2123.38 1300.62C2167.48 1290.06 2205.88 1304.98 2244.67 1345.8C2318.91 1423.94 2343.29 1569.84 2375.44 1688.57C2411.43 1821.44 2451.41 1929.39 2569.48 1916.27C2674.06 1904.65 2848.19 1792.83 3157.32 1282.6" stroke="url(#paint51_linear)" stroke-miterlimit="10" stroke-linecap="round" stroke-linejoin="round"/>
<path d="M433.203 715.879C458.809 846.938 494.675 979.976 532.334 1110.3C577.061 1265.09 630.92 1372.21 694.953 1418.24C780.17 1479.48 829.251 1436.86 921.559 1378.41C973.973 1345.21 1034.63 1294.34 1108.74 1261.18C1306.96 1172.51 1364.96 1308.96 1552.03 1381.43C1577.28 1391.21 1602.82 1402.97 1630.06 1413.73C1758.52 1464.47 1849.62 1469.33 1958.85 1410.17C2023.02 1375.41 2074.21 1319.33 2127.22 1307.66C2171.27 1297.96 2208.8 1314.99 2246.48 1357.54C2318.37 1438.72 2341.34 1587.39 2374.34 1705.2C2411.06 1836.31 2453.74 1939.53 2576.28 1920.33C2683.64 1903.5 2860.9 1786.71 3171.48 1280.03" stroke="url(#paint52_linear)" stroke-miterlimit="10" stroke-linecap="round" stroke-linejoin="round"/>
<path d="M436.308 709.268C463.35 839.056 501.167 972.753 540.041 1106.41C585.21 1261.73 638.638 1370.3 700.511 1419.67C784.787 1486.92 831.085 1451.65 923.014 1396.61C975.68 1365.07 1036.62 1313.09 1111.06 1277.23C1307.23 1182.75 1369.84 1301.96 1555.93 1372.69C1581.49 1382.41 1607.06 1394.66 1634.21 1406.24C1761.2 1460.42 1850.23 1475.55 1961.06 1417.86C2026.47 1383.8 2077.17 1322.89 2131.09 1314.7C2175.46 1307.96 2211.74 1325 2248.3 1369.28C2317.84 1453.49 2339.4 1604.93 2373.25 1721.83C2410.7 1851.17 2454.84 1942.45 2583.11 1924.37C2694.33 1908.7 2873.63 1780.58 3185.67 1277.46" stroke="url(#paint53_linear)" stroke-miterlimit="10" stroke-linecap="round" stroke-linejoin="round"/>
<path d="M439.405 702.654C467.876 831.173 507.646 965.538 547.733 1102.53C593.334 1258.36 646.306 1368.47 706.052 1421.1C789.342 1494.47 832.932 1466.45 924.446 1414.81C977.384 1384.94 1038.59 1331.87 1113.36 1293.28C1307.49 1193.1 1374.72 1294.93 1559.8 1363.96C1585.67 1373.6 1611.29 1386.33 1638.33 1398.74C1763.86 1456.34 1850.81 1481.78 1963.26 1425.52C2029.91 1392.18 2080.56 1328.75 2134.93 1321.73C2179.24 1316.01 2214.67 1335 2250.1 1381C2317.28 1468.24 2337.44 1622.46 2372.14 1738.44C2410.3 1866 2458.41 1959.93 2589.91 1928.4C2702.84 1901.33 2886.33 1774.42 3199.83 1274.86" stroke="url(#paint54_linear)" stroke-miterlimit="10" stroke-linecap="round" stroke-linejoin="round"/>
<path d="M442.512 696.049C472.42 823.297 514.124 958.324 555.434 1098.65C601.469 1255 653.934 1366.74 711.603 1422.55C793.851 1502.13 834.818 1481.28 925.886 1433.02C979.105 1404.82 1040.58 1350.69 1115.67 1309.33C1307.8 1203.55 1379.62 1287.89 1563.68 1355.22C1589.87 1364.8 1615.51 1378.01 1642.46 1391.25C1766.54 1452.21 1851.42 1488.02 1965.47 1433.21C2033.36 1400.58 2083.97 1334.6 2138.79 1328.77C2183.04 1324.07 2217.61 1345 2251.91 1392.73C2316.77 1482.98 2335.47 1640.01 2371.04 1755.08C2409.91 1880.87 2460.76 1970.22 2596.72 1932.46C2712.45 1900.32 2899.04 1768.29 3213.99 1272.3" stroke="url(#paint55_linear)" stroke-miterlimit="10" stroke-linecap="round" stroke-linejoin="round"/>
<path d="M445.607 689.438C476.952 815.414 520.584 951.113 563.124 1094.77C609.577 1251.65 661.494 1365.07 717.142 1423.98C798.283 1509.89 836.721 1496.12 927.315 1451.22C980.84 1424.69 1042.55 1369.52 1117.98 1325.37C1308.12 1214.06 1384.52 1280.81 1567.56 1346.48C1594.07 1355.99 1619.74 1369.67 1646.58 1383.75C1769.21 1448.07 1852.01 1494.26 1967.66 1440.89C2036.79 1408.98 2087.35 1340.44 2142.63 1335.82C2186.81 1332.11 2220.53 1354.99 2253.71 1404.47C2316.23 1497.73 2333.49 1657.55 2369.92 1771.71C2409.5 1895.74 2463.12 1980.54 2603.52 1936.51C2722.06 1899.33 2911.74 1762.16 3228.15 1269.72" stroke="url(#paint56_linear)" stroke-miterlimit="10" stroke-linecap="round" stroke-linejoin="round"/>
<path d="M448.713 682.822C481.486 807.53 527.053 943.891 570.833 1090.89C617.704 1248.3 669.028 1363.46 722.694 1425.42C802.641 1517.72 838.667 1511 928.757 1469.44C982.6 1444.6 1044.56 1388.41 1120.29 1341.44C1308.5 1224.68 1389.44 1273.72 1571.45 1337.76C1598.27 1347.2 1623.99 1361.36 1650.72 1376.27C1771.91 1443.91 1852.63 1500.53 1969.88 1448.58C2040.25 1417.39 2090.74 1346.29 2146.49 1342.86C2190.6 1340.16 2223.5 1364.99 2255.52 1416.21C2315.73 1512.46 2331.53 1675.11 2368.83 1788.35C2409.1 1910.6 2465.52 1990.89 2610.34 1940.56C2731.71 1898.37 2924.46 1756.03 3242.32 1267.15" stroke="url(#paint57_linear)" stroke-miterlimit="10" stroke-linecap="round" stroke-linejoin="round"/>
<path d="M451.809 676.211C486.019 799.647 533.514 936.681 578.523 1087C625.812 1244.94 676.48 1361.88 728.232 1426.85C806.908 1525.62 840.63 1525.89 930.186 1487.64C984.365 1464.49 1046.58 1407.3 1122.58 1357.48C1308.88 1235.34 1394.35 1266.61 1575.31 1329.02C1602.46 1338.38 1628.21 1353.01 1654.84 1368.78C1774.6 1439.7 1853.24 1506.79 1972.07 1456.26C2043.7 1425.8 2094.12 1352.1 2150.34 1349.91C2194.37 1348.18 2226.44 1374.97 2257.33 1427.94C2315.22 1527.19 2329.54 1692.65 2367.73 1804.98C2408.68 1925.47 2467.93 2001.28 2617.15 1944.61C2741.37 1897.44 2937.17 1749.89 3256.49 1264.58" stroke="url(#paint58_linear)" stroke-miterlimit="10" stroke-linecap="round" stroke-linejoin="round"/>
<path d="M454.914 669.596C490.553 791.763 539.975 929.46 586.222 1083.11C633.921 1241.59 683.893 1360.34 733.783 1428.28C811.093 1533.56 842.626 1540.82 931.633 1505.84C986.16 1484.41 1048.62 1426.22 1124.9 1373.51C1309.33 1246.07 1399.28 1259.46 1579.2 1320.27C1606.67 1329.56 1632.47 1344.65 1658.97 1361.27C1777.32 1435.46 1853.85 1513.03 1974.28 1463.91C2047.15 1434.19 2097.51 1357.89 2154.19 1356.92C2198.15 1356.17 2229.38 1384.94 2259.14 1439.65C2314.72 1541.89 2327.56 1710.17 2366.63 1821.58C2408.26 1940.31 2470.36 2011.65 2623.96 1948.63C2751.04 1896.49 2949.89 1743.72 3270.66 1261.97" stroke="url(#paint59_linear)" stroke-miterlimit="10" stroke-linecap="round" stroke-linejoin="round"/>
<path d="M458.02 662.984C495.095 783.88 546.437 922.251 593.922 1079.23C642.023 1238.23 691.24 1358.81 739.331 1429.71C815.178 1541.55 844.644 1555.78 933.073 1524.04C987.958 1504.34 1050.68 1445.18 1127.21 1389.56C1309.82 1256.86 1404.22 1252.3 1583.08 1311.53C1610.87 1320.73 1636.7 1336.29 1663.1 1353.77C1780.05 1431.2 1854.47 1519.31 1976.49 1471.59C2050.61 1442.61 2100.9 1363.68 2158.05 1363.96C2201.93 1364.17 2232.34 1394.92 2260.95 1451.39C2314.24 1556.6 2325.56 1727.73 2365.53 1838.22C2407.83 1955.18 2472.81 2022.08 2630.77 1952.69C2760.72 1895.59 2962.6 1737.6 3284.82 1259.4" stroke="url(#paint60_linear)" stroke-miterlimit="10" stroke-linecap="round" stroke-linejoin="round"/>
<path d="M461.116 656.371C499.621 775.998 552.882 915.042 601.621 1075.34C650.123 1234.88 698.548 1357.3 744.881 1431.15C819.175 1549.57 846.686 1570.77 934.512 1542.24C989.777 1524.29 1052.76 1464.15 1129.51 1405.61C1310.35 1267.7 1409.16 1245.13 1586.96 1302.79C1615.07 1311.92 1640.94 1327.93 1667.23 1346.28C1782.79 1426.93 1855.09 1525.59 1978.69 1479.27C2054.07 1451.03 2104.28 1369.47 2161.91 1371.01C2205.71 1372.18 2235.31 1404.91 2262.76 1463.13C2313.76 1571.32 2323.56 1745.28 2364.42 1854.85C2407.39 1970.05 2475.28 2032.53 2637.58 1956.73C2770.42 1894.68 2975.31 1731.46 3298.99 1256.82" stroke="url(#paint61_linear)" stroke-miterlimit="10" stroke-linecap="round" stroke-linejoin="round"/>
<path d="M464.221 649.756C504.162 768.111 559.328 907.832 609.32 1071.46C658.224 1231.52 705.798 1355.8 750.421 1432.58C823.084 1557.61 848.742 1585.79 935.941 1560.44C991.598 1544.26 1054.84 1483.14 1131.82 1421.65C1310.92 1278.58 1414.1 1237.92 1590.83 1294.05C1619.27 1303.08 1645.19 1319.56 1671.36 1338.78C1785.54 1422.62 1855.71 1531.87 1980.89 1486.94C2057.51 1459.45 2107.65 1375.23 2165.75 1378.03C2209.48 1380.15 2238.28 1414.87 2264.56 1474.85C2313.28 1586.01 2321.54 1762.82 2363.32 1871.46C2406.94 1984.9 2477.75 2042.97 2644.39 1960.75C2780.14 1893.78 2988.02 1725.3 3313.16 1254.22" stroke="url(#paint62_linear)" stroke-miterlimit="10" stroke-linecap="round" stroke-linejoin="round"/>
<path d="M467.318 643.152C508.689 760.238 565.766 900.635 617.012 1067.58C666.309 1228.18 712.999 1354.3 755.961 1434.02C826.902 1565.65 850.815 1600.87 937.372 1578.65C993.425 1564.27 1056.95 1502.15 1134.12 1437.7C1311.54 1289.53 1419.06 1230.72 1594.71 1285.32C1623.48 1294.26 1649.44 1311.2 1675.49 1331.29C1788.31 1418.32 1856.34 1538.17 1983.1 1494.63C2060.98 1467.89 2111.04 1381 2169.61 1385.09C2213.26 1388.14 2241.25 1424.86 2266.38 1486.6C2312.82 1600.74 2319.53 1780.39 2362.23 1888.11C2406.49 1999.8 2480.26 2053.46 2651.2 1964.83C2789.88 1892.93 3000.74 1719.19 3327.33 1251.67" stroke="url(#paint63_linear)" stroke-miterlimit="10" stroke-linecap="round" stroke-linejoin="round"/>
<path d="M470.423 636.537C513.23 752.352 572.21 893.417 624.712 1063.7C674.403 1224.83 720.174 1352.79 761.512 1435.46C830.657 1573.72 851.253 1605.78 938.813 1596.86C996.369 1591 1059.09 1521.19 1136.43 1453.76C1312.2 1300.49 1424.01 1223.49 1598.59 1276.6C1627.68 1285.44 1653.7 1302.84 1679.62 1323.8C1791.1 1413.99 1856.97 1544.48 1985.31 1502.32C2064.44 1476.32 2114.43 1386.75 2173.46 1392.13C2217.04 1396.1 2244.23 1434.84 2268.18 1498.33C2312.37 1615.44 2317.5 1797.95 2361.11 1904.74C2406.02 2014.68 2482.76 2063.94 2658 1968.87C2799.61 1892.05 3013.45 1713.05 3341.49 1249.09" stroke="url(#paint64_linear)" stroke-miterlimit="10" stroke-linecap="round" stroke-linejoin="round"/>
<path d="M473.527 629.926C517.763 744.471 578.647 886.213 632.419 1059.82C682.497 1221.49 727.311 1351.27 767.068 1436.89C834.34 1581.76 853.704 1621.04 940.266 1615.06C998.023 1611.07 1061.25 1540.23 1138.75 1469.8C1312.93 1311.48 1428.99 1216.22 1602.49 1267.84C1631.9 1276.59 1657.97 1294.45 1683.76 1316.29C1793.93 1409.63 1857.61 1550.76 1987.53 1509.98C2067.92 1484.74 2117.83 1392.47 2177.33 1399.15C2220.84 1404.05 2247.22 1444.8 2270.01 1510.04C2311.94 1630.13 2315.49 1815.49 2360.03 1921.35C2405.56 2029.54 2485.31 2074.41 2664.84 1972.9C2809.38 1891.17 3026.18 1706.89 3355.68 1246.5" stroke="url(#paint65_linear)" stroke-miterlimit="10" stroke-linecap="round" stroke-linejoin="round"/>
<path d="M476.625 623.312C522.298 736.587 585.07 879.016 640.111 1055.93C690.574 1218.14 734.399 1349.74 772.61 1438.32C837.941 1589.81 856.143 1636.44 941.698 1633.26C999.658 1631.11 1063.43 1559.29 1141.05 1485.84C1313.67 1322.49 1433.95 1208.96 1606.36 1259.11C1636.1 1267.76 1662.23 1286.07 1687.88 1308.8C1796.74 1405.28 1858.22 1557.08 1989.72 1517.66C2071.37 1493.18 2121.21 1398.19 2181.17 1406.2C2224.61 1412 2250.2 1454.78 2271.81 1521.78C2311.5 1644.84 2313.43 1833.06 2358.92 1937.98C2405.07 2044.42 2487.84 2084.9 2671.63 1976.95C2819.13 1890.31 3038.88 1700.76 3369.83 1243.93" stroke="url(#paint66_linear)" stroke-miterlimit="10" stroke-linecap="round" stroke-linejoin="round"/>
<path d="M479.73 616.699C526.832 728.704 591.5 871.812 647.81 1052.05C698.653 1214.8 741.475 1348.2 778.151 1439.75C841.48 1597.83 859.226 1661.56 943.129 1651.47C1000.84 1644.53 1065.62 1578.36 1143.35 1501.89C1314.45 1333.53 1438.92 1201.67 1610.23 1250.38C1640.3 1258.92 1666.49 1277.69 1692 1301.32C1799.57 1400.92 1858.84 1563.4 1991.91 1525.34C2074.82 1501.63 2124.59 1403.9 2185.01 1413.24C2228.38 1419.95 2253.18 1464.76 2273.61 1533.52C2311.05 1659.55 2311.38 1850.64 2357.81 1954.61C2404.58 2059.31 2490.39 2095.41 2678.44 1981C2828.9 1889.46 3051.59 1694.62 3384 1241.35" stroke="url(#paint67_linear)" stroke-miterlimit="10" stroke-linecap="round" stroke-linejoin="round"/>
<path d="M482.825 610.086C531.363 720.82 597.919 864.607 655.499 1048.16C706.727 1211.45 748.504 1346.64 783.69 1441.19C844.964 1605.85 861.328 1676.84 944.558 1669.67C1002.69 1664.67 1067.84 1597.45 1145.65 1517.94C1315.29 1344.58 1443.88 1194.37 1614.11 1241.64C1644.5 1250.08 1670.76 1269.31 1696.13 1293.83C1802.43 1396.55 1859.46 1569.73 1994.12 1533.02C2078.28 1510.08 2128 1409.61 2188.86 1420.28C2232.17 1427.88 2256.17 1474.73 2275.41 1545.25C2310.62 1674.26 2309.31 1868.2 2356.71 1971.24C2404.08 2074.2 2492.95 2105.91 2685.25 1985.04C2838.68 1888.6 3064.3 1688.48 3398.17 1238.77" stroke="url(#paint68_linear)" stroke-miterlimit="10" stroke-linecap="round" stroke-linejoin="round"/>
<path d="M485.931 603.473C535.906 712.936 604.341 857.404 663.207 1044.27C714.814 1208.11 755.532 1345.06 789.247 1442.62C848.421 1613.85 863.438 1692.14 946.004 1687.86C1004.55 1684.83 1070.09 1616.54 1147.96 1533.97C1316.17 1355.63 1448.86 1187.03 1617.99 1232.89C1648.72 1241.22 1675.04 1260.91 1700.26 1286.31C1805.31 1392.14 1860.1 1576.04 1996.32 1540.68C2081.74 1518.51 2131.4 1415.27 2192.72 1427.31C2235.96 1435.8 2259.17 1484.7 2277.22 1556.96C2310.2 1688.96 2307.24 1885.77 2355.6 1987.85C2403.57 2089.09 2495.53 2116.4 2692.05 1989.08C2848.46 1887.74 3076.99 1682.33 3412.33 1236.18" stroke="url(#paint69_linear)" stroke-miterlimit="10" stroke-linecap="round" stroke-linejoin="round"/>
<path d="M489.035 596.859C540.439 705.053 610.762 850.201 670.906 1040.39C722.89 1204.76 762.531 1343.47 794.796 1444.06C851.817 1621.83 865.533 1707.51 947.444 1706.08C1006.4 1705.04 1072.36 1635.64 1150.27 1550.02C1317.09 1366.71 1453.85 1179.71 1621.88 1224.15C1652.94 1232.37 1679.34 1252.52 1704.4 1278.82C1808.21 1387.75 1860.74 1582.38 1998.54 1548.36C2085.22 1526.96 2134.81 1420.94 2196.58 1434.34C2239.77 1443.7 2262.17 1494.67 2279.04 1568.69C2309.8 1703.66 2305.18 1903.34 2354.51 2004.47C2403.06 2103.98 2498.13 2126.91 2698.87 1993.11C2858.27 1886.87 3089.72 1676.19 3426.51 1233.59" stroke="url(#paint70_linear)" stroke-miterlimit="10" stroke-linecap="round" stroke-linejoin="round"/>
<path d="M492.133 590.248C544.973 697.171 617.17 843.01 678.599 1036.51C730.955 1201.43 769.505 1341.87 800.331 1445.5C855.159 1629.79 867.586 1722.92 948.876 1724.28C1008.23 1725.28 1074.63 1654.75 1152.57 1566.07C1318.04 1377.8 1458.82 1172.36 1625.75 1215.42C1657.14 1223.51 1683.62 1244.14 1708.52 1271.33C1811.13 1383.36 1861.36 1588.72 2000.74 1556.04C2088.67 1535.43 2138.23 1426.62 2200.43 1441.39C2243.57 1451.63 2265.17 1504.66 2280.84 1580.44C2309.38 1718.4 2303.08 1920.95 2353.4 2021.11C2402.53 2118.9 2500.72 2137.44 2705.67 1997.18C2868.07 1886.04 3102.42 1670.07 3440.67 1231.04" stroke="url(#paint71_linear)" stroke-miterlimit="10" stroke-linecap="round" stroke-linejoin="round"/>
<path d="M495.238 583.643C549.508 689.296 623.584 835.816 686.307 1032.63C739.032 1198.09 776.482 1340.26 805.889 1446.94C858.497 1637.74 869.652 1738.36 950.324 1742.49C1010.06 1745.56 1076.95 1673.88 1154.89 1582.13C1319.04 1388.89 1463.81 1164.99 1629.64 1206.69C1661.35 1214.66 1687.91 1235.75 1712.66 1263.84C1814.06 1378.97 1861.99 1595.07 2002.95 1563.74C2092.14 1543.9 2141.66 1432.29 2204.28 1448.44C2247.37 1459.55 2268.18 1514.66 2282.65 1592.17C2308.98 1733.11 2300.99 1938.55 2352.31 2037.74C2402.01 2133.81 2503.33 2147.96 2712.49 2001.23C2877.89 1885.19 3115.15 1663.93 3454.84 1228.46" stroke="url(#paint72_linear)" stroke-miterlimit="10" stroke-linecap="round" stroke-linejoin="round"/>
<path d="M498.336 577.029C554.044 681.42 629.596 828.748 693.999 1028.75C746.779 1194.85 783.422 1338.61 811.43 1448.37C861.78 1645.65 871.674 1753.82 951.755 1760.7C1011.86 1765.86 1079.26 1693 1157.19 1598.17C1320.07 1399.97 1468.79 1157.62 1633.51 1197.95C1665.56 1205.8 1692.2 1227.36 1716.78 1256.35C1817 1374.57 1862.61 1601.43 2005.15 1571.41C2095.59 1552.37 2145.08 1437.93 2208.13 1455.48C2251.18 1467.46 2271.18 1524.64 2284.46 1603.91C2308.58 1747.84 2298.89 1956.15 2351.21 2054.38C2401.47 2148.74 2505.95 2158.49 2719.31 2005.28C2887.72 1884.35 3127.86 1657.8 3469.02 1225.88" stroke="url(#paint73_linear)" stroke-miterlimit="10" stroke-linecap="round" stroke-linejoin="round"/>
<path d="M501.439 570.414C558.576 673.535 636.048 821.537 701.697 1024.86C754.886 1191.49 790.358 1336.95 816.978 1449.8C865.041 1653.54 873.683 1769.31 953.193 1778.9C1013.65 1786.18 1081.6 1712.12 1159.5 1614.22C1321.13 1411.06 1473.78 1150.22 1637.39 1189.22C1669.78 1196.94 1696.51 1218.97 1720.92 1248.85C1819.97 1370.16 1863.24 1607.77 2007.36 1579.09C2099.06 1560.83 2148.52 1443.57 2211.99 1462.51C2255 1475.34 2274.2 1534.61 2286.27 1615.63C2308.18 1762.55 2296.78 1973.75 2350.1 2071C2400.92 2163.66 2508.56 2169 2726.11 2009.31C2897.52 1883.48 3140.56 1651.65 3483.17 1223.29" stroke="url(#paint74_linear)" stroke-miterlimit="10" stroke-linecap="round" stroke-linejoin="round"/>
<path d="M504.545 563.801C563.118 665.651 642.494 814.33 709.396 1020.97C762.996 1188.14 797.284 1335.28 822.527 1451.23C868.283 1661.42 875.657 1784.83 954.631 1797.09C1015.42 1806.53 1083.97 1731.24 1161.81 1630.26C1322.22 1422.14 1478.76 1142.8 1641.27 1180.47C1673.99 1188.05 1700.81 1210.56 1725.04 1241.34C1822.95 1365.75 1863.71 1613.24 2009.56 1586.75C2102.62 1569.85 2151.96 1449.17 2215.84 1469.53C2258.81 1483.23 2277.2 1544.58 2288.08 1627.36C2307.79 1777.27 2294.65 1991.36 2349 2087.61C2400.36 2178.58 2511.18 2179.51 2732.92 2013.34C2907.36 1882.62 3153.27 1645.49 3497.34 1220.7" stroke="url(#paint75_linear)" stroke-miterlimit="10" stroke-linecap="round" stroke-linejoin="round"/>
<path d="M507.642 557.189C567.644 657.77 648.94 807.123 717.095 1017.09C771.106 1184.79 804.199 1333.6 828.067 1452.66C871.485 1669.27 877.583 1800.37 956.062 1815.3C1017.15 1826.92 1086.34 1750.38 1164.11 1646.31C1323.34 1433.22 1483.74 1135.37 1645.15 1171.73C1678.2 1179.18 1705.12 1202.17 1729.17 1233.85C1825.94 1361.35 1864.5 1620.48 2011.77 1594.43C2105.98 1577.77 2155.41 1454.8 2219.69 1476.57C2262.64 1491.13 2280.21 1554.57 2289.89 1639.08C2307.4 1792 2292.52 2008.98 2347.9 2104.24C2399.81 2193.52 2513.82 2190.03 2739.74 2017.39C2917.2 1881.77 3166 1639.36 3511.52 1218.12" stroke="url(#paint76_linear)" stroke-miterlimit="10" stroke-linecap="round" stroke-linejoin="round"/>
<path d="M510.747 550.576C572.186 649.885 655.394 799.913 724.795 1013.2C779.215 1181.43 811.11 1331.89 833.617 1454.1C874.687 1677.11 879.49 1815.94 957.501 1833.5C1018.87 1847.32 1088.73 1769.5 1166.41 1662.36C1324.49 1444.3 1488.73 1127.93 1649.03 1163C1682.41 1170.3 1709.43 1193.77 1733.3 1226.36C1828.95 1356.95 1865.17 1627.13 2013.97 1602.12C2109.48 1586.42 2158.88 1460.42 2223.55 1483.62C2266.47 1499.03 2283.38 1564.56 2291.71 1650.83C2307.28 1806.71 2290.39 2026.63 2346.81 2120.87C2399.25 2208.47 2516.48 2200.56 2746.55 2021.44C2927.04 1880.92 3178.71 1633.23 3525.68 1215.55" stroke="url(#paint77_linear)" stroke-miterlimit="10" stroke-linecap="round" stroke-linejoin="round"/>
<path d="M513.842 543.963C576.709 642.003 661.829 792.706 732.485 1009.33C787.308 1178.09 818.003 1330.19 839.156 1455.53C877.866 1684.92 881.354 1831.51 958.938 1851.7C1020.56 1867.74 1091.15 1788.63 1168.72 1678.39C1325.67 1455.36 1493.71 1120.47 1652.9 1154.25C1686.62 1161.4 1713.74 1185.37 1737.42 1218.87C1831.96 1352.56 1865.76 1633.41 2016.16 1609.79C2112.9 1594.84 2162.32 1466.02 2227.38 1490.65C2270.29 1506.89 2286.32 1574.54 2293.49 1662.55C2306.79 1821.45 2288.21 2044.27 2345.69 2137.5C2398.66 2223.42 2519.4 2211.47 2753.34 2025.48C2937.1 1880.37 3191.41 1627.09 3539.83 1212.97" stroke="url(#paint78_linear)" stroke-miterlimit="10" stroke-linecap="round" stroke-linejoin="round"/>
<path d="M516.948 537.348C581.253 634.116 668.284 785.495 740.186 1005.44C795.418 1174.73 824.902 1328.45 844.708 1456.97C881.037 1692.72 883.183 1847.1 960.38 1869.91C1022.24 1888.19 1093.57 1807.78 1171.03 1694.45C1326.88 1466.43 1498.75 1112.72 1656.79 1145.52C1690.85 1152.47 1718.12 1176.94 1741.55 1211.37C1835.24 1348 1866.37 1639.7 2018.37 1617.47C2116.36 1603.27 2165.8 1471.63 2231.24 1497.7C2274.14 1514.79 2289.3 1584.55 2295.31 1674.28C2306.32 1836.19 2285.92 2062.02 2344.58 2154.12C2397.95 2238.48 2521.91 2221.8 2760.15 2029.53C2946.84 1879.37 3204.12 1620.95 3554.01 1210.39" stroke="url(#paint79_linear)" stroke-miterlimit="10" stroke-linecap="round" stroke-linejoin="round"/>
<path d="M520.047 530.746C585.788 626.244 674.724 778.299 747.887 1001.56C905.828 1483.59 843.184 1848.87 961.82 1888.12C1148.07 1949.74 1425.24 1089.93 1660.67 1136.79C1831.39 1170.77 1828.24 1651.23 2020.59 1625.15C2119.82 1611.7 2169.3 1477.23 2235.11 1504.75C2355.31 1555.01 2250.84 2029.04 2343.5 2170.77C2439.73 2317.96 2767.4 2135.49 3568.19 1207.83" stroke="url(#paint80_linear)" stroke-miterlimit="10" stroke-linecap="round" stroke-linejoin="round"/>
</g>
<defs>
<linearGradient id="paint0_linear" x1="207.277" y1="2529.21" x2="3169.13" y2="2440.64" gradientUnits="userSpaceOnUse">
<stop stop-color="#156268" stop-opacity="0.32"/>
<stop offset="1" stop-color="#156268"/>
</linearGradient>
<linearGradient id="paint1_linear" x1="213.122" y1="2511.32" x2="3163.76" y2="2429.17" gradientUnits="userSpaceOnUse">
<stop stop-color="#156268" stop-opacity="0.32"/>
<stop offset="1" stop-color="#156268"/>
</linearGradient>
<linearGradient id="paint2_linear" x1="218.91" y1="2493.39" x2="3159.26" y2="2417.91" gradientUnits="userSpaceOnUse">
<stop stop-color="#156268" stop-opacity="0.32"/>
<stop offset="1" stop-color="#156268"/>
</linearGradient>
<linearGradient id="paint3_linear" x1="224.633" y1="2475.47" x2="3155.85" y2="2406.93" gradientUnits="userSpaceOnUse">
<stop stop-color="#156268" stop-opacity="0.32"/>
<stop offset="1" stop-color="#156268"/>
</linearGradient>
<linearGradient id="paint4_linear" x1="230.332" y1="2457.55" x2="3153.09" y2="2396.17" gradientUnits="userSpaceOnUse">
<stop stop-color="#156268" stop-opacity="0.32"/>
<stop offset="1" stop-color="#156268"/>
</linearGradient>
<linearGradient id="paint5_linear" x1="236.012" y1="2439.57" x2="3150.26" y2="2385.48" gradientUnits="userSpaceOnUse">
<stop stop-color="#156268" stop-opacity="0.32"/>
<stop offset="1" stop-color="#156268"/>
</linearGradient>
<linearGradient id="paint6_linear" x1="241.687" y1="2421.57" x2="3147.35" y2="2374.89" gradientUnits="userSpaceOnUse">
<stop stop-color="#156268" stop-opacity="0.32"/>
<stop offset="1" stop-color="#156268"/>
</linearGradient>
<linearGradient id="paint7_linear" x1="247.354" y1="2403.54" x2="3144.4" y2="2364.37" gradientUnits="userSpaceOnUse">
<stop stop-color="#156268" stop-opacity="0.32"/>
<stop offset="1" stop-color="#156268"/>
</linearGradient>
<linearGradient id="paint8_linear" x1="252.809" y1="2384.38" x2="3141.78" y2="2349.16" gradientUnits="userSpaceOnUse">
<stop stop-color="#156268" stop-opacity="0.32"/>
<stop offset="1" stop-color="#156268"/>
</linearGradient>
<linearGradient id="paint9_linear" x1="258.026" y1="2363.95" x2="3139.57" y2="2328.65" gradientUnits="userSpaceOnUse">
<stop stop-color="#156268" stop-opacity="0.32"/>
<stop offset="1" stop-color="#156268"/>
</linearGradient>
<linearGradient id="paint10_linear" x1="263.223" y1="2343.41" x2="3137.4" y2="2307.63" gradientUnits="userSpaceOnUse">
<stop stop-color="#156268" stop-opacity="0.32"/>
<stop offset="1" stop-color="#156268"/>
</linearGradient>
<linearGradient id="paint11_linear" x1="268.416" y1="2322.86" x2="3135.23" y2="2286.62" gradientUnits="userSpaceOnUse">
<stop stop-color="#156268" stop-opacity="0.32"/>
<stop offset="1" stop-color="#156268"/>
</linearGradient>
<linearGradient id="paint12_linear" x1="273.614" y1="2302.31" x2="3133.05" y2="2265.6" gradientUnits="userSpaceOnUse">
<stop stop-color="#156268" stop-opacity="0.32"/>
<stop offset="1" stop-color="#156268"/>
</linearGradient>
<linearGradient id="paint13_linear" x1="278.81" y1="2281.78" x2="3130.89" y2="2244.59" gradientUnits="userSpaceOnUse">
<stop stop-color="#156268" stop-opacity="0.32"/>
<stop offset="1" stop-color="#156268"/>
</linearGradient>
<linearGradient id="paint14_linear" x1="284.004" y1="2261.23" x2="3128.71" y2="2223.57" gradientUnits="userSpaceOnUse">
<stop stop-color="#156268" stop-opacity="0.32"/>
<stop offset="1" stop-color="#156268"/>
</linearGradient>
<linearGradient id="paint15_linear" x1="289.201" y1="2240.69" x2="3126.55" y2="2202.57" gradientUnits="userSpaceOnUse">
<stop stop-color="#156268" stop-opacity="0.32"/>
<stop offset="1" stop-color="#156268"/>
</linearGradient>
<linearGradient id="paint16_linear" x1="294.394" y1="2220.13" x2="3124.37" y2="2181.55" gradientUnits="userSpaceOnUse">
<stop stop-color="#156268" stop-opacity="0.32"/>
<stop offset="1" stop-color="#156268"/>
</linearGradient>
<linearGradient id="paint17_linear" x1="299.592" y1="2199.59" x2="3122.19" y2="2160.54" gradientUnits="userSpaceOnUse">
<stop stop-color="#156268" stop-opacity="0.32"/>
<stop offset="1" stop-color="#156268"/>
</linearGradient>
<linearGradient id="paint18_linear" x1="304.784" y1="2179.05" x2="3120.05" y2="2139.54" gradientUnits="userSpaceOnUse">
<stop stop-color="#156268" stop-opacity="0.32"/>
<stop offset="1" stop-color="#156268"/>
</linearGradient>
<linearGradient id="paint19_linear" x1="309.987" y1="2158.49" x2="3117.86" y2="2118.52" gradientUnits="userSpaceOnUse">
<stop stop-color="#156268" stop-opacity="0.32"/>
<stop offset="1" stop-color="#156268"/>
</linearGradient>
<linearGradient id="paint20_linear" x1="315.188" y1="2137.97" x2="3115.72" y2="2097.53" gradientUnits="userSpaceOnUse">
<stop stop-color="#156268" stop-opacity="0.32"/>
<stop offset="1" stop-color="#156268"/>
</linearGradient>
<linearGradient id="paint21_linear" x1="320.382" y1="2117.42" x2="3113.52" y2="2076.52" gradientUnits="userSpaceOnUse">
<stop stop-color="#156268" stop-opacity="0.32"/>
<stop offset="1" stop-color="#156268"/>
</linearGradient>
<linearGradient id="paint22_linear" x1="325.576" y1="2096.87" x2="3111.35" y2="2055.52" gradientUnits="userSpaceOnUse">
<stop stop-color="#156268" stop-opacity="0.32"/>
<stop offset="1" stop-color="#156268"/>
</linearGradient>
<linearGradient id="paint23_linear" x1="330.772" y1="2076.33" x2="3109.18" y2="2034.51" gradientUnits="userSpaceOnUse">
<stop stop-color="#156268" stop-opacity="0.32"/>
<stop offset="1" stop-color="#156268"/>
</linearGradient>
<linearGradient id="paint24_linear" x1="335.965" y1="2055.77" x2="3107" y2="2013.51" gradientUnits="userSpaceOnUse">
<stop stop-color="#156268" stop-opacity="0.32"/>
<stop offset="1" stop-color="#156268"/>
</linearGradient>
<linearGradient id="paint25_linear" x1="341.281" y1="2035.86" x2="3105.01" y2="1992.81" gradientUnits="userSpaceOnUse">
<stop stop-color="#156268" stop-opacity="0.32"/>
<stop offset="1" stop-color="#156268"/>
</linearGradient>
<linearGradient id="paint26_linear" x1="347.89" y1="2022.83" x2="3104.85" y2="1975.4" gradientUnits="userSpaceOnUse">
<stop stop-color="#156268" stop-opacity="0.32"/>
<stop offset="1" stop-color="#156268"/>
</linearGradient>
<linearGradient id="paint27_linear" x1="355.553" y1="2015.4" x2="3106.13" y2="1960.84" gradientUnits="userSpaceOnUse">
<stop stop-color="#156268" stop-opacity="0.32"/>
<stop offset="1" stop-color="#156268"/>
</linearGradient>
<linearGradient id="paint28_linear" x1="363.859" y1="2011.39" x2="3108.24" y2="1948.25" gradientUnits="userSpaceOnUse">
<stop stop-color="#156268" stop-opacity="0.32"/>
<stop offset="1" stop-color="#156268"/>
</linearGradient>
<linearGradient id="paint29_linear" x1="372.588" y1="2009.63" x2="3110.8" y2="1937.18" gradientUnits="userSpaceOnUse">
<stop stop-color="#156268" stop-opacity="0.32"/>
<stop offset="1" stop-color="#156268"/>
</linearGradient>
<linearGradient id="paint30_linear" x1="381.605" y1="2009.4" x2="3113.62" y2="1927.35" gradientUnits="userSpaceOnUse">
<stop stop-color="#156268" stop-opacity="0.32"/>
<stop offset="1" stop-color="#156268"/>
</linearGradient>
<linearGradient id="paint31_linear" x1="390.828" y1="2010.25" x2="3116.57" y2="1918.56" gradientUnits="userSpaceOnUse">
<stop stop-color="#156268" stop-opacity="0.32"/>
<stop offset="1" stop-color="#156268"/>
</linearGradient>
<linearGradient id="paint32_linear" x1="400.206" y1="2011.94" x2="3119.61" y2="1910.7" gradientUnits="userSpaceOnUse">
<stop stop-color="#156268" stop-opacity="0.32"/>
<stop offset="1" stop-color="#156268"/>
</linearGradient>
<linearGradient id="paint33_linear" x1="409.694" y1="2014.21" x2="3122.67" y2="1903.64" gradientUnits="userSpaceOnUse">
<stop stop-color="#156268" stop-opacity="0.32"/>
<stop offset="1" stop-color="#156268"/>
</linearGradient>
<linearGradient id="paint34_linear" x1="419.28" y1="2016.96" x2="3125.72" y2="1897.32" gradientUnits="userSpaceOnUse">
<stop stop-color="#156268" stop-opacity="0.32"/>
<stop offset="1" stop-color="#156268"/>
</linearGradient>
<linearGradient id="paint35_linear" x1="428.927" y1="2020.08" x2="3128.74" y2="1891.67" gradientUnits="userSpaceOnUse">
<stop stop-color="#156268" stop-opacity="0.32"/>
<stop offset="1" stop-color="#156268"/>
</linearGradient>
<linearGradient id="paint36_linear" x1="438.63" y1="2023.49" x2="3131.72" y2="1886.62" gradientUnits="userSpaceOnUse">
<stop stop-color="#156268" stop-opacity="0.32"/>
<stop offset="1" stop-color="#156268"/>
</linearGradient>
<linearGradient id="paint37_linear" x1="448.383" y1="2027.17" x2="3134.68" y2="1882.15" gradientUnits="userSpaceOnUse">
<stop stop-color="#156268" stop-opacity="0.32"/>
<stop offset="1" stop-color="#156268"/>
</linearGradient>
<linearGradient id="paint38_linear" x1="458.169" y1="2031.02" x2="3137.59" y2="1878.19" gradientUnits="userSpaceOnUse">
<stop stop-color="#156268" stop-opacity="0.32"/>
<stop offset="1" stop-color="#156268"/>
</linearGradient>
<linearGradient id="paint39_linear" x1="467.988" y1="2035.05" x2="3140.48" y2="1874.73" gradientUnits="userSpaceOnUse">
<stop stop-color="#156268" stop-opacity="0.32"/>
<stop offset="1" stop-color="#156268"/>
</linearGradient>
<linearGradient id="paint40_linear" x1="477.764" y1="2039.24" x2="3143.32" y2="1871.74" gradientUnits="userSpaceOnUse">
<stop stop-color="#156268" stop-opacity="0.32"/>
<stop offset="1" stop-color="#156268"/>
</linearGradient>
<linearGradient id="paint41_linear" x1="486.493" y1="2043.72" x2="3146.11" y2="1869.4" gradientUnits="userSpaceOnUse">
<stop stop-color="#156268" stop-opacity="0.32"/>
<stop offset="1" stop-color="#156268"/>
</linearGradient>
<linearGradient id="paint42_linear" x1="493.854" y1="2048.62" x2="3148.9" y2="1867.83" gradientUnits="userSpaceOnUse">
<stop stop-color="#156268" stop-opacity="0.32"/>
<stop offset="1" stop-color="#156268"/>
</linearGradient>
<linearGradient id="paint43_linear" x1="499.84" y1="2053.83" x2="3151.67" y2="1866.89" gradientUnits="userSpaceOnUse">
<stop stop-color="#156268" stop-opacity="0.32"/>
<stop offset="1" stop-color="#156268"/>
</linearGradient>
<linearGradient id="paint44_linear" x1="504.846" y1="2059.29" x2="3154.43" y2="1866.48" gradientUnits="userSpaceOnUse">
<stop stop-color="#156268" stop-opacity="0.32"/>
<stop offset="1" stop-color="#156268"/>
</linearGradient>
<linearGradient id="paint45_linear" x1="511.743" y1="2059.62" x2="3169.04" y2="1865.36" gradientUnits="userSpaceOnUse">
<stop stop-color="#156268" stop-opacity="0.32"/>
<stop offset="1" stop-color="#156268"/>
</linearGradient>
<linearGradient id="paint46_linear" x1="518.381" y1="2060.18" x2="3183.69" y2="1864.46" gradientUnits="userSpaceOnUse">
<stop stop-color="#156268" stop-opacity="0.32"/>
<stop offset="1" stop-color="#156268"/>
</linearGradient>
<linearGradient id="paint47_linear" x1="524.714" y1="2061.02" x2="3198.39" y2="1863.8" gradientUnits="userSpaceOnUse">
<stop stop-color="#156268" stop-opacity="0.32"/>
<stop offset="1" stop-color="#156268"/>
</linearGradient>
<linearGradient id="paint48_linear" x1="530.745" y1="2062.15" x2="3213.15" y2="1863.4" gradientUnits="userSpaceOnUse">
<stop stop-color="#156268" stop-opacity="0.32"/>
<stop offset="1" stop-color="#156268"/>
</linearGradient>
<linearGradient id="paint49_linear" x1="536.272" y1="2063.59" x2="3227.93" y2="1863.29" gradientUnits="userSpaceOnUse">
<stop stop-color="#156268" stop-opacity="0.32"/>
<stop offset="1" stop-color="#156268"/>
</linearGradient>
<linearGradient id="paint50_linear" x1="541.36" y1="2065.39" x2="3242.8" y2="1863.49" gradientUnits="userSpaceOnUse">
<stop stop-color="#156268" stop-opacity="0.32"/>
<stop offset="1" stop-color="#156268"/>
</linearGradient>
<linearGradient id="paint51_linear" x1="546.009" y1="2067.55" x2="3257.71" y2="1864.02" gradientUnits="userSpaceOnUse">
<stop stop-color="#156268" stop-opacity="0.32"/>
<stop offset="1" stop-color="#156268"/>
</linearGradient>
<linearGradient id="paint52_linear" x1="550.336" y1="2070.06" x2="3272.67" y2="1864.85" gradientUnits="userSpaceOnUse">
<stop stop-color="#156268" stop-opacity="0.32"/>
<stop offset="1" stop-color="#156268"/>
</linearGradient>
<linearGradient id="paint53_linear" x1="554.702" y1="2073.02" x2="3287.75" y2="1866.05" gradientUnits="userSpaceOnUse">
<stop stop-color="#156268" stop-opacity="0.32"/>
<stop offset="1" stop-color="#156268"/>
</linearGradient>
<linearGradient id="paint54_linear" x1="559.061" y1="2075.98" x2="3302.8" y2="1867.24" gradientUnits="userSpaceOnUse">
<stop stop-color="#156268" stop-opacity="0.32"/>
<stop offset="1" stop-color="#156268"/>
</linearGradient>
<linearGradient id="paint55_linear" x1="563.522" y1="2079.44" x2="3317.95" y2="1868.83" gradientUnits="userSpaceOnUse">
<stop stop-color="#156268" stop-opacity="0.32"/>
<stop offset="1" stop-color="#156268"/>
</linearGradient>
<linearGradient id="paint56_linear" x1="568.035" y1="2083.22" x2="3333.15" y2="1870.68" gradientUnits="userSpaceOnUse">
<stop stop-color="#156268" stop-opacity="0.32"/>
<stop offset="1" stop-color="#156268"/>
</linearGradient>
<linearGradient id="paint57_linear" x1="572.618" y1="2087.32" x2="3348.43" y2="1872.79" gradientUnits="userSpaceOnUse">
<stop stop-color="#156268" stop-opacity="0.32"/>
<stop offset="1" stop-color="#156268"/>
</linearGradient>
<linearGradient id="paint58_linear" x1="577.25" y1="2091.74" x2="3363.77" y2="1875.16" gradientUnits="userSpaceOnUse">
<stop stop-color="#156268" stop-opacity="0.32"/>
<stop offset="1" stop-color="#156268"/>
</linearGradient>
<linearGradient id="paint59_linear" x1="581.946" y1="2096.45" x2="3379.17" y2="1877.75" gradientUnits="userSpaceOnUse">
<stop stop-color="#156268" stop-opacity="0.32"/>
<stop offset="1" stop-color="#156268"/>
</linearGradient>
<linearGradient id="paint60_linear" x1="586.705" y1="2101.49" x2="3394.62" y2="1880.63" gradientUnits="userSpaceOnUse">
<stop stop-color="#156268" stop-opacity="0.32"/>
<stop offset="1" stop-color="#156268"/>
</linearGradient>
<linearGradient id="paint61_linear" x1="591.508" y1="2106.81" x2="3410.13" y2="1883.73" gradientUnits="userSpaceOnUse">
<stop stop-color="#156268" stop-opacity="0.32"/>
<stop offset="1" stop-color="#156268"/>
</linearGradient>
<linearGradient id="paint62_linear" x1="596.371" y1="2112.41" x2="3425.7" y2="1887.07" gradientUnits="userSpaceOnUse">
<stop stop-color="#156268" stop-opacity="0.32"/>
<stop offset="1" stop-color="#156268"/>
</linearGradient>
<linearGradient id="paint63_linear" x1="601.284" y1="2118.31" x2="3441.31" y2="1890.66" gradientUnits="userSpaceOnUse">
<stop stop-color="#156268" stop-opacity="0.32"/>
<stop offset="1" stop-color="#156268"/>
</linearGradient>
<linearGradient id="paint64_linear" x1="606.25" y1="2124.46" x2="3456.97" y2="1894.46" gradientUnits="userSpaceOnUse">
<stop stop-color="#156268" stop-opacity="0.32"/>
<stop offset="1" stop-color="#156268"/>
</linearGradient>
<linearGradient id="paint65_linear" x1="611.261" y1="2130.85" x2="3472.7" y2="1898.47" gradientUnits="userSpaceOnUse">
<stop stop-color="#156268" stop-opacity="0.32"/>
<stop offset="1" stop-color="#156268"/>
</linearGradient>
<linearGradient id="paint66_linear" x1="616.315" y1="2137.5" x2="3488.44" y2="1902.69" gradientUnits="userSpaceOnUse">
<stop stop-color="#156268" stop-opacity="0.32"/>
<stop offset="1" stop-color="#156268"/>
</linearGradient>
<linearGradient id="paint67_linear" x1="621.422" y1="2144.38" x2="3504.24" y2="1907.12" gradientUnits="userSpaceOnUse">
<stop stop-color="#156268" stop-opacity="0.32"/>
<stop offset="1" stop-color="#156268"/>
</linearGradient>
<linearGradient id="paint68_linear" x1="626.558" y1="2151.49" x2="3520.08" y2="1911.75" gradientUnits="userSpaceOnUse">
<stop stop-color="#156268" stop-opacity="0.32"/>
<stop offset="1" stop-color="#156268"/>
</linearGradient>
<linearGradient id="paint69_linear" x1="631.745" y1="2158.8" x2="3535.95" y2="1916.55" gradientUnits="userSpaceOnUse">
<stop stop-color="#156268" stop-opacity="0.32"/>
<stop offset="1" stop-color="#156268"/>
</linearGradient>
<linearGradient id="paint70_linear" x1="636.97" y1="2166.33" x2="3551.88" y2="1921.55" gradientUnits="userSpaceOnUse">
<stop stop-color="#156268" stop-opacity="0.32"/>
<stop offset="1" stop-color="#156268"/>
</linearGradient>
<linearGradient id="paint71_linear" x1="642.23" y1="2174.07" x2="3567.82" y2="1926.74" gradientUnits="userSpaceOnUse">
<stop stop-color="#156268" stop-opacity="0.32"/>
<stop offset="1" stop-color="#156268"/>
</linearGradient>
<linearGradient id="paint72_linear" x1="647.529" y1="2181.99" x2="3583.82" y2="1932.1" gradientUnits="userSpaceOnUse">
<stop stop-color="#156268" stop-opacity="0.32"/>
<stop offset="1" stop-color="#156268"/>
</linearGradient>
<linearGradient id="paint73_linear" x1="652.858" y1="2190.1" x2="3599.85" y2="1937.62" gradientUnits="userSpaceOnUse">
<stop stop-color="#156268" stop-opacity="0.32"/>
<stop offset="1" stop-color="#156268"/>
</linearGradient>
<linearGradient id="paint74_linear" x1="658.223" y1="2198.37" x2="3615.88" y2="1943.29" gradientUnits="userSpaceOnUse">
<stop stop-color="#156268" stop-opacity="0.32"/>
<stop offset="1" stop-color="#156268"/>
</linearGradient>
<linearGradient id="paint75_linear" x1="663.62" y1="2206.8" x2="3631.97" y2="1949.12" gradientUnits="userSpaceOnUse">
<stop stop-color="#156268" stop-opacity="0.32"/>
<stop offset="1" stop-color="#156268"/>
</linearGradient>
<linearGradient id="paint76_linear" x1="669.041" y1="2215.41" x2="3648.09" y2="1955.11" gradientUnits="userSpaceOnUse">
<stop stop-color="#156268" stop-opacity="0.32"/>
<stop offset="1" stop-color="#156268"/>
</linearGradient>
<linearGradient id="paint77_linear" x1="674.502" y1="2224.18" x2="3664.22" y2="1961.24" gradientUnits="userSpaceOnUse">
<stop stop-color="#156268" stop-opacity="0.32"/>
<stop offset="1" stop-color="#156268"/>
</linearGradient>
<linearGradient id="paint78_linear" x1="680.001" y1="2233.21" x2="3680.39" y2="1967.62" gradientUnits="userSpaceOnUse">
<stop stop-color="#156268" stop-opacity="0.32"/>
<stop offset="1" stop-color="#156268"/>
</linearGradient>
<linearGradient id="paint79_linear" x1="685.508" y1="2242.21" x2="3696.58" y2="1973.99" gradientUnits="userSpaceOnUse">
<stop stop-color="#156268" stop-opacity="0.32"/>
<stop offset="1" stop-color="#156268"/>
</linearGradient>
<linearGradient id="paint80_linear" x1="691.024" y1="2251.33" x2="3712.79" y2="1980.48" gradientUnits="userSpaceOnUse">
<stop stop-color="#156268" stop-opacity="0.32"/>
<stop offset="1" stop-color="#156268"/>
</linearGradient>
</defs>
</svg>
