<svg width="985" height="3169" viewBox="0 0 985 3169" fill="none" xmlns="http://www.w3.org/2000/svg">
<path d="M233.361 1C287.89 66.8569 326.031 143.511 267.631 199.901C224.023 242.025 160.462 240.116 153.294 280.348C143.747 333.899 249.07 377.974 392.656 495.159C510.352 591.2 569.193 639.229 578.404 684.264C605.463 816.565 221.015 789.156 192.406 915.318C160.835 1054.58 606.299 1189.06 594.572 1329.16C589.411 1390.91 494.478 1464.91 52 1495.71M247.582 4.24227C298.576 68.5412 333.856 143.666 275.128 198.845C231.004 240.307 167.826 238.785 159.948 278.499C157.367 291.644 161.671 304.126 171.695 317.508C202.794 358.758 291.258 406.155 398.032 494.603C513.012 589.85 569.773 637.104 578.063 681.598C602.312 811.718 225.904 785.515 197.817 910.574C180.193 990.484 316.25 1067.48 429.481 1145C517.977 1205.06 595.784 1264.07 587.811 1324.23C584.2 1351.53 562.796 1381.28 502.197 1409.02C427.853 1443.15 294.454 1474.39 65.8727 1495M261.847 7.50843C309.197 70.2641 341.678 143.821 282.657 197.777C238.027 238.58 175.23 237.41 166.651 276.653C163.785 289.744 167.738 302.219 177.426 315.62C207.706 357.534 298.119 405.497 403.401 494.024C515.744 588.456 570.369 634.953 577.728 678.903C599.167 806.841 230.321 781.77 203.229 905.82C185.426 987.328 324.64 1065.09 433.627 1142.58C518.598 1202.97 591.822 1260.39 581.048 1319.3C576.127 1346.2 553.758 1375.45 494.438 1403.29C421.61 1437.63 293.123 1470.11 79.7655 1494.28M276.038 10.7442C319.906 72.0109 349.476 143.959 290.178 196.707C245.032 236.848 182.599 236.06 173.328 274.79C170.166 287.867 173.83 300.264 183.167 313.735C212.639 356.272 304.986 404.818 408.779 493.459C518.375 587.057 570.959 632.789 577.366 676.2C596.042 801.937 235.029 778.104 208.64 901.077C190.804 984.212 333.166 1062.47 437.753 1140.19C519.306 1200.75 587.829 1256.79 574.25 1314.42C568.058 1340.89 544.725 1369.65 486.672 1397.59C415.386 1432.12 291.802 1465.81 93.6373 1493.58M290.256 13.9981C330.578 73.7474 357.301 144.115 297.691 195.634C252.018 235.111 189.94 234.701 180.017 272.93C176.62 285.954 179.923 298.31 188.901 311.848C217.554 355.081 311.845 404.138 414.161 492.884C521.073 585.643 571.553 630.615 577.053 673.51C592.926 797.002 239.741 774.427 214.11 896.35C196.254 981.104 341.714 1059.86 441.951 1137.74C520.082 1198.44 583.852 1253.18 567.575 1309.48C560.01 1335.63 535.734 1363.85 478.964 1391.87C409.216 1426.61 290.572 1461.53 107.562 1492.87M304.485 17.2441C341.247 75.4837 365.097 144.253 305.211 194.564C259.015 233.366 197.307 233.35 186.694 271.067C183.038 284.054 186.011 296.365 194.642 309.963C222.471 353.837 318.717 403.439 419.523 492.337C523.765 584.206 572.141 628.417 576.735 670.83C589.799 792.022 244.468 770.766 219.52 891.607C201.554 977.967 350.165 1057.2 446.071 1135.3C520.777 1196.15 579.762 1249.63 560.802 1304.52C551.889 1330.33 526.632 1357.88 471.198 1386.13C402.892 1420.89 289.203 1457.17 121.434 1492.12M318.713 20.4996C351.909 77.2166 372.895 144.389 312.722 193.49C265.963 231.618 204.642 232.011 193.372 269.203C189.462 282.133 192.098 294.43 200.374 308.074C227.386 352.645 325.581 402.736 424.909 491.74C526.474 582.75 572.743 626.212 576.354 668.121C586.717 787.03 249.167 767.096 224.858 886.865C206.976 974.883 358.634 1054.56 450.164 1132.89C521.42 1193.87 575.588 1246.09 553.976 1299.63C543.693 1325.11 517.514 1352.09 463.376 1380.44C396.624 1415.4 287.814 1452.89 135.254 1491.45M332.94 23.7567C362.58 78.9538 380.682 144.492 320.244 192.421C272.943 229.902 211.969 230.661 200.06 267.343C195.861 280.272 198.184 292.496 206.107 306.187C232.269 351.457 332.447 402.026 430.278 491.174C529.185 581.286 573.347 623.998 576.079 665.443C583.725 781.977 254.005 763.41 230.313 882.113C212.428 971.765 367.155 1051.89 454.346 1130.45C522.163 1191.56 571.473 1242.52 547.265 1294.71C535.589 1319.86 508.514 1346.24 455.66 1374.71C390.433 1409.85 286.54 1448.57 149.173 1490.72M347.16 26.9992C373.25 80.689 388.455 144.644 327.764 191.349C279.944 228.146 219.274 229.314 206.737 265.479C202.244 278.384 204.261 290.558 211.855 304.314C237.206 350.294 339.316 401.303 435.639 490.592C531.962 579.882 573.956 621.761 575.726 662.742C580.673 776.95 258.741 759.794 235.752 877.377C217.864 968.664 375.651 1049.22 458.512 1128.04C522.843 1189.22 567.22 1239.01 540.481 1289.78C527.398 1314.63 499.448 1340.41 447.848 1368.99C384.166 1404.26 285.173 1444.25 163 1490.02M361.387 30.2548C383.91 82.4222 396.225 144.764 335.278 190.266C286.908 226.37 226.585 227.979 213.424 263.618C208.664 276.517 210.343 288.633 217.577 302.424C242.109 349.143 346.179 400.558 441.028 490.019C534.621 578.337 574.56 619.503 575.392 660.046C577.672 771.849 263.528 756.137 241.162 872.633C223.283 965.547 384.103 1046.53 462.658 1125.62C523.517 1186.93 562.934 1235.49 533.73 1284.81C519.205 1309.35 490.395 1334.53 440.126 1363.24C377.962 1398.72 283.894 1439.9 176.92 1489.24M375.617 33.5019C394.581 84.1595 403.978 144.879 342.799 189.197C293.872 224.639 233.872 226.629 220.102 261.756C215.072 274.582 216.418 286.708 223.32 300.54C247.003 347.991 353.044 399.815 446.407 489.455C537.366 576.784 575.188 617.24 575.056 657.362C574.718 766.731 268.336 752.487 246.573 867.891C228.71 962.445 392.55 1043.82 466.804 1123.16C524.252 1184.58 558.658 1231.95 527.003 1279.95C511.018 1304.19 481.39 1328.78 432.413 1357.57C371.716 1393.22 282.579 1435.58 190.794 1488.57M389.835 36.7546C405.253 85.8949 411.74 144.996 350.311 188.123C300.833 222.84 241.155 225.287 226.79 259.894C221.458 272.727 222.49 284.79 229.05 298.661C251.897 346.838 359.915 399.049 451.788 488.879C540.106 575.249 575.809 614.963 574.72 654.676C571.798 761.564 273.151 748.848 251.987 863.136C234.089 959.327 400.945 1041.07 470.88 1120.77C524.861 1182.27 554.216 1228.45 520.195 1275.03C502.723 1298.95 472.295 1322.94 424.599 1351.86C365.478 1387.69 281.245 1431.33 204.647 1487.85M404.064 39.9997C415.922 87.6301 419.484 145.097 357.831 187.052C307.762 221.153 248.415 223.95 233.467 258.03C227.854 270.831 228.557 282.883 234.793 296.765C256.764 345.742 366.787 398.273 457.163 488.28C542.86 573.697 576.467 612.62 574.389 651.97C568.913 756.374 277.977 745.202 257.397 858.392C239.563 956.236 409.411 1038.33 475.07 1118.34C525.58 1179.85 549.842 1224.87 513.477 1270.09C494.496 1293.69 463.291 1317.11 416.879 1346.14C359.231 1382.14 279.935 1427.02 218.555 1487.12M418.29 43.2566C426.628 89.3877 427.202 145.181 365.351 185.982C314.736 219.304 255.678 222.604 240.144 256.168C234.227 268.942 234.628 280.966 240.525 294.878C261.634 344.639 373.652 397.485 462.535 487.736C545.614 572.146 577.103 610.36 574.055 649.276C566.087 751.159 282.813 741.559 262.807 853.65C245.008 953.138 417.834 1035.55 479.206 1115.92C526.228 1177.51 545.378 1221.29 506.711 1265.17C486.215 1288.45 454.234 1311.28 409.115 1340.43C353.035 1376.64 278.633 1422.73 232.469 1486.44M432.509 46.5103C437.251 91.1111 434.955 145.296 372.864 184.909C321.673 217.597 262.924 221.253 246.833 254.307C240.622 267.057 240.687 279.057 246.258 292.991C266.493 343.542 380.543 396.682 467.904 487.168C548.396 570.536 577.757 608.039 573.719 646.591C563.313 745.912 287.658 737.929 268.219 848.907C250.436 950.035 426.255 1032.75 483.345 1113.5C526.865 1175.09 540.893 1217.68 499.909 1260.24C477.873 1283.16 445.15 1305.44 401.31 1334.68C346.755 1371.08 277.27 1418.39 246.306 1485.71M446.739 49.7561C447.922 92.8471 442.689 145.362 380.385 183.839C328.594 215.832 270.14 219.893 253.519 252.413C247.005 265.136 246.755 277.118 252.008 291.075C271.366 342.427 387.455 395.841 473.293 486.562C551.195 568.898 578.444 605.671 573.395 643.865C560.588 740.635 292.524 734.293 273.63 844.163C255.921 946.947 434.674 1029.91 487.492 1111.07C527.568 1172.67 536.383 1214.04 493.194 1255.34C469.56 1277.88 436.139 1299.64 393.61 1328.97C340.578 1365.55 275.995 1414.12 260.232 1484.99M460.966 53.0113C458.593 94.5824 450.411 145.435 387.895 182.808C335.531 214.081 277.375 218.614 260.198 250.625C253.38 263.322 252.792 275.289 257.742 289.22C276.178 341.349 394.326 395.032 478.653 486.024C553.991 567.269 579.136 603.359 573.053 641.199C557.929 735.342 297.389 730.657 279.041 839.419C261.406 943.858 443.094 1027.03 491.63 1108.65C528.238 1170.21 531.85 1210.37 486.432 1250.41C461.282 1272.58 427.092 1293.81 385.844 1323.26C334.337 1360.03 274.692 1409.79 274.111 1484.3M475.196 56.2585C469.254 96.3172 458.146 145.459 395.417 181.696C342.469 212.212 284.597 217.193 266.876 248.72C259.755 261.39 258.849 273.348 263.474 287.333C280.993 340.296 401.22 394.176 484.033 485.45C556.796 565.645 579.85 601 572.719 638.505C555.325 730.034 302.273 727.028 284.451 834.677C266.823 940.71 451.489 1024.12 495.728 1106.22C528.921 1167.73 527.267 1206.66 479.629 1245.48C452.908 1267.26 418.003 1287.98 378.058 1317.48C328.07 1354.45 273.329 1405.41 287.96 1483.52M489.414 59.5112C479.925 98.0525 465.85 145.56 402.929 180.622C349.377 210.497 291.824 215.792 273.549 246.876C266.125 259.519 264.891 271.466 269.202 285.465C285.832 339.27 408.122 393.332 489.409 484.894C559.617 564.002 580.573 598.653 572.392 635.789C552.786 724.719 307.159 723.397 289.862 829.933C272.375 937.683 459.965 1021.19 499.914 1103.8C529.613 1165.19 522.745 1202.95 472.903 1240.57C444.609 1261.92 408.974 1282.17 370.323 1311.82C321.864 1348.99 272.034 1401.17 301.868 1482.87M503.643 62.7576C490.615 99.7944 473.555 145.619 410.455 179.532C356.312 208.638 299.014 214.448 280.252 244.955C272.509 257.556 270.94 269.511 274.959 283.519C290.596 338.137 415.06 392.389 494.793 484.266C562.477 562.25 581.348 596.222 572.061 633.084C550.324 719.382 312.063 719.772 295.289 825.129C277.827 934.521 468.425 1018.16 504.057 1101.32C530.322 1162.62 518.208 1199.14 466.155 1235.59C436.27 1256.51 399.95 1276.3 362.579 1306.04C315.632 1343.4 270.722 1396.8 315.75 1482.12M517.87 66.0132C501.266 101.525 481.276 145.615 417.973 178.471C363.216 206.856 306.236 213.101 286.919 243.132C278.862 255.703 276.966 267.647 280.729 281.685C295.407 337.136 422.062 391.517 500.211 483.743C565.363 560.591 582.166 593.9 571.754 630.482C547.934 714.009 316.969 716.136 300.686 820.436C283.346 931.496 476.895 1015.21 508.178 1098.95C531.034 1160.12 513.618 1195.41 459.415 1230.73C427.95 1251.21 390.922 1270.55 354.847 1300.4C309.432 1337.95 269.435 1392.56 329.664 1481.44M532.088 69.2673C511.927 103.259 488.963 145.702 425.494 177.401C370.137 205.091 313.402 211.696 293.614 241.285C285.225 253.822 283.007 265.766 286.401 279.792C300.099 336.082 428.9 390.602 505.509 483.168C568.173 558.837 582.897 591.524 571.361 627.739C545.523 708.719 321.861 712.519 306.046 815.69C288.764 928.391 485.349 1012.16 512.294 1096.53C531.765 1157.54 509.038 1191.61 452.591 1225.8C419.543 1245.82 381.812 1264.73 347.016 1294.67C303.131 1332.43 268.047 1388.24 343.476 1480.73M546.331 72.4619C522.611 104.944 496.7 145.681 433.019 176.277C377.063 203.229 320.569 210.323 300.282 239.418C291.576 251.903 289.032 263.869 292.155 277.899C304.86 335.035 435.88 389.659 510.904 482.618C571.07 557.138 583.772 589.184 571.051 625.072C543.324 703.408 326.807 708.894 311.51 810.939C294.319 925.31 493.925 1009.08 516.434 1094.1C532.541 1154.92 504.456 1187.78 445.808 1220.91C411.181 1240.45 372.752 1258.96 339.238 1288.98C296.879 1326.95 266.711 1383.96 357.381 1480.05M560.544 75.7686C533.267 106.731 504.356 145.76 440.515 175.254C383.957 201.402 327.738 208.94 306.957 237.598C297.921 250.038 295.044 262.013 297.875 276.052C309.6 333.95 442.844 388.69 516.281 482.009C573.987 555.325 584.614 586.772 570.715 622.343C541.106 698.082 331.734 705.253 316.888 806.198C299.824 922.217 502.515 1005.99 520.57 1091.68C533.309 1152.28 499.916 1183.93 439.066 1215.94C402.842 1234.99 363.724 1253.09 331.487 1283.22C290.668 1321.35 265.395 1379.59 371.24 1479.23M574.769 78.992C543.943 108.447 512.051 145.739 448.042 174.164C390.861 199.545 334.906 207.525 313.651 235.674C304.286 248.069 301.085 260.056 303.633 274.106C314.3 332.942 449.85 387.689 521.665 481.424C576.912 553.525 585.497 584.403 570.384 619.638C538.989 692.816 336.658 701.634 322.327 801.463C305.359 919.132 511.145 1002.9 524.709 1089.24C534.197 1149.66 495.371 1180.08 432.301 1211.02C394.503 1229.57 354.669 1247.3 323.733 1277.51C284.423 1315.88 264.074 1375.29 385.137 1478.58M588.991 82.2682C554.599 110.201 519.753 145.774 455.51 173.101C397.725 197.72 342.029 206.129 320.286 233.82C310.591 246.171 307.053 258.176 309.322 272.228C318.981 331.928 456.853 386.698 527.04 480.869C579.859 551.719 586.411 582.074 570.046 616.963C536.92 687.561 341.621 697.98 327.731 796.75C310.926 916.088 519.866 999.789 528.878 1086.86C535.105 1147.04 490.853 1176.24 425.51 1206.13C386.131 1224.16 345.599 1241.52 315.946 1271.81C278.171 1310.4 262.726 1371.01 398.966 1477.88M603.218 85.5249C565.264 111.958 527.42 145.78 463.086 172.057C404.682 195.899 349.229 204.789 327.028 231.986C316.996 244.279 313.12 256.314 315.118 270.369C323.673 330.907 463.912 385.69 532.425 480.317C582.832 549.932 587.38 579.772 569.729 614.284C534.893 682.342 346.565 694.399 333.149 791.977C316.46 912.97 528.577 996.672 532.994 1084.4C535.999 1144.36 486.298 1172.3 418.773 1201.18C377.857 1218.7 336.584 1235.69 308.241 1266.08C271.974 1304.87 261.464 1366.69 412.894 1477.15M617.448 88.7707C575.956 113.689 535.109 145.779 470.559 171.006C411.538 194.062 356.329 203.355 333.629 230.135C323.271 242.373 319.058 254.427 320.771 268.504C328.254 329.878 470.899 384.64 537.729 479.754C585.824 548.073 588.303 577.446 569.378 611.573C532.927 677.159 351.509 690.817 338.562 787.223C322.046 909.887 537.41 993.522 537.15 1081.98C536.957 1141.75 481.776 1168.4 412.017 1196.26C369.493 1213.22 327.547 1229.9 300.448 1260.36C265.746 1299.37 260.116 1362.37 426.768 1476.43M631.658 92.0534C586.6 115.449 542.754 145.755 478.094 169.927C418.456 192.196 363.514 201.92 340.34 228.268C329.636 240.447 325.094 252.531 326.537 266.613C332.912 328.835 478.029 383.529 543.121 479.18C588.824 546.15 589.347 575.173 569.043 608.887C531.011 672.032 356.486 687.156 343.974 782.479C327.635 906.76 546.263 990.419 541.29 1079.58C537.961 1139.13 477.267 1164.53 405.268 1191.37C361.172 1207.82 318.517 1224.13 292.71 1254.67C259.534 1293.9 258.791 1358.09 440.633 1475.75M645.895 95.2691C597.274 117.132 550.485 145.711 485.624 168.816C425.362 190.286 370.67 200.469 347.044 226.38C336.003 238.501 331.122 250.615 332.295 264.7C337.564 327.77 485.184 382.426 548.533 478.559C591.844 544.299 590.368 572.907 568.705 606.169C529.133 666.95 361.452 683.526 349.383 777.735C333.217 903.732 555.169 987.344 545.434 1077.13C539.005 1136.47 472.77 1160.57 398.51 1186.42C352.854 1202.32 309.488 1218.31 284.956 1248.92C253.312 1288.42 257.489 1353.75 454.524 1475M660.122 98.5253C607.939 118.888 558.173 145.678 493.136 167.743C432.262 188.406 377.823 198.995 353.732 224.519C342.335 236.577 337.118 248.71 338.022 262.833C342.164 326.746 492.354 381.316 553.89 478.032C594.887 542.443 591.415 570.734 568.36 603.514C527.273 661.916 366.427 679.909 354.794 772.992C338.816 900.642 564.145 984.319 549.572 1074.71C540.036 1133.85 468.295 1156.64 391.727 1181.49C344.512 1196.83 300.446 1212.51 277.176 1243.2C247.086 1282.88 256.152 1349.43 468.376 1474.33M674.362 101.774C618.598 120.632 565.875 145.638 500.696 166.684C439.201 186.536 384.987 197.6 360.468 222.672C348.738 234.662 343.179 246.835 343.828 260.943C346.805 325.689 499.653 380.11 559.335 477.452C598.04 540.53 592.569 568.557 568.088 600.825C525.437 656.954 371.392 676.289 360.205 768.249C344.41 897.572 573.089 981.34 553.7 1072.28C541.092 1131.35 463.756 1152.69 385.001 1176.58C336.229 1191.36 291.439 1206.73 269.442 1237.49C240.908 1277.4 254.863 1345.13 482.291 1473.58M688.569 105.025C629.28 122.361 573.548 145.578 508.168 165.6C446.057 184.622 392.092 196.145 367.116 220.8C355.042 232.721 349.142 244.933 349.53 259.048C351.352 324.629 506.874 378.96 564.686 476.869C601.123 538.598 593.642 566.403 567.725 598.122C523.614 652.05 376.397 672.67 365.615 763.506C350.036 894.533 582.146 978.359 557.856 1069.86C542.203 1128.82 459.286 1148.74 378.229 1171.65C327.899 1185.87 282.413 1200.94 261.671 1231.77C234.69 1271.9 253.537 1340.8 496.165 1472.86M702.8 108.271C639.931 124.136 581.244 145.482 515.69 164.53C452.953 182.72 399.231 194.69 373.814 218.943C361.39 230.78 355.147 243.031 355.292 257.168C355.92 323.574 514.224 377.756 570.074 476.307C604.281 536.664 594.768 564.328 567.412 595.432C521.808 647.205 381.385 669.045 371.027 758.763C355.662 891.462 591.175 975.447 561.974 1067.43C543.287 1126.32 454.783 1144.81 371.417 1166.72C319.542 1180.37 273.339 1195.14 253.873 1226.04C228.473 1266.41 252.195 1336.51 510.018 1472.15M717.028 111.527C650.613 125.831 588.92 145.456 523.211 163.459C459.852 180.806 406.375 193.212 380.512 217.084C367.738 228.839 361.163 241.131 361.035 255.282C360.424 322.49 521.579 376.499 575.417 475.72C607.414 534.711 595.857 562.275 567.041 592.726C519.996 642.422 386.382 665.422 376.438 754.019C361.333 888.335 600.242 972.588 566.122 1065.01C544.403 1123.86 450.332 1140.84 364.693 1161.81C311.272 1174.9 264.352 1189.36 246.149 1220.34C222.285 1260.92 250.877 1332.2 523.921 1471.4M731.245 114.781C661.245 127.557 596.606 145.39 530.722 162.387C466.753 178.883 413.527 191.705 387.162 215.17C374.037 226.842 367.095 239.233 366.747 253.314C364.961 321.352 529.059 375.157 580.804 475.082C610.627 532.76 597.043 560.282 566.707 590.031C518.163 637.712 391.388 661.803 381.849 749.276C367.009 885.267 609.314 969.786 570.282 1062.54C545.536 1121.33 445.855 1136.8 357.941 1156.84C302.982 1169.37 255.349 1183.53 238.401 1214.56C216.078 1255.39 249.572 1327.83 537.81 1470.66M745.474 118.026C671.953 129.303 604.304 145.315 538.271 161.324C473.681 176.967 420.684 190.287 393.856 213.355C380.401 224.949 373.111 237.323 372.488 251.505C369.482 320.35 536.588 373.936 586.167 474.567C613.857 530.779 598.143 558.297 566.375 587.326C516.324 633.065 396.404 658.143 387.261 744.523C372.677 882.184 618.376 967.013 574.387 1060.19C546.591 1119.05 441.397 1132.93 351.17 1151.94C294.674 1163.87 246.326 1177.76 230.622 1208.87C209.899 1249.94 248.235 1323.55 551.663 1469.98M759.701 121.282C682.576 131.026 611.997 145.228 545.754 160.242C480.556 175.025 427.789 188.799 400.505 211.483C386.692 222.981 379.068 235.407 378.201 249.611C373.939 319.243 544.221 372.6 591.542 474.011C617.12 528.84 599.282 556.4 566.036 584.65C514.462 628.466 401.399 654.563 392.672 739.779C378.376 879.109 627.468 964.291 578.532 1057.74C547.701 1116.64 436.964 1128.92 344.401 1147.04C286.371 1158.4 237.324 1172 222.866 1203.17C203.718 1244.47 246.911 1319.26 565.533 1469.28M906.459 167.725C766.677 188.756 636.634 231.183 551.022 273.718C382.584 357.431 327.275 346.972 335.389 427.116C344.286 515.037 353.268 560 442.287 663.185C492.556 721.457 558.778 770.057 577.057 815.047C602.071 876.615 550.682 908.574 485.023 951.342C459.736 967.812 436.846 983.137 431.749 1003.82C423.692 1036.47 458.05 1055.91 431.383 1075.87C380.444 1113.99 307.336 1183.71 238.776 1217.56C222.913 1225.44 208.819 1233.23 199.433 1242.38C161.06 1279.73 200.063 1342.73 671.533 1606.5M910.544 169.246C774.946 190.809 646.521 233.299 557.851 275.156C381.531 358.392 316.028 346.042 322.789 425.093C330.139 511.411 350.437 558.598 443.558 660.571C496.59 718.613 563.661 767.212 580.66 812.186C603.886 873.668 546.776 904.617 480.028 946.929C454.112 963.351 431.151 978.94 426.824 1000.03C419.925 1033.7 457.504 1053.55 431.457 1074.16C381.827 1113.46 309.336 1186.17 239.629 1220.53C223.693 1228.44 209.393 1236.15 199.762 1245.17C160.195 1282.26 198.207 1344.57 673.837 1612.85M914.609 170.76C783.204 192.858 656.412 235.393 564.657 276.599C380.49 359.302 304.763 345.095 310.149 423.058C316.003 507.775 347.583 557.234 444.878 657.96C500.686 715.763 568.6 764.382 584.31 809.38C605.749 870.732 542.899 900.7 475.07 942.57C448.525 958.943 425.511 974.768 421.947 996.296C416.219 1030.96 456.997 1051.23 431.539 1072.51C383.228 1112.99 311.336 1188.67 240.517 1223.55C224.503 1231.48 209.996 1239.12 200.116 1248.03C159.317 1284.84 196.338 1346.44 676.142 1619.24M918.724 172.244C791.487 194.848 666.329 237.429 571.487 277.992C379.513 360.163 293.516 344.153 297.526 421.038C301.866 504.14 344.746 555.809 446.099 655.332C504.69 712.867 573.455 761.517 587.869 806.485C607.498 867.832 538.97 896.746 470.013 938.151C442.865 954.493 419.782 970.54 416.978 992.511C412.43 1028.18 456.388 1048.87 431.587 1070.82C384.601 1112.42 313.313 1191.14 241.359 1226.54C225.289 1234.49 210.556 1242.05 200.448 1250.84C158.407 1287.39 194.435 1348.29 678.419 1625.6M922.798 173.804C799.739 196.962 676.25 239.531 578.295 279.468C378.462 360.961 282.274 343.201 284.906 419.009C287.754 500.457 341.918 554.353 447.372 652.707C508.749 709.965 578.357 758.676 591.465 803.687C609.308 864.904 535.005 892.773 465.012 933.758C437.219 950.037 414.111 966.328 412.059 988.74C408.704 1025.4 455.829 1046.51 431.655 1069.14C385.986 1111.89 315.298 1193.63 242.235 1229.54C226.086 1237.51 211.184 1245 200.79 1253.66C157.509 1289.93 192.534 1350.13 680.716 1631.94M926.843 175.314C807.997 199.011 686.197 241.576 585.101 280.91C377.472 361.721 271.038 342.263 272.285 416.98C273.646 496.874 339.088 552.865 448.642 650.093C512.804 707.039 583.238 755.831 595.072 800.849C611.129 861.969 531.079 888.81 460.01 929.365C431.582 945.583 408.443 962.105 407.137 984.979C404.986 1022.63 455.266 1044.17 431.721 1067.46C387.359 1111.36 317.291 1196.11 243.097 1232.54C226.886 1240.55 211.732 1247.94 201.136 1256.5C156.614 1292.46 190.651 1351.99 683.008 1638.34M930.966 176.844C816.268 201.052 696.158 243.601 591.917 282.354C376.492 362.439 259.811 341.326 259.665 414.949C259.513 493.228 336.254 551.353 449.885 647.46C516.844 704.087 588.113 752.971 598.64 797.999C612.959 859.002 527.152 884.846 455.009 924.972C425.934 941.168 402.79 957.864 402.21 981.195C401.277 1019.83 454.709 1041.81 431.791 1065.77C388.741 1110.76 319.28 1198.58 243.974 1235.52C227.687 1243.54 212.316 1250.85 201.484 1259.3C155.694 1295 188.771 1353.83 685.299 1644.7M935.051 178.363C824.526 203.102 706.123 245.617 598.688 283.776C375.532 363.13 248.591 340.369 247.045 412.92C245.412 489.58 333.418 549.808 451.223 644.864C520.933 701.148 593.057 750.087 602.276 795.168C614.77 856.107 523.237 880.843 449.998 920.576C420.318 936.676 397.13 953.654 397.291 977.423C397.578 1017.02 454.152 1039.45 431.857 1064.1C390.103 1110.27 321.272 1201.07 244.834 1238.53C228.488 1246.58 212.903 1253.8 201.821 1262.14C154.824 1297.52 186.874 1355.69 687.594 1651.08M939.132 179.893C832.793 205.153 716.112 247.617 605.542 285.231C374.578 363.791 237.376 339.425 234.435 410.85C231.326 485.948 330.585 548.253 452.454 642.239C524.991 698.169 597.946 747.287 605.859 792.377C616.577 853.222 519.296 876.93 444.982 916.234C414.67 932.262 391.46 949.475 392.328 973.695C393.876 1014.27 453.54 1037.13 431.884 1062.45C391.421 1109.75 323.218 1203.58 245.676 1241.53C229.252 1249.6 213.451 1256.74 202.14 1264.96C153.898 1300.01 184.956 1357.56 689.85 1657.45M943.218 181.403C841.051 207.203 726.1 249.618 612.398 286.676C373.651 364.426 226.183 338.476 221.8 408.871C217.24 482.316 327.701 546.652 453.725 639.614C529.049 695.189 602.849 744.436 609.478 789.487C618.419 850.249 515.35 872.885 439.994 911.79C409.048 927.747 385.823 945.173 387.451 969.88C390.192 1011.4 453.012 1034.74 431.994 1060.72C392.845 1109.11 325.254 1206.02 246.572 1244.51C230.079 1252.61 214.047 1259.64 202.552 1267.78C153.073 1302.5 183.174 1359.41 692.222 1663.81M947.304 182.923C849.32 209.255 736.106 251.601 619.167 288.108C372.732 365.041 214.99 337.537 209.19 406.844C203.169 478.676 324.89 545.059 454.997 637C533.114 692.19 607.764 741.587 613.086 786.649C620.251 847.316 511.467 868.879 434.997 907.387C403.415 923.283 380.171 940.933 382.533 966.109C386.504 1008.61 452.446 1032.37 432.063 1059.04C394.227 1108.63 327.242 1208.49 247.438 1247.5C230.886 1255.63 214.665 1262.56 202.837 1270.59C152.087 1305.03 181.187 1361.24 694.444 1670.16M951.388 184.443C857.577 211.304 746.124 253.566 625.985 289.543C371.839 365.631 203.804 336.601 196.569 404.815C189.108 475.029 322.021 543.44 456.278 634.378C537.17 689.177 612.663 738.747 616.682 783.808C622.081 844.384 507.533 864.903 429.984 902.992C397.799 918.824 374.52 936.683 377.602 962.336C382.829 1005.75 451.866 1030.01 432.13 1057.36C395.537 1108.07 329.237 1210.97 248.312 1250.5C231.642 1258.64 215.238 1265.51 203.207 1273.41C151.216 1307.54 179.322 1363.09 696.772 1676.53M955.473 185.962C865.846 213.356 756.148 255.555 632.792 290.985C370.943 366.198 192.642 335.66 183.952 402.775C175.053 471.405 319.165 541.781 457.551 631.753C541.218 686.162 617.567 735.939 620.29 780.969C623.923 841.453 503.603 860.917 424.984 898.599C392.137 914.352 368.873 932.422 372.693 958.567C379.161 1002.91 451.311 1027.61 432.209 1055.68C396.896 1107.52 331.232 1213.46 249.188 1253.49C232.507 1261.67 215.84 1268.44 203.557 1276.24C150.33 1310.04 177.45 1364.95 699.071 1682.91M959.556 187.481C874.106 215.394 766.186 257.524 639.588 292.424C370.06 366.745 181.485 334.731 171.325 400.765C161.016 467.784 316.283 540.135 458.82 629.138C545.269 683.126 622.49 733.049 623.886 778.127C625.76 838.532 499.682 856.889 419.982 894.205C386.504 909.876 363.225 928.16 367.763 954.792C375.474 1000.06 450.711 1025.29 432.259 1053.98C398.202 1107 333.208 1215.93 250.039 1256.49C233.271 1264.69 216.402 1271.36 203.9 1279.02C149.398 1312.47 175.549 1366.75 701.354 1689.25M963.641 189.001C882.374 217.447 776.245 259.456 646.426 293.864C369.203 367.279 170.339 333.805 158.705 398.736C146.976 464.175 313.398 538.469 460.09 626.524C549.313 680.088 627.405 730.234 627.493 775.288C627.601 835.602 495.758 852.883 414.98 889.812C380.863 905.399 357.581 923.89 362.83 951.072C371.787 997.249 450.157 1022.99 432.323 1052.35C399.546 1106.47 335.191 1218.45 250.9 1259.53C234.073 1267.76 216.991 1274.35 204.23 1281.92C148.5 1315.01 173.665 1368.64 703.696 1695.62M967.726 190.52C890.623 219.493 786.243 261.426 653.233 295.306C368.349 367.803 159.197 332.902 146.085 396.706C132.973 460.51 310.508 536.778 461.36 623.909C553.359 677.039 632.344 727.37 631.1 772.449C629.45 832.684 491.836 848.866 409.97 885.416C375.233 900.924 351.934 919.628 357.925 947.249C368.127 994.338 449.553 1020.57 432.406 1050.62C400.896 1105.87 337.237 1220.9 251.789 1262.47C234.883 1270.72 217.587 1277.22 204.578 1284.71C147.607 1317.5 171.77 1370.5 705.944 1702.02M971.81 192.039C898.895 221.567 796.355 263.393 660.052 296.74C367.507 368.317 148.07 331.98 133.459 394.696C118.941 456.989 307.598 535.125 462.627 621.304C557.387 674.018 637.245 724.528 634.697 769.607C631.3 829.756 487.923 844.851 404.971 881.012C369.594 896.436 346.292 915.346 353.044 943.487C364.495 991.477 448.992 1018.26 432.512 1048.94C402.262 1105.33 339.204 1223.36 252.69 1265.48C235.718 1273.75 218.21 1280.14 204.957 1287.58C146.743 1320.03 169.912 1372.41 708.263 1708.43M975.894 193.56C907.158 223.597 806.464 265.373 666.858 298.183C366.68 368.817 136.956 331.086 120.844 392.647C104.946 453.371 304.692 533.378 463.9 618.68C561.434 670.928 642.242 721.714 638.293 766.81C633.247 826.855 484.009 840.806 399.97 876.62C363.962 891.963 340.637 911.074 348.076 939.704C360.776 988.596 448.373 1015.86 432.539 1047.26C403.545 1104.79 341.215 1225.87 253.523 1268.48C236.479 1276.78 218.761 1283.07 205.233 1290.34C145.776 1322.44 167.954 1374.2 710.494 1714.74M979.978 195.079C915.425 225.648 816.509 267.278 673.687 299.576C365.855 369.304 125.862 330.195 108.22 390.627C90.9432 449.815 301.778 531.658 465.155 616.039C565.449 667.838 647.106 718.852 641.881 763.922C635.062 823.939 480.033 836.676 394.968 872.226C358.292 887.477 334.995 906.792 343.156 935.932C357.104 985.725 447.747 1013.48 432.609 1045.57C404.82 1104.16 343.17 1228.3 254.352 1271.45C237.239 1279.77 219.302 1285.96 205.587 1293.15C144.83 1324.85 166.073 1376.04 712.787 1721.09M984.063 196.599C923.686 227.688 826.595 269.229 680.483 301.059C365.047 369.774 114.765 329.316 95.5713 388.59C65.4611 481.651 662.581 642.717 645.479 761.081C633.098 846.953 308.787 833.925 338.236 932.161C353.427 982.843 447.185 1011.14 432.677 1043.89C406.186 1103.7 345.162 1230.8 255.263 1274.46C161.893 1319.8 39.9681 1299.06 715.123 1727.47M182.361 1442C236.89 1507.86 275.031 1584.51 216.631 1640.9C173.023 1683.02 109.462 1681.12 102.294 1721.35C92.7471 1774.9 198.07 1818.97 341.656 1936.16C459.352 2032.2 518.193 2080.23 527.404 2125.26C554.463 2257.56 170.015 2230.16 141.406 2356.32C109.835 2495.58 555.299 2630.06 543.572 2770.16C538.411 2831.91 443.478 2905.91 1 2936.71M196.582 1445.24C247.576 1509.54 282.856 1584.67 224.128 1639.84C180.004 1681.31 116.826 1679.78 108.948 1719.5C106.367 1732.64 110.671 1745.13 120.695 1758.51C151.794 1799.76 240.258 1847.15 347.032 1935.6C462.012 2030.85 518.773 2078.1 527.063 2122.6C551.312 2252.72 174.904 2226.52 146.817 2351.57C129.193 2431.48 265.25 2508.48 378.481 2586C466.977 2646.06 544.784 2705.07 536.811 2765.23C533.2 2792.53 511.796 2822.28 451.197 2850.02C376.853 2884.15 243.454 2915.39 14.8727 2936M210.847 1448.51C258.197 1511.26 290.678 1584.82 231.657 1638.78C187.027 1679.58 124.23 1678.41 115.651 1717.65C112.785 1730.74 116.738 1743.22 126.426 1756.62C156.706 1798.53 247.119 1846.5 352.401 1935.02C464.744 2029.46 519.369 2075.95 526.728 2119.9C548.167 2247.84 179.321 2222.77 152.229 2346.82C134.426 2428.33 273.64 2506.09 382.627 2583.58C467.598 2643.97 540.822 2701.39 530.048 2760.3C525.127 2787.2 502.758 2816.45 443.438 2844.29C370.61 2878.63 242.123 2911.11 28.7655 2935.28M225.038 1451.74C268.906 1513.01 298.476 1584.96 239.178 1637.71C194.032 1677.85 131.599 1677.06 122.328 1715.79C119.166 1728.87 122.83 1741.26 132.167 1754.73C161.639 1797.27 253.986 1845.82 357.779 1934.46C467.375 2028.06 519.959 2073.79 526.366 2117.2C545.042 2242.94 184.029 2219.1 157.64 2342.08C139.804 2425.21 282.166 2503.47 386.753 2581.19C468.306 2641.75 536.829 2697.79 523.25 2755.42C517.058 2781.89 493.725 2810.65 435.672 2838.59C364.386 2873.12 240.802 2906.81 42.6373 2934.58M239.256 1455C279.578 1514.75 306.301 1585.11 246.691 1636.63C201.018 1676.11 138.94 1675.7 129.017 1713.93C125.62 1726.95 128.923 1739.31 137.901 1752.85C166.554 1796.08 260.845 1845.14 363.161 1933.88C470.073 2026.64 520.553 2071.61 526.053 2114.51C541.926 2238 188.741 2215.43 163.11 2337.35C145.254 2422.1 290.714 2500.86 390.951 2578.74C469.082 2639.44 532.852 2694.18 516.575 2750.48C509.01 2776.63 484.734 2804.85 427.964 2832.87C358.216 2867.61 239.572 2902.53 56.5615 2933.87M253.485 1458.24C290.247 1516.48 314.097 1585.25 254.211 1635.56C208.015 1674.37 146.307 1674.35 135.694 1712.07C132.038 1725.05 135.011 1737.37 143.642 1750.96C171.471 1794.84 267.717 1844.44 368.523 1933.34C472.765 2025.21 521.141 2069.42 525.735 2111.83C538.799 2233.02 193.468 2211.77 168.52 2332.61C150.554 2418.97 299.165 2498.2 395.071 2576.3C469.777 2637.15 528.762 2690.63 509.802 2745.52C500.889 2771.33 475.632 2798.88 420.198 2827.13C351.892 2861.89 238.203 2898.17 70.4336 2933.12M267.713 1461.5C300.909 1518.22 321.895 1585.39 261.722 1634.49C214.963 1672.62 153.642 1673.01 142.372 1710.2C138.462 1723.13 141.098 1735.43 149.374 1749.07C176.386 1793.64 274.581 1843.74 373.909 1932.74C475.474 2023.75 521.743 2067.21 525.354 2109.12C535.717 2228.03 198.167 2208.1 173.858 2327.86C155.976 2415.88 307.634 2495.56 399.164 2573.89C470.42 2634.87 524.588 2687.09 502.976 2740.63C492.693 2766.11 466.514 2793.09 412.376 2821.44C345.624 2856.4 236.814 2893.89 84.2537 2932.45M281.94 1464.76C311.58 1519.95 329.682 1585.49 269.244 1633.42C221.943 1670.9 160.969 1671.66 149.06 1708.34C144.861 1721.27 147.184 1733.5 155.107 1747.19C181.269 1792.46 281.447 1843.03 379.278 1932.17C478.185 2022.29 522.347 2065 525.079 2106.44C532.725 2222.98 203.005 2204.41 179.313 2323.11C161.428 2412.77 316.155 2492.89 403.346 2571.45C471.163 2632.56 520.473 2683.52 496.265 2735.71C484.589 2760.86 457.514 2787.24 404.66 2815.71C339.433 2850.85 235.54 2889.57 98.1729 2931.72M296.16 1468C322.25 1521.69 337.455 1585.64 276.764 1632.35C228.944 1669.15 168.274 1670.31 155.737 1706.48C151.244 1719.38 153.261 1731.56 160.855 1745.31C186.206 1791.29 288.316 1842.3 384.639 1931.59C480.962 2020.88 522.956 2062.76 524.726 2103.74C529.673 2217.95 207.741 2200.79 184.752 2318.38C166.864 2409.66 324.651 2490.22 407.512 2569.04C471.843 2630.22 516.22 2680.01 489.481 2730.78C476.398 2755.63 448.448 2781.41 396.848 2809.99C333.166 2845.26 234.173 2885.25 112 2931.02M310.387 1471.25C332.91 1523.42 345.225 1585.76 284.278 1631.27C235.908 1667.37 175.585 1668.98 162.424 1704.62C157.664 1717.52 159.343 1729.63 166.577 1743.42C191.109 1790.14 295.179 1841.56 390.028 1931.02C483.621 2019.34 523.56 2060.5 524.392 2101.05C526.672 2212.85 212.528 2197.14 190.162 2313.63C172.283 2406.55 333.103 2487.53 411.658 2566.62C472.517 2627.93 511.934 2676.49 482.73 2725.81C468.205 2750.35 439.395 2775.53 389.126 2804.24C326.962 2839.72 232.894 2880.9 125.92 2930.24M324.617 1474.5C343.581 1525.16 352.978 1585.88 291.799 1630.2C242.872 1665.64 182.872 1667.63 169.102 1702.76C164.072 1715.58 165.418 1727.71 172.32 1741.54C196.003 1788.99 302.044 1840.81 395.407 1930.46C486.366 2017.78 524.188 2058.24 524.056 2098.36C523.718 2207.73 217.336 2193.49 195.573 2308.89C177.71 2403.44 341.55 2484.82 415.804 2564.16C473.252 2625.58 507.658 2672.95 476.003 2720.95C460.018 2745.19 430.39 2769.78 381.413 2798.57C320.716 2834.22 231.579 2876.58 139.794 2929.57M338.835 1477.75C354.253 1526.89 360.74 1586 299.311 1629.12C249.833 1663.84 190.155 1666.29 175.79 1700.89C170.458 1713.73 171.49 1725.79 178.05 1739.66C200.897 1787.84 308.915 1840.05 400.788 1929.88C489.106 2016.25 524.809 2055.96 523.72 2095.68C520.798 2202.56 222.151 2189.85 200.987 2304.14C183.089 2400.33 349.945 2482.08 419.88 2561.77C473.861 2623.27 503.216 2669.45 469.195 2716.03C451.723 2739.95 421.295 2763.94 373.599 2792.86C314.478 2828.69 230.245 2872.33 153.647 2928.85M353.064 1481C364.922 1528.63 368.484 1586.1 306.831 1628.05C256.762 1662.15 197.415 1664.95 182.467 1699.03C176.854 1711.83 177.557 1723.88 183.793 1737.77C205.764 1786.74 315.787 1839.27 406.163 1929.28C491.86 2014.7 525.467 2053.62 523.389 2092.97C517.913 2197.37 226.977 2186.2 206.397 2299.39C188.563 2397.24 358.411 2479.33 424.07 2559.34C474.58 2620.85 498.842 2665.87 462.477 2711.09C443.496 2734.69 412.291 2758.11 365.879 2787.14C308.231 2823.14 228.935 2868.02 167.555 2928.12M367.29 1484.26C375.628 1530.39 376.202 1586.18 314.351 1626.98C263.736 1660.3 204.678 1663.6 189.144 1697.17C183.227 1709.94 183.628 1721.97 189.525 1735.88C210.634 1785.64 322.652 1838.49 411.535 1928.74C494.614 2013.15 526.103 2051.36 523.055 2090.28C515.087 2192.16 231.813 2182.56 211.807 2294.65C194.008 2394.14 366.834 2476.55 428.206 2556.92C475.228 2618.51 494.378 2662.29 455.711 2706.17C435.215 2729.45 403.234 2752.28 358.115 2781.43C302.035 2817.64 227.633 2863.73 181.469 2927.44M381.509 1487.51C386.251 1532.11 383.955 1586.3 321.864 1625.91C270.673 1658.6 211.924 1662.25 195.833 1695.31C189.622 1708.06 189.687 1720.06 195.258 1733.99C215.493 1784.54 329.543 1837.68 416.904 1928.17C497.396 2011.54 526.757 2049.04 522.719 2087.59C512.313 2186.91 236.658 2178.93 217.219 2289.91C199.436 2391.04 375.255 2473.75 432.345 2554.5C475.865 2616.09 489.893 2658.68 448.909 2701.24C426.873 2724.16 394.15 2746.44 350.31 2775.68C295.755 2812.08 226.27 2859.39 195.306 2926.71M395.739 1490.76C396.922 1533.85 391.689 1586.36 329.385 1624.84C277.594 1656.83 219.14 1660.89 202.519 1693.41C196.005 1706.14 195.755 1718.12 201.008 1732.08C220.366 1783.43 336.455 1836.84 422.293 1927.56C500.195 2009.9 527.444 2046.67 522.395 2084.86C509.588 2181.64 241.524 2175.29 222.63 2285.16C204.921 2387.95 383.674 2470.91 436.492 2552.07C476.568 2613.67 485.383 2655.04 442.194 2696.34C418.56 2718.88 385.139 2740.64 342.61 2769.97C289.578 2806.55 224.995 2855.12 209.232 2925.99M409.966 1494.01C407.593 1535.58 399.411 1586.43 336.895 1623.81C284.531 1655.08 226.375 1659.61 209.198 1691.63C202.38 1704.32 201.792 1716.29 206.742 1730.22C225.178 1782.35 343.326 1836.03 427.653 1927.02C502.991 2008.27 528.136 2044.36 522.053 2082.2C506.929 2176.34 246.389 2171.66 228.041 2280.42C210.406 2384.86 392.094 2468.03 440.63 2549.65C477.238 2611.21 480.85 2651.37 435.432 2691.41C410.282 2713.58 376.092 2734.81 334.844 2764.26C283.337 2801.03 223.692 2850.79 223.111 2925.3M424.196 1497.26C418.254 1537.32 407.146 1586.46 344.417 1622.7C291.469 1653.21 233.597 1658.19 215.876 1689.72C208.755 1702.39 207.849 1714.35 212.474 1728.33C229.993 1781.3 350.22 1835.18 433.033 1926.45C505.796 2006.65 528.85 2042 521.719 2079.51C504.325 2171.03 251.273 2168.03 233.451 2275.68C215.823 2381.71 400.489 2465.12 444.728 2547.22C477.921 2608.73 476.267 2647.66 428.629 2686.48C401.908 2708.26 367.003 2728.98 327.058 2758.48C277.07 2795.45 222.329 2846.41 236.96 2924.52M438.414 1500.51C428.925 1539.05 414.85 1586.56 351.929 1621.62C298.377 1651.5 240.824 1656.79 222.549 1687.88C215.125 1700.52 213.891 1712.47 218.202 1726.46C234.832 1780.27 357.122 1834.33 438.409 1925.89C508.617 2005 529.573 2039.65 521.392 2076.79C501.786 2165.72 256.159 2164.4 238.862 2270.93C221.375 2378.68 408.965 2462.19 448.914 2544.8C478.613 2606.19 471.745 2643.95 421.903 2681.57C393.609 2702.92 357.974 2723.17 319.323 2752.82C270.864 2789.99 221.034 2842.17 250.868 2923.87M452.643 1503.76C439.615 1540.79 422.555 1586.62 359.455 1620.53C305.312 1649.64 248.014 1655.45 229.252 1685.95C221.509 1698.56 219.94 1710.51 223.959 1724.52C239.596 1779.14 364.06 1833.39 443.793 1925.27C511.477 2003.25 530.348 2037.22 521.061 2074.08C499.324 2160.38 261.063 2160.77 244.289 2266.13C226.827 2375.52 417.425 2459.16 453.057 2542.32C479.322 2603.62 467.208 2640.14 415.155 2676.59C385.27 2697.51 348.95 2717.3 311.579 2747.04C264.632 2784.4 219.722 2837.8 264.75 2923.12M466.87 1507.01C450.266 1542.52 430.276 1586.62 366.973 1619.47C312.216 1647.86 255.236 1654.1 235.919 1684.13C227.862 1696.7 225.966 1708.65 229.729 1722.68C244.407 1778.14 371.062 1832.52 449.211 1924.74C514.363 2001.59 531.166 2034.9 520.754 2071.48C496.934 2155.01 265.969 2157.14 249.686 2261.44C232.346 2372.5 425.895 2456.21 457.178 2539.95C480.034 2601.12 462.618 2636.41 408.415 2671.73C376.95 2692.21 339.922 2711.55 303.847 2741.4C258.432 2778.95 218.435 2833.56 278.664 2922.44M481.088 1510.27C460.927 1544.26 437.963 1586.7 374.494 1618.4C319.137 1646.09 262.402 1652.7 242.614 1682.28C234.225 1694.82 232.007 1706.77 235.401 1720.79C249.099 1777.08 377.9 1831.6 454.509 1924.17C517.173 1999.84 531.897 2032.52 520.361 2068.74C494.523 2149.72 270.861 2153.52 255.046 2256.69C237.764 2369.39 434.349 2453.16 461.294 2537.53C480.765 2598.54 458.038 2632.61 401.591 2666.8C368.543 2686.82 330.812 2705.73 296.016 2735.67C252.131 2773.43 217.047 2829.24 292.476 2921.73M495.331 1513.46C471.611 1545.94 445.7 1586.68 382.019 1617.28C326.063 1644.23 269.569 1651.32 249.282 1680.42C240.576 1692.9 238.032 1704.87 241.155 1718.9C253.86 1776.04 384.88 1830.66 459.904 1923.62C520.07 1998.14 532.772 2030.18 520.051 2066.07C492.324 2144.41 275.807 2149.89 260.51 2251.94C243.319 2366.31 442.925 2450.08 465.434 2535.1C481.541 2595.92 453.456 2628.78 394.808 2661.91C360.181 2681.45 321.752 2699.96 288.238 2729.98C245.879 2767.95 215.711 2824.96 306.381 2921.05M509.544 1516.77C482.267 1547.73 453.356 1586.76 389.515 1616.25C332.957 1642.4 276.738 1649.94 255.957 1678.6C246.921 1691.04 244.044 1703.01 246.875 1717.05C258.6 1774.95 391.844 1829.69 465.281 1923.01C522.987 1996.32 533.614 2027.77 519.715 2063.34C490.106 2139.08 280.734 2146.25 265.888 2247.2C248.824 2363.22 451.515 2446.99 469.57 2532.68C482.309 2593.28 448.916 2624.93 388.066 2656.94C351.842 2675.99 312.724 2694.09 280.487 2724.22C239.668 2762.35 214.395 2820.59 320.24 2920.23M523.769 1519.99C492.943 1549.45 461.051 1586.74 397.042 1615.16C339.861 1640.54 283.906 1648.53 262.651 1676.67C253.286 1689.07 250.085 1701.06 252.633 1715.11C263.3 1773.94 398.85 1828.69 470.665 1922.42C525.912 1994.52 534.497 2025.4 519.384 2060.64C487.989 2133.82 285.658 2142.63 271.327 2242.46C254.359 2360.13 460.145 2443.9 473.71 2530.24C483.197 2590.66 444.371 2621.08 381.301 2652.02C343.503 2670.57 303.669 2688.3 272.733 2718.51C233.423 2756.88 213.074 2816.29 334.137 2919.58M537.991 1523.27C503.599 1551.2 468.753 1586.77 404.51 1614.1C346.725 1638.72 291.029 1647.13 269.286 1674.82C259.591 1687.17 256.053 1699.18 258.322 1713.23C267.981 1772.93 405.853 1827.7 476.04 1921.87C528.859 1992.72 535.411 2023.07 519.046 2057.96C485.92 2128.56 290.621 2138.98 276.731 2237.75C259.926 2357.09 468.866 2440.79 477.878 2527.86C484.105 2588.04 439.853 2617.24 374.51 2647.13C335.131 2665.16 294.599 2682.52 264.946 2712.81C227.171 2751.4 211.726 2812.01 347.966 2918.88M552.218 1526.52C514.264 1552.96 476.42 1586.78 412.086 1613.06C353.682 1636.9 298.229 1645.79 276.028 1672.99C265.996 1685.28 262.12 1697.31 264.118 1711.37C272.673 1771.91 412.912 1826.69 481.425 1921.32C531.832 1990.93 536.38 2020.77 518.729 2055.28C483.893 2123.34 295.565 2135.4 282.149 2232.98C265.46 2353.97 477.577 2437.67 481.994 2525.4C484.999 2585.36 435.298 2613.3 367.773 2642.18C326.857 2659.7 285.584 2676.69 257.241 2707.08C220.974 2745.87 210.464 2807.69 361.894 2918.15M566.448 1529.77C524.956 1554.69 484.109 1586.78 419.559 1612.01C360.538 1635.06 305.329 1644.35 282.629 1671.14C272.271 1683.37 268.058 1695.43 269.771 1709.5C277.254 1770.88 419.899 1825.64 486.729 1920.75C534.824 1989.07 537.303 2018.45 518.378 2052.57C481.927 2118.16 300.509 2131.82 287.562 2228.22C271.046 2350.89 486.41 2434.52 486.15 2522.98C485.957 2582.75 430.776 2609.4 361.017 2637.26C318.493 2654.22 276.547 2670.9 249.448 2701.36C214.746 2740.37 209.116 2803.37 375.768 2917.43M580.658 1533.05C535.6 1556.45 491.754 1586.75 427.094 1610.93C367.456 1633.2 312.514 1642.92 289.34 1669.27C278.636 1681.45 274.094 1693.53 275.537 1707.61C281.912 1769.83 427.029 1824.53 492.121 1920.18C537.824 1987.15 538.347 2016.17 518.043 2049.89C480.011 2113.03 305.486 2128.16 292.974 2223.48C276.635 2347.76 495.263 2431.42 490.29 2520.58C486.961 2580.13 426.267 2605.53 354.268 2632.37C310.172 2648.82 267.517 2665.13 241.71 2695.67C208.534 2734.9 207.791 2799.09 389.633 2916.75M594.895 1536.27C546.274 1558.13 499.485 1586.71 434.624 1609.82C374.362 1631.29 319.67 1641.47 296.044 1667.38C285.003 1679.5 280.122 1691.61 281.295 1705.7C286.564 1768.77 434.185 1823.43 497.533 1919.56C540.844 1985.3 539.368 2013.91 517.705 2047.17C478.133 2107.95 310.452 2124.53 298.383 2218.74C282.217 2344.73 504.169 2428.34 494.434 2518.13C488.005 2577.47 421.77 2601.57 347.51 2627.42C301.854 2643.32 258.488 2659.31 233.956 2689.92C202.312 2729.42 206.489 2794.75 403.524 2916M609.122 1539.53C556.939 1559.89 507.173 1586.68 442.136 1608.74C381.262 1629.41 326.823 1639.99 302.732 1665.52C291.335 1677.58 286.118 1689.71 287.022 1703.83C291.164 1767.75 441.354 1822.32 502.89 1919.03C543.887 1983.44 540.415 2011.73 517.36 2044.51C476.273 2102.92 315.427 2120.91 303.794 2213.99C287.816 2341.64 513.145 2425.32 498.572 2515.71C489.036 2574.85 417.295 2597.64 340.727 2622.49C293.512 2637.83 249.446 2653.51 226.176 2684.2C196.086 2723.88 205.152 2790.43 417.376 2915.33M623.362 1542.77C567.598 1561.63 514.875 1586.64 449.696 1607.68C388.201 1627.54 333.987 1638.6 309.468 1663.67C297.738 1675.66 292.179 1687.83 292.828 1701.94C295.805 1766.69 448.653 1821.11 508.335 1918.45C547.04 1981.53 541.569 2009.56 517.088 2041.82C474.437 2097.95 320.392 2117.29 309.205 2209.25C293.41 2338.57 522.089 2422.34 502.7 2513.28C490.092 2572.35 412.756 2593.69 334.001 2617.58C285.229 2632.36 240.439 2647.73 218.442 2678.49C189.908 2718.4 203.863 2786.13 431.291 2914.58M637.569 1546.02C578.28 1563.36 522.548 1586.58 457.168 1606.6C395.057 1625.62 341.092 1637.15 316.116 1661.8C304.042 1673.72 298.142 1685.93 298.53 1700.05C300.352 1765.63 455.874 1819.96 513.686 1917.87C550.123 1979.6 542.642 2007.4 516.725 2039.12C472.614 2093.05 325.397 2113.67 314.615 2204.51C299.036 2335.53 531.146 2419.36 506.856 2510.86C491.203 2569.82 408.286 2589.74 327.229 2612.65C276.899 2626.87 231.413 2641.94 210.671 2672.77C183.69 2712.9 202.537 2781.8 445.165 2913.86M651.8 1549.27C588.931 1565.14 530.244 1586.48 464.69 1605.53C401.953 1623.72 348.231 1635.69 322.814 1659.94C310.39 1671.78 304.147 1684.03 304.292 1698.17C304.92 1764.57 463.224 1818.76 519.074 1917.31C553.281 1977.66 543.768 2005.33 516.412 2036.43C470.808 2088.2 330.385 2110.05 320.027 2199.76C304.662 2332.46 540.175 2416.45 510.974 2508.43C492.287 2567.32 403.783 2585.81 320.417 2607.72C268.542 2621.37 222.339 2636.14 202.873 2667.04C177.473 2707.41 201.195 2777.51 459.018 2913.15M666.028 1552.53C599.613 1566.83 537.92 1586.46 472.211 1604.46C408.852 1621.81 355.375 1634.21 329.512 1658.08C316.738 1669.84 310.163 1682.13 310.035 1696.28C309.424 1763.49 470.579 1817.5 524.417 1916.72C556.414 1975.71 544.857 2003.27 516.041 2033.73C468.996 2083.42 335.382 2106.42 325.438 2195.02C310.333 2329.34 549.242 2413.59 515.122 2506.01C493.403 2564.86 399.332 2581.84 313.693 2602.81C260.272 2615.9 213.352 2630.36 195.149 2661.34C171.285 2701.92 199.877 2773.2 472.921 2912.4M680.245 1555.78C610.245 1568.56 545.606 1586.39 479.722 1603.39C415.753 1619.88 362.527 1632.71 336.162 1656.17C323.037 1667.84 316.095 1680.23 315.747 1694.31C313.961 1762.35 478.059 1816.16 529.804 1916.08C559.627 1973.76 546.043 2001.28 515.707 2031.03C467.163 2078.71 340.388 2102.8 330.849 2190.28C316.009 2326.27 558.314 2410.79 519.282 2503.54C494.536 2562.33 394.855 2577.8 306.941 2597.84C251.982 2610.37 204.349 2624.53 187.401 2655.56C165.078 2696.39 198.572 2768.83 486.81 2911.66M694.474 1559.03C620.953 1570.3 553.304 1586.32 487.271 1602.32C422.681 1617.97 369.684 1631.29 342.856 1654.35C329.401 1665.95 322.111 1678.32 321.488 1692.5C318.482 1761.35 485.588 1814.94 535.167 1915.57C562.857 1971.78 547.143 1999.3 515.375 2028.33C465.324 2074.07 345.404 2099.14 336.261 2185.52C321.677 2323.18 567.376 2408.01 523.387 2501.19C495.591 2560.05 390.397 2573.93 300.17 2592.94C243.674 2604.87 195.326 2618.76 179.622 2649.87C158.899 2690.94 197.235 2764.55 500.663 2910.98M708.701 1562.28C631.576 1572.03 560.997 1586.23 494.754 1601.24C429.556 1616.02 376.789 1629.8 349.505 1652.48C335.692 1663.98 328.068 1676.41 327.201 1690.61C322.939 1760.24 493.221 1813.6 540.542 1915.01C566.12 1969.84 548.282 1997.4 515.036 2025.65C463.462 2069.47 350.399 2095.56 341.672 2180.78C327.376 2320.11 576.468 2405.29 527.532 2498.74C496.701 2557.64 385.964 2569.92 293.401 2588.04C235.371 2599.4 186.324 2613 171.866 2644.17C152.718 2685.47 195.911 2760.26 514.533 2910.28M855.459 1608.72C715.677 1629.76 585.634 1672.18 500.022 1714.72C331.584 1798.43 276.275 1787.97 284.389 1868.12C293.286 1956.04 302.268 2001 391.287 2104.19C441.556 2162.46 507.778 2211.06 526.057 2256.05C551.071 2317.62 499.682 2349.57 434.023 2392.34C408.736 2408.81 385.846 2424.14 380.749 2444.82C372.692 2477.47 407.05 2496.91 380.383 2516.87C329.444 2554.99 256.336 2624.71 187.776 2658.56C171.913 2666.44 157.819 2674.23 148.433 2683.38C110.06 2720.73 149.063 2783.73 620.533 3047.5M859.544 1610.25C723.946 1631.81 595.521 1674.3 506.851 1716.16C330.531 1799.39 265.028 1787.04 271.789 1866.09C279.139 1952.41 299.437 1999.6 392.558 2101.57C445.59 2159.61 512.661 2208.21 529.66 2253.19C552.886 2314.67 495.776 2345.62 429.028 2387.93C403.112 2404.35 380.151 2419.94 375.824 2441.03C368.925 2474.7 406.504 2494.55 380.457 2515.16C330.827 2554.46 258.336 2627.17 188.629 2661.53C172.693 2669.44 158.393 2677.15 148.762 2686.17C109.195 2723.26 147.207 2785.57 622.837 3053.85M863.609 1611.76C732.204 1633.86 605.412 1676.39 513.657 1717.6C329.49 1800.3 253.763 1786.09 259.149 1864.06C265.003 1948.78 296.583 1998.23 393.878 2098.96C449.686 2156.76 517.6 2205.38 533.31 2250.38C554.749 2311.73 491.899 2341.7 424.07 2383.57C397.525 2399.94 374.511 2415.77 370.947 2437.3C365.219 2471.96 405.997 2492.23 380.539 2513.51C332.228 2553.99 260.336 2629.67 189.517 2664.55C173.503 2672.48 158.996 2680.12 149.116 2689.03C108.317 2725.84 145.338 2787.44 625.142 3060.24M867.724 1613.24C740.487 1635.85 615.329 1678.43 520.487 1718.99C328.513 1801.16 242.516 1785.15 246.526 1862.04C250.866 1945.14 293.746 1996.81 395.099 2096.33C453.69 2153.87 522.455 2202.52 536.869 2247.48C556.498 2308.83 487.97 2337.75 419.013 2379.15C391.865 2395.49 368.782 2411.54 365.978 2433.51C361.43 2469.18 405.388 2489.87 380.587 2511.82C333.601 2553.42 262.313 2632.14 190.359 2667.54C174.289 2675.49 159.556 2683.05 149.448 2691.84C107.407 2728.39 143.435 2789.29 627.419 3066.6M871.798 1614.8C748.739 1637.96 625.25 1680.53 527.295 1720.47C327.462 1801.96 231.274 1784.2 233.906 1860.01C236.754 1941.46 290.918 1995.35 396.372 2093.71C457.749 2150.96 527.357 2199.68 540.465 2244.69C558.308 2305.9 484.005 2333.77 414.012 2374.76C386.219 2391.04 363.111 2407.33 361.059 2429.74C357.704 2466.4 404.829 2487.51 380.655 2510.14C334.986 2552.89 264.298 2634.63 191.235 2670.54C175.086 2678.51 160.184 2686 149.79 2694.66C106.509 2730.93 141.534 2791.13 629.716 3072.94M875.843 1616.31C756.997 1640.01 635.197 1682.58 534.101 1721.91C326.472 1802.72 220.038 1783.26 221.285 1857.98C222.646 1937.87 288.088 1993.86 397.642 2091.09C461.804 2148.04 532.238 2196.83 544.072 2241.85C560.129 2302.97 480.079 2329.81 409.01 2370.37C380.582 2386.58 357.443 2403.11 356.137 2425.98C353.986 2463.63 404.266 2485.17 380.721 2508.47C336.359 2552.36 266.291 2637.11 192.097 2673.54C175.886 2681.55 160.732 2688.94 150.136 2697.5C105.614 2733.46 139.651 2792.99 632.008 3079.34M879.966 1617.84C765.268 1642.05 645.158 1684.6 540.917 1723.35C325.492 1803.44 208.811 1782.33 208.665 1855.95C208.513 1934.23 285.254 1992.35 398.885 2088.46C465.844 2145.09 537.113 2193.97 547.64 2239C561.959 2300 476.152 2325.85 404.009 2365.97C374.934 2382.17 351.79 2398.86 351.21 2422.19C350.277 2460.83 403.709 2482.81 380.791 2506.77C337.741 2551.76 268.28 2639.58 192.974 2676.52C176.687 2684.54 161.316 2691.85 150.484 2700.3C104.694 2736 137.771 2794.83 634.299 3085.7M884.051 1619.36C773.526 1644.1 655.123 1686.62 547.688 1724.78C324.532 1804.13 197.591 1781.37 196.045 1853.92C194.412 1930.58 282.418 1990.81 400.223 2085.86C469.933 2142.15 542.057 2191.09 551.276 2236.17C563.77 2297.11 472.237 2321.84 398.998 2361.58C369.318 2377.68 346.13 2394.65 346.291 2418.42C346.578 2458.02 403.152 2480.45 380.857 2505.1C339.103 2551.27 270.272 2642.07 193.834 2679.53C177.488 2687.58 161.903 2694.8 150.821 2703.14C103.824 2738.52 135.874 2796.69 636.594 3092.08M888.132 1620.89C781.793 1646.15 665.112 1688.62 554.542 1726.23C323.578 1804.79 186.376 1780.42 183.435 1851.85C180.326 1926.95 279.585 1989.25 401.454 2083.24C473.991 2139.17 546.946 2188.29 554.859 2233.38C565.577 2294.22 468.296 2317.93 393.982 2357.23C363.67 2373.26 340.46 2390.47 341.328 2414.7C342.876 2455.27 402.54 2478.13 380.884 2503.45C340.421 2550.75 272.218 2644.58 194.676 2682.53C178.252 2690.6 162.451 2697.74 151.14 2705.96C102.898 2741.01 133.956 2798.56 638.85 3098.45M892.218 1622.4C790.051 1648.2 675.1 1690.62 561.398 1727.68C322.651 1805.43 175.183 1779.48 170.8 1849.87C166.24 1923.32 276.701 1987.65 402.725 2080.61C478.049 2136.19 551.849 2185.44 558.478 2230.49C567.419 2291.25 464.35 2313.89 388.994 2352.79C358.048 2368.75 334.823 2386.17 336.451 2410.88C339.192 2452.4 402.012 2475.74 380.994 2501.72C341.845 2550.11 274.254 2647.02 195.572 2685.51C179.079 2693.61 163.047 2700.64 151.552 2708.78C102.073 2743.5 132.174 2800.41 641.222 3104.81M896.304 1623.92C798.32 1650.25 685.106 1692.6 568.167 1729.11C321.732 1806.04 163.99 1778.54 158.19 1847.84C152.169 1919.68 273.89 1986.06 403.997 2078C482.114 2133.19 556.764 2182.59 562.086 2227.65C569.251 2288.32 460.467 2309.88 383.997 2348.39C352.415 2364.28 329.171 2381.93 331.533 2407.11C335.504 2449.61 401.446 2473.37 381.063 2500.04C343.227 2549.63 276.242 2649.49 196.438 2688.5C179.886 2696.63 163.665 2703.56 151.837 2711.59C101.087 2746.03 130.187 2802.24 643.444 3111.16M900.388 1625.44C806.577 1652.3 695.124 1694.57 574.985 1730.54C320.839 1806.63 152.804 1777.6 145.569 1845.81C138.108 1916.03 271.021 1984.44 405.278 2075.38C486.17 2130.18 561.663 2179.75 565.682 2224.81C571.081 2285.38 456.533 2305.9 378.984 2343.99C346.799 2359.82 323.52 2377.68 326.602 2403.34C331.829 2446.75 400.866 2471.01 381.13 2498.36C344.537 2549.07 278.237 2651.97 197.312 2691.5C180.642 2699.64 164.238 2706.51 152.207 2714.41C100.216 2748.54 128.322 2804.09 645.772 3117.53M904.473 1626.96C814.846 1654.36 705.148 1696.55 581.792 1731.99C319.943 1807.2 141.642 1776.66 132.952 1843.78C124.053 1912.4 268.165 1982.78 406.551 2072.75C490.218 2127.16 566.567 2176.94 569.29 2221.97C572.923 2282.45 452.603 2301.92 373.984 2339.6C341.137 2355.35 317.873 2373.42 321.693 2399.57C328.161 2443.91 400.311 2468.61 381.209 2496.68C345.896 2548.52 280.232 2654.46 198.188 2694.49C181.507 2702.67 164.84 2709.44 152.557 2717.24C99.3299 2751.04 126.45 2805.95 648.071 3123.91M908.556 1628.48C823.106 1656.39 715.186 1698.52 588.588 1733.42C319.06 1807.75 130.485 1775.73 120.325 1841.76C110.016 1908.78 265.283 1981.14 407.82 2070.14C494.269 2124.13 571.49 2174.05 572.886 2219.13C574.76 2279.53 448.682 2297.89 368.982 2335.2C335.504 2350.88 312.225 2369.16 316.763 2395.79C324.474 2441.06 399.711 2466.29 381.259 2494.98C347.202 2548 282.208 2656.93 199.039 2697.49C182.271 2705.69 165.402 2712.36 152.9 2720.02C98.3976 2753.47 124.549 2807.75 650.354 3130.25M912.641 1630C831.374 1658.45 725.245 1700.46 595.426 1734.86C318.203 1808.28 119.339 1774.81 107.705 1839.74C95.9764 1905.18 262.398 1979.47 409.09 2067.52C498.313 2121.09 576.405 2171.23 576.493 2216.29C576.601 2276.6 444.758 2293.88 363.98 2330.81C329.863 2346.4 306.581 2364.89 311.83 2392.07C320.787 2438.25 399.157 2463.99 381.323 2493.35C348.546 2547.47 284.191 2659.45 199.9 2700.53C183.073 2708.76 165.991 2715.35 153.23 2722.92C97.5 2756.01 122.665 2809.64 652.696 3136.62M916.726 1631.52C839.623 1660.49 735.243 1702.43 602.233 1736.31C317.349 1808.8 108.197 1773.9 95.0851 1837.71C81.9733 1901.51 259.508 1977.78 410.36 2064.91C502.359 2118.04 581.344 2168.37 580.1 2213.45C578.45 2273.68 440.836 2289.87 358.97 2326.42C324.233 2341.92 300.934 2360.63 306.925 2388.25C317.127 2435.34 398.553 2461.57 381.406 2491.62C349.896 2546.87 286.237 2661.9 200.789 2703.47C183.883 2711.72 166.587 2718.22 153.578 2725.71C96.6067 2758.5 120.77 2811.5 654.944 3143.02M920.81 1633.04C847.895 1662.57 745.355 1704.39 609.052 1737.74C316.507 1809.32 97.0697 1772.98 82.4591 1835.7C67.941 1897.99 256.598 1976.13 411.627 2062.3C506.387 2115.02 586.245 2165.53 583.697 2210.61C580.3 2270.76 436.923 2285.85 353.971 2322.01C318.594 2337.44 295.292 2356.35 302.044 2384.49C313.495 2432.48 397.992 2459.26 381.512 2489.94C351.262 2546.33 288.204 2664.36 201.69 2706.48C184.718 2714.75 167.21 2721.14 153.957 2728.58C95.7432 2761.03 118.912 2813.41 657.263 3149.43M924.894 1634.56C856.158 1664.6 755.464 1706.37 615.858 1739.18C315.68 1809.82 85.9563 1772.09 69.844 1833.65C53.9456 1894.37 253.692 1974.38 412.9 2059.68C510.434 2111.93 591.242 2162.71 587.293 2207.81C582.247 2267.86 433.009 2281.81 348.97 2317.62C312.962 2332.96 289.637 2352.07 297.076 2380.7C309.776 2429.6 397.373 2456.86 381.539 2488.26C352.545 2545.79 290.215 2666.87 202.523 2709.48C185.479 2717.78 167.761 2724.07 154.233 2731.34C94.7759 2763.44 116.954 2815.2 659.494 3155.74M928.978 1636.08C864.425 1666.65 765.509 1708.28 622.687 1740.58C314.855 1810.3 74.8619 1771.2 57.2204 1831.63C39.9432 1890.81 250.778 1972.66 414.155 2057.04C514.449 2108.84 596.106 2159.85 590.881 2204.92C584.062 2264.94 429.033 2277.68 343.968 2313.23C307.292 2328.48 283.995 2347.79 292.156 2376.93C306.104 2426.73 396.747 2454.48 381.609 2486.57C353.82 2545.16 292.17 2669.3 203.352 2712.45C186.239 2720.77 168.302 2726.96 154.587 2734.15C93.8302 2765.85 115.073 2817.04 661.787 3162.09M933.063 1637.6C872.686 1668.69 775.595 1710.23 629.483 1742.06C314.047 1810.77 63.7655 1770.32 44.5713 1829.59C14.4611 1922.65 611.581 2083.72 594.479 2202.08C582.098 2287.95 257.787 2274.92 287.236 2373.16C302.427 2423.84 396.185 2452.14 381.677 2484.89C355.186 2544.7 294.162 2671.8 204.263 2715.46C110.893 2760.8 -11.0319 2740.06 664.123 3168.47" stroke="#16F898" stroke-opacity="0.4" stroke-width="0.75" stroke-miterlimit="10"/>
</svg>
