<svg width="3244" height="1758" viewBox="0 0 3244 1758" fill="none" xmlns="http://www.w3.org/2000/svg">
<path opacity="0.2" d="M1 845.914C131.709 808.174 279.06 795.887 370.359 894.459C438.536 968.06 422.515 1046.31 494.439 1073.69C590.16 1110.12 691.268 999.2 933.201 874.168C1131.49 771.689 1230.64 720.442 1314.55 729.624C1561 756.58 1435.18 1222.64 1659.5 1316.09C1907.1 1419.25 2240.13 926.322 2493.17 1005.15C2604.7 1039.89 2720.86 1192 2689.72 1757M9.13672 830.806C136.555 797.242 280.497 788.202 370.1 886.796C437.1 961.007 422.256 1039.05 493.96 1066.29C590.239 1102.83 691.802 990.565 932.156 867.773C947.44 859.996 962.158 852.544 976.349 845.426C1144.95 760.204 1234.04 720.897 1311.06 730.901C1410.52 743.826 1449.32 827.545 1476.69 928.556C1516.45 1074.21 1529.79 1253.11 1661.94 1305.96C1735.05 1334.98 1815.24 1313.76 1898.35 1272.65C2097.23 1174.27 2307.96 957.937 2484.56 1014.56C2496.05 1018.27 2507.62 1023.18 2519.11 1029.61C2617.89 1084.97 2709.81 1254.79 2691.04 1740.61M17.2725 815.691C141.392 786.296 282.287 780.255 369.84 879.118C435.937 953.747 422.004 1031.77 493.48 1058.87C590.316 1095.53 692.328 981.908 931.119 861.364C946.394 853.714 961.152 846.447 975.359 839.456C1143.5 756.702 1230.94 720.6 1307.57 732.163C1405.5 746.939 1444.66 829.672 1473.71 929.067C1516.25 1072.5 1532.35 1245.63 1664.39 1295.82C1737.56 1323.63 1817.63 1302.38 1900.26 1263.41C2098.02 1170.15 2301.35 965.991 2475.96 1023.95C2487.37 1027.73 2498.87 1032.7 2510.34 1039.1C2608.56 1093.99 2701.99 1258.9 2692.37 1724.19M25.4092 800.575C146.238 775.356 283.89 772.442 369.581 871.446C434.633 946.6 421.753 1024.49 493.01 1051.45C590.403 1088.22 692.517 972.677 930.091 854.955C945.342 847.397 960.147 840.335 974.378 833.494C1141.9 752.965 1227.83 720.302 1304.08 733.425C1400.46 750.016 1439.7 831.863 1470.74 929.577C1515.63 1070.9 1535 1237.97 1666.84 1285.67C1740.12 1312.19 1820.01 1290.99 1902.19 1254.17C2098.81 1166.04 2294.69 974.209 2467.38 1033.34C2478.7 1037.22 2490.15 1042.24 2501.59 1048.6C2599.24 1103.03 2694.19 1263.02 2693.72 1707.78M33.5537 785.466C151.084 764.416 285.5 764.65 369.33 863.775C433.338 939.461 421.51 1017.22 492.539 1044.05C590.49 1080.93 692.957 963.843 929.062 848.553C944.298 841.116 959.134 834.224 973.396 827.531C1140.29 749.222 1224.71 719.983 1300.6 734.695C1395.41 753.072 1434.96 834.026 1467.78 930.088C1515.32 1069.22 1537.68 1230.31 1669.3 1275.53C1742.7 1300.75 1822.42 1279.62 1904.12 1244.95C2099.61 1161.94 2288.04 982.454 2458.79 1042.75C2470.04 1046.72 2481.41 1051.79 2492.84 1058.13C2589.93 1112.08 2686.4 1267.16 2695.07 1691.39M41.6904 770.35C155.93 753.476 287.094 756.857 369.071 856.103C432.026 932.321 421.259 1009.94 492.068 1036.64C590.576 1073.63 693.405 955.023 928.033 842.15C943.254 834.826 958.129 828.112 972.415 821.568C1138.67 745.471 1221.55 719.642 1297.12 735.963C1390.35 756.092 1430.21 836.187 1464.8 930.605C1514.99 1067.56 1540.35 1222.65 1671.75 1265.39C1745.27 1289.31 1824.81 1268.24 1906.04 1235.72C2100.42 1157.83 2281.38 990.693 2450.21 1052.14C2461.37 1056.2 2472.68 1061.32 2484.08 1067.63C2580.6 1121.11 2678.6 1271.28 2696.42 1674.98M49.8262 755.234C160.767 742.529 288.68 749.073 368.811 848.432C430.714 925.196 421.007 1002.67 491.588 1029.22C590.654 1066.33 693.844 946.203 926.996 835.741C942.209 828.538 957.107 821.994 971.424 815.606C1137.03 741.714 1218.38 719.288 1293.63 737.226C1385.26 759.07 1425.45 838.343 1461.82 931.116C1514.66 1065.9 1543.04 1214.97 1674.2 1255.25C1747.84 1277.87 1827.19 1256.86 1907.95 1226.48C2101.19 1153.72 2274.7 998.939 2441.6 1061.54C2452.68 1065.69 2463.92 1070.86 2475.31 1077.13C2571.26 1130.15 2670.77 1275.4 2697.74 1658.56M57.9629 740.117C165.613 731.581 290.267 741.294 368.552 840.753C429.403 918.062 420.756 995.385 491.117 1021.8C590.741 1059.03 694.307 937.389 925.968 829.331C941.164 822.241 956.094 815.874 970.443 809.635C1135.39 737.933 1215.19 718.897 1290.14 738.486C1380.17 762.011 1420.72 840.504 1458.85 931.625C1514.35 1064.24 1545.73 1207.28 1676.65 1245.1C1750.42 1266.41 1829.57 1245.48 1909.88 1217.24C2101.99 1149.61 2268.04 1007.19 2433.01 1070.93C2444.01 1075.18 2455.19 1080.39 2466.55 1086.63C2561.94 1139.18 2662.97 1279.52 2699.09 1642.16M66.0996 725.008C170.451 720.648 291.838 733.538 368.294 833.088C428.084 910.951 420.505 988.111 490.638 1014.4C590.82 1051.74 694.763 928.598 924.931 822.935C940.12 815.966 955.074 809.769 969.454 803.686C1133.73 734.176 1211.98 718.507 1286.66 739.763C1375.06 764.925 1415.97 842.681 1455.87 932.15C1514.04 1062.6 1548.43 1199.61 1679.1 1234.97C1753.01 1254.97 1831.96 1234.11 1911.79 1208.01C2102.77 1145.51 2261.37 1015.46 2424.42 1080.33C2435.33 1084.67 2446.45 1089.94 2457.8 1096.14C2552.61 1148.22 2655.17 1283.65 2700.43 1625.76M74.2354 709.893C175.297 709.702 293.408 725.782 368.034 825.411C426.764 903.826 420.245 980.83 490.166 1006.98C590.906 1044.43 695.234 919.793 923.902 816.527C939.075 809.671 954.06 803.651 968.471 797.717C1132.07 730.383 1208.75 718.075 1283.18 741.026C1369.96 767.79 1411.25 844.844 1452.9 932.661C1513.74 1060.95 1551.14 1191.91 1681.55 1224.83C1755.61 1243.51 1834.36 1222.73 1913.72 1198.78C2103.58 1141.4 2254.71 1023.73 2415.83 1089.73C2426.66 1094.16 2437.71 1099.47 2449.04 1105.64C2543.29 1157.26 2647.37 1287.77 2701.77 1609.34M82.3721 694.777C180.135 698.762 294.971 718.025 367.775 817.739C425.444 896.722 419.994 973.556 489.688 999.569C590.984 1037.13 695.705 911.008 922.865 810.124C938.031 803.389 953.039 797.54 967.482 791.761C1130.4 726.59 1205.52 717.628 1279.68 742.301C1364.83 770.626 1406.52 847.021 1449.92 933.178C1513.45 1059.3 1553.85 1184.22 1684 1214.69C1758.19 1232.06 1836.74 1211.35 1915.63 1189.55C2104.36 1137.29 2248.03 1032.02 2407.23 1099.13C2417.98 1103.66 2428.97 1109.01 2440.28 1115.15C2533.96 1166.3 2639.55 1291.9 2703.11 1592.94M90.5088 679.668C184.981 687.821 296.527 710.29 367.516 810.074C424.11 889.624 419.743 966.288 489.217 992.166C591.071 1029.84 696.193 902.244 921.829 803.729C936.987 797.114 952.011 791.427 966.493 785.805C1128.71 722.796 1202.28 717.16 1276.19 743.57C1359.71 773.412 1401.8 849.19 1446.95 933.695C1513.17 1057.66 1556.59 1176.51 1686.45 1204.55C1760.79 1220.6 1839.12 1199.97 1917.56 1180.31C2105.15 1133.19 2241.37 1040.31 2398.64 1108.52C2409.3 1113.14 2420.23 1118.55 2431.52 1124.65C2524.64 1175.33 2631.75 1296.02 2704.45 1576.53M98.6445 664.553C189.826 676.876 298.073 702.556 367.256 802.397C422.774 882.528 419.491 959.008 488.737 984.752C591.141 1022.54 696.679 893.468 920.792 797.321C935.933 790.826 950.989 785.31 965.503 779.837C1127.01 718.976 1199.03 716.651 1272.7 744.833C1354.58 776.157 1397.08 851.361 1443.96 934.207C1512.89 1056.01 1559.31 1168.79 1688.89 1194.4C1763.39 1209.13 1841.5 1188.6 1919.47 1171.08C2105.94 1129.07 2234.68 1048.6 2390.03 1117.92C2400.61 1122.63 2411.48 1128.08 2422.74 1134.16C2515.29 1184.37 2623.93 1300.14 2705.77 1560.13M106.781 649.437C194.664 665.936 299.613 694.827 366.989 794.725C421.431 875.431 419.232 951.733 488.258 977.335C591.22 1015.23 697.174 884.704 919.755 790.911C934.889 784.53 949.96 779.184 964.513 773.874C1125.31 715.147 1195.77 716.119 1269.21 746.095C1349.47 778.865 1392.37 853.523 1440.99 934.717C1512.62 1054.35 1562.04 1161.07 1691.34 1184.26C1766 1197.65 1843.89 1177.22 1921.39 1161.85C2106.73 1124.96 2228.01 1056.91 2381.45 1127.32C2391.94 1132.13 2402.75 1137.63 2413.99 1143.67C2505.98 1193.41 2616.13 1304.28 2707.12 1543.73M114.918 634.321C199.51 654.988 301.144 687.106 366.731 787.047C420.081 868.34 418.981 944.452 487.779 969.919C591.299 1007.93 697.669 875.948 918.719 784.501C933.845 778.241 948.94 773.065 963.524 767.904C1123.6 711.304 1192.52 715.544 1265.72 747.357C1344.35 781.531 1387.66 855.692 1438 935.227C1512.36 1052.71 1564.79 1153.32 1693.78 1174.11C1768.6 1186.17 1846.27 1165.83 1923.3 1152.61C2107.51 1120.85 2221.33 1065.22 2372.84 1136.71C2383.25 1141.62 2393.99 1147.16 2405.22 1153.17C2496.63 1202.44 2608.3 1308.4 2708.45 1527.31M123.054 619.212C204.347 644.055 302.667 679.399 366.471 779.382C418.729 861.271 418.729 937.184 487.3 962.516C591.377 1000.64 698.171 867.213 917.681 778.106C932.8 771.966 947.91 766.953 962.534 761.955C1121.88 707.468 1189.27 714.969 1262.23 748.639C1339.24 784.175 1382.97 857.875 1435.03 935.759C1512.11 1051.08 1567.53 1145.59 1696.23 1163.99C1771.22 1174.71 1848.66 1154.47 1925.21 1143.39C2108.3 1116.76 2214.65 1073.56 2364.25 1146.12C2374.58 1151.12 2385.25 1156.71 2396.46 1162.68C2487.31 1211.49 2600.51 1312.53 2709.79 1510.91M131.19 604.095C209.193 633.108 304.176 671.691 366.212 771.71C417.379 854.195 418.478 929.909 486.829 955.1C591.463 993.336 698.698 858.477 916.653 771.696C931.763 765.676 946.889 760.827 961.552 755.984C1120.16 703.603 1186.03 714.345 1258.75 749.894C1334.16 786.762 1378.29 860.03 1432.06 936.255C1511.88 1049.41 1570.3 1137.82 1698.68 1153.83C1773.84 1163.2 1851.04 1143.08 1927.14 1134.14C2109.09 1112.63 2207.97 1081.87 2355.66 1155.5C2365.9 1160.6 2376.52 1166.23 2387.69 1172.17C2477.98 1220.51 2592.69 1316.64 2711.12 1494.49M139.327 588.979C214.031 622.168 305.684 663.991 365.953 764.031C416.012 847.119 418.219 922.62 486.35 947.683C591.542 986.033 699.216 849.749 915.616 765.286C930.719 759.394 945.869 754.701 960.563 750.014C1118.42 699.725 1182.8 713.685 1255.26 751.156C1329.07 789.321 1373.6 862.192 1429.07 936.765C1511.64 1047.76 1573.06 1130.05 1701.13 1143.69C1776.45 1151.7 1853.42 1131.7 1929.05 1124.9C2109.87 1108.53 2201.27 1090.21 2347.05 1164.9C2357.21 1170.1 2367.76 1175.77 2378.92 1181.68C2468.64 1229.55 2584.88 1320.77 2712.45 1478.09M147.463 573.872C218.876 611.229 307.175 656.307 365.693 756.368C414.637 840.058 417.967 915.354 485.878 940.283C591.628 978.746 699.75 841.044 914.587 758.892C929.682 753.121 944.847 748.59 959.581 744.067C1116.69 695.855 1179.58 713.027 1251.78 752.433C1324.01 791.861 1368.93 864.37 1426.11 937.291C1511.44 1046.11 1575.84 1122.28 1703.59 1133.56C1779.09 1140.22 1855.83 1120.33 1930.99 1115.68C2110.69 1104.43 2194.6 1098.57 2338.48 1174.3C2348.55 1179.61 2359.04 1185.31 2370.19 1191.19C2459.34 1238.59 2577.09 1324.89 2713.82 1461.69M155.607 558.755C223.722 600.282 308.668 648.621 365.442 748.689C413.271 832.996 417.724 908.072 485.407 932.859C591.715 971.436 700.284 832.33 913.558 752.475C928.645 746.825 943.826 742.45 958.599 738.09C1114.94 691.941 1176.37 712.303 1248.29 753.688C1318.96 794.349 1364.27 866.518 1423.14 937.794C1511.22 1044.45 1578.6 1114.48 1706.04 1123.4C1781.71 1128.7 1858.22 1108.94 1932.9 1106.44C2111.47 1100.3 2187.91 1106.91 2329.88 1183.69C2339.87 1189.09 2350.3 1194.84 2361.42 1200.68C2450.01 1247.62 2569.27 1329.01 2715.15 1445.27M163.744 543.639C228.568 589.341 310.145 640.935 365.183 741.018C411.881 825.941 417.473 900.798 484.936 925.45C591.801 964.14 700.834 823.637 912.53 746.08C927.609 740.557 942.806 736.338 957.618 732.141C1113.19 688.048 1173.19 711.587 1244.81 754.971C1313.93 796.837 1359.61 868.694 1420.17 938.325C1511.04 1042.8 1581.38 1106.69 1708.5 1113.28C1784.34 1117.21 1860.62 1097.58 1934.84 1097.22C2112.27 1096.21 2181.23 1115.29 2321.31 1193.1C2331.21 1198.61 2341.58 1204.4 2352.68 1210.21C2440.7 1256.68 2561.49 1333.15 2716.5 1428.89M171.881 528.532C233.407 578.403 311.614 633.272 364.924 733.355C410.491 818.895 417.222 893.532 484.457 918.049C591.88 956.852 701.376 814.96 911.486 739.686C926.557 734.283 941.762 730.221 956.621 726.187C1111.42 684.136 1170 710.837 1241.32 756.241C1308.91 799.277 1354.94 870.851 1417.18 938.844C1510.83 1041.15 1584.15 1098.89 1710.94 1103.14C1786.96 1105.69 1862.99 1086.21 1936.74 1087.99C2113.04 1092.11 2174.51 1123.67 2312.69 1202.5C2322.51 1208.1 2332.81 1213.94 2343.9 1219.71C2431.35 1265.71 2553.66 1337.27 2717.82 1412.48M180.017 513.415C238.252 567.462 313.066 625.593 364.665 725.676C409.085 811.84 416.97 886.25 483.986 910.625C591.966 949.542 701.925 806.275 910.456 733.269C925.527 727.994 940.74 724.08 955.638 720.216C1109.66 680.193 1166.85 710.035 1237.83 757.503C1303.91 801.695 1350.29 872.999 1414.21 939.347C1510.64 1039.46 1586.94 1095.64 1713.39 1092.99C1789.57 1091.39 1865.38 1074.82 1938.66 1078.75C2113.84 1088 2167.81 1132.05 2304.1 1211.89C2313.83 1217.59 2324.07 1223.47 2335.14 1229.21C2422.02 1274.75 2545.85 1341.39 2719.17 1396.06M188.153 498.299C243.098 556.515 314.511 617.929 364.406 718.004C407.679 804.8 416.719 878.975 483.507 903.216C592.045 942.246 702.483 797.618 909.42 726.866C924.483 721.719 939.712 717.954 954.649 714.253C1107.89 676.251 1163.71 709.227 1234.34 758.764C1298.94 804.084 1345.65 875.147 1411.23 939.857C1510.47 1037.78 1589.82 1087.78 1715.84 1082.84C1792.14 1079.85 1867.77 1063.44 1940.58 1069.51C2114.63 1083.88 2161.09 1140.43 2295.51 1221.29C2305.15 1227.09 2315.34 1233 2326.37 1238.71C2412.69 1283.79 2538.05 1345.51 2720.5 1379.66M196.29 483.183C247.936 545.568 315.949 610.264 364.147 710.325C406.258 797.752 416.468 871.693 483.036 895.799C592.131 934.943 703.049 788.96 908.391 720.457C923.447 715.43 938.691 711.821 953.668 708.283C1106.12 672.28 1160.62 708.375 1230.86 760.026C1293.99 806.451 1341.01 877.28 1408.25 940.367C1510.3 1036.1 1592.47 1075.36 1718.29 1072.69C1794.84 1071.07 1870.15 1052.06 1942.5 1060.27C2115.42 1079.77 2154.38 1148.81 2286.92 1230.67C2296.47 1236.58 2306.6 1242.53 2317.62 1248.21C2403.37 1292.81 2530.24 1349.62 2721.85 1363.24M204.426 468.075C252.781 534.636 317.37 602.615 363.887 702.662C404.828 790.727 416.208 864.42 482.556 888.392C592.209 927.649 703.614 780.326 907.354 714.056C922.409 709.156 937.653 705.697 952.678 702.329C1104.33 668.311 1157.54 707.526 1227.37 761.303C1289.06 808.813 1336.38 879.43 1405.29 940.893C1510.15 1034.42 1595.25 1067.51 1720.74 1062.56C1797.47 1059.54 1872.54 1040.68 1944.42 1051.05C2116.22 1075.67 2147.65 1157.23 2278.32 1240.08C2287.8 1246.09 2297.86 1252.08 2308.86 1257.73C2394.05 1301.87 2522.44 1353.76 2723.19 1346.84M212.562 452.959C257.619 523.689 318.791 594.958 363.628 694.983C403.391 783.686 415.957 857.139 482.085 880.975C592.296 920.346 704.187 771.69 906.325 707.646C921.373 702.882 936.633 699.556 951.696 696.359C1102.56 664.319 1154.5 706.632 1223.88 762.558C1284.16 811.146 1331.74 881.556 1402.31 941.396C1509.99 1032.71 1598.02 1059.64 1723.19 1052.41C1800.1 1047.97 1874.93 1029.3 1946.34 1041.8C2117.01 1071.55 2140.93 1165.62 2269.73 1249.47C2279.12 1255.58 2289.12 1261.61 2300.09 1267.22C2384.72 1310.89 2514.63 1357.88 2724.52 1330.43M220.699 437.843C262.465 512.749 320.19 587.307 363.369 687.312C401.939 776.653 415.706 849.864 481.606 873.566C592.375 913.05 704.761 763.075 905.289 701.243C920.337 696.607 935.596 693.43 950.707 690.403C1100.78 660.327 1151.49 705.731 1220.39 763.834C1279.27 813.478 1327.11 883.697 1399.33 941.92C1509.84 1031.01 1600.79 1051.77 1725.64 1042.28C1802.72 1036.42 1877.32 1017.93 1948.26 1032.58C2117.8 1067.45 2134.19 1174.05 2261.13 1258.87C2270.43 1265.08 2280.37 1271.15 2291.33 1276.73C2375.39 1319.93 2506.81 1362 2725.86 1314.02M228.835 422.734C267.302 501.808 321.587 579.664 363.102 679.647C400.469 769.633 415.446 842.596 481.119 866.156C592.445 905.754 705.326 754.467 904.244 694.841C919.284 690.331 934.559 687.297 949.709 684.44C1098.98 656.306 1148.49 704.809 1216.9 765.095C1274.41 815.789 1322.48 885.81 1396.35 942.43C1509.69 1029.3 1603.54 1043.87 1728.08 1032.13C1805.34 1024.85 1879.69 1006.55 1950.17 1023.34C2118.59 1063.34 2127.45 1182.47 2252.54 1268.27C2261.74 1274.58 2271.63 1280.69 2282.57 1286.23C2366.07 1328.96 2499.01 1366.12 2727.2 1297.61M236.972 407.617C272.148 490.868 322.962 572.013 362.843 671.968C399.001 762.599 415.195 835.314 480.648 858.74C592.531 898.451 705.915 745.874 903.215 688.431C918.255 684.056 933.53 681.157 948.727 678.469C1097.19 652.272 1145.56 703.859 1213.41 766.357C1269.58 818.086 1317.86 887.929 1393.37 942.933C1509.55 1027.57 1606.31 1035.96 1730.53 1021.99C1807.96 1013.27 1882.08 995.165 1952.09 1014.1C2119.37 1059.22 2120.7 1190.89 2243.94 1277.66C2253.06 1284.08 2262.89 1290.22 2273.81 1295.74C2356.74 1338 2491.2 1370.25 2728.54 1281.21M245.108 392.503C276.986 479.923 324.336 564.364 362.584 664.298C397.525 755.582 414.944 828.041 480.169 851.332C592.61 891.156 706.504 737.297 902.179 682.03C917.211 677.783 932.502 675.018 947.738 672.515C1095.4 648.239 1142.64 702.91 1209.93 767.635C1264.78 820.391 1313.24 890.05 1390.4 943.459C1509.41 1025.85 1609.07 1028.06 1732.97 1011.86C1810.57 1001.7 1884.46 983.794 1954.01 1004.88C2120.16 1055.13 2113.95 1199.34 2235.35 1287.06C2244.38 1293.58 2254.15 1299.76 2265.04 1305.25C2347.4 1347.04 2483.38 1374.38 2729.87 1264.81M253.244 377.387C281.832 468.975 325.694 556.721 362.324 656.619C396.032 748.548 414.692 820.759 479.697 843.908C592.696 883.839 707.093 728.717 901.142 675.62C916.173 671.508 931.465 668.878 946.748 666.545C1093.6 644.176 1139.77 701.931 1206.43 768.889C1259.98 822.674 1308.61 892.149 1387.41 943.962C1509.27 1024.09 1611.81 1020.14 1735.41 1001.7C1813.17 990.104 1886.84 972.407 1955.91 995.641C2120.94 1051.01 2107.17 1207.77 2226.74 1296.46C2235.68 1303.08 2245.39 1309.3 2256.27 1314.75C2338.06 1356.08 2475.57 1378.5 2731.2 1248.39M261.381 362.277C286.67 458.042 327.045 549.085 362.065 648.954C394.532 741.535 414.441 813.492 479.218 836.506C592.775 876.55 707.682 720.166 900.105 669.225C915.137 665.247 930.436 662.744 945.759 660.596C1091.81 640.113 1136.92 700.966 1202.94 770.172C1255.22 824.978 1304 894.261 1384.44 944.494C1509.15 1022.36 1614.55 1012.22 1737.87 991.578C1815.79 978.533 1889.24 961.049 1957.85 986.424C2121.75 1046.92 2100.41 1216.24 2218.16 1305.87C2227.01 1312.61 2236.66 1318.85 2247.52 1324.27C2328.74 1365.13 2467.77 1382.64 2732.55 1232.01M269.518 347.161C291.516 447.095 328.389 541.441 361.806 641.283C393.017 734.516 414.182 806.21 478.748 829.096C592.862 869.254 708.287 711.622 899.077 662.822C914.101 658.979 929.408 656.604 944.777 654.633C1090.03 636.029 1134.13 699.966 1199.46 771.434C1250.49 827.26 1299.38 896.352 1381.47 945.004C1509.02 1020.6 1617.3 1004.28 1740.32 981.432C1818.4 966.926 1891.62 949.662 1959.76 977.185C2122.53 1042.8 2093.63 1224.69 2209.57 1315.26C2218.32 1322.1 2227.93 1328.38 2238.77 1333.77C2319.42 1374.16 2459.97 1386.76 2733.89 1215.59M277.662 332.047C296.37 436.156 329.724 533.8 361.555 633.606C391.501 727.491 413.939 798.93 478.277 821.675C592.948 861.946 708.884 703.087 898.048 656.407C913.072 652.699 928.387 650.444 943.796 648.665C1088.25 631.925 1131.37 698.961 1195.98 772.697C1245.79 829.545 1294.77 898.438 1378.5 945.516C1508.9 1018.83 1620.04 996.337 1742.78 971.288C1821 955.321 1894.02 938.284 1961.7 967.948C2123.33 1038.69 2086.86 1233.14 2200.98 1324.65C2209.64 1331.6 2219.19 1337.92 2230.01 1343.27C2310.1 1383.2 2452.17 1390.88 2735.24 1199.18M285.798 316.938C301.207 425.216 331.035 526.163 361.295 625.941C389.961 720.479 413.687 791.662 477.805 814.272C593.034 854.657 709.488 694.579 897.018 650.011C912.043 646.445 927.357 644.311 942.813 642.709C1086.46 627.82 1128.64 697.954 1192.5 773.973C1241.11 831.841 1290.16 900.536 1375.53 946.033C1508.77 1017.05 1622.76 988.388 1745.23 961.148C1823.6 943.714 1896.41 926.911 1963.61 958.717C2124.12 1034.59 2080.06 1241.61 2192.39 1334.05C2200.97 1341.11 2210.45 1347.46 2221.25 1352.78C2300.78 1392.23 2444.36 1395.01 2736.58 1182.78M293.935 301.821C306.053 414.269 332.347 518.513 361.036 618.262C388.414 713.459 413.436 784.38 477.326 806.856C593.113 847.354 710.085 686.071 895.982 643.602C910.998 640.17 926.329 638.156 941.824 636.738C1084.68 623.686 1125.95 696.932 1189 775.227C1236.44 834.124 1285.54 902.599 1372.54 946.536C1508.64 1015.26 1625.47 980.419 1747.67 950.995C1826.19 932.086 1898.79 915.517 1965.52 949.471C2124.9 1030.47 2073.25 1250.07 2183.78 1343.43C2192.26 1350.59 2201.7 1356.98 2212.48 1362.26C2291.44 1401.25 2436.54 1399.11 2737.91 1166.35M302.071 286.705C310.891 403.328 333.643 510.869 360.778 610.59C386.86 706.44 413.185 777.106 476.855 799.446C593.199 840.058 710.691 677.584 894.954 637.199C909.97 633.909 925.3 632.009 940.843 630.782C1082.91 619.552 1123.29 695.925 1185.52 776.503C1231.8 836.428 1280.93 904.683 1369.58 947.06C1508.51 1013.47 1628.19 972.47 1750.13 940.863C1828.78 920.48 1901.18 904.151 1967.45 940.246C2125.7 1026.37 2066.45 1258.54 2175.2 1352.84C2183.59 1360.12 2192.97 1366.53 2203.72 1371.79C2282.12 1410.31 2428.74 1403.25 2739.25 1149.96M310.207 271.589C315.736 392.381 334.93 503.219 360.518 602.918C385.288 699.42 412.933 769.831 476.375 792.03C593.277 832.755 711.287 669.096 893.916 630.789C908.932 627.641 924.271 625.855 939.852 624.812C1081.13 615.39 1120.67 694.897 1182.03 777.758C1227.17 838.717 1276.3 906.739 1366.59 947.563C1508.37 1011.66 1630.88 964.487 1752.57 930.71C1831.36 908.845 1903.57 892.765 1969.36 931.001C2126.49 1022.25 2059.61 1267.01 2166.6 1362.23C2174.89 1369.61 2184.22 1376.05 2194.96 1381.28C2272.79 1419.33 2420.92 1407.36 2740.58 1133.55M318.344 256.481C320.574 381.45 336.203 495.577 360.259 595.248C383.702 692.395 412.682 762.558 475.904 784.622C593.364 825.46 711.892 660.639 892.888 624.388C907.904 621.382 923.25 619.702 938.871 618.858C1079.37 611.236 1118.08 693.884 1178.55 779.035C1222.58 841.037 1271.69 908.817 1363.63 948.089C1508.26 1009.86 1633.59 956.526 1755.04 920.58C1833.95 897.225 1905.97 881.393 1971.3 921.778C2127.3 1018.15 2052.81 1275.5 2158.02 1371.63C2166.22 1379.12 2175.5 1385.6 2186.22 1390.79C2263.47 1428.37 2413.14 1411.49 2741.94 1117.14M326.48 241.365C325.42 370.502 337.468 487.927 360 587.577C382.108 685.376 412.431 755.283 475.426 777.213C593.443 818.164 712.489 652.195 891.851 617.985C906.86 615.121 922.222 613.547 937.882 612.895C1077.61 607.053 1115.52 692.863 1175.06 780.304C1217.99 843.355 1267.06 910.88 1360.65 948.606C1508.11 1008.05 1636.27 948.549 1757.48 910.441C1836.51 885.597 1908.35 870.021 1973.21 912.554C2128.08 1014.05 2045.95 1283.99 2149.42 1381.04C2157.52 1388.64 2166.76 1395.15 2177.45 1400.3C2254.14 1437.42 2405.33 1415.62 2743.28 1100.74M334.616 226.249C330.258 359.555 338.724 480.269 359.74 579.898C380.498 678.342 412.171 747.994 474.946 769.789C593.521 810.854 713.077 643.75 890.814 611.569C905.822 608.853 921.184 607.379 936.892 606.918C1075.85 602.848 1112.99 691.827 1171.57 781.551C1213.42 845.666 1262.43 912.915 1357.67 949.095C1507.97 1006.2 1638.94 940.537 1759.93 900.273C1839.07 873.941 1910.73 858.612 1975.12 903.294C2128.87 1009.91 2039.1 1292.45 2140.82 1390.41C2148.82 1398.12 2158.01 1404.66 2168.68 1409.79C2244.8 1446.44 2397.51 1419.73 2744.6 1084.32M342.753 211.141C335.104 348.623 339.973 472.62 359.481 572.235C378.88 671.324 411.92 740.728 474.475 762.388C593.608 803.567 713.675 635.336 889.778 605.182C904.786 602.608 920.156 601.24 935.902 600.977C1074.1 598.666 1110.51 690.836 1168.08 782.843C1208.87 848.028 1257.87 914.823 1354.69 949.635C1507.94 1004.13 1641.6 932.576 1762.38 890.164C1841.63 862.336 1913.12 847.27 1977.04 894.092C2129.65 1005.84 2032.24 1300.97 2132.22 1399.84C2140.12 1407.66 2149.27 1414.24 2159.91 1419.33C2235.48 1455.51 2389.7 1423.88 2745.94 1067.95M350.89 196.025C339.942 337.676 341.002 464.991 359.215 564.563C377.035 664.326 411.662 733.454 473.988 754.979C593.679 796.271 714.311 627.189 888.734 598.779C903.742 596.383 919.119 595.078 934.905 595.014C1072.34 594.447 1108.02 689.829 1164.58 784.112C1204.33 850.375 1253.19 916.957 1351.7 950.152C1507.71 1002.43 1644.17 924.416 1764.81 880.025C1844.12 850.587 1915.49 835.897 1978.95 884.86C2130.43 1001.73 2025.21 1309.58 2123.62 1409.24C2131.41 1417.17 2140.52 1423.77 2151.15 1428.83C2226.14 1464.54 2381.88 1428 2747.28 1051.53M359.026 180.909C330.439 473.704 349.79 704.959 473.517 747.555C604.202 792.556 735.877 587.343 933.923 589.037C1165.98 591.022 1104.88 873.786 1348.73 950.648C1612.32 1033.73 1822.45 747.066 1980.87 875.608C2143.23 1007.34 1998.8 1370.33 2142.39 1438.31C2216.82 1473.56 2374.08 1432.12 2748.62 1035.11M363.102 175.911C353.025 294.356 351.007 404.273 359.67 497.485C371.717 629.295 407.718 721.174 478.464 749.612C561.156 782.85 642.646 712.9 745.521 659.115C801.266 629.968 863.201 604.097 933.255 602.707C1140.36 598.609 1120.35 812.422 1286.6 913.625C1306.46 925.614 1328.62 936.405 1353.92 945.083C1479.23 988.041 1590.26 949.989 1694.04 907.478C1753.22 883.386 1807.88 857.111 1858.33 850.666C1902.86 844.98 1943.33 853.069 1980.5 885.619C2052.96 948.727 2060.45 1061.31 2064.15 1168.53C2068.18 1292.4 2066.02 1410.23 2148.06 1442.74C2226.35 1473.76 2387.07 1429.02 2762.34 1035.19M367.17 170.911C358.664 288.527 358.319 399.308 367.57 495.463C379.908 627.776 415.305 720.117 483.412 751.667C563.999 788.996 641.577 725.377 743.667 674.429C799.264 646.678 861.842 619.758 932.595 616.369C1139.02 606.485 1125.82 807.799 1291.78 906.988C1311.92 919.019 1334.06 930.214 1359.12 939.516C1482.46 985.297 1589.62 955.086 1694.76 914.184C1754.91 890.78 1810.08 862.555 1860.7 857.102C1905.02 852.324 1944.24 861.902 1980.13 895.629C2049.73 961.049 2055.45 1075.57 2060.2 1182.14C2065.14 1304.67 2066.7 1418.69 2153.73 1447.15C2235.8 1473.99 2400.07 1425.91 2776.07 1035.26M371.246 165.92C364.303 282.707 365.631 394.339 375.471 493.45C388.1 626.267 422.931 719.16 488.352 753.723C566.921 795.235 640.533 737.856 741.799 689.743C797.261 663.397 860.452 635.441 931.92 630.031C1137.6 614.462 1131.51 802.871 1296.95 900.352C1317.38 912.39 1339.49 924.018 1364.3 933.951C1485.67 982.518 1589.03 960.298 1695.46 920.898C1756.63 898.253 1812.27 868.007 1863.06 863.54C1907.18 859.662 1945.21 870.694 1979.74 905.634C2046.58 973.258 2050.77 1089.8 2056.22 1195.76C2062.45 1316.92 2067.28 1427.19 2159.39 1451.57C2245.16 1474.27 2413.06 1422.81 2789.8 1035.34M375.322 160.923C369.942 276.879 373.217 389.348 383.372 491.43C396.637 624.722 430.588 718.295 493.3 755.78C569.92 801.574 639.512 750.342 739.937 705.065C795.274 680.116 859.046 651.16 931.253 643.702C1136.13 622.531 1137.23 797.923 1302.13 893.723C1322.85 905.762 1344.91 917.822 1369.5 928.393C1488.87 979.725 1588.46 965.523 1696.18 927.62C1758.36 905.733 1814.46 873.467 1865.43 869.993C1909.34 867.001 1946.18 879.486 1979.37 915.659C2043.45 985.482 2045.88 1104.06 2052.26 1209.38C2059.52 1329.2 2067.81 1435.75 2165.07 1455.99C2254.46 1474.61 2426.06 1419.71 2803.55 1035.42M379.391 155.923C375.581 271.05 380.576 384.37 391.265 489.408C404.884 623.196 438.254 717.529 498.24 757.828C572.96 808.025 638.507 762.834 738.068 720.372C793.295 696.819 857.617 666.885 930.578 657.356C1134.62 630.69 1142.96 792.945 1307.3 887.079C1328.32 899.125 1350.33 911.603 1374.68 922.812C1492.07 976.88 1587.89 970.733 1696.89 934.312C1760.08 913.191 1816.64 878.883 1867.8 876.408C1911.49 874.295 1947.14 888.234 1979 925.648C2040.31 997.661 2040.98 1118.28 2048.3 1222.97C2056.58 1341.44 2068.27 1444.32 2170.73 1460.39C2263.72 1474.97 2439.05 1416.58 2817.27 1035.47M383.466 150.925C381.22 265.223 387.943 379.4 399.174 487.395C413.137 621.687 445.927 716.877 503.196 759.885C576.039 814.591 637.549 775.334 736.214 735.687C791.339 713.537 856.187 682.653 929.925 671.012C1133.12 638.944 1148.74 787.947 1312.49 880.429C1333.82 892.475 1355.79 905.379 1379.89 917.233C1495.3 974.01 1587.35 975.952 1697.61 941.013C1761.84 920.658 1818.83 884.3 1870.18 882.839C1913.65 881.606 1948.13 896.998 1978.64 935.646C2037.2 1009.84 2036.09 1132.51 2044.35 1236.58C2053.64 1353.7 2068.72 1452.97 2176.41 1464.8C2272.95 1475.41 2452.06 1413.47 2831.02 1035.54M387.535 145.927C386.859 259.396 395.302 374.424 407.067 485.375C421.361 620.163 453.569 716.317 508.136 761.941C579.102 821.27 636.591 787.855 734.346 751.009C789.392 730.263 854.735 698.451 929.25 684.682C1131.55 647.303 1154.5 782.942 1317.66 873.8C1339.29 885.846 1361.21 899.161 1385.08 911.675C1498.5 971.132 1586.79 981.199 1698.32 947.728C1763.57 928.145 1821.04 891.518 1872.55 889.278C1915.74 887.406 1949.11 905.762 1978.26 945.657C2034.06 1022.01 2031.18 1146.76 2040.37 1250.19C2050.67 1365.96 2069.11 1461.68 2182.08 1469.22C2282.14 1475.9 2465.05 1410.36 2844.75 1035.61M391.61 140.928C392.498 253.566 402.653 369.445 414.967 483.353C429.591 618.644 461.178 715.848 513.075 763.989C582.141 828.055 635.656 800.375 732.476 766.315C787.452 746.973 853.273 714.26 928.574 698.336C1129.98 655.746 1160.28 777.907 1322.83 867.156C1344.76 879.202 1366.63 892.935 1390.26 906.101C1501.7 968.202 1586.23 986.438 1699.03 954.434C1765.31 935.631 1823.16 897.118 1874.91 895.714C1917.9 894.545 1950.07 914.517 1977.88 955.667C2030.94 1034.17 2026.25 1161 2036.41 1263.81C2047.7 1378.22 2069.5 1470.44 2187.74 1473.64C2291.32 1476.44 2478.04 1407.26 2858.47 1035.69M395.687 135.93C398.145 247.739 410.012 364.469 422.876 481.333C437.822 617.128 468.749 715.466 518.031 766.046C585.157 834.939 634.768 812.918 730.63 781.63C785.551 763.699 851.828 730.114 927.923 711.999C1128.43 664.276 1166.09 772.859 1328.02 860.52C1350.26 872.559 1372.07 886.703 1395.47 900.536C1504.93 965.261 1585.7 991.692 1699.75 961.148C1767.06 943.119 1825.32 900.536 1877.29 902.153C1920.06 903.486 1951.06 923.274 1977.52 965.679C2027.84 1046.33 2021.34 1175.24 2032.46 1277.43C2044.75 1390.48 2070.02 1473.04 2193.43 1478.06C2300.42 1482.41 2491.06 1404.17 2872.22 1035.76M399.755 130.93C403.776 241.91 417.355 359.498 430.769 479.311C446.029 615.602 476.258 715.146 522.971 768.094C588.094 841.908 633.889 825.473 728.761 796.943C783.643 780.438 850.36 745.987 927.247 725.66C1126.85 672.897 1171.91 767.796 1333.19 853.883C1355.74 865.915 1377.5 880.463 1400.65 894.962C1508.15 962.289 1585.15 996.945 1700.46 967.847C1768.8 950.605 1827.46 905.916 1879.66 908.582C1922.19 910.752 1952.04 932.015 1977.14 975.675C2024.72 1058.47 2016.41 1189.47 2028.48 1291.02C2041.76 1402.72 2070.28 1488.08 2199.09 1482.46C2309.7 1477.63 2504.05 1401.05 2885.95 1035.82M403.831 125.939C409.423 236.09 424.698 354.528 438.67 477.298C454.244 614.093 483.711 714.905 527.919 770.158C590.969 848.963 633.041 838.065 726.9 812.265C781.75 797.185 848.907 761.898 926.58 739.33C1125.29 681.603 1177.73 762.72 1338.36 847.247C1361.22 859.272 1382.93 874.225 1405.84 889.397C1511.38 959.29 1584.62 1002.21 1701.17 974.562C1770.55 958.106 1829.62 911.305 1882.03 915.02C1924.33 918.026 1953.03 940.764 1976.77 985.686C2021.63 1070.62 2011.48 1203.7 2024.52 1304.64C2038.77 1414.99 2070.67 1496.98 2204.75 1486.89C2318.88 1478.29 2517.04 1397.95 2899.68 1035.9M407.899 120.942C415.062 230.262 432.026 349.558 446.563 475.278C462.435 612.576 491.093 714.693 532.859 772.207C593.757 856.082 632.208 850.665 725.031 827.573C779.873 813.932 847.439 777.822 925.913 752.986C1123.75 690.367 1183.58 757.616 1343.54 840.604C1366.71 852.622 1388.36 867.972 1411.03 883.825C1514.62 956.27 1584.07 1007.47 1701.87 981.27C1772.29 965.601 1831.76 916.673 1884.38 921.458C1926.44 925.28 1954.01 949.507 1976.38 995.698C2018.53 1082.76 2006.53 1217.94 2020.54 1318.26C2035.76 1427.24 2071.07 1505.91 2210.41 1491.3C2328.07 1478.97 2530.03 1394.84 2913.4 1035.98M411.976 115.944C420.701 224.435 439.361 344.582 454.472 473.265C470.643 611.066 498.437 714.538 537.807 774.271C596.459 863.257 631.407 863.307 723.17 842.902C778.012 830.707 845.994 793.79 925.245 766.663C1122.22 699.23 1189.44 752.512 1348.72 833.983C1372.2 845.993 1393.81 861.74 1416.23 878.274C1517.88 953.244 1583.55 1012.77 1702.59 987.992C1774.05 973.117 1833.91 922.048 1886.76 927.904C1928.58 932.541 1955.03 958.256 1976.01 1005.72C2015.46 1094.89 2001.59 1232.19 2016.59 1331.88C2032.77 1439.5 2071.49 1514.86 2216.08 1495.73C2337.27 1479.68 2543.03 1391.75 2927.13 1036.05M416.044 110.944C426.34 218.606 446.689 339.611 462.365 471.243C478.834 609.548 505.702 714.388 542.747 776.319C599.066 870.467 630.622 875.954 721.301 858.208C776.159 847.474 844.549 809.762 924.57 780.318C1120.71 708.127 1195.29 747.377 1353.89 827.338C1377.68 839.335 1399.24 855.478 1421.41 872.7C1521.15 950.172 1583.01 1018.05 1703.3 994.698C1775.8 980.624 1836.05 927.392 1889.13 934.341C1930.7 939.779 1956.03 966.99 1975.64 1015.72C2012.39 1107.02 1996.64 1246.42 2012.62 1345.49C2029.76 1451.76 2071.91 1523.85 2221.75 1500.14C2346.49 1480.41 2556.02 1388.64 2940.87 1036.13M420.119 105.946C431.978 212.778 454.016 334.634 470.265 469.223C487.025 608.031 512.918 714.268 547.694 778.375C601.586 877.706 629.86 888.639 719.447 873.523C774.328 864.264 843.126 825.772 923.909 793.974C1119.24 717.09 1201.18 742.224 1359.07 820.696C1383.18 832.678 1404.7 849.212 1426.61 867.121C1524.44 947.082 1582.49 1023.33 1704.02 1001.39C1777.55 988.119 1838.2 932.725 1891.5 940.758C1932.83 946.99 1957.03 975.711 1975.27 1025.71C2009.34 1119.13 1991.69 1260.64 2008.66 1359.08C2026.75 1464 2072.36 1532.83 2227.43 1504.54C2355.73 1481.14 2569.03 1385.51 2954.6 1036.18M424.195 100.948C437.625 206.951 461.343 329.665 478.166 467.203C495.208 606.515 520.073 714.148 552.642 780.425C604.005 884.967 629.114 901.352 717.585 888.838C772.498 881.068 841.713 841.803 923.242 807.636C1117.79 726.116 1207.07 737.056 1364.25 814.053C1388.67 826.014 1410.14 842.945 1431.8 861.549C1527.75 943.977 1581.96 1028.62 1704.73 1008.1C1779.31 995.635 1840.36 938.05 1893.87 947.196C1934.96 954.215 1958.04 984.447 1974.9 1035.72C2006.29 1131.25 1986.72 1274.87 2004.69 1372.7C2023.72 1476.26 2072.82 1541.86 2233.09 1508.96C2364.96 1481.9 2582.02 1382.42 2968.33 1036.26M428.264 95.9488C443.256 201.122 468.655 324.693 486.067 465.182C503.392 604.996 527.189 714.033 557.59 782.48C606.338 892.233 628.383 914.099 715.724 904.151C770.684 897.891 840.315 857.854 922.574 821.298C1116.37 735.183 1212.96 731.879 1369.43 807.416C1394.16 819.362 1415.59 836.676 1436.99 855.982C1531.07 940.863 1581.44 1033.93 1705.45 1014.81C1781.07 1003.16 1842.51 943.373 1896.24 953.64C1937.09 961.439 1959.06 993.188 1974.52 1045.73C2003.24 1143.37 1981.75 1289.12 2000.73 1386.31C2020.68 1488.52 2073.29 1550.9 2238.77 1513.37C2374.21 1482.66 2595.02 1379.31 2982.07 1036.33M432.34 90.951C448.903 195.294 475.967 319.724 493.968 463.161C511.576 603.48 534.249 713.92 562.53 784.53C608.584 899.508 627.661 926.875 713.855 919.459C768.87 914.73 838.917 873.92 921.907 834.954C1114.99 744.294 1218.86 726.675 1374.6 800.773C1399.66 812.698 1421.05 830.402 1442.18 850.41C1534.41 937.723 1580.91 1039.23 1706.15 1021.51C1782.81 1010.67 1844.65 948.677 1898.61 960.064C1939.22 968.636 1960.09 1001.91 1974.14 1055.73C2000.2 1155.48 1976.77 1303.34 1996.76 1399.91C2017.64 1500.76 2073.77 1559.94 2244.44 1517.78C2383.48 1483.43 2608.01 1376.19 2995.81 1036.39M436.408 85.96C454.535 189.474 483.271 314.761 501.861 461.148C519.744 601.97 541.263 713.8 567.47 786.586C610.744 906.776 626.946 939.695 711.986 934.781C767.056 931.598 837.543 890.015 921.232 848.624C1113.64 753.462 1224.78 721.479 1379.78 794.144C1405.16 806.041 1426.51 824.135 1447.37 844.852C1537.77 934.59 1580.39 1044.56 1706.87 1028.23C1784.57 1018.21 1846.81 953.988 1900.98 966.516C1941.35 975.854 1961.11 1010.66 1973.77 1065.75C1997.18 1167.62 1971.79 1317.59 1992.8 1413.55C2014.6 1513.04 2074.27 1569.03 2250.11 1522.22C2392.75 1484.24 2621.01 1373.11 3009.53 1036.49M440.484 80.9604C460.181 183.645 490.583 309.783 509.762 459.134C527.919 600.458 548.253 713.672 572.418 788.648C612.841 914.049 626.491 943.834 710.125 950.102C765.101 954.221 836.192 906.129 920.564 862.292C1112.33 762.656 1230.7 716.259 1384.95 787.514C1410.65 799.383 1431.97 817.866 1452.56 839.285C1541.15 931.441 1579.87 1049.88 1707.58 1034.95C1786.33 1025.74 1848.97 959.283 1903.35 972.953C1943.49 983.042 1962.14 1019.39 1973.4 1075.76C1994.16 1179.74 1966.78 1331.83 1988.83 1427.16C2011.53 1525.3 2074.77 1578.1 2255.77 1526.63C2402.03 1485.03 2634 1370 3023.26 1036.56M444.561 75.9626C465.82 177.817 497.887 304.813 517.67 457.114C536.095 598.949 555.211 713.523 577.374 790.698C614.875 921.288 626.098 956.866 708.279 965.409C763.114 971.11 834.865 922.253 919.912 875.948C1111.07 771.874 1236.64 711.013 1390.14 780.864C1416.17 792.704 1437.45 811.578 1457.77 833.706C1544.56 928.265 1579.35 1055.19 1708.31 1041.64C1788.11 1033.26 1851.15 964.552 1905.74 979.377C1945.65 990.217 1963.2 1028.11 1973.04 1085.76C1991.17 1191.84 1961.81 1346.06 1984.89 1440.76C2008.48 1537.54 2075.31 1587.18 2261.46 1531.04C2411.34 1485.83 2647.02 1366.88 3037.02 1036.61M448.629 70.9647C471.46 171.99 505.175 299.851 525.564 455.093C544.255 597.432 562.123 713.361 582.314 792.754C616.831 928.521 625.667 970.018 706.41 980.724C761.111 987.977 833.546 938.39 919.237 889.611C1109.82 781.12 1242.57 705.767 1395.31 774.228C1421.66 786.04 1442.92 805.297 1462.96 828.141C1547.96 925.096 1578.82 1060.52 1709.01 1048.36C1789.85 1040.8 1853.31 969.827 1908.09 985.815C1947.78 997.4 1964.22 1036.86 1972.66 1095.77C1988.15 1203.97 1956.78 1360.3 1980.91 1454.37C2005.39 1549.81 2075.83 1596.28 2267.12 1535.45C2420.63 1486.64 2660.01 1363.78 3050.73 1036.69M452.704 65.9652C477.098 166.161 512.471 294.88 533.464 453.072C552.414 595.921 569.025 713.182 587.253 794.802C618.731 935.723 624.126 991.316 704.54 996.038C759.854 999.285 832.233 954.54 918.561 903.272C1108.61 790.392 1248.51 700.498 1400.48 767.591C1427.15 779.367 1448.39 799.014 1468.13 822.574C1551.39 921.919 1578.28 1065.86 1709.71 1055.06C1791.59 1048.33 1855.47 975.087 1910.45 992.252C1949.91 1004.57 1965.25 1045.59 1972.27 1105.78C1985.15 1216.1 1951.75 1374.55 1976.94 1467.98C2002.31 1562.07 2076.37 1605.38 2272.78 1539.87C2429.93 1487.45 2673 1360.67 3064.46 1036.76M456.772 60.9673C482.737 160.334 519.759 289.91 541.357 451.052C560.575 594.404 575.889 712.991 592.193 796.859C620.585 942.913 623.404 1004.31 702.671 1011.35C758.04 1016.27 830.945 970.713 917.894 916.935C1107.45 799.688 1254.46 695.224 1405.65 760.955C1432.66 772.696 1453.88 792.733 1473.32 817.009C1554.84 918.743 1577.75 1071.21 1710.42 1061.78C1793.34 1055.88 1857.66 980.348 1912.82 998.69C1952.07 1011.74 1966.3 1054.33 1971.9 1115.78C1982.15 1228.22 1946.72 1388.79 1972.97 1481.6C1999.21 1574.34 2076.92 1614.49 2278.45 1544.29C2439.25 1488.27 2685.99 1357.56 3078.2 1036.83M460.849 55.9677C488.384 154.504 527.047 284.939 549.265 449.03C568.743 592.893 582.753 712.778 597.149 798.907C622.415 950.08 622.682 1017.33 700.818 1026.66C756.226 1033.27 829.689 986.884 917.234 930.582C1106.33 808.982 1260.42 689.912 1410.84 754.304C1438.17 766.002 1459.37 786.436 1478.52 811.421C1558.31 915.537 1577.23 1076.53 1711.14 1068.47C1795.1 1063.41 1859.85 985.572 1915.19 1005.11C1954.23 1018.9 1967.35 1063.05 1971.53 1125.78C1979.16 1240.34 1941.68 1403.03 1969.01 1495.19C1996.11 1586.6 2077.48 1623.59 2284.11 1548.69C2448.58 1489.08 2698.98 1354.44 3091.93 1036.9M464.925 50.9699C494.023 148.677 534.336 279.97 557.166 447.01C576.903 591.376 589.594 712.551 602.097 800.964C624.19 957.227 621.936 1030.4 698.957 1041.98C754.396 1050.32 828.448 1003.08 916.567 944.252C1105.24 818.313 1266.38 684.617 1416.02 747.668C1443.68 759.324 1464.87 780.147 1483.72 805.856C1561.81 912.347 1576.72 1081.88 1711.86 1075.18C1796.87 1070.96 1862.05 990.805 1917.57 1011.54C1956.4 1026.04 1968.41 1071.79 1971.17 1135.78C1976.19 1252.47 1936.65 1417.28 1965.06 1508.8C1993.01 1598.86 2078.06 1632.7 2289.8 1553.1C2457.92 1489.89 2711.99 1351.34 3105.67 1036.96M468.993 45.972C499.662 142.85 541.608 275.007 565.059 444.997C585.047 589.874 596.411 712.311 607.029 803.02C625.918 964.346 621.143 1043.48 697.088 1057.3C752.542 1067.38 827.207 1019.27 915.891 957.915C1104.17 827.651 1272.34 679.3 1421.19 741.032C1449.18 752.639 1470.36 773.866 1488.9 800.291C1565.31 909.165 1576.18 1087.24 1712.57 1081.89C1798.61 1078.52 1864.25 996.045 1919.94 1017.99C1958.56 1033.21 1969.45 1080.54 1970.78 1145.8C1973.2 1264.61 1931.58 1431.54 1961.08 1522.43C1989.88 1611.15 2078.64 1641.84 2295.45 1557.53C2467.25 1490.73 2724.97 1348.25 3119.39 1037.05M473.069 40.9811C505.301 137.029 548.889 270.045 572.968 442.984C593.207 588.364 603.236 712.063 611.985 805.084C627.646 971.458 620.357 1056.61 695.234 1072.62C750.681 1084.48 826.006 1035.49 915.232 971.585C1103.15 837.003 1278.32 673.976 1426.37 734.404C1454.69 745.96 1475.87 767.585 1494.1 794.733C1568.84 905.989 1575.66 1092.6 1713.28 1088.61C1800.37 1086.08 1866.46 1001.28 1922.31 1024.43C1960.73 1040.37 1970.52 1089.29 1970.41 1155.81C1970.23 1276.75 1926.52 1445.81 1957.12 1536.04C1986.76 1623.43 2079.23 1650.96 2301.13 1561.95C2476.61 1491.55 2737.98 1345.14 3133.14 1037.13M477.138 35.9815C510.94 131.207 555.769 265.123 580.861 440.962C601.037 586.888 610.03 711.778 616.925 807.132C629.326 978.525 619.525 1069.74 693.365 1087.93C748.789 1101.59 824.805 1051.7 914.556 985.247C1102.16 846.346 1284.28 668.636 1431.54 727.766C1460.2 739.273 1481.36 761.295 1499.29 789.166C1572.37 902.797 1575.11 1097.97 1713.99 1095.32C1802.12 1093.64 1868.68 1006.49 1924.67 1030.87C1962.91 1047.52 1971.57 1098.03 1970.04 1165.82C1967.26 1288.9 1921.45 1460.07 1953.16 1549.66C1983.62 1635.73 2079.82 1660.1 2306.8 1566.37C2485.96 1492.39 2750.98 1342.04 3146.87 1037.2M481.213 30.9837C516.578 125.38 563.088 260.154 588.761 438.942C609.228 585.372 616.822 711.488 621.872 809.188C630.991 985.58 618.676 1082.9 691.503 1103.25C746.879 1118.72 823.626 1067.92 913.896 998.91C1101.2 855.706 1290.26 663.283 1436.72 721.131C1465.71 732.581 1486.88 755.014 1504.48 783.594C1575.93 899.607 1574.59 1103.33 1714.71 1102.03C1803.88 1101.2 1870.91 1011.7 1927.05 1037.3C1965.1 1054.65 1972.64 1106.78 1969.67 1175.83C1964.29 1301.04 1916.36 1474.34 1949.19 1563.27C1980.48 1648.01 2080.42 1669.23 2312.46 1570.77C2495.31 1493.2 2763.96 1338.92 3160.59 1037.27M485.289 25.9858C522.225 119.552 570.399 255.184 596.662 436.922C617.419 583.855 623.608 711.184 626.82 811.238C632.64 992.614 617.789 1096.07 689.642 1118.55C744.948 1135.86 822.471 1084.14 913.228 1012.57C1100.27 865.058 1296.24 657.91 1441.9 714.481C1471.22 725.875 1492.4 748.711 1509.68 778.014C1579.5 896.41 1574.06 1107.93 1715.42 1108.72C1805.62 1109.22 1873.14 1016.88 1929.42 1043.73C1967.28 1061.78 1973.69 1115.51 1969.29 1185.82C1961.33 1313.17 1911.26 1488.6 1945.23 1576.87C1977.32 1660.29 2081.02 1678.34 2318.13 1575.18C2504.67 1494.02 2776.96 1335.81 3174.33 1037.32M489.357 20.9862C527.856 113.723 577.711 250.213 604.563 434.9C625.611 582.344 630.386 710.864 631.76 813.286C634.258 999.618 616.854 1109.25 687.773 1133.87C742.976 1153.03 821.317 1100.37 912.553 1026.23C1099.36 874.416 1302.21 652.527 1447.07 707.844C1476.74 719.173 1497.91 742.429 1514.87 772.448C1583.08 893.233 1573.52 1114.06 1716.13 1115.43C1807.37 1116.31 1875.38 1022.09 1931.79 1050.16C1969.47 1068.92 1974.76 1124.26 1968.92 1195.83C1958.37 1325.32 1906.16 1502.87 1941.27 1590.48C1974.17 1672.59 2081.64 1687.48 2323.81 1579.59C2514.04 1494.85 2789.97 1332.7 3188.07 1037.39M493.434 15.9884C533.503 107.896 585.031 245.243 612.464 432.88C633.802 580.827 637.164 710.524 636.708 815.343C635.876 1006.62 615.896 1122.45 685.912 1149.18C740.99 1170.21 820.186 1116.6 911.886 1039.89C1098.49 883.782 1308.2 647.14 1452.25 701.208C1482.25 712.467 1503.43 736.14 1520.06 766.883C1586.67 890.057 1572.98 1119.67 1716.85 1122.15C1809.12 1124.03 1877.64 1027.28 1934.16 1056.61C1971.67 1076.07 1975.96 1133.03 1968.55 1205.85C1955.66 1337.5 1901.05 1517.17 1937.31 1604.1C1971.01 1684.89 2082.27 1696.62 2329.48 1584.02C2523.42 1495.68 2802.97 1329.6 3201.8 1037.48M497.502 10.9905C539.134 102.069 592.335 240.274 620.357 430.867C641.978 579.317 643.926 710.191 641.648 817.399C637.478 1013.59 614.899 1135.65 684.05 1164.5C738.979 1187.4 819.079 1132.83 911.218 1053.55C1097.65 893.135 1314.18 641.731 1457.43 694.565C1487.76 705.753 1508.95 729.852 1525.24 761.31C1590.27 886.881 1572.43 1124.97 1717.55 1128.85C1810.85 1131.55 1879.88 1032.47 1936.52 1063.03C1973.86 1083.19 1976.96 1141.77 1968.16 1215.84C1952.6 1349.64 1895.9 1531.45 1933.33 1617.7C1967.82 1697.2 2083.09 1706.12 2335.14 1588.43C2532.95 1496.8 2815.95 1326.5 3215.52 1037.54M501.578 5.99094C544.781 96.2395 599.655 235.303 628.258 428.845C650.17 577.799 650.696 709.829 646.596 819.454C639.072 1020.55 613.862 1148.86 682.189 1179.82C736.937 1204.62 817.972 1149.08 910.551 1067.21C1096.82 902.499 1320.27 636.093 1462.6 687.935C1493.3 699.002 1514.55 723.548 1530.43 755.744C1594.14 883.612 1571.89 1130.28 1718.26 1135.56C1812.6 1139.07 1882.15 1037.66 1938.89 1069.48C1976.08 1090.33 1977.98 1150.53 1967.79 1225.85C1949.56 1361.79 1890.62 1545.81 1929.36 1631.32C1964.5 1709.57 2083.62 1715.08 2340.81 1592.84C2542.25 1497.48 2828.95 1323.39 3229.26 1037.61M505.646 1C550.42 90.419 606.959 230.34 636.159 426.832C699.185 851.055 576.062 1144.09 680.328 1195.13C844.022 1275.26 1255.4 605.734 1467.79 681.299C1621.79 736.091 1534.12 1133.9 1718.99 1142.28C1814.36 1146.6 1884.45 1042.85 1941.27 1075.92C2045.06 1136.33 1863.56 1513 1925.41 1644.94C1989.64 1781.97 2328.91 1681.81 3243 1037.71" stroke="#16F898" stroke-miterlimit="10"/>
</svg>
