<svg width="45" height="36" viewBox="0 0 45 36" fill="none" xmlns="http://www.w3.org/2000/svg">
<path d="M44.6571 19.67C44.6581 19.6338 44.6606 19.6 44.6551 19.5637C44.643 19.4665 44.6102 19.3738 44.5599 19.2842C44.5513 19.2671 44.5523 19.2474 44.5432 19.2318C44.5402 19.2283 44.5357 19.2273 44.5337 19.2232C44.5296 19.2187 44.5296 19.2121 44.5261 19.2076L36.4521 7.74309C36.439 7.72445 36.4183 7.71488 36.4032 7.69725C36.373 7.66149 36.3418 7.62975 36.306 7.59903C36.2884 7.58391 36.2778 7.56326 36.2591 7.54916C36.2516 7.54463 36.2445 7.54462 36.238 7.53959C36.2133 7.52397 36.1871 7.5144 36.1614 7.50131C36.1211 7.48065 36.0808 7.46554 36.037 7.45144C36.0088 7.44287 35.9821 7.42726 35.9529 7.42172C35.9227 7.41618 35.8935 7.4187 35.8632 7.41719C35.8406 7.41517 35.8219 7.40409 35.7998 7.40409H26.0428C25.731 5.94886 24.5831 4.8009 23.1268 4.48859V0.797379C23.1268 0.357133 22.7697 0 22.3284 0C21.8892 0 21.5311 0.356629 21.5311 0.797379V4.48859C20.0748 4.8009 18.9279 5.94735 18.6146 7.40409H8.85913C8.83496 7.40409 8.81531 7.41517 8.79264 7.41719C8.76443 7.4197 8.73673 7.41618 8.70953 7.42071C8.6778 7.42726 8.64959 7.44187 8.61987 7.45245C8.57605 7.46655 8.53575 7.48166 8.49444 7.50282C8.47027 7.51491 8.44508 7.52347 8.42141 7.53908C8.41385 7.54362 8.40629 7.54362 8.39874 7.54865C8.37909 7.56276 8.37003 7.58341 8.35189 7.59953C8.31563 7.62925 8.2849 7.66098 8.25468 7.69675C8.23957 7.71438 8.21942 7.72395 8.20582 7.74258L0.132796 19.2081C0.12927 19.2127 0.12927 19.2187 0.12524 19.2227C0.123225 19.2268 0.117684 19.2288 0.115669 19.2323C0.10358 19.2499 0.105092 19.2726 0.0950173 19.2912C0.0481719 19.3784 0.0154304 19.468 0.0033413 19.5622C-0.00219956 19.6005 0.00082267 19.6353 0.00082267 19.6735C0.0018301 19.7597 0.0159341 19.8408 0.0436384 19.9219C0.0511941 19.9445 0.0456533 19.9687 0.0557276 19.9914C0.0698316 20.0241 0.0914912 20.0533 0.106603 20.0861C0.106603 20.0861 0.107106 20.0891 0.108114 20.0911C1.67769 23.5118 5.09589 25.7196 8.85813 25.7196C12.6194 25.7196 16.036 23.5129 17.6061 20.0947C17.6096 20.0891 17.6117 20.0826 17.6157 20.077C17.6288 20.0468 17.6474 20.0221 17.6605 19.9919C17.6701 19.9723 17.664 19.9501 17.6716 19.9294C17.7013 19.8433 17.7164 19.7582 17.7164 19.6675C17.7164 19.6327 17.7185 19.601 17.7149 19.5668C17.7018 19.4655 17.6681 19.3693 17.6157 19.2761C17.6081 19.263 17.6091 19.2459 17.6006 19.2328C17.5986 19.2298 17.595 19.2293 17.593 19.2263C17.589 19.2202 17.589 19.2142 17.5855 19.2086L10.396 8.99985H18.6146C18.9279 10.4561 20.0748 11.603 21.5311 11.9153V31.2897H12.8954C12.4551 31.2897 12.098 31.6468 12.098 32.0871V34.9527C12.098 35.3929 12.4551 35.7501 12.8954 35.7501H31.763C32.2032 35.7501 32.5604 35.3929 32.5604 34.9527V32.0871C32.5604 31.6468 32.2032 31.2897 31.763 31.2897H23.1268V11.9153C24.5831 11.603 25.731 10.4556 26.0428 8.99985H34.2629L27.0729 19.2081C27.0694 19.2127 27.0694 19.2192 27.0654 19.2247C27.0633 19.2278 27.0588 19.2293 27.0568 19.2323C27.0462 19.2474 27.0482 19.2665 27.0392 19.2822C26.9883 19.3728 26.9561 19.467 26.944 19.5653C26.9394 19.6005 26.942 19.6333 26.942 19.6695C26.942 19.7587 26.9561 19.8418 26.9853 19.9249C26.9928 19.9476 26.9873 19.9697 26.9964 19.9914C27.011 20.0226 27.0296 20.0503 27.0447 20.0816C27.0467 20.0851 27.0487 20.0891 27.0508 20.0921C28.6198 23.5124 32.037 25.7191 35.7998 25.7191C39.562 25.7191 42.9792 23.5124 44.5483 20.0921C44.5503 20.0886 44.5523 20.0846 44.5543 20.0816C44.5689 20.0503 44.5886 20.0226 44.6027 19.9914C44.6122 19.9697 44.6067 19.9466 44.6137 19.9249C44.643 19.8413 44.6571 19.7582 44.6571 19.67ZM30.9646 34.1553H13.6938V32.8844H30.9646V34.1553ZM42.337 18.8696H29.2626L35.8003 9.58769L42.337 18.8696ZM8.85913 9.58769L15.3968 18.8696H2.32194L8.85913 9.58769ZM8.85813 24.1244C6.11692 24.1244 3.59079 22.7215 2.12247 20.4639H15.5938C14.1255 22.7215 11.5998 24.1244 8.85813 24.1244ZM22.3284 10.4082C21.1125 10.4082 20.1237 9.41844 20.1237 8.20248C20.1237 6.98651 21.1125 5.99671 22.3284 5.99671C23.5454 5.99671 24.5347 6.98651 24.5347 8.20248C24.5347 9.41844 23.5454 10.4082 22.3284 10.4082ZM35.7998 24.1244C33.058 24.1244 30.5314 22.7215 29.0641 20.4639H42.5349C41.0676 22.7215 38.5415 24.1244 35.7998 24.1244Z" fill="white" fill-opacity="0.87"/>
</svg>
