<svg width="47" height="45" viewBox="0 0 47 45" fill="none" xmlns="http://www.w3.org/2000/svg">
<path d="M24.2465 3.04261L26.6708 5.46697C27.0365 5.84384 27.6939 5.76833 27.9581 5.23813C28.1015 4.94513 28.028 4.58636 27.7953 4.35362L23.9967 0.554992C23.9773 0.535598 23.9551 0.513432 23.9357 0.494037C23.6195 0.244992 23.1656 0.27221 22.8831 0.560298L19.2802 4.16312C18.9418 4.49045 18.9587 5.04437 19.3331 5.34603C19.5549 5.52314 19.8749 5.55224 20.1427 5.43961C20.2404 5.39738 20.3186 5.34133 20.3885 5.2714L22.6627 2.99726L22.6743 15.1656C22.6779 15.5832 23.0103 15.9212 23.4278 15.936C23.89 15.9226 24.2593 15.5367 24.2587 15.0773L24.2465 3.04261Z" fill="white" fill-opacity="0.87"/>
<path d="M2.71945 11.8784H6.14802C6.67308 11.8863 7.08451 11.3681 6.89643 10.8063C6.79063 10.4978 6.485 10.296 6.15586 10.296H0.783784C0.756356 10.296 0.725009 10.296 0.69758 10.296C0.297908 10.3435 -0.00380611 10.6837 0.000112246 11.0872V16.1824C-0.00772447 16.6531 0.395867 17.0329 0.873907 16.9815C1.15603 16.9498 1.40289 16.7441 1.5126 16.4751C1.55178 16.3762 1.56746 16.2813 1.56746 16.1824V12.9662L10.18 21.5624C10.4778 21.8551 10.9519 21.859 11.2576 21.5742C11.5749 21.238 11.5632 20.7039 11.238 20.3795L2.71945 11.8784Z" fill="white" fill-opacity="0.87"/>
<path d="M45.4176 13.0155V16.444C45.4097 16.9691 45.928 17.3805 46.4897 17.1925C46.7983 17.0867 47 16.781 47 16.4519V11.0798C47 11.0524 47 11.021 47 10.9936C46.9525 10.5939 46.6123 10.2922 46.2088 10.2961H41.1137C40.6429 10.2883 40.2631 10.6919 40.3146 11.1699C40.3462 11.4521 40.5519 11.6989 40.8209 11.8086C40.9198 11.8478 41.0148 11.8635 41.1137 11.8635H44.3298L35.7337 20.476C35.4409 20.7738 35.437 21.248 35.7218 21.5536C36.0581 21.871 36.5921 21.8592 36.9165 21.534L45.4176 13.0155Z" fill="white" fill-opacity="0.87"/>
<path d="M23.443 35.4325C19.3384 35.4325 15.9991 32.0932 15.9991 27.9885C15.9991 23.8839 19.3384 20.5446 23.443 20.5446C27.5477 20.5446 30.887 23.8839 30.887 27.9885C30.887 32.0932 27.5477 35.4325 23.443 35.4325ZM23.443 22.2961C20.3043 22.2961 17.7506 24.8498 17.7506 27.9885C17.7506 31.1273 20.3043 33.681 23.443 33.681C26.5818 33.681 29.1355 31.1273 29.1355 27.9885C29.1355 24.8498 26.5818 22.2961 23.443 22.2961Z" fill="white" fill-opacity="0.87"/>
<path d="M33.0732 44.1894H13.8127V43.3137C13.8127 40.4158 16.1694 38.0591 19.0673 38.0591H27.8248C29.2287 38.0591 30.5467 38.6056 31.538 39.5987C32.5303 40.5918 33.0759 41.9116 33.0741 43.3146L33.0732 44.1894ZM15.6754 42.4379H31.214C31.0608 41.8372 30.749 41.2863 30.2997 40.8362C29.6385 40.175 28.7593 39.8106 27.8248 39.8106H19.0673C17.4383 39.8106 16.0643 40.9281 15.6754 42.4379Z" fill="white" fill-opacity="0.87"/>
</svg>
