<svg width="52" height="54" viewBox="0 0 52 54" fill="none" xmlns="http://www.w3.org/2000/svg">
<path d="M16.5259 0.22732C16.829 -0.0757734 17.3204 -0.0757734 17.6235 0.22732L22.2802 4.88404C22.5833 5.18713 22.5833 5.67854 22.2802 5.98164L17.6235 10.6384C17.3204 10.9414 16.829 10.9414 16.5259 10.6384C16.2228 10.3353 16.2228 9.84385 16.5259 9.54076L19.8165 6.25009C12.0309 6.8146 5.83763 13.1214 5.45193 20.9553C5.43085 21.3835 5.08539 21.7314 4.65675 21.7314C4.22811 21.7314 3.8788 21.3831 3.89797 20.9549C4.28805 12.239 11.2126 5.22339 19.8903 4.68939L16.5259 1.32492C16.2228 1.02183 16.2228 0.530414 16.5259 0.22732Z" fill="white" fill-opacity="0.87"/>
<path d="M47.3107 20.6664L50.6751 17.302C50.9782 16.9989 51.4696 16.9989 51.7727 17.302C52.0758 17.605 52.0758 18.0965 51.7727 18.3996L47.116 23.0563C46.8129 23.3594 46.3215 23.3594 46.0184 23.0563L41.3617 18.3996C41.0586 18.0965 41.0586 17.605 41.3617 17.302C41.6648 16.9989 42.1562 16.9989 42.4593 17.302L45.75 20.5926C45.1855 12.807 38.8786 6.61372 31.0447 6.22802C30.6166 6.20694 30.2687 5.86148 30.2687 5.43284C30.2687 5.0042 30.6169 4.65489 31.0451 4.67406C39.7611 5.06414 46.7767 11.9887 47.3107 20.6664Z" fill="white" fill-opacity="0.87"/>
<path fill-rule="evenodd" clip-rule="evenodd" d="M25.8118 29.5935C22.2533 29.5935 19.3583 26.6986 19.3583 23.14C19.3583 19.5815 22.2533 16.6866 25.8118 16.6866C29.3703 16.6866 32.2652 19.5815 32.2652 23.14C32.2652 26.6986 29.3703 29.5935 25.8118 29.5935ZM25.8118 18.205C23.0907 18.205 20.8768 20.419 20.8768 23.14C20.8768 25.8611 23.0907 28.075 25.8118 28.075C28.5329 28.075 30.7468 25.8611 30.7468 23.14C30.7468 20.419 28.5329 18.205 25.8118 18.205Z" fill="white" fill-opacity="0.87"/>
<path fill-rule="evenodd" clip-rule="evenodd" d="M34.1605 37.1856H17.4627V36.4263C17.4627 33.914 19.5058 31.8709 22.0181 31.8709H29.6104C30.8275 31.8709 31.9701 32.3447 32.8296 33.2057C33.6898 34.0666 34.1628 35.2108 34.1613 36.4271L34.1605 37.1856ZM19.0776 35.6671H32.5486C32.4158 35.1463 32.1455 34.6687 31.756 34.2785C31.1828 33.7052 30.4205 33.3894 29.6104 33.3894H22.0181C20.6059 33.3894 19.4147 34.3582 19.0776 35.6671Z" fill="white" fill-opacity="0.87"/>
<path d="M46.5482 32.5969C46.1695 40.2878 40.1933 46.5069 32.6082 47.2655L35.8623 44.0115C36.1654 43.7084 36.1654 43.217 35.8623 42.9139C35.5592 42.6108 35.0678 42.6108 34.7647 42.9139L30.108 47.5706C29.8049 47.8737 29.8049 48.3651 30.108 48.6682L34.7647 53.3249C35.0678 53.628 35.5592 53.628 35.8623 53.3249C36.1654 53.0218 36.1654 52.5304 35.8623 52.2273L32.4717 48.8368C40.9793 48.1329 47.7175 41.1918 48.1021 32.5974C48.1213 32.1691 47.772 31.8209 47.3433 31.8209C46.9147 31.8209 46.5692 32.1688 46.5482 32.5969Z" fill="white" fill-opacity="0.87"/>
<path d="M0.22732 36.2496C-0.0757734 35.9465 -0.0757734 35.4551 0.22732 35.152L4.88404 30.4952C5.18713 30.1922 5.67854 30.1922 5.98164 30.4952L10.6384 35.152C10.9414 35.4551 10.9414 35.9465 10.6384 36.2496C10.3353 36.5527 9.84385 36.5527 9.54076 36.2496L6.25009 32.9589C6.8146 40.7445 13.1214 46.9378 20.9553 47.3235C21.3835 47.3446 21.7314 47.69 21.7314 48.1187C21.7314 48.5473 21.3831 48.8966 20.9549 48.8775C12.239 48.4874 5.22339 41.5629 4.68939 32.8851L1.32492 36.2496C1.02183 36.5527 0.530414 36.5527 0.22732 36.2496Z" fill="white" fill-opacity="0.87"/>
</svg>
