<svg width="51" height="51" viewBox="0 0 51 51" fill="none" xmlns="http://www.w3.org/2000/svg">
<path fill-rule="evenodd" clip-rule="evenodd" d="M46.3667 18.8256L49.2194 15.9728C49.4764 15.7158 49.8931 15.7158 50.1501 15.9728C50.4071 16.2298 50.4071 16.6465 50.1501 16.9035L46.2017 20.8519C45.9447 21.1089 45.528 21.1089 45.271 20.8519L41.3226 16.9035C41.0656 16.6465 41.0656 16.2298 41.3226 15.9728C41.5796 15.7158 41.9963 15.7158 42.2532 15.9728L45.0434 18.763C44.5646 12.1617 39.2171 6.91049 32.5748 6.58346C32.2118 6.56559 31.9169 6.27267 31.9169 5.90923C31.9169 5.54578 32.2121 5.24961 32.5752 5.26586C39.9654 5.59661 45.9138 11.4678 46.3667 18.8256Z" fill="white" fill-opacity="0.87"/>
<path fill-rule="evenodd" clip-rule="evenodd" d="M20.0862 1.00184V8.86922H27.9536V1.00184H20.0862ZM19.5853 0C19.3086 0 19.0843 0.22427 19.0843 0.50092V9.37014C19.0843 9.64679 19.3086 9.87106 19.5853 9.87106H28.4545C28.7311 9.87106 28.9554 9.64679 28.9554 9.37014V0.500919C28.9554 0.224269 28.7311 0 28.4545 0H19.5853Z" fill="white" fill-opacity="0.87"/>
<path fill-rule="evenodd" clip-rule="evenodd" d="M49.9991 24.3642H42.1317V32.2316H49.9991V24.3642ZM51.001 23.8633C51.001 23.5867 50.7767 23.3624 50.5 23.3624H41.6308C41.3542 23.3624 41.1299 23.5867 41.1299 23.8633V32.7325C41.1299 33.0092 41.3542 33.2335 41.6308 33.2335H50.5C50.7767 33.2335 51.001 33.0092 51.001 32.7325V23.8633Z" fill="white" fill-opacity="0.87"/>
<path fill-rule="evenodd" clip-rule="evenodd" d="M4.63426 31.5168L1.78153 34.3696C1.52454 34.6266 1.10787 34.6266 0.850874 34.3696C0.593882 34.1126 0.593882 33.6959 0.850874 33.4389L4.7993 29.4905C5.05629 29.2335 5.47296 29.2335 5.72995 29.4905L9.67837 33.4389C9.93537 33.6959 9.93537 34.1126 9.67837 34.3696C9.42138 34.6266 9.00471 34.6266 8.74772 34.3696L5.95758 31.5794C6.43632 38.1807 11.7838 43.4319 18.4261 43.7589C18.7891 43.7768 19.0841 44.0697 19.0841 44.4332C19.0841 44.7966 18.7888 45.0928 18.4258 45.0765C11.0356 44.7458 5.08713 38.8746 4.63426 31.5168Z" fill="white" fill-opacity="0.87"/>
<path fill-rule="evenodd" clip-rule="evenodd" d="M30.9148 49.3406V41.4732H23.0474V49.3406H30.9148ZM31.4157 50.3424C31.6923 50.3424 31.9166 50.1181 31.9166 49.8415V40.9723C31.9166 40.6956 31.6923 40.4713 31.4157 40.4713H22.5465C22.2698 40.4713 22.0456 40.6956 22.0456 40.9723V49.8415C22.0456 50.1181 22.2698 50.3424 22.5465 50.3424H31.4157Z" fill="white" fill-opacity="0.87"/>
<path fill-rule="evenodd" clip-rule="evenodd" d="M1.00184 25.9782H8.86922L8.86922 18.1108H1.00184L1.00184 25.9782ZM0 26.4791C-3.62783e-08 26.7557 0.22427 26.98 0.50092 26.98H9.37014C9.64679 26.98 9.87106 26.7557 9.87106 26.4791L9.87106 17.6099C9.87106 17.3332 9.64679 17.1089 9.37014 17.1089H0.500921C0.224271 17.1089 1.19934e-06 17.3332 1.16306e-06 17.6099L0 26.4791Z" fill="white" fill-opacity="0.87"/>
<path fill-rule="evenodd" clip-rule="evenodd" d="M26.6772 3.31569C26.8729 3.12007 26.8729 2.80291 26.6772 2.60729C26.4816 2.41167 26.1645 2.41167 25.9688 2.60729L24.1843 4.39181L22.3998 2.60729C22.2042 2.41167 21.887 2.41167 21.6914 2.60729C21.4958 2.80291 21.4958 3.12007 21.6914 3.31569L23.4759 5.10022L21.6914 6.88475C21.4958 7.08037 21.4958 7.39753 21.6914 7.59315C21.887 7.78877 22.2042 7.78877 22.3998 7.59315L24.1843 5.80863L25.9688 7.59315C26.1645 7.78877 26.4816 7.78877 26.6772 7.59315C26.8729 7.39753 26.8729 7.08037 26.6772 6.88475L24.8927 5.10022L26.6772 3.31569Z" fill="white" fill-opacity="0.87"/>
<path fill-rule="evenodd" clip-rule="evenodd" d="M29.3095 43.4577C29.5051 43.2621 29.5051 42.9449 29.3095 42.7493C29.1139 42.5537 28.7967 42.5537 28.6011 42.7493L26.8166 44.5338L25.0321 42.7493C24.8364 42.5537 24.5193 42.5537 24.3237 42.7493C24.128 42.9449 24.128 43.2621 24.3237 43.4577L26.1082 45.2423L24.3237 47.0268C24.128 47.2224 24.128 47.5396 24.3237 47.7352C24.5193 47.9308 24.8364 47.9308 25.0321 47.7352L26.8166 45.9507L28.6011 47.7352C28.7967 47.9308 29.1139 47.9308 29.3095 47.7352C29.5051 47.5396 29.5051 47.2224 29.3095 47.0268L27.525 45.2423L29.3095 43.4577Z" fill="white" fill-opacity="0.87"/>
<path fill-rule="evenodd" clip-rule="evenodd" d="M48.9826 25.9109C49.21 26.0684 49.2668 26.3804 49.1093 26.6079L46.148 30.8854C46.0634 31.0075 45.929 31.0858 45.7811 31.0991C45.6332 31.1125 45.4869 31.0595 45.3819 30.9544L43.0787 28.6512C42.883 28.4556 42.883 28.1384 43.0787 27.9428C43.2743 27.7472 43.5915 27.7472 43.7871 27.9428L45.6659 29.8216L48.2856 26.0376C48.4431 25.8102 48.7551 25.7534 48.9826 25.9109Z" fill="white" fill-opacity="0.87"/>
<path fill-rule="evenodd" clip-rule="evenodd" d="M7.85323 19.3305C8.08069 19.488 8.13743 19.8 7.97996 20.0275L5.01864 24.3049C4.93409 24.427 4.79971 24.5054 4.65177 24.5187C4.50384 24.532 4.35761 24.479 4.25259 24.374L1.94934 22.0708C1.75372 21.8751 1.75372 21.558 1.94934 21.3623C2.14496 21.1667 2.46212 21.1667 2.65775 21.3623L4.53658 23.2412L7.15625 19.4572C7.31373 19.2297 7.62577 19.173 7.85323 19.3305Z" fill="white" fill-opacity="0.87"/>
</svg>
