<svg width="51" height="51" viewBox="0 0 51 51" fill="none" xmlns="http://www.w3.org/2000/svg">
<path fill-rule="evenodd" clip-rule="evenodd" d="M46.3668 18.826L49.2196 15.9732C49.4766 15.7162 49.8932 15.7162 50.1502 15.9732C50.4072 16.2302 50.4072 16.6469 50.1502 16.9039L46.2018 20.8523C45.9448 21.1093 45.5281 21.1093 45.2711 20.8523L41.3227 16.9039C41.0657 16.6469 41.0657 16.2302 41.3227 15.9732C41.5797 15.7162 41.9964 15.7162 42.2534 15.9732L45.0435 18.7634C44.5648 12.1621 39.2173 6.91089 32.575 6.58386C32.212 6.56599 31.917 6.27307 31.917 5.90963C31.917 5.54619 32.2123 5.25001 32.5753 5.26626C39.9655 5.59701 45.914 11.4682 46.3668 18.826Z" fill="white" fill-opacity="0.87"/>
<path fill-rule="evenodd" clip-rule="evenodd" d="M20.0863 1.00184V8.86922H27.9537V1.00184H20.0863ZM19.5854 0C19.3087 0 19.0845 0.22427 19.0845 0.50092V9.37014C19.0845 9.64679 19.3087 9.87106 19.5854 9.87106H28.4546C28.7313 9.87106 28.9555 9.64679 28.9555 9.37014V0.500919C28.9555 0.224269 28.7313 0 28.4546 0H19.5854Z" fill="white" fill-opacity="0.87"/>
<path fill-rule="evenodd" clip-rule="evenodd" d="M49.9991 24.3651L42.1318 24.3651L42.1318 32.2325L49.9991 32.2325L49.9991 24.3651ZM51.001 23.8642C51.001 23.5876 50.7767 23.3633 50.5001 23.3633L41.6308 23.3633C41.3542 23.3633 41.1299 23.5876 41.1299 23.8642L41.1299 32.7334C41.1299 33.0101 41.3542 33.2343 41.6308 33.2343L50.5001 33.2343C50.7767 33.2343 51.001 33.0101 51.001 32.7334L51.001 23.8642Z" fill="white" fill-opacity="0.87"/>
<path fill-rule="evenodd" clip-rule="evenodd" d="M4.63415 31.5158L1.78141 34.3686C1.52442 34.6255 1.10775 34.6255 0.850759 34.3686C0.593766 34.1116 0.593766 33.6949 0.850759 33.4379L4.79918 29.4895C5.05618 29.2325 5.47284 29.2325 5.72984 29.4895L9.67826 33.4379C9.93525 33.6949 9.93525 34.1116 9.67826 34.3686C9.42127 34.6256 9.0046 34.6256 8.74761 34.3686L5.95747 31.5784C6.43621 38.1797 11.7837 43.4309 18.426 43.7579C18.789 43.7758 19.084 44.0687 19.084 44.4322C19.084 44.7956 18.7887 45.0918 18.4256 45.0755C11.0355 44.7448 5.08701 38.8736 4.63415 31.5158Z" fill="white" fill-opacity="0.87"/>
<path fill-rule="evenodd" clip-rule="evenodd" d="M30.9147 49.34L30.9147 41.4726L23.0473 41.4726L23.0473 49.34L30.9147 49.34ZM31.4156 50.3418C31.6922 50.3418 31.9165 50.1175 31.9165 49.8409L31.9165 40.9717C31.9165 40.695 31.6922 40.4707 31.4156 40.4707L22.5464 40.4707C22.2697 40.4707 22.0454 40.695 22.0454 40.9717L22.0454 49.8409C22.0454 50.1175 22.2697 50.3418 22.5464 50.3418L31.4156 50.3418Z" fill="white" fill-opacity="0.87"/>
<path fill-rule="evenodd" clip-rule="evenodd" d="M1.00184 25.9767L8.86922 25.9767L8.86922 18.1093L1.00184 18.1093L1.00184 25.9767ZM6.56876e-08 26.4776C2.94094e-08 26.7542 0.22427 26.9785 0.50092 26.9785L9.37014 26.9785C9.64679 26.9785 9.87106 26.7542 9.87106 26.4776L9.87106 17.6084C9.87106 17.3317 9.64679 17.1075 9.37014 17.1075L0.500921 17.1075C0.224271 17.1075 1.26502e-06 17.3317 1.22875e-06 17.6084L6.56876e-08 26.4776Z" fill="white" fill-opacity="0.87"/>
<path fill-rule="evenodd" clip-rule="evenodd" d="M26.677 3.31606C26.8726 3.12044 26.8726 2.80327 26.677 2.60765C26.4814 2.41203 26.1642 2.41203 25.9686 2.60765L24.1841 4.39218L22.3996 2.60765C22.2039 2.41203 21.8868 2.41203 21.6911 2.60765C21.4955 2.80327 21.4955 3.12044 21.6911 3.31606L23.4757 5.10059L21.6911 6.88511C21.4955 7.08073 21.4955 7.3979 21.6911 7.59352C21.8868 7.78914 22.2039 7.78914 22.3996 7.59352L24.1841 5.80899L25.9686 7.59352C26.1642 7.78914 26.4814 7.78914 26.677 7.59352C26.8726 7.3979 26.8726 7.08073 26.677 6.88511L24.8925 5.10059L26.677 3.31606Z" fill="white" fill-opacity="0.87"/>
<path fill-rule="evenodd" clip-rule="evenodd" d="M29.3093 43.4586C29.505 43.263 29.505 42.9459 29.3093 42.7502C29.1137 42.5546 28.7966 42.5546 28.6009 42.7502L26.8164 44.5348L25.0319 42.7502C24.8363 42.5546 24.5191 42.5546 24.3235 42.7502C24.1279 42.9459 24.1279 43.263 24.3235 43.4586L26.108 45.2432L24.3235 47.0277C24.1279 47.2233 24.1279 47.5405 24.3235 47.7361C24.5191 47.9317 24.8363 47.9317 25.0319 47.7361L26.8164 45.9516L28.6009 47.7361C28.7966 47.9317 29.1137 47.9317 29.3093 47.7361C29.505 47.5405 29.505 47.2233 29.3093 47.0277L27.5248 45.2432L29.3093 43.4586Z" fill="white" fill-opacity="0.87"/>
<path fill-rule="evenodd" clip-rule="evenodd" d="M48.9827 25.9114C49.2102 26.0689 49.2669 26.3809 49.1095 26.6084L46.1481 30.8858C46.0636 31.0079 45.9292 31.0862 45.7813 31.0996C45.6333 31.1129 45.4871 31.0599 45.3821 30.9549L43.0788 28.6516C42.8832 28.456 42.8832 28.1389 43.0788 27.9432C43.2745 27.7476 43.5916 27.7476 43.7873 27.9432L45.6661 29.8221L48.2858 26.0381C48.4432 25.8106 48.7553 25.7539 48.9827 25.9114Z" fill="white" fill-opacity="0.87"/>
<path fill-rule="evenodd" clip-rule="evenodd" d="M7.85335 19.3313C8.08081 19.4888 8.13754 19.8008 7.98007 20.0283L5.01875 24.3057C4.93421 24.4279 4.79982 24.5062 4.65189 24.5195C4.50395 24.5328 4.35773 24.4798 4.2527 24.3748L1.94945 22.0716C1.75383 21.8759 1.75383 21.5588 1.94945 21.3632C2.14507 21.1675 2.46224 21.1675 2.65786 21.3632L4.53669 23.242L7.15637 19.458C7.31384 19.2306 7.62589 19.1738 7.85335 19.3313Z" fill="white" fill-opacity="0.87"/>
</svg>
