<svg width="47" height="45" viewBox="0 0 47 45" fill="none" xmlns="http://www.w3.org/2000/svg">
<path d="M24.2464 3.04184L26.6708 5.4662C27.0365 5.84307 27.6938 5.76755 27.9581 5.23735C28.1014 4.94436 28.028 4.58559 27.7952 4.35285L27.7869 4.34454L23.9966 0.554219C23.9772 0.534824 23.955 0.512659 23.9356 0.493264C23.6195 0.244219 23.1656 0.271437 22.883 0.559524L19.2802 4.16235C18.9418 4.48968 18.9586 5.04359 19.333 5.34526C19.5549 5.52237 19.8749 5.55147 20.1427 5.43884C20.2403 5.39661 20.3185 5.34056 20.3885 5.27063L22.6626 2.99649L22.6742 15.1649C22.6778 15.5824 23.0103 15.9205 23.4278 15.9352C23.89 15.9219 24.2593 15.5359 24.2587 15.0766L24.2464 3.04184Z" fill="white" fill-opacity="0.87"/>
<path d="M2.71945 11.8773H6.14802C6.67308 11.8852 7.08451 11.367 6.89643 10.8052C6.79063 10.4967 6.485 10.2949 6.15586 10.2949H6.1441H0.783784C0.756356 10.2949 0.725009 10.2949 0.69758 10.2949C0.297908 10.3424 -0.00380611 10.6826 0.000112246 11.0861L0.000112246 16.1813C-0.00772447 16.652 0.395867 17.0318 0.873907 16.9803C1.15603 16.9487 1.40289 16.743 1.5126 16.474C1.55178 16.3751 1.56746 16.2802 1.56746 16.1813L1.56746 12.9651L10.18 21.5613C10.4778 21.854 10.9519 21.8579 11.2576 21.5731C11.5749 21.2369 11.5632 20.7028 11.238 20.3784L2.71945 11.8773Z" fill="white" fill-opacity="0.87"/>
<path d="M45.4177 13.0144L45.4176 16.4429C45.4097 16.968 45.928 17.3794 46.4897 17.1913C46.7983 17.0856 47 16.7799 47 16.4508L47 16.439L47 11.0787C47 11.0513 47 11.0199 47 10.9925C46.9525 10.5928 46.6123 10.2911 46.2088 10.295L41.1137 10.295C40.6429 10.2872 40.2631 10.6908 40.3146 11.1688C40.3462 11.451 40.5519 11.6978 40.8209 11.8075C40.9198 11.8467 41.0148 11.8624 41.1137 11.8624L44.3298 11.8624L35.7337 20.4749C35.4409 20.7727 35.437 21.2469 35.7218 21.5525C36.0581 21.8699 36.5921 21.8581 36.9165 21.5329L45.4177 13.0144Z" fill="white" fill-opacity="0.87"/>
<path d="M23.443 35.4308C19.3383 35.4308 15.999 32.0916 15.999 27.9869C15.999 23.8822 19.3383 20.543 23.443 20.543C27.5476 20.543 30.8869 23.8822 30.8869 27.9869C30.8869 32.0916 27.5476 35.4308 23.443 35.4308ZM23.443 22.2945C20.3042 22.2945 17.7505 24.8482 17.7505 27.9869C17.7505 31.1256 20.3042 33.6793 23.443 33.6793C26.5817 33.6793 29.1354 31.1256 29.1354 27.9869C29.1354 24.8482 26.5817 22.2945 23.443 22.2945Z" fill="white" fill-opacity="0.87"/>
<path d="M33.073 44.1869H13.8125V43.3112C13.8125 40.4133 16.1692 38.0566 19.067 38.0566H27.8246C29.2285 38.0566 30.5465 38.6031 31.5378 39.5962C32.5301 40.5893 33.0757 41.9091 33.0739 43.3121L33.073 44.1869ZM15.6752 42.4354H31.2138C31.0605 41.8347 30.7488 41.2838 30.2995 40.8337C29.6383 40.1725 28.7591 39.8082 27.8246 39.8082H19.067C17.4381 39.8082 16.0641 40.9256 15.6752 42.4354Z" fill="white" fill-opacity="0.87"/>
</svg>
