<svg width="3821" height="2662" viewBox="0 0 3821 2662" fill="none" xmlns="http://www.w3.org/2000/svg">
<path d="M0.566895 902.021C167.728 889.477 347.485 911.52 428.378 1052.15C488.787 1157.16 447.16 1246.74 525.321 1297.4C629.343 1364.83 782.111 1257.4 1107.35 1168.2C1373.93 1095.1 1507.22 1058.53 1604.94 1090.43C1891.95 1184.11 1607.67 1710.05 1849.13 1877.72C2115.64 2062.8 2655.45 1556.39 2935.45 1713.73C3058.87 1783.08 3154.13 1993.93 2954.67 2661.79M14.6216 885.912C176.636 877.553 351.373 902.631 430.234 1042.83C489.061 1148.25 448.912 1237.84 526.846 1288.28C631.5 1355.97 785.181 1247.08 1107.87 1160.21C1128.38 1154.72 1148.12 1149.48 1167.13 1144.51C1393.22 1084.67 1511.04 1059.89 1600.28 1091.05C1715.52 1131.29 1737.9 1241.05 1741.64 1368.62C1747.39 1552.66 1711.99 1769.86 1854.86 1865.98C1933.98 1918.89 2035.96 1913.51 2147.15 1885.09C2413.23 1817.06 2727.33 1610.98 2922.29 1722.7C2934.96 1729.99 2947.39 1738.75 2959.28 1749.3C3061.53 1840.11 3122.72 2066.03 2960.84 2642.13M28.6731 869.809C185.534 865.621 355.756 893.526 432.091 1033.5C489.721 1139.17 450.676 1228.94 528.374 1279.15C633.658 1347.09 788.245 1236.74 1108.39 1152.21C1128.85 1146.88 1148.58 1141.87 1167.58 1137.06C1392.39 1080.07 1507.31 1058.73 1595.63 1091.65C1708.5 1133.72 1731.59 1242.36 1737.82 1368.39C1747.54 1550.4 1717.11 1761.33 1860.61 1854.22C1940.13 1905.7 2041.98 1900.26 2151.98 1874.29C2415.22 1812.15 2716.95 1618.84 2909.13 1731.63C2921.69 1739 2934.01 1747.81 2945.89 1758.32C3047.59 1848.4 3112.02 2068.77 2967.02 2622.44M42.7188 853.721C194.435 853.713 359.87 884.547 433.942 1024.19C490.175 1130.2 452.434 1220.04 529.907 1270.02C635.822 1338.23 791.065 1225.64 1108.91 1144.22C1129.32 1138.99 1149.04 1134.25 1168.02 1129.62C1391.43 1075.17 1503.56 1057.57 1590.97 1092.26C1701.47 1136.11 1724.91 1243.67 1734 1368.15C1747.15 1548.18 1722.4 1752.62 1866.36 1842.47C1946.38 1892.42 2048 1887.01 2156.82 1863.51C2417.21 1807.24 2706.46 1626.88 2895.99 1740.57C2908.42 1748.03 2920.66 1756.88 2932.52 1767.34C3033.68 1856.7 3101.33 2071.52 2973.21 2602.76M56.7651 837.657C203.33 841.815 363.983 875.603 435.799 1014.89C490.634 1121.24 454.199 1211.16 531.436 1260.91C637.981 1329.37 794.068 1215.08 1109.43 1136.24C1129.78 1131.16 1149.5 1126.63 1168.47 1122.19C1390.47 1070.27 1499.79 1056.39 1586.32 1092.88C1694.42 1138.46 1718.49 1245.01 1730.19 1367.92C1747.14 1545.94 1727.71 1743.91 1872.12 1830.73C1952.65 1879.15 2054.02 1873.78 2161.66 1852.74C2419.2 1802.34 2695.96 1634.95 2882.84 1749.52C2895.15 1757.07 2907.3 1765.96 2919.14 1776.38C3019.76 1865.02 3090.66 2074.29 2979.4 2583.12M70.8019 821.586C212.225 829.918 368.078 866.653 437.648 1005.58C491.075 1112.27 455.956 1202.26 532.966 1251.79C640.142 1320.51 797.077 1204.54 1109.95 1128.26C1130.25 1123.31 1149.96 1119.01 1168.91 1114.75C1389.5 1065.35 1495.99 1055.17 1581.67 1093.49C1687.37 1140.77 1712.07 1246.33 1726.37 1367.68C1747.12 1543.71 1733 1735.2 1877.86 1818.99C1958.9 1865.87 2060.03 1860.55 2166.49 1841.96C2421.2 1797.43 2685.47 1642.99 2869.71 1758.44C2881.89 1766.07 2893.94 1775 2905.77 1785.37C3005.84 1873.29 3079.97 2077.01 2985.58 2563.44M84.8339 805.522C221.109 818.013 372.159 857.711 439.495 996.274C491.511 1103.32 457.711 1193.37 534.487 1242.66C642.294 1311.64 800.075 1193.99 1110.46 1120.27C1130.72 1115.47 1150.4 1111.37 1169.35 1107.32C1388.5 1060.41 1492.18 1053.92 1577.01 1094.09C1680.3 1143 1705.65 1247.64 1722.55 1367.43C1747.11 1541.48 1738.33 1726.47 1883.59 1807.23C1965.16 1852.59 2066.04 1847.29 2171.3 1831.17C2423.17 1792.5 2674.94 1651.02 2856.55 1767.34C2868.6 1775.06 2880.57 1784.03 2892.39 1794.35C2991.91 1881.55 3069.27 2079.72 2991.74 2543.76M98.862 789.464C229.999 806.115 376.237 848.778 441.343 986.959C491.949 1094.37 459.469 1184.47 536.018 1233.53C644.456 1302.77 803.099 1183.46 1110.99 1112.29C1131.18 1107.62 1150.85 1103.74 1169.79 1099.87C1387.52 1055.45 1488.36 1052.62 1572.36 1094.68C1673.25 1145.19 1699.24 1248.95 1718.73 1367.17C1747.11 1539.24 1743.65 1717.72 1889.33 1795.48C1971.43 1839.29 2072.04 1834.05 2176.13 1820.38C2425.16 1787.58 2664.45 1659.05 2843.42 1776.22C2855.35 1784.03 2867.22 1793.04 2879.02 1803.31C2978 1889.79 3058.6 2082.42 2997.92 2524.09M112.846 773.21C238.84 794.022 380.258 839.658 443.153 977.47C492.335 1085.26 461.183 1175.41 537.496 1224.26C646.566 1293.77 806.079 1172.79 1111.48 1104.12C1131.63 1099.59 1151.28 1095.93 1170.22 1092.26C1386.5 1050.29 1484.52 1051.1 1567.71 1095.08C1666.19 1147.13 1692.84 1250.08 1714.91 1366.76C1747.1 1536.87 1748.98 1708.89 1895.06 1783.64C1977.69 1825.92 2078.05 1820.72 2180.95 1809.49C2427.15 1782.53 2653.97 1666.94 2830.32 1784.96C2842.12 1792.86 2853.9 1801.92 2865.69 1812.15C2964.13 1897.91 3047.95 2085.03 3004.11 2504.41M126.788 756.721C247.654 781.685 384.244 830.311 444.929 967.761C492.686 1075.94 462.846 1166.18 538.945 1214.8C648.65 1284.59 809.052 1161.92 1111.97 1095.73C1132.08 1091.34 1151.71 1087.89 1170.64 1084.41C1385.49 1044.87 1480.68 1049.3 1563.08 1095.23C1659.16 1148.79 1686.46 1251 1711.11 1366.14C1747.11 1534.34 1754.32 1699.9 1900.8 1771.67C1983.97 1812.42 2084.06 1807.25 2185.8 1798.47C2429.18 1777.35 2643.54 1674.66 2817.26 1793.55C2828.93 1801.53 2840.62 1810.62 2852.4 1820.81C2950.29 1905.88 3037.34 2087.52 3010.3 2484.69M140.725 740.211C256.453 769.335 388.218 820.942 446.7 958.044C493.026 1066.64 464.511 1156.94 540.377 1205.35C650.716 1275.41 812.015 1151.06 1112.46 1087.34C1132.51 1083.08 1152.13 1079.84 1171.05 1076.55C1384.47 1039.42 1476.83 1047.45 1558.43 1095.38C1652.11 1150.39 1680.07 1251.92 1707.28 1365.52C1747.11 1531.81 1759.65 1690.91 1906.51 1759.69C1990.23 1798.91 2090.05 1793.79 2190.61 1787.44C2431.18 1772.15 2633.08 1682.39 2804.18 1802.13C2815.72 1810.21 2827.34 1819.34 2839.09 1829.48C2936.44 1913.85 3026.71 2090 3016.48 2464.98M154.662 723.71C265.263 756.987 392.176 811.598 448.469 948.334C493.346 1057.34 466.174 1147.71 541.816 1195.9C652.79 1266.24 814.992 1140.22 1112.93 1078.95C1132.95 1074.83 1152.54 1071.79 1171.46 1068.7C1383.42 1033.97 1472.98 1045.58 1553.78 1095.52C1645.08 1151.94 1673.69 1252.83 1703.47 1364.9C1747.14 1529.29 1765.01 1681.9 1912.23 1747.72C1996.5 1785.4 2096.05 1780.32 2195.44 1776.42C2433.19 1766.96 2622.63 1690.12 2791.11 1810.7C2802.53 1818.87 2814.05 1828.04 2825.79 1838.14C2922.6 1921.81 3016.09 2092.49 3022.68 2445.26M168.6 707.199C274.074 744.629 396.125 802.25 450.241 938.607C493.665 1048.04 467.841 1138.47 543.25 1186.44C654.848 1257.05 817.972 1129.38 1113.42 1070.54C1133.38 1066.57 1152.96 1063.74 1171.87 1060.83C1382.38 1028.48 1469.14 1043.66 1549.13 1095.65C1638.05 1153.43 1667.32 1253.74 1699.65 1364.26C1747.17 1526.75 1770.37 1672.88 1917.94 1735.73C2002.78 1771.87 2102.04 1766.85 2200.26 1765.38C2435.2 1761.75 2612.15 1697.85 2778.02 1819.27C2789.32 1827.53 2800.74 1836.74 2812.47 1846.8C2908.73 1929.77 3005.45 2094.97 3028.84 2425.53M182.537 690.685C282.873 732.276 400.061 792.907 452.001 928.885C493.974 1038.74 469.496 1129.22 544.683 1176.98C656.917 1247.85 820.956 1118.54 1113.9 1062.13C1133.82 1058.29 1153.37 1055.67 1172.28 1052.96C1381.32 1022.98 1465.28 1041.71 1544.49 1095.78C1631.05 1154.88 1660.96 1254.64 1695.83 1363.63C1747.21 1524.22 1775.73 1663.85 1923.66 1723.75C2009.07 1758.34 2108.04 1753.38 2205.09 1754.36C2437.22 1756.56 2601.69 1705.61 2764.96 1827.85C2776.12 1836.21 2787.47 1845.46 2799.18 1855.47C2894.9 1937.75 2994.83 2097.47 3035.04 2405.83M196.475 674.176C291.683 719.921 403.986 783.576 453.773 919.161C494.272 1029.45 471.162 1119.98 546.115 1167.52C658.984 1238.67 823.939 1107.72 1114.38 1053.73C1134.26 1050.03 1153.78 1047.62 1172.7 1045.09C1380.27 1017.47 1461.45 1039.71 1539.84 1095.91C1624.06 1156.28 1654.6 1255.56 1692 1363C1747.25 1521.7 1781.11 1654.81 1929.37 1711.77C2015.37 1744.81 2114.04 1739.9 2209.91 1743.33C2439.21 1751.36 2591.21 1713.37 2751.87 1836.43C2762.9 1844.88 2774.16 1854.17 2785.86 1864.13C2881.03 1945.71 2984.19 2099.95 3041.22 2386.1M210.411 657.674C300.48 707.58 407.897 774.258 455.54 909.453C494.563 1020.18 472.825 1110.75 547.544 1158.07C661.047 1229.5 826.925 1096.93 1114.86 1045.34C1134.69 1041.78 1154.19 1039.57 1173.1 1037.25C1379.2 1011.96 1457.61 1037.71 1535.19 1096.07C1617.08 1157.67 1648.26 1256.5 1688.18 1362.4C1747.31 1519.2 1786.5 1645.79 1935.09 1699.81C2021.66 1731.3 2120.03 1726.46 2214.73 1732.32C2441.22 1746.19 2580.73 1721.16 2738.8 1845.02C2749.71 1853.57 2760.87 1862.9 2772.56 1872.81C2867.19 1953.69 2973.58 2102.46 3047.41 2366.4M224.349 641.163C309.291 695.224 411.79 764.937 457.31 899.737C494.857 1010.91 474.489 1101.52 548.986 1148.61C663.124 1220.32 829.939 1086.15 1115.35 1036.94C1135.14 1033.52 1154.61 1031.51 1173.53 1029.38C1378.13 1006.42 1453.81 1035.66 1530.56 1096.2C1610.16 1158.99 1641.93 1257.41 1684.38 1361.76C1747.39 1516.67 1791.92 1636.71 1940.81 1687.82C2027.97 1717.73 2126.04 1712.97 2219.56 1721.27C2443.24 1740.98 2570.26 1728.92 2725.73 1853.59C2736.51 1862.23 2747.6 1871.58 2759.25 1881.47C2853.34 1961.65 2962.95 2104.94 3053.6 2346.66M238.287 624.648C318.09 682.87 415.681 755.62 459.082 890.008C495.132 1001.62 476.148 1092.26 550.419 1139.15C665.191 1211.13 832.942 1075.36 1115.83 1028.53C1135.57 1025.26 1155.03 1023.44 1173.94 1021.51C1377.06 1000.86 1450.02 1033.56 1525.91 1096.34C1603.23 1160.27 1635.59 1258.32 1680.55 1361.13C1747.47 1514.14 1797.33 1627.64 1946.52 1675.84C2034.28 1704.18 2132.03 1699.5 2224.38 1710.25C2445.24 1735.78 2559.75 1736.71 2712.64 1862.17C2723.29 1870.91 2734.28 1880.3 2745.93 1890.14C2839.48 1969.62 2952.32 2107.43 3059.77 2326.95M252.223 608.148C326.898 670.525 419.548 746.324 460.848 880.304C495.392 992.364 477.809 1083.04 551.856 1129.71C667.262 1201.97 835.956 1064.61 1116.32 1020.15C1136.02 1017.02 1155.44 1015.4 1174.35 1013.67C1375.98 995.311 1446.25 1031.48 1521.27 1096.5C1596.33 1161.55 1629.27 1259.26 1676.75 1360.53C1747.58 1511.65 1802.76 1618.57 1952.26 1663.88C2040.61 1690.65 2138.04 1686.05 2229.23 1699.24C2447.28 1730.61 2549.27 1744.54 2699.59 1870.77C2710.11 1879.61 2721.02 1889.03 2732.66 1898.82C2825.67 1977.61 2941.72 2109.94 3065.99 2307.24M266.171 591.64C335.708 658.17 423.415 737.026 462.629 870.583C495.662 983.104 479.484 1073.8 553.299 1120.25C669.34 1192.78 838.973 1053.86 1116.81 1011.74C1136.47 1008.76 1155.87 1007.32 1174.78 1005.8C1374.9 989.708 1442.51 1029.32 1516.63 1096.63C1589.47 1162.76 1622.96 1260.17 1672.93 1359.9C1747.69 1509.12 1808.18 1609.47 1957.98 1651.89C2046.93 1677.08 2144.06 1672.57 2234.05 1688.2C2449.29 1725.4 2538.78 1752.34 2686.51 1879.34C2696.91 1888.28 2707.72 1897.74 2719.34 1907.48C2811.81 1985.57 2931.08 2112.41 3072.17 2287.51M280.108 575.13C344.516 645.825 427.263 727.726 464.396 860.87C495.901 973.848 481.146 1064.57 554.737 1110.8C671.413 1183.61 842.002 1043.13 1117.3 1003.36C1136.91 1000.52 1156.28 999.279 1175.19 997.963C1373.81 984.131 1438.79 1027.17 1511.99 1096.8C1582.63 1163.99 1616.66 1261.12 1669.11 1359.3C1747.82 1506.62 1813.62 1600.39 1963.71 1639.94C2053.25 1663.54 2150.06 1659.13 2238.89 1677.2C2451.3 1720.23 2528.27 1760.19 2673.45 1887.96C2683.71 1896.99 2694.45 1906.49 2706.05 1916.19C2797.97 1993.59 2920.47 2114.95 3078.38 2267.83M294.044 558.627C353.314 633.475 431.095 718.446 466.162 851.164C496.137 964.599 482.807 1055.34 556.164 1101.36C673.474 1174.44 845.017 1032.42 1117.76 994.969C1137.33 992.279 1156.67 991.221 1175.59 990.111C1372.7 978.523 1435.08 1024.99 1507.33 1096.95C1575.82 1165.15 1610.35 1262.03 1665.28 1358.69C1747.94 1504.11 1819.05 1591.28 1969.41 1627.97C2059.56 1649.97 2156.04 1645.67 2243.69 1666.18C2453.29 1715.04 2517.73 1768.02 2660.35 1896.54C2670.48 1905.67 2681.13 1915.2 2692.72 1924.86C2784.1 2001.56 2909.82 2117.44 3084.54 2248.1M307.982 542.115C362.122 621.128 434.912 709.148 467.932 841.442C496.357 955.338 484.471 1046.1 557.607 1091.89C675.551 1165.25 848.044 1021.7 1118.25 986.561C1137.78 984.023 1157.09 983.145 1176.01 982.248C1371.6 972.882 1431.43 1022.75 1502.69 1097.09C1569.03 1166.3 1604.06 1262.95 1661.47 1358.06C1748.08 1501.57 1823.2 1587.62 1975.13 1615.98C2066.67 1633.07 2162.04 1632.19 2248.52 1655.15C2455.31 1709.85 2507.21 1775.87 2647.27 1905.13C2657.27 1914.36 2667.83 1923.93 2679.42 1933.54C2770.25 2009.53 2899.2 2119.93 3090.74 2228.38M321.92 525.604C370.931 608.774 438.716 699.865 469.7 831.729C496.573 946.095 486.134 1036.87 559.036 1082.44C677.615 1156.08 851.072 1011.01 1118.73 978.169C1138.22 975.781 1157.5 975.085 1176.42 974.392C1370.51 967.242 1427.8 1020.51 1498.05 1097.23C1562.29 1167.42 1597.78 1263.87 1657.65 1357.44C1748.24 1499.04 1828.78 1578.49 1980.85 1604C2072.93 1619.45 2168.04 1618.72 2253.35 1644.12C2457.31 1704.66 2496.67 1783.72 2634.2 1913.72C2644.07 1923.05 2654.55 1932.64 2666.11 1942.21C2756.39 2017.52 2888.57 2122.43 3096.92 2208.66M335.858 509.093C379.732 596.418 442.511 690.58 471.47 822.008C496.772 936.84 487.798 1027.63 560.476 1072.99C679.689 1146.9 854.109 1000.33 1119.22 969.771C1138.66 967.525 1157.92 967.018 1176.84 966.53C1369.41 961.567 1424.23 1018.23 1493.4 1097.38C1555.58 1168.52 1591.51 1264.77 1653.83 1356.82C1748.4 1496.5 1835.39 1563.84 1986.57 1592.02C2078.56 1609.17 2174.04 1605.25 2258.18 1633.09C2459.33 1699.47 2486.12 1791.57 2621.13 1922.31C2630.86 1931.74 2641.26 1941.36 2652.81 1950.89C2742.55 2025.49 2877.95 2124.92 3103.12 2188.93M349.794 492.594C388.536 584.085 446.281 681.315 473.234 812.312C496.954 927.619 489.449 1018.4 561.903 1063.55C681.75 1137.74 857.139 989.688 1119.7 961.388C1139.1 959.294 1158.32 958.965 1177.25 958.691C1368.3 955.898 1420.68 1015.96 1488.75 1097.55C1548.89 1169.63 1585.24 1265.7 1650.01 1356.23C1748.59 1493.99 1840.85 1554.7 1992.29 1580.08C2084.89 1595.59 2180.04 1591.81 2263 1622.1C2461.34 1694.31 2475.56 1799.48 2608.05 1930.94C2617.65 1940.47 2627.96 1950.12 2639.5 1959.61C2728.7 2033.52 2867.33 2127.46 3109.31 2169.25M363.724 476.105C397.327 571.768 450.042 672.091 474.988 802.67C497.111 918.469 491.088 1009.28 563.32 1054.22C683.804 1128.69 860.173 979.133 1120.2 953.073C1139.55 951.137 1158.75 950.971 1177.67 950.91C1367.22 950.271 1417.2 1013.73 1484.12 1097.78C1542.27 1170.81 1578.98 1266.72 1646.2 1355.75C1748.78 1491.59 1846.32 1545.68 1998.03 1568.26C2091.25 1582.13 2186.07 1578.49 2267.87 1611.22C2463.39 1689.27 2465.04 1807.54 2595 1939.73C2604.47 1949.37 2614.71 1959.06 2626.22 1968.5C2714.88 2041.72 2856.73 2130.19 3115.54 2149.75M377.652 459.633C406.118 559.493 453.764 662.916 476.726 793.1C497.233 909.4 492.708 1000.26 564.708 1044.99C685.831 1119.75 863.196 968.677 1120.68 944.83C1140 943.044 1159.16 943.056 1178.09 943.207C1366.15 944.703 1413.76 1011.56 1479.5 1098.12C1535.67 1172.08 1572.74 1267.86 1642.4 1355.39C1748.99 1489.33 1851.78 1536.78 2003.78 1556.58C2097.63 1568.8 2192.11 1565.32 2272.74 1600.49C2465.45 1684.39 2454.5 1815.78 2581.96 1948.71C2591.3 1958.45 2601.45 1968.17 2612.95 1977.57C2701.07 2050.11 2846.15 2133.11 3121.81 2130.42M391.575 443.179C414.895 547.235 457.478 653.778 478.445 783.573C497.321 900.391 494.305 991.291 566.077 1035.81C687.839 1110.87 866.204 958.272 1121.16 936.627C1140.44 934.989 1159.58 935.172 1178.51 935.535C1365.07 939.136 1410.37 1009.42 1474.87 1098.5C1529.11 1173.4 1566.51 1269.03 1638.59 1355.09C1749.21 1487.12 1857.26 1527.93 2009.54 1544.95C2104.01 1555.51 2198.17 1552.18 2277.63 1589.81C2467.54 1679.58 2443.98 1824.11 2568.95 1957.79C2578.14 1967.63 2588.21 1977.39 2599.7 1986.74C2687.29 2058.6 2835.6 2136.14 3128.11 2111.18M405.498 426.72C423.677 534.993 461.159 644.647 480.171 774.057C497.405 891.396 495.907 982.343 567.458 1026.66C689.861 1102.01 869.234 947.917 1121.66 928.446C1140.9 926.967 1160 927.309 1178.95 927.886C1364 933.584 1407.04 1007.3 1470.26 1098.92C1522.58 1174.75 1560.28 1270.26 1634.8 1354.83C1749.45 1484.95 1862.75 1519.1 2015.31 1533.37C2110.41 1542.25 2204.24 1539.09 2282.53 1579.18C2469.63 1674.81 2433.44 1832.51 2555.92 1966.94C2564.98 1976.88 2574.98 1986.68 2586.45 1996C2673.49 2067.18 2825.04 2139.25 3134.41 2092M419.42 410.261C432.448 522.746 464.835 635.527 481.888 764.563C497.47 882.432 497.5 973.423 568.822 1017.53C691.867 1093.19 872.256 937.595 1122.15 920.289C1141.35 918.958 1160.43 919.464 1179.37 920.269C1362.93 928.051 1403.75 1005.21 1465.63 1099.38C1516.09 1176.14 1554.05 1271.52 1630.99 1354.62C1749.68 1482.81 1868.23 1510.31 2021.08 1521.82C2116.79 1529.02 2210.31 1526.03 2287.43 1568.58C2471.73 1670.09 2422.89 1840.99 2542.9 1976.15C2551.83 1986.2 2561.74 1996.02 2573.2 2005.3C2659.69 2075.81 2814.48 2142.41 3140.74 2072.82M433.343 393.805C441.227 510.509 468.487 626.423 483.603 755.074C497.515 873.462 499.091 964.508 570.195 1008.41C693.885 1084.35 875.277 927.286 1122.64 912.139C1141.8 910.966 1160.84 911.631 1179.79 912.651C1361.88 922.501 1400.5 1003.11 1461 1099.84C1509.61 1177.54 1547.82 1272.78 1627.19 1354.41C1749.92 1480.66 1873.71 1501.49 2026.85 1510.26C2123.2 1515.77 2216.39 1512.96 2292.34 1557.98C2473.83 1665.37 2412.32 1849.48 2529.87 1985.39C2538.65 1995.55 2548.49 2005.4 2559.94 2014.64C2645.89 2084.47 2803.93 2145.59 3147.07 2053.65M447.265 377.356C449.992 498.291 472.124 617.335 485.312 745.609C497.541 864.523 500.676 955.619 571.551 999.316C695.884 1075.56 878.289 917.018 1123.12 904.015C1142.24 903.002 1161.26 903.82 1180.21 905.069C1360.82 916.965 1397.29 1001.05 1456.37 1100.35C1503.16 1178.99 1541.59 1274.08 1623.39 1354.26C1750.19 1478.57 1879.19 1492.71 2032.65 1498.74C2129.61 1502.55 2222.49 1499.93 2297.27 1547.41C2475.95 1660.69 2401.77 1858.05 2516.86 1994.69C2525.51 2004.96 2535.26 2014.84 2546.7 2024.03C2632.12 2093.19 2793.39 2148.82 3153.43 2034.52M461.188 360.899C458.767 486.063 475.75 608.244 487.018 736.144C497.546 855.58 502.251 946.716 572.915 990.223C697.891 1066.77 881.316 906.768 1123.61 895.894C1142.69 895.038 1161.68 896.01 1180.64 897.482C1359.77 911.417 1394.14 998.982 1451.75 1100.86C1496.75 1180.44 1535.37 1275.37 1619.58 1354.1C1750.45 1476.43 1884.68 1483.89 2038.44 1487.2C2136.02 1489.29 2228.59 1486.88 2302.2 1536.83C2478.06 1655.99 2391.18 1866.61 2503.84 2003.98C2512.35 2014.35 2522.03 2024.27 2533.45 2033.43C2618.33 2101.91 2782.86 2152.04 3159.8 2015.35M475.121 344.439C467.549 473.843 479.364 599.152 488.733 726.671C497.551 846.627 503.843 937.817 574.28 981.11C699.901 1057.95 884.331 896.523 1124.1 887.758C1143.15 887.061 1162.12 888.178 1181.07 889.888C1358.73 905.849 1391.03 996.919 1447.12 1101.38C1490.36 1181.91 1529.15 1276.67 1615.79 1353.95C1750.72 1474.3 1890.17 1475.06 2044.25 1475.66C2142.44 1476.03 2234.71 1473.82 2307.15 1526.24C2480.2 1651.3 2380.61 1875.19 2490.83 2013.29C2499.19 2023.77 2508.8 2033.72 2520.2 2042.83C2604.55 2110.64 2772.32 2155.27 3166.18 1996.16M489.043 327.989C476.311 461.626 482.945 590.071 490.432 717.221C497.52 837.693 505.42 928.937 575.638 972.028C701.904 1049.17 887.345 886.32 1124.59 879.656C1143.59 879.127 1162.53 880.388 1181.49 882.321C1357.68 900.293 1387.96 994.88 1442.49 1101.93C1484.01 1183.42 1522.92 1277.99 1611.99 1353.82C1750.99 1472.17 1895.65 1466.24 2050.05 1464.12C2148.85 1462.76 2240.81 1460.78 2312.08 1515.66C2482.32 1646.63 2369.99 1883.8 2477.8 2022.63C2486.03 2033.22 2495.55 2043.2 2506.95 2052.27C2590.75 2119.4 2761.78 2158.52 3172.56 1976.99M502.968 311.525C485.083 449.4 486.527 580.973 492.132 707.752C497.479 828.745 506.998 920.038 576.989 962.923C703.9 1040.36 890.349 876.111 1125.07 871.535C1144.03 871.165 1162.95 872.573 1181.91 874.736C1356.64 894.706 1384.93 992.837 1437.85 1102.46C1477.65 1184.92 1516.7 1279.28 1608.17 1353.67C1751.26 1470.02 1901.12 1457.37 2055.85 1452.56C2155.26 1449.46 2246.92 1447.69 2317.01 1505.05C2484.43 1641.93 2359.36 1892.41 2464.75 2031.94C2472.84 2042.65 2482.3 2052.66 2493.68 2061.68C2576.95 2128.13 2751.23 2161.75 3178.94 1957.76M516.893 295.06C493.842 437.183 490.085 571.884 493.828 698.294C497.426 819.798 508.573 911.147 578.345 953.829C705.902 1031.57 893.355 865.932 1125.55 863.43C1144.47 863.228 1163.37 864.771 1182.33 867.175C1355.61 889.128 1381.94 990.831 1433.21 1103.03C1471.33 1186.46 1510.47 1280.61 1604.36 1353.56C1751.53 1467.89 1906.59 1448.54 2061.66 1441.02C2161.67 1436.18 2253.04 1434.65 2321.96 1494.48C2486.56 1637.27 2348.73 1901.06 2451.73 2041.31C2459.67 2052.13 2469.06 2062.16 2480.41 2071.16C2563.15 2136.92 2740.68 2165.02 3185.34 1938.56M530.818 278.594C502.612 424.961 493.634 562.787 495.521 688.838C497.352 810.847 510.146 902.255 579.693 944.723C707.896 1022.76 896.351 855.75 1126.02 855.316C1144.91 855.282 1163.78 856.963 1182.74 859.598C1354.58 883.522 1378.99 988.814 1428.55 1103.58C1465.02 1188 1504.22 1281.9 1600.54 1353.42C1751.79 1465.72 1912.05 1439.65 2067.46 1429.45C2168.08 1422.86 2259.16 1421.56 2326.9 1483.87C2488.69 1632.58 2338.07 1909.69 2438.68 2050.66C2446.48 2061.59 2455.8 2071.65 2467.14 2080.6C2549.34 2145.68 2730.13 2168.26 3191.74 1919.32M544.742 262.134C511.366 412.752 497.159 553.695 497.211 679.38C497.258 801.881 511.717 893.36 581.046 935.623C709.896 1013.96 899.346 845.601 1126.5 847.213C1145.35 847.348 1164.21 849.158 1183.15 852.041C1353.57 877.931 1376.08 986.83 1423.91 1104.16C1458.74 1189.59 1497.98 1283.23 1596.73 1353.32C1752.07 1463.57 1917.52 1430.78 2073.29 1417.91C2174.5 1409.54 2265.3 1408.5 2331.86 1473.28C2490.84 1627.92 2327.42 1918.36 2425.66 2060.04C2433.32 2071.07 2442.56 2081.17 2453.89 2090.07C2535.55 2154.47 2719.61 2171.53 3198.17 1900.08M558.669 245.663C520.135 400.529 500.675 544.594 498.9 669.922C497.15 792.921 513.286 884.463 582.388 926.518C711.886 1005.15 902.327 835.466 1126.97 839.108C1145.77 839.411 1164.62 841.352 1183.56 844.474C1352.55 872.307 1373.19 984.847 1419.25 1104.74C1452.46 1191.19 1491.73 1284.54 1592.91 1353.21C1752.33 1461.4 1922.95 1421.89 2079.09 1406.34C2180.89 1396.21 2271.41 1395.41 2336.8 1462.69C2492.95 1623.24 2316.71 1927.03 2412.61 2069.42C2420.11 2080.57 2429.29 2090.69 2440.61 2099.55C2521.73 2163.27 2709.05 2174.8 3204.58 1880.83M572.604 229.191C528.899 388.304 504.189 535.483 500.596 660.453C497.034 783.936 514.857 875.541 583.741 917.391C713.887 996.318 905.304 825.325 1127.45 830.986C1146.2 831.466 1165.03 833.526 1183.97 836.89C1351.55 866.661 1370.35 982.857 1414.59 1105.29C1446.2 1192.78 1485.48 1285.82 1589.09 1353.06C1752.6 1459.17 1928.4 1412.94 2084.91 1394.73C2187.29 1382.82 2277.54 1382.28 2341.75 1452.04C2495.09 1618.52 2306.02 1935.66 2399.56 2078.76C2406.92 2090.02 2416.02 2100.17 2427.33 2108.99C2507.91 2172.02 2698.5 2178.02 3210.99 1861.53M586.545 212.729C537.678 376.098 507.699 526.379 502.295 651C496.911 774.962 516.439 866.64 585.106 908.284C715.899 987.507 908.291 815.215 1127.92 822.896C1146.64 823.546 1165.44 825.735 1184.38 829.348C1350.56 861.043 1367.55 980.931 1409.94 1105.9C1439.97 1194.44 1479.36 1286.96 1585.27 1352.97C1753.08 1456.71 1933.83 1404.03 2090.73 1383.17C2193.69 1369.49 2283.67 1369.21 2346.7 1441.45C2497.22 1613.86 2295.3 1944.35 2386.5 2088.16C2393.71 2099.52 2402.76 2109.71 2414.04 2118.49C2494.09 2180.83 2687.94 2181.29 3217.41 1842.26M600.5 196.259C546.461 363.875 510.947 517.246 503.996 641.533C496.518 765.953 518.024 857.723 586.463 899.158C717.904 978.676 911.254 805.436 1128.39 814.786C1147.06 815.648 1165.86 817.915 1184.79 821.777C1349.58 855.383 1364.77 978.989 1405.27 1106.48C1433.74 1196.08 1473.03 1288.35 1581.44 1352.84C1753.22 1454.63 1939.21 1394.86 2096.55 1371.57C2200.05 1355.96 2289.79 1356.09 2351.66 1430.81C2499.34 1609.15 2284.36 1953.11 2373.45 2097.51C2380.49 2108.99 2389.49 2119.2 2400.77 2127.93C2480.28 2189.59 2677.39 2184.51 3223.84 1822.93M614.462 179.786C495.591 524.879 451.938 807.9 587.85 890.012C731.404 976.752 948.46 762.739 1185.23 814.19C1462.66 874.476 1307.74 1199.39 1577.65 1352.69C1869.42 1518.4 2204 1225.98 2356.64 1420.14C2513.06 1619.12 2235.14 2019.74 2387.51 2137.36C2466.49 2198.32 2666.86 2187.71 3230.29 1803.57M620.661 174.813C574.355 314.793 540.167 446.522 523.604 560.82C499.94 722.397 516.514 841.913 593.049 893.776C682.507 954.394 800.351 890.574 939.142 851.537C1014.35 830.381 1096.03 814.709 1180.35 830.516C1429.66 877.26 1343.88 1129.49 1513.8 1292.72C1534.13 1312.1 1557.55 1330.61 1585.36 1347.36C1723.06 1430.31 1867.07 1412.23 2003.7 1386.98C2081.56 1372.76 2154.64 1354.79 2216.93 1359.62C2271.92 1363.89 2318.07 1383.72 2353.19 1432.16C2421.77 1526.16 2398.19 1663.46 2371.64 1793.38C2340.67 1943.4 2304.02 2084.62 2392.9 2144.19C2477.73 2201.05 2683.22 2187.32 3246.62 1807.16M626.852 169.84C582.666 309.219 550.231 442.413 533.521 560.403C510.058 722.666 525.773 842.59 598.248 897.541C684.004 962.558 795.335 905.376 932.368 869.552C1007 850.037 1089.75 833.263 1175.49 846.839C1425.65 886.453 1351.65 1125.36 1521.81 1286.1C1542.46 1305.6 1565.74 1324.59 1593.08 1342.03C1727.61 1427.88 1864.72 1418.28 2002.5 1395.3C2081.33 1382.15 2155.59 1361.96 2217.81 1368.03C2272.29 1373.34 2316.51 1394.65 2349.75 1444.18C2414.23 1540.25 2387.98 1679.45 2362.86 1808.86C2333.36 1957.5 2302.28 2095.07 2398.31 2151.02C2488.88 2203.78 2699.58 2186.93 3262.96 1810.76M633.053 164.878C590.977 303.656 560.298 438.296 543.439 559.996C520.176 722.945 535.054 843.399 603.441 901.307C685.57 970.855 790.348 920.187 925.578 887.567C999.641 869.707 1083.43 851.838 1170.61 863.162C1421.53 895.748 1359.78 1120.91 1529.8 1279.47C1550.8 1299.05 1573.92 1318.56 1600.78 1336.7C1732.14 1425.42 1862.4 1424.47 2001.3 1403.63C2081.13 1391.64 2156.53 1369.13 2218.67 1376.43C2272.65 1382.77 2315.02 1405.54 2346.3 1456.19C2406.82 1554.23 2378.16 1695.49 2354.06 1824.33C2326.5 1971.67 2300.41 2105.53 2403.71 2157.85C2499.91 2206.56 2715.94 2186.54 3279.3 1814.36M639.258 159.905C599.292 298.082 570.704 434.221 553.36 559.579C530.721 723.266 544.347 844.325 608.645 905.074C687.204 979.291 785.39 935.012 918.795 905.592C992.306 889.38 1077.08 870.452 1165.74 879.494C1417.33 905.141 1367.94 1116.45 1537.8 1272.86C1559.16 1292.51 1582.1 1312.53 1608.5 1331.38C1736.68 1422.93 1860.1 1430.69 2000.11 1411.96C2080.93 1401.14 2157.48 1376.32 2219.55 1384.86C2273.02 1392.21 2313.54 1416.42 2342.86 1468.23C2399.44 1568.23 2368.07 1711.51 2345.28 1839.83C2319.33 1985.81 2298.46 2116.07 2409.13 2164.69C2510.86 2209.39 2732.31 2186.15 3295.66 1817.96M645.457 154.933C607.611 292.51 580.836 430.108 563.277 559.163C540.916 723.542 553.626 845.374 613.845 908.832C688.855 987.876 780.451 949.853 912.01 923.603C984.987 909.042 1070.7 889.073 1160.87 895.812C1413.05 914.639 1376.14 1111.95 1545.81 1266.22C1567.51 1285.96 1590.28 1306.47 1616.21 1326.03C1741.22 1420.38 1857.8 1436.89 1998.92 1420.26C2080.74 1410.62 2158.42 1383.45 2220.43 1393.24C2273.38 1401.6 2312.07 1427.26 2339.42 1480.23C2392.06 1582.18 2357.99 1727.48 2336.49 1855.28C2312.16 1999.89 2296.43 2126.6 2414.54 2171.5C2521.74 2212.24 2748.68 2185.74 3312 1821.53M651.669 149.963C615.934 286.939 590.979 426.007 573.213 558.76C551.118 723.838 562.884 846.563 619.065 912.604C690.523 996.609 775.569 964.718 905.244 941.628C977.694 928.731 1064.32 907.748 1156.03 912.138C1408.75 924.25 1384.39 1107.44 1553.85 1259.59C1575.92 1279.41 1598.51 1300.41 1623.96 1320.69C1745.82 1417.81 1855.54 1443.11 1997.75 1428.58C2080.59 1420.12 2159.38 1390.59 2221.33 1401.64C2273.77 1411 2310.63 1438.13 2336.01 1492.25C2384.72 1596.13 2347.93 1743.47 2327.73 1870.76C2305 2014.01 2294.37 2137.23 2419.98 2178.33C2532.58 2215.18 2765.08 2185.34 3328.38 1825.13M657.874 144.993C624.259 281.368 601.117 421.895 583.135 558.346C561.291 724.111 572.08 847.856 624.268 916.374C692.142 1005.48 770.683 979.61 898.46 959.662C970.411 948.433 1057.9 926.455 1151.16 928.479C1404.35 933.977 1392.63 1102.93 1561.85 1252.97C1584.28 1272.87 1606.7 1294.36 1631.68 1315.37C1750.38 1415.22 1853.26 1449.37 1996.56 1436.92C2080.4 1429.63 2159.85 1399.9 2222.21 1410.05C2274.5 1418.58 2309.17 1448.99 2332.56 1504.27C2377.34 1610.08 2337.82 1759.48 2318.94 1886.24C2297.8 2028.12 2292.22 2147.91 2425.39 2185.17C2543.35 2218.17 2781.45 2184.95 3344.73 1828.72M664.091 140.026C632.587 275.799 611.249 417.784 593.069 557.935C571.473 724.396 581.215 849.255 629.477 920.138C693.705 1014.47 765.827 994.512 891.681 977.682C963.143 968.124 1051.47 945.18 1146.29 944.806C1399.93 943.808 1400.91 1098.38 1569.86 1246.34C1592.66 1266.31 1614.89 1288.29 1639.4 1310.04C1754.97 1412.58 1850.97 1455.61 1995.37 1445.24C2080.22 1439.15 2160.68 1407.24 2223.09 1418.47C2274.94 1427.79 2307.7 1459.85 2329.13 1516.31C2370 1624.02 2327.71 1775.48 2310.15 1901.74C2290.61 2042.24 2290.06 2158.66 2430.81 2192.01C2554.1 2221.23 2797.83 2184.57 3361.07 1832.33M670.309 135.059C640.925 270.232 621.391 413.675 603.013 557.529C581.656 724.684 590.278 850.749 634.702 923.918C695.21 1023.58 761.021 1009.46 884.928 995.722C955.918 987.847 1045.04 963.965 1141.45 961.152C1395.49 953.75 1409.23 1093.83 1577.9 1239.73C1601.07 1259.77 1623.11 1282.23 1647.14 1304.72C1759.59 1409.93 1848.72 1461.89 1994.2 1453.59C2080.06 1448.68 2162.18 1411.97 2223.99 1426.89C2274.85 1439.17 2306.27 1470.72 2325.71 1528.35C2362.68 1637.97 2317.63 1791.49 2301.39 1917.24C2283.43 2056.37 2289.84 2162.03 2436.25 2198.86C2563.2 2230.8 2814.23 2184.2 3377.46 1835.95M676.518 130.089C649.244 264.66 631.512 409.57 612.939 557.118C591.812 724.957 599.248 852.304 639.91 927.686C696.595 1032.77 756.219 1024.42 878.146 1013.76C948.678 1007.59 1038.58 982.772 1136.59 977.493C1391.01 963.796 1417.55 1089.25 1585.91 1233.11C1609.45 1253.22 1631.32 1276.16 1654.87 1299.38C1764.2 1407.24 1846.44 1468.16 1993.02 1461.91C2079.89 1458.21 2163.1 1419.07 2224.87 1435.3C2275.21 1448.52 2304.83 1481.56 2322.27 1540.37C2355.35 1651.9 2307.51 1807.48 2292.61 1932.72C2276.21 2070.46 2285.71 2180.32 2441.67 2205.69C2575.6 2227.48 2830.62 2183.8 3393.82 1839.53M682.732 125.131C657.579 259.103 641.632 405.468 622.87 556.721C601.972 725.254 608.127 853.945 645.121 931.478C697.879 1042.06 751.443 1039.44 871.369 1031.81C941.453 1027.35 1032.13 1001.63 1131.72 993.853C1386.52 973.958 1425.9 1084.68 1593.93 1226.5C1617.84 1246.67 1639.52 1270.09 1662.59 1294.07C1768.84 1404.52 1844.18 1474.46 1991.84 1470.26C2079.73 1467.77 2164.04 1426.18 2225.76 1443.73C2275.58 1457.9 2303.4 1492.43 2318.85 1552.42C2348.05 1665.84 2297.4 1823.49 2283.83 1948.24C2269 2084.6 2283.51 2191.25 2447.09 2212.56C2586.33 2230.69 2847 2183.44 3410.19 1843.16M688.941 120.161C665.907 253.535 651.734 401.361 632.795 556.314C612.107 725.537 616.914 855.604 650.327 935.254C699.042 1051.41 746.683 1054.48 864.587 1049.85C934.247 1047.12 1025.65 1020.51 1126.87 1010.2C1382.03 984.193 1434.27 1080.07 1601.95 1219.88C1626.24 1240.12 1647.74 1264 1670.32 1288.74C1773.5 1401.79 1841.92 1480.75 1990.65 1478.61C2079.55 1477.32 2164.96 1433.26 2226.64 1452.16C2275.93 1467.25 2301.96 1503.29 2315.41 1564.47C2340.74 1679.78 2287.26 1839.51 2275.04 1963.75C2261.76 2098.73 2281.31 2202.23 2452.51 2219.42C2597.06 2233.94 2863.38 2183.07 3426.54 1846.77M695.158 115.195C674.235 247.969 661.847 397.251 642.736 555.924C622.258 725.837 625.637 857.326 655.538 939.054C700.082 1060.81 741.947 1069.59 857.806 1067.92C927.05 1066.93 1019.19 1039.45 1122 1026.58C1377.54 994.56 1442.67 1075.47 1609.98 1213.29C1634.63 1233.6 1655.98 1257.95 1678.06 1283.45C1778.19 1399.06 1839.66 1487.1 1989.48 1486.98C2079.4 1486.91 2165.9 1440.37 2227.54 1460.61C2276.3 1476.62 2300.56 1514.18 2311.98 1576.55C2333.46 1693.74 2277.13 1855.54 2266.27 1979.29C2254.54 2112.88 2279.14 2213.25 2457.94 2226.3C2607.8 2237.23 2879.78 2182.72 3442.92 1850.41M701.366 110.228C682.563 242.402 671.948 393.149 652.659 555.523C632.391 726.127 634.263 859.039 660.743 942.838C700.999 1070.23 737.226 1084.71 851.021 1085.98C919.863 1086.74 1012.72 1058.41 1117.13 1042.93C1373.05 1004.97 1451.07 1070.84 1617.99 1206.67C1643.03 1227.05 1664.19 1251.86 1685.78 1278.13C1782.9 1396.28 1837.39 1493.43 1988.29 1495.34C2079.24 1496.49 2166.84 1447.44 2228.43 1469.05C2276.67 1485.97 2299.15 1525.05 2308.55 1588.6C2326.19 1707.68 2266.99 1871.57 2257.49 1994.82C2247.29 2127.02 2276.95 2224.32 2463.37 2233.18C2618.55 2240.56 2896.18 2182.36 3459.31 1854.04M707.583 105.262C690.892 236.837 682.052 389.038 662.593 555.125C642.525 726.418 642.824 860.778 665.954 946.636C701.803 1079.67 732.522 1099.89 844.251 1104.04C912.696 1106.59 1006.27 1077.42 1112.28 1059.3C1368.59 1015.48 1459.51 1066.19 1626.03 1200.06C1651.45 1220.5 1672.45 1245.78 1693.53 1272.81C1787.64 1393.49 1835.14 1499.76 1987.12 1503.68C2079.08 1506.05 2167.79 1454.5 2229.33 1477.47C2277.06 1495.29 2297.75 1535.91 2305.14 1600.65C2318.94 1721.62 2256.86 1887.58 2248.72 2010.33C2240.05 2141.15 2274.8 2235.4 2468.81 2240.04C2629.33 2243.88 2912.6 2181.99 3475.7 1857.65M713.799 100.299C699.229 231.275 692.153 384.939 672.525 554.731C652.648 726.712 651.309 862.506 671.167 950.43C702.477 1089.11 727.826 1115.11 837.469 1122.12C905.524 1126.47 999.828 1096.47 1107.41 1075.68C1364.14 1026.08 1467.96 1061.53 1634.05 1193.46C1659.86 1213.95 1680.69 1239.69 1701.26 1267.5C1792.4 1390.68 1832.88 1506.13 1985.95 1512.05C2078.93 1515.66 2168.74 1461.56 2230.23 1485.93C2277.44 1504.63 2296.35 1546.79 2301.72 1612.73C2311.7 1735.58 2246.71 1903.62 2239.94 2025.88C2232.78 2155.31 2272.65 2246.54 2474.24 2246.94C2640.09 2247.27 2928.99 2181.65 3492.08 1861.3M720.007 95.3325C707.547 225.709 702.236 380.836 682.458 554.338C662.772 727.008 659.745 864.234 676.377 954.235C703.045 1098.55 723.138 1130.38 830.687 1140.2C898.363 1146.38 993.393 1115.55 1102.55 1092.06C1359.71 1036.73 1476.42 1056.86 1642.08 1186.86C1668.27 1207.42 1688.94 1233.61 1709 1262.2C1797.19 1387.88 1830.62 1512.5 1984.77 1520.44C2078.77 1525.27 2169.7 1468.62 2231.12 1494.39C2277.82 1513.98 2294.97 1557.69 2298.29 1624.81C2304.46 1749.55 2236.54 1919.67 2231.16 2041.44C2225.51 2169.48 2270.51 2257.72 2479.67 2253.83C2650.88 2250.65 2945.4 2181.31 3508.47 1864.94M726.224 90.367C715.885 220.146 712.319 376.732 692.391 553.945C672.895 727.303 668.115 865.949 681.579 958.031C703.506 1107.98 718.45 1145.69 823.896 1158.27C891.197 1166.31 986.952 1134.65 1097.69 1108.44C1355.32 1047.46 1484.9 1052.16 1650.11 1180.25C1676.69 1200.87 1697.2 1227.52 1716.74 1256.89C1802 1385.04 1828.37 1518.88 1983.59 1528.8C2078.6 1534.88 2170.65 1475.66 2232.02 1502.84C2278.21 1523.29 2293.59 1568.57 2294.86 1636.88C2297.23 1763.5 2226.37 1935.7 2222.39 2056.98C2218.23 2183.62 2268.38 2268.89 2485.11 2260.71C2661.68 2254.06 2961.81 2180.96 3524.87 1868.56M732.429 85.4084C724.201 214.588 722.389 372.635 702.312 553.56C682.997 727.606 676.429 867.647 686.778 961.839C703.864 1117.38 713.757 1161.06 817.098 1176.37C884.02 1186.28 980.53 1153.79 1092.81 1124.83C1350.94 1058.26 1493.39 1047.48 1658.13 1173.67C1685.11 1194.33 1705.46 1221.45 1724.47 1251.6C1806.84 1382.23 1826.11 1525.29 1982.41 1537.2C2078.44 1544.52 2171.62 1482.72 2232.91 1511.32C2278.6 1532.64 2292.21 1579.49 2291.44 1648.99C2290.01 1777.5 2216.19 1951.77 2213.61 2072.57C2210.94 2197.82 2266.26 2280.14 2490.54 2267.65C2672.49 2257.52 2978.21 2180.65 3541.25 1872.24M738.645 80.4468C732.538 209.028 732.474 368.528 712.242 553.182C693.108 727.915 684.717 869.336 691.984 965.663C704.144 1126.78 711.885 1166.05 810.308 1194.47C875.006 1213.16 974.128 1172.98 1087.94 1141.24C1346.6 1069.11 1501.9 1042.77 1666.16 1167.09C1693.52 1187.79 1713.73 1215.37 1732.21 1246.31C1811.71 1379.4 1823.84 1531.7 1981.23 1545.6C2078.28 1554.16 2172.59 1489.76 2233.81 1519.79C2279 1541.96 2290.83 1590.4 2288.01 1661.1C2282.81 1791.5 2205.98 1967.84 2204.82 2088.14C2203.63 2212 2264.14 2291.38 2495.97 2274.56C2683.3 2260.97 2994.62 2180.32 3557.65 1875.9M744.861 75.4851C740.866 203.467 742.547 364.427 722.184 552.798C703.22 728.226 692.974 870.993 697.203 969.475C704.358 1136.12 707.514 1181.77 803.54 1212.57C867.613 1233.12 967.751 1192.19 1083.09 1157.64C1342.32 1080 1510.44 1038.04 1674.21 1160.48C1701.97 1181.24 1722.02 1209.28 1739.97 1241C1816.63 1376.56 1821.6 1538.11 1980.08 1553.98C2078.15 1563.8 2173.6 1496.78 2234.73 1528.26C2279.43 1551.28 2289.49 1601.3 2284.61 1673.18C2275.64 1805.48 2195.81 1983.89 2196.07 2103.71C2196.34 2226.17 2262.07 2302.63 2501.44 2281.47C2694.16 2264.43 3011.07 2179.99 3574.08 1879.54M751.069 70.5171C749.195 197.902 752.601 360.327 732.107 552.407C713.315 728.522 701.178 872.619 702.402 973.289C704.48 1145.44 703.06 1197.63 796.741 1230.67C860.207 1253.06 961.379 1211.41 1078.21 1174.05C1338.04 1090.93 1518.97 1033.3 1682.23 1153.89C1710.39 1174.69 1730.3 1203.19 1747.7 1235.71C1821.53 1373.71 1819.32 1544.53 1978.89 1562.37C2077.97 1573.45 2174.58 1503.8 2235.61 1536.73C2279.82 1560.59 2288.12 1612.22 2281.18 1685.28C2268.43 1819.49 2185.58 1999.96 2187.28 2119.29C2189 2240.35 2259.98 2313.91 2506.86 2288.38C2704.99 2267.9 3027.47 2179.66 3590.46 1883.2M757.285 65.5555C757.523 192.341 762.665 356.225 742.04 552.024C723.408 728.832 709.377 874.231 707.602 977.101C704.543 1154.71 694.919 1223.03 789.94 1248.79C855.301 1266.5 955.01 1230.67 1073.33 1190.46C1333.8 1101.92 1527.51 1028.55 1690.25 1147.3C1718.81 1168.14 1738.58 1197.11 1755.42 1230.42C1826.46 1370.87 1817.03 1550.97 1977.7 1570.77C2077.79 1583.1 2175.56 1510.81 2236.49 1545.21C2280.23 1569.9 2286.74 1623.14 2277.74 1697.39C2261.24 1833.5 2175.34 2016.04 2178.49 2134.88C2181.66 2254.55 2257.9 2325.2 2512.29 2295.31C2715.83 2271.39 3043.88 2179.34 3606.86 1886.86M763.492 60.5913C765.851 186.779 772.72 352.121 751.963 551.64C733.502 729.134 717.532 875.819 712.798 980.924C704.552 1163.96 690.158 1238.63 783.136 1266.9C848.081 1286.65 948.661 1249.96 1068.45 1206.87C1329.61 1112.94 1536.06 1023.78 1698.28 1140.71C1727.24 1161.59 1746.88 1191.03 1763.16 1225.13C1831.42 1368.03 1814.76 1557.43 1976.52 1579.18C2077.62 1592.78 2176.58 1517.83 2237.39 1553.7C2280.66 1579.22 2285.39 1634.07 2274.31 1709.5C2254.05 1847.52 2165.1 2032.11 2169.71 2150.47C2174.31 2268.75 2255.83 2336.51 2517.73 2302.24C2726.7 2274.89 3060.3 2179.02 3623.27 1890.53M769.708 55.6256C774.189 181.216 782.776 348.014 761.905 551.256C743.605 729.444 725.694 877.378 718.016 984.74C704.538 1173.18 685.39 1254.27 776.353 1285.01C840.857 1306.81 942.349 1269.26 1063.59 1223.28C1325.47 1123.97 1544.65 1018.98 1706.32 1134.1C1735.7 1155.02 1755.19 1184.93 1770.92 1219.81C1836.43 1365.17 1812.5 1563.85 1975.35 1587.57C2077.46 1602.43 2177.61 1524.81 2238.3 1562.17C2281.1 1588.52 2284.04 1644.99 2270.89 1721.61C2246.88 1861.54 2154.86 2048.19 2160.93 2166.05C2166.95 2282.94 2253.79 2347.81 2523.17 2309.15C2737.57 2278.38 3076.71 2178.68 3639.68 1894.18M775.924 50.6639C782.517 175.654 792.831 343.911 771.838 550.876C753.7 729.749 733.831 878.92 723.222 988.569C704.464 1182.36 680.577 1269.96 769.554 1303.15C833.599 1327.03 936.048 1288.6 1058.71 1239.71C1321.35 1135.06 1553.23 1014.2 1714.36 1127.52C1744.15 1148.47 1763.52 1178.85 1778.67 1214.53C1841.45 1362.33 1810.23 1570.32 1974.18 1595.98C2077.31 1612.11 2178.65 1531.81 2239.21 1570.65C2281.56 1597.82 2282.71 1655.93 2267.49 1733.73C2239.73 1875.58 2144.61 2064.28 2152.16 2181.65C2159.59 2297.15 2251.76 2359.15 2528.63 2316.08C2748.47 2281.89 3093.15 2178.37 3656.11 1897.84M782.131 45.6978C790.846 170.09 802.866 339.81 781.76 550.5C763.772 730.066 741.944 880.438 728.409 992.393C704.34 1191.5 675.702 1285.67 762.747 1321.27C826.305 1347.27 929.746 1307.94 1053.83 1256.14C1317.25 1146.17 1561.81 1009.38 1722.38 1120.93C1752.58 1141.9 1771.83 1172.77 1786.4 1209.24C1846.48 1359.5 1807.95 1576.79 1973 1604.39C2077.13 1621.81 2179.69 1538.81 2240.1 1579.16C2281.99 1607.14 2281.35 1666.89 2264.04 1745.86C2232.54 1889.63 2134.32 2080.39 2143.36 2197.27C2152.2 2311.37 2249.71 2370.5 2534.05 2323.04C2759.35 2285.42 3109.56 2178.07 3672.5 1901.54M788.346 40.7458C799.174 164.538 812.911 335.715 791.701 550.133C773.866 730.382 750.069 881.955 733.622 996.237C704.218 1200.64 670.823 1301.44 755.954 1339.42C818.993 1367.56 923.483 1327.32 1048.96 1272.58C1313.22 1157.31 1570.42 1004.57 1730.42 1114.35C1761.03 1135.35 1780.15 1166.69 1794.15 1203.96C1851.53 1356.69 1805.67 1583.28 1971.82 1612.83C2076.96 1631.52 2180.75 1545.82 2241 1587.67C2282.44 1616.45 2280.01 1677.86 2260.62 1758C2225.39 1903.7 2124.03 2096.51 2134.59 2212.89C2144.82 2325.6 2247.69 2381.86 2539.5 2329.98C2770.26 2288.95 3126 2177.76 3688.93 1905.21M794.552 35.7835C807.5 158.987 822.464 331.572 801.624 549.755C783.553 730.661 758.166 883.422 738.819 1000.06C704.051 1209.72 665.884 1317.2 749.143 1357.56C811.636 1387.85 917.218 1346.71 1044.07 1289.02C1309.21 1168.45 1579.02 999.741 1738.45 1107.77C1769.47 1128.79 1788.47 1160.61 1801.89 1198.68C1856.59 1353.87 1803.37 1589.77 1970.64 1621.25C2076.78 1641.22 2181.81 1552.8 2241.89 1596.17C2282.9 1625.77 2278.66 1688.82 2257.19 1770.13C2218.22 1917.77 2113.72 2112.63 2125.8 2228.52C2137.4 2339.85 2245.67 2393.24 2544.94 2336.94C2781.16 2292.5 3142.43 2177.46 3705.35 1908.9M800.769 30.8199C815.83 153.423 832.559 327.475 811.558 549.376C793.687 730.975 766.266 884.878 744.024 1003.9C703.868 1218.78 660.918 1333 742.341 1375.7C804.254 1408.17 910.982 1366.1 1039.2 1305.47C1305.24 1179.62 1587.64 994.895 1746.49 1101.18C1777.93 1122.22 1796.82 1154.54 1809.64 1193.38C1861.7 1351.05 1801.09 1596.26 1969.47 1629.67C2076.61 1650.93 2182.9 1559.79 2242.8 1604.66C2283.39 1635.07 2277.33 1699.78 2253.77 1782.26C2211.07 1931.84 2103.41 2128.75 2117.01 2244.13C2129.98 2354.08 2243.66 2404.6 2550.38 2343.87C2792.07 2296.01 3158.86 2177.13 3721.76 1912.56M806.984 25.858C824.168 147.863 842.643 323.378 821.491 548.999C803.82 731.292 774.359 886.318 749.229 1007.72C703.671 1227.81 655.898 1348.8 735.538 1393.84C796.836 1428.51 904.768 1385.52 1034.32 1321.9C1301.31 1190.79 1596.27 990.022 1754.53 1094.58C1786.39 1115.63 1805.16 1148.44 1817.39 1188.08C1866.81 1348.22 1799.03 1601.83 1968.29 1638.07C2076.29 1661.2 2183.99 1566.75 2243.69 1613.15C2283.86 1644.37 2275.98 1710.73 2250.34 1794.39C2203.91 1945.91 2093.06 2144.87 2108.23 2259.74C2122.55 2368.31 2241.65 2415.96 2555.83 2350.8C2803 2299.54 3175.3 2176.81 3738.19 1916.22M813.191 20.892C832.489 142.297 852.729 319.279 831.426 548.621C813.952 731.616 782.448 887.738 754.427 1011.55C703.445 1236.79 650.82 1364.61 728.723 1411.99C789.363 1448.87 898.552 1404.94 1029.42 1338.35C1297.39 1201.98 1604.9 985.139 1762.57 1087.99C1794.85 1109.05 1813.5 1142.37 1825.14 1182.79C1871.94 1345.43 1796.51 1609.24 1967.11 1646.5C2076.25 1670.34 2185.1 1573.73 2244.6 1621.66C2284.34 1653.68 2274.65 1721.71 2246.92 1806.53C2196.76 1959.99 2082.73 2161 2099.45 2275.37C2115.12 2382.56 2239.66 2427.34 2561.29 2357.75C2813.93 2303.08 3191.74 2176.5 3754.63 1919.9M819.407 15.9321C840.828 136.738 862.824 315.187 841.36 548.247C824.086 731.937 790.543 889.137 759.631 1015.39C703.22 1245.78 645.704 1380.44 721.915 1430.15C781.866 1469.25 892.362 1424.39 1024.54 1354.8C1293.52 1213.19 1613.53 980.254 1770.6 1081.4C1803.31 1102.47 1821.85 1136.29 1832.88 1177.51C1877.08 1342.64 1794.13 1616.04 1965.93 1654.94C2076.03 1680.25 2186.21 1580.72 2245.49 1630.18C2284.83 1663.01 2273.47 1732.75 2243.5 1818.69C2189.89 1974.19 2072.36 2177.17 2090.66 2291.01C2107.66 2396.83 2237.68 2438.75 2566.73 2364.72C2824.87 2306.64 3208.18 2176.21 3771.05 1923.6M825.613 10.968C849.148 131.174 872.901 311.088 851.283 547.879C834.2 732.262 798.617 890.541 764.825 1019.23C702.981 1254.74 640.541 1396.27 715.107 1448.31C774.336 1489.64 886.198 1443.84 1019.66 1371.25C1289.69 1224.39 1622.18 975.342 1778.64 1074.81C1811.78 1095.87 1830.21 1130.22 1840.62 1172.21C1882.22 1339.85 1791.84 1622.45 1964.74 1663.36C2075.84 1689.91 2187.33 1587.68 2246.38 1638.68C2285.32 1672.3 2272.07 1743.7 2240.05 1830.82C2182.63 1988.25 2061.97 2193.3 2081.85 2306.64C2100.18 2411.09 2235.82 2450.63 2572.16 2371.66C2835.91 2310.57 3224.6 2175.9 3787.46 1927.27M831.83 6.00631C857.488 125.613 882.998 306.993 861.218 547.505C844.335 732.581 806.709 891.912 770.029 1023.07C702.737 1263.68 635.327 1412.09 708.295 1466.48C766.761 1510.05 880.028 1463.32 1014.77 1387.72C1285.87 1235.62 1631.02 970.18 1786.68 1068.23C1820.28 1089.24 1838.65 1124.14 1848.37 1166.93C1887.72 1337.01 1789.56 1628.88 1963.56 1671.8C2075.67 1699.59 2188.46 1594.67 2247.28 1647.2C2285.83 1681.64 2270.68 1754.69 2236.63 1842.97C2175.38 2002.33 2051.38 2209.5 2073.06 2322.28C2092.52 2425.4 2233.77 2461.79 2577.61 2378.62C2846.8 2313.93 3241.05 2175.59 3803.9 1930.96M838.034 1.05176C865.817 120.059 893.073 302.904 871.152 547.14C823.803 1074.44 591.236 1397.06 701.483 1484.64C874.57 1622.14 1561.92 917.489 1794.72 1061.64C1963.53 1166.17 1743.12 1623.98 1962.39 1680.24C2075.51 1709.27 2189.63 1601.66 2248.19 1655.73C2355.15 1754.5 2028.34 2163.4 2064.28 2337.94C2101.59 2519.22 2537.48 2483.15 3820.33 1934.67" stroke="url(#paint0_linear)" stroke-miterlimit="10"/>
<defs>
<linearGradient id="paint0_linear" x1="2479.39" y1="342.791" x2="2050.48" y2="2402.82" gradientUnits="userSpaceOnUse">
<stop stop-color="#FF7C00"/>
<stop offset="0.71875" stop-color="#FF7C00" stop-opacity="0.296875"/>
<stop offset="1" stop-color="#FF7C00" stop-opacity="0"/>
</linearGradient>
</defs>
</svg>
