<svg width="170" height="170" viewBox="0 0 170 170" fill="none" xmlns="http://www.w3.org/2000/svg">
<path d="M2.30665 38.5381C1.03799 38.5381 0 37.5746 0 36.3971V2.141C0 0.963452 1.03799 0 2.30665 0H32.7544C34.0231 0 35.061 0.963452 35.061 2.141C35.061 3.31856 34.0231 4.28201 32.7544 4.28201H6.91994C5.65129 4.28201 4.6133 5.24546 4.6133 6.42301V36.3971C4.6133 37.5746 3.5753 38.5381 2.30665 38.5381Z" fill="#F07C28"/>
<path d="M32.7544 170H2.30665C1.03799 170 0 169.036 0 167.859V133.603C0 132.425 1.03799 131.462 2.30665 131.462C3.5753 131.462 4.6133 132.425 4.6133 133.603V163.577C4.6133 164.754 5.65129 165.718 6.91994 165.718H32.7544C34.0231 165.718 35.061 166.681 35.061 167.859C35.061 169.036 34.0231 170 32.7544 170Z" fill="#F07C28"/>
<path d="M167.693 38.5381C166.425 38.5381 165.387 37.5746 165.387 36.3971V6.42301C165.387 5.24546 164.349 4.28201 163.08 4.28201H137.246C135.977 4.28201 134.939 3.31856 134.939 2.14101C134.939 0.963452 135.977 0 137.246 0H167.693C168.962 0 170 0.963452 170 2.14101V36.3971C170 37.5746 168.962 38.5381 167.693 38.5381Z" fill="#F07C28"/>
<path d="M167.693 170H137.246C135.977 170 134.939 169.036 134.939 167.859C134.939 166.681 135.977 165.718 137.246 165.718H163.08C164.349 165.718 165.387 164.754 165.387 163.577V133.603C165.387 132.425 166.425 131.462 167.693 131.462C168.962 131.462 170 132.425 170 133.603V167.859C170 169.036 168.962 170 167.693 170Z" fill="#F07C28"/>
<path d="M85.816 109.822C58.8331 109.822 34.9006 90.1535 28.4908 84.4062C27.5284 83.5466 27.5284 82.1477 28.4908 81.2881C34.9006 75.5576 58.8331 55.8887 85.816 55.8887C113.435 55.8887 137.73 76.5015 143.395 81.6758C144.104 82.3162 144.104 83.378 143.395 84.0185C137.73 89.2096 113.435 109.822 85.816 109.822ZM33.5206 81.4229C32.6127 82.1982 32.6127 83.496 33.5206 84.2713C40.9291 90.6085 61.6113 106.435 85.816 106.435C110.148 106.435 130.921 90.4569 138.22 84.1702C139.074 83.4455 139.074 82.2151 138.22 81.4904C130.921 75.2374 110.148 59.2595 85.816 59.2595C61.5931 59.2595 40.911 75.0857 33.5206 81.4229Z" fill="#F07C28"/>
<path d="M85.8161 75.1057C81.2766 75.1057 77.4634 78.4766 77.4634 82.8587C77.4634 87.2407 81.095 90.6116 85.8161 90.6116C90.5372 90.6116 94.1689 87.2407 94.1689 82.8587C94.1689 78.4766 90.3557 75.1057 85.8161 75.1057Z" fill="#F07C28"/>
<path d="M85.8161 64.8136C96.5475 64.8136 105.263 72.9205 105.263 82.8646C105.263 92.8086 96.5475 100.916 85.8161 100.916C75.0846 100.916 66.3687 92.8255 66.3687 82.8646C66.3687 72.9037 75.0846 64.8136 85.8161 64.8136ZM85.8161 58.0718C71.0535 58.0718 59.1055 69.1789 59.1055 82.8646C59.1055 96.5671 71.0717 107.657 85.8161 107.657C100.56 107.657 112.527 96.5503 112.527 82.8646C112.527 69.162 100.579 58.0718 85.8161 58.0718Z" fill="#F07C28"/>
</svg>
