<svg width="13" height="13" viewBox="0 0 13 13" fill="none" xmlns="http://www.w3.org/2000/svg">
<path d="M6.33439 1.66511C7.97631 1.66511 8.16881 1.67236 8.81803 1.69772C9.41818 1.72308 9.74279 1.82091 9.95793 1.90062C10.2448 2.00931 10.4486 2.13612 10.6638 2.34265C10.8789 2.54917 11.011 2.74482 11.1243 3.02018C11.2073 3.2267 11.3092 3.5383 11.3356 4.11439C11.3658 4.73757 11.3696 4.92236 11.3696 6.49844C11.3696 8.07453 11.3621 8.25931 11.3356 8.8825C11.3092 9.45859 11.2073 9.77018 11.1243 9.97671C11.0148 10.2521 10.8789 10.4477 10.6638 10.6542C10.4486 10.8608 10.2448 10.9876 9.95793 11.0963C9.74279 11.176 9.41441 11.2738 8.81803 11.2992C8.16881 11.3282 7.97631 11.3318 6.33439 11.3318C4.69247 11.3318 4.49996 11.3245 3.85074 11.2992C3.25059 11.2738 2.92599 11.176 2.71084 11.0963C2.42397 10.9876 2.22015 10.8608 2.005 10.6542C1.78985 10.4477 1.65775 10.2521 1.54451 9.97671C1.46147 9.77018 1.35956 9.45497 1.33314 8.8825C1.30294 8.25931 1.29539 8.07453 1.29539 6.49844C1.29539 4.92598 1.30294 4.73757 1.33314 4.11439C1.35956 3.5383 1.46147 3.2267 1.54451 3.02018C1.65397 2.74482 1.78985 2.54917 2.005 2.34265C2.22015 2.13612 2.42397 2.00931 2.71084 1.90062C2.92599 1.82091 3.25059 1.72308 3.85074 1.69772C4.49996 1.67236 4.69625 1.66511 6.33439 1.66511ZM6.33439 0.603516C4.66605 0.603516 4.45844 0.610762 3.80167 0.639748C3.14868 0.668733 2.70329 0.766559 2.31074 0.911487C1.90686 1.06366 1.56338 1.26294 1.22367 1.59265C0.883964 1.92236 0.672588 2.24844 0.514057 2.63612C0.363076 3.01294 0.257385 3.44047 0.227189 4.06728C0.196993 4.69772 0.189453 4.89699 0.189453 6.49844C0.189453 8.09989 0.196993 8.29917 0.227189 8.9296C0.257385 9.55642 0.359302 9.98758 0.514057 10.3608C0.672588 10.7484 0.880189 11.0782 1.22367 11.4042C1.56715 11.734 1.90686 11.9332 2.31074 12.0854C2.70329 12.2303 3.14868 12.3318 3.80167 12.3608C4.45844 12.3897 4.66605 12.397 6.33439 12.397C8.00274 12.397 8.21033 12.3897 8.8671 12.3608C9.52009 12.3318 9.96927 12.234 10.358 12.0854C10.7619 11.9332 11.1054 11.734 11.4451 11.4042C11.7848 11.0782 11.9962 10.7484 12.1547 10.3608C12.3057 9.98395 12.4114 9.55642 12.4416 8.9296C12.4718 8.30279 12.4793 8.09989 12.4793 6.49844C12.4793 4.89699 12.4718 4.69772 12.4416 4.06728C12.4114 3.44047 12.3095 3.00931 12.1547 2.63612C11.9962 2.24844 11.7886 1.91873 11.4451 1.59265C11.1016 1.26656 10.7619 1.06366 10.358 0.911487C9.96927 0.766559 9.52009 0.66511 8.8671 0.639748C8.21411 0.610762 8.00274 0.603516 6.33439 0.603516Z" fill="#16F898"/>
<path d="M6.33423 3.47266C4.5904 3.47266 3.17871 4.82773 3.17871 6.50164C3.17871 8.17556 4.5904 9.53063 6.33423 9.53063C8.07807 9.53063 9.48975 8.17556 9.48975 6.50164C9.48975 4.82773 8.07807 3.47266 6.33423 3.47266ZM6.33423 8.46541C5.20187 8.46541 4.28465 7.58498 4.28465 6.50164C4.28465 5.41831 5.20187 4.53425 6.33423 4.53425C7.4666 4.53425 8.38003 5.41469 8.38003 6.50164C8.38003 7.5886 7.4666 8.46541 6.33423 8.46541Z" fill="#16F898"/>
<path d="M10.35 3.3491C10.35 3.7404 10.0178 4.05562 9.61397 4.05562C9.20632 4.05562 8.87793 3.7404 8.87793 3.3491C8.87793 2.9578 9.20632 2.64258 9.61397 2.64258C10.0216 2.64258 10.35 2.96142 10.35 3.3491Z" fill="#16F898"/>
</svg>
