<svg width="12" height="11" viewBox="0 0 12 11" fill="none" xmlns="http://www.w3.org/2000/svg">
<path d="M0 9.09737C1.08329 9.76404 2.37041 10.1553 3.75566 10.1553C8.30398 10.1553 10.8707 6.46694 10.7159 3.16259C11.1953 2.83288 11.6105 2.41621 11.9389 1.9452C11.501 2.1336 11.0254 2.25679 10.531 2.31476C11.0367 2.02491 11.4255 1.56476 11.6067 1.01404C11.1349 1.28216 10.6102 1.47781 10.0516 1.5865C9.60619 1.12998 8.96829 0.84375 8.26246 0.84375C6.68093 0.84375 5.51837 2.26042 5.87695 3.73143C3.84248 3.63361 2.03447 2.69882 0.830397 1.27491C0.188727 2.33288 0.498239 3.71332 1.58908 4.41259C1.18898 4.40172 0.807751 4.29303 0.479366 4.11911C0.452944 5.20969 1.26447 6.22781 2.4459 6.45245C2.10242 6.54303 1.72496 6.56476 1.33996 6.4923C1.64947 7.42708 2.55536 8.10462 3.62733 8.12636C2.59688 8.8981 1.29844 9.2423 0 9.09737Z" fill="#16F898"/>
</svg>
