<svg width="127" height="34" viewBox="0 0 127 34" fill="none" xmlns="http://www.w3.org/2000/svg">
<path fill-rule="evenodd" clip-rule="evenodd" d="M126.469 16.305C126.402 16.6252 126.232 16.9256 125.963 17.1506C125.953 17.1583 125.944 17.1659 125.935 17.1734L105.937 33.1714C105.29 33.689 104.346 33.5841 103.829 32.9372C103.311 32.2903 103.416 31.3464 104.063 30.8288L120.724 17.5001L2 17.5001C1.17157 17.5001 0.5 16.8286 0.5 16.0001C0.5 15.1717 1.17157 14.5001 2 14.5001L120.144 14.5001L103.654 3.23885C102.97 2.77165 102.794 1.83832 103.261 1.1542C103.729 0.470086 104.662 0.294242 105.346 0.761443L125.817 14.7417C125.911 14.8029 126 14.8755 126.08 14.9593C126.143 15.024 126.199 15.0938 126.248 15.1676C126.478 15.5115 126.548 15.9224 126.469 16.305Z" fill="#16F898"/>
</svg>
