<svg id="Слой_1" data-name="Слой 1" xmlns="http://www.w3.org/2000/svg" viewBox="0 0 1260.18 2079.85"><defs><style>.cls-1{fill:none;stroke:#f07c28;stroke-miterlimit:10;stroke-width:0.5px;opacity:0.61;isolation:isolate;}</style></defs><title>services-desc-pattern</title><path class="cls-1" d="M293.13-33.08c90,53,157.13,136.8,78.34,273-58.82,101.69-153.33,153.63-158.4,221-6.73,89.67,155.54,65.82,384.67,120.15,187.8,44.53,281.7,66.79,301.6,127.35C957.77,886.25,383.92,1176.29,359,1392.86c-27.54,239,651.6,59.21,653.61,282.39.89,98.37-129.62,292.84-781.47,721.5M313.2-39.91c84.06,54.24,146.29,138.44,66.87,273.57C320.12,335.09,226.28,387.6,221.29,454.74c-6.66,90.12,157.3,65.48,383.32,120.59q21.51,5.29,41.3,10.32C803.42,625,880.16,650.38,896.63,707.21c21.26,73.4-59.65,164.47-164.29,262-150.78,140.85-348.81,291.31-361,417.14-6.49,69.44,46.53,103.49,123.15,123.62,183.37,48.16,504.74,10.22,504.32,167.27a140.07,140.07,0,0,1-4.59,33.87c-27.09,106.65-186.43,299.78-744,673.46M333.27-46.74C411.42,8.72,469.15,93.36,388.68,227.4,327.94,328.59,234.45,381.66,229.53,448.55c-6.59,90.56,159.06,65.14,382,121,14.19,3.62,27.76,7.22,40.82,10.69C806.86,621.33,879.38,648.18,893.94,706c18.61,73.89-61.05,164.41-163.25,261.75-147.26,140.84-337.75,288.48-347,412.12-5.11,68.52,47.91,102.48,121.93,124,177.15,51.52,482.06,18.54,479.4,175.38a148.34,148.34,0,0,1-4.77,33.85c-26.76,105.91-180,296.11-711,659.3m84.08-2426C425.58,3.11,478.59,88.17,397.28,221.15,335.57,322.09,242.61,375.73,237.77,442.36c-6.52,91,161.36,64.12,380.63,121.49,14.07,3.68,27.43,7.47,40.32,11.08,151.8,42.42,219.87,71,232.53,129.86C907.24,779.14,828.61,869,729,966.26c-144,140.66-326.44,285.57-332.92,407.11-3.6,67.56,49.29,101.45,120.71,124.39,170.93,54.87,459.16,27,454.48,183.49a158.25,158.25,0,0,1-4.95,33.84c-26.44,105.18-173.55,292.44-678,645.14M373.42-60.4C439.73-2.5,488,83,405.89,214.9,343.2,315.6,250.76,369.8,246,436.18c-6.45,91.45,163.3,63.57,379.28,121.93,13.94,3.77,27.11,7.72,39.85,11.46,149.06,43.78,212.69,74.16,223.42,134,13.4,74.77-64.1,164.12-161.16,261.2-140.59,140.6-315.15,282.65-318.89,402.1-2.09,66.61,50.66,100.43,119.47,124.78,164.71,58.21,436.26,35.36,429.57,191.6a170.22,170.22,0,0,1-5.14,33.82c-26.12,104.45-167.11,288.78-645,631M393.5-67.23c60.38,59.13,103.92,145.07,21,275.88C350.82,309.1,258.92,363.87,254.23,430c-6.37,91.9,165.24,63,377.94,122.38,13.8,3.85,26.79,8,39.37,11.83,146.31,45.14,205.53,77.25,214.31,138.17,10.85,75.16-65.57,164-160.13,260.93-137.15,140.56-303.83,279.75-304.84,397.09-.57,65.65,52,99.41,118.26,125.16,158.49,61.57,413.35,43.78,404.65,199.72a184,184,0,0,1-5.33,33.79c-25.79,103.72-160.66,285.11-611.93,616.84m87-2410C468-13.72,506.82,72.67,423.1,202.39c-64.68,100.22-156,155.55-160.64,221.42-6.3,92.34,167.16,62.5,376.6,122.82,13.67,3.94,26.47,8.21,38.88,12.22,143.58,46.48,198.39,80.31,205.22,142.32,8.33,75.5-67,163.94-159.09,260.66-133.74,140.52-292.51,276.84-290.81,392.07.95,64.69,53.43,98.39,117,125.54,152.28,64.92,390.42,52.2,379.73,207.83a200.12,200.12,0,0,1-5.51,33.77c-25.46,103-154.21,281.45-578.9,602.68m88-2404.61c48.55,61.55,82.56,148.39-1.94,277C366,296.12,275.24,352,270.7,417.63c-6.22,92.78,169.08,62,375.26,123.26,13.53,4,26.14,8.45,38.39,12.6C825.22,601.29,875.62,636.83,880.47,700c5.84,75.82-68.51,163.86-158.05,260.38C592.1,1100.83,441.25,1234.28,445.65,1347.4c2.49,63.74,54.8,97.37,115.82,125.93,146,68.27,367.49,60.64,354.8,216a218,218,0,0,1-5.68,33.75c-25.14,102.25-147.77,277.77-545.89,588.52m89-2399.27c42.63,62.78,71.85,150.06-13.41,277.61C373.62,289.63,283.4,346.06,278.92,411.45c-6.15,93.22,171,61.47,373.92,123.71,13.38,4.11,25.81,8.68,37.9,13,138.14,49.11,184.16,86.34,187,150.62,3.4,76.09-70,163.77-157,260.11-126.9,140.46-269.83,271-262.73,382,4,62.79,56.18,96.35,114.6,126.32,139.83,71.61,344.55,69.07,329.89,224a241.21,241.21,0,0,1-5.87,33.74c-24.81,101.52-141.32,274.11-512.86,574.37m90-2393.94c36.72,64,61.14,151.73-24.87,278.18-67.7,99.51-157.36,156.49-161.75,221.63-6.08,93.67,172.9,61,372.56,124.16,13.26,4.19,25.49,8.92,37.42,13.36,135.43,50.41,177.08,89.32,177.93,154.77,1,76.33-71.46,163.7-156,259.84-123.48,140.44-258.47,268.13-248.69,377,5.56,61.84,57.56,95.33,113.38,126.7,133.62,75,321.61,77.51,305,232.17A265.63,265.63,0,0,1,882.7,1727c-24.48,100.8-134.87,270.45-479.83,560.21m91-2388.6C524.66-36.17,544.29,52,457.52,177.37c-68.72,99.29-157.8,156.82-162.13,221.7-6,94.12,174.81,60.49,371.23,124.61,13.11,4.28,25.16,9.17,36.93,13.75,132.72,51.69,170,92.26,168.82,158.92C871,772.88,799.44,860,717.43,955.9c-120.06,140.43-247.1,265.23-234.64,372,7.1,60.89,58.94,94.31,112.16,127.08,127.39,78.33,298.64,86,280,240.29a298.82,298.82,0,0,1-6.23,33.69C844.6,1829.05,740.33,1995.76,422,2275.05m92-2383.26c24.87,66.44,39.68,155.08-47.82,279.34-69.76,99.05-158.25,157.13-162.5,221.77-5.94,94.56,176.69,60,369.87,125.05,13,4.37,24.85,9.39,36.45,14.12,130,53,163,95.19,159.73,163.07-3.67,76.7-74.39,163.56-153.9,259.29-116.63,140.42-235.71,262.32-220.6,367,8.65,59.93,60.32,93.29,110.94,127.47,121.18,81.67,275.67,94.42,255.13,248.4-1.39,10.43-3.57,21.66-6.42,33.67-23.83,99.33-122,263.11-413.78,531.9M534-115C553-47.39,563,41.71,474.73,164.87,403.93,263.7,316,322.32,311.85,386.71c-5.86,95,178.59,59.54,368.54,125.49,12.83,4.46,24.52,9.64,36,14.51,127.33,54.21,156,98.08,150.62,167.21-6,76.84-75.86,163.51-152.86,259-113.21,140.42-224.32,259.41-206.56,362,10.2,59,61.69,92.26,109.71,127.85,115,85,252.69,102.88,230.21,256.51-1.53,10.46-3.78,21.68-6.61,33.65-23.5,98.6-115.53,259.45-380.75,517.75m94-2372.57c13,68.88,18.18,158.43-70.76,280.49-71.84,98.61-159.14,157.77-163.24,221.91C314.3,476,500.55,439.61,687.28,506.46c12.7,4.54,24.2,9.86,35.48,14.88,124.65,55.46,149,101,141.53,171.37-8.17,77-77.32,163.45-151.83,258.75-109.77,140.42-212.91,256.49-192.52,357,11.78,58,63.08,91.25,108.49,128.24,108.75,88.38,229.7,111.35,205.29,264.63-1.67,10.48-4,21.7-6.79,33.63-23.17,97.87-109.1,255.79-347.73,503.6m95-2367.24c7.12,70.1,7.4,160.11-82.22,281.06-72.91,98.38-159.6,158.09-163.63,222C322.61,470.21,510.66,433,694.17,500.71c12.56,4.63,23.88,10.11,35,15.27,122,56.69,142.06,103.8,132.43,175.51-10.35,77-78.8,163.4-150.79,258.48-106.35,140.44-201.5,253.58-178.48,352,13.35,57.07,64.46,90.22,107.27,128.62,102.52,91.73,206.7,119.83,180.36,272.74-1.81,10.51-4.21,21.72-7,33.61C790.14,1834,710.34,1989,498.29,2226.34M594.24-135.54c1.19,71.32-3.38,161.79-93.7,281.64-74,98.17-160,158.42-164,222.05C330.9,464.47,520.75,426.36,701.05,495c12.42,4.72,23.56,10.33,34.51,15.65,119.32,57.9,135.15,106.63,123.32,179.67-12.48,77.09-80.25,163.34-149.75,258.2-102.91,140.46-190.06,250.66-164.44,347,14.93,56.11,65.84,89.2,106,129,96.31,95.08,183.69,128.3,155.45,280.86-1.94,10.53-4.42,21.73-7.15,33.59-22.52,96.4-96.21,248.45-281.67,475.28m97-2356.55c-4.73,72.54-14.18,163.46-105.17,282.22-75,98-160.49,158.73-164.37,222.11-5.57,96.77,186.06,57.8,363.16,127.28,12.28,4.81,23.25,10.56,34,16,116.67,59.1,128.28,109.44,114.23,183.82C841.64,766.22,774.5,852.38,707.49,947,608,1087.49,528.89,1194.74,557.1,1288.94c16.51,55.14,67.21,88.18,104.82,129.39,90.09,98.43,160.68,136.78,130.53,289-2.09,10.55-4.63,21.75-7.33,33.57-22.21,95.68-89.77,244.79-248.65,461.12M634.39-149.2c-10.65,73.76-25,165.13-116.63,282.79-76.13,97.72-160.93,159-164.74,222.18-5.5,97.21,187.9,57.4,361.82,127.72,12.13,4.91,22.92,10.8,33.54,16.41,114,60.29,121.45,112.24,105.13,188C836.9,765,770.36,851.12,705.84,945.52c-96,140.51-167.15,244.8-136.36,336.92,18.11,54.18,68.59,87.16,103.6,129.78C757,1514,810.72,1557.48,778.69,1709.3c-2.24,10.57-4.85,21.77-7.52,33.55-21.88,94.94-83.32,241.12-215.63,447M654.46-156c-16.57,75-35.79,166.81-128.1,283.37C449.14,224.84,365,286.71,361.23,349.6c-5.41,97.66,189.76,57,360.48,128.16,12,5,22.61,11,33.06,16.8,111.4,61.46,114.64,115,96,192.11S766.2,849.88,704.17,944.06C611.6,1084.59,548.51,1185.92,581.85,1276c19.71,53.21,70,86.14,102.39,130.16,77.65,105.13,114.59,153.75,80.69,305.19-2.37,10.6-5.06,21.79-7.7,33.53-21.55,94.22-76.87,237.46-182.59,432.82m99.9-2340.53C652.06-86.66,627.93,5.63,535,121.09c-78.31,97.27-161.83,159.68-165.49,222.32C364.13,441.51,561.06,400,728.62,472c11.85,5.09,22.3,11.25,32.57,17.17C870,551.8,869.08,607,848.13,685.46c-20.59,77.13-86,163.17-145.6,257.11-89.12,140.56-144.18,238.91-108.28,326.9,21.32,52.23,71.35,85.12,101.16,130.53,71.44,108.49,91.55,162.25,55.77,313.31-2.51,10.63-5.27,21.81-7.88,33.5-21.22,93.49-70.43,233.79-149.56,418.67M694.62-169.69C666.21-92.27,637.17.46,543.57,114.84c-79.42,97-162.27,160-165.86,222.39-5.27,98.54,193.4,56.24,357.79,129.06,11.7,5.19,22,11.48,32.08,17.56,106.18,63.75,101.16,120.52,77.83,200.42-22.5,77.1-87.48,163.13-144.56,256.84-85.64,140.6-132.67,236-94.23,321.88,22.93,51.26,72.73,84.1,99.94,130.93,65.22,111.83,68.49,170.74,30.85,321.42-2.66,10.65-5.48,21.83-8.07,33.49-20.9,92.76-64,230.13-116.55,404.51M714.69-176.52C680.36-97.88,646.39-4.69,552.17,108.59c-80.53,96.82-162.72,160.32-166.24,222.46-5.2,99,195.22,55.87,356.44,129.5,11.57,5.28,21.67,11.71,31.61,17.94,103.58,64.88,94.46,123.26,68.73,204.57-24.38,77.06-88.91,163.09-143.52,256.56C617,1080.26,578,1172.63,619,1256.49c24.56,50.28,74.11,83.08,98.72,131.3,59,115.19,45.42,179.25,5.94,329.54-2.81,10.67-5.7,21.85-8.25,33.47-20.57,92-57.54,226.45-83.52,390.35M734.76-183.35c-40.25,79.86-79.14,173.49-174,285.68C479.13,198.91,397.61,263,394.18,324.86c-5.13,99.43,197,55.52,355.09,129.94,11.43,5.38,21.36,11.93,31.12,18.32,101,66,87.82,126,59.63,208.72-26.24,77-90.33,163.06-142.48,256.29-78.69,140.68-114.82,233.7-66.15,311.86,29.32,47.09,75.49,82,97.49,131.69,52.78,118.54,22.33,187.76-19,337.65-2.94,10.7-5.91,21.87-8.43,33.45-20.24,91.29-51.09,222.79-50.48,376.2M754.84-190.18C708.68-109.1,664.83-15,569.39,96.08c-82.78,96.35-163.62,161-167,222.6-5,99.87,198.81,55.18,353.76,130.38,11.27,5.48,21,12.16,30.63,18.7,98.43,67.11,81.2,128.72,50.54,212.87-28.05,77-91.76,163-141.44,256-75.19,140.72-103.23,230.77-52.12,306.84,31,46.06,76.87,81,96.28,132.08,46.56,121.89-.77,196.26-43.91,345.76-3.09,10.73-6.12,21.89-8.61,33.43-19.93,90.56-44.65,219.12-17.47,362M774.92-197C722.83-114.72,674-20.2,578,89.82,494.08,185.94,413.93,251.1,410.64,312.49c-5,100.32,200.59,54.86,352.41,130.83,11.14,5.57,20.74,12.38,30.16,19.08,95.87,68.2,74.63,131.44,41.43,217-29.84,76.92-93.16,163-140.41,255.74-71.68,140.76-86.53,224.08-38.07,301.83,29.49,47.31,78.25,80,95.06,132.47,40.34,125.24-23.87,204.76-68.83,353.87-3.24,10.75-6.33,21.9-8.79,33.4-19.6,89.84-38.2,215.46,15.56,347.89M795-203.84C737-120.32,683.23-25.36,586.6,83.57c-85.07,95.88-164.51,161.59-167.73,222.74C414,407.07,621.23,360.85,769.94,437.58c11,5.67,20.42,12.6,29.66,19.47,93.34,69.26,68.09,134.16,32.34,221.17-31.59,76.87-94.57,162.95-139.37,255.48-68.17,140.79-75,221.08-24,296.81,31.15,46.3,79.63,79,93.84,132.84,34.12,128.6-47,213.29-93.75,362-3.38,10.78-6.54,21.92-9,33.39-19.27,89.11-31.75,211.8,48.59,333.73M815.06-210.67c-63.92,84.73-122.63,180.13-219.85,288C509,173,430.25,239.23,427.11,300.12c-4.84,101.21,204.11,54.24,349.72,131.72,10.84,5.77,20.12,12.82,29.19,19.85C896.82,522,867.61,588.57,829.25,677c-33.32,76.83-96,162.92-138.33,255.21-64.64,140.82-63.38,218.08-10,291.79,32.81,45.3,81,78,92.61,133.24,27.92,131.94-70.11,221.79-118.66,370.1a319.09,319.09,0,0,0-9.17,33.36c-19,88.38-25.3,208.13,81.61,319.58M835.14-217.51c-69.85,86-133.54,181.79-231.33,288.57-87.36,95.39-165.4,162.24-168.47,222.88C430.57,395.59,641.2,347.89,783.72,426.1c10.69,5.88,19.8,13,28.69,20.23,88.3,71.39,55.13,139.62,14.14,229.47-35,76.78-97.37,162.88-137.3,254.93-61.1,140.86-51.79,215.06,4,286.79,34.48,44.28,82.38,77,91.39,133.61,21.7,135.29-93.25,230.31-143.58,378.21a283.7,283.7,0,0,0-9.34,33.34c-18.62,87.65-18.86,204.47,114.64,305.43M855.21-224.33C779.44-137.16,710.77-40.9,612.41,64.8c-88.54,95.15-165.85,162.56-168.85,223-4.69,102.09,207.6,53.67,347,132.61,10.54,6,19.5,13.26,28.21,20.6,85.8,72.43,48.69,142.35,5,233.63-36.7,76.74-98.73,162.83-136.25,254.65-57.56,140.9-40.2,212,18.09,281.77,36.15,43.26,83.76,75.94,90.17,134,15.47,138.65-116.4,238.84-168.5,386.33a252.74,252.74,0,0,0-9.52,33.33c-18.3,86.91-12.42,200.79,147.66,291.26M875.28-231.17C793.6-142.76,719.94-46.1,621,58.55c-89.7,94.88-166.3,162.87-169.22,223C447.18,384.1,661.12,335,797.5,414.62c10.39,6.07,19.19,13.47,27.73,21,83.31,73.45,42.29,145.1-4.07,237.77C782.8,750.08,721,836.16,686,927.75c-54,140.92-28.58,209,32.13,276.77,37.84,42.23,85.14,74.91,88.95,134.38,9.25,142-139.56,247.34-193.43,394.44a233.14,233.14,0,0,0-9.71,33.31c-18,86.18-6,197.13,180.69,277.12M895.36-238C807.76-148.38,729.11-51.3,629.62,52.29,538.74,146.92,462.88,215.49,460,275.38c-4.55,103,211,53.16,344.35,133.5,10.24,6.17,18.9,13.68,27.24,21.37,80.85,74.46,35.93,147.84-13.16,241.92-40,76.69-101.49,162.75-134.18,254.11-50.43,140.94-17,206,46.17,271.75,39.53,41.19,86.52,73.88,87.73,134.76,3,145.35-162.72,255.87-218.34,402.56a214.53,214.53,0,0,0-9.89,33.28c-17.65,85.45.46,193.47,213.71,263M915.44-244.83C821.92-154,738.27-56.51,638.23,46c-92.05,94.36-167.19,163.52-170,223.15-4.46,103.43,212.72,52.92,343,134,10.09,6.27,18.6,13.89,26.76,21.74,78.4,75.47,29.59,150.61-22.26,246.07-41.64,76.68-102.85,162.69-133.14,253.84-46.84,141-5.33,202.9,60.21,266.73,41.23,40.15,87.9,72.87,86.5,135.15-3.18,148.71-185.89,264.38-243.26,410.67A198,198,0,0,0,576,1770.6c-17.33,84.72,6.91,189.81,246.74,248.81M935.5-251.66c-99.44,92.06-188.08,190-288.67,291.45C553.59,133.88,479.19,203.63,476.49,263,472.1,366.87,690.9,315.69,818.15,397.4c9.94,6.39,18.3,14.11,26.27,22.13,76,76.46,23.26,153.39-31.36,250.23C769.8,746.44,708.86,832.39,681,923.32c-43.26,141,6.3,199.83,74.25,261.72,42.93,39.11,89.27,71.85,85.28,135.54-9.41,152.06-209.08,272.91-268.18,418.78a184.77,184.77,0,0,0-10.26,33.25c-17,84,13.36,186.13,279.76,234.65M955.58-258.49c-105.36,93.28-199,191.57-300.15,292C561,127.34,487.35,197.68,484.72,256.83,480.4,361.14,700.81,309.29,825,391.67c9.78,6.48,18,14.32,25.79,22.51,73.54,77.43,17,156.17-40.46,254.36C765.5,745.25,704.82,831.12,679.3,921.84c-39.64,141,18,196.75,88.29,256.71,44.65,38,90.66,70.82,84.07,135.92-15.62,155.4-232.28,281.42-293.1,426.89a173.19,173.19,0,0,0-10.44,33.23c-16.67,83.26,19.8,182.47,312.79,220.5M975.66-265.32C864.38-170.81,765.71-72.14,664.05,27.28,568.42,120.8,495.52,191.75,493,250.64c-4.25,104.75,217.73,52.26,339,135.28,9.63,6.6,17.72,14.53,25.3,22.9,71.14,78.4,10.71,159-49.56,258.52-46.47,76.73-106.89,162.51-130,253-36,141,29.61,193.66,102.34,251.69,46.35,37,92,69.81,82.84,136.31-21.84,158.75-255.48,289.94-318,435a163.27,163.27,0,0,0-10.63,33.2c-16.34,82.53,26.25,178.81,345.82,206.34M995.73-272.15C878.53-176.43,774.85-77.37,672.65,21c-96.84,93.23-169,164.79-171.46,223.43C497,349.66,720.57,296.53,838.82,380.19c9.47,6.71,17.42,14.74,24.82,23.28,68.76,79.36,4.47,161.8-58.66,262.67-48.06,76.79-108.23,162.45-129,252.75-32.4,140.95,41.26,190.55,116.38,246.67,48.07,35.91,93.41,68.79,81.62,136.69-28.06,162.11-278.69,298.45-342.94,443.13a153.85,153.85,0,0,0-10.81,33.18c-16,81.8,32.69,175.14,378.84,192.19M1015.81-279C892.69-182,784-82.61,681.26,14.77c-98,92.94-169.42,165.11-171.83,223.51-4.11,105.63,221,51.87,336.28,136.17,9.32,6.81,17.13,14.94,24.34,23.65,66.39,80.32-1.76,164.65-67.76,266.82-49.64,76.86-109.55,162.37-127.94,252.47-28.78,140.94,52.92,187.45,130.41,241.66,49.79,34.83,94.8,67.77,80.4,137.08-34.28,165.45-301.91,307-367.86,451.23a145.69,145.69,0,0,0-11,33.16c-15.69,81.07,39.14,171.47,411.87,178M1035.88-285.81c-129,98.16-242.75,198-346,294.33C590.61,101.15,520,174,517.66,232.1c-4,106.08,222.61,51.7,334.94,136.61a132.05,132.05,0,0,1,23.85,24c64,81.26-8,167.52-76.86,271C748.36,740.66,688.71,826,672.68,915.92c-25.13,140.91,64.58,184.33,144.45,236.65,51.52,33.75,96.18,66.75,79.18,137.46-40.49,168.81-325.13,315.47-392.77,459.35a138.86,138.86,0,0,0-11.18,33.14c-15.37,80.34,45.58,167.81,444.9,163.87m118.7-2239A4271,4271,0,0,0,698.47,2.27C598,94.58,528.15,168,525.89,225.91c-4,106.52,224.22,51.53,333.6,137.06a128.36,128.36,0,0,1,23.37,24.41c61.7,82.2-14.17,170.4-86,275.12-52.81,77-112.19,162.21-125.87,251.93-21.48,140.87,76.25,181.2,158.5,231.63,53.24,32.66,97.55,65.73,78,137.84-46.72,172.17-348.38,324-417.7,467.47a132.4,132.4,0,0,0-11.36,33.12c-15,79.61,52,164.14,477.92,149.72M1076-299.47C935.14-198.87,811.39-98.37,707.07-4c-101.68,92-170.76,166.07-173,223.72-3.88,107,225.8,51.38,332.26,137.5A124.75,124.75,0,0,1,889.26,382c59.38,83.14-20.35,173.31-95.06,279.28C739.8,738.46,680.69,823.43,669.37,913,651.55,1053.8,757.29,1091,841.91,1139.59c55,31.55,98.93,64.7,76.73,138.22C865.71,1453.33,547,1610.3,476,1753.39a126.84,126.84,0,0,0-11.54,33.1c-14.71,78.87,58.48,160.47,511,135.56M1096.1-306.3C949.31-204.48,820.52-103.63,715.67-10.24,612.77,81.42,544.46,156.15,542.35,213.54c-3.81,107.41,227.35,51.25,330.91,138a121.48,121.48,0,0,1,22.4,25.18C952.74,460.73,869.14,552.9,791.5,660.1c-56,77.29-114.82,162-123.8,251.39-14.14,140.78,99.6,174.91,186.58,221.6,56.71,30.45,100.31,63.69,75.51,138.61-59.14,178.86-394.87,341-467.53,483.69-5.7,11.18-9.74,22.2-11.72,33.09-14.39,78.14,64.92,156.8,544,121.41m121.66-2223C963.46-210.1,829.66-108.91,724.29-16.5,620.17,74.81,552.63,150.2,550.59,207.35c-3.74,107.85,228.9,51.11,329.57,138.39a118.79,118.79,0,0,1,21.92,25.56c54.79,85-32.68,179.18-113.25,287.57C731.25,736.33,672.7,820.81,666.07,910c-10.46,140.73,111.28,171.75,200.62,216.59,58.44,29.34,101.7,62.66,74.29,139-65.36,182.22-418.12,349.48-492.45,491.8-5.85,11.2-10,22.22-11.91,33.07-14.07,77.41,71.36,153.14,577,107.26M1136.25-320C977.61-215.7,838.78-114.19,732.88-22.75c-105.34,91-172.1,167-174.07,223.92C555.15,309.47,789.25,252.16,887,340A115.84,115.84,0,0,1,908.46,366C961,451.84,869.63,548.11,786.1,657.68c-59.17,77.63-117.21,161.75-121.71,250.84-6.45,140.53,123,168.58,214.65,211.58,60.17,28.22,103.07,61.65,73.07,139.38-71.59,185.57-441.38,358-517.38,499.92-6,11.22-10.17,22.24-12.09,33-13.74,76.68,77.81,149.48,610,93.1M1156.33-326.8C991.77-221.32,847.8-119.6,741.48-29,634.81,61.49,568.94,138.33,567,195c-3.59,108.75,231.67,51.12,326.87,139.29a114.58,114.58,0,0,1,21,26.32c50.27,86.79-45,185.14-131.46,295.88C722.62,734.29,664.78,818.15,662.72,907c-2.93,140.52,134.8,165.23,228.69,206.57,62,27,104.45,60.63,71.85,139.77-77.8,188.91-464.84,366.46-542.29,508-6.18,11.24-10.38,22.26-12.27,33-13.41,75.95,84.26,145.81,643.06,78.94m124.64-2207C834.11-119.39,578.9,76.44,575.29,188.79c-3.83,118.67,276.39,39.38,346,166.43,81.55,148.88-261.11,334.53-260.2,550.32,1,233.26,401.9,139.12,313.37,341.71-90.73,207.61-554.44,404-579.67,549.14-13.08,75.22,90.7,142.15,676.08,64.79M1183.54-335C1045.61-247.4,920.26-161.44,817.7-82c-145.09,112.27-236.26,208.05-243,275.52-7.82,78.87,100.92,75.08,199,97.69,53.18,12.25,104.88,31,131.75,74.4C985,493.86,735.33,650.86,680.62,836.72c-6.42,22.12-10.65,44.75-11.35,67.7-3.46,113.63,79.78,153.91,165.46,186.05,48.69,18.44,98.22,32.28,123.74,59.19,22.53,23.75,28,55.86,4.49,105.29-45.38,96.09-170.32,190.2-290.55,277.65-139,100.87-273.36,193-280.6,270.9-6.9,74.32,101.87,140.83,683.91,66.46m115-2206.35C1054.25-248.44,928.53-160.73,822.85-78.54,677.29,34.3,585.37,130.06,574.2,198.34,561,279.11,661.12,277.86,755.76,302.23c51.54,13.27,104.66,31.62,134,73.84C975.56,499.26,742.55,650.66,690,834.74,683.65,857.07,679,880,677.46,903.3c-7.37,114.63,65.58,158.67,149.93,193,48.25,19.6,100.18,32.22,124.64,60,21.43,24.35,24.73,56.85-.55,106.39-49,96.11-176.81,190.63-295.94,278.23C518.4,1641.28,389.69,1732.77,388.85,1810.6c-.79,73.4,113,139.51,691.76,68.13m117.2-2216.5C1062.89-249.48,936.8-160,828-75.13,682,38.3,589.21,134.14,573.65,203.1c-18.69,82.82,73,84,164.07,110.1,49.9,14.29,104.41,32.22,136.36,73.29C966,504.69,750.19,650.37,699.41,832.75c-6.27,22.52-11.47,45.79-13.77,69.42C674.4,1017.76,736.92,1065.73,820,1102c47.76,20.86,102.15,32.17,125.56,60.86,20.33,24.93,21.55,57.83-5.59,107.48-52.54,96.1-183.16,191.26-301.33,278.82-135.13,100.12-258.4,190.7-252.78,268.52,5.24,72.46,124.22,138.2,699.58,69.81M1205-339.15c-133.42,88.62-259.75,180-371.82,267.43C686.79,42.5,593,138.32,573.1,207.88c-24.25,85,59,88.49,146.57,116.3C767.94,339.5,823.8,357,858.34,396.92c98,113.24-100.47,253.15-149.54,433.86-6.17,22.71-11.88,46.28-15,70.28-15.09,116.52,37,168.46,118.85,206.75,47.27,22.1,104.11,32.1,126.46,61.7,19.25,25.5,18.39,58.79-10.63,108.57-56,96.1-189.6,191.75-306.7,279.4-133.24,99.71-251,189.53-238.88,267.34,11.19,71.52,135.4,136.87,707.43,71.47M1212.09-340.53c-131.91,89-258.59,182.07-373.82,272.22-146.77,114.83-241.68,210.89-265.7,281-29.93,87.27,45,93,129.07,122.5,46.65,16.36,103.82,33.43,141,72.18,103.92,108.36-77,242.44-124.42,421.46-6.06,22.91-12.26,46.79-16.18,71.14-18.91,117.43,22.67,173.37,103.32,213.65,46.77,23.36,106.1,32,127.38,62.53,18.17,26.06,15.24,59.76-15.68,109.67-59.5,96.08-196,192.24-312.08,280C473.62,1665,361.2,1754.11,380,1831.9c17.06,70.6,146.57,135.55,715.27,73.14m124-2246.95c-130.41,89.29-257.43,184.18-375.82,277C696.19,50.56,600.1,146.93,572,217.42,536.3,307.07,603,315,683.61,346.12c45,17.41,103.45,34.06,143.28,71.63,109.74,103.53-53.56,231.7-99.28,409.06-6,23.1-12.65,47.28-17.39,72-22.69,118.32,8.35,178.29,87.78,220.55,46.27,24.62,108.07,31.93,128.28,63.37,17.09,26.62,12.09,60.72-20.71,110.76-63,96.06-202.46,192.72-317.47,280.56C458.66,1672.89,351.56,1761.26,377,1839c22.83,69.7,157.74,134.23,723.09,74.82M1226.36-343.3C1097.47-253.67,970.1-157,848.55-61.48,700.89,54.57,603.5,151.33,571.48,222.18c-41.64,92.14,17,102.11,94.08,134.91,43.4,18.48,103.07,34.71,145.59,71.08,115.44,98.75-30.06,221-74.16,396.65-5.84,23.29-13,47.78-18.59,72.86-26.45,119.19-6,183.22,72.24,227.45,45.77,25.88,108.05,33.29,129.19,64.2,17.72,25.94,9,61.68-25.75,111.85-66.41,96-208.89,193.21-322.85,281.14-127.54,98.42-229.4,186.1-197.16,263.79C402.64,1914.93,543,1979,1105,1922.6M1233.5-344.68c-127.39,90-255.1,188.38-379.81,286.61C705.58,58.59,606.78,155.79,570.94,227c-47.7,94.68,3,106.68,76.59,141.11,41.79,19.54,102.65,35.36,147.89,70.52,121,94-6.54,210.23-49,384.25-5.73,23.49-13.41,48.27-19.8,73.72-30.17,120-20.32,188.16,56.7,234.35,45.26,27.15,109.82,33.31,130.1,65,16.85,26.36,5.82,62.64-30.79,113-69.85,96-215.34,193.68-328.24,281.72-125.64,98-222.33,185-183.26,262.61,34.23,68,180.1,131.59,738.78,78.15M1240.64-346.06C1114.76-255.75,986.7-155.57,858.84-54.65,710.27,62.61,610,160.3,570.4,231.72,516.53,329,559.41,343,629.5,379c40.17,20.63,102.18,36,150.2,70,126.51,89.4,17,199.49-23.91,371.85-5.62,23.67-13.78,48.74-21,74.57-33.86,120.86-34.66,193.11,41.16,241.26,44.75,28.42,114.07,31.6,131,65.87,13.93,28.21,2.69,63.59-35.83,114-73.28,96-221.78,194.14-333.62,282.3-123.75,97.54-208.22,179.1-169.35,261.42,33.7,71.38,191.26,130.28,746.6,79.83m133-2287.6C1123.4-256.81,995-154.86,864-51.25,715,66.61,613,164.81,569.86,236.49c-60.18,99.91-25,115.94,41.6,153.52C650,411.74,713.15,426.75,764,459.42c131.91,84.83,40.58,188.75,1.22,359.45-5.5,23.87-14.13,49.23-22.21,75.43-37.52,121.67-49,198.06,25.63,248.16,44.23,29.69,116.08,31.46,131.91,66.71,12.9,28.72-.43,64.55-40.87,115.13-76.69,95.92-228.21,194.61-339,282.88-121.85,97.08-208.33,182.94-155.44,260.24,45.42,66.38,202.44,129,754.45,81.5M1254.91-348.82c-122.87,91-251.64,194.68-385.79,301C719.64,70.63,616,169.35,569.3,241.26c-66.58,102.57-39,120.63,24.12,159.73,36.91,22.84,101.17,37.47,154.8,68.86,137.22,80.32,64.18,178,26.35,347-5.38,24.05-14.49,49.7-23.42,76.29-41.13,122.47-63.35,203,10.1,255.06,43.71,31,118.1,31.33,132.82,67.54,11.86,29.24-3.55,65.51-45.91,116.23-80.09,95.89-234.65,195.07-344.39,283.46-120,96.63-201.4,182-141.54,259.06,51,65.62,213.61,127.64,762.28,83.17M1262-350.2c-121.36,91.31-250.49,196.77-387.78,305.78C724.32,74.62,618.89,173.87,568.77,246,495.66,351.25,515.69,371.36,575.39,412c35.27,24,100.61,38.21,157.11,68.31C874.94,556.14,820.3,647.5,784,814.9c-5.26,24.25-14.85,50.18-24.64,77.15-44.73,123.25-77.7,208-5.45,262,43.2,32.26,120.15,31.17,133.73,68.38,10.85,29.73-6.66,66.46-51,117.32-83.49,95.85-241.09,195.53-349.77,284-118.08,96.16-194.51,181-127.63,257.87,56.47,64.89,224.78,126.32,770.11,84.84m139.8-2318C1149.33-259.93,1019.84-152.73,879.4-41,729,78.64,621.72,178.4,568.21,250.8c-79.71,107.86-67.14,130.08-10.87,172.13,33.63,25.14,100,39,159.41,67.77,147.59,71.51,111.45,156.46,76.61,322.24-5.14,24.43-15.19,50.65-25.84,78-48.29,124-92.07,213-21,268.86,42.67,33.55,122.19,31,134.64,69.21,9.84,30.23-9.76,67.43-56,118.42-86.87,95.82-247.54,196-355.15,284.62-116.18,95.7-187.64,180.09-113.73,256.69,62,64.19,236,125,778,86.51M1276.32-353C1158-261,1028.12-152,884.54-37.6c-150.86,120.23-260,220.5-316.87,293.16C481.27,366,486.44,390.42,539.31,433.9c32,26.3,99.43,39.78,161.72,67.2C853.71,568.31,836.14,646.81,802.75,811c-5,24.62-15.52,51.12-27,78.86-51.82,124.8-106.44,217.94-36.53,275.76,42.14,34.85,124.26,30.85,135.54,70,8.85,30.71-12.85,68.38-61,119.51-90.24,95.79-254,196.43-360.54,285.21-114.3,95.23-180.8,179.2-99.82,255.5,67.42,63.52,247.14,123.68,785.79,88.19M1283.46-354.35c-116.84,92.32-247,203-393.78,320.17C738.36,86.63,627.26,187.38,567.13,260.33,474,373.38,471.78,400,521.28,444.88c30.31,27.48,98.8,40.6,164,66.64C843,574.49,844.11,646.45,812.16,809c-4.88,24.81-15.86,51.6-28.25,79.72-55.33,125.57-120.81,222.93-52.06,282.66,41.61,36.14,126.32,30.68,136.46,70.88,7.86,31.19-16,69.34-66.07,120.6-93.62,95.77-260.43,196.89-365.92,285.8-112.42,94.75-174,178.33-85.91,254.31,72.86,62.87,258.31,122.37,793.62,89.86M1290.6-355.73c-115.34,92.66-245.91,205.12-395.77,325C743,90.62,630,191.83,566.59,265.1c-100,115.58-109.49,144.52-63.35,190.75,28.64,28.69,98.15,41.46,166.33,66.09,162.69,58.8,182.53,124.15,152,285-4.74,25-16.19,52.06-29.46,80.57-58.8,126.33-135.2,227.93-67.59,289.57,41.06,37.44,128.4,30.49,137.35,71.72,6.88,31.65-19.06,70.3-71.11,121.69-97,95.75-266.88,197.33-371.3,286.38-110.54,94.26-167.19,177.5-72,253.13,78.3,62.22,269.48,121,801.46,91.52M1297.73-357.11C1183.9-264.12,1053-149.92,900-27.36c-152.26,122-267.3,223.61-333.92,297.23-106.84,118.06-123.67,149.41-80.85,197,26.95,29.92,97.49,42.34,168.64,65.54C821.47,587,860.09,645.72,831,805c-4.61,25.19-16.5,52.53-30.66,81.44C738,1013.52,650.7,1119.35,717.15,1182.9c40.53,38.75,130.5,30.3,138.26,72.56,5.91,32.12-22.15,71.27-76.14,122.78C678.93,1474,505.93,1576,402.58,1665.19c-108.67,93.79-160.4,176.7-58.1,252,83.74,61.6,280.66,119.73,809.3,93.2M1304.87-358.49c-112.32,93.33-243.62,209.27-399.75,334.54C752.38,98.6,635.35,200.65,565.51,274.64,451.78,395.13,427.64,429,467.17,477.79c25.23,31.16,96.8,43.24,171,65,172.52,50.61,230,102.56,202.23,260.23-4.47,25.37-16.82,53-31.87,82.29-65.69,127.84-164,237.93-98.67,303.37,40,40,132.6,30.1,139.17,73.39,4.95,32.58-25.24,72.23-81.18,123.88-103.69,95.71-279.8,198.19-382.07,287.53-106.8,93.29-153.63,175.89-44.19,250.76,89.15,61,291.83,118.42,817.14,94.87M1312-359.87c-110.82,93.66-242.49,211.35-401.75,339.33C757,102.58,638,205,565,279.4,444.32,402.27,412.85,438.68,449.13,488.76c23.49,32.43,96.09,44.17,173.25,64.44C799.76,599.8,876.15,645,849.74,801c-4.32,25.56-17.13,53.47-33.08,83.15-69.1,128.61-178.39,242.94-114.21,310.27,39.43,41.37,134.72,29.91,140.08,74.23,4,33-28.34,73.21-86.23,125-107,95.7-286.25,198.62-387.46,288.12-104.93,92.8-146.86,175.12-30.29,249.58,94.57,60.4,303,117.09,825,96.54M1319.14-361.25c-109.31,94-241.35,213.42-403.75,344.13-153.68,123.69-274.7,226.46-351,301.3C436.83,409.37,408,441.68,431.08,499.74c15.19,38.17,95.39,45.12,175.56,63.89,182.22,42.64,277.57,81,252.48,235.42-4.17,25.74-17.43,53.94-34.28,84C752.35,1012.44,632,1131,695.1,1200.24c38.88,42.67,136.84,29.69,141,75.06,3.06,33.49-31.42,74.18-91.27,126.06-110.39,95.71-292.72,199.05-392.84,288.7-103.07,92.3-140.1,174.35-16.38,248.4,100,59.82,314.18,115.77,832.81,98.21m157.88-2399.3C1218.47-268.29,1086.07-147.14,920.53-13.7,766.37,110.57,643.37,213.64,563.88,289,429.35,416.41,393.07,451.77,413.06,510.72c13.34,39.33,94.65,46.1,177.86,63.33,187,38.74,301.38,70.14,277.62,223-4,25.92-17.74,54.41-35.49,84.87-75.87,130.14-207.21,253-145.28,324.07,38.32,44,139,29.49,141.89,75.9,2.12,33.94-34.51,75.16-96.3,127.16-113.74,95.71-299.19,199.47-398.23,289.28-101.21,91.8-133.36,173.61-2.47,247.22C438,2004.82,658,2060,1173.3,2045.45M1333.42-364c-106.3,94.67-239.09,217.56-407.75,353.71C771,114.54,646.05,217.89,563.33,293.72,421.86,423.39,378,461.93,395,521.69c11.53,40.47,93.91,47.1,180.17,62.77C767,619.33,900.39,643.79,877.93,795.08c-3.88,26.1-18,54.88-36.7,85.73-79.23,130.92-221.63,258-160.82,331,37.76,45.32,141.15,29.28,142.8,76.74,1.2,34.38-37.6,76.14-101.34,128.25-117.09,95.72-305.67,199.88-403.61,289.86-99.36,91.29-126.61,172.89,11.43,246,110.78,58.7,336.53,113.13,848.48,101.55m162.39-2419.6c-104.8,95-238,219.62-409.74,358.5-155.12,125.41-282.07,229-368,305.37C414.38,430.31,353.3,477.86,377,532.65c16.3,37.69,93.17,48.12,182.47,62.23,196.62,31,349.06,48.5,327.87,198.22-3.72,26.27-18.32,55.35-37.91,86.58-82.57,131.7-236.06,263-176.35,337.87,37.2,46.64,143.31,29,143.71,77.57.28,34.83-40.69,77.12-106.39,129.35-120.44,95.73-312.15,200.3-409,290.44-97.52,90.79-119.87,172.17,25.34,244.85,116.18,58.15,347.7,111.82,856.32,103.22M1347.69-366.78C1244.41-271.43,1110.86-145.09,936-3.48c-155.59,126-284.52,229.82-373.72,306.73C406.9,437.2,338.3,487.72,359,543.62c14.41,39,92.4,49.17,184.77,61.68,201.39,27.27,372.92,37.67,353,185.82-3.56,26.45-18.61,55.83-39.11,87.44-85.91,132.49-250.5,268-191.9,344.77,36.63,48,145.5,28.83,144.62,78.41-.62,35.27-43.76,78.1-111.42,130.43-123.79,95.75-318.63,200.7-414.37,291s-113.14,171.46,39.24,243.67c121.58,57.61,358.88,110.49,864.16,104.89m166.9-2439.92C1253.05-272.47,1119.13-144.4,941.11-.06,785,126.48,654.16,230.53,561.71,308c-162.28,136-238.42,189.57-220.79,246.57C353.43,595,432.56,604.83,528,615.71c206.15,23.52,396.8,26.83,378.12,173.42-3.4,26.63-18.91,56.3-40.32,88.29-89.23,133.29-264.93,273.08-207.44,351.68,36.06,49.29,147.69,28.6,145.53,79.24-1.53,35.72-46.86,79.1-116.47,131.53C560.29,1535.65,362.3,1641,267.68,1731.48c-93.85,89.75-106.4,170.76,53.14,242.47,127,57.09,370.05,109.18,872,106.57M1362-369.54c-100.27,96-234.57,225.82-415.72,372.89C789.7,130.46,656.89,234.69,561.16,312.8,392,450.85,308.2,507.49,322.88,565.57c10.57,41.81,90.87,51.32,189.39,60.57,210.92,19.8,420.7,16,403.25,161C912.3,814,896.34,843.94,874,876.31c-92.54,134.09-279.38,278.11-223,358.57,35.48,50.62,149.9,28.37,146.43,80.08-2.41,36.15-49.94,80.08-121.5,132.62-130.49,95.81-331.62,201.51-425.14,292.19-92,89.22-99.67,170.07,67.05,241.29,132.38,56.56,381.22,107.86,879.83,108.24M1369.11-370.92C1270.34-274.57,1135.65-143,951.38,6.76c-157,127.68-291.75,232.07-390.77,310.8-176.09,140-267.54,199.81-255.77,259,8.59,43.21,90.1,52.42,191.69,60,215.69,16.13,444.62,5.13,428.38,148.61-3,27-19.47,57.28-42.73,90-95.85,134.91-293.82,283.15-238.51,365.48,34.9,51.94,152.11,28.15,147.34,80.91-3.31,36.6-53,81.08-126.55,133.72-133.84,95.84-338.13,201.91-430.52,292.77-90.2,88.7-92.94,169.4,80.95,240.11,137.78,56,392.39,106.54,887.66,109.91M1376.24-372.3C1279-275.61,1143.91-142.36,956.52,10.18,799,138.42,662.37,243,560.06,322.34c-183,142-282.15,205-273.26,265.19,6.58,44.61,89.32,53.54,194,59.46,220.45,12.47,468.55-5.74,453.5,136.2-2.88,27.15-19.75,57.76-43.94,90.88-99.15,135.74-308.28,288.18-254.05,372.38,34.32,53.27,154.34,27.91,148.25,81.74-4.19,37-56.13,82.08-131.58,134.81-137.19,95.88-344.65,202.31-435.9,293.35-88.39,88.18-86.21,168.72,94.85,238.93,143.19,55.51,403.57,105.22,895.5,111.58m176-2480.54c-95.77,97-231.41,231.78-421.71,387.27C803.5,142.22,665.15,247.05,559.53,327.1,369.68,471,262.72,537.18,268.76,598.49c4.53,46,88.55,54.68,196.3,58.91,225.23,8.84,492.49-16.61,478.63,123.81-2.7,27.32-20,58.23-45.15,91.73C796.1,1009.52,575.8,1166.17,629,1252.22c33.73,54.61,156.58,27.69,149.16,82.58-5.07,37.48-59.22,83.08-136.63,135.91-140.55,95.92-351.16,202.7-441.29,293.94-86.58,87.64-79.47,168,108.76,237.74,148.58,55,414.75,103.9,903.35,113.25m178.2-2490.7C1296.26-277.69,1160.25-141.2,966.81,17,808.18,146.21,667.93,251.13,559,331.88,362.28,477.67,247.5,547.09,250.73,609.47c2.45,47.43,87.77,55.82,198.6,58.36,230,5.23,516.45-27.49,503.76,111.4-2.52,27.49-20.31,58.73-46.35,92.59C801,1009.25,569.53,1170.09,621.62,1258c33.14,55.94,158.82,27.46,150.06,83.42-5.93,37.92-62.31,84.07-141.67,137-143.9,96-357.69,203.1-446.67,294.52-84.78,87.12-72.75,167.4,122.68,236.55,154,54.49,425.92,102.58,911.17,114.92M1397.65-376.44C1304.91-278.73,1168.52-140.5,972,20.41,812.86,150.21,670.73,255.19,558.44,336.64,354.9,484.3,232.24,557,232.7,620.44c.35,48.84,87,57,200.91,57.8,234.79,1.65,540.42-38.37,528.89,99-2.33,27.65-20.58,59.22-47.56,93.44-109,138.29-350.81,302.73-300.66,393.08,32,57.66,161.08,27.23,151,84.26-6.8,38.36-65.4,85.08-146.71,138.09-147.26,96-364.24,203.48-452,295.09-83,86.59-66,166.75,136.58,235.37,159.38,54,437.1,101.27,919,116.6m182.7-2511c-91.24,98-228,238-427.69,401.65C817.53,154.21,673.54,259.24,557.91,341.41,347.55,490.88,217,566.85,214.66,631.4c-1.79,50.26,86.21,58.19,203.22,57.25,239.58-1.91,564.41-49.25,554,86.6C969.76,803.08,951,835,923.12,869.56c-112.31,139.17-366.13,308.37-316.19,400,32,58.61,163.35,27,151.88,85.08-7.66,38.81-68.49,86.09-151.74,139.19-150.63,96.07-370.79,203.86-457.44,295.67-81.21,86.06-59.28,166.1,150.49,234.19,164.78,53.5,448.27,100,926.85,118.27m185-2521.16c-89.74,98.38-226.85,240.1-429.69,406.44-160,131-305.87,236-424.88,319C340.2,497.46,201.65,576.72,196.62,642.38c-4,51.65,85.44,59.37,205.52,56.69,244.39-5.45,588.42-60.15,579.14,74.2-1.93,28-21.12,60.22-50,95.17-115.6,140-380.89,313.6-331.74,406.89,31.19,60.07,165.63,26.77,152.79,85.92-8.52,39.26-71.55,87.19-156.78,140.28-153.93,96.31-377.36,204.25-462.82,296.26-79.44,85.52-52.56,165.46,164.39,233,170.19,53,459.44,98.62,934.68,119.93M1419.07-380.59c-88.23,98.71-225.72,242.18-431.69,411.24C826.87,162.2,679.19,267.3,556.81,351,332.87,504,186.32,586.56,178.59,653.35c-6.14,53,84.66,60.58,207.83,56.14,249.2-9,612.44-71.07,604.26,61.79-1.72,28.14-21.4,60.72-51.18,96-118.89,140.94-395.28,318.58-347.27,413.78,30.63,61.37,167.9,26.55,153.7,86.76-9.37,39.7-74.66,88.16-161.83,141.37-157.32,96.31-383.93,204.63-468.21,296.84-77.67,85-46.16,165.25,178.3,231.82,175.32,52.84,470.61,97.31,942.52,121.61M1426.2-382c-86.72,99.05-224.57,244.26-433.68,416C831.55,166.19,682,271.31,556.27,355.72,325.55,510.56,171,596.39,160.55,664.33c-8.35,54.44,83.88,61.8,210.13,55.58,254-12.49,636.77-82.1,629.39,49.4-1.46,28.27-21.62,61.24-52.39,96.88-122,141.92-409.68,323.58-362.8,420.68,30.08,62.67,170.19,26.33,154.6,87.6-10.22,40.16-77.78,89.15-166.86,142.46C411.91,1613.25,182,1721.89,99,1814.35c-76,84.41-39.27,164.4,192.2,230.64,180.86,52.18,481.79,96,950.36,123.28M1433.33-383.35C1348.12-284,1209.89-137,997.66,37.47,539.43,414.18,162.73,568.61,142.51,675.3c-31.74,167.51,875.93-102.76,867,92-6.51,141.25-489.21,401.33-431.95,525.33,29.54,64,172.49,26.11,155.51,88.43-31,113.84-523.62,297.59-650.88,441.57-132.17,149.53,103.91,285.39,1164.3,354.4"/></svg>