<svg width="2893" height="3501" viewBox="0 0 2893 3501" fill="none" xmlns="http://www.w3.org/2000/svg">
<path opacity="0.3" d="M934.086 722.914C1024.08 775.93 1091.22 859.712 1012.43 995.902C953.603 1097.6 859.095 1149.54 854.032 1216.92C847.297 1306.59 1009.57 1282.74 1238.7 1337.07C1426.5 1381.6 1520.4 1403.86 1540.3 1464.42C1598.73 1642.25 1024.88 1932.29 999.928 2148.86C972.39 2387.9 1651.53 2208.07 1653.54 2431.25C1654.43 2529.62 1523.92 2724.09 872.069 3152.75M954.154 716.088C1038.22 770.329 1100.45 854.525 1021.03 989.655C961.082 1091.09 867.241 1143.6 862.251 1210.74C855.588 1300.86 1019.55 1276.22 1245.57 1331.33C1259.91 1334.86 1273.67 1338.29 1286.87 1341.65C1444.38 1381.03 1521.12 1406.38 1537.59 1463.21C1558.85 1536.61 1477.94 1627.68 1373.3 1725.23C1222.52 1866.08 1024.49 2016.54 1012.29 2142.37C1005.8 2211.81 1058.82 2245.86 1135.44 2265.99C1318.81 2314.15 1640.18 2276.21 1639.76 2433.26C1639.71 2443.49 1638.32 2454.74 1635.17 2467.13C1608.08 2573.78 1448.74 2766.91 891.133 3140.59M974.231 709.255C1052.38 764.712 1110.11 849.353 1029.64 983.396C968.894 1084.59 875.405 1137.66 870.486 1204.55C863.896 1295.11 1029.55 1269.69 1252.46 1325.59C1266.65 1329.21 1280.22 1332.81 1293.28 1336.28C1447.82 1377.33 1520.34 1404.18 1534.9 1462C1553.51 1535.89 1473.85 1626.41 1371.65 1723.75C1224.39 1864.59 1033.9 2012.23 1024.68 2135.87C1019.57 2204.39 1072.59 2238.35 1146.61 2259.87C1323.76 2311.39 1628.67 2278.41 1626.01 2435.25C1625.84 2445.5 1624.36 2456.74 1621.24 2469.1C1594.48 2575.01 1441.25 2765.21 910.23 3128.4M994.308 702.422C1066.54 759.104 1119.55 844.169 1038.24 977.143C976.526 1078.09 883.563 1131.73 878.725 1198.36C872.208 1289.37 1040.09 1262.48 1259.36 1319.85C1273.43 1323.53 1286.79 1327.32 1299.68 1330.93C1451.48 1373.35 1519.55 1401.97 1532.21 1460.79C1548.2 1535.14 1469.57 1625 1369.99 1722.26C1225.98 1862.92 1043.55 2007.83 1037.07 2129.37C1033.47 2196.93 1086.36 2230.82 1157.78 2253.76C1328.71 2308.63 1616.94 2280.71 1612.26 2437.25C1611.96 2447.52 1610.4 2458.77 1607.31 2471.09C1580.87 2576.27 1433.76 2763.53 929.327 3116.23M1014.38 695.6C1080.69 753.498 1128.97 839.006 1046.85 970.894C984.153 1071.6 891.722 1125.8 886.954 1192.18C880.51 1283.63 1050.26 1255.75 1266.24 1314.11C1280.18 1317.88 1293.35 1321.83 1306.09 1325.57C1455.15 1369.35 1518.78 1399.73 1529.51 1459.59C1542.91 1534.36 1465.41 1623.71 1368.35 1720.79C1227.76 1861.39 1053.2 2003.44 1049.46 2122.89C1047.37 2189.5 1100.12 2223.32 1168.93 2247.67C1333.64 2305.88 1605.19 2283.03 1598.5 2439.27C1598.06 2449.56 1596.42 2460.81 1593.36 2473.09C1567.24 2577.54 1426.25 2761.87 948.392 3104.08M1034.46 688.768C1094.84 747.891 1138.38 833.834 1055.46 964.641C991.775 1065.1 899.879 1119.87 895.185 1186C888.813 1277.9 1060.43 1249.03 1273.13 1308.38C1286.93 1312.23 1299.92 1316.34 1312.5 1320.21C1458.81 1365.35 1518.03 1397.46 1526.81 1458.38C1537.66 1533.54 1461.24 1622.41 1366.68 1719.31C1229.53 1859.87 1062.85 1999.06 1061.84 2116.4C1061.27 2182.05 1113.88 2215.81 1180.1 2241.56C1338.59 2303.13 1593.45 2285.34 1584.75 2441.28C1584.17 2451.59 1582.45 2462.83 1579.42 2475.07C1553.63 2578.79 1418.76 2760.18 967.487 3091.91M1054.53 681.935C1109 742.273 1147.78 828.662 1064.06 958.388C999.38 1058.61 908.036 1113.94 903.42 1179.81C897.122 1272.15 1070.58 1242.31 1280.02 1302.63C1293.69 1306.57 1306.49 1310.84 1318.9 1314.85C1462.48 1361.33 1517.29 1395.16 1524.12 1457.17C1532.45 1532.67 1457.08 1621.11 1365.03 1717.83C1231.29 1858.35 1072.52 1994.67 1074.22 2109.9C1075.17 2174.59 1127.65 2208.29 1191.26 2235.44C1343.54 2300.36 1581.68 2287.64 1570.99 2443.27C1570.27 2453.6 1568.48 2464.84 1565.48 2477.04C1540.02 2580.03 1411.27 2758.49 986.575 3079.72M1074.61 675.102C1123.16 736.66 1157.17 823.496 1072.67 952.129C1006.99 1052.12 916.201 1108 911.659 1173.63C905.433 1266.41 1080.74 1235.61 1286.92 1296.89C1300.45 1300.91 1313.06 1305.34 1325.31 1309.49C1466.18 1357.29 1516.58 1392.83 1521.43 1455.96C1527.27 1531.78 1452.92 1619.82 1363.38 1716.34C1233.06 1856.83 1082.21 1990.28 1086.61 2103.4C1089.1 2167.14 1141.41 2200.77 1202.43 2229.33C1348.48 2297.6 1569.92 2289.97 1557.23 2445.28C1556.39 2455.63 1554.51 2466.87 1551.55 2479.03C1526.41 2581.28 1403.78 2756.8 1005.66 3067.55M1094.68 668.275C1137.31 731.054 1166.53 818.337 1081.27 945.881C1014.58 1045.63 924.358 1102.06 919.878 1167.45C913.725 1260.67 1090.88 1228.92 1293.8 1291.16C1307.18 1295.27 1319.61 1299.84 1331.7 1304.14C1469.84 1353.25 1515.86 1390.48 1518.73 1454.76C1522.13 1530.85 1448.74 1618.53 1361.71 1714.87C1234.81 1855.33 1091.88 1985.9 1098.98 2096.91C1103 2159.7 1155.16 2193.26 1213.58 2223.23C1353.41 2294.84 1558.13 2292.3 1543.47 2447.28C1542.49 2457.65 1540.53 2468.89 1537.6 2481.02C1512.79 2582.54 1396.28 2755.13 1024.74 3055.39M1114.75 661.443C1151.47 725.441 1175.89 813.178 1089.88 939.623C1022.18 1039.14 932.52 1096.12 928.124 1161.26C922.044 1254.93 1101.03 1222.23 1300.69 1285.42C1313.95 1289.61 1326.18 1294.34 1338.11 1298.78C1473.54 1349.19 1515.19 1388.1 1516.04 1453.55C1517.03 1529.88 1444.58 1617.25 1360.06 1713.39C1236.58 1853.83 1101.59 1981.52 1111.37 2090.42C1116.93 2152.26 1168.93 2185.75 1224.75 2217.12C1358.37 2292.09 1546.36 2294.63 1529.72 2449.29C1528.6 2459.68 1526.58 2470.91 1523.66 2483C1499.18 2583.8 1388.79 2753.45 1043.83 3043.21M1134.83 654.61C1165.62 719.829 1185.25 808.014 1098.48 933.369C1029.76 1032.66 940.677 1090.19 936.351 1155.07C930.344 1249.19 1111.16 1215.56 1307.58 1279.68C1320.69 1283.96 1332.74 1288.85 1344.51 1293.43C1477.23 1345.12 1514.52 1385.69 1513.33 1452.35C1511.97 1528.88 1440.4 1615.97 1358.39 1711.9C1238.33 1852.33 1111.29 1977.13 1123.75 2083.92C1130.85 2144.81 1182.69 2178.23 1235.91 2211C1363.3 2289.33 1534.55 2296.97 1515.95 2451.29C1514.7 2461.71 1512.6 2472.94 1509.72 2484.98C1485.56 2585.05 1381.29 2751.76 1062.91 3031.05M1154.9 647.783C1179.77 714.222 1194.58 802.861 1107.08 927.121C1037.32 1026.18 948.826 1084.26 944.574 1148.9C938.639 1243.46 1121.27 1208.91 1314.45 1273.95C1327.43 1278.32 1339.3 1283.34 1350.9 1288.07C1480.93 1341.03 1513.88 1383.26 1510.63 1451.14C1506.96 1527.84 1436.24 1614.7 1356.73 1710.43C1240.1 1850.85 1121.02 1972.75 1136.13 2077.43C1144.78 2137.36 1196.45 2170.72 1247.07 2204.9C1368.25 2286.57 1522.74 2299.32 1502.2 2453.3C1500.81 2463.73 1498.63 2474.96 1495.78 2486.97C1471.95 2586.3 1373.8 2750.08 1082 3018.87M1174.98 640.951C1193.93 708.61 1203.91 797.704 1115.69 920.863C1044.89 1019.7 956.99 1078.32 952.809 1142.71C946.944 1237.71 1131.4 1202.25 1321.35 1268.2C1334.18 1272.66 1345.87 1277.84 1357.32 1282.71C1484.65 1336.92 1513.29 1380.79 1507.94 1449.92C1501.99 1526.76 1432.08 1613.43 1355.08 1708.94C1241.87 1849.36 1130.76 1968.35 1148.52 2070.93C1158.72 2129.91 1210.21 2163.19 1258.23 2198.78C1373.2 2283.8 1510.92 2301.66 1488.44 2455.29C1486.91 2465.75 1484.66 2476.97 1481.83 2488.94C1458.33 2587.54 1366.3 2748.39 1101.08 3006.69M1195.05 634.118C1208.08 702.998 1213.23 792.547 1124.29 914.605C1052.45 1013.22 965.145 1072.38 961.044 1136.52C955.26 1231.95 1141.51 1195.61 1328.24 1262.46C1340.94 1267 1352.44 1272.32 1363.72 1277.34C1488.37 1332.8 1512.72 1378.3 1505.25 1448.71C1497.08 1525.67 1427.93 1612.16 1353.42 1707.46C1243.65 1847.88 1140.51 1963.95 1160.9 2064.43C1172.68 2122.45 1223.98 2155.68 1269.39 2192.67C1378.14 2281.05 1499.09 2304.02 1474.68 2457.3C1473.01 2467.78 1470.68 2479 1467.89 2490.93C1444.72 2588.8 1358.79 2746.72 1120.16 2994.53M1215.13 627.285C1222.25 697.385 1222.53 787.391 1132.91 908.346C1060 1006.73 973.31 1066.44 969.28 1130.33C963.569 1226.21 1151.62 1188.98 1335.13 1256.71C1347.69 1261.34 1359.01 1266.82 1370.13 1271.98C1492.11 1328.67 1512.19 1375.78 1502.56 1447.49C1492.21 1524.53 1423.76 1610.89 1351.77 1705.97C1245.42 1846.41 1150.27 1959.55 1173.29 2057.93C1186.64 2115 1237.75 2148.15 1280.56 2186.55C1383.08 2278.28 1487.26 2306.38 1460.92 2459.29C1459.11 2469.8 1456.71 2481.01 1453.95 2492.9C1431.1 2590.04 1351.3 2745.02 1139.25 2982.34M1235.2 620.458C1236.39 691.779 1231.82 782.242 1141.5 902.098C1067.53 1000.27 981.458 1060.52 977.499 1124.15C971.86 1220.47 1161.71 1182.36 1342.01 1250.98C1354.43 1255.7 1365.57 1261.31 1376.52 1266.63C1495.84 1324.53 1511.67 1373.26 1499.84 1446.3C1487.36 1523.39 1419.59 1609.64 1350.09 1704.5C1247.18 1844.96 1160.03 1955.16 1185.65 2051.45C1200.58 2107.56 1251.49 2140.65 1291.7 2180.45C1388.01 2275.53 1475.39 2308.75 1447.15 2461.31C1445.21 2471.84 1442.73 2483.04 1440 2494.9C1417.48 2591.3 1343.79 2743.35 1158.33 2970.18M1255.28 613.625C1250.55 686.166 1241.1 777.082 1150.11 895.845C1075.06 993.792 989.616 1054.58 985.738 1117.96C980.172 1214.73 1171.8 1175.76 1348.9 1245.24C1361.18 1250.05 1372.15 1255.8 1382.93 1261.27C1499.6 1320.37 1511.21 1370.71 1497.16 1445.09C1482.6 1522.22 1415.46 1608.38 1348.45 1703.01C1248.98 1843.49 1169.85 1950.74 1198.06 2044.94C1214.57 2100.08 1265.27 2133.12 1302.88 2174.33C1392.97 2272.76 1463.56 2311.11 1433.41 2463.3C1431.32 2473.85 1428.78 2485.05 1426.08 2496.87C1403.87 2592.55 1336.31 2741.66 1177.43 2957.99M1275.35 606.792C1264.7 680.554 1250.38 771.928 1158.72 889.586C1082.59 987.308 997.786 1048.63 993.973 1111.77C988.48 1208.98 1181.88 1169.17 1355.8 1239.49C1367.93 1244.4 1378.72 1250.29 1389.34 1255.9C1503.37 1316.19 1510.79 1368.14 1494.47 1443.87C1477.86 1521.02 1411.32 1607.12 1346.8 1701.52C1250.77 1842.03 1179.65 1946.32 1210.44 2038.44C1228.55 2092.62 1279.03 2125.6 1314.04 2168.22C1397.91 2270 1451.68 2313.48 1419.65 2465.3C1417.41 2475.87 1414.8 2487.07 1412.13 2498.85C1390.25 2593.79 1328.81 2739.97 1196.5 2945.82M1295.42 599.966C1278.85 674.947 1259.63 766.775 1167.32 883.338C1090.1 980.831 1005.93 1042.71 1002.19 1105.6C996.775 1203.26 1191.95 1162.59 1362.67 1233.76C1374.67 1238.76 1385.28 1244.79 1395.73 1250.56C1507.13 1312.02 1510.37 1365.57 1491.77 1442.67C1473.15 1519.82 1407.16 1605.88 1345.13 1700.06C1252.56 1840.59 1189.47 1941.92 1222.81 2031.97C1242.52 2085.18 1292.78 2118.11 1325.2 2162.13C1402.85 2267.26 1439.79 2315.88 1405.89 2467.32C1403.52 2477.92 1400.83 2489.11 1398.19 2500.85C1376.64 2595.07 1321.32 2738.31 1215.6 2933.67M1315.5 593.138C1293.02 669.334 1268.89 761.622 1175.93 877.084C1097.62 974.359 1014.1 1036.77 1010.44 1099.41C1005.09 1197.51 1202.02 1156.02 1369.58 1228.02C1381.43 1233.11 1391.88 1239.27 1402.15 1245.19C1510.94 1307.8 1510.04 1362.96 1489.09 1441.46C1468.5 1518.59 1403.04 1604.63 1343.49 1698.57C1254.37 1839.13 1199.31 1937.48 1235.21 2025.47C1256.53 2077.7 1306.56 2110.59 1336.37 2156C1407.81 2264.49 1427.92 2318.25 1392.14 2469.31C1389.63 2479.94 1386.87 2491.12 1384.26 2502.81C1363.04 2596.3 1313.83 2736.6 1234.7 2921.48M1335.58 586.306C1307.17 663.728 1278.13 756.46 1184.53 870.831C1105.11 967.878 1022.26 1030.84 1018.67 1093.23C1013.4 1191.77 1212.07 1149.47 1376.46 1222.29C1388.16 1227.48 1398.44 1233.77 1408.54 1239.85C1514.72 1303.6 1509.7 1360.37 1486.37 1440.27C1463.87 1517.37 1398.89 1603.4 1341.81 1697.11C1256.17 1837.71 1209.14 1933.07 1247.58 2018.99C1270.51 2070.25 1320.31 2103.09 1347.52 2149.92C1412.74 2261.75 1416.01 2320.66 1378.37 2471.34C1375.71 2481.99 1372.89 2493.17 1370.3 2504.83C1349.4 2597.59 1306.32 2734.96 1253.75 2909.34M1355.65 579.478C1321.32 658.115 1287.35 751.308 1193.13 864.583C1112.6 961.401 1030.41 1024.91 1026.89 1087.05C1021.69 1186.04 1222.11 1142.92 1383.33 1216.55C1394.9 1221.83 1405 1228.26 1414.94 1234.49C1518.52 1299.37 1509.4 1357.75 1483.67 1439.06C1459.29 1516.12 1394.76 1602.15 1340.15 1695.62C1257.98 1836.26 1218.99 1928.63 1259.95 2012.49C1284.51 2062.77 1334.06 2095.57 1358.67 2143.79C1417.67 2258.98 1404.09 2323.04 1364.61 2473.33C1361.8 2484 1358.91 2495.18 1356.36 2506.8C1335.79 2598.82 1298.82 2733.25 1272.84 2897.15M1375.72 572.646C1335.47 652.509 1296.58 746.137 1201.74 858.325C1120.09 954.91 1038.57 1018.97 1035.14 1080.86C1030.01 1180.29 1232.15 1136.38 1390.23 1210.8C1401.66 1216.18 1411.59 1222.73 1421.35 1229.12C1522.35 1295.12 1509.17 1355.11 1480.98 1437.84C1454.74 1514.87 1390.65 1600.9 1338.5 1694.13C1259.81 1834.81 1223.68 1927.83 1272.35 2005.99C1301.67 2053.08 1347.84 2088.04 1369.84 2137.68C1422.62 2256.22 1392.17 2325.44 1350.85 2475.33C1347.91 2486.03 1344.94 2497.2 1342.42 2508.78C1322.18 2600.07 1291.33 2731.57 1291.94 2884.98M1395.8 565.813C1349.64 646.896 1305.79 740.971 1210.35 852.072C1127.57 948.43 1046.73 1013.04 1043.36 1074.68C1038.31 1174.55 1242.17 1129.86 1397.12 1205.06C1408.39 1210.54 1418.16 1217.22 1427.75 1223.76C1526.18 1290.87 1508.95 1352.48 1478.29 1436.63C1450.24 1513.61 1386.53 1599.66 1336.85 1692.65C1261.66 1833.37 1233.62 1923.42 1284.73 1999.49C1315.68 2045.55 1361.6 2080.53 1381.01 2131.57C1427.57 2253.46 1380.24 2327.83 1337.1 2477.33C1334.01 2488.06 1330.98 2499.22 1328.49 2510.76C1308.56 2601.32 1283.84 2729.88 1311.02 2872.8M1415.88 558.98C1363.79 641.278 1315 735.8 1218.96 845.812C1135.04 941.934 1054.89 1007.1 1051.6 1068.49C1046.62 1168.81 1252.19 1123.35 1404.01 1199.32C1415.15 1204.89 1424.75 1211.7 1434.17 1218.4C1530.04 1286.6 1508.8 1349.84 1475.6 1435.42C1445.76 1512.34 1382.44 1598.41 1335.19 1691.16C1263.51 1831.92 1248.66 1915.24 1297.12 1992.99C1326.61 2040.3 1375.37 2073.01 1392.18 2125.46C1432.52 2250.7 1368.31 2330.22 1323.35 2479.33C1320.11 2490.08 1317.02 2501.23 1314.56 2512.73C1294.96 2602.57 1276.36 2728.19 1330.12 2860.62M1435.94 552.154C1377.94 635.677 1324.19 730.631 1227.56 839.565C1142.49 935.45 1063.05 1001.16 1059.83 1062.31C1054.92 1163.07 1262.19 1116.85 1410.9 1193.58C1421.89 1199.25 1431.32 1206.18 1440.56 1213.05C1533.9 1282.31 1508.65 1347.21 1472.9 1434.22C1441.31 1511.09 1378.33 1597.17 1333.53 1689.7C1265.36 1830.49 1258.57 1910.78 1309.49 1986.51C1340.64 2032.81 1389.12 2065.5 1403.33 2119.35C1437.45 2247.95 1356.34 2332.64 1309.58 2481.34C1306.2 2492.12 1303.04 2503.26 1300.6 2514.73C1281.33 2603.84 1268.85 2726.53 1349.19 2848.46M1456.02 545.321C1392.1 630.059 1333.39 725.455 1236.17 833.306C1149.96 928.95 1071.21 995.225 1068.07 1056.12C1063.23 1157.33 1272.18 1110.36 1417.79 1187.84C1428.63 1193.61 1437.91 1200.66 1446.98 1207.69C1537.78 1278.02 1508.57 1344.57 1470.21 1433C1436.89 1509.83 1374.25 1595.92 1331.88 1688.21C1267.24 1829.03 1268.5 1906.29 1321.89 1980C1354.7 2025.3 1402.9 2057.98 1414.5 2113.24C1442.42 2245.18 1344.39 2335.03 1295.84 2483.34C1292.3 2494.15 1289.08 2505.28 1286.67 2516.7C1267.72 2605.08 1261.37 2724.83 1368.28 2836.28M1476.1 538.488C1406.25 624.452 1342.56 720.271 1244.77 827.053C1157.41 922.445 1079.37 989.292 1076.3 1049.94C1071.53 1151.59 1282.16 1103.89 1424.68 1182.1C1435.37 1187.98 1444.48 1195.14 1453.37 1202.33C1541.67 1273.72 1508.5 1341.95 1467.51 1431.8C1432.48 1508.58 1370.14 1594.68 1330.21 1686.73C1269.11 1827.59 1278.42 1901.79 1334.26 1973.52C1368.74 2017.8 1416.64 2050.47 1425.65 2107.13C1447.35 2242.42 1332.4 2337.44 1282.07 2485.34C1278.39 2496.17 1275.1 2507.3 1272.73 2518.68C1254.11 2606.33 1253.87 2723.15 1387.37 2824.11M1496.17 531.661C1420.4 618.84 1351.73 715.092 1253.37 820.8C1164.83 915.942 1087.52 983.359 1084.52 1043.75C1079.83 1145.84 1292.12 1097.42 1431.56 1176.36C1442.1 1182.33 1451.06 1189.62 1459.77 1196.96C1545.57 1269.39 1508.46 1339.31 1464.81 1430.59C1428.11 1507.33 1366.08 1593.42 1328.56 1685.24C1271 1826.14 1288.36 1897.28 1346.65 1967.01C1382.8 2010.27 1430.41 2042.95 1436.82 2101.01C1452.29 2239.66 1320.42 2339.85 1268.32 2487.34C1264.48 2498.2 1261.13 2509.32 1258.8 2520.67C1240.5 2607.58 1246.38 2721.46 1406.46 2811.93M1516.24 524.828C1434.56 613.233 1360.9 709.892 1261.98 814.541C1172.28 909.427 1095.68 977.42 1092.76 1037.56C1088.14 1140.1 1302.08 1090.97 1438.46 1170.62C1448.85 1176.69 1457.65 1184.09 1466.19 1191.6C1549.5 1265.05 1508.48 1336.7 1462.12 1429.37C1423.76 1506.08 1362 1592.16 1326.91 1683.75C1272.91 1824.67 1298.33 1892.76 1359.04 1960.52C1396.88 2002.75 1444.18 2035.43 1447.99 2094.9C1457.24 2236.9 1308.43 2342.24 1254.56 2489.34C1250.58 2500.22 1247.16 2511.34 1244.85 2522.65C1226.88 2608.83 1238.87 2719.78 1425.54 2799.77M1536.32 517.996C1448.72 607.616 1370.07 704.693 1270.58 808.288C1179.7 902.919 1103.84 971.487 1100.99 1031.38C1096.44 1134.36 1312.02 1084.54 1445.34 1164.88C1455.58 1171.05 1464.24 1178.56 1472.58 1186.25C1553.43 1260.71 1508.51 1334.09 1459.42 1428.17C1419.41 1504.86 1357.93 1590.92 1325.24 1682.28C1274.81 1823.22 1308.28 1888.24 1371.41 1954.03C1410.94 1995.22 1457.93 2027.91 1459.14 2088.79C1462.17 2234.14 1296.42 2344.66 1240.8 2491.35C1236.67 2502.26 1233.19 2513.36 1230.91 2524.63C1213.26 2610.08 1231.37 2718.1 1444.62 2787.59M1556.4 511.163C1462.88 602.003 1379.23 699.489 1279.19 802.029C1187.14 896.39 1112 965.549 1109.23 1025.18C1104.77 1128.61 1321.95 1078.1 1452.23 1159.14C1462.32 1165.41 1470.83 1173.03 1478.99 1180.88C1557.39 1256.35 1508.58 1331.49 1456.73 1426.95C1415.09 1503.63 1353.88 1589.64 1323.59 1680.79C1276.75 1821.74 1318.26 1883.69 1383.8 1947.52C1425.03 1987.67 1471.7 2020.39 1470.3 2082.67C1467.12 2231.38 1284.41 2347.05 1227.04 2493.34C1222.75 2504.28 1219.22 2515.37 1216.97 2526.6C1199.64 2611.32 1223.88 2716.41 1463.71 2775.41M1576.46 504.336C1477.02 596.397 1388.38 694.286 1287.79 795.782C1194.55 889.872 1120.15 959.621 1117.45 1019.01C1113.06 1122.87 1331.86 1071.69 1459.11 1153.4C1469.05 1159.79 1477.41 1167.51 1485.38 1175.53C1561.35 1251.99 1508.64 1328.92 1454.02 1425.76C1410.76 1502.44 1349.82 1588.39 1321.92 1679.32C1278.66 1820.29 1328.22 1879.15 1396.17 1941.04C1439.1 1980.15 1485.44 2012.89 1481.45 2076.58C1472.04 2228.64 1272.37 2349.49 1213.27 2495.36C1208.83 2506.33 1205.23 2517.41 1203.01 2528.61C1186.02 2612.6 1216.37 2714.74 1482.77 2763.26M1596.54 497.504C1491.18 590.784 1397.53 689.072 1296.39 789.528C1201.96 883.339 1128.31 953.678 1125.68 1012.83C1121.36 1117.14 1341.77 1065.29 1466 1147.67C1475.78 1154.15 1484 1161.99 1491.79 1170.18C1565.33 1247.61 1508.77 1326.35 1451.33 1424.54C1406.46 1501.25 1345.78 1587.12 1320.26 1677.84C1280.62 1818.8 1338.22 1874.59 1408.55 1934.55C1453.2 1972.59 1499.21 2005.37 1492.62 2070.47C1477 2225.87 1260.34 2351.89 1199.52 2497.36C1194.93 2508.35 1191.27 2519.43 1189.08 2530.59C1172.41 2613.85 1208.88 2713.06 1501.87 2751.09M1616.62 490.676C1505.34 585.182 1406.67 683.854 1305.01 783.274C1209.38 876.8 1136.48 947.744 1133.93 1006.64C1129.68 1111.39 1351.66 1058.9 1472.9 1141.92C1482.53 1148.52 1490.62 1156.45 1498.2 1164.82C1569.34 1243.22 1508.91 1323.8 1448.64 1423.34C1402.17 1500.07 1341.75 1585.85 1318.61 1676.36C1282.58 1817.32 1348.22 1870.02 1420.95 1928.05C1467.3 1965.03 1512.98 1997.86 1503.79 2064.36C1481.95 2223.11 1248.31 2354.3 1185.77 2499.37C1181.02 2510.38 1177.31 2521.46 1175.14 2532.57C1158.8 2615.1 1201.39 2711.38 1520.96 2738.91M1636.69 483.849C1519.49 579.57 1415.81 678.626 1313.61 777.027C1216.77 870.257 1144.63 941.816 1142.15 1000.46C1137.97 1105.66 1361.53 1052.53 1479.78 1136.19C1489.25 1142.9 1497.2 1150.93 1504.6 1159.47C1573.36 1238.83 1509.07 1321.27 1445.94 1422.14C1397.88 1498.93 1337.71 1584.59 1316.95 1674.89C1284.55 1815.84 1358.21 1865.44 1433.33 1921.56C1481.4 1957.47 1526.74 1990.35 1514.95 2058.25C1486.89 2220.36 1236.26 2356.7 1172.01 2501.38C1167.11 2512.42 1163.33 2523.48 1161.2 2534.56C1145.18 2616.36 1193.89 2709.7 1540.04 2726.75M1656.77 477.016C1533.65 573.957 1424.95 673.386 1322.22 770.768C1224.17 863.704 1152.8 935.877 1150.39 994.271C1146.28 1099.91 1371.39 1046.15 1486.67 1130.45C1495.99 1137.26 1503.8 1145.39 1511.01 1154.1C1577.4 1234.42 1509.25 1318.75 1443.25 1420.92C1393.61 1497.78 1333.7 1583.29 1315.31 1673.39C1286.53 1814.33 1368.23 1860.84 1445.72 1915.05C1495.51 1949.88 1540.52 1982.82 1526.12 2052.13C1491.84 2217.58 1224.21 2359.09 1158.26 2503.36C1153.21 2514.42 1149.37 2525.49 1147.28 2536.52C1131.59 2617.59 1186.42 2707.99 1559.15 2714.55M1676.84 470.184C1547.8 568.345 1434.09 668.143 1330.82 764.515C1231.57 857.146 1160.95 929.944 1158.62 988.092C1154.59 1094.18 1381.23 1039.8 1493.56 1124.71C1502.71 1131.63 1510.4 1139.86 1517.41 1148.75C1581.44 1230.01 1509.43 1316.27 1440.55 1419.72C1389.32 1496.66 1329.67 1582.02 1313.64 1671.92C1288.51 1812.83 1378.22 1856.25 1458.09 1908.57C1509.61 1942.32 1554.27 1975.32 1537.27 2046.03C1496.78 2214.84 1212.14 2361.5 1144.5 2505.38C1139.28 2516.47 1135.4 2527.52 1133.32 2538.52C1117.95 2618.86 1178.9 2706.33 1578.22 2702.39M1696.92 463.351C1561.96 562.733 1443.23 662.888 1339.43 758.261C1238.96 850.578 1169.11 924.011 1166.85 981.901C1162.89 1088.43 1391.07 1033.44 1500.45 1118.97C1509.44 1126 1517.01 1134.32 1523.82 1143.38C1585.52 1225.58 1509.65 1313.78 1437.86 1418.5C1385.05 1495.54 1325.67 1580.71 1311.99 1670.43C1290.51 1811.3 1388.24 1851.63 1470.49 1902.06C1523.73 1934.72 1568.04 1967.79 1548.45 2039.9C1501.73 2212.07 1200.07 2363.88 1130.75 2507.37C1125.37 2518.49 1121.44 2529.53 1119.39 2540.49C1104.35 2620.1 1171.42 2704.63 1597.31 2690.21M1716.99 456.524C1576.1 557.126 1452.35 657.63 1348.03 752.008C1246.35 843.994 1177.27 918.078 1175.08 975.722C1171.2 1082.69 1400.88 1027.11 1507.34 1113.23C1516.17 1120.38 1523.62 1128.79 1530.22 1138.03C1589.6 1221.17 1509.87 1311.34 1435.16 1417.31C1380.76 1494.46 1321.65 1579.43 1310.33 1668.97C1292.51 1809.8 1398.25 1847.03 1482.87 1895.59C1537.84 1927.14 1581.8 1960.29 1559.6 2033.81C1506.67 2209.33 1187.99 2366.3 1116.99 2509.39C1111.46 2520.53 1107.47 2531.57 1105.45 2542.49C1090.74 2621.36 1163.93 2702.96 1616.4 2678.05M1737.06 449.691C1590.27 551.514 1461.48 652.361 1356.63 745.755C1253.73 837.411 1185.42 912.145 1183.31 969.537C1179.5 1076.95 1410.66 1020.79 1514.22 1107.49C1522.89 1114.75 1530.22 1123.25 1536.62 1132.67C1593.7 1216.73 1510.1 1308.9 1432.46 1416.1C1376.48 1493.39 1317.64 1578.13 1308.66 1667.49C1294.52 1808.27 1408.26 1842.4 1495.24 1889.09C1551.95 1919.54 1595.55 1952.78 1570.75 2027.7C1511.61 2206.56 1175.88 2368.69 1103.22 2511.39C1097.52 2522.57 1093.48 2533.59 1091.5 2544.48C1077.11 2622.62 1156.42 2701.28 1635.48 2665.89M1757.14 442.859C1604.42 545.896 1470.62 647.081 1365.25 739.496C1261.13 830.807 1193.59 906.195 1191.55 963.341C1187.81 1071.2 1420.45 1014.46 1521.12 1101.74C1529.62 1109.11 1536.84 1117.7 1543.04 1127.3C1597.83 1212.27 1510.36 1306.48 1429.79 1414.87C1372.21 1492.33 1313.66 1576.81 1307.03 1665.98C1296.57 1806.71 1418.31 1837.73 1507.65 1882.57C1566.09 1911.91 1609.35 1945.23 1581.94 2021.57C1516.58 2203.79 1163.82 2371.05 1089.49 2513.37C1083.64 2524.57 1079.53 2535.59 1077.58 2546.44C1063.51 2623.85 1148.94 2699.58 1654.57 2653.7M1777.21 436.032C1618.57 540.295 1479.74 641.802 1373.84 733.249C1268.5 824.209 1201.74 900.268 1199.77 957.167C1196.11 1065.47 1430.21 1008.16 1527.99 1096.01C1536.33 1103.5 1543.43 1112.17 1549.42 1121.96C1601.94 1207.84 1510.59 1304.11 1427.06 1413.68C1367.89 1491.31 1309.85 1575.43 1305.35 1664.52C1298.9 1805.05 1428.3 1833.1 1520 1876.1C1580.17 1904.32 1623.07 1937.75 1593.07 2015.48C1521.48 2201.05 1151.69 2373.45 1075.69 2515.4C1069.68 2526.62 1065.52 2537.64 1063.6 2548.44C1049.86 2625.12 1141.41 2697.92 1673.62 2641.54M1797.29 429.199C1632.73 534.677 1488.76 636.4 1382.44 726.99C1275.77 817.483 1209.9 894.33 1208 950.977C1204.41 1059.73 1439.67 1002.1 1534.87 1090.27C1543.01 1097.89 1550.04 1106.62 1555.82 1116.59C1606.09 1203.38 1510.83 1301.73 1424.36 1412.47C1363.58 1490.29 1305.74 1574.15 1303.68 1663.03C1300.75 1803.55 1438.48 1828.26 1532.37 1869.6C1594.39 1896.58 1636.82 1930.23 1604.22 2009.37C1526.42 2198.28 1139.38 2375.83 1061.93 2517.4C1055.75 2528.64 1051.55 2539.66 1049.66 2550.42C1036.25 2626.37 1133.92 2696.23 1692.72 2629.36M1817.36 422.366C1475.07 636.61 1219.86 832.44 1216.25 944.786C1212.42 1063.46 1492.64 984.165 1562.24 1111.22C1643.79 1260.1 1301.13 1445.75 1302.04 1661.54C1303.04 1894.8 1703.94 1800.66 1615.41 2003.25C1524.68 2210.86 1060.97 2407.28 1035.74 2552.39C1022.66 2627.61 1126.44 2694.54 1711.82 2617.18M1824.5 420.986C1686.57 508.6 1561.22 594.559 1458.66 674.04C1313.57 786.304 1222.4 882.081 1215.7 949.559C1207.88 1028.43 1316.62 1024.64 1414.75 1047.25C1467.93 1059.5 1519.63 1078.28 1546.5 1121.65C1625.94 1249.86 1376.29 1406.86 1321.58 1592.72C1315.16 1614.84 1310.93 1637.47 1310.23 1660.42C1306.77 1774.05 1390.01 1814.33 1475.69 1846.47C1524.38 1864.91 1573.91 1878.75 1599.43 1905.66C1621.96 1929.41 1627.4 1961.52 1603.92 2010.95C1558.54 2107.04 1433.6 2201.15 1313.37 2288.6C1174.38 2389.47 1040.01 2481.62 1032.77 2559.5C1025.87 2633.82 1134.64 2700.33 1716.68 2625.96M1831.64 419.601C1695.21 507.554 1569.49 595.261 1463.81 677.451C1318.25 790.299 1226.33 886.058 1215.16 954.332C1201.94 1035.11 1302.08 1033.86 1396.72 1058.23C1448.26 1071.5 1501.38 1089.85 1530.77 1132.07C1616.52 1255.26 1383.51 1406.66 1330.98 1590.74C1324.61 1613.07 1319.91 1636.01 1318.42 1659.3C1311.05 1773.93 1384 1817.97 1468.35 1852.25C1516.6 1871.85 1568.53 1884.47 1592.99 1912.27C1614.42 1936.62 1617.72 1969.12 1592.44 2018.66C1543.4 2114.77 1415.63 2209.29 1296.5 2296.89C1159.36 2397.28 1030.65 2488.77 1029.81 2566.6C1029.02 2640 1142.86 2706.11 1721.57 2634.73M1838.77 418.227C1703.85 506.513 1577.76 595.957 1468.94 680.868C1322.92 794.3 1230.17 890.139 1214.61 959.099C1195.92 1041.92 1287.56 1043.11 1378.68 1069.2C1428.58 1083.49 1483.09 1101.42 1515.04 1142.49C1606.97 1260.69 1391.15 1406.37 1340.37 1588.75C1334.1 1611.27 1328.9 1634.54 1326.6 1658.17C1315.36 1773.76 1377.88 1821.73 1460.99 1858.02C1508.75 1878.88 1563.14 1890.19 1586.55 1918.88C1606.88 1943.81 1608.1 1976.71 1580.96 2026.36C1528.42 2122.46 1397.8 2217.62 1279.63 2305.18C1144.5 2405.3 1021.23 2495.88 1026.85 2573.7C1032.09 2646.16 1151.07 2711.9 1726.43 2643.51M1845.91 416.847C1712.49 505.467 1586.16 596.812 1474.09 684.279C1327.75 798.493 1233.92 894.313 1214.06 963.872C1189.81 1048.86 1273.03 1052.37 1360.63 1080.18C1408.9 1095.5 1464.76 1113 1499.3 1152.92C1597.29 1266.16 1398.83 1406.07 1349.76 1586.78C1343.59 1609.49 1337.88 1633.06 1334.78 1657.06C1319.69 1773.58 1371.75 1825.52 1453.63 1863.81C1500.9 1885.91 1557.74 1895.91 1580.09 1925.51C1599.34 1951.01 1598.48 1984.3 1569.46 2034.08C1513.43 2130.18 1379.86 2225.83 1262.76 2313.48C1129.52 2413.19 1011.71 2503.01 1023.88 2580.82C1035.07 2652.34 1159.28 2717.69 1731.31 2652.29M1853.05 415.462C1721.14 504.421 1594.46 597.532 1479.23 687.686C1332.46 802.517 1237.55 898.571 1213.53 968.634C1183.6 1055.91 1258.5 1061.64 1342.6 1091.14C1389.25 1107.5 1446.42 1124.57 1483.57 1163.32C1587.49 1271.68 1406.54 1405.76 1359.15 1584.78C1353.09 1607.69 1346.89 1631.57 1342.97 1655.92C1324.06 1773.35 1365.64 1829.29 1446.29 1869.57C1493.06 1892.93 1552.39 1901.59 1573.67 1932.1C1591.84 1958.16 1588.91 1991.86 1557.99 2041.77C1498.49 2137.85 1361.97 2234.01 1245.91 2321.75C1114.58 2421.03 1002.16 2510.11 1020.94 2587.9C1038 2658.5 1167.51 2723.45 1736.21 2661.04M1860.19 414.083C1729.78 503.374 1602.76 598.264 1484.37 691.108C1337.15 806.558 1241.06 902.924 1212.98 973.412C1177.26 1063.07 1243.99 1070.96 1324.57 1102.12C1369.59 1119.53 1428.02 1136.18 1467.85 1173.75C1577.59 1277.28 1414.29 1405.45 1368.57 1582.81C1362.62 1605.91 1355.92 1630.09 1351.18 1654.8C1328.49 1773.12 1359.53 1833.09 1438.96 1875.35C1485.23 1899.97 1547.03 1907.28 1567.24 1938.72C1584.33 1965.34 1579.33 1999.44 1546.53 2049.48C1483.56 2145.54 1344.07 2242.2 1229.06 2330.04C1099.62 2428.89 992.513 2517.26 1018 2595.01C1040.83 2664.71 1175.74 2729.24 1741.09 2669.83M1867.32 412.698C1738.43 502.328 1611.06 598.985 1489.51 694.514C1341.85 810.568 1244.46 907.33 1212.44 978.179C1170.8 1070.32 1229.44 1080.29 1306.52 1113.09C1349.92 1131.57 1409.59 1147.8 1452.11 1184.17C1567.55 1282.92 1422.05 1405.14 1377.95 1580.82C1372.11 1604.11 1364.93 1628.6 1359.36 1653.68C1332.91 1772.87 1353.38 1836.9 1431.6 1881.13C1477.37 1907.01 1539.65 1914.42 1560.79 1945.33C1578.51 1971.27 1569.75 2007.01 1535.04 2057.18C1468.63 2153.2 1326.15 2250.39 1212.19 2338.32C1084.65 2436.74 982.784 2524.42 1015.03 2602.11C1043.6 2670.93 1183.95 2735.02 1745.97 2678.6M1874.46 411.318C1747.07 501.282 1619.36 599.7 1494.65 697.926C1346.54 814.588 1247.74 911.789 1211.9 982.941C1164.2 1077.63 1214.91 1089.63 1288.49 1124.06C1330.28 1143.6 1391.14 1159.42 1436.38 1194.58C1557.41 1288.62 1429.84 1404.81 1387.35 1578.83C1381.62 1602.32 1373.94 1627.1 1367.55 1652.55C1337.38 1772.58 1347.23 1840.71 1424.25 1886.9C1469.51 1914.05 1534.07 1920.21 1554.35 1951.94C1571.2 1978.3 1560.17 2014.58 1523.56 2064.89C1453.71 2160.88 1308.22 2258.57 1195.32 2346.61C1069.68 2444.59 972.99 2531.62 1012.06 2609.22C1046.29 2677.19 1192.16 2740.81 1750.84 2687.37M1881.6 409.938C1755.72 500.241 1627.66 600.421 1499.8 701.342C1351.23 818.609 1250.91 916.291 1211.36 987.719C1157.49 1085.01 1200.37 1099.02 1270.46 1135.04C1310.63 1155.67 1372.64 1171.08 1420.66 1205.01C1547.17 1294.41 1437.66 1404.5 1396.75 1576.86C1391.13 1600.53 1382.97 1625.6 1375.74 1651.43C1341.88 1772.29 1341.08 1844.54 1416.9 1892.69C1461.65 1921.11 1530.97 1924.29 1547.91 1958.56C1561.84 1986.77 1550.6 2022.15 1512.08 2072.61C1438.8 2168.56 1290.3 2266.75 1178.46 2354.91C1054.71 2452.45 970.235 2534.01 1009.11 2616.33C1042.81 2687.71 1200.37 2746.61 1755.71 2696.16M1888.74 408.553C1764.36 499.189 1635.94 601.138 1504.94 704.748C1355.93 822.608 1253.98 920.804 1210.82 992.481C1150.64 1092.4 1185.82 1108.43 1252.42 1146.01C1290.96 1167.74 1354.11 1182.75 1404.92 1215.42C1536.83 1300.25 1445.5 1404.17 1406.14 1574.87C1400.64 1598.74 1392.01 1624.1 1383.93 1650.3C1346.41 1771.97 1334.93 1848.36 1409.56 1898.46C1453.79 1928.15 1525.64 1929.92 1541.47 1965.17C1554.37 1993.89 1541.04 2029.72 1500.6 2080.3C1423.91 2176.22 1272.39 2274.91 1161.6 2363.18C1039.75 2460.26 953.27 2546.12 1006.16 2623.42C1051.58 2689.8 1208.6 2752.38 1760.61 2704.92M1895.87 407.179C1773 498.154 1644.23 601.854 1510.08 708.166C1360.6 826.624 1256.94 925.344 1210.26 997.26C1143.68 1099.83 1171.23 1117.89 1234.38 1156.99C1271.29 1179.83 1335.55 1194.46 1389.18 1225.85C1526.4 1306.17 1453.36 1403.84 1415.53 1572.89C1410.15 1596.94 1401.04 1622.59 1392.11 1649.18C1350.98 1771.65 1328.76 1852.2 1402.21 1904.24C1445.92 1935.22 1520.31 1935.57 1535.03 1971.78C1546.89 2001.02 1531.48 2037.29 1489.12 2088.01C1409.03 2183.9 1254.47 2283.08 1144.73 2371.47C1024.77 2468.1 943.323 2553.43 1003.19 2630.53C1054.15 2696.15 1216.8 2758.17 1765.47 2713.7M1903 405.794C1781.64 497.108 1652.51 602.561 1515.22 711.572C1365.28 830.62 1259.85 929.861 1209.73 1002.02C1136.62 1107.25 1156.65 1127.36 1216.35 1167.95C1251.62 1191.94 1316.96 1206.16 1373.46 1236.26C1515.9 1312.14 1461.26 1403.5 1424.94 1570.9C1419.68 1595.15 1410.09 1621.08 1400.3 1648.05C1355.57 1771.3 1322.6 1856.03 1394.85 1910.01C1438.05 1942.27 1515 1941.18 1528.58 1978.39C1539.43 2008.12 1521.92 2044.85 1477.63 2095.71C1394.14 2191.56 1236.54 2291.24 1127.86 2379.76C1009.78 2475.92 933.345 2560.76 1000.23 2637.63C1056.7 2702.52 1225.01 2763.95 1770.34 2722.47M1910.14 404.414C1790.29 496.062 1660.8 603.267 1520.36 714.994C1369.96 834.631 1262.68 934.399 1209.17 1006.8C1129.46 1114.66 1142.03 1136.88 1198.3 1178.93C1231.93 1204.07 1298.34 1217.92 1357.71 1246.7C1505.3 1318.21 1469.16 1403.16 1434.32 1568.94C1429.18 1593.37 1419.13 1619.59 1408.48 1646.94C1360.19 1770.97 1316.41 1859.9 1387.49 1915.8C1430.16 1949.35 1509.68 1946.82 1522.13 1985.01C1531.97 2015.24 1512.37 2052.44 1466.14 2103.43C1379.27 2199.25 1218.6 2299.41 1110.99 2388.05C994.805 2483.75 923.345 2568.14 997.258 2644.74C1059.22 2708.93 1233.22 2769.74 1775.22 2731.25M1917.28 403.029C1798.93 495.015 1669.08 603.973 1525.5 718.4C1374.64 838.626 1265.47 938.892 1208.63 1011.56C1122.23 1122.04 1127.4 1146.42 1180.27 1189.9C1212.25 1216.2 1279.7 1229.68 1341.99 1257.1C1494.67 1324.31 1477.1 1402.81 1443.71 1566.95C1438.7 1591.57 1428.19 1618.07 1416.67 1645.81C1364.85 1770.61 1310.23 1863.75 1380.14 1921.57C1422.28 1956.42 1504.4 1952.42 1515.68 1991.62C1524.53 2022.33 1502.83 2060 1454.66 2111.13C1364.42 2206.92 1200.67 2307.56 1094.12 2396.34C979.818 2491.57 913.314 2575.54 994.298 2651.84C1061.72 2715.36 1241.44 2775.52 1780.09 2740.03M1924.42 401.649C1807.58 493.969 1677.37 604.674 1530.64 721.812C1379.32 842.622 1268.22 943.378 1208.09 1016.33C1114.93 1129.38 1112.74 1156.01 1162.24 1200.88C1192.55 1228.36 1261.04 1241.48 1326.27 1267.52C1483.98 1330.49 1485.07 1402.45 1453.12 1564.96C1448.24 1589.77 1437.26 1616.56 1424.87 1644.68C1369.54 1770.25 1304.06 1867.61 1372.81 1927.34C1414.42 1963.48 1499.13 1958.02 1509.27 1998.22C1517.13 2029.41 1493.3 2067.56 1443.2 2118.82C1349.58 2214.59 1182.77 2315.71 1077.28 2404.62C964.856 2499.37 903.29 2582.95 991.365 2658.93C1064.23 2721.8 1249.68 2781.3 1784.99 2748.79M1931.56 400.27C1816.22 492.928 1685.65 605.381 1535.79 725.223C1383.99 846.612 1270.94 947.824 1207.55 1021.1C1107.57 1136.68 1098.06 1165.62 1144.2 1211.85C1172.84 1240.54 1242.35 1253.31 1310.53 1277.94C1473.22 1336.74 1493.06 1402.09 1462.52 1562.98C1457.78 1587.97 1446.33 1615.04 1433.06 1643.55C1374.26 1769.88 1297.86 1871.48 1365.47 1933.12C1406.53 1970.56 1493.87 1963.61 1502.82 2004.84C1509.7 2036.49 1483.76 2075.14 1431.71 2126.53C1334.74 2222.28 1164.83 2323.86 1060.41 2412.91C949.863 2507.17 893.221 2590.41 988.393 2666.04C1066.7 2728.26 1257.88 2787.08 1789.86 2757.56M1938.69 398.884C1824.86 491.877 1693.93 606.077 1540.93 728.635C1388.67 850.602 1273.63 952.25 1207.01 1025.87C1100.17 1143.93 1083.34 1175.28 1126.16 1222.82C1153.11 1252.74 1223.65 1265.16 1294.8 1288.36C1462.43 1343.03 1501.05 1401.72 1471.91 1560.99C1467.3 1586.18 1455.41 1613.52 1441.25 1642.43C1378.98 1769.52 1291.66 1875.35 1358.11 1938.9C1398.64 1977.65 1488.61 1969.2 1496.37 2011.46C1502.28 2043.58 1474.22 2082.73 1420.23 2134.24C1319.89 2229.97 1146.89 2332.01 1043.54 2421.19C934.869 2514.98 883.134 2597.89 985.441 2673.14C1069.18 2734.74 1266.1 2792.87 1794.74 2766.34M1945.83 397.505C1833.51 490.836 1702.21 606.774 1546.08 732.046C1393.34 854.593 1276.31 956.642 1206.47 1030.64C1092.74 1151.13 1068.6 1184.96 1108.13 1233.79C1133.36 1264.95 1204.93 1277.03 1279.08 1298.78C1451.6 1349.39 1509.08 1401.34 1481.31 1559.01C1476.84 1584.38 1464.49 1612.01 1449.44 1641.3C1383.75 1769.14 1285.45 1879.23 1350.77 1944.67C1390.75 1984.72 1483.37 1974.77 1489.94 2018.06C1494.89 2050.64 1464.7 2090.29 1408.76 2141.94C1305.07 2237.65 1128.96 2340.13 1026.69 2429.47C919.886 2522.76 873.058 2605.36 982.497 2680.23C1071.65 2741.24 1274.33 2798.65 1799.64 2775.1M1952.96 396.125C1842.14 489.79 1710.47 607.471 1551.21 735.458C1398 858.579 1278.98 960.998 1205.92 1035.4C1085.28 1158.27 1053.81 1194.68 1090.09 1244.76C1113.58 1277.19 1186.18 1288.93 1263.34 1309.2C1440.72 1355.8 1517.11 1400.97 1490.7 1557.03C1486.38 1582.59 1473.57 1610.5 1457.62 1640.18C1388.52 1768.79 1279.23 1883.12 1343.41 1950.45C1382.84 1991.82 1478.13 1980.36 1483.49 2024.68C1487.48 2057.72 1455.15 2097.89 1397.26 2149.66C1290.22 2245.36 1111.01 2348.28 1009.8 2437.78C904.865 2530.58 862.934 2612.9 979.512 2687.36C1074.08 2747.76 1282.52 2804.45 1804.48 2783.9M1960.1 394.745C1850.79 488.749 1718.75 608.162 1556.35 738.875C1402.67 862.57 1281.65 965.334 1205.37 1040.18C1077.79 1165.37 1048.95 1197.68 1072.04 1255.74C1087.23 1293.91 1167.43 1300.86 1247.6 1319.63C1429.82 1362.27 1525.17 1400.58 1500.08 1555.05C1495.91 1580.79 1482.65 1608.99 1465.8 1639.06C1393.31 1768.44 1273 1887.02 1336.06 1956.24C1374.94 1998.91 1472.9 1985.93 1477.04 2031.3C1480.1 2064.79 1445.62 2105.48 1385.77 2157.36C1275.38 2253.07 1093.05 2356.41 992.932 2446.06C889.858 2538.36 852.823 2620.41 976.549 2694.46C1076.53 2754.28 1290.73 2810.23 1809.36 2792.67M1967.24 393.366C1859.43 487.703 1727.03 608.854 1561.49 742.292C1407.33 866.561 1284.33 969.632 1204.84 1044.95C1070.31 1172.41 1034.03 1207.77 1054.02 1266.72C1067.36 1306.05 1148.67 1312.82 1231.88 1330.05C1418.91 1368.79 1533.26 1400.19 1509.5 1553.07C1505.47 1578.99 1491.76 1607.48 1474.01 1637.94C1398.14 1768.08 1266.8 1890.91 1328.73 1962.01C1367.05 2006.01 1467.72 1991.5 1470.62 2037.91C1472.74 2071.85 1436.11 2113.07 1374.32 2165.07C1260.58 2260.78 1075.13 2364.54 976.09 2454.35C874.875 2546.15 842.729 2627.96 973.614 2701.57C1078.99 2760.82 1298.97 2816.02 1814.26 2801.45M1974.38 391.981C1868.08 486.656 1735.29 609.541 1566.63 745.698C1412 870.537 1287.01 973.89 1204.29 1049.72C1062.82 1179.39 1018.96 1217.93 1035.98 1277.69C1047.51 1318.16 1129.89 1324.79 1216.15 1340.46C1407.98 1375.33 1541.35 1399.79 1518.89 1551.08C1515.01 1577.18 1500.86 1605.96 1482.19 1636.81C1402.96 1767.73 1260.56 1894.8 1321.37 1967.78C1359.13 2013.1 1462.52 1997.06 1464.17 2044.52C1465.37 2078.9 1426.57 2120.66 1362.83 2172.77C1245.74 2268.49 1057.16 2372.65 959.221 2462.63C859.853 2553.92 832.606 2635.52 970.647 2708.66C1081.43 2767.36 1307.18 2821.79 1819.13 2810.21M1981.52 390.601C1876.72 485.61 1743.56 610.227 1571.78 749.109C1416.66 874.518 1289.71 978.131 1203.75 1054.48C1055.34 1186.31 994.258 1233.86 1017.94 1288.65C1034.24 1326.34 1111.11 1336.77 1200.41 1350.88C1397.03 1381.93 1549.47 1399.38 1528.28 1549.1C1524.56 1575.37 1509.96 1604.45 1490.37 1635.68C1407.8 1767.38 1254.31 1898.69 1314.02 1973.55C1351.22 2020.19 1457.33 2002.6 1457.73 2051.12C1458.01 2085.95 1417.04 2128.24 1351.34 2180.47C1230.9 2276.2 1039.19 2380.77 942.352 2470.91C844.832 2561.7 822.477 2643.08 967.684 2715.76C1083.87 2773.91 1315.39 2827.58 1824.01 2818.98M1988.65 389.216C1885.37 484.564 1751.82 610.909 1576.92 752.516C1421.33 878.493 1292.4 982.337 1203.2 1059.25C1047.86 1193.2 979.262 1243.72 999.906 1299.62C1014.32 1338.67 1092.31 1348.79 1184.68 1361.3C1386.07 1388.57 1557.6 1398.97 1537.67 1547.12C1534.11 1573.57 1519.06 1602.95 1498.56 1634.56C1412.65 1767.05 1248.06 1902.6 1306.66 1979.33C1343.29 2027.29 1452.16 2008.16 1451.28 2057.74C1450.66 2093.01 1407.52 2135.84 1339.86 2188.17C1216.07 2283.92 1021.23 2388.87 925.485 2479.2C829.807 2569.47 812.346 2650.66 964.724 2722.87C1086.31 2780.48 1323.61 2833.36 1828.89 2827.76M1995.79 387.836C1894.01 483.523 1760.09 611.591 1582.07 755.932C1425.99 882.479 1295.12 986.525 1202.67 1064.02C1040.39 1200.05 964.243 1253.59 981.881 1310.59C994.39 1351.02 1073.52 1360.83 1168.97 1371.71C1375.12 1395.23 1565.77 1398.54 1547.09 1545.13C1543.69 1571.76 1528.18 1601.43 1506.77 1633.42C1417.54 1766.71 1241.84 1906.5 1299.33 1985.1C1335.39 2034.39 1447.02 2013.7 1444.86 2064.34C1443.33 2100.06 1398 2143.44 1328.39 2195.87C1201.25 2291.65 1003.26 2396.98 908.635 2487.48C814.789 2577.23 802.237 2658.24 961.777 2729.95C1088.76 2787.04 1331.83 2839.13 1833.77 2836.52M2002.93 386.456C1902.66 482.476 1768.36 612.272 1587.21 759.344C1430.66 886.455 1297.85 990.687 1202.12 1068.8C1032.93 1206.85 949.158 1263.49 963.837 1321.57C974.405 1363.38 1054.71 1372.89 1153.23 1382.14C1364.15 1401.94 1573.93 1398.12 1556.48 1543.15C1553.26 1569.96 1537.3 1599.94 1514.96 1632.31C1422.42 1766.4 1235.58 1910.42 1291.99 1990.88C1327.47 2041.5 1441.89 2019.25 1438.42 2070.96C1436.01 2107.11 1388.48 2151.04 1316.92 2203.58C1186.43 2299.39 985.294 2405.09 891.782 2495.77C799.761 2584.99 792.109 2665.84 958.83 2737.06C1091.21 2793.62 1340.05 2844.92 1838.66 2845.3M2010.07 385.071C1911.3 481.43 1776.61 612.95 1592.34 762.756C1435.3 890.431 1300.59 994.823 1201.57 1073.56C1025.48 1213.59 934.032 1273.37 945.799 1332.54C954.386 1375.75 1035.9 1384.96 1137.49 1392.55C1353.18 1408.68 1582.11 1397.68 1565.87 1541.16C1562.82 1568.14 1546.4 1598.44 1523.14 1631.18C1427.29 1766.09 1229.32 1914.33 1284.63 1996.66C1319.53 2048.6 1436.74 2024.81 1431.97 2077.57C1428.66 2114.17 1378.94 2158.65 1305.42 2211.29C1171.58 2307.13 967.291 2413.2 874.896 2504.06C784.701 2592.76 781.962 2673.46 955.848 2744.17C1093.63 2800.2 1348.24 2850.71 1843.51 2854.08M2017.2 383.697C1919.94 480.39 1784.87 613.632 1597.48 766.178C1439.96 894.413 1303.33 998.958 1201.02 1078.34C1018.04 1220.33 918.869 1283.29 927.758 1343.53C934.333 1388.14 1017.08 1397.07 1121.76 1402.99C1342.21 1415.46 1590.31 1397.25 1575.26 1539.19C1572.38 1566.34 1555.51 1596.95 1531.32 1630.07C1432.17 1765.81 1223.04 1918.25 1277.27 2002.45C1311.59 2055.72 1431.61 2030.36 1425.52 2084.19C1421.33 2121.23 1369.39 2166.27 1293.94 2219C1156.75 2314.88 949.288 2421.31 858.033 2512.35C769.652 2600.53 771.829 2681.07 952.89 2751.28C1096.08 2806.79 1356.46 2856.5 1848.39 2862.86M2024.34 382.312C1928.57 479.349 1792.93 614.093 1602.63 769.584C1444.46 898.212 1306.11 1003.05 1200.49 1083.1C1010.64 1227.01 903.681 1293.18 909.72 1354.49C914.252 1400.51 998.264 1409.17 1106.02 1413.4C1331.25 1422.24 1598.51 1396.79 1584.65 1537.21C1581.95 1564.53 1564.63 1595.44 1539.5 1628.94C1437.06 1765.52 1216.76 1922.17 1269.92 2008.22C1303.65 2062.83 1426.5 2035.91 1419.08 2090.8C1414.01 2128.28 1359.86 2173.88 1282.45 2226.71C1141.9 2322.63 931.283 2429.41 841.159 2520.65C754.579 2608.29 761.683 2688.7 949.922 2758.39C1098.5 2813.4 1364.67 2862.29 1853.27 2871.64M2031.47 380.932C1937.22 478.303 1801.21 614.795 1607.77 772.996C1449.14 902.208 1308.89 1007.13 1199.94 1087.88C1003.24 1233.67 888.455 1303.09 891.684 1365.47C894.142 1412.9 979.454 1421.29 1090.29 1423.83C1320.3 1429.06 1606.74 1396.34 1594.05 1535.23C1591.53 1562.72 1573.74 1593.96 1547.7 1627.82C1441.96 1765.25 1210.49 1926.09 1262.58 2014C1295.72 2069.94 1421.4 2041.46 1412.64 2097.42C1406.71 2135.34 1350.33 2181.49 1270.97 2234.41C1127.07 2330.38 913.273 2437.51 824.3 2528.93C739.522 2616.05 751.552 2696.33 946.975 2765.48C1100.96 2819.97 1372.9 2868.06 1858.15 2880.4M2038.61 379.553C1945.87 477.262 1809.48 615.492 1612.91 776.407C1453.82 906.203 1311.69 1011.19 1199.4 1092.64C995.861 1240.3 873.198 1312.98 873.656 1376.44C874.006 1425.28 960.644 1433.44 1074.57 1434.24C1309.36 1435.89 1614.99 1395.87 1603.46 1533.24C1601.13 1560.89 1582.88 1592.46 1555.9 1626.68C1446.87 1764.97 1205.09 1929.41 1255.24 2019.76C1287.25 2077.42 1416.32 2046.99 1406.21 2104.02C1399.41 2142.38 1340.81 2189.1 1259.5 2242.11C1112.24 2338.13 895.256 2445.59 807.449 2537.2C724.458 2623.79 741.433 2703.95 944.031 2772.57C1103.41 2826.57 1381.13 2873.84 1863.05 2889.17M2045.75 378.168C1954.51 476.21 1817.76 616.188 1618.06 779.818C1458.49 910.204 1314.5 1015.24 1198.87 1097.41C988.504 1246.88 857.917 1322.85 855.618 1387.4C853.825 1437.66 941.827 1445.59 1058.84 1444.65C1298.42 1442.74 1623.25 1395.4 1612.85 1531.25C1610.72 1559.08 1592 1590.97 1564.08 1625.56C1451.77 1764.73 1197.95 1933.93 1247.89 2025.55C1279.84 2084.16 1411.24 2052.54 1399.77 2110.63C1392.11 2149.44 1331.28 2196.72 1248.03 2249.82C1097.4 2345.89 877.234 2453.68 790.586 2545.49C709.374 2631.55 731.303 2711.59 941.073 2779.68C1105.86 2833.18 1389.35 2879.63 1867.93 2897.95M2052.89 376.788C1963.15 475.169 1826.04 616.89 1623.2 783.23C1463.17 914.2 1317.33 1019.27 1198.32 1102.18C981.154 1253.46 842.603 1332.72 837.582 1398.38C833.63 1450.03 923.018 1457.75 1043.1 1455.07C1287.49 1449.62 1631.52 1394.92 1622.24 1529.27C1620.31 1557.25 1601.12 1589.49 1572.27 1624.44C1456.67 1764.49 1191.38 1938.04 1240.53 2031.33C1271.72 2091.4 1406.16 2058.1 1393.32 2117.25C1384.8 2156.51 1321.77 2204.44 1236.54 2257.53C1082.61 2353.84 859.173 2461.78 773.714 2553.79C694.276 2639.31 721.161 2719.25 938.105 2786.8C1108.3 2839.79 1397.55 2885.42 1872.79 2906.73M2060.03 375.403C1971.8 474.118 1834.31 617.581 1628.34 786.642C1467.83 918.191 1320.15 1023.3 1197.77 1106.95C973.823 1260.02 827.275 1342.56 819.547 1409.35C813.41 1462.4 904.21 1469.93 1027.38 1465.49C1276.58 1456.51 1639.82 1394.42 1631.64 1527.28C1629.92 1555.42 1610.24 1588 1580.46 1623.31C1461.57 1764.25 1185.18 1941.89 1233.19 2037.09C1263.82 2098.46 1401.09 2063.64 1386.89 2123.85C1377.52 2163.55 1312.23 2212.01 1225.06 2265.22C1067.74 2361.53 841.126 2469.85 756.85 2562.06C679.178 2647.05 710.684 2727.31 935.147 2793.88C1110.47 2846.72 1405.76 2891.19 1877.67 2915.49M2067.16 374.023C1980.44 473.077 1842.59 618.283 1633.48 790.053C1472.51 922.186 1323 1027.31 1197.23 1111.72C966.504 1266.56 811.925 1352.39 801.503 1420.33C793.155 1474.77 885.385 1482.13 1011.64 1475.91C1265.66 1463.42 1648.41 1393.81 1641.03 1525.31C1639.57 1553.58 1619.41 1586.55 1588.64 1622.19C1466.67 1764.11 1178.96 1945.77 1225.84 2042.87C1255.92 2105.54 1396.03 2069.2 1380.44 2130.47C1370.22 2170.63 1302.66 2219.62 1213.58 2272.93C1052.87 2369.25 822.939 2477.89 739.984 2570.35C663.95 2654.76 700.721 2734.75 932.187 2800.99C1113.05 2853.17 1413.98 2896.98 1882.55 2924.27M2074.29 372.644C1989.08 472.036 1850.85 618.98 1638.62 793.47C1180.39 1170.18 803.684 1324.61 783.467 1431.3C751.729 1598.81 1659.4 1328.54 1650.43 1523.33C1643.92 1664.58 1161.22 1924.66 1218.48 2048.66C1248.02 2112.63 1390.97 2074.77 1373.99 2137.09C1342.98 2250.93 850.363 2434.68 723.107 2578.66C590.939 2728.19 827.021 2864.05 1887.41 2933.06" stroke="#F07C28" stroke-miterlimit="10"/>
</svg>
