<svg width="1440" height="1190" viewBox="0 0 1440 1190" fill="none" xmlns="http://www.w3.org/2000/svg">
<path d="M-1151 159.23C-1020.29 116.562 -872.94 102.671 -781.641 214.113C-713.464 297.324 -729.485 385.793 -657.561 416.742C-561.84 457.926 -460.732 332.529 -218.799 191.172C-20.5096 75.3133 78.6353 17.3759 162.552 27.7562C409 58.2319 283.177 585.143 507.501 690.798C755.104 807.418 1088.13 250.135 1341.17 339.254C1452.7 378.531 1568.86 550.499 1537.72 1189.27M-1142.86 142.148C-1015.45 104.202 -871.503 93.9822 -781.9 205.448C-714.901 289.349 -729.744 377.577 -658.04 408.374C-561.762 449.687 -460.198 322.766 -219.844 183.942C-204.561 175.149 -189.843 166.725 -175.651 158.677C-7.04828 62.3282 82.0359 17.8892 159.057 29.1993C258.516 43.8119 297.321 138.461 324.691 252.661C364.454 417.335 377.79 619.595 509.936 679.344C583.054 712.144 663.24 688.153 746.348 641.678C945.226 530.453 1155.96 285.878 1332.56 349.891C1344.05 354.083 1355.62 359.638 1367.11 366.908C1465.89 429.495 1557.81 621.487 1539.04 1170.74M-1134.73 125.059C-1010.61 91.826 -869.713 84.9966 -782.16 196.767C-716.063 281.141 -729.996 369.345 -658.519 399.989C-561.683 441.43 -459.672 312.979 -220.881 176.696C-205.605 168.047 -190.848 159.831 -176.641 151.928C-8.50133 58.3685 78.9416 17.5526 155.57 30.6262C253.498 47.3309 292.656 140.866 321.714 253.238C364.25 415.395 380.35 611.138 512.386 667.874C585.559 699.319 665.627 675.288 748.264 631.234C946.019 525.804 1149.35 294.984 1323.96 360.504C1335.37 364.784 1346.87 370.403 1358.34 377.641C1456.56 439.699 1549.99 626.136 1540.37 1152.17M-1126.59 107.969C-1005.76 79.4574 -868.11 76.1631 -782.419 188.094C-717.367 273.06 -730.247 361.121 -658.99 391.604C-561.597 433.174 -459.483 302.542 -221.909 169.45C-206.658 160.905 -191.853 152.921 -177.622 145.186C-10.1035 54.144 75.8315 17.2156 152.083 32.0527C248.463 50.8094 287.7 143.343 318.738 253.815C363.63 413.584 383.005 602.473 514.837 656.403C588.119 686.382 668.015 662.415 750.188 620.789C946.813 521.154 1142.69 304.274 1315.38 371.124C1326.7 375.509 1338.15 381.184 1349.59 388.382C1447.24 449.911 1542.19 630.793 1541.72 1133.62M-1118.45 90.8882C-1000.92 67.0896 -866.5 67.3541 -782.67 179.421C-718.663 264.989 -730.49 352.897 -659.462 383.228C-561.511 424.926 -459.044 292.555 -222.938 162.212C-207.702 153.803 -192.867 146.012 -178.604 138.445C-11.7135 49.9119 72.7058 16.8553 148.604 33.4879C243.413 54.2645 282.957 145.788 315.777 254.392C363.316 411.692 385.683 593.809 517.302 644.941C590.703 673.452 670.418 649.558 752.12 610.361C947.614 516.521 1136.04 313.596 1306.79 381.762C1318.04 386.25 1329.41 391.982 1340.84 399.148C1437.93 460.147 1534.4 635.474 1543.07 1115.09M-1110.31 73.7986C-996.07 54.7212 -864.906 58.5448 -782.929 170.748C-719.974 256.917 -730.742 344.673 -659.933 374.852C-561.424 416.678 -458.596 282.583 -223.967 154.974C-208.747 146.693 -193.872 139.102 -179.586 131.704C-13.3312 45.6715 69.5486 16.4704 145.117 34.9225C238.348 57.679 278.205 148.232 312.801 254.977C362.986 409.816 388.353 585.152 519.753 633.478C593.271 660.515 672.806 636.7 754.044 599.924C948.415 511.872 1129.38 322.91 1298.21 392.382C1309.37 396.975 1320.68 402.763 1332.08 409.889C1428.6 470.359 1526.6 640.131 1544.42 1096.54M-1102.17 56.7092C-991.233 42.345 -863.32 49.7435 -783.188 162.075C-721.286 248.861 -730.993 336.449 -660.412 366.467C-561.346 408.422 -458.156 272.612 -225.004 147.727C-209.791 139.583 -194.893 132.185 -180.575 124.963C-14.9726 41.4232 66.3759 16.0696 141.63 36.3493C233.259 61.0456 273.454 150.669 309.824 255.554C362.664 407.941 391.039 576.471 522.196 622.008C595.84 647.578 675.185 623.827 755.953 589.48C949.193 507.223 1122.7 332.233 1289.6 403.003C1300.68 407.7 1311.92 413.544 1323.31 420.63C1419.26 480.571 1518.77 644.788 1545.74 1077.98M-1094.04 39.6195C-986.387 29.9686 -861.733 40.9502 -783.448 153.394C-722.597 240.797 -731.244 328.216 -660.883 358.083C-561.259 400.165 -457.693 262.648 -226.033 140.481C-210.836 132.465 -195.906 125.267 -181.557 118.213C-16.6063 37.1507 63.187 15.6286 138.143 37.7759C228.169 64.372 268.718 153.114 306.848 256.131C362.35 406.065 393.725 567.781 524.646 610.537C598.423 634.624 677.573 610.962 757.877 579.036C949.986 502.574 1116.04 341.563 1281.01 413.624C1292.01 418.425 1303.19 424.325 1314.55 431.37C1409.94 490.783 1510.97 649.445 1547.09 1059.43M-1085.9 22.538C-981.549 17.6083 -860.162 32.1808 -783.707 144.729C-723.917 232.757 -731.496 319.992 -661.362 349.714C-561.181 391.925 -457.237 252.709 -227.069 133.251C-211.88 125.371 -196.927 118.365 -182.547 111.488C-18.2713 32.9022 59.975 15.1875 134.656 39.2186C223.065 67.6663 263.974 155.574 303.871 256.724C362.035 404.205 396.427 559.108 527.096 599.083C601.007 621.695 679.96 598.113 759.793 568.607C950.771 497.94 1109.37 350.917 1272.42 424.252C1283.33 429.158 1294.45 435.113 1305.8 442.127C1400.61 501.01 1503.17 654.118 1548.43 1040.89M-1077.76 5.44879C-976.703 5.23237 -858.592 23.412 -783.966 136.048C-725.236 224.702 -731.755 311.76 -661.833 341.322C-561.094 383.661 -456.766 242.753 -228.098 126.005C-212.925 118.254 -197.94 111.448 -183.529 104.739C-19.9285 28.6142 56.7549 14.6989 131.176 40.6457C217.96 70.9049 259.254 158.019 300.902 257.302C361.745 402.338 399.144 550.403 529.554 587.612C603.607 608.742 682.356 585.24 761.725 558.163C951.58 493.292 1102.71 360.263 1263.83 434.873C1274.66 439.883 1285.71 445.887 1297.04 452.869C1391.29 511.223 1495.37 658.776 1549.77 1022.34M-1069.63 -11.6404C-971.865 -7.13562 -857.029 14.6431 -784.225 127.376C-726.556 216.671 -732.006 303.536 -662.313 332.946C-561.016 375.413 -456.295 232.822 -229.135 118.767C-213.969 111.152 -198.961 104.539 -184.518 98.0062C-21.6013 24.326 53.5192 14.1941 127.682 42.0887C212.831 74.1114 254.519 160.48 297.918 257.887C361.446 400.478 401.854 541.707 531.997 576.15C606.191 595.789 684.735 572.383 763.633 547.726C952.357 488.651 1096.03 369.634 1255.23 445.502C1265.98 450.624 1276.97 456.676 1288.28 463.618C1381.96 521.443 1487.55 663.441 1551.11 1003.8M-1061.49 -28.7224C-967.02 -19.5043 -855.474 5.89744 -784.484 118.71C-727.891 208.646 -732.257 295.32 -662.784 324.577C-560.929 367.173 -455.808 222.914 -230.172 111.536C-215.014 104.058 -199.99 97.629 -185.508 91.2725C-23.2898 20.0371 50.2756 13.6647 124.194 43.5231C207.711 77.2612 249.798 162.933 294.949 258.472C361.171 398.618 404.587 532.993 534.447 564.687C608.79 582.835 687.123 559.517 765.557 537.29C953.151 484.009 1089.36 379.004 1246.64 456.123C1257.3 461.349 1268.23 467.457 1279.52 474.358C1372.64 531.655 1479.75 668.098 1552.45 985.238M-1053.36 -45.8112C-962.174 -31.8799 -853.927 -2.84711 -784.744 110.03C-729.226 200.623 -732.509 287.088 -663.263 316.193C-560.859 358.917 -455.321 212.991 -231.208 104.291C-216.066 96.9482 -201.011 90.712 -186.497 84.5239C-24.9862 15.7172 47.032 13.0881 120.7 44.9504C202.582 80.3638 245.078 165.386 291.965 259.05C360.889 396.751 407.312 524.265 536.89 553.217C611.39 569.866 689.502 546.653 767.466 526.846C953.936 479.353 1082.68 388.383 1238.04 466.744C1248.61 472.075 1259.48 478.239 1270.74 485.108C1363.29 541.875 1471.93 672.763 1553.77 966.691M-1045.22 -62.9009C-957.336 -44.2484 -852.387 -11.5845 -785.011 101.357C-730.569 192.599 -732.768 278.864 -663.742 307.809C-560.78 350.653 -454.826 203.084 -232.245 97.0441C-217.111 89.83 -202.04 83.7862 -187.487 77.7825C-26.6905 11.3885 43.7727 12.4866 117.213 46.377C197.469 83.4255 240.374 167.831 288.988 259.626C360.622 394.883 410.045 515.527 539.34 541.747C613.997 556.888 691.89 533.787 769.39 516.409C954.729 474.711 1076.01 397.777 1229.45 477.373C1239.94 482.815 1250.75 489.027 1261.99 495.857C1353.98 552.095 1464.13 677.436 1555.12 948.15M-1037.08 -79.9907C-952.49 -56.6249 -850.856 -20.3138 -785.27 92.6754C-731.92 184.583 -733.019 270.632 -664.221 299.424C-560.702 342.396 -454.331 193.184 -233.281 89.7977C-218.155 82.7199 -203.061 76.8684 -188.476 71.033C-28.4025 7.0437 40.5215 11.8371 113.718 47.8035C192.349 86.4392 235.662 170.283 286.004 260.203C360.355 393.023 412.786 506.774 541.783 530.276C616.605 543.911 694.27 520.914 771.299 505.964C955.507 470.062 1069.33 407.171 1220.84 487.993C1231.25 493.548 1241.99 499.808 1253.22 506.598C1344.63 562.307 1456.3 682.093 1556.45 929.594M-1028.95 -97.0717C-947.652 -68.9847 -849.332 -29.0265 -785.529 84.0107C-733.271 176.592 -733.271 262.416 -664.7 291.056C-560.623 334.156 -453.829 183.309 -234.318 82.5679C-219.2 75.6263 -204.089 69.9592 -189.466 64.3082C-30.1226 2.70759 37.27 11.1882 110.231 49.2547C187.244 89.4293 230.973 172.752 283.027 260.805C360.111 391.18 415.535 498.037 544.233 518.83C619.22 530.95 696.657 508.073 773.215 495.544C956.3 465.437 1062.65 416.598 1212.25 498.63C1222.58 504.289 1233.25 510.606 1244.46 517.355C1335.31 572.535 1448.51 686.767 1557.79 911.054M-1020.81 -114.161C-942.807 -81.3612 -847.824 -37.7399 -785.788 75.3375C-734.621 168.592 -733.522 254.192 -665.171 282.671C-560.537 325.9 -453.302 173.433 -235.347 75.3214C-220.237 68.5161 -205.11 63.0333 -190.448 57.5586C-31.8425 -1.66132 34.0342 10.4825 106.751 50.6732C182.163 92.3547 226.292 175.189 280.059 261.366C359.876 389.296 418.299 489.244 546.683 507.343C621.835 517.94 699.045 495.191 775.139 485.083C957.093 460.772 1055.97 425.992 1203.66 509.235C1213.9 515.006 1224.52 521.362 1235.69 528.088C1325.98 582.739 1440.69 691.415 1559.12 892.489M-1012.67 -131.251C-937.969 -93.7297 -846.316 -46.4451 -786.047 66.6562C-735.988 160.592 -733.781 245.951 -665.65 274.287C-560.458 317.643 -452.784 163.566 -236.384 68.075C-221.281 61.4139 -206.131 56.1076 -191.437 50.8092C-33.5782 -6.04609 30.7985 9.73681 103.257 52.0997C177.073 95.2482 221.604 177.633 277.074 261.943C359.64 387.428 421.056 480.458 549.126 495.88C624.45 504.946 701.424 482.326 777.048 474.647C957.871 456.131 1049.27 435.426 1195.05 519.863C1205.21 525.747 1215.76 532.151 1226.92 538.837C1316.64 592.958 1432.88 696.08 1560.45 873.948M-1004.54 -148.332C-933.123 -106.098 -844.824 -55.1338 -786.306 57.9916C-737.362 152.609 -734.032 237.736 -666.122 265.919C-560.372 309.404 -452.25 153.723 -237.413 60.8453C-222.318 54.3205 -207.152 49.1984 -192.419 44.0844C-35.3138 -10.4223 27.5784 8.99176 99.7773 53.543C172.008 98.1182 216.931 180.095 274.113 262.536C359.436 385.569 423.836 471.673 551.592 484.426C627.089 491.961 703.828 469.477 778.988 464.219C958.688 451.498 1042.6 444.877 1186.48 530.493C1196.55 536.488 1207.04 542.941 1218.19 549.586C1307.34 603.179 1425.09 700.746 1561.82 855.401M-996.392 -165.422C-928.277 -118.474 -843.332 -63.823 -786.558 49.3104C-738.729 144.625 -734.276 229.503 -666.593 257.526C-560.285 301.139 -451.716 143.871 -238.441 53.5908C-223.355 47.2023 -208.173 42.2566 -193.401 37.3269C-37.0574 -14.8472 24.3742 8.17384 96.2904 54.9614C166.958 100.931 212.266 182.523 271.137 263.105C359.224 383.685 426.6 462.856 554.042 472.948C629.712 478.935 706.223 456.596 780.904 453.766C959.473 446.833 1035.91 454.303 1177.88 541.105C1187.87 547.213 1198.3 553.714 1209.42 560.319C1298.01 613.383 1417.27 705.395 1563.15 836.836M-988.256 -182.511C-923.432 -130.842 -841.856 -72.5116 -786.817 40.6379C-740.119 136.65 -734.527 221.279 -667.064 249.15C-560.199 292.892 -451.166 134.045 -239.47 46.3611C-224.391 40.1169 -209.194 35.3475 -194.382 30.6022C-38.8087 -19.2473 21.1856 7.36478 92.8112 56.4128C161.931 103.745 207.608 184.984 268.168 263.707C359.035 381.826 429.381 454.055 556.5 461.502C632.343 465.942 708.618 443.755 782.836 443.346C960.274 442.208 1029.23 463.778 1169.31 551.75C1179.21 557.971 1189.58 564.519 1200.68 571.092C1288.7 623.627 1409.49 710.084 1564.5 818.32M-980.12 -199.593C-918.594 -143.21 -840.387 -81.1769 -787.076 31.9726C-741.509 128.682 -734.778 213.063 -667.543 240.781C-560.12 284.651 -450.624 124.233 -240.515 39.1306C-225.444 33.0226 -210.239 28.4296 -195.38 23.8687C-40.5757 -23.6724 17.997 6.51475 89.3163 57.8472C156.913 106.502 202.943 187.421 265.184 264.291C358.831 379.95 432.145 445.23 558.935 450.039C634.959 452.925 710.99 430.897 784.736 432.909C961.044 437.566 1022.51 473.244 1160.69 562.371C1170.51 568.703 1180.81 575.3 1191.89 581.833C1279.35 633.839 1401.66 714.741 1565.82 799.764M-971.983 -216.682C-913.748 -155.578 -838.934 -89.8574 -787.335 23.2921C-742.915 120.707 -735.03 204.831 -668.014 232.389C-560.034 276.388 -450.075 114.414 -241.544 31.8769C-226.472 25.9132 -211.26 21.4885 -196.361 17.12C-42.3428 -28.1286 14.8478 5.60943 85.8293 59.2745C151.91 109.236 198.294 189.85 262.207 264.861C358.643 378.05 434.941 441.559 561.385 438.561C637.574 436.757 713.378 418.017 786.661 422.465C961.845 432.918 1015.81 482.719 1152.1 572.992C1161.83 579.437 1172.07 586.082 1183.14 592.574C1270.02 644.051 1393.85 719.399 1567.17 781.208M-963.847 -233.771C-908.902 -167.955 -837.489 -98.5226 -787.594 14.6188C-744.321 112.747 -735.281 196.607 -668.493 224.013C-559.955 268.139 -449.517 104.627 -242.58 24.6384C-227.517 18.819 -212.289 14.5627 -197.351 10.3785C-44.1098 -32.5856 11.7142 4.69542 82.3424 60.701C146.939 111.937 193.653 192.279 259.231 265.438C358.47 376.151 437.816 432.677 563.836 427.09C640.142 423.708 715.765 405.151 788.577 412.021C962.63 428.269 1009.09 492.194 1143.51 583.613C1153.15 590.169 1163.34 596.855 1174.37 603.315C1260.69 654.271 1386.05 724.055 1568.5 762.659M-955.71 -250.861C-904.065 -180.331 -836.052 -107.188 -787.854 5.93762C-745.742 104.779 -735.532 188.375 -668.965 215.628C-559.869 259.883 -448.951 94.8397 -243.609 17.3921C-228.554 11.709 -213.31 7.62898 -198.333 3.62915C-45.8848 -37.0745 8.61974 3.73338 78.8552 62.1277C141.991 114.614 189.011 194.691 256.254 266.015C358.297 374.243 440.47 418.634 566.286 415.62C642.844 413.784 718.153 392.286 790.501 401.576C963.423 423.619 1002.38 501.676 1134.92 594.225C1144.47 600.902 1154.6 607.627 1165.62 614.048C1251.37 664.475 1378.24 728.704 1569.85 744.095M-947.574 -267.942C-899.219 -192.691 -834.63 -115.836 -788.113 -2.72699C-747.172 96.8359 -735.792 180.151 -669.444 207.252C-559.791 251.635 -448.386 85.0769 -244.646 10.1542C-229.59 4.61539 -214.346 0.703754 -199.322 -3.1037C-47.6676 -41.563 5.54119 2.77173 75.3683 63.5707C137.059 117.284 184.377 197.12 253.286 266.608C358.148 372.343 443.25 409.76 568.737 404.165C645.467 400.743 720.54 379.429 792.417 391.148C964.217 418.986 995.655 511.191 1126.32 604.862C1135.8 611.652 1145.86 618.425 1156.86 624.813C1242.05 674.711 1370.44 733.386 1571.19 725.562M-939.438 -285.032C-894.381 -205.067 -833.209 -124.494 -788.372 -11.4082C-748.609 88.8761 -736.043 171.919 -669.915 198.867C-559.704 243.378 -447.813 75.3136 -245.675 2.90784C-230.627 -2.47871 -215.367 -6.23813 -200.304 -9.85321C-49.4426 -46.0761 2.50168 1.76155 71.8811 64.9893C132.158 119.921 179.744 199.525 250.309 267.177C357.991 370.411 446.023 400.855 571.187 392.687C648.098 387.669 722.928 366.556 794.341 380.695C965.01 414.321 988.932 520.681 1117.73 615.475C1127.12 622.384 1137.12 629.198 1148.09 635.546C1232.72 684.915 1362.63 738.035 1572.52 707.006M-931.301 -302.121C-889.535 -217.435 -831.811 -133.142 -788.631 -20.0811C-750.062 80.9247 -736.294 163.695 -670.394 190.491C-559.626 235.131 -447.239 65.5746 -246.711 -4.33026C-231.664 -9.57252 -216.404 -13.1635 -201.294 -16.5862C-51.2254 -50.5887 -0.51416 0.743729 68.394 66.4323C127.273 122.558 175.11 201.946 247.332 267.77C357.842 368.496 448.787 391.958 573.637 381.233C650.721 374.612 725.315 353.707 796.258 370.267C965.795 409.688 982.194 530.212 1109.13 626.104C1118.43 633.126 1128.37 639.987 1139.33 646.295C1223.39 695.135 1354.81 742.7 1573.86 688.458M-923.165 -319.203C-884.697 -229.804 -830.413 -141.783 -788.898 -28.746C-751.53 72.9891 -736.553 155.478 -670.881 182.115C-559.555 226.882 -446.674 55.8435 -247.756 -11.5684C-232.716 -16.6664 -217.441 -20.0972 -202.291 -23.3275C-53.0239 -55.1338 -3.5064 -0.29834 64.8992 67.8591C122.412 125.171 170.484 204.334 244.348 268.348C357.692 366.556 451.544 383.036 576.08 369.762C653.336 361.53 727.695 340.833 798.174 359.823C966.588 405.039 975.455 539.727 1100.54 636.724C1109.75 643.866 1119.63 650.768 1130.57 657.036C1214.07 705.347 1347.01 747.357 1575.2 669.901M-915.028 -336.292C-879.852 -242.172 -829.038 -150.433 -789.157 -37.4273C-752.999 65.0373 -736.805 147.246 -671.352 173.73C-559.469 218.626 -446.085 46.1282 -248.785 -18.8149C-233.745 -23.7606 -218.47 -27.039 -203.273 -30.0769C-54.8145 -59.6949 -6.4437 -1.37273 61.4121 69.2856C117.582 127.768 165.858 206.731 241.371 268.916C357.551 364.6 454.308 374.09 578.53 358.291C655.959 348.44 730.082 327.968 800.09 349.378C967.374 400.39 968.701 549.249 1091.94 647.345C1101.06 654.599 1110.89 661.549 1121.81 667.785C1204.74 715.567 1339.2 752.03 1576.54 651.361M-906.892 -353.382C-875.014 -254.548 -827.664 -159.081 -789.416 -46.1002C-754.475 57.1019 -737.056 139.022 -671.831 165.354C-559.39 210.378 -445.496 36.4294 -249.821 -26.0529C-234.789 -30.8543 -219.498 -33.9805 -204.262 -36.81C-56.6051 -64.2557 -9.35732 -2.44672 57.9252 70.7285C112.775 130.373 161.24 209.127 238.395 269.51C357.41 362.652 457.065 365.161 580.973 346.837C658.567 335.358 732.462 315.111 802.006 338.95C968.159 395.757 961.947 558.796 1083.35 657.974C1092.38 665.348 1102.15 672.33 1113.04 678.534C1195.4 725.787 1331.38 756.695 1577.87 632.813M-898.756 -370.471C-870.168 -266.924 -826.305 -167.722 -789.676 -54.7811C-755.968 49.1504 -737.307 130.79 -672.302 156.961C-559.304 202.106 -444.907 26.7305 -250.858 -33.299C-235.826 -37.9481 -220.535 -40.9219 -205.252 -43.5591C-58.3958 -68.8486 -12.2319 -3.55272 54.4302 72.1475C107.984 132.954 156.614 211.5 235.41 270.079C357.268 360.672 459.806 356.199 583.415 335.359C661.174 322.245 734.842 302.238 803.915 328.505C968.944 391.108 955.169 568.335 1074.74 668.595C1083.68 676.09 1093.39 683.111 1104.27 689.276C1186.06 735.999 1323.57 761.353 1579.2 614.257M-890.619 -387.552C-865.33 -279.284 -824.954 -176.355 -789.935 -63.446C-757.468 41.2229 -737.559 122.574 -672.781 148.593C-559.225 193.866 -444.318 17.0636 -251.895 -40.5291C-236.863 -45.0259 -221.564 -47.8554 -206.241 -50.2842C-60.1864 -73.4415 -15.0749 -4.64295 50.9431 73.5982C103.225 135.559 151.997 213.889 232.442 270.68C357.15 358.716 462.555 347.254 585.873 323.912C663.79 309.163 737.237 289.397 805.847 318.085C969.746 386.483 948.415 577.905 1066.16 679.24C1075.01 686.855 1084.66 693.916 1095.52 700.04C1176.75 746.235 1315.77 766.034 1580.55 595.732M-882.483 -404.642C-860.484 -291.661 -823.611 -184.996 -790.194 -72.1189C-758.983 33.2874 -737.818 114.342 -673.253 140.217C-559.139 185.618 -443.713 7.40478 -252.924 -47.7672C-237.899 -52.1117 -222.593 -54.797 -207.223 -57.0253C-61.9691 -78.0585 -17.8706 -5.77301 47.4563 75.0251C98.4895 138.141 147.379 216.254 229.465 271.257C357.017 356.721 465.296 338.276 588.324 312.442C666.397 296.042 739.625 276.524 807.763 307.641C970.531 381.826 941.629 587.46 1057.57 689.853C1066.32 697.588 1075.93 704.69 1086.77 710.782C1167.42 756.447 1307.97 770.691 1581.89 577.176M-874.338 -421.731C-855.631 -304.029 -822.276 -193.637 -790.445 -80.8C-760.499 25.3437 -738.061 106.11 -673.724 131.824C-559.052 177.353 -443.116 -2.2463 -253.952 -55.0216C-238.928 -59.2138 -223.614 -61.7628 -208.205 -63.7748C-63.7519 -82.6998 -20.6352 -6.91146 43.9771 76.4517C93.7851 140.722 142.768 218.61 226.497 271.834C356.899 354.716 468.037 329.291 590.782 300.971C669.004 282.92 742.02 263.658 809.695 297.196C971.332 377.176 934.86 597.015 1048.98 700.473C1057.64 708.329 1067.19 715.471 1078.01 721.522C1158.1 766.659 1300.17 775.348 1583.24 558.62M-866.202 -438.813C-850.793 -316.397 -820.965 -202.27 -790.704 -89.4651C-762.039 17.4161 -738.313 97.8937 -674.195 123.456C-558.966 169.113 -442.511 -11.8652 -254.981 -62.2518C-239.957 -66.2837 -224.643 -68.6964 -209.187 -70.508C-65.5348 -87.3409 -23.3605 -8.04977 40.4978 77.8945C89.1121 143.319 138.158 220.983 223.528 272.419C356.773 352.712 470.762 320.305 593.232 289.509C671.604 269.798 744.408 250.801 811.612 286.759C972.125 372.535 928.058 606.585 1040.39 711.102C1048.97 719.078 1058.45 726.26 1069.25 732.271C1148.78 776.879 1292.36 780.013 1584.58 540.079M-858.066 -455.902C-845.947 -328.773 -819.653 -210.919 -790.964 -98.146C-763.586 9.48067 -738.564 89.6616 -674.674 115.071C-558.887 160.857 -441.915 -21.4839 -256.018 -69.4979C-241.002 -73.3775 -225.671 -75.6539 -210.176 -77.2571C-67.3176 -92.014 -26.0544 -9.20391 37.0028 79.3134C84.439 145.9 133.54 223.315 220.543 272.988C356.64 350.684 473.471 311.296 595.674 278.03C674.188 256.653 746.787 237.92 813.52 276.307C972.903 367.878 921.249 616.148 1031.78 721.707C1040.26 729.803 1049.7 737.025 1060.48 742.996C1139.44 787.075 1284.54 784.654 1585.91 521.507M-849.929 -472.992C-841.109 -341.141 -818.357 -219.559 -791.223 -106.819C-765.141 1.54533 -738.815 81.4377 -675.145 106.695C-558.801 152.609 -441.31 -31.0785 -257.047 -76.7358C-242.031 -80.4551 -226.7 -82.6034 -211.158 -83.9901C-69.0925 -96.687 -28.7089 -10.3419 33.5237 80.7564C79.7976 148.505 128.93 225.672 217.575 273.582C356.514 348.665 476.189 302.31 598.133 266.576C676.78 243.531 749.183 225.071 815.452 265.879C973.704 363.245 914.448 625.735 1023.2 732.344C1031.59 740.568 1040.97 747.814 1051.72 753.762C1130.12 797.311 1276.74 789.336 1587.25 502.975M-841.793 -490.081C-836.264 -353.518 -817.069 -228.209 -791.482 -115.492C-766.712 -6.39051 -739.067 73.2134 -675.625 98.3105C-558.722 144.353 -440.713 -40.6736 -258.084 -83.9824C-243.067 -87.5413 -227.729 -89.5613 -212.147 -90.7396C-70.8675 -101.392 -31.332 -11.5044 30.0288 82.1749C75.1718 151.094 124.297 227.996 214.59 274.151C356.373 346.62 478.882 293.284 600.575 255.097C679.355 230.377 751.57 212.197 817.36 255.426C974.489 358.588 907.615 635.306 1014.6 742.956C1022.89 751.301 1032.22 758.587 1042.96 764.495C1120.79 807.515 1268.92 793.984 1588.58 484.418M-833.656 -507.163C-831.426 -365.878 -815.797 -236.85 -791.741 -124.165C-768.298 -14.334 -739.318 64.9892 -676.096 89.934C-558.636 136.104 -440.108 -50.2363 -259.112 -91.2205C-244.096 -94.6192 -228.75 -96.5189 -213.129 -97.4728C-72.6266 -106.09 -33.9158 -12.6508 26.5497 83.6177C70.5774 153.715 119.687 230.345 211.63 274.744C356.255 344.584 481.592 284.282 603.041 243.643C681.947 217.239 753.973 199.34 819.3 244.998C975.298 353.955 900.806 644.9 1006.02 753.585C1014.22 762.05 1023.5 769.376 1034.22 775.244C1111.47 817.735 1261.14 798.649 1589.94 465.87M-825.52 -524.252C-826.58 -378.254 -814.533 -245.498 -792 -132.838C-769.892 -22.2695 -739.569 56.7653 -676.575 81.5578C-558.557 127.856 -439.511 -59.7829 -260.149 -98.4586C-245.141 -101.697 -229.779 -103.476 -214.119 -104.214C-74.3937 -110.819 -36.4761 -13.8049 23.0626 85.0526C65.9908 156.336 115.061 232.678 208.653 275.329C356.114 342.533 484.27 275.265 605.484 232.181C684.508 204.094 756.353 186.483 821.209 234.569C976.076 349.314 893.95 654.503 997.422 764.222C1005.52 772.815 1014.75 780.173 1025.45 786.001C1102.14 827.963 1253.33 803.323 1591.28 447.33M-817.383 -541.341C-821.742 -390.63 -813.276 -254.155 -792.26 -141.519C-771.502 -30.2209 -739.828 48.5252 -677.054 73.1655C-558.479 119.592 -438.922 -69.3295 -261.186 -105.713C-246.177 -108.783 -230.816 -110.45 -215.108 -110.971C-76.153 -115.572 -39.005 -14.9751 19.5677 86.4634C61.42 158.949 110.427 234.978 205.669 275.882C355.972 340.441 486.94 266.207 607.926 220.686C687.068 190.916 758.733 173.586 823.125 224.101C976.869 344.641 887.101 664.066 988.822 774.819C996.825 783.532 1006.01 790.93 1016.68 796.726C1092.8 838.159 1245.51 807.964 1592.61 428.766M-809.247 -558.423C-816.897 -402.991 -812.027 -262.804 -792.519 -150.184C-773.12 -38.1564 -740.08 40.3091 -677.525 64.7971C-558.393 111.352 -438.325 -78.8441 -262.222 -112.935C-247.214 -115.845 -231.844 -117.392 -216.098 -117.688C-77.9042 -120.301 -41.4945 -16.0973 16.0808 87.9223C56.8728 161.619 105.872 237.134 202.692 276.491C355.941 338.1 489.603 257.206 610.377 209.256C689.628 177.794 761.12 160.761 825.042 213.697C977.654 340.032 880.237 673.693 980.222 785.48C988.123 794.313 997.265 801.752 1007.91 807.507C1083.47 848.411 1237.7 812.661 1593.94 410.249M-801.111 -575.513C-812.059 -415.367 -810.998 -271.429 -792.786 -158.857C-774.966 -46.0682 -740.339 32.0847 -678.012 56.4203C-558.322 103.104 -437.689 -88.0543 -263.267 -120.173C-248.259 -122.883 -232.881 -124.357 -217.095 -124.43C-79.6556 -125.071 -43.9765 -17.2358 12.5779 89.3568C52.3254 164.271 101.191 239.547 199.7 277.076C355.713 336.176 492.171 247.979 612.811 197.793C692.118 164.512 763.492 147.903 826.95 203.26C978.432 335.39 873.208 683.432 971.623 796.1C979.413 805.07 988.516 812.532 999.15 818.248C1074.14 858.623 1229.88 817.318 1595.28 391.693M-792.974 -592.602C-821.562 -261.578 -802.21 -0.130131 -678.483 48.0281C-547.798 98.9037 -416.123 -133.102 -218.077 -131.187C13.9838 -128.942 -47.1179 190.739 196.731 277.638C460.324 371.565 670.45 47.475 828.874 192.799C991.225 341.731 846.804 752.11 990.393 828.973C1064.82 868.819 1222.08 821.967 1596.62 373.129M-788.898 -598.253C-798.974 -464.343 -800.993 -340.075 -792.33 -234.693C-780.283 -85.6734 -744.281 18.2018 -673.535 50.3528C-590.844 87.9303 -509.354 8.84762 -406.479 -51.9594C-350.733 -84.9119 -288.799 -114.161 -218.744 -115.732C-11.6349 -120.365 -31.654 121.364 134.601 235.78C154.463 249.334 176.618 261.534 201.922 271.345C327.228 319.913 438.255 276.892 542.042 228.83C601.219 201.593 655.881 171.887 706.325 164.6C750.856 158.172 791.326 167.318 828.497 204.118C900.963 275.466 908.448 402.747 912.155 523.968C916.183 664.01 914.024 797.223 996.055 833.975C1074.35 869.051 1235.07 818.464 1610.34 373.217M-784.83 -603.904C-793.335 -470.932 -793.681 -345.687 -784.429 -236.978C-772.091 -87.389 -736.695 17.0073 -668.588 52.6771C-588.001 94.8797 -510.422 22.9549 -408.332 -34.6458C-352.736 -66.0192 -290.158 -96.4548 -219.404 -100.286C-12.9779 -111.46 -26.18 116.137 139.784 228.277C159.921 241.879 182.06 254.536 207.122 265.053C330.456 316.81 437.619 282.655 542.757 236.413C602.908 209.953 658.08 178.042 708.697 171.878C753.023 166.476 792.244 177.305 828.128 215.436C897.735 289.396 903.453 418.866 908.196 539.358C913.136 677.885 914.699 806.793 1001.73 838.968C1083.8 869.308 1248.07 814.953 1624.08 373.297M-780.754 -609.547C-787.697 -477.513 -786.369 -351.306 -776.529 -239.254C-763.9 -89.0963 -729.069 15.9252 -663.648 55.0017C-585.079 101.934 -511.467 37.0626 -410.201 -17.3319C-354.739 -47.1182 -291.548 -78.7241 -220.08 -84.8401C-14.3995 -102.443 -20.486 110.566 144.952 220.774C165.379 234.385 187.487 247.531 212.305 258.76C333.668 313.668 437.03 288.547 543.463 244.004C604.628 218.402 660.271 184.207 711.061 179.157C755.183 174.772 793.21 187.245 827.743 226.746C894.578 303.2 898.772 434.953 904.222 554.748C910.45 691.736 915.28 816.396 1007.39 843.962C1093.16 869.62 1261.06 811.442 1637.8 373.385M-776.678 -615.198C-782.058 -484.101 -778.783 -356.949 -768.628 -241.539C-755.363 -90.8437 -721.411 14.9474 -658.7 57.3264C-582.079 109.1 -512.488 51.1783 -412.063 -0.0098877C-356.726 -28.2171 -292.954 -60.9532 -220.747 -69.3857C-15.868 -93.3205 -14.7685 104.972 150.127 213.28C170.853 226.89 192.914 240.525 217.496 252.476C336.872 310.51 436.465 294.455 544.178 251.603C606.356 226.858 662.462 190.379 713.433 186.451C757.343 183.068 794.176 197.184 827.374 238.08C891.452 317.019 893.879 451.081 900.264 570.154C907.521 705.619 915.806 826.079 1013.07 848.964C1102.46 870.005 1274.06 807.94 1651.55 373.473M-772.61 -620.849C-776.419 -490.691 -771.424 -362.576 -760.735 -243.823C-747.117 -92.5673 -713.746 14.0815 -653.76 59.6427C-579.04 116.394 -513.493 65.3017 -413.932 17.2958C-358.705 -9.33235 -294.383 -43.1746 -221.422 -53.9477C-17.3759 -84.0947 -9.0354 99.3444 155.295 205.769C176.319 219.387 198.333 233.495 222.68 246.168C340.069 307.295 435.891 300.346 544.885 259.169C608.083 235.29 664.638 196.503 715.797 193.705C759.487 191.316 795.142 207.075 826.997 249.374C888.311 330.789 888.978 467.16 896.298 585.52C904.576 719.454 916.27 835.77 1018.73 853.933C1111.72 870.414 1287.05 804.404 1665.27 373.529M-768.534 -626.5C-770.78 -497.279 -764.057 -368.195 -752.826 -246.1C-738.862 -94.2744 -706.073 13.3442 -648.804 61.9674C-575.961 123.816 -514.451 79.4335 -415.785 34.6098C-360.66 9.56878 -295.813 -25.3475 -222.074 -38.5093C-18.8839 -74.7642 -3.26274 93.6935 160.494 198.25C181.825 211.869 203.792 226.457 227.895 239.86C343.304 304.049 435.35 306.246 545.615 266.744C609.843 243.731 666.829 202.627 718.184 200.975C761.654 199.581 796.132 216.983 826.644 260.676C885.201 344.552 884.093 483.248 892.347 600.902C901.638 733.314 916.717 845.549 1024.42 858.919C1120.95 870.911 1300.06 800.886 1679.02 373.609M-764.465 -632.151C-765.141 -503.868 -756.698 -373.822 -744.933 -248.384C-730.64 -95.9977 -698.432 12.7111 -643.864 64.2921C-572.898 131.367 -515.409 93.5894 -417.655 51.9319C-362.608 28.478 -297.266 -7.48846 -222.75 -23.0549C-20.4468 -65.3136 2.50172 88.0346 165.662 190.756C187.291 204.374 209.211 219.428 233.078 233.575C346.501 300.795 434.792 312.177 546.322 274.335C611.571 252.196 669.044 210.787 720.548 208.254C763.743 206.138 797.106 226.89 826.259 271.995C882.059 358.316 879.177 499.352 888.374 616.292C898.67 747.173 917.11 855.393 1030.08 863.913C1130.14 871.464 1313.05 797.375 1692.75 373.69M-760.389 -637.802C-759.502 -510.457 -749.347 -379.449 -737.032 -250.669C-722.409 -97.7133 -690.821 12.1818 -638.924 66.6083C-569.859 139.038 -516.344 107.745 -419.524 69.2375C-364.548 47.3707 -298.726 10.3863 -223.425 -7.61694C-22.0175 -55.7672 8.28194 82.3432 170.83 183.245C192.765 196.863 214.63 212.39 238.261 227.275C349.705 297.484 434.234 318.101 547.029 281.918C613.306 260.66 671.164 217.119 722.912 215.532C765.903 214.209 798.072 236.789 825.882 283.312C878.941 372.07 874.253 515.455 884.407 631.69C895.701 761.04 917.503 865.3 1035.74 868.915C1139.32 872.081 1326.04 793.872 1706.47 373.778M-756.313 -643.453C-753.855 -517.046 -741.988 -385.076 -729.124 -252.953C-714.178 -99.4285 -683.25 11.7491 -633.969 68.933C-566.843 146.822 -517.231 121.925 -421.369 86.5515C-366.449 66.2798 -300.171 28.3096 -224.077 7.82947C-23.5724 -46.1241 14.0938 76.6361 176.021 175.742C198.263 189.353 220.072 205.344 243.469 220.983C352.933 294.158 433.7 324.04 547.751 289.509C615.058 269.125 673.316 220.983 725.292 222.81C768.063 224.317 799.062 246.689 825.521 294.631C875.839 385.817 869.344 531.551 880.457 647.081C892.748 774.899 918.021 868.234 1041.43 873.909C1148.42 878.83 1339.06 790.369 1720.22 373.866M-752.245 -649.105C-748.224 -523.635 -734.645 -390.695 -721.231 -255.238C-705.971 -101.152 -675.742 11.3883 -629.029 71.2495C-563.906 154.701 -518.111 136.12 -423.239 103.865C-368.357 85.2047 -301.64 46.2564 -224.753 23.2755C-25.1512 -36.3773 19.9054 70.9128 181.189 168.239C203.737 181.842 225.499 198.29 248.652 214.682C356.145 290.799 433.15 329.98 548.458 297.083C616.801 277.589 675.46 227.067 727.656 230.08C770.191 232.533 800.043 256.572 825.136 305.933C872.721 399.54 864.412 547.638 876.483 662.455C889.756 788.734 918.28 885.243 1047.09 878.886C1157.7 873.428 1352.05 786.842 1733.95 373.93M-748.169 -654.747C-742.577 -530.216 -727.302 -396.313 -713.33 -257.514C-697.756 -102.859 -668.289 11.1161 -624.081 73.5824C-561.032 162.677 -518.959 150.357 -425.1 121.188C-370.25 104.138 -303.093 64.244 -225.42 38.7301C-26.7062 -26.5336 25.7328 65.1739 186.364 160.737C209.218 174.332 230.926 191.237 253.843 208.39C359.381 287.409 432.616 335.936 549.173 304.675C618.552 286.07 677.62 233.159 730.027 237.359C772.327 240.758 801.033 266.464 824.766 317.251C869.635 413.271 859.48 563.734 872.517 677.853C886.771 802.601 918.673 895.303 1052.75 883.889C1166.88 874.174 1365.04 783.34 1747.68 374.026M-744.101 -660.399C-736.938 -536.805 -719.974 -401.933 -705.437 -259.798C-689.565 -104.575 -660.907 10.8753 -619.141 75.8986C-558.243 170.724 -519.792 164.6 -426.969 138.493C-372.127 123.071 -304.562 82.247 -226.088 54.168C-28.2534 -16.6265 31.576 59.4023 191.54 153.226C214.708 166.813 236.361 184.167 259.026 202.09C362.617 283.994 432.075 341.883 549.872 312.257C620.288 294.543 679.756 239.226 732.384 244.637C774.44 248.957 802.014 276.347 824.382 328.569C866.532 426.994 854.532 579.829 868.543 693.243C883.763 816.46 919.066 905.394 1058.41 888.882C1176.07 874.943 1378.03 779.828 1761.4 374.106M-740.025 -666.05C-731.299 -543.393 -712.639 -407.56 -697.528 -262.075C-681.358 -106.282 -653.564 10.6991 -614.193 78.2313C-555.542 178.836 -520.593 178.892 -428.83 155.823C-373.988 142.036 -306.007 100.299 -226.755 69.6305C-29.7769 -6.60674 37.4349 53.6311 196.723 145.739C220.198 159.318 241.811 177.121 264.226 195.814C365.884 280.571 431.548 347.871 550.594 319.856C622.047 303.039 681.908 245.302 734.763 251.923C776.576 257.166 803.028 286.239 824.013 339.896C863.462 440.717 849.592 595.933 864.585 708.641C880.771 830.319 919.49 915.518 1064.08 893.884C1185.27 875.744 1391.02 776.326 1775.13 374.195M-735.957 -671.701C-725.66 -549.983 -705.311 -413.179 -689.635 -264.359C-673.166 -107.997 -646.299 10.5306 -609.253 80.5477C-552.934 186.988 -521.378 193.192 -430.7 173.129C-375.842 160.993 -307.452 118.358 -227.431 85.0685C-31.2927 3.45272 43.2937 47.8276 201.891 138.229C225.68 151.791 247.238 170.043 269.409 189.513C369.151 277.1 431.014 353.843 551.301 327.439C623.799 311.528 684.052 251.346 737.127 259.201C778.697 265.349 804.025 296.114 823.636 351.205C860.391 454.423 844.636 612.028 860.619 724.031C877.755 844.178 919.914 925.674 1069.75 898.877C1194.49 876.57 1404.02 772.815 1788.87 374.283M-731.88 -677.352C-720.021 -556.571 -697.984 -418.806 -681.735 -266.644C-664.975 -109.713 -639.081 10.3946 -604.305 82.8724C-550.413 195.172 -522.14 207.532 -432.553 190.443C-377.672 179.974 -308.873 136.457 -228.09 100.507C-32.7613 13.5848 49.1762 42.0004 207.074 130.718C231.177 144.265 252.697 162.957 274.608 183.205C372.442 273.606 430.488 359.806 552.016 335.006C625.55 320 686.204 257.374 739.499 266.456C780.833 273.502 805.03 305.973 823.266 362.5C857.336 468.114 839.688 628.1 856.66 739.397C874.747 858.014 920.362 935.83 1075.43 903.848C1203.73 877.388 1417.03 769.28 1802.6 374.339M-727.804 -683.003C-714.375 -563.16 -690.656 -424.424 -673.834 -268.928C-656.791 -111.428 -631.927 10.2584 -599.357 85.189C-547.994 203.38 -522.886 221.905 -434.414 207.757C-379.501 198.972 -310.287 154.581 -228.758 115.953C-34.2064 23.7888 55.0663 36.157 212.25 123.207C236.675 136.73 258.139 155.871 279.799 176.905C375.748 270.095 429.962 365.794 552.731 342.589C627.309 328.497 688.356 263.394 741.871 273.734C782.961 281.67 806.043 315.848 822.897 373.818C854.289 481.821 834.725 644.195 852.694 754.796C871.716 871.873 920.817 946.034 1081.09 908.849C1212.96 878.253 1430.02 765.777 1816.33 374.427M-723.736 -688.654C-708.743 -569.749 -683.345 -430.044 -665.933 -271.213C-648.608 -113.143 -624.811 10.1298 -594.41 87.5133C-545.662 211.596 -523.616 236.317 -436.276 225.071C-381.316 217.993 -311.685 172.728 -229.425 131.399C-35.628 34.0407 60.9568 30.3054 217.426 115.705C242.165 129.211 263.589 148.785 284.991 170.612C379.07 266.576 429.436 371.79 553.445 350.18C629.068 337.002 690.508 269.413 744.243 281.02C785.09 289.837 807.064 325.732 822.52 385.136C851.241 495.528 829.754 660.299 848.728 770.186C868.684 885.732 921.288 956.262 1086.77 913.835C1222.21 879.111 1443.02 762.266 1830.07 374.507M-719.66 -694.305C-703.097 -576.338 -676.033 -435.663 -658.032 -273.497C-640.424 -114.859 -617.751 10.0018 -589.47 89.83C-543.416 219.82 -524.339 250.761 -438.145 242.377C-383.13 237.03 -313.083 190.892 -230.093 146.838C-37.0102 44.341 66.8627 24.422 222.601 108.194C247.662 121.676 269.048 141.692 290.182 164.312C382.408 263.025 428.91 377.786 554.152 357.755C630.812 345.499 692.652 275.409 746.607 288.283C787.218 297.974 808.085 335.591 822.143 396.438C848.202 509.211 824.767 676.378 844.762 785.56C865.637 899.575 921.767 966.482 1092.44 918.813C1231.48 879.985 1456.01 758.74 1843.81 374.572M-715.592 -699.948C-697.466 -582.919 -668.729 -441.274 -650.139 -275.774C-632.257 -116.566 -610.737 9.86552 -584.53 92.1546C-541.256 228.037 -525.054 265.253 -440.014 259.698C-384.944 256.099 -314.457 209.087 -230.768 162.292C-38.3611 54.7052 72.7763 18.5465 227.777 100.699C253.16 114.15 274.506 134.606 295.373 158.028C385.769 259.482 428.391 383.806 554.867 365.353C632.571 354.019 694.812 281.413 748.978 295.577C789.354 306.133 809.114 345.482 821.774 407.772C845.178 522.934 819.787 692.49 840.804 800.974C862.598 913.458 922.27 976.758 1098.11 923.831C1240.75 880.899 1469.01 755.253 1857.53 374.684M-711.516 -705.599C-691.819 -589.508 -661.417 -446.901 -642.238 -278.05C-624.081 -118.274 -603.748 9.72101 -579.582 94.4869C-539.159 236.26 -525.509 269.934 -441.875 277.02C-386.9 281.677 -315.808 227.307 -231.436 177.746C-39.6725 65.1014 78.6981 12.6468 232.952 93.2045C258.65 106.623 279.972 127.52 300.565 151.735C389.146 255.923 427.865 389.825 555.582 372.944C634.331 362.532 696.971 287.4 751.35 302.855C791.49 314.261 810.143 355.358 821.397 419.09C842.162 536.64 814.785 708.593 836.83 816.364C859.527 927.317 922.765 987.018 1103.77 928.824C1250.03 881.796 1482 751.741 1871.26 374.764M-707.44 -711.25C-686.18 -596.097 -654.113 -452.52 -634.33 -280.335C-615.905 -119.981 -596.789 9.55286 -574.626 96.8036C-537.125 244.445 -525.902 284.667 -443.721 294.326C-388.887 300.771 -317.135 245.535 -232.088 193.184C-40.9292 75.522 84.6433 6.71527 238.144 85.6859C264.171 99.0721 285.454 120.41 305.772 145.427C392.563 252.332 427.355 395.829 556.312 380.511C636.105 371.036 699.155 293.356 753.738 310.117C793.65 322.373 811.195 365.217 821.044 430.385C839.17 550.323 809.805 724.673 832.887 831.738C856.48 941.16 923.307 997.278 1109.46 933.802C1259.34 882.694 1495.02 748.215 1885.02 374.828M-703.372 -716.901C-680.541 -602.685 -646.825 -458.131 -626.437 -282.619C-607.745 -121.696 -589.878 9.3686 -569.686 99.1283C-535.169 252.621 -526.334 299.537 -445.59 311.64C-390.889 319.84 -318.455 263.779 -232.763 208.631C-42.1779 85.9745 90.5729 0.783791 243.311 78.1833C269.66 91.5374 290.92 113.308 310.955 139.135C395.963 248.749 426.82 401.857 557.011 388.102C637.849 379.557 701.314 299.32 756.094 317.396C795.779 330.493 812.224 375.101 820.659 441.703C836.154 564.038 804.779 740.776 828.913 847.128C853.393 955.028 923.833 1007.56 1115.12 938.796C1268.63 883.608 1508.01 744.704 1898.73 374.916M-699.296 -722.552C-674.902 -609.275 -639.529 -463.75 -618.536 -284.904C-599.585 -123.404 -582.975 9.16795 -564.746 101.445C-533.269 260.764 -527.873 323.616 -447.459 328.954C-392.146 332.625 -319.766 282.038 -233.439 224.077C-43.3874 96.4589 96.5102 -5.17212 248.479 70.6804C275.15 83.9944 296.394 106.206 316.131 132.842C399.388 245.158 426.279 407.893 557.71 395.685C639.592 388.078 703.474 305.268 758.45 324.674C797.915 338.605 813.253 384.976 820.274 453.021C833.146 577.745 799.753 756.888 824.939 862.518C850.307 968.895 924.367 1017.85 1120.78 943.789C1277.93 884.529 1521 741.193 1912.46 374.996M-695.227 -728.203C-669.263 -615.863 -632.241 -469.369 -610.643 -287.188C-591.425 -125.119 -576.111 8.95168 -559.806 103.769C-531.415 268.893 -528.596 338.308 -449.328 346.268C-393.96 351.831 -321.054 300.322 -234.106 239.523C-44.5497 106.967 102.456 -11.1356 253.655 63.1779C280.656 76.4518 301.876 99.1042 321.322 126.55C402.835 241.567 425.752 413.936 558.425 403.276C641.344 396.614 705.658 311.215 760.822 331.952C800.067 346.709 814.297 394.851 819.897 464.331C830.146 591.452 794.718 772.983 820.973 877.909C847.212 982.762 924.917 1028.15 1126.45 948.783C1287.25 885.451 1533.99 737.682 1926.2 375.076M-691.151 -733.855C-663.616 -622.452 -624.953 -474.988 -602.734 -289.473C-583.257 -126.826 -569.246 8.71102 -554.851 106.086C-529.585 276.996 -529.318 353.025 -451.182 363.574C-395.774 371.052 -322.311 318.606 -234.766 254.953C-45.6728 117.476 108.417 -17.1396 258.838 55.6589C286.169 68.8848 307.366 91.986 326.521 120.233C406.315 237.944 425.234 419.956 559.139 410.842C643.103 405.127 707.849 317.123 763.194 339.214C802.227 354.796 815.35 404.718 819.528 475.633C827.162 605.159 789.684 789.087 817.007 893.282C844.11 996.621 925.482 1038.44 1132.11 953.761C1296.58 886.365 1546.98 734.155 1939.93 375.148M-687.075 -739.505C-657.977 -629.041 -617.664 -480.607 -594.834 -291.757C-575.097 -128.542 -562.406 8.45469 -549.903 108.41C-527.81 285.076 -530.064 367.798 -453.043 380.896C-397.604 390.322 -323.552 336.914 -235.433 270.407C-46.7644 128.025 114.377 -23.1272 264.021 48.1563C291.682 61.3341 312.871 84.8762 331.72 113.941C409.809 234.337 424.716 426.008 559.862 418.425C644.87 413.656 710.048 323.038 765.573 346.484C804.402 362.876 816.41 414.594 819.167 486.943C824.193 618.865 784.65 805.19 813.057 908.665C841.008 1010.49 926.063 1048.75 1137.8 958.747C1305.92 887.287 1559.99 730.644 1953.67 375.22M-683.007 -745.156C-652.338 -635.63 -610.392 -486.217 -586.941 -294.033C-566.953 -130.241 -555.589 8.1823 -544.971 110.735C-526.083 293.124 -530.858 382.595 -454.913 398.21C-399.458 409.616 -324.793 355.222 -236.109 285.854C-47.8327 138.582 120.338 -29.1388 269.189 40.6538C297.179 53.7755 318.361 77.7746 336.904 107.649C413.312 230.738 424.181 432.06 560.568 426.016C646.613 422.201 712.247 328.962 767.937 353.771C806.562 370.98 817.455 424.485 818.782 498.27C821.201 632.597 779.584 821.318 809.083 924.071C837.882 1024.38 926.636 1059.07 1143.45 963.757C1315.25 888.233 1572.97 727.15 1967.39 375.325M-678.931 -750.799C-646.699 -642.211 -603.111 -491.828 -579.032 -296.31C-558.793 -131.948 -548.764 7.90171 -540.015 113.068C-524.355 301.164 -531.643 397.432 -456.766 415.532C-401.319 428.942 -325.994 373.554 -236.769 301.308C-48.8457 149.154 126.315 -35.1586 274.373 33.1592C302.693 46.2248 323.867 70.6726 342.103 101.365C416.838 227.147 423.655 438.128 561.283 433.615C648.373 430.753 714.462 334.878 770.309 361.057C808.729 379.068 818.515 434.385 818.413 509.588C818.232 646.319 774.519 837.445 805.125 939.461C834.764 1038.26 927.226 1069.39 1149.13 968.75C1324.61 889.163 1585.98 723.639 1981.13 375.405M-674.863 -756.451C-641.06 -648.792 -596.232 -497.392 -571.139 -298.594C-550.963 -133.616 -541.97 7.58071 -535.075 115.384C-522.674 309.155 -532.475 412.277 -458.635 432.845C-403.212 448.283 -327.196 391.885 -237.444 316.754C-49.8431 159.719 132.276 -41.1947 279.54 25.6562C308.198 38.6657 329.364 63.5623 347.286 95.072C420.365 223.539 423.114 444.195 561.99 441.198C650.116 439.298 716.676 340.769 772.673 368.335C810.905 387.156 819.567 444.268 818.036 520.906C815.256 660.05 769.445 853.573 801.158 954.859C831.623 1052.16 927.823 1079.72 1154.8 973.752C1333.96 890.108 1598.97 720.136 1994.87 375.493M-670.787 -762.102C-635.422 -655.381 -588.912 -503.01 -563.238 -300.879C-542.772 -135.331 -535.177 7.25234 -530.127 117.709C-521.009 317.131 -533.324 427.154 -460.496 450.159C-405.12 467.65 -328.374 410.217 -238.104 332.2C-50.8012 170.3 138.26 -47.2463 284.724 18.1537C313.712 31.099 334.885 56.4607 352.485 88.772C423.93 219.933 422.587 450.256 562.713 448.781C651.875 447.843 718.907 346.661 775.053 375.605C813.096 395.22 820.635 454.151 817.667 532.216C812.295 673.773 764.364 869.701 797.192 970.241C828.481 1066.04 928.419 1090.04 1160.46 978.73C1343.31 891.03 1611.96 716.609 2008.59 375.565M-666.711 -767.753C-629.775 -661.969 -581.6 -508.629 -555.338 -303.163C-534.58 -137.046 -528.392 6.90791 -525.179 120.025C-519.36 325.083 -534.211 442.048 -462.358 467.465C-407.052 487.032 -329.528 428.557 -238.771 347.639C-51.728 180.872 144.237 -53.3221 289.899 10.6351C319.225 23.5163 340.399 49.335 357.677 82.4638C427.496 216.318 422.061 455.458 563.419 456.348C653.619 456.917 721.137 352.52 777.417 382.868C815.279 403.284 821.688 464.027 817.29 543.518C809.326 687.496 759.259 885.828 793.226 985.616C825.324 1079.93 929.024 1100.34 1166.13 983.708C1352.68 891.952 1624.96 713.082 2022.33 375.63M-662.642 -773.404C-624.144 -668.559 -574.288 -514.249 -547.437 -305.448C-526.389 -138.754 -521.614 6.54683 -520.239 122.341C-517.742 333.002 -535.146 456.948 -464.227 484.779C-409.023 506.445 -330.683 446.905 -239.447 363.085C-52.6391 191.453 150.214 -59.4063 295.075 3.13214C324.738 15.9412 345.912 42.2327 362.868 76.1711C431.077 212.726 421.519 462.383 564.134 463.938C655.37 464.932 723.383 358.403 779.789 390.146C817.471 411.355 822.756 473.918 816.921 554.828C806.365 701.227 754.162 901.964 789.268 1001.01C822.175 1093.84 929.644 1110.67 1171.81 988.701C1362.04 892.89 1637.97 709.571 2036.07 375.709M-658.566 -779.055C-618.497 -675.147 -566.969 -519.867 -539.536 -307.732C-518.197 -140.469 -514.836 6.16231 -515.292 124.666C-516.124 340.914 -536.104 471.874 -466.088 502.093C-411.01 525.868 -331.814 465.253 -240.114 378.531C-53.5107 202.042 156.198 -65.498 300.251 -4.37036C330.252 8.35855 351.433 35.1229 368.059 69.879C434.674 209.136 420.977 468.732 564.849 471.529C657.122 473.661 725.638 364.279 782.161 397.432C819.67 419.435 823.958 483.833 816.552 566.154C803.656 714.998 749.049 918.131 785.31 1016.4C819.01 1107.75 930.273 1121.01 1177.48 993.703C1371.42 893.836 1650.97 706.068 2049.8 375.806M-654.498 -784.706C-612.866 -681.736 -559.665 -525.487 -531.643 -310.009C-510.022 -142.176 -508.074 5.78528 -510.352 126.991C-514.522 348.801 -537.101 486.799 -467.95 519.407C-413.021 545.305 -332.921 483.609 -240.782 393.969C-54.3512 212.614 162.183 -71.6141 305.426 -11.8812C335.765 0.767533 356.954 28.0128 373.242 63.5784C438.271 205.544 420.428 474.719 565.548 479.104C658.85 482.158 727.883 370.139 784.516 404.694C821.861 427.483 824.963 493.708 816.159 577.456C800.601 728.721 743.905 934.275 781.328 1031.79C815.821 1121.66 931.089 1131.75 1183.14 998.689C1380.95 895.094 1663.95 702.557 2063.52 375.878M-650.422 -790.357C-607.219 -688.325 -552.345 -531.105 -523.742 -312.293C-501.83 -143.892 -501.304 5.37671 -505.404 129.315C-512.928 356.672 -538.138 501.732 -469.811 536.729C-415.063 564.768 -334.029 501.981 -241.449 409.424C-55.1758 223.203 168.269 -77.9865 310.602 -19.3757C341.302 -6.86324 362.546 20.8871 378.434 57.2863C442.143 201.849 419.886 480.723 566.262 486.695C660.601 490.663 730.153 376.006 786.888 411.981C824.075 435.563 825.984 503.616 815.79 588.775C797.561 742.459 738.619 950.507 777.362 1047.18C812.499 1135.65 931.616 1141.87 1188.81 1003.68C1390.25 895.872 1676.95 699.047 2077.26 375.958M-646.354 -796C-601.58 -694.906 -545.041 -536.717 -515.841 -314.57C-452.816 165.041 -575.938 496.338 -471.672 554.043C-307.978 644.636 103.398 -112.31 315.785 -26.8785C469.788 35.0667 382.117 484.811 566.985 494.286C662.36 499.175 732.446 381.874 789.268 419.267C893.062 487.568 711.564 913.418 773.411 1062.58C837.639 1217.5 1176.91 1104.26 2091 376.062" stroke="url(#paint0_linear)" stroke-opacity="0.6" stroke-miterlimit="10"/>
<defs>
<linearGradient id="paint0_linear" x1="-789.511" y1="846.7" x2="2090.28" y2="1125.69" gradientUnits="userSpaceOnUse">
<stop stop-color="#16F898"/>
<stop offset="1" stop-color="#16F898" stop-opacity="0"/>
</linearGradient>
</defs>
</svg>
