<svg width="160" height="173" viewBox="0 0 160 173" fill="none" xmlns="http://www.w3.org/2000/svg">
<path d="M2.17096 39.1058C0.976933 39.1058 0 38.1281 0 36.9332V2.17254C0 0.977645 0.976933 0 2.17096 0H30.8277C32.0217 0 32.9986 0.977645 32.9986 2.17254C32.9986 3.36744 32.0217 4.34509 30.8277 4.34509H6.51289C5.31886 4.34509 4.34193 5.32273 4.34193 6.51763V36.9332C4.34193 38.1281 3.36499 39.1058 2.17096 39.1058Z" fill="#16F898"/>
<path d="M157.829 39.1058C156.635 39.1058 155.658 38.1281 155.658 36.9332V6.51763C155.658 5.32273 154.681 4.34509 153.487 4.34509H129.172C127.978 4.34509 127.001 3.36744 127.001 2.17254C127.001 0.977645 127.978 0 129.172 0H157.829C159.023 0 160 0.977645 160 2.17254V36.9332C160 38.1281 159.023 39.1058 157.829 39.1058Z" fill="#16F898"/>
<path d="M157.829 172.501H129.172C127.978 172.501 127.001 171.523 127.001 170.328C127.001 169.133 127.978 168.156 129.172 168.156H153.487C154.681 168.156 155.658 167.178 155.658 165.983V135.568C155.658 134.373 156.635 133.395 157.829 133.395C159.023 133.395 160 134.373 160 135.568V170.328C160 171.523 159.023 172.501 157.829 172.501Z" fill="#16F898"/>
<path d="M30.8277 172.501H2.17096C0.976933 172.501 0 171.523 0 170.328V135.568C0 134.373 0.976933 133.395 2.17096 133.395C3.36499 133.395 4.34193 134.373 4.34193 135.568V165.983C4.34193 167.178 5.31886 168.156 6.51289 168.156H30.8277C32.0217 168.156 32.9986 169.133 32.9986 170.328C32.9986 171.523 32.0217 172.501 30.8277 172.501Z" fill="#16F898"/>
<path d="M95.373 60.2639L109.735 74.6306C111.497 76.4264 114.38 76.462 116.178 74.7017C116.196 74.6839 116.231 74.6484 116.249 74.6306L130.629 60.2639C132.427 58.5036 132.462 55.6232 130.701 53.8273C130.683 53.8096 130.665 53.7918 130.629 53.7562L116.231 39.3717C114.487 37.5759 111.604 37.5403 109.807 39.2828C109.771 39.3184 109.753 39.3362 109.718 39.3717L95.373 53.7384C93.5755 55.4809 93.5399 58.3614 95.284 60.1572C95.3018 60.1928 95.3374 60.2283 95.373 60.2639ZM98.2918 56.6544L112.654 42.2878C112.796 42.1099 113.063 42.0744 113.241 42.2166C113.277 42.2344 113.295 42.27 113.313 42.2878L127.693 56.6544C127.871 56.7967 127.906 57.0634 127.764 57.2412C127.746 57.2768 127.711 57.2945 127.693 57.3123L113.313 71.679C113.17 71.8568 112.903 71.8924 112.725 71.7501C112.69 71.7324 112.672 71.6968 112.654 71.679L98.2562 57.3123C98.0782 57.1701 98.0426 56.9034 98.185 56.7256C98.2028 56.69 98.2384 56.6722 98.2562 56.6544H98.2918Z" fill="#16F898"/>
<path d="M48.5 39C38.8411 39 31 47.0468 31 57C31 66.9532 38.8233 75 48.5 75C58.1767 75 66 66.9532 66 57C65.9822 47.0652 58.1589 39.0183 48.5 39ZM48.5 70.7475C41.1222 70.7475 35.1522 64.6069 35.1522 57.0183C35.1522 49.4297 41.1222 43.2892 48.5 43.2892C55.8778 43.2892 61.8478 49.4297 61.8478 57.0183C61.8478 64.5886 55.8778 70.7291 48.5 70.7475Z" fill="#16F898"/>
<path d="M81.9903 66L92 57.491L81.9903 49L79.3317 52.2226L83.0787 55.3908H70V59.5911H83.0787L79.3317 62.7774L81.9903 66Z" fill="#16F898"/>
<path d="M110.391 79V92.0608L107.223 88.3139L104 90.9903L112.491 101L121 90.9903L117.777 88.3139L114.609 92.0608V79H110.391Z" fill="#16F898"/>
<path d="M64 105H34V135H64V105ZM59.8522 130.827H38.1478V109.155H59.8343V130.827H59.8522Z" fill="#16F898"/>
<path d="M95 120.5C95 130.159 102.823 138 112.5 138C122.159 138 130 130.177 130 120.5C130 110.823 122.177 103 112.5 103C112.482 103 112.464 103 112.464 103C102.805 103.036 95.0178 110.859 95 120.5ZM112.447 107.134C119.824 107.134 125.794 113.104 125.794 120.482C125.794 127.86 119.824 133.83 112.447 133.83C105.069 133.83 99.0988 127.86 99.0988 120.482C99.1166 113.122 105.087 107.152 112.447 107.134Z" fill="#16F898"/>
<path d="M81.6861 125.763L77.957 122.598H91V118.384H77.957L81.6861 115.237L79.0097 112L69 120.5L79.0097 129L81.6861 125.763Z" fill="#16F898"/>
</svg>
