<svg width="160" height="173" viewBox="0 0 160 173" fill="none" xmlns="http://www.w3.org/2000/svg">
<path d="M2.17067 39.0723C0.955095 39.0723 0 38.0955 0 36.9016V2.17091C0 0.977045 0.976801 0.000244141 2.17067 0.000244141H30.8235C32.0174 0.000244141 32.9942 0.977045 32.9942 2.17091C32.9942 3.36478 32.0174 4.34158 30.8235 4.34158H6.51201C5.31814 4.34158 4.34134 5.31838 4.34134 6.51225V36.9016C4.34134 38.0955 3.36454 39.0723 2.17067 39.0723Z" fill="#F07C28"/>
<path d="M157.807 39.072C156.592 39.072 155.637 38.0952 155.637 36.9014V6.51201C155.637 5.31814 154.66 4.34134 153.466 4.34134H129.155C127.961 4.34134 126.984 3.36454 126.984 2.17067C126.984 0.976801 127.961 0 129.155 0H157.807C159.001 0 159.978 0.976801 159.978 2.17067V36.9014C159.978 38.0952 159.001 39.072 157.807 39.072Z" fill="#F07C28"/>
<path d="M157.807 172.352H129.155C127.961 172.352 126.984 171.375 126.984 170.181C126.984 168.987 127.961 168.01 129.155 168.01H153.466C154.66 168.01 155.637 167.034 155.637 165.84V135.45C155.637 134.257 156.614 133.28 157.807 133.28H157.829C159.023 133.28 160 134.257 160 135.45V170.181C159.978 171.375 159.001 172.352 157.807 172.352Z" fill="#F07C28"/>
<path d="M30.8235 172.352H2.17067C0.976801 172.352 0 171.375 0 170.181V135.45C0 134.256 0.976801 133.28 2.17067 133.28C3.36454 133.28 4.34134 134.256 4.34134 135.45V165.84C4.34134 167.033 5.31814 168.01 6.51201 168.01H30.8235C32.0174 168.01 32.9942 168.987 32.9942 170.181V170.203C32.9942 171.375 32.0174 172.352 30.8235 172.352Z" fill="#F07C28"/>
<path d="M60.5527 105.83H33.0308V133.352H60.5527V105.83ZM56.6185 129.418H36.965V109.765H56.6185V129.418Z" fill="#F07C28"/>
<path d="M66.4542 133.352H93.9761V105.83H66.4542V133.352ZM70.3884 109.765H90.0419V129.418H70.3884V109.765Z" fill="#F07C28"/>
<path d="M99.8599 133.352H127.382V105.83H99.8599V133.352ZM103.794 109.765H123.448V129.418H103.794V109.765Z" fill="#F07C28"/>
<path d="M80.206 39C70.4583 39 62.5196 46.9387 62.5196 56.6864C62.5196 66.4341 70.4583 74.3728 80.206 74.3728C89.9537 74.3728 97.8924 66.4341 97.8924 56.6864C97.8924 46.9387 89.9713 39 80.206 39ZM80.206 70.4561C72.6186 70.4561 66.4538 64.2914 66.4538 56.704C66.4538 49.1165 72.6186 42.9518 80.206 42.9518C87.7934 42.9518 93.9582 49.1165 93.9582 56.704C93.9582 64.2914 87.7934 70.4561 80.206 70.4561Z" fill="#F07C28"/>
<path d="M115.017 50.2252L112.242 47.4326L102.986 56.6886L112.242 65.9445L115.017 63.1695L110.503 58.6557H127.382V54.7215H110.503L115.017 50.2252Z" fill="#F07C28"/>
<path d="M45.3954 63.1695L48.188 65.9445L57.4264 56.6886L48.188 47.4326L45.3954 50.2252L49.9092 54.7215H33.0308V58.6557H49.9092L45.3954 63.1695Z" fill="#F07C28"/>
<path d="M82.1737 101.896V85.017L86.6875 89.5308L89.4625 86.7558L80.2066 77.4999L70.9506 86.7558L73.7432 89.5308L78.2395 85.017V101.896H82.1737Z" fill="#F07C28"/>
</svg>
