<svg width="4458" height="4443" viewBox="0 0 4458 4443" fill="none" xmlns="http://www.w3.org/2000/svg">
<path opacity="0.5" d="M901.324 1289.82C1048.32 1303.32 1184.13 1364.7 1163.35 1564.7C1147.83 1714.04 1057.06 1824.69 1090.37 1905.55C1134.71 2013.16 1329.17 1898.95 1655.78 1839.76C1923.47 1791.26 2057.32 1766.99 2118.67 1826.62C2298.87 2001.74 1732.72 2644.25 1828.64 2908.77C1934.51 3200.74 2701.12 2629.9 2835.59 2887.72C2894.86 3001.36 2842.04 3296.54 2257.57 4141.45M923.083 1271.2C1063.19 1289.28 1192.93 1353.75 1170.7 1552.86C1153.6 1702.49 1064.02 1813.46 1097.28 1894C1141.98 2002.09 1338.16 1886.06 1661.22 1829.44C1681.73 1825.89 1701.45 1822.52 1720.39 1819.38C1946.11 1781.05 2059.72 1769.53 2114.48 1826.67C2185.18 1900.46 2135.02 2049.26 2058.17 2218.22C1947.61 2462.03 1782.01 2742.17 1840.69 2894.64C1873.39 2978.65 1961.66 2989.87 2072.03 2972.36C2336.16 2930.42 2726.8 2715.01 2819.07 2897.4C2825.05 2909.3 2829.9 2923.08 2833.19 2939.14C2861.39 3077.29 2770.72 3386.31 2274.89 4117.17M944.849 1252.57C1078.07 1275.21 1202.29 1342.6 1178.07 1541.01C1159.8 1690.79 1071.01 1802.22 1104.21 1882.43C1149.26 1990.99 1347.15 1873.15 1666.68 1819.1C1687.06 1815.74 1706.63 1812.67 1725.46 1809.74C1948.36 1774.92 2057.42 1767.39 2110.3 1826.7C2177.89 1902.48 2129 2049.97 2055.17 2217.39C1949.13 2459.3 1791.55 2732.16 1852.78 2880.49C1886.7 2962.7 1974.91 2973.81 2082.77 2959.31C2340.89 2924.58 2713.3 2723.7 2802.57 2907.04C2808.41 2919.02 2813.15 2932.85 2816.44 2948.85C2844.63 3085.98 2760.09 3388.33 2292.23 4092.84M966.615 1233.93C1092.95 1261.16 1211.35 1331.56 1185.44 1529.17C1165.77 1679.18 1077.99 1790.99 1111.14 1870.86C1156.55 1979.9 1356.43 1859.17 1672.15 1808.76C1692.42 1805.53 1711.83 1802.81 1730.53 1800.11C1950.7 1768.35 2055.1 1765.25 2106.13 1826.73C2170.63 1904.44 2122.68 2050.62 2052.17 2216.55C1950.19 2456.52 1801.35 2721.91 1864.86 2866.35C1900.16 2946.64 1988.16 2957.74 2093.51 2946.26C2345.62 2918.73 2699.59 2732.61 2786.09 2916.7C2791.76 2928.77 2796.4 2942.65 2799.71 2958.59C2827.89 3094.7 2749.48 3390.37 2309.58 4068.54M988.38 1215.31C1107.82 1247.11 1220.4 1320.55 1192.81 1517.33C1171.73 1667.58 1084.97 1779.76 1118.07 1859.3C1163.83 1968.82 1365.53 1845.93 1677.62 1798.44C1697.75 1795.38 1717.02 1792.93 1735.6 1790.48C1953.05 1761.77 2052.8 1763.06 2101.96 1826.77C2163.37 1906.35 2116.56 2051.34 2049.18 2215.71C1951.58 2453.79 1811.17 2711.67 1876.95 2852.22C1913.63 2930.6 2001.42 2941.7 2104.25 2933.24C2350.34 2912.92 2685.85 2741.58 2769.58 2926.39C2775.1 2938.56 2779.63 2952.47 2782.96 2968.35C2811.13 3103.44 2738.85 3392.45 2326.91 4044.28M1010.15 1196.68C1122.7 1233.05 1229.44 1309.53 1200.17 1505.49C1177.69 1655.98 1091.95 1768.53 1125 1847.74C1171.11 1957.74 1374.62 1832.72 1683.08 1788.11C1703.09 1785.22 1722.21 1783.06 1740.67 1780.85C1955.4 1755.16 2050.48 1760.83 2097.78 1826.81C2156.13 1908.2 2110.43 2052.05 2046.17 2214.89C1952.95 2451.08 1820.98 2701.44 1889.02 2838.09C1927.09 2914.54 2014.66 2925.65 2114.98 2920.2C2355.08 2907.08 2672.12 2750.52 2753.1 2936.05C2758.45 2948.31 2762.88 2962.27 2766.22 2978.09C2794.37 3112.15 2728.22 3394.49 2344.25 4019.98M1031.91 1178.05C1137.58 1218.99 1238.47 1298.51 1207.53 1493.64C1183.63 1644.39 1098.92 1757.29 1131.92 1836.17C1178.4 1946.64 1383.71 1819.5 1688.54 1777.77C1708.43 1775.06 1727.4 1773.17 1745.73 1771.21C1957.74 1748.54 2048.17 1758.56 2093.6 1826.84C2148.92 1909.98 2104.32 2052.76 2043.16 2214.05C1954.32 2448.38 1830.82 2691.19 1901.1 2823.94C1940.56 2898.48 2027.91 2909.58 2125.72 2907.15C2359.8 2901.23 2658.37 2759.47 2736.59 2945.7C2741.78 2958.06 2746.11 2972.06 2749.47 2987.81C2777.61 3120.85 2717.59 3396.52 2361.59 3995.66M1053.68 1159.41C1152.46 1204.92 1247.48 1287.51 1214.9 1481.79C1189.58 1632.8 1105.91 1746.05 1138.86 1824.6C1185.69 1935.55 1392.81 1806.31 1694.01 1767.44C1713.78 1764.88 1732.6 1763.29 1750.81 1761.57C1960.1 1741.89 2045.88 1756.23 2089.43 1826.87C2141.74 1911.7 2098.2 2053.48 2040.16 2213.21C1955.69 2445.68 1840.67 2680.93 1913.18 2809.8C1954.05 2882.41 2041.16 2893.52 2136.46 2894.1C2364.52 2895.39 2644.62 2768.43 2720.09 2955.36C2725.13 2967.81 2729.36 2981.85 2732.73 2997.54C2760.86 3129.56 2706.97 3398.57 2378.93 3971.37M1075.44 1140.79C1167.33 1190.88 1256.47 1276.54 1222.26 1469.96C1195.5 1621.24 1112.89 1734.82 1145.77 1813.05C1192.95 1924.47 1401.88 1793.15 1699.46 1757.12C1719.1 1754.75 1737.77 1753.42 1755.85 1751.96C1962.41 1735.25 2043.57 1753.89 2085.24 1826.92C2134.58 1913.37 2092.07 2054.22 2037.15 2212.39C1957.05 2443 1850.52 2670.7 1925.25 2795.68C1967.52 2866.37 2054.39 2877.48 2147.18 2881.08C2369.23 2889.57 2630.85 2777.43 2703.59 2965.03C2708.46 2977.58 2712.59 2991.66 2715.98 3007.29C2744.09 3138.29 2696.34 3400.63 2396.26 3947.08M1097.2 1122.16C1182.21 1176.81 1265.45 1265.56 1229.63 1458.1C1201.43 1609.65 1119.86 1723.57 1152.71 1801.47C1200.25 1913.37 1410.97 1779.97 1704.93 1746.78C1724.44 1744.57 1742.97 1743.54 1760.93 1742.32C1964.77 1728.56 2041.29 1751.48 2081.07 1826.95C2127.46 1914.96 2085.97 2054.95 2034.15 2211.55C1958.44 2440.32 1860.41 2660.43 1937.34 2781.54C1981.02 2850.31 2067.65 2861.41 2157.93 2868.03C2373.98 2883.73 2617.09 2786.42 2687.11 2974.69C2691.81 2987.33 2695.84 3001.45 2699.24 3017.02C2727.34 3147 2685.72 3402.67 2413.6 3922.78M1118.97 1103.52C1197.08 1162.75 1274.43 1254.58 1236.99 1446.26C1207.34 1598.1 1126.84 1712.34 1159.63 1789.91C1207.52 1902.28 1420.05 1766.83 1710.39 1736.45C1729.77 1734.42 1748.15 1733.66 1765.98 1732.7C1967.12 1721.87 2039.02 1749.04 2076.88 1827C2120.35 1916.5 2079.85 2055.7 2031.13 2210.72C1959.82 2437.65 1870.29 2650.17 1949.41 2767.4C1994.51 2834.24 2080.89 2845.36 2168.66 2854.99C2378.69 2877.9 2603.3 2795.43 2670.6 2984.35C2675.14 2997.11 2679.08 3011.25 2682.49 3026.76C2710.58 3155.72 2675.08 3404.72 2430.93 3898.49M1140.73 1084.9C1211.96 1148.7 1283.37 1243.62 1244.35 1434.43C1213.24 1586.54 1133.81 1701.11 1166.55 1778.36C1214.8 1891.21 1429.12 1753.73 1715.84 1726.13C1735.1 1724.28 1753.33 1723.78 1771.04 1723.08C1969.45 1715.16 2036.76 1746.56 2072.7 1827.04C2113.3 1917.97 2073.74 2056.44 2028.13 2209.89C1961.21 2434.99 1880.2 2639.9 1961.48 2753.27C2008.01 2818.17 2094.14 2829.3 2179.39 2841.96C2383.41 2872.06 2589.51 2804.45 2654.1 2994.01C2658.48 3006.86 2662.32 3021.04 2665.76 3036.49C2693.83 3164.43 2664.46 3406.76 2448.28 3874.18M1162.49 1066.27C1226.84 1134.64 1292.32 1232.67 1251.72 1422.58C1219.13 1574.99 1140.8 1689.87 1173.47 1766.79C1222.08 1880.11 1438.2 1740.6 1721.3 1715.79C1740.43 1714.12 1758.52 1713.89 1776.11 1713.43C1971.8 1708.41 2034.54 1744.02 2068.52 1827.06C2106.29 1919.37 2067.64 2057.19 2025.12 2209.05C1962.61 2432.32 1890.11 2629.6 1973.56 2739.12C2021.53 2802.09 2107.38 2813.24 2190.13 2828.9C2388.14 2866.21 2575.7 2813.47 2637.6 3003.66C2641.81 3016.61 2645.54 3030.83 2648.99 3046.22C2677.05 3173.14 2653.82 3408.8 2465.6 3849.87M1184.26 1047.63C1241.71 1120.58 1301.25 1221.71 1259.08 1410.73C1225.01 1563.44 1147.77 1678.63 1180.4 1755.22C1229.36 1869 1447.27 1727.51 1726.77 1705.45C1745.77 1703.95 1763.71 1703.99 1781.17 1703.8C1974.15 1701.65 2032.33 1741.44 2064.35 1827.09C2099.32 1920.72 2061.55 2057.93 2022.12 2208.21C1964.01 2429.65 1900.04 2619.3 1985.64 2724.97C2035.06 2785.99 2120.63 2797.18 2200.86 2815.87C2392.86 2860.38 2561.9 2822.52 2621.1 3013.34C2625.15 3026.38 2628.79 3040.64 2632.25 3055.97C2660.3 3181.86 2643.19 3410.86 2482.94 3825.59M1206.03 1029C1256.6 1106.52 1310.16 1210.77 1266.45 1398.88C1230.89 1551.89 1154.75 1667.39 1187.33 1743.64C1236.65 1857.91 1456.34 1714.42 1732.23 1695.11C1751.11 1693.79 1768.9 1694.1 1786.24 1694.16C1976.51 1694.85 2030.17 1738.79 2060.17 1827.12C2092.39 1922 2055.45 2058.67 2019.11 2207.37C1965.42 2427 1909.99 2608.98 1997.72 2710.83C2048.6 2769.9 2133.88 2781.1 2211.59 2802.81C2397.58 2854.53 2548.08 2831.56 2604.59 3022.99C2608.47 3036.14 2612.02 3050.43 2615.5 3065.69C2643.53 3190.56 2632.55 3412.89 2500.27 3801.27M1227.79 1010.38C1271.46 1092.47 1319.06 1199.84 1273.8 1387.04C1236.74 1540.37 1161.72 1656.17 1194.24 1732.09C1243.92 1846.83 1465.4 1701.37 1737.68 1684.79C1756.44 1683.65 1774.07 1684.22 1791.28 1684.54C1978.86 1688.07 2028.01 1736.15 2055.97 1827.18C2085.49 1923.26 2049.36 2059.46 2016.09 2206.56C1966.82 2424.38 1919.94 2598.69 2009.78 2696.71C2062.12 2753.84 2147.11 2765.07 2222.31 2789.8C2402.28 2848.72 2534.23 2840.64 2588.09 3032.67C2591.81 3045.92 2595.24 3060.24 2598.75 3075.44C2626.77 3199.29 2621.92 3414.96 2517.6 3776.99M1249.55 991.741C1286.35 1078.41 1327.94 1188.9 1281.17 1375.2C1242.6 1528.84 1168.7 1644.93 1201.17 1720.52C1251.2 1835.74 1474.47 1688.33 1743.15 1674.46C1761.78 1673.49 1779.27 1674.32 1796.36 1674.9C1981.24 1681.24 2025.91 1733.44 2051.81 1827.2C2078.67 1924.44 2043.3 2060.2 2013.1 2205.7C1968.27 2421.71 1929.94 2588.32 2021.87 2682.55C2075.69 2737.71 2160.37 2748.99 2233.07 2776.73C2407.03 2842.86 2520.41 2849.69 2571.61 3042.3C2575.16 3055.66 2578.51 3070.01 2582.01 3085.16C2610.02 3207.98 2611.3 3416.98 2534.95 3752.67M1271.32 973.107C1301.22 1064.35 1336.81 1177.98 1288.54 1363.35C1248.44 1517.31 1175.69 1633.67 1208.1 1708.95C1258.49 1824.64 1483.53 1675.3 1748.61 1664.12C1767.11 1663.34 1784.47 1664.42 1801.43 1665.26C1983.61 1674.38 2023.85 1730.67 2047.63 1827.23C2071.87 1925.58 2037.23 2060.95 2010.09 2204.86C1969.71 2419.06 1939.94 2577.97 2033.94 2668.41C2089.24 2721.6 2173.61 2732.93 2243.79 2763.68C2411.74 2837.02 2506.55 2858.78 2555.09 3051.96C2558.47 3065.42 2561.73 3079.8 2565.25 3094.89C2593.25 3216.69 2600.67 3419.03 2552.27 3728.37M1293.08 954.485C1316.1 1050.3 1345.66 1167.07 1295.89 1351.52C1254.27 1505.79 1182.66 1622.45 1215.02 1697.4C1265.76 1813.57 1492.58 1662.31 1754.07 1653.8C1772.44 1653.21 1789.65 1654.54 1806.48 1655.65C1985.98 1667.53 2021.79 1727.92 2043.45 1827.28C2065.11 1926.7 2031.16 2061.73 2007.09 2204.05C1971.16 2416.44 1949.95 2567.63 2046.02 2654.3C2102.8 2705.51 2186.86 2716.9 2254.54 2750.67C2416.47 2831.21 2492.69 2867.9 2538.61 3061.65C2541.82 3075.21 2544.98 3089.62 2548.53 3104.64C2576.51 3225.43 2590.06 3421.09 2569.63 3704.09M1314.85 935.855C1330.98 1036.23 1354.51 1156.15 1303.27 1339.67C1260.1 1494.27 1189.65 1611.21 1221.96 1685.82C1273.06 1802.47 1501.64 1649.31 1759.55 1643.46C1777.79 1643.04 1794.86 1644.62 1811.57 1646C1988.38 1660.61 2019.82 1725.07 2039.28 1827.3C2058.41 1927.75 2025.12 2062.47 2004.1 2203.2C1972.63 2413.78 1959.98 2557.23 2058.11 2640.14C2116.39 2689.36 2200.13 2700.82 2265.28 2737.61C2421.21 2825.34 2478.83 2876.98 2522.12 3071.29C2525.16 3084.96 2528.23 3099.4 2531.79 3114.36C2559.76 3234.12 2579.43 3423.11 2586.97 3679.77M1336.62 917.222C1345.86 1022.18 1363.34 1145.23 1310.63 1327.82C1265.9 1482.76 1196.62 1599.98 1228.88 1674.27C1280.34 1791.39 1510.69 1636.35 1765 1633.14C1783.12 1632.92 1800.04 1634.74 1816.62 1636.39C1990.76 1653.72 2017.85 1722.25 2035.09 1827.37C2051.73 1928.81 2019.06 2063.26 2001.08 2202.4C1974.1 2411.17 1970 2546.87 2070.18 2626.04C2129.95 2673.26 2213.36 2684.8 2276.01 2724.6C2425.92 2819.54 2464.94 2886.13 2505.61 3080.99C2508.49 3094.77 2511.46 3109.24 2515.03 3124.14C2542.99 3242.88 2568.8 3425.2 2604.29 3655.52M1358.37 898.598C1360.73 1008.12 1372.15 1134.34 1317.99 1315.99C1271.7 1471.25 1203.59 1588.76 1235.8 1662.71C1287.61 1780.31 1519.72 1623.4 1770.45 1622.82C1788.43 1622.77 1805.21 1624.84 1821.67 1626.77C1993.15 1646.79 2015.92 1719.37 2030.91 1827.4C2045.11 1929.8 2013.02 2064.01 1998.06 2201.56C1975.56 2408.53 1980.04 2536.47 2082.24 2611.89C2143.53 2657.12 2226.59 2668.74 2286.73 2711.55C2430.63 2813.69 2451.03 2895.25 2489.1 3090.63C2491.8 3104.51 2494.69 3119.02 2498.28 3133.86C2526.22 3251.58 2558.15 3427.23 2621.62 3631.2M1380.14 879.965C1375.61 994.071 1380.95 1123.42 1325.36 1304.14C1277.49 1459.73 1210.58 1577.52 1242.74 1651.13C1294.9 1769.21 1528.77 1610.45 1775.92 1612.47C1793.79 1612.62 1810.42 1614.92 1826.74 1617.13C1995.56 1639.82 2014.07 1716.43 2026.73 1827.43C2038.52 1930.77 2006.99 2064.76 1995.07 2200.71C1977.07 2405.86 1985.59 2533.04 2094.33 2597.74C2159.85 2636.73 2239.85 2652.66 2297.47 2698.51C2435.36 2807.86 2437.12 2904.39 2472.6 3100.29C2475.14 3114.28 2477.93 3128.81 2481.54 3143.59C2509.46 3260.28 2547.53 3429.27 2638.97 3606.9M1401.91 861.331C1390.49 980.007 1389.74 1112.51 1332.72 1292.3C1283.27 1448.22 1217.56 1566.28 1249.66 1639.57C1302.18 1758.12 1537.79 1597.55 1781.38 1602.14C1799.11 1602.48 1815.61 1605.02 1831.8 1607.49C1997.97 1632.84 2012.24 1713.5 2022.56 1827.46C2031.99 1931.71 2000.97 2065.51 1992.06 2199.87C1978.58 2403.21 1995.77 2522.61 2106.42 2583.59C2173.42 2620.52 2253.1 2636.6 2308.21 2685.46C2440.08 2802.01 2423.2 2913.52 2456.11 3109.95C2458.47 3124.04 2461.18 3138.6 2464.79 3153.31C2492.7 3269 2536.91 3431.31 2656.3 3582.6M1423.67 842.697C1405.37 965.939 1398.52 1101.6 1340.09 1280.44C1289.04 1436.7 1224.54 1555.04 1256.59 1628C1309.47 1747.03 1546.82 1584.65 1786.85 1591.81C1804.45 1592.32 1820.81 1595.11 1836.88 1597.85C2000.4 1625.82 2010.48 1710.52 2018.39 1827.49C2025.5 1932.63 1994.97 2066.24 1989.06 2199.03C1980.1 2400.54 2010.27 2505.11 2118.5 2569.45C2184.36 2608.6 2266.35 2620.54 2318.95 2672.41C2444.81 2796.17 2409.28 2922.67 2439.62 3119.6C2441.81 3133.8 2444.43 3148.38 2448.06 3163.03C2475.96 3277.7 2526.29 3433.34 2673.65 3558.28M1445.43 824.075C1420.24 951.897 1407.27 1090.71 1347.45 1268.61C1294.78 1425.2 1231.51 1543.8 1263.51 1616.44C1316.74 1735.94 1555.83 1571.79 1792.31 1581.48C1809.78 1582.19 1826 1585.2 1841.93 1588.23C2002.83 1618.8 2008.74 1707.54 2014.2 1827.54C2019.02 1933.55 1988.96 2067 1986.05 2198.22C1981.64 2397.89 2020.36 2494.65 2130.57 2555.33C2197.96 2592.43 2279.59 2604.49 2329.68 2659.38C2449.53 2790.35 2395.32 2931.85 2423.12 3129.28C2425.13 3143.59 2427.65 3158.2 2431.3 3172.8C2459.19 3286.44 2515.66 3435.41 2690.98 3534.01M1467.2 805.441C1435.12 937.829 1416.03 1079.8 1354.82 1256.76C1300.54 1413.68 1238.5 1532.56 1270.44 1604.87C1324.03 1724.85 1564.84 1558.93 1797.78 1571.14C1815.11 1572.05 1831.21 1575.28 1847.01 1578.59C2005.29 1611.74 2007.07 1704.53 2010.03 1827.56C2012.61 1934.45 1982.96 2067.72 1983.06 2197.37C1983.2 2395.2 2030.47 2484.14 2142.66 2541.17C2211.59 2576.22 2292.85 2588.42 2340.43 2646.32C2454.27 2784.49 2381.38 2941 2406.63 3138.93C2408.46 3153.35 2410.91 3167.98 2414.57 3182.51C2442.44 3295.13 2505.04 3437.44 2708.32 3509.69M1488.96 786.807C1450 923.776 1424.76 1068.89 1362.18 1244.91C1306.27 1402.16 1245.47 1521.33 1277.36 1593.31C1331.31 1713.76 1573.83 1546.1 1803.23 1560.81C1820.45 1561.92 1836.39 1565.37 1852.06 1568.97C2007.73 1604.68 2005.43 1701.52 2005.84 1827.61C2006.2 1935.35 1976.96 2068.47 1980.04 2196.55C1984.75 2392.54 2040.57 2473.64 2154.73 2527.05C2225.21 2560.03 2306.08 2572.38 2351.15 2633.3C2458.98 2778.66 2367.4 2950.19 2390.12 3148.59C2391.79 3163.12 2394.13 3177.78 2397.81 3192.25C2425.67 3303.85 2494.4 3439.48 2725.65 3485.39M1510.72 768.184C1464.87 909.719 1433.49 1057.99 1369.53 1233.08C1311.97 1390.66 1252.44 1510.1 1284.27 1581.74C1338.58 1702.67 1582.81 1533.28 1808.68 1550.48C1825.76 1551.78 1841.58 1555.45 1857.12 1559.33C2010.2 1597.57 2003.83 1698.48 2001.66 1827.63C1999.84 1936.23 1970.99 2069.18 1977.03 2195.71C1986.32 2389.84 2050.68 2463.1 2166.8 2512.9C2238.84 2543.8 2319.33 2556.31 2361.89 2620.25C2463.71 2772.82 2353.43 2959.37 2373.63 3158.25C2375.11 3172.89 2377.37 3187.58 2381.08 3201.98C2408.92 3312.56 2483.78 3441.53 2743 3461.09M1532.49 749.55C1479.74 895.665 1442.2 1047.07 1376.9 1221.22C1317.69 1379.13 1259.42 1498.86 1291.21 1570.17C1345.87 1691.58 1591.8 1520.49 1814.15 1540.14C1831.1 1541.64 1846.79 1545.53 1862.2 1549.69C2012.68 1590.45 2002.3 1695.44 1997.49 1827.66C1993.51 1937.11 1965.01 2069.9 1974.03 2194.86C1987.91 2387.12 2060.82 2452.53 2178.88 2498.76C2252.48 2527.57 2332.58 2540.25 2372.62 2607.2C2468.43 2766.98 2339.43 2968.54 2357.12 3167.9C2358.44 3182.65 2360.61 3197.37 2364.33 3211.72C2392.16 3321.28 2473.14 3443.58 2760.32 3436.8M1554.25 730.916C1494.62 881.598 1450.92 1036.15 1384.26 1209.38C1323.38 1367.62 1266.4 1487.62 1298.13 1558.61C1353.14 1680.5 1600.77 1507.72 1819.61 1529.81C1836.42 1531.51 1851.99 1535.6 1867.25 1540.07C2015.16 1583.32 2000.79 1692.4 1993.3 1827.71C1987.2 1938.01 1959.04 2070.62 1971.02 2194.04C1989.49 2384.42 2070.94 2441.99 2190.95 2484.63C2266.1 2511.33 2345.82 2524.19 2383.35 2594.17C2473.14 2761.15 2325.42 2977.75 2340.62 3177.57C2341.76 3192.43 2343.85 3207.16 2347.57 3221.46C2375.39 3329.99 2462.5 3445.63 2777.66 3412.5M1576.02 712.283C1509.51 867.534 1459.61 1025.23 1391.63 1197.53C1329.08 1356.08 1273.38 1476.38 1305.07 1547.03C1360.44 1669.38 1609.74 1494.96 1825.07 1519.47C1841.75 1521.37 1857.19 1525.67 1872.32 1530.42C2017.68 1576.15 1999.35 1689.35 1989.13 1827.73C1980.93 1938.89 1953.09 2071.31 1968.02 2193.18C1991.1 2381.67 2081.07 2431.38 2203.03 2470.47C2279.75 2495.06 2359.07 2508.12 2394.08 2581.11C2477.87 2755.31 2311.4 2986.94 2324.12 3187.22C2325.07 3202.19 2327.08 3216.95 2330.82 3231.18C2358.63 3338.69 2451.87 3447.66 2794.99 3388.18M1597.78 693.66C1524.37 853.488 1468.29 1014.32 1398.99 1185.7C1334.75 1344.57 1280.35 1465.16 1311.98 1535.48C1367.71 1658.31 1618.69 1482.24 1830.52 1509.15C1847.07 1511.26 1862.38 1515.76 1877.37 1520.81C2020.19 1568.98 1997.91 1686.33 1984.93 1827.79C1974.65 1939.82 1947.12 2072.02 1965 2192.38C1992.71 2378.97 2091.2 2420.81 2215.1 2456.37C2293.38 2478.83 2372.3 2492.09 2404.81 2568.1C2482.58 2749.5 2297.36 2996.18 2307.61 3196.92C2308.38 3212 2310.31 3226.78 2314.07 3240.95C2341.86 3347.44 2441.24 3449.74 2812.32 3363.92M1619.55 675.026C1539.26 839.424 1476.97 1003.39 1406.35 1173.85C1340.42 1333.04 1287.33 1453.91 1318.9 1523.92C1374.99 1647.22 1627.64 1469.53 1835.99 1498.83C1852.39 1501.13 1867.59 1505.83 1882.43 1511.18C2022.73 1561.78 1996.56 1683.29 1980.76 1827.82C1968.42 1940.72 1941.18 2072.7 1962 2191.54C1994.35 2376.2 2101.34 2410.19 2227.18 2442.22C2307.04 2462.54 2385.56 2476.02 2415.55 2555.05C2487.31 2743.64 2283.32 3005.38 2291.12 3206.56C2291.71 3221.76 2293.56 3236.57 2297.33 3250.68C2325.11 3356.15 2430.62 3451.78 2829.66 3339.62M1641.32 656.396C1554.14 825.375 1485.64 992.454 1413.73 1162C1346.09 1321.5 1294.32 1442.67 1325.84 1512.34C1382.29 1636.12 1636.57 1456.84 1841.46 1488.48C1857.74 1490.99 1872.82 1495.88 1887.51 1501.54C2025.29 1554.55 1995.23 1680.25 1976.59 1827.85C1962.22 1941.65 1935.25 2073.37 1959 2190.71C1996 2373.43 2111.5 2399.55 2239.27 2428.08C2320.7 2446.26 2398.81 2459.97 2426.3 2542.01C2492.05 2737.81 2269.28 3014.59 2274.63 3216.23C2275.04 3231.54 2276.81 3246.36 2280.6 3260.41C2308.36 3364.86 2420 3453.82 2847.01 3315.31M1663.08 637.773C1569.01 811.318 1494.29 981.52 1421.09 1150.17C1351.72 1309.96 1301.29 1431.45 1332.76 1500.8C1389.57 1625.05 1645.49 1444.19 1846.92 1478.16C1863.05 1480.89 1878.02 1485.96 1892.57 1491.92C2027.85 1547.32 1993.94 1677.23 1972.41 1827.91C1956.03 1942.61 1929.31 2074.06 1956 2189.88C1997.64 2370.66 2121.64 2388.91 2251.34 2413.95C2334.35 2429.97 2412.05 2443.92 2437.03 2528.97C2496.77 2731.98 2255.21 3023.8 2258.13 3225.9C2258.36 3241.32 2260.04 3256.17 2263.85 3270.15C2291.61 3373.58 2409.37 3455.87 2864.34 3291.03M1684.84 619.14C1583.89 797.254 1502.95 970.564 1428.46 1138.32C1357.36 1298.42 1308.28 1420.2 1339.69 1489.22C1396.85 1613.95 1654.4 1431.53 1852.38 1467.82C1868.38 1470.75 1883.23 1476.02 1897.64 1482.28C2030.44 1540.04 1992.69 1674.21 1968.24 1827.92C1949.85 1943.55 1923.39 2074.7 1952.99 2189.03C1999.31 2367.85 2131.79 2378.23 2263.43 2399.79C2348.01 2413.63 2425.31 2427.83 2447.77 2515.91C2501.49 2726.12 2241.14 3033 2241.64 3235.52C2241.68 3251.06 2243.29 3265.94 2247.11 3279.85C2274.86 3382.26 2398.76 3457.88 2881.69 3266.69M1706.61 600.506C1598.77 783.197 1511.59 959.61 1435.82 1126.48C1362.99 1286.86 1315.26 1408.97 1346.62 1477.67C1404.13 1602.87 1663.29 1418.92 1857.85 1457.5C1873.7 1460.65 1888.44 1466.08 1902.7 1472.66C2033.03 1532.77 1991.45 1671.23 1964.06 1827.98C1943.68 1944.54 1917.46 2075.37 1949.98 2188.21C2000.97 2365.06 2141.92 2367.58 2275.5 2385.67C2361.65 2397.34 2438.55 2411.8 2458.5 2502.89C2506.21 2720.3 2227.05 3042.24 2225.14 3245.21C2224.99 3260.87 2226.53 3275.75 2230.35 3289.62C2258.09 3391 2388.11 3459.96 2899.01 3242.42M1728.38 581.872C1613.65 769.133 1520.23 948.64 1443.18 1114.63C1368.61 1275.3 1322.23 1397.74 1353.54 1466.09C1411.41 1591.78 1672.18 1406.3 1863.31 1447.16C1879.02 1450.52 1893.66 1456.14 1907.77 1463.02C2035.65 1525.46 1990.27 1668.23 1959.88 1827.99C1937.53 1945.52 1911.54 2075.99 1946.98 2187.36C2002.63 2362.22 2152.07 2356.87 2287.58 2371.51C2375.31 2380.99 2451.81 2395.73 2469.24 2489.82C2510.94 2714.44 2212.95 3051.44 2208.64 3254.85C2208.31 3270.62 2209.77 3285.52 2213.62 3299.33C2241.34 3399.69 2377.49 3461.98 2916.35 3218.1M1750.13 563.249C1628.51 755.087 1528.85 937.674 1450.55 1102.79C1374.22 1263.72 1329.21 1386.51 1360.47 1454.54C1418.69 1580.69 1681.05 1393.72 1868.77 1436.83C1884.35 1440.41 1898.89 1446.19 1912.83 1453.4C2038.28 1518.16 1989.1 1665.28 1955.7 1828.05C1931.38 1946.56 1905.62 2076.65 1943.98 2186.55C2004.31 2359.41 2162.21 2346.2 2299.67 2357.4C2388.97 2364.68 2465.06 2379.69 2479.98 2476.81C2515.67 2708.63 2198.85 3060.68 2192.15 3264.53C2191.64 3280.41 2193.02 3295.34 2196.89 3309.08C2224.59 3408.42 2366.88 3464.04 2933.71 3193.82M1771.9 544.616C1643.4 741.023 1537.47 926.692 1457.91 1090.95C1379.82 1252.15 1336.19 1375.27 1367.39 1442.97C1425.97 1569.61 1689.89 1381.17 1874.23 1426.5C1889.66 1430.29 1904.11 1436.25 1917.89 1443.77C2040.93 1510.82 1987.96 1662.33 1951.52 1828.09C1925.24 1947.6 1899.7 2077.29 1940.97 2185.72C2005.99 2356.57 2172.34 2335.49 2311.73 2343.26C2402.61 2348.33 2478.3 2363.63 2490.7 2463.77C2520.38 2702.79 2184.7 3069.91 2175.64 3274.21C2174.92 3290.2 2176.24 3305.15 2180.13 3318.83C2207.82 3417.14 2356.24 3466.1 2951.03 3169.53M1793.67 525.982C1658.28 726.956 1546.09 915.695 1465.28 1079.09C1385.42 1240.55 1343.17 1364.01 1374.32 1431.39C1433.26 1558.5 1698.73 1368.61 1879.7 1416.15C1894.98 1420.17 1909.33 1426.27 1922.97 1434.11C2043.61 1503.45 1986.86 1659.38 1947.36 1828.09C1919.12 1948.64 1893.8 2077.87 1937.98 2184.84C2007.7 2353.67 2182.5 2324.72 2323.83 2329.08C2416.27 2331.94 2491.57 2347.53 2501.46 2450.69C2525.13 2696.92 2170.59 3079.09 2159.16 3283.83C2158.26 3299.93 2159.5 3314.91 2163.39 3328.53C2191.07 3425.82 2345.62 3468.11 2968.37 3145.2M1815.43 507.359C1673.15 712.914 1554.7 904.705 1472.64 1067.26C1391 1228.96 1350.14 1352.79 1381.24 1419.84C1440.53 1547.43 1707.55 1356.09 1885.14 1405.84C1900.28 1410.08 1914.53 1416.35 1928.01 1424.51C2046.28 1496.12 1985.75 1656.51 1943.15 1828.16C1912.97 1949.77 1888.09 2078.3 1934.95 2184.05C2009.72 2350.49 2192.6 2314.02 2335.88 2314.99C2429.89 2315.63 2504.78 2331.52 2512.16 2437.7C2529.82 2691.13 2156.42 3088.35 2142.62 3293.54C2141.53 3309.75 2142.7 3324.76 2146.61 3338.31C2174.27 3434.58 2334.96 3470.2 2985.68 3120.95M1837.19 488.725C1688.03 698.845 1563.1 893.627 1479.99 1055.41C1396.36 1217.28 1357.12 1341.55 1388.15 1408.28C1447.8 1536.34 1716.13 1344.01 1890.59 1395.51C1905.56 1400.02 1919.75 1406.39 1933.07 1414.87C2048.98 1488.73 1984.66 1653.63 1938.96 1828.19C1906.84 1950.88 1882.06 2079.01 1931.93 2183.21C2011.21 2347.77 2202.82 2302.97 2347.94 2300.85C2443.59 2299.06 2518.01 2315.46 2522.88 2424.65C2534.53 2685.29 2142.01 3097.66 2126.12 3303.19C2124.82 3319.53 2125.94 3334.54 2129.87 3348.04C2157.52 3443.29 2324.33 3472.23 3003.02 3096.63M1858.96 470.091C1545.63 901.175 1333.35 1264.45 1395.09 1396.7C1460.31 1536.39 1773.61 1294.96 1938.15 1405.22C2130.95 1534.42 1800.24 1932.52 1928.95 2182.35C2068.07 2452.4 2527.7 2129.37 2533.64 2411.59C2539.72 2700.8 2059.82 3175.97 2113.14 3357.75C2140.78 3451.98 2313.72 3474.27 3020.37 3072.32M1867.32 464.683C1741.81 639.88 1631.5 806.447 1546.66 953.342C1426.52 1160.95 1365.94 1320.68 1397.21 1402.52C1433.77 1498.18 1571.29 1435.79 1710.78 1409.68C1786.36 1395.53 1863.91 1389.74 1924.08 1425.71C2101.95 1532.07 1873.86 1847.33 1913.39 2092.1C1918.21 2121.18 1926.14 2149.69 1938.8 2176.68C2001.52 2310.34 2132.3 2312.66 2261.42 2304.25C2334.89 2299.67 2406.73 2289.31 2455.44 2306.91C2498.43 2322.45 2524.4 2356.79 2523.43 2426.65C2521.89 2562.32 2416.92 2738.12 2314.07 2903.69C2195.05 3094.83 2076.8 3273.39 2113.52 3367.57C2148.57 3457.47 2327.68 3476.6 3031.81 3079.9M1875.67 459.27C1752.31 634.056 1642.54 802.852 1555.29 954.555C1434.89 1163.09 1373.35 1323.19 1399.34 1408.35C1430.08 1509.11 1558.06 1454.24 1694.09 1432.03C1768.17 1419.93 1847.29 1412.89 1910.02 1446.19C2093.04 1543.35 1883.02 1843.25 1924.3 2084.79C1929.31 2114.09 1936.83 2143.21 1948.67 2171.02C2006.94 2307.91 2126.73 2320.09 2255.39 2314.87C2329 2311.87 2403.2 2298.81 2451.07 2318.02C2492.99 2334.83 2516.44 2370.76 2513.23 2441.72C2507 2579.36 2398.64 2757.15 2297.3 2922.3C2180.36 3111.89 2069 3286.67 2113.92 3377.4C2156.28 3462.95 2341.66 3478.93 3043.27 3087.47M1884.03 453.872C1762.79 628.242 1653.59 799.246 1563.91 955.779C1443.26 1165.24 1380.7 1325.88 1401.45 1414.17C1426.37 1520.21 1544.85 1472.71 1677.39 1454.38C1749.97 1444.34 1830.63 1436.06 1895.96 1466.66C2083.96 1554.74 1892.67 1838.83 1935.19 2077.48C1940.44 2106.95 1947.5 2136.7 1958.52 2165.35C2012.38 2305.42 2121.09 2327.72 2249.35 2325.49C2323.06 2324.2 2399.65 2308.32 2446.69 2329.12C2487.55 2347.2 2508.57 2384.7 2503.02 2456.77C2492.29 2596.26 2380.65 2776.31 2280.51 2940.9C2166 3129.12 2061.1 3299.94 2114.3 3387.21C2163.86 3468.46 2355.63 3481.26 3054.71 3095.06M1892.39 448.464C1773.28 622.419 1664.89 795.757 1572.54 956.993C1451.95 1167.53 1387.98 1328.72 1403.57 1420C1422.62 1531.51 1531.66 1491.2 1660.68 1476.74C1731.78 1468.77 1813.92 1459.27 1881.89 1487.15C2074.76 1566.25 1902.36 1834.39 1946.09 2070.18C1951.58 2099.81 1958.18 2130.2 1968.37 2159.69C2017.83 2302.9 2115.45 2335.39 2243.31 2336.13C2317.12 2336.55 2396.09 2317.84 2442.3 2340.25C2482.11 2359.56 2500.69 2398.64 2492.8 2471.86C2477.59 2613.21 2362.44 2795.41 2263.73 2959.54C2151.41 3146.26 2053.07 3313.29 2114.7 3397.05C2171.34 3474.04 2369.6 3483.6 3066.17 3102.65M1900.74 443.051C1783.78 616.594 1675.99 792.166 1581.16 958.202C1460.38 1169.69 1395.17 1331.72 1405.69 1425.81C1418.8 1543.01 1518.47 1509.71 1643.99 1499.07C1713.61 1493.17 1797.18 1482.48 1867.83 1507.61C2065.43 1577.88 1912.09 1829.92 1956.99 2062.86C1962.73 2092.66 1968.87 2123.66 1978.23 2154C2023.32 2300.3 2109.82 2343.02 2237.29 2346.73C2311.2 2348.87 2392.57 2327.29 2437.95 2351.33C2476.7 2371.86 2492.85 2412.51 2482.62 2486.9C2462.91 2630.08 2344.28 2814.44 2246.97 2978.11C2136.85 3163.32 2044.99 3326.62 2115.11 3406.83C2178.75 3479.63 2383.59 3485.89 3077.64 3110.18M1909.1 437.643C1794.27 610.771 1687.08 788.59 1589.79 959.431C1468.8 1171.87 1402.25 1334.9 1407.82 1431.64C1414.89 1554.69 1505.31 1528.26 1627.3 1521.42C1695.45 1517.61 1780.4 1505.76 1853.79 1528.09C2056.01 1589.65 1921.88 1825.43 1967.92 2055.54C1973.92 2085.51 1979.61 2117.14 1988.12 2148.32C2028.88 2297.68 2104.21 2350.69 2231.28 2357.34C2305.3 2361.22 2389.05 2336.74 2433.6 2362.43C2471.3 2384.19 2485.02 2426.41 2472.44 2501.95C2448.27 2646.96 2326.11 2833.49 2230.2 2996.72C2122.27 3180.42 2036.82 3340.06 2115.52 3416.65C2186.06 3485.32 2397.59 3488.22 3089.11 3117.77M1917.45 432.231C1804.76 604.947 1698.17 785 1598.41 960.64C1477.21 1174.02 1409.22 1338.2 1409.93 1437.46C1410.86 1566.55 1492.13 1546.83 1610.59 1543.78C1677.29 1542.06 1763.57 1529.06 1839.71 1548.57C2046.44 1601.55 1931.66 1820.93 1978.81 2048.24C1985.06 2078.37 1990.3 2110.6 1997.96 2142.66C2034.4 2295.03 2098.55 2358.39 2225.24 2367.97C2299.35 2373.58 2383.78 2348.95 2429.22 2373.54C2467.32 2394.17 2477.18 2440.31 2462.23 2517.02C2433.61 2663.82 2307.91 2852.54 2213.42 3015.32C2107.66 3197.51 2028.55 3353.55 2115.91 3426.47C2193.29 3491.06 2411.56 3490.55 3100.56 3125.34M1925.81 426.822C1815.25 599.122 1709.26 781.404 1607.04 961.853C1485.62 1176.18 1416.07 1341.62 1412.05 1443.27C1406.71 1578.55 1478.98 1565.42 1593.89 1566.11C1659.15 1566.5 1746.72 1552.39 1825.65 1569.04C2036.77 1613.58 1941.49 1816.39 1989.71 2040.91C1996.22 2071.21 2001 2104.05 2007.82 2136.98C2039.99 2292.3 2092.91 2366.08 2219.2 2378.59C2293.41 2385.94 2380.02 2358.65 2424.84 2384.64C2462.08 2406.23 2469.34 2454.19 2452.02 2532.08C2418.97 2680.68 2289.7 2871.59 2196.63 3033.94C2093.05 3214.61 2020.22 3367.13 2116.29 3436.29C2200.46 3496.88 2425.53 3492.88 3112 3132.92M1934.17 421.414C1825.75 593.303 1720.36 777.813 1615.67 963.071C1494.02 1178.34 1422.8 1345.16 1414.18 1449.11C1402.44 1590.69 1465.84 1584.07 1577.21 1588.47C1641.02 1590.98 1729.84 1575.78 1811.6 1589.52C2027.04 1625.74 1951.35 1811.85 2000.63 2033.61C2007.4 2064.07 2011.73 2097.5 2017.69 2131.32C2045.6 2289.57 2087.27 2373.8 2213.17 2389.22C2287.48 2398.31 2378.45 2365.03 2420.48 2395.76C2455.06 2421.05 2461.52 2468.09 2441.82 2547.16C2404.35 2697.55 2271.52 2890.64 2179.86 3052.56C2078.46 3231.7 2018.09 3371.37 2116.7 3446.12C2202.2 3510.94 2439.51 3495.23 3123.46 3140.52M1942.53 416.001C1836.23 587.474 1731.43 774.224 1624.29 964.28C1502.42 1180.47 1429.42 1348.75 1416.3 1454.92C1398.02 1602.92 1452.69 1602.75 1560.51 1610.81C1622.88 1615.47 1712.92 1599.2 1797.53 1610C2017.2 1638.04 1961.23 1807.29 2011.52 2026.3C2018.56 2056.91 2022.45 2090.94 2027.55 2125.64C2051.23 2286.78 2081.62 2381.52 2207.14 2399.82C2281.54 2410.68 2374.93 2374.41 2416.11 2406.85C2449.66 2433.29 2453.7 2481.95 2431.62 2562.2C2389.74 2714.37 2253.32 2909.67 2163.09 3071.14C2063.85 3248.74 2003.44 3394.46 2117.1 3455.92C2214.7 3508.69 2453.5 3497.54 3134.93 3148.07M1950.88 410.604C1846.72 581.666 1742.51 770.636 1632.91 965.505C1510.8 1182.64 1435.91 1352.44 1418.42 1460.75C1393.46 1615.24 1439.54 1621.5 1543.81 1633.17C1604.74 1639.99 1695.98 1622.68 1783.47 1630.48C2007.29 1650.47 1971.14 1802.72 2022.42 2018.99C2029.72 2049.76 2033.16 2084.37 2037.41 2119.97C2056.91 2283.97 2075.96 2389.26 2201.11 2410.46C2275.6 2423.08 2371.42 2383.8 2411.73 2417.96C2444.27 2445.55 2445.89 2495.84 2421.42 2577.27C2375.14 2731.21 2235.11 2928.7 2146.3 3089.76C2049.23 3265.83 1994.97 3408.25 2117.48 3465.75C2221.76 3514.69 2467.46 3499.87 3146.37 3155.66M1959.23 405.191C1857.22 575.841 1753.57 767.038 1641.53 966.714C1519.18 1184.78 1442.32 1356.13 1420.54 1466.57C1388.76 1627.62 1426.39 1640.26 1527.11 1655.5C1586.62 1664.51 1679.01 1646.17 1769.41 1650.95C1997.33 1663 1981.09 1798.11 2033.33 2011.67C2040.9 2042.6 2043.91 2077.78 2047.26 2114.29C2062.61 2281.12 2070.31 2396.99 2195.07 2421.07C2269.65 2435.45 2367.91 2393.15 2407.35 2429.06C2438.87 2457.76 2438.07 2509.71 2411.2 2592.33C2360.55 2748.04 2216.89 2947.73 2129.51 3108.37C2034.59 3282.89 1986.48 3422.08 2117.87 3475.56C2228.8 3520.72 2481.43 3502.2 3157.81 3163.23M1967.6 399.783C1867.71 570.018 1764.64 763.434 1650.16 967.942C1527.56 1186.93 1448.64 1359.88 1422.65 1472.4C1383.94 1640.03 1413.22 1659.11 1510.4 1677.87C1568.48 1689.09 1662.02 1669.74 1755.34 1671.45C1987.29 1675.69 1991.05 1793.51 2044.23 2004.39C2052.06 2035.47 2054.64 2071.24 2057.11 2108.65C2068.35 2278.28 2064.63 2404.78 2189.03 2431.71C2263.7 2447.87 2364.41 2402.52 2402.98 2440.19C2433.49 2470 2430.28 2523.6 2400.99 2607.41C2345.97 2764.89 2198.67 2966.77 2112.73 3126.99C2019.96 3299.96 1977.99 3435.97 2118.25 3485.39C2235.82 3526.81 2495.4 3504.54 3169.26 3170.82M1975.95 394.37C1878.2 564.193 1775.7 759.837 1658.78 969.151C1535.93 1189.07 1454.88 1363.6 1424.77 1478.21C1379 1652.45 1400.06 1677.98 1493.71 1700.21C1550.35 1713.66 1645.02 1693.32 1741.28 1691.91C1977.23 1688.44 2001.04 1788.86 2055.13 1997.06C2063.24 2028.3 2065.38 2064.64 2066.97 2102.97C2074.12 2275.37 2058.97 2412.55 2183 2442.33C2257.75 2460.28 2360.92 2411.84 2398.6 2451.29C2428.12 2482.19 2422.48 2537.47 2390.79 2622.46C2331.42 2781.71 2180.44 2985.79 2095.95 3145.6C2005.32 3317.02 1969.47 3449.9 2118.65 3495.21C2242.84 3532.94 2509.38 3506.87 3180.71 3178.4M1984.31 388.961C1888.69 558.37 1786.77 756.229 1667.41 970.365C1544.31 1191.21 1461.06 1367.34 1426.89 1484.04C1373.97 1664.86 1386.89 1696.91 1477.02 1722.56C1532.23 1738.28 1628.01 1716.97 1727.23 1712.38C1967.14 1701.31 2011.07 1784.2 2066.04 1989.75C2074.43 2021.13 2076.15 2058.05 2076.85 2097.28C2079.94 2272.45 2053.31 2420.31 2176.98 2452.93C2251.82 2472.66 2357.46 2421.14 2394.25 2462.37C2422.78 2494.35 2414.71 2551.32 2380.61 2637.5C2316.89 2798.52 2162.24 3004.78 2079.2 3164.18C1990.7 3334.05 1960.97 3463.85 2119.07 3505.01C2249.87 3539.06 2523.38 3509.17 3192.19 3185.95M1992.67 383.553C1899.19 552.55 1797.83 752.632 1676.04 971.578C1552.67 1193.35 1467.18 1371.05 1429.02 1489.86C1368.82 1677.25 1373.7 1715.9 1460.32 1744.91C1514.09 1762.91 1610.98 1740.65 1713.17 1732.86C1957.01 1714.29 2021.12 1779.52 2076.95 1982.43C2085.63 2013.95 2086.92 2051.45 2086.71 2091.6C2085.78 2269.51 2047.64 2428.1 2170.96 2463.54C2245.86 2485.08 2354 2430.43 2389.88 2473.48C2417.43 2506.53 2406.93 2565.19 2370.4 2652.57C2302.35 2815.36 2144 3023.8 2062.41 3182.8C1976.04 3351.1 1952.43 3477.86 2119.45 3514.83C2256.86 3545.25 2537.35 3511.51 3203.64 3193.53M2001.02 378.14C1909.68 546.721 1808.88 749.026 1684.66 972.792C1561.04 1195.48 1473.26 1374.75 1431.14 1495.68C1363.6 1689.6 1360.49 1734.94 1443.63 1767.26C1495.94 1787.59 1593.94 1764.38 1699.11 1753.34C1946.85 1727.35 2031.18 1774.82 2087.85 1975.12C2096.81 2006.79 2097.68 2044.85 2096.57 2085.94C2091.65 2266.57 2041.95 2435.91 2164.92 2474.18C2239.91 2497.51 2350.55 2439.72 2385.5 2484.6C2412.08 2518.71 2399.15 2579.08 2360.19 2667.64C2287.81 2832.2 2125.75 3042.83 2045.63 3201.41C1961.38 3368.15 1943.89 3491.92 2119.85 3524.64C2263.88 3551.44 2551.32 3513.84 3215.1 3201.11M2009.38 372.732C1920.17 540.902 1819.93 745.42 1693.29 974.005C1569.41 1197.62 1479.3 1378.41 1433.26 1501.49C1358.29 1701.92 1347.26 1754.04 1426.93 1789.59C1477.78 1812.29 1576.89 1788.12 1685.05 1773.81C1936.69 1740.49 2041.28 1770.1 2098.76 1967.8C2108.01 1999.62 2108.47 2038.25 2106.43 2080.26C2097.55 2263.59 2036.27 2443.71 2158.89 2484.78C2233.94 2509.92 2347.11 2448.98 2381.14 2495.68C2406.75 2530.84 2391.39 2592.94 2350 2682.68C2273.3 2849.01 2107.51 3061.81 2028.86 3219.99C1946.73 3385.18 1935.35 3505.97 2120.26 3534.44C2270.89 3557.65 2565.32 3516.15 3226.57 3208.66M2017.73 367.33C1930.65 535.084 1830.96 741.821 1701.91 975.225C1577.76 1199.76 1485.31 1382.04 1435.38 1507.32C1352.93 1714.18 1333.99 1773.2 1410.22 1811.95C1459.59 1837.03 1559.84 1811.93 1670.98 1794.29C1926.5 1753.74 2051.38 1765.38 2109.66 1960.5C2119.2 1992.45 2119.24 2031.66 2116.28 2074.6C2103.47 2260.64 2030.57 2451.55 2152.85 2495.42C2227.97 2522.38 2343.67 2458.25 2376.75 2506.82C2401.41 2543.01 2383.6 2606.85 2339.78 2697.77C2258.77 2865.88 2089.25 3080.84 2012.07 3238.64C1932.04 3402.25 1926.79 3520.1 2120.63 3544.3C2277.88 3563.93 2579.27 3518.51 3237.99 3216.28M2026.09 361.921C1941.15 529.264 1842.02 738.204 1710.53 976.449C1586.11 1201.9 1491.3 1385.65 1437.49 1513.15C1347.5 1726.42 1329.52 1779.27 1393.52 1834.3C1435.59 1870.48 1542.78 1835.77 1656.91 1814.78C1916.31 1767.06 2061.5 1760.64 2120.55 1953.2C2130.39 1985.28 2130.02 2025.07 2126.14 2068.94C2109.42 2257.67 2024.87 2459.39 2146.82 2506.05C2222.01 2534.82 2340.25 2467.51 2372.38 2517.93C2396.1 2555.14 2375.84 2620.73 2329.57 2712.84C2244.25 2882.73 2070.98 3099.85 1995.28 3257.24C1917.35 3419.28 1918.24 3534.22 2121.02 3554.11C2284.88 3570.18 2593.24 3520.84 3249.44 3223.85M2034.45 356.513C1951.64 523.441 1853.06 734.594 1719.16 977.667C1594.46 1204.04 1497.29 1389.2 1439.63 1518.97C1342.05 1738.57 1316.31 1798.94 1376.84 1856.65C1417.23 1895.16 1525.73 1859.65 1642.87 1835.25C1906.15 1780.43 2071.68 1755.87 2131.48 1945.88C2141.62 1978.09 2140.84 2018.45 2136.02 2063.26C2115.42 2254.68 2019.2 2467.21 2140.82 2516.66C2216.07 2547.26 2336.88 2476.73 2368.04 2529.02C2390.82 2567.26 2368.1 2634.6 2319.41 2727.88C2229.78 2899.57 2052.75 3118.84 1978.54 3275.84C1902.69 3436.3 1909.73 3548.35 2121.45 3563.92C2291.91 3576.46 2607.26 3523.16 3260.94 3231.42M2042.8 351.101C1962.13 517.617 1864.08 730.986 1727.78 978.876C1602.81 1206.16 1503.25 1392.71 1441.74 1524.8C1336.55 1750.66 1302.95 1818.76 1360.14 1879C1398.88 1919.8 1508.68 1883.54 1628.8 1855.73C1895.96 1793.86 2081.84 1751.09 2142.38 1938.57C2152.82 1970.91 2151.63 2011.84 2145.87 2057.58C2121.41 2251.7 2013.48 2475.05 2134.77 2527.28C2210.08 2559.7 2333.48 2485.95 2363.65 2540.12C2385.51 2579.37 2360.33 2648.5 2309.19 2742.95C2215.26 2916.43 2034.45 3137.83 1961.75 3294.45C1887.98 3453.34 1901.18 3562.52 2121.83 3573.74C2298.91 3582.74 2621.22 3525.48 3272.37 3238.99M2051.17 345.692C1972.63 511.792 1875.12 727.371 1736.41 980.089C1611.15 1208.29 1509.22 1396.19 1443.86 1530.61C1331.02 1762.68 1280.62 1850.41 1343.44 1901.34C1386.65 1936.37 1491.62 1907.47 1614.73 1876.2C1885.78 1807.35 2092.03 1746.29 2153.27 1931.25C2164.02 1963.72 2162.43 2005.24 2155.72 2051.91C2127.42 2248.71 2007.75 2482.9 2128.73 2537.89C2204.1 2572.15 2330.09 2495.15 2359.27 2551.22C2380.22 2591.48 2352.56 2662.38 2298.97 2758.01C2200.76 2933.29 2016.15 3156.84 1944.96 3313.05C1873.27 3470.37 1892.63 3576.69 2122.22 3583.55C2305.91 3589.04 2635.19 3527.8 3283.82 3246.56M2059.52 340.28C1983.12 505.969 1886.14 723.753 1745.03 981.299C1619.5 1210.42 1515.17 1399.63 1445.97 1536.43C1325.47 1774.66 1267.17 1869.85 1326.74 1923.68C1368.34 1961.29 1474.55 1931.44 1600.67 1896.68C1875.62 1820.89 2102.23 1741.47 2164.17 1923.95C2175.23 1956.54 2173.24 1998.64 2165.57 2046.24C2133.45 2245.74 2002.02 2490.77 2122.69 2548.52C2198.1 2584.62 2326.73 2504.36 2354.9 2562.33C2374.94 2603.58 2344.8 2676.27 2288.77 2773.06C2186.26 2950.15 1997.86 3175.82 1928.18 3331.66C1858.55 3487.4 1884.09 3590.89 2122.61 3593.37C2312.93 3595.36 2649.17 3530.13 3295.28 3254.14M2067.88 334.871C1993.62 500.149 1897.17 720.134 1753.67 982.516C1627.85 1212.55 1521.14 1403.04 1448.11 1542.25C1319.93 1786.58 1253.7 1889.31 1310.05 1946.02C1350.02 1986.24 1457.52 1955.42 1586.63 1917.14C1865.49 1834.46 2112.48 1736.61 2175.1 1916.62C2186.47 1949.32 2184.07 1992.02 2175.46 2040.54C2139.54 2242.75 1996.33 2498.61 2116.68 2559.12C2192.14 2597.06 2323.4 2513.52 2350.54 2573.42C2369.68 2615.67 2337.06 2690.16 2278.58 2788.11C2171.78 2967.02 1979.56 3194.81 1911.41 3350.25C1843.84 3504.41 1875.58 3605.07 2123.01 3603.17C2319.95 3601.66 2663.15 3532.43 3306.74 3261.7M2076.24 329.463C2004.11 494.325 1908.2 716.515 1762.29 983.73C1636.2 1214.68 1527.1 1406.42 1450.23 1548.08C1314.35 1798.45 1240.16 1908.84 1293.35 1968.38C1331.64 2011.25 1440.47 1979.45 1572.56 1937.63C1855.36 1848.1 2122.72 1731.78 2186 1909.32C2197.7 1942.13 2194.91 1985.42 2185.32 2034.88C2145.63 2239.78 1990.6 2506.49 2110.66 2569.74C2186.17 2609.53 2320.08 2522.7 2346.18 2584.52C2364.44 2627.75 2329.32 2704.06 2268.39 2803.17C2157.3 2983.9 1961.26 3213.8 1894.65 3368.85C1829.11 3521.43 1867.06 3619.3 2123.43 3612.99C2326.99 3607.98 2677.14 3534.77 3318.21 3269.27M2084.59 324.05C2014.6 488.501 1919.21 712.899 1770.91 984.95C1644.52 1216.81 1533.06 1409.75 1452.34 1553.89C1308.77 1810.25 1226.56 1928.37 1276.65 1990.73C1313.22 2036.27 1423.43 2003.47 1558.49 1958.1C1845.23 1861.76 2132.97 1726.9 2196.9 1902C2208.92 1934.92 2205.72 1978.82 2195.17 2029.21C2151.71 2236.83 1984.86 2514.37 2104.61 2580.37C2180.16 2622 2316.74 2531.89 2341.8 2595.64C2359.17 2639.86 2321.55 2717.97 2258.17 2818.25C2142.79 3000.8 1942.91 3232.8 1877.85 3387.48C1814.35 3538.47 1858.51 3633.54 2123.79 3622.82C2333.99 3614.33 2691.09 3537.12 3329.63 3276.87M2092.95 318.653C2025.08 482.688 1930.22 709.287 1779.53 986.179C1652.86 1218.94 1539.04 1413.09 1454.46 1559.74C1303.19 1822.04 1212.93 1947.96 1259.95 2013.09C1294.77 2061.33 1406.4 2027.56 1544.43 1978.59C1835.14 1875.48 2143.25 1722.03 2207.8 1894.71C2220.15 1927.73 2216.55 1972.23 2205.03 2023.56C2157.81 2233.9 1979.12 2522.27 2098.57 2591.01C2174.16 2634.5 2313.43 2541.07 2337.42 2606.76C2353.92 2651.95 2313.79 2731.91 2247.97 2833.32C2128.3 3017.7 1924.56 3251.81 1861.08 3406.09C1799.59 3555.51 1849.99 3647.78 2124.19 3632.65C2341.03 3620.67 2705.07 3539.45 3341.1 3284.45M2101.3 313.24C2035.57 476.874 1940.86 705.522 1788.16 987.387C1660.89 1220.95 1545.02 1416.35 1456.58 1565.55C1297.62 1833.73 1199.26 1967.54 1243.25 2035.44C1276.27 2086.4 1389.37 2051.64 1530.36 1999.07C1825.07 1889.19 2153.53 1717.13 2218.69 1887.4C2231.38 1920.53 2227.38 1965.63 2214.88 2017.89C2163.92 2230.95 1973.36 2530.16 2092.54 2601.62C2168.16 2646.98 2310.14 2550.23 2333.04 2617.87C2348.68 2664.05 2306.03 2745.81 2237.76 2848.38C2113.8 3034.61 1906.21 3270.81 1844.29 3424.71C1784.81 3572.56 1841.46 3662.04 2124.58 3642.48C2348.05 3627.03 2719.04 3541.79 3352.55 3292.04M2109.66 307.831C2046.06 471.051 1951.91 701.92 1796.78 988.601C1669.26 1223.09 1551.01 1419.6 1458.7 1571.37C1292.04 1845.4 1185.54 1987.15 1226.56 2057.78C1257.74 2111.49 1372.35 2075.73 1516.31 2019.55C1815.02 1902.94 2163.84 1712.22 2229.6 1880.09C2242.62 1913.32 2238.22 1959.05 2224.75 2012.21C2170.07 2228.02 1967.62 2538.05 2086.51 2612.25C2162.17 2659.46 2306.86 2559.39 2328.69 2628.97C2343.47 2676.12 2298.29 2759.73 2227.56 2863.44C2099.32 3051.51 1887.84 3289.81 1827.52 3443.31C1770.04 3589.58 1832.94 3676.29 2124.98 3652.27C2355.09 3633.36 2733.03 3544.09 3364 3299.6M2118.02 302.423C2056.56 465.231 1962.96 698.315 1805.41 989.815C1677.63 1225.23 1557 1422.82 1460.83 1577.19C1286.48 1857.02 1171.78 2006.76 1209.87 2080.12C1239.18 2136.59 1355.36 2099.85 1502.25 2040.01C1805 1916.7 2174.17 1707.27 2240.52 1872.76C2253.87 1906.08 2249.07 1952.43 2234.62 2006.52C2176.22 2225.09 1962.63 2544.79 2080.49 2622.84C2155.7 2672.65 2303.61 2568.51 2324.32 2640.05C2338.26 2688.19 2290.54 2773.63 2217.37 2878.49C2084.84 3068.42 1869.46 3308.79 1810.75 3461.89C1755.25 3606.59 1824.44 3690.52 2125.39 3662.07C2362.15 3639.7 2747.02 3546.4 3375.47 3307.15M2126.37 297.01C2067.04 459.402 1974.01 694.709 1814.04 991.028C1686 1227.38 1563.01 1426.02 1462.95 1583C1280.91 1868.59 1157.97 2026.36 1193.16 2102.47C1220.56 2161.71 1338.35 2123.97 1488.19 2060.49C1794.99 1930.48 2184.5 1702.31 2251.42 1865.45C2265.12 1898.86 2259.91 1945.85 2244.48 2000.86C2182.36 2222.19 1956.13 2553.83 2074.46 2633.47C2150.16 2684.42 2300.36 2577.67 2319.95 2651.16C2333.04 2700.27 2282.79 2787.55 2207.17 2893.55C2070.35 3085.33 1851.08 3327.79 1793.98 3480.51C1740.45 3623.65 1815.94 3704.79 2125.79 3671.9C2369.19 3646.06 2761 3548.74 3386.94 3314.73M2134.74 291.602C2077.54 453.583 1985.06 691.107 1822.67 992.242C1694.38 1229.52 1569.03 1429.19 1465.07 1588.83C1275.36 1880.14 1144.12 2045.97 1176.47 2124.81C1201.91 2186.84 1321.36 2148.11 1474.12 2080.96C1785 1944.3 2194.85 1697.35 2262.32 1858.14C2276.37 1891.63 2270.76 1939.26 2254.33 1995.19C2188.52 2219.3 1950.12 2562.11 2068.42 2644.1C2144 2697.15 2297.11 2586.82 2315.57 2662.28C2327.82 2712.36 2275.13 2801.58 2196.96 2908.63C2056.04 3102.44 1832.66 3346.82 1777.19 3499.13C1725.64 3640.7 1807.43 3719.08 2126.18 3681.73C2376.24 3652.43 2774.97 3551.08 3398.38 3322.33M2143.09 286.189C2088.03 447.754 1996.11 687.497 1831.28 993.461C1702.73 1231.66 1575.04 1432.35 1467.18 1594.65C1269.81 1891.65 1130.24 2065.57 1159.77 2147.16C1183.24 2211.97 1304.39 2172.28 1460.07 2101.43C1775.05 1958.11 2205.22 1692.35 2273.23 1850.82C2287.64 1884.38 2281.61 1932.66 2264.19 1989.51C2194.68 2216.41 1944.43 2569.88 2062.39 2654.7C2138.03 2709.55 2293.88 2595.95 2311.2 2673.36C2322.63 2724.41 2267.34 2815.45 2186.75 2923.66C2041.48 3119.29 1814.23 3365.81 1760.41 3517.72C1710.8 3657.73 1798.72 3734.02 2126.57 3691.53C2383.13 3659.31 2788.94 3553.4 3409.83 3329.88M2151.45 280.781C2098.53 441.935 2007.16 683.895 1839.91 994.675C1711.1 1233.8 1581.08 1435.48 1469.3 1600.48C1264.26 1903.14 1116.31 2085.15 1143.07 2169.52C1164.51 2237.12 1287.4 2196.46 1446 2121.92C1765.11 1971.94 2215.9 1687.06 2284.12 1843.52C2298.95 1877.1 2292.53 1926.09 2274.05 1983.84C2201.16 2213.53 1938.72 2577.69 2056.35 2665.33C2132.06 2721.98 2290.65 2605.1 2306.83 2684.48C2317.42 2736.52 2259.54 2829.38 2176.55 2938.73C2026.92 3136.18 1795.61 3384.83 1743.63 3536.33C1695.79 3674.8 1790.32 3747.96 2126.96 3701.35C2390.26 3665.41 2802.91 3555.73 3421.29 3337.46M2159.8 275.379C2109.01 436.122 2018.19 680.296 1848.53 995.899C1482.21 1677.27 1089.31 2057.32 1126.37 2191.87C1184.57 2403.1 2191.45 1605.48 2295.03 1836.22C2370.14 2003.53 1903.45 2562.67 2050.33 2675.97C2126.1 2734.42 2287.45 2614.26 2302.45 2695.61C2329.87 2844.2 1805.32 3320.08 1726.85 3554.97C1645.34 3798.91 2029.06 3830.59 3432.73 3345.07" stroke="#F07C28" stroke-miterlimit="10"/>
</svg>
