<svg width="3244" height="1987" viewBox="0 0 3244 1987" fill="none" xmlns="http://www.w3.org/2000/svg">
<path d="M1 956.23C131.709 913.562 279.06 899.671 370.359 1011.11C438.536 1094.32 422.515 1182.79 494.439 1213.74C590.16 1254.93 691.268 1129.53 933.201 988.172C1131.49 872.313 1230.64 814.376 1314.55 824.756C1561 855.232 1435.18 1382.14 1659.5 1487.8C1907.1 1604.42 2240.13 1047.14 2493.17 1136.25C2604.7 1175.53 2720.86 1347.5 2689.72 1986.27M9.13648 939.148C136.555 901.202 280.497 890.982 370.1 1002.45C437.099 1086.35 422.256 1174.58 493.96 1205.37C590.238 1246.69 691.802 1119.77 932.156 980.942C947.439 972.149 962.157 963.725 976.349 955.677C1144.95 859.328 1234.04 814.889 1311.06 826.199C1410.52 840.812 1449.32 935.461 1476.69 1049.66C1516.45 1214.34 1529.79 1416.6 1661.94 1476.34C1735.05 1509.14 1815.24 1485.15 1898.35 1438.68C2097.23 1327.45 2307.96 1082.88 2484.56 1146.89C2496.05 1151.08 2507.62 1156.64 2519.11 1163.91C2617.89 1226.49 2709.81 1418.49 2691.04 1967.74M17.2728 922.059C141.392 888.826 282.287 881.997 369.84 993.767C435.937 1078.14 422.004 1166.35 493.481 1196.99C590.317 1238.43 692.328 1109.98 931.119 973.696C946.395 965.047 961.152 956.831 975.359 948.928C1143.5 855.369 1230.94 814.553 1307.57 827.626C1405.5 844.331 1444.66 937.866 1473.71 1050.24C1516.25 1212.4 1532.35 1408.14 1664.39 1464.87C1737.56 1496.32 1817.63 1472.29 1900.26 1428.23C2098.02 1322.8 2301.35 1091.98 2475.96 1157.5C2487.37 1161.78 2498.87 1167.4 2510.34 1174.64C2608.56 1236.7 2701.99 1423.14 2692.37 1949.17M25.4092 904.969C146.238 876.457 283.89 873.163 369.581 985.094C434.633 1070.06 421.753 1158.12 493.01 1188.6C590.403 1230.17 692.517 1099.54 930.091 966.45C945.342 957.905 960.147 949.921 974.378 942.186C1141.9 851.144 1227.83 814.216 1304.08 829.053C1400.46 847.809 1439.7 940.343 1470.74 1050.81C1515.63 1210.58 1535 1399.47 1666.84 1453.4C1740.12 1483.38 1820.01 1459.41 1902.19 1417.79C2098.81 1318.15 2294.69 1101.27 2467.38 1168.12C2478.7 1172.51 2490.15 1178.18 2501.59 1185.38C2599.24 1246.91 2694.19 1427.79 2693.72 1930.62M33.5535 887.888C151.084 864.09 285.5 864.354 369.33 976.421C433.337 1061.99 421.51 1149.9 492.538 1180.23C590.489 1221.93 692.956 1089.55 929.062 959.212C944.298 950.803 959.133 943.012 973.396 935.445C1140.29 846.912 1224.71 813.855 1300.6 830.488C1395.41 851.265 1434.96 942.788 1467.78 1051.39C1515.32 1208.69 1537.68 1390.81 1669.3 1441.94C1742.7 1470.45 1822.42 1446.56 1904.12 1407.36C2099.61 1313.52 2288.04 1110.6 2458.79 1178.76C2470.04 1183.25 2481.41 1188.98 2492.84 1196.15C2589.93 1257.15 2686.4 1432.47 2695.07 1912.09M41.6899 870.799C155.93 851.721 287.094 855.545 369.071 967.748C432.026 1053.92 421.258 1141.67 492.067 1171.85C590.576 1213.68 693.404 1079.58 928.033 951.974C943.253 943.693 958.128 936.102 972.414 928.704C1138.67 842.672 1221.55 813.47 1297.12 831.922C1390.35 854.679 1430.21 945.232 1464.8 1051.98C1514.99 1206.82 1540.35 1382.15 1671.75 1430.48C1745.27 1457.52 1824.81 1433.7 1906.04 1396.92C2100.41 1308.87 2281.38 1119.91 2450.21 1189.38C2461.37 1193.98 2472.68 1199.76 2484.08 1206.89C2580.6 1267.36 2678.6 1437.13 2696.42 1893.54M49.8264 853.709C160.767 839.345 288.68 846.743 368.812 959.075C430.714 1045.86 421.007 1133.45 491.588 1163.47C590.654 1205.42 693.844 1069.61 926.996 944.727C942.209 936.583 957.107 929.185 971.425 921.963C1137.03 838.423 1218.38 813.07 1293.63 833.349C1385.26 858.046 1425.45 947.669 1461.82 1052.55C1514.66 1204.94 1543.04 1373.47 1674.2 1419.01C1747.84 1444.58 1827.19 1420.83 1907.95 1386.48C2101.19 1304.22 2274.7 1129.23 2441.6 1200C2452.68 1204.7 2463.92 1210.54 2475.31 1217.63C2571.26 1277.57 2670.77 1441.79 2697.74 1874.98M57.9628 836.62C165.613 826.969 290.267 837.95 368.552 950.394C429.403 1037.8 420.756 1125.22 491.117 1155.08C590.741 1197.17 694.307 1059.65 925.967 937.481C941.164 929.465 956.094 922.267 970.443 915.213C1135.39 834.151 1215.19 812.629 1290.14 834.776C1380.17 861.372 1420.72 950.114 1458.85 1053.13C1514.35 1203.06 1545.72 1364.78 1676.65 1407.54C1750.42 1431.62 1829.57 1407.96 1909.88 1376.04C2101.99 1299.57 2268.04 1138.56 2433.01 1210.62C2444.01 1215.43 2455.19 1221.32 2466.55 1228.37C2561.94 1287.78 2662.97 1446.45 2699.09 1856.43M66.0992 819.538C170.451 814.608 291.838 829.181 368.293 941.729C428.083 1029.76 420.504 1116.99 490.638 1146.71C590.819 1188.92 694.763 1049.71 924.931 930.251C940.12 922.371 955.073 915.365 969.453 908.488C1133.73 829.902 1211.97 812.188 1286.66 836.219C1375.06 864.666 1415.97 952.574 1455.87 1053.72C1514.04 1201.21 1548.43 1356.11 1679.1 1396.08C1753.01 1418.69 1831.96 1395.11 1911.79 1365.61C2102.77 1294.94 2261.37 1147.92 2424.42 1221.25C2435.33 1226.16 2446.45 1232.11 2457.8 1239.13C2552.61 1298.01 2655.17 1451.12 2700.43 1837.89M74.2356 802.449C175.297 802.232 293.408 820.412 368.034 933.048C426.764 1021.7 420.245 1108.76 490.167 1138.32C590.906 1180.66 695.234 1039.75 923.902 923.005C939.075 915.254 954.06 908.448 968.471 901.739C1132.07 825.614 1208.75 811.699 1283.18 837.646C1369.96 867.905 1411.25 955.019 1452.9 1054.3C1513.74 1199.34 1551.14 1347.4 1681.55 1384.61C1755.61 1405.74 1834.36 1382.24 1913.73 1355.16C2103.58 1290.29 2254.71 1157.26 2415.83 1231.87C2426.66 1236.88 2437.71 1242.89 2449.04 1249.87C2543.29 1308.22 2647.37 1455.78 2701.77 1819.34M82.372 785.36C180.135 789.864 294.971 811.643 367.775 924.376C425.444 1013.67 419.994 1100.54 489.687 1129.95C590.984 1172.41 695.705 1029.82 922.865 915.767C938.031 908.152 953.039 901.539 967.482 895.006C1130.4 821.326 1205.52 811.194 1279.68 839.089C1364.83 871.111 1406.52 957.48 1449.92 1054.89C1513.45 1197.48 1553.85 1338.71 1684 1373.15C1758.19 1392.79 1836.74 1369.38 1915.63 1344.73C2104.36 1285.65 2248.03 1166.63 2407.23 1242.5C2417.98 1247.62 2428.97 1253.68 2440.28 1260.62C2533.96 1318.44 2639.55 1460.44 2703.11 1800.8M90.5084 768.278C184.98 777.496 296.526 802.897 367.516 915.71C424.109 1005.65 419.743 1092.32 489.216 1121.58C591.071 1164.17 696.192 1019.91 921.828 908.536C936.986 901.058 952.01 894.629 966.492 888.273C1128.71 817.037 1202.28 810.665 1276.19 840.523C1359.71 874.261 1401.8 959.933 1446.95 1055.47C1513.17 1195.62 1556.59 1329.99 1686.45 1361.69C1760.79 1379.83 1839.12 1356.52 1917.56 1334.29C2105.15 1281.01 2241.36 1176 2398.64 1253.12C2409.3 1258.35 2420.23 1264.46 2431.52 1271.36C2524.64 1328.65 2631.75 1465.1 2704.45 1782.24M98.6448 751.189C189.826 765.12 298.073 794.153 367.256 907.03C422.774 997.623 419.491 1084.09 488.737 1113.19C591.141 1155.92 696.679 1009.99 920.792 901.291C935.934 893.948 950.989 887.712 965.503 881.524C1127.01 812.717 1199.03 810.088 1272.7 841.95C1354.58 877.364 1397.08 962.386 1443.96 1056.05C1512.89 1193.75 1559.31 1321.26 1688.89 1350.22C1763.39 1366.87 1841.5 1343.65 1919.47 1323.85C2105.94 1276.35 2234.68 1185.38 2390.04 1263.74C2400.61 1269.07 2411.48 1275.24 2422.74 1282.11C2515.29 1338.88 2623.93 1469.76 2705.77 1763.69M106.781 734.099C194.664 752.752 299.613 785.415 366.989 898.357C421.431 989.599 419.232 1075.86 488.258 1104.81C591.22 1147.65 697.174 1000.08 919.755 894.044C934.889 886.83 949.96 880.786 964.513 874.782C1125.31 808.389 1195.77 809.487 1269.21 843.377C1349.47 880.425 1392.37 964.831 1440.99 1056.63C1512.62 1191.88 1562.04 1312.53 1691.34 1338.75C1766 1353.89 1843.89 1330.79 1921.39 1313.41C2106.73 1271.71 2228.01 1194.78 2381.45 1274.37C2391.94 1279.82 2402.75 1286.03 2413.99 1292.86C2505.98 1349.09 2616.13 1474.44 2707.12 1745.15M114.918 717.009C199.51 740.375 301.144 776.686 366.73 889.675C420.08 981.583 418.981 1067.63 487.779 1096.42C591.298 1139.4 697.669 990.184 918.719 886.798C933.845 879.72 948.939 873.868 963.524 868.033C1123.6 804.044 1192.52 808.837 1265.72 844.804C1344.35 883.439 1387.66 967.283 1438 1057.2C1512.35 1190.02 1564.79 1303.77 1693.78 1327.28C1768.6 1340.91 1846.27 1317.91 1923.3 1302.96C2107.51 1267.06 2221.33 1204.17 2372.84 1284.99C2383.25 1290.55 2393.99 1296.81 2405.22 1303.6C2496.63 1359.31 2608.3 1479.09 2708.45 1726.59M123.054 699.928C204.348 728.015 302.668 767.973 366.471 881.011C418.729 973.592 418.729 1059.42 487.3 1088.06C591.377 1131.16 698.171 980.309 917.682 879.568C932.8 872.626 947.911 866.959 962.534 861.308C1121.88 799.708 1189.27 808.188 1262.23 846.255C1339.24 886.429 1382.97 969.752 1435.03 1057.8C1512.11 1188.18 1567.53 1295.04 1696.23 1315.83C1771.22 1327.95 1848.66 1305.07 1925.21 1292.54C2108.3 1262.44 2214.65 1213.6 2364.25 1295.63C2374.58 1301.29 2385.25 1307.61 2396.46 1314.35C2487.31 1369.53 2600.51 1483.77 2709.79 1708.05M131.19 682.839C209.193 715.639 304.176 759.26 366.212 872.337C417.379 965.592 418.478 1051.19 486.829 1079.67C591.463 1122.9 698.698 970.433 916.653 872.321C931.763 865.516 946.89 860.033 961.552 854.559C1120.16 795.339 1186.03 807.482 1258.75 847.673C1334.16 889.355 1378.29 972.189 1432.06 1058.37C1511.88 1186.3 1570.3 1286.24 1698.68 1304.34C1773.84 1314.94 1851.04 1292.19 1927.14 1282.08C2109.09 1257.77 2207.97 1222.99 2355.66 1306.23C2365.9 1312.01 2376.52 1318.36 2387.69 1325.09C2477.98 1379.74 2592.69 1488.42 2711.12 1689.49M139.327 665.749C214.031 703.27 305.684 750.555 365.953 863.656C416.012 957.592 418.219 1042.95 486.35 1071.29C591.542 1114.64 699.216 960.566 915.616 865.075C930.719 858.414 945.869 853.108 960.563 847.809C1118.42 790.954 1182.8 806.737 1255.26 849.1C1329.07 892.248 1373.6 974.633 1429.07 1058.94C1511.64 1184.43 1573.06 1277.46 1701.13 1292.88C1776.45 1301.95 1853.42 1279.33 1929.05 1271.65C2109.87 1253.13 2201.27 1232.43 2347.05 1316.86C2357.21 1322.75 2367.76 1329.15 2378.92 1335.84C2468.64 1389.96 2584.88 1493.08 2712.45 1670.95M147.463 648.668C218.877 690.902 307.176 741.866 365.694 854.992C414.638 949.609 417.968 1034.74 485.878 1062.92C591.628 1106.4 699.75 950.723 914.587 857.845C929.682 851.321 944.848 846.198 959.581 841.084C1116.69 786.578 1179.58 805.992 1251.78 850.543C1324.01 895.118 1368.93 977.095 1426.11 1059.54C1511.44 1182.57 1575.84 1268.67 1703.59 1281.43C1779.09 1288.96 1855.83 1266.48 1930.99 1261.22C2110.69 1248.5 2194.6 1241.88 2338.48 1327.49C2348.55 1333.49 2359.04 1339.94 2370.19 1346.59C2459.34 1400.18 2577.09 1497.75 2713.82 1652.4M155.608 631.578C223.723 678.526 308.668 733.177 365.442 846.31C413.271 941.625 417.724 1026.5 485.407 1054.53C591.715 1098.14 700.284 940.871 913.559 850.591C928.645 844.202 943.827 839.257 958.599 834.327C1114.94 782.153 1176.37 805.174 1248.29 851.961C1318.96 897.931 1364.27 979.523 1423.14 1060.1C1511.22 1180.68 1578.6 1259.86 1706.04 1269.95C1781.71 1275.94 1858.22 1253.6 1932.9 1250.77C2111.47 1243.83 2187.91 1251.3 2329.88 1338.1C2339.87 1344.21 2350.3 1350.71 2361.42 1357.32C2450.01 1410.38 2569.27 1502.39 2715.15 1633.84M163.744 614.489C228.568 666.158 310.144 724.488 365.183 837.638C411.881 933.65 417.473 1018.28 484.936 1046.15C591.801 1089.89 700.834 931.045 912.53 843.361C927.609 837.117 942.806 832.348 957.618 827.602C1113.19 777.753 1173.19 804.365 1244.81 853.413C1313.93 900.745 1359.61 981.984 1420.17 1060.71C1511.04 1178.83 1581.38 1251.06 1708.5 1258.5C1784.34 1262.94 1860.62 1240.75 1934.84 1240.35C2112.27 1239.21 2181.23 1260.78 2321.31 1348.75C2331.21 1354.97 2341.58 1361.52 2352.68 1368.09C2440.7 1420.63 2561.49 1507.08 2716.5 1615.32M171.88 597.407C233.406 653.79 311.613 715.823 364.924 828.973C410.491 925.682 417.222 1010.06 484.457 1037.78C591.88 1081.65 701.376 921.233 911.485 836.131C926.556 830.023 941.761 825.43 956.62 820.869C1111.42 773.328 1170 803.515 1241.32 854.847C1308.91 903.502 1354.94 984.421 1417.18 1061.29C1510.83 1176.95 1584.15 1242.23 1710.93 1247.04C1786.96 1249.92 1862.99 1227.9 1936.74 1229.91C2113.04 1234.57 2174.51 1270.24 2312.69 1359.37C2322.51 1365.7 2332.81 1372.3 2343.89 1378.83C2431.35 1430.84 2553.66 1511.74 2717.82 1596.76M180.017 580.318C238.252 641.422 313.066 707.143 364.665 820.292C409.085 917.707 416.97 1001.83 483.986 1029.39C591.966 1073.39 701.925 911.414 910.456 828.877C925.528 822.913 940.74 818.489 955.639 814.12C1109.66 768.871 1166.85 802.609 1237.83 856.274C1303.91 906.236 1350.29 986.85 1414.21 1061.86C1510.64 1175.05 1586.94 1238.56 1713.39 1235.56C1789.57 1233.76 1865.38 1215.02 1938.66 1219.47C2113.84 1229.92 2167.81 1279.72 2304.1 1369.99C2313.83 1376.44 2324.07 1383.08 2335.14 1389.57C2422.02 1441.05 2545.85 1516.4 2719.17 1578.21M188.153 563.229C243.098 629.045 314.511 698.477 364.406 811.619C407.679 909.747 416.719 993.607 483.507 1021.01C592.045 1065.14 702.483 901.627 909.42 821.638C924.483 815.819 939.711 811.563 954.649 807.379C1107.89 764.414 1163.71 801.695 1234.34 857.701C1298.94 908.937 1345.65 989.279 1411.23 1062.44C1510.47 1173.15 1589.82 1229.68 1715.84 1224.09C1792.14 1220.71 1867.77 1202.15 1940.58 1209.02C2114.63 1225.27 2161.09 1289.19 2295.51 1380.61C2305.15 1387.17 2315.34 1393.85 2326.37 1400.32C2412.69 1451.27 2538.05 1521.06 2720.5 1559.66M196.29 546.139C247.935 616.669 315.948 689.812 364.146 802.938C406.258 901.779 416.468 985.375 483.035 1012.63C592.131 1056.88 703.049 891.84 908.391 814.392C923.446 808.709 938.69 804.629 953.667 800.629C1106.12 759.925 1160.62 800.733 1230.86 859.128C1293.99 911.614 1341.01 991.691 1408.25 1063.01C1510.3 1171.24 1592.47 1215.63 1718.29 1212.62C1794.84 1210.78 1870.15 1189.29 1942.5 1198.58C2115.42 1220.62 2154.38 1298.68 2286.92 1391.23C2296.47 1397.9 2306.6 1404.63 2317.62 1411.05C2403.37 1461.47 2530.24 1525.7 2721.85 1541.09M204.426 529.058C252.781 604.309 317.37 681.164 363.887 794.273C404.828 893.836 416.208 977.151 482.556 1004.25C592.209 1048.63 703.614 882.077 907.354 807.154C922.41 801.615 937.654 797.704 952.678 793.896C1104.33 755.437 1157.54 799.772 1227.37 860.571C1289.06 914.284 1336.38 994.12 1405.29 1063.61C1510.15 1169.34 1595.25 1206.76 1720.74 1201.17C1797.47 1197.74 1872.54 1176.43 1944.42 1188.15C2116.22 1215.99 2147.66 1308.19 2278.32 1401.86C2287.8 1408.65 2297.86 1415.42 2308.86 1421.81C2394.05 1471.71 2522.44 1530.39 2723.19 1522.56M212.562 511.968C257.619 591.933 318.791 672.506 363.628 785.592C403.391 885.876 415.957 968.919 482.085 995.867C592.296 1040.38 704.187 872.314 906.325 799.908C921.373 794.521 936.633 790.762 951.696 787.147C1102.56 750.924 1154.5 798.762 1223.88 861.989C1284.16 916.921 1331.74 996.525 1402.31 1064.18C1509.99 1167.41 1598.02 1197.85 1723.19 1189.69C1800.1 1184.67 1874.93 1163.56 1946.34 1177.7C2117.01 1211.32 2140.93 1317.68 2269.73 1412.47C2279.12 1419.38 2289.12 1426.2 2300.09 1432.55C2384.72 1481.91 2514.63 1535.03 2724.52 1504.01M220.699 494.879C262.465 579.565 320.189 663.858 363.369 776.919C401.938 877.925 415.706 960.695 481.606 987.491C592.374 1032.13 704.761 862.575 905.289 792.67C920.336 787.427 935.596 783.837 950.706 780.414C1100.77 746.411 1151.49 797.744 1220.39 863.432C1279.27 919.558 1327.11 998.946 1399.33 1064.77C1509.84 1165.5 1600.79 1188.96 1725.64 1178.23C1802.72 1171.61 1877.32 1150.71 1948.26 1167.27C2117.8 1206.69 2134.19 1327.21 2261.13 1423.1C2270.43 1430.13 2280.37 1436.99 2291.33 1443.3C2375.39 1492.14 2506.81 1539.7 2725.86 1485.46M228.835 477.797C267.303 567.196 321.587 655.217 363.102 768.254C400.47 869.989 415.447 952.478 481.119 979.115C592.445 1023.88 705.326 852.844 904.244 785.432C919.284 780.334 934.559 776.903 949.709 773.672C1098.98 741.866 1148.49 796.702 1216.9 864.859C1274.41 922.171 1322.48 1001.33 1396.35 1065.35C1509.69 1163.56 1603.54 1180.04 1728.08 1166.76C1805.34 1158.53 1879.7 1137.83 1950.17 1156.82C2118.59 1202.04 2127.46 1336.73 2252.54 1433.72C2261.75 1440.87 2271.63 1447.77 2282.57 1454.04C2366.07 1502.35 2499.01 1544.36 2727.2 1466.9M236.972 460.708C272.148 554.828 322.962 646.567 362.843 759.573C399.001 862.037 415.195 944.246 480.648 970.73C592.531 1015.63 705.915 843.128 903.215 778.185C918.255 773.239 933.53 769.961 948.727 766.923C1097.19 737.305 1145.56 795.627 1213.41 866.286C1269.58 924.768 1317.86 1003.73 1393.37 1065.92C1509.55 1161.6 1606.31 1171.09 1730.53 1155.29C1807.96 1145.44 1882.08 1124.97 1952.09 1146.38C2119.37 1197.39 2120.7 1346.25 2243.94 1444.35C2253.06 1451.6 2262.89 1458.55 2273.81 1464.79C2356.74 1512.57 2491.2 1549.03 2728.54 1448.36M245.108 443.618C276.986 542.452 324.336 637.919 362.584 750.9C397.525 854.102 414.944 936.022 480.169 962.354C592.61 1007.38 706.504 833.429 902.179 770.947C917.211 766.146 932.502 763.02 947.738 760.19C1095.39 732.744 1142.64 794.553 1209.93 867.729C1264.78 927.373 1313.24 1006.13 1390.39 1066.51C1509.41 1159.65 1609.06 1162.16 1732.97 1143.84C1810.57 1132.36 1884.46 1112.11 1954.01 1135.95C2120.16 1192.76 2113.95 1355.8 2235.35 1454.97C2244.38 1462.35 2254.15 1469.33 2265.04 1475.53C2347.4 1522.79 2483.38 1553.7 2729.87 1429.81M253.244 426.529C281.832 530.076 325.695 629.278 362.324 742.219C396.032 846.15 414.693 927.79 479.698 953.961C592.696 999.106 707.093 823.73 901.142 763.701C916.174 759.052 931.465 756.078 946.748 753.441C1093.6 728.151 1139.77 793.447 1206.43 869.147C1259.98 929.954 1308.61 1008.5 1387.41 1067.08C1509.27 1157.67 1611.81 1153.2 1735.42 1132.36C1813.17 1119.24 1886.84 1099.24 1955.91 1125.51C2120.94 1188.11 2107.17 1365.33 2226.74 1465.59C2235.68 1473.09 2245.39 1480.11 2256.27 1486.28C2338.06 1533 2475.57 1558.35 2731.2 1411.26M261.381 409.448C286.67 517.716 327.046 620.645 362.065 733.554C394.532 838.223 414.441 919.574 479.219 945.593C592.775 990.866 707.682 814.064 900.105 756.471C915.137 751.974 930.436 749.145 945.759 746.716C1091.81 723.558 1136.93 792.357 1202.94 870.598C1255.23 932.559 1304 1010.89 1384.44 1067.68C1509.15 1155.72 1614.55 1144.25 1737.87 1120.91C1815.79 1106.16 1889.24 1086.4 1957.85 1115.08C2121.75 1183.48 2100.41 1374.91 2218.16 1476.24C2227.01 1483.85 2236.66 1490.92 2247.52 1497.04C2328.75 1543.23 2467.77 1563.03 2732.55 1392.73M269.517 392.358C291.516 505.339 328.389 612.004 361.806 724.881C393.017 830.287 414.182 911.342 478.747 937.217C592.861 982.618 708.287 804.405 899.076 749.233C914.101 744.888 929.407 742.203 944.777 739.975C1090.03 718.941 1134.13 791.227 1199.46 872.025C1250.49 935.141 1299.38 1013.25 1381.47 1068.26C1509.02 1153.72 1617.3 1135.28 1740.32 1109.44C1818.4 1093.04 1891.62 1073.52 1959.76 1104.64C2122.53 1178.83 2093.63 1384.46 2209.57 1486.85C2218.32 1494.59 2227.93 1501.69 2238.77 1507.78C2319.42 1553.45 2459.97 1567.69 2733.89 1374.18M277.662 375.269C296.369 492.971 329.724 603.363 361.555 716.2C391.501 822.344 413.939 903.11 478.276 928.824C592.948 974.353 708.884 794.754 898.048 741.978C913.072 737.786 928.386 735.237 943.795 733.225C1088.25 714.3 1131.36 790.089 1195.98 873.452C1245.79 937.722 1294.77 1015.61 1378.5 1068.83C1508.9 1151.72 1620.04 1126.29 1742.78 1097.97C1821 1079.92 1894.02 1060.66 1961.7 1094.2C2123.33 1174.18 2086.86 1394.01 2200.98 1497.47C2209.64 1505.33 2219.19 1512.47 2230.01 1518.52C2310.1 1563.66 2452.17 1572.35 2735.24 1355.62M285.798 358.187C301.207 480.603 331.035 594.73 361.296 707.535C389.961 814.416 413.687 894.894 477.805 920.456C593.034 966.113 709.489 785.135 897.019 734.748C912.043 730.716 927.357 728.304 942.813 726.492C1086.47 709.659 1128.64 788.95 1192.5 874.894C1241.11 940.319 1290.16 1017.98 1375.53 1069.42C1508.77 1149.71 1622.76 1117.3 1745.23 1086.51C1823.6 1066.8 1896.41 1047.8 1963.61 1083.76C2124.13 1169.54 2080.06 1403.59 2192.39 1508.1C2200.97 1516.08 2210.45 1523.26 2221.25 1529.27C2300.78 1573.88 2444.36 1577.01 2736.58 1337.08M293.934 341.098C306.053 468.227 332.347 586.081 361.036 698.854C388.414 806.481 413.436 886.662 477.326 912.071C593.113 957.857 710.085 775.516 895.982 727.502C910.998 723.622 926.329 721.346 941.824 719.743C1084.68 704.986 1125.95 787.796 1189 876.313C1236.44 942.9 1285.54 1020.32 1372.54 1069.99C1508.64 1147.68 1625.47 1108.3 1747.67 1075.03C1826.19 1053.65 1898.79 1034.92 1965.52 1073.31C2124.9 1164.88 2073.25 1413.15 2183.78 1518.71C2192.26 1526.8 2201.7 1534.02 2212.48 1540C2291.44 1584.07 2436.54 1581.65 2737.91 1318.51M302.071 324.008C310.891 455.859 333.643 577.441 360.777 690.181C386.859 798.545 413.185 878.438 476.855 903.695C593.199 949.609 710.69 765.922 894.953 720.264C909.969 716.545 925.3 714.397 940.842 713.01C1082.91 700.313 1123.29 786.658 1185.52 877.756C1231.8 945.505 1280.93 1022.67 1369.57 1070.58C1508.51 1145.66 1628.19 1099.31 1750.13 1063.58C1828.78 1040.53 1901.18 1022.07 1967.45 1062.88C2125.7 1160.25 2066.45 1422.74 2175.2 1529.34C2183.59 1537.57 2192.97 1544.81 2203.72 1550.76C2282.12 1594.31 2428.74 1586.34 2739.25 1299.97M310.207 306.919C315.736 443.482 334.931 568.791 360.518 681.508C385.288 790.609 412.933 870.213 476.375 895.31C593.278 941.353 711.287 756.326 893.916 713.018C908.933 709.459 924.271 707.439 939.853 706.26C1081.13 695.608 1120.67 785.496 1182.03 879.175C1227.17 948.094 1276.3 1025 1366.59 1071.15C1508.37 1143.62 1630.88 1090.28 1752.58 1052.1C1831.36 1027.38 1903.57 1009.2 1969.36 1052.43C2126.49 1155.59 2059.62 1432.31 2166.6 1539.96C2174.89 1548.3 2184.22 1555.59 2194.96 1561.49C2272.79 1604.51 2420.92 1590.98 2740.58 1281.42M318.344 289.837C320.574 431.122 336.203 560.15 360.259 672.835C383.702 782.666 412.682 861.989 475.904 886.934C593.364 933.104 711.892 746.764 892.888 705.779C907.904 702.381 923.25 700.481 938.871 699.527C1079.37 690.91 1118.08 784.349 1178.55 880.618C1222.58 950.715 1271.69 1027.34 1363.63 1071.74C1508.26 1141.58 1633.59 1081.28 1755.04 1040.64C1833.95 1014.24 1905.97 996.34 1971.3 1042C2127.3 1150.95 2052.81 1441.9 2158.02 1550.59C2166.22 1559.05 2175.5 1566.38 2186.22 1572.24C2263.47 1614.73 2413.14 1595.65 2741.94 1262.87M326.48 272.748C325.42 418.746 337.467 551.502 360 664.162C382.108 774.731 412.431 853.765 475.425 878.558C593.443 924.856 712.489 737.217 891.851 698.541C906.859 695.303 922.221 693.524 937.881 692.786C1077.61 686.181 1115.52 783.195 1175.06 882.053C1217.99 953.336 1267.06 1029.68 1360.65 1072.33C1508.11 1139.53 1636.27 1072.26 1757.48 1029.18C1836.51 1001.09 1908.35 983.483 1973.21 1031.57C2128.08 1146.31 2045.95 1451.5 2149.42 1561.22C2157.52 1569.81 2166.75 1577.17 2177.45 1583C2254.14 1624.96 2405.33 1600.32 2743.28 1244.33M334.617 255.659C330.258 406.37 338.724 542.845 359.74 655.481C380.498 766.779 412.172 845.525 474.946 870.165C593.521 916.592 713.078 727.671 890.814 691.287C905.823 688.217 921.184 686.55 936.892 686.029C1075.85 681.428 1112.99 782.025 1171.57 883.463C1213.42 955.949 1262.43 1031.98 1357.67 1072.88C1507.97 1137.44 1638.94 1063.21 1759.93 1017.69C1839.07 987.916 1910.73 970.586 1975.12 1021.1C2128.87 1141.64 2039.1 1461.07 2140.82 1571.82C2148.82 1580.53 2158.01 1587.93 2168.68 1593.73C2244.8 1635.16 2397.51 1604.96 2744.61 1225.77M342.753 238.577C335.103 394.009 339.973 534.196 359.481 646.816C378.88 758.844 411.92 837.309 474.475 861.797C593.607 908.352 713.675 718.156 889.778 684.065C904.786 681.155 920.156 679.608 935.902 679.312C1074.1 676.699 1110.51 780.903 1168.08 884.922C1208.87 958.619 1257.87 1034.13 1354.69 1073.49C1507.94 1135.1 1641.6 1054.21 1762.38 1006.26C1841.63 974.794 1913.12 957.761 1977.04 1010.7C2129.65 1137.03 2032.24 1470.69 2132.22 1582.48C2140.12 1591.31 2149.26 1598.75 2159.91 1604.51C2235.47 1645.41 2389.7 1609.66 2745.94 1207.25M350.889 221.487C339.941 381.633 341.002 525.571 359.214 638.143C377.034 750.932 411.661 829.085 473.988 853.42C593.678 900.104 714.311 708.946 888.733 676.827C903.741 674.117 919.119 672.643 934.905 672.57C1072.34 671.929 1108.02 779.764 1164.58 886.357C1204.33 961.271 1253.19 1036.55 1351.7 1074.08C1507.71 1133.18 1644.17 1044.98 1764.81 994.793C1844.12 961.512 1915.49 944.903 1978.95 1000.26C2130.43 1132.39 2025.21 1480.43 2123.62 1593.1C2131.41 1602.07 2140.52 1609.53 2151.15 1615.25C2226.14 1655.62 2381.88 1614.32 2747.28 1188.69M359.026 204.398C330.438 535.422 349.79 796.87 473.517 845.028C604.202 895.904 735.877 663.898 933.923 665.813C1165.98 668.058 1104.88 987.739 1348.73 1074.64C1612.32 1168.57 1822.45 844.475 1980.87 989.799C2143.23 1138.73 1998.8 1549.11 2142.39 1625.97C2216.82 1665.82 2374.08 1618.97 2748.62 1170.13M363.102 198.747C353.026 332.657 351.007 456.925 359.67 562.307C371.717 711.327 407.719 815.202 478.465 847.353C561.156 884.93 642.646 805.848 745.521 745.041C801.267 712.088 863.201 682.839 933.256 681.268C1140.37 676.635 1120.35 918.364 1286.6 1032.78C1306.46 1046.33 1328.62 1058.53 1353.92 1068.35C1479.23 1116.91 1590.26 1073.89 1694.04 1025.83C1753.22 998.593 1807.88 968.887 1858.33 961.6C1902.86 955.172 1943.33 964.318 1980.5 1001.12C2052.96 1072.47 2060.45 1199.75 2064.15 1320.97C2068.18 1461.01 2066.02 1594.22 2148.06 1630.97C2226.35 1666.05 2387.07 1615.46 2762.34 1170.22M367.17 193.096C358.665 326.068 358.319 451.313 367.571 560.022C379.909 709.611 415.305 814.007 483.412 849.677C563.999 891.88 641.578 819.955 743.668 762.354C799.264 730.981 861.842 700.545 932.596 696.714C1139.02 685.54 1125.82 913.137 1291.78 1025.28C1311.92 1038.88 1334.06 1051.54 1359.12 1062.05C1482.46 1113.81 1589.62 1079.66 1694.76 1033.41C1754.91 1006.95 1810.08 975.042 1860.7 968.878C1905.02 963.476 1944.24 974.305 1980.13 1012.44C2049.74 1086.4 2055.45 1215.87 2060.2 1336.36C2065.14 1474.88 2066.7 1603.79 2153.73 1635.97C2235.8 1666.31 2400.07 1611.95 2776.08 1170.3M371.246 187.453C364.303 319.487 365.631 445.694 375.471 557.746C388.1 707.904 422.931 812.925 488.352 852.002C566.921 898.934 640.533 834.063 741.799 779.668C797.261 749.882 860.452 718.276 931.92 712.16C1137.6 694.557 1131.51 907.566 1296.95 1017.77C1317.38 1031.38 1339.49 1044.53 1364.3 1055.76C1485.67 1110.67 1589.03 1085.55 1695.46 1041C1756.63 1015.4 1812.27 981.207 1863.06 976.157C1907.18 971.772 1945.21 984.245 1979.74 1023.75C2046.58 1100.2 2050.77 1231.95 2056.22 1351.75C2062.45 1488.74 2067.28 1613.4 2159.39 1640.96C2245.16 1666.62 2413.06 1608.44 2789.8 1170.38M375.322 181.802C369.942 312.899 373.217 440.051 383.372 555.461C396.637 706.156 430.589 811.947 493.3 854.326C569.921 906.1 639.512 848.178 739.937 796.99C795.274 768.783 859.046 736.047 931.253 727.614C1136.13 703.679 1137.23 901.972 1302.13 1010.28C1322.85 1023.89 1344.91 1037.52 1369.5 1049.48C1488.87 1107.51 1588.46 1091.45 1696.18 1048.6C1758.36 1023.86 1814.46 987.379 1865.43 983.451C1909.34 980.068 1946.18 994.184 1979.37 1035.08C2043.45 1114.02 2045.88 1248.08 2052.26 1367.15C2059.52 1502.62 2067.81 1623.08 2165.07 1645.96C2254.46 1667 2426.06 1604.94 2803.55 1170.47M379.39 176.151C375.581 306.309 380.576 434.424 391.265 553.177C404.883 704.433 438.254 811.082 498.24 856.643C572.96 913.394 638.507 862.302 738.068 814.296C793.295 787.668 857.617 753.825 930.578 743.052C1134.62 712.905 1142.96 896.344 1307.3 1002.77C1328.32 1016.39 1350.33 1030.49 1374.68 1043.17C1492.07 1104.3 1587.89 1097.35 1696.88 1056.17C1760.08 1032.29 1816.64 993.503 1867.8 990.705C1911.49 988.316 1947.14 1004.08 1979 1046.37C2040.31 1127.79 2040.98 1264.16 2048.3 1382.52C2056.58 1516.45 2068.27 1632.77 2170.73 1650.93C2263.72 1667.41 2439.05 1601.4 2817.27 1170.53M383.466 170.5C381.22 299.721 387.943 428.805 399.174 550.9C413.138 702.726 445.927 810.344 503.196 858.967C576.039 920.816 637.549 876.434 736.215 831.61C791.34 806.569 856.187 771.652 929.926 758.491C1133.12 722.236 1148.74 890.693 1312.49 995.25C1333.82 1008.87 1355.79 1023.46 1379.89 1036.86C1495.3 1101.05 1587.35 1103.25 1697.62 1063.74C1761.84 1040.73 1818.83 999.627 1870.18 997.975C1913.65 996.581 1948.13 1013.98 1978.64 1057.68C2037.2 1141.55 2036.09 1280.25 2044.35 1397.9C2053.64 1530.31 2068.72 1642.55 2176.42 1655.92C2272.95 1667.91 2452.06 1597.89 2831.02 1170.61M387.535 164.849C386.859 293.132 395.302 423.178 407.067 548.616C421.36 701.002 453.568 809.711 508.136 861.292C579.102 928.367 636.591 890.589 734.345 848.932C789.392 825.478 854.734 789.512 929.25 773.945C1131.55 731.686 1154.5 885.035 1317.66 987.756C1339.29 1001.37 1361.21 1016.43 1385.08 1030.58C1498.5 1097.8 1586.79 1109.18 1698.32 1071.34C1763.57 1049.2 1821.04 1007.79 1872.55 1005.25C1915.74 1003.14 1949.11 1023.89 1978.26 1068.99C2034.06 1155.32 2031.18 1296.35 2040.37 1413.29C2050.67 1544.17 2069.11 1652.39 2182.08 1660.91C2282.14 1668.46 2465.05 1594.38 2844.75 1170.69M391.611 159.198C392.498 286.543 402.653 417.551 414.968 546.331C429.591 699.287 461.179 809.182 513.076 863.608C582.141 936.038 635.656 904.745 732.476 866.237C787.452 844.371 853.274 807.386 928.575 789.383C1129.98 741.233 1160.28 879.343 1322.83 980.245C1344.76 993.863 1366.63 1009.39 1390.26 1024.27C1501.71 1094.48 1586.23 1115.1 1699.03 1078.92C1765.31 1057.66 1823.16 1014.12 1874.91 1012.53C1917.9 1011.21 1950.07 1033.79 1977.88 1080.31C2030.94 1169.07 2026.25 1312.45 2036.41 1428.69C2047.7 1558.04 2069.5 1662.3 2187.74 1665.91C2291.32 1669.08 2478.04 1590.87 2858.47 1170.78M395.687 153.547C398.145 279.954 410.012 411.924 422.876 544.047C437.822 697.572 468.75 808.749 518.031 865.933C585.157 943.822 634.769 918.925 730.631 883.552C785.551 863.28 851.829 825.31 927.923 804.829C1128.43 750.876 1166.09 873.636 1328.02 972.742C1350.26 986.353 1372.07 1002.34 1395.47 1017.98C1504.93 1091.16 1585.7 1121.04 1699.75 1086.51C1767.06 1066.12 1825.32 1017.98 1877.29 1019.81C1920.06 1021.32 1951.06 1043.69 1977.52 1091.63C2027.84 1182.82 2021.34 1328.55 2032.46 1444.08C2044.75 1571.9 2070.02 1665.23 2193.43 1670.91C2300.42 1675.83 2491.06 1587.37 2872.22 1170.87M399.755 147.895C403.776 273.365 417.355 406.305 430.769 541.762C446.029 695.848 476.258 808.388 522.971 868.249C588.094 951.701 633.889 933.12 728.761 900.865C783.643 882.205 850.36 843.256 927.247 820.275C1126.85 760.623 1171.91 867.913 1333.19 965.239C1355.74 978.842 1377.5 995.29 1400.65 1011.68C1508.15 1087.8 1585.15 1126.98 1700.46 1094.08C1768.8 1074.59 1827.46 1024.07 1879.66 1027.08C1922.19 1029.53 1952.04 1053.57 1977.14 1102.93C2024.72 1196.54 2016.41 1344.64 2028.48 1459.45C2041.76 1585.73 2070.28 1682.24 2199.09 1675.89C2309.7 1670.43 2504.05 1583.84 2885.95 1170.93M403.831 142.253C409.423 266.784 424.698 400.687 438.67 539.486C454.244 694.141 483.711 808.116 527.919 870.582C590.968 959.677 633.041 947.357 726.9 918.188C781.75 901.138 848.907 861.244 926.58 835.73C1125.29 770.466 1177.73 862.174 1338.36 957.737C1361.22 971.332 1382.93 988.237 1405.84 1005.39C1511.38 1084.41 1584.62 1132.94 1701.17 1101.67C1770.55 1083.07 1829.62 1030.16 1882.03 1034.36C1924.33 1037.76 1953.03 1063.46 1976.77 1114.25C2021.63 1210.27 2011.48 1360.73 2024.52 1474.85C2038.77 1599.6 2070.67 1692.3 2204.75 1680.89C2318.88 1671.17 2517.04 1580.34 2899.68 1171.03M407.899 136.601C415.062 260.195 432.026 395.067 446.563 537.202C462.435 692.425 491.093 807.875 532.859 872.899C593.757 967.724 632.208 961.6 725.031 935.493C779.873 920.071 847.438 879.247 925.912 851.168C1123.75 780.373 1183.58 856.402 1343.54 950.226C1366.71 963.813 1388.36 981.167 1411.03 999.09C1514.62 1080.99 1584.07 1138.88 1701.87 1109.26C1772.29 1091.54 1831.76 1036.23 1884.38 1041.64C1926.44 1045.96 1954.01 1073.35 1976.38 1125.57C2018.53 1223.99 2006.53 1376.83 2020.54 1490.24C2035.76 1613.46 2071.07 1702.39 2210.41 1685.88C2328.07 1671.94 2530.03 1576.83 2913.4 1171.11M411.975 130.95C420.701 253.607 439.361 389.44 454.472 534.925C470.642 690.718 498.436 807.699 537.807 875.231C596.458 975.836 631.407 975.892 723.17 952.823C778.012 939.036 845.993 897.299 925.245 866.63C1122.22 790.393 1189.43 850.631 1348.72 942.739C1372.2 956.318 1393.81 974.121 1416.23 992.814C1517.88 1077.57 1583.55 1144.87 1702.59 1116.86C1774.05 1100.04 1833.91 1042.3 1886.76 1048.92C1928.58 1054.17 1955.03 1083.24 1976.01 1136.9C2015.46 1237.72 2001.59 1392.93 2016.58 1505.64C2032.77 1627.32 2071.49 1712.52 2216.08 1690.88C2337.27 1672.74 2543.02 1573.33 2927.13 1171.19M416.043 125.299C426.34 247.017 446.689 383.821 462.365 532.641C478.834 689.003 505.701 807.531 542.747 877.548C599.066 983.988 630.622 990.192 721.3 970.129C776.158 957.993 844.548 915.358 924.569 882.068C1120.71 800.453 1195.29 844.828 1353.89 935.229C1377.68 948.791 1399.24 967.043 1421.41 986.513C1521.15 1074.1 1583.01 1150.84 1703.3 1124.44C1775.8 1108.53 1836.05 1048.35 1889.13 1056.2C1930.7 1062.35 1956.02 1093.11 1975.64 1148.21C2012.39 1251.42 1996.64 1409.03 2012.62 1521.03C2029.76 1641.18 2071.91 1722.67 2221.75 1695.88C2346.49 1673.57 2556.02 1569.81 2940.87 1171.28M420.12 119.648C431.979 240.429 454.016 378.194 470.265 530.356C487.025 687.287 512.919 807.395 547.695 879.872C601.587 992.172 629.86 1004.53 719.447 987.443C774.328 976.974 843.127 933.457 923.91 897.507C1119.24 810.585 1201.18 839 1359.07 927.718C1383.18 941.265 1404.7 959.957 1426.61 980.205C1524.44 1070.61 1582.49 1156.81 1704.02 1132.01C1777.55 1117 1838.2 1054.37 1891.5 1063.46C1932.83 1070.5 1957.03 1102.97 1975.27 1159.5C2009.34 1265.11 1991.69 1425.1 2008.66 1536.4C2026.75 1655.01 2072.36 1732.83 2227.43 1700.85C2355.73 1674.39 2569.03 1566.28 2954.6 1171.34M424.196 113.997C437.625 233.84 461.344 372.576 478.166 528.072C495.209 685.572 520.073 807.258 552.643 882.189C604.006 1000.38 629.114 1018.9 717.586 1004.76C772.499 995.972 841.713 951.581 923.242 912.953C1117.79 820.789 1207.07 833.157 1364.25 920.207C1388.67 933.73 1410.14 952.871 1431.8 973.905C1527.75 1067.09 1581.96 1162.79 1704.73 1139.59C1779.31 1125.5 1840.36 1060.39 1893.87 1070.73C1934.96 1078.67 1958.04 1112.85 1974.9 1170.82C2006.29 1278.82 1986.72 1441.2 2004.69 1551.8C2023.72 1668.87 2072.82 1743.03 2233.09 1705.85C2364.96 1675.25 2582.02 1562.78 2968.33 1171.43M428.264 108.346C443.257 227.251 468.655 366.956 486.067 525.787C503.392 683.857 527.189 807.13 557.59 884.513C606.338 1008.6 628.384 1033.32 715.724 1022.07C770.684 1014.99 840.315 969.728 922.575 928.399C1116.37 831.041 1212.96 827.305 1369.43 912.705C1394.16 926.211 1415.59 945.785 1436.99 967.612C1531.07 1063.58 1581.44 1168.79 1705.45 1147.18C1781.07 1134 1842.51 1066.41 1896.24 1078.02C1937.09 1086.84 1959.06 1122.73 1974.52 1182.14C2003.24 1292.53 1981.75 1457.3 2000.73 1567.19C2020.68 1682.73 2073.29 1753.26 2238.77 1710.83C2374.21 1676.11 2595.02 1559.27 2982.07 1171.51M432.34 102.695C448.903 220.662 475.967 361.337 493.968 523.503C511.576 682.141 534.249 807.002 562.53 886.83C608.584 1016.82 627.661 1047.76 713.855 1039.38C768.87 1034.03 838.917 987.892 921.907 943.838C1114.99 841.341 1218.86 821.422 1374.6 905.194C1399.66 918.676 1421.05 938.692 1442.18 961.312C1534.41 1060.03 1580.91 1174.79 1706.15 1154.75C1782.81 1142.5 1844.65 1072.41 1898.61 1085.28C1939.22 1094.97 1960.09 1132.59 1974.14 1193.44C2000.2 1306.21 1976.77 1473.38 1996.76 1582.56C2017.64 1696.58 2073.77 1763.48 2244.44 1715.81C2383.48 1676.98 2608.01 1555.74 2995.81 1171.57M436.408 97.0521C454.534 214.081 483.271 355.726 501.861 521.226C519.743 680.434 541.263 806.866 567.47 889.155C610.744 1025.04 626.946 1062.25 711.986 1056.7C767.056 1053.1 837.543 1006.09 921.232 959.292C1113.64 851.705 1224.78 815.547 1379.78 897.699C1405.16 911.15 1426.51 931.606 1447.37 955.028C1537.77 1056.48 1580.39 1180.81 1706.87 1162.35C1784.57 1151.02 1846.81 1078.41 1900.98 1092.58C1941.35 1103.13 1961.11 1142.48 1973.77 1204.77C1997.18 1319.93 1971.79 1489.49 1992.8 1597.97C2014.6 1710.46 2074.27 1773.76 2250.11 1720.83C2392.75 1677.9 2621.01 1552.25 3009.53 1171.68M440.484 91.4008C460.181 207.492 490.583 350.099 509.762 518.95C527.919 678.726 548.252 806.721 572.418 891.487C612.841 1033.26 626.491 1066.93 710.125 1074.02C765.1 1078.68 836.192 1024.31 920.564 974.746C1112.33 862.101 1230.7 809.647 1384.95 890.204C1410.65 903.623 1431.97 924.52 1452.56 948.735C1541.15 1052.92 1579.87 1186.83 1707.58 1169.94C1786.33 1159.53 1848.97 1084.4 1903.35 1099.85C1943.49 1111.26 1962.14 1152.36 1973.4 1216.09C1994.16 1333.64 1966.78 1505.59 1988.83 1613.36C2011.53 1724.32 2074.76 1784.02 2255.77 1725.82C2402.03 1678.8 2634 1548.74 3023.26 1171.76M444.56 85.7499C465.82 200.903 497.887 344.48 517.67 516.665C536.095 677.019 555.211 806.553 577.374 893.804C614.875 1041.44 626.098 1081.67 708.279 1091.33C763.113 1097.77 834.865 1042.53 919.912 990.184C1111.07 872.522 1236.64 803.715 1390.14 882.686C1416.17 896.072 1437.45 917.41 1457.77 942.427C1544.56 1049.33 1579.35 1192.83 1708.31 1177.51C1788.11 1168.04 1851.15 1090.36 1905.74 1107.12C1945.65 1119.37 1963.2 1162.22 1973.04 1227.38C1991.17 1347.32 1961.81 1521.67 1984.89 1628.74C2008.48 1738.16 2075.31 1794.28 2261.46 1730.8C2411.34 1679.69 2647.02 1545.21 3037.02 1171.83M448.628 80.099C471.459 194.315 505.175 338.869 525.563 514.381C544.255 675.304 562.122 806.369 582.314 896.128C616.831 1049.62 625.666 1096.54 706.41 1108.64C761.111 1116.84 833.545 1060.78 919.237 1005.63C1109.82 882.975 1242.57 797.784 1395.31 875.183C1421.66 888.537 1442.92 910.308 1462.96 936.135C1547.96 1045.75 1578.82 1198.86 1709.01 1185.1C1789.85 1176.56 1853.31 1096.32 1908.09 1114.4C1947.78 1127.49 1964.22 1172.1 1972.66 1238.7C1988.15 1361.04 1956.78 1537.78 1980.91 1644.13C2005.39 1752.03 2075.83 1804.56 2267.12 1735.8C2420.63 1680.61 2660.01 1541.7 3050.73 1171.92M452.704 74.4477C477.098 187.725 512.471 333.25 533.464 512.096C552.415 673.596 569.025 806.168 587.254 898.445C618.731 1057.76 624.127 1120.62 704.541 1125.95C759.854 1129.63 832.234 1079.04 918.561 1021.08C1108.61 893.459 1248.51 791.828 1400.48 867.68C1427.15 880.994 1448.39 903.206 1468.13 929.842C1551.39 1042.16 1578.28 1204.89 1709.71 1192.68C1791.59 1185.08 1855.47 1102.27 1910.45 1121.67C1949.91 1135.6 1965.25 1181.98 1972.27 1250.02C1985.15 1374.75 1951.75 1553.89 1976.94 1659.52C2002.31 1765.89 2076.37 1814.85 2272.78 1740.79C2429.93 1681.53 2673 1538.19 3064.46 1172M456.773 68.7968C482.737 181.137 519.759 327.631 541.357 509.812C560.575 671.881 575.889 805.952 592.194 900.769C620.585 1065.89 623.404 1135.31 702.672 1143.27C758.04 1148.83 830.946 1097.32 917.894 1036.52C1107.45 903.967 1254.46 785.864 1405.65 860.178C1432.66 873.452 1453.88 896.104 1473.32 923.55C1554.84 1038.57 1577.75 1210.94 1710.42 1200.28C1793.34 1193.61 1857.66 1108.22 1912.82 1128.95C1952.07 1143.71 1966.3 1191.85 1971.9 1261.33C1982.15 1388.45 1946.72 1569.98 1972.97 1674.91C1999.21 1779.76 2076.92 1825.15 2278.45 1745.78C2439.25 1682.45 2685.99 1534.68 3078.2 1172.08M460.849 63.1455C488.384 174.548 527.047 322.012 549.266 507.527C568.743 670.174 582.754 805.711 597.149 903.086C622.415 1074 622.682 1150.02 700.818 1160.57C756.226 1168.05 829.689 1115.61 917.234 1051.95C1106.33 914.476 1260.42 779.86 1410.84 852.659C1438.17 865.885 1459.37 888.986 1478.52 917.233C1558.31 1034.94 1577.23 1216.96 1711.14 1207.84C1795.1 1202.13 1859.85 1114.12 1915.19 1136.21C1954.23 1151.8 1967.35 1201.72 1971.53 1272.63C1979.16 1402.16 1941.68 1586.09 1969.01 1690.28C1996.11 1793.62 2077.48 1835.44 2284.11 1750.76C2448.58 1683.36 2698.98 1531.16 3091.93 1172.15M464.925 57.4946C494.023 167.959 534.336 316.393 557.166 505.243C576.903 668.458 589.594 805.455 602.097 905.41C624.19 1082.08 621.936 1164.8 698.957 1177.9C754.396 1187.32 828.448 1133.91 916.567 1067.41C1105.24 925.025 1266.38 773.873 1416.02 845.156C1443.68 858.334 1464.87 881.876 1483.72 910.941C1561.81 1031.34 1576.72 1223.01 1711.86 1215.43C1796.87 1210.66 1862.05 1120.04 1917.57 1143.48C1956.4 1159.88 1968.41 1211.59 1971.17 1283.94C1976.19 1415.87 1936.65 1602.19 1965.06 1705.66C1993.01 1807.49 2078.06 1845.75 2289.8 1755.75C2457.92 1684.29 2711.99 1527.64 3105.67 1172.22M468.993 51.8437C499.662 161.37 541.608 310.783 565.059 502.967C585.047 666.759 596.411 805.182 607.029 907.735C625.917 1090.12 621.142 1179.6 697.087 1195.21C752.542 1206.62 827.207 1152.22 915.891 1082.85C1104.17 935.582 1272.34 767.861 1421.19 837.654C1449.18 850.775 1470.36 874.775 1488.9 904.649C1565.31 1027.74 1576.18 1229.06 1712.57 1223.02C1798.61 1219.2 1864.25 1125.96 1919.94 1150.77C1958.56 1167.98 1969.45 1221.49 1970.78 1295.27C1973.2 1429.6 1931.58 1618.32 1961.08 1721.07C1989.88 1821.38 2078.64 1856.07 2295.45 1760.76C2467.25 1685.23 2724.97 1524.15 3119.39 1172.32M473.069 46.2006C505.301 154.789 548.889 305.172 572.968 500.69C593.207 665.052 603.236 804.902 611.985 910.068C627.645 1098.16 620.357 1194.43 695.234 1212.53C750.681 1225.94 826.006 1170.55 915.231 1098.31C1103.15 946.154 1278.31 761.841 1426.37 830.159C1454.69 843.225 1475.87 867.673 1494.1 898.365C1568.84 1024.15 1575.66 1235.13 1713.28 1230.61C1800.37 1227.75 1866.46 1131.88 1922.31 1158.06C1960.73 1176.07 1970.51 1231.38 1970.41 1306.59C1970.23 1443.32 1926.52 1634.45 1957.12 1736.46C1986.76 1835.26 2079.23 1866.39 2301.13 1765.75C2476.61 1686.16 2737.98 1520.64 3133.13 1172.41M477.137 40.5493C510.94 148.208 555.768 299.608 580.861 498.406C601.037 663.384 610.03 804.581 616.925 912.384C629.326 1106.16 619.525 1209.28 693.365 1229.85C748.788 1245.28 824.804 1188.89 914.556 1113.75C1102.16 956.719 1284.28 755.805 1431.54 822.656C1460.2 835.666 1481.36 860.562 1499.29 892.072C1572.36 1020.54 1575.11 1241.2 1713.99 1238.2C1802.12 1236.3 1868.68 1137.77 1924.67 1165.33C1962.9 1184.16 1971.57 1241.27 1970.04 1317.91C1967.26 1457.05 1921.45 1650.57 1953.16 1751.86C1983.62 1849.16 2079.82 1876.72 2306.8 1770.75C2485.96 1687.11 2750.97 1517.14 3146.87 1172.49M481.213 34.8984C516.578 141.619 563.088 293.99 588.762 496.121C609.228 661.669 616.823 804.252 621.873 914.709C630.991 1114.13 618.676 1224.15 691.504 1247.16C746.88 1264.65 823.626 1207.22 913.896 1129.2C1101.2 967.3 1290.26 749.754 1436.72 815.154C1465.71 828.099 1486.89 853.461 1504.49 885.772C1575.93 1016.93 1574.59 1247.26 1714.71 1245.78C1803.88 1244.84 1870.91 1143.66 1927.05 1172.61C1965.1 1192.22 1972.64 1251.15 1969.67 1329.22C1964.29 1470.77 1916.36 1666.7 1949.19 1767.24C1980.48 1863.04 2080.42 1887.04 2312.46 1775.73C2495.31 1688.03 2763.96 1513.61 3160.59 1172.57M485.289 29.2475C522.225 135.031 570.4 288.371 596.662 493.837C617.42 659.954 623.608 803.908 626.821 917.025C632.64 1122.08 617.789 1239.05 689.642 1264.47C744.948 1284.03 822.472 1225.56 913.229 1144.64C1100.27 977.872 1296.24 743.678 1441.9 807.635C1471.22 820.516 1492.4 846.335 1509.68 879.464C1579.5 1013.32 1574.06 1252.46 1715.42 1253.35C1805.62 1253.92 1873.14 1149.52 1929.42 1179.87C1967.28 1200.28 1973.69 1261.03 1969.29 1340.52C1961.33 1484.5 1911.26 1682.83 1945.23 1782.62C1977.32 1876.93 2081.02 1897.34 2318.13 1780.71C2504.68 1688.95 2776.96 1510.08 3174.33 1172.63M489.358 23.5962C527.856 128.441 577.712 282.751 604.563 491.552C625.611 658.246 630.386 803.547 631.761 919.341C634.258 1130 616.854 1253.95 687.773 1281.78C742.977 1303.45 821.317 1243.9 912.553 1160.08C1099.36 988.453 1302.21 737.594 1447.07 800.132C1476.74 812.941 1497.91 839.233 1514.87 873.171C1583.08 1009.73 1573.52 1259.38 1716.13 1260.94C1807.37 1261.93 1875.38 1155.4 1931.79 1187.15C1969.47 1208.36 1974.76 1270.92 1968.92 1351.83C1958.37 1498.23 1906.16 1698.96 1941.27 1798.01C1974.17 1890.84 2081.64 1907.67 2323.81 1785.7C2514.04 1689.89 2789.97 1506.57 3188.07 1172.71M493.434 17.9453C533.503 121.853 585.031 277.133 612.464 489.268C633.803 656.531 637.164 803.162 636.708 921.666C635.876 1137.91 615.896 1268.87 685.912 1299.09C740.99 1322.87 820.186 1262.25 911.886 1175.53C1098.49 999.042 1308.2 731.502 1452.25 792.63C1482.25 805.359 1503.43 832.123 1520.06 866.879C1586.67 1006.14 1572.98 1265.73 1716.85 1268.53C1809.12 1270.66 1877.64 1161.28 1934.16 1194.43C1971.67 1216.44 1975.96 1280.83 1968.55 1363.15C1955.66 1512 1901.05 1715.13 1937.31 1813.4C1971.01 1904.75 2082.27 1918.01 2329.48 1790.7C2523.42 1690.84 2802.97 1503.07 3201.8 1172.81M497.502 12.294C539.134 115.264 592.335 271.513 620.357 486.991C641.978 654.824 643.926 802.785 641.648 923.991C637.478 1145.8 614.899 1283.8 684.05 1316.41C738.979 1342.31 819.079 1280.61 911.218 1190.97C1097.65 1009.61 1314.18 725.386 1457.43 785.119C1487.76 797.768 1508.95 825.013 1525.24 860.578C1590.27 1002.54 1572.43 1271.72 1717.55 1276.1C1810.85 1279.16 1879.88 1167.14 1936.52 1201.69C1973.86 1224.48 1976.96 1290.71 1968.16 1374.46C1952.6 1525.72 1895.9 1731.27 1933.33 1828.79C1967.82 1918.66 2083.09 1928.75 2335.14 1795.69C2532.95 1692.09 2815.95 1499.56 3215.52 1172.88M501.578 6.64308C544.781 108.675 599.655 265.895 628.258 484.707C650.17 653.108 650.696 802.377 646.596 926.315C639.072 1153.67 613.862 1298.73 682.189 1333.73C736.937 1361.77 817.971 1298.98 910.551 1206.42C1096.82 1020.2 1320.27 719.014 1462.6 777.624C1493.3 790.137 1514.55 817.887 1530.43 854.286C1594.14 998.849 1571.89 1277.72 1718.26 1283.69C1812.6 1287.66 1882.15 1173.01 1938.89 1208.98C1976.08 1232.56 1977.98 1300.62 1967.79 1385.77C1949.56 1539.46 1890.62 1747.51 1929.36 1844.18C1964.5 1932.65 2083.62 1938.87 2340.81 1800.68C2542.25 1692.87 2828.95 1496.05 3229.26 1172.96M505.646 1C550.42 102.094 606.959 260.283 636.159 482.43C699.184 962.041 576.062 1293.34 680.328 1351.04C844.022 1441.64 1255.4 684.69 1467.79 770.121C1621.79 832.067 1534.12 1281.81 1718.99 1291.29C1814.36 1296.18 1884.45 1178.87 1941.27 1216.27C2045.06 1284.57 1863.56 1710.42 1925.41 1859.58C1989.64 2014.5 2328.91 1901.26 3243 1173.06" stroke="url(#paint0_linear)" stroke-opacity="0.6" stroke-miterlimit="10"/>
<defs>
<linearGradient id="paint0_linear" x1="362.489" y1="1643.7" x2="3242.28" y2="1922.69" gradientUnits="userSpaceOnUse">
<stop stop-color="#16F898"/>
<stop offset="1" stop-color="#16F898" stop-opacity="0"/>
</linearGradient>
</defs>
</svg>
