<svg width="49" height="38" viewBox="0 0 49 38" fill="none" xmlns="http://www.w3.org/2000/svg">
<path d="M19.789 4.48624C19.789 6.96 21.8015 8.97248 24.2753 8.97248C26.749 8.97248 28.7615 6.96 28.7615 4.48624C28.7615 2.01247 26.749 0 24.2753 0C21.8015 0 19.789 2.01247 19.789 4.48624Z" fill="white" fill-opacity="0.87"/>
<path d="M18.4713 14.25H30.079L30.0796 13.7227C30.0806 12.8772 29.7518 12.0818 29.1538 11.4833C28.5563 10.8848 27.762 10.5554 26.916 10.5554H21.638C19.8916 10.5554 18.4713 11.9757 18.4713 13.7222V14.25Z" fill="white" fill-opacity="0.87"/>
<path fill-rule="evenodd" clip-rule="evenodd" d="M24.2753 32.7226C21.8015 32.7226 19.789 30.7101 19.789 28.2363C19.789 25.7626 21.8015 23.7501 24.2753 23.7501C26.749 23.7501 28.7615 25.7626 28.7615 28.2363C28.7615 30.7101 26.749 32.7226 24.2753 32.7226ZM24.2753 24.8057C22.3837 24.8057 20.8446 26.3447 20.8446 28.2363C20.8446 30.128 22.3837 31.667 24.2753 31.667C26.1669 31.667 27.7059 30.128 27.7059 28.2363C27.7059 26.3447 26.1669 24.8057 24.2753 24.8057Z" fill="white" fill-opacity="0.87"/>
<path fill-rule="evenodd" clip-rule="evenodd" d="M18.4713 38.0001H30.079L30.0796 37.4728C30.0806 36.6273 29.7518 35.8319 29.1538 35.2334C28.5563 34.6349 27.762 34.3055 26.916 34.3055H21.638C19.8916 34.3055 18.4713 35.7258 18.4713 37.4723V38.0001ZM28.9585 36.9445H19.5939C19.8282 36.0346 20.6563 35.3611 21.638 35.3611H26.916C27.4791 35.3611 28.009 35.5807 28.4075 35.9792C28.6783 36.2505 28.8662 36.5824 28.9585 36.9445Z" fill="white" fill-opacity="0.87"/>
<path fill-rule="evenodd" clip-rule="evenodd" d="M42.7466 32.7226C40.2728 32.7226 38.2603 30.7101 38.2603 28.2363C38.2603 25.7626 40.2728 23.7501 42.7466 23.7501C45.2203 23.7501 47.2328 25.7626 47.2328 28.2363C47.2328 30.7101 45.2203 32.7226 42.7466 32.7226ZM42.7466 24.8057C40.8549 24.8057 39.3159 26.3447 39.3159 28.2363C39.3159 30.128 40.8549 31.667 42.7466 31.667C44.6382 31.667 46.1772 30.128 46.1772 28.2363C46.1772 26.3447 44.6382 24.8057 42.7466 24.8057Z" fill="white" fill-opacity="0.87"/>
<path fill-rule="evenodd" clip-rule="evenodd" d="M36.9422 38.0001H48.5499L48.5505 37.4728C48.5515 36.6273 48.2227 35.8319 47.6247 35.2334C47.0272 34.6349 46.2329 34.3055 45.3869 34.3055H40.1089C38.3625 34.3055 36.9422 35.7258 36.9422 37.4723V38.0001ZM47.4294 36.9445H38.0648C38.2991 36.0346 39.1272 35.3611 40.1089 35.3611H45.3869C45.95 35.3611 46.4799 35.5807 46.8784 35.9792C47.1492 36.2505 47.3371 36.5824 47.4294 36.9445Z" fill="white" fill-opacity="0.87"/>
<path fill-rule="evenodd" clip-rule="evenodd" d="M5.804 32.7226C3.33023 32.7226 1.31776 30.7101 1.31776 28.2363C1.31776 25.7626 3.33023 23.7501 5.804 23.7501C8.27776 23.7501 10.2902 25.7626 10.2902 28.2363C10.2902 30.7101 8.27723 32.7226 5.804 32.7226ZM5.804 24.8057C3.91239 24.8057 2.37335 26.3447 2.37335 28.2363C2.37335 30.128 3.91239 31.667 5.804 31.667C7.69561 31.667 9.23465 30.128 9.23465 28.2363C9.23465 26.3447 7.69561 24.8057 5.804 24.8057Z" fill="white" fill-opacity="0.87"/>
<path fill-rule="evenodd" clip-rule="evenodd" d="M0 38.0001H11.6077L11.6083 37.4728C11.6093 36.6273 11.2805 35.8319 10.6825 35.2334C10.0851 34.6349 9.29073 34.3055 8.44468 34.3055H3.16676C1.42029 34.3055 0 35.7258 0 37.4723V38.0001ZM10.4872 36.9445H1.12261C1.35695 36.0346 2.18506 35.3611 3.16676 35.3611H8.44468C9.00784 35.3611 9.53774 35.5807 9.93622 35.9792C10.207 36.2505 10.3949 36.5824 10.4872 36.9445Z" fill="white" fill-opacity="0.87"/>
<path d="M24.7786 16.3623H23.723V18.4479H8.50115C6.72196 18.4479 5.27475 19.8793 5.27475 21.6389H6.33034C6.33034 20.462 7.30411 19.5035 8.50115 19.5035H23.723V21.6403H24.7786V19.5035H40.0494C41.2465 19.5035 42.2202 20.462 42.2202 21.6389H43.2758C43.2758 19.8793 41.8286 18.4479 40.0489 18.4479H24.7786V16.3623Z" fill="white" fill-opacity="0.87"/>
</svg>
