<svg width="34" height="34" viewBox="0 0 34 34" fill="none" xmlns="http://www.w3.org/2000/svg">
<path fill-rule="evenodd" clip-rule="evenodd" d="M25.1943 11.8209C25.7537 12.2936 25.824 13.1303 25.3513 13.6897L16.7008 23.927C16.4729 24.1967 16.1469 24.3644 15.7949 24.3929C15.443 24.4214 15.0942 24.3084 14.8259 24.0788L9.26675 19.3234C8.71021 18.8473 8.64498 18.0102 9.12105 17.4537C9.59713 16.8971 10.4342 16.8319 10.9908 17.308L15.5361 21.1962L23.3255 11.9779C23.7982 11.4185 24.6349 11.3482 25.1943 11.8209Z" fill="white" fill-opacity="0.87"/>
<path fill-rule="evenodd" clip-rule="evenodd" d="M17 32C25.2843 32 32 25.2843 32 17C32 8.71573 25.2843 2 17 2C8.71573 2 2 8.71573 2 17C2 25.2843 8.71573 32 17 32ZM17 34C26.3888 34 34 26.3888 34 17C34 7.61116 26.3888 0 17 0C7.61116 0 0 7.61116 0 17C0 26.3888 7.61116 34 17 34Z" fill="white" fill-opacity="0.87"/>
</svg>
