<svg width="35" height="35" viewBox="0 0 35 35" fill="none" xmlns="http://www.w3.org/2000/svg">
<path d="M17.5 0C14.0388 0 10.6554 1.02636 7.77753 2.94928C4.89967 4.8722 2.65665 7.60533 1.33212 10.803C0.00758255 14.0007 -0.338976 17.5194 0.336265 20.9141C1.01151 24.3087 2.67822 27.4269 5.12564 29.8744C7.57306 32.3218 10.6913 33.9885 14.0859 34.6637C17.4806 35.339 20.9993 34.9924 24.197 33.6679C27.3947 32.3433 30.1278 30.1003 32.0507 27.2225C33.9736 24.3446 35 20.9612 35 17.5C34.9948 12.8603 33.1493 8.41216 29.8686 5.1314C26.5878 1.85065 22.1397 0.00522575 17.5 0ZM30.5417 26.6558C29.3112 25.9725 28.0109 25.4232 26.6632 25.0171C27.2409 22.8156 27.5554 20.5534 27.6001 18.2778H33.4247C33.2799 21.2878 32.2798 24.194 30.5417 26.6558ZM1.57531 18.2778H7.39991C7.44461 20.5534 7.75911 22.8156 8.33681 25.0171C6.98913 25.4232 5.68885 25.9725 4.45827 26.6558C2.7202 24.194 1.72011 21.2878 1.57531 18.2778ZM4.45827 8.34423C5.68885 9.02747 6.98913 9.57684 8.33681 9.98291C7.75911 12.1844 7.44461 14.4466 7.39991 16.7222H1.57531C1.72011 13.7122 2.7202 10.8059 4.45827 8.34423ZM18.2778 11.2671C20.5953 11.225 22.9014 10.9329 25.1563 10.396C25.6993 12.4626 25.9976 14.5859 26.045 16.7222H18.2778V11.2671ZM18.2778 9.71172V1.62444C20.9738 2.07957 23.3112 4.87471 24.7018 8.90915C22.5947 9.40224 20.4414 9.67125 18.2778 9.71172ZM16.7222 1.62444V9.71172C14.5586 9.67126 12.4053 9.40225 10.2982 8.90916C11.6888 4.87472 14.0263 2.07957 16.7222 1.62444ZM16.7222 11.2671V16.7222H8.95504C9.0024 14.5859 9.30069 12.4626 9.84376 10.396C12.0986 10.9329 14.4047 11.225 16.7222 11.2671ZM8.95504 18.2778H16.7222V23.7329C14.4047 23.775 12.0986 24.0671 9.84376 24.604C9.30069 22.5374 9.0024 20.4141 8.95504 18.2778ZM16.7222 25.2883V33.3756C14.0263 32.9204 11.6888 30.1253 10.2982 26.0908C12.4053 25.5978 14.5586 25.3287 16.7222 25.2883ZM18.2778 33.3755V25.2883C20.4414 25.3287 22.5947 25.5977 24.7018 26.0908C23.3112 30.1253 20.9738 32.9204 18.2778 33.3755ZM18.2778 23.7329V18.2778H26.045C25.9976 20.4141 25.6993 22.5374 25.1563 24.604C22.9014 24.0671 20.5953 23.775 18.2778 23.7329ZM27.6001 16.7222C27.5554 14.4466 27.2409 12.1844 26.6632 9.98291C28.0109 9.57684 29.3112 9.02747 30.5417 8.34423C32.2798 10.8059 33.2799 13.7122 33.4247 16.7222H27.6001ZM29.5756 7.10591C28.503 7.67913 27.3763 8.14488 26.212 8.49636C25.5066 6.24433 24.3135 4.17544 22.7177 2.43687C25.3746 3.36289 27.7401 4.97342 29.5756 7.10591ZM12.2823 2.43687C10.6865 4.17544 9.4934 6.24433 8.78798 8.49636C7.6237 8.14488 6.49703 7.67913 5.42442 7.10591C7.25987 4.97342 9.62542 3.36288 12.2823 2.43687ZM5.42442 27.8941C6.49703 27.3209 7.6237 26.8551 8.78798 26.5036C9.49341 28.7557 10.6865 30.8246 12.2823 32.5631C9.62542 31.6371 7.25988 30.0266 5.42442 27.8941ZM22.7177 32.5631C24.3135 30.8246 25.5066 28.7557 26.212 26.5036C27.3763 26.8551 28.503 27.3209 29.5756 27.8941C27.7401 30.0266 25.3746 31.6371 22.7177 32.5631Z" fill="white" fill-opacity="0.87"/>
</svg>
