<svg width="26" height="38" viewBox="0 0 26 38" fill="none" xmlns="http://www.w3.org/2000/svg">
<path d="M12.92 0C5.79779 0 0 5.83929 0 13.0124C0 14.3048 1.14779 16.5812 3.02545 20.1856C4.89722 23.784 7.0221 27.8685 7.15748 30.1568C7.22222 31.2417 8.10514 32.0954 9.1764 32.0954H16.6458C17.7171 32.0954 18.6059 31.2476 18.6648 30.1568C18.7884 28.0464 20.7249 24.4242 22.4319 21.2289C24.2624 17.8143 25.8399 14.862 25.8399 13.0065C25.8399 5.83929 20.0421 0 12.92 0ZM21.1369 20.5294C19.2651 24.0211 17.3345 27.6314 17.1932 30.0738C17.1756 30.3762 16.9343 30.6133 16.64 30.6133H9.1764C8.8821 30.6133 8.64077 30.3762 8.62311 30.0738C8.47596 27.4654 6.26868 23.2327 4.32627 19.4979C2.92538 16.7946 1.47152 14.0024 1.47152 13.0124C1.47152 6.65739 6.61007 1.48205 12.92 1.48205C19.2298 1.48205 24.3684 6.65739 24.3684 13.0124C24.3684 14.4945 22.7262 17.5653 21.1369 20.5294Z" fill="white" fill-opacity="0.87"/>
<path d="M18.6471 12.5201C17.8819 12.3126 17.0814 12.4194 16.3986 12.8165C15.7158 13.2137 15.2214 13.8599 15.0153 14.6306C14.8093 15.4012 14.9153 16.2075 15.3096 16.8952C15.704 17.5888 16.3456 18.0808 17.1108 18.2883C17.1226 18.2883 17.1343 18.2942 17.1402 18.2942V19.8474H16.0101C15.604 19.8474 15.2743 20.1794 15.2743 20.5884V30.5656H16.7458V21.3295H17.876C18.2821 21.3295 18.6117 20.9975 18.6117 20.5884V18.2942C18.8707 18.229 19.1179 18.1282 19.3593 17.9859C20.0421 17.5888 20.5365 16.9426 20.7425 16.1719C20.9485 15.4012 20.8426 14.595 20.4482 13.9073C20.0538 13.2197 19.4122 12.7276 18.6471 12.5201ZM18.6294 16.7055C18.2821 16.907 17.8819 16.9604 17.4993 16.8537C17.1167 16.747 16.7929 16.5039 16.5928 16.1541C16.1808 15.4368 16.428 14.5179 17.1402 14.103C17.3698 13.9666 17.6229 13.9014 17.8819 13.9014C18.0114 13.9014 18.1409 13.9192 18.2703 13.9548C18.6529 14.0615 18.9767 14.3045 19.1768 14.6543C19.5829 15.3716 19.3416 16.2905 18.6294 16.7055Z" fill="white" fill-opacity="0.87"/>
<path d="M9.92971 18.2236H7.67534V15.212C8.01085 15.135 8.33458 15.0164 8.64066 14.8385C9.42939 14.3821 9.98857 13.641 10.224 12.7577C10.4595 11.8744 10.3358 10.9496 9.88262 10.1552C8.94673 8.51906 6.85718 7.95588 5.23262 8.89847C3.60806 9.84105 3.04888 11.9456 3.98477 13.5818C4.438 14.3761 5.17376 14.9393 6.05078 15.1764C6.09787 15.1883 6.14496 15.1942 6.19793 15.2061V18.9587C6.19793 19.3677 6.52755 19.6997 6.93369 19.6997H9.18806V30.5602H10.6596V18.9646C10.6655 18.5496 10.3358 18.2236 9.92971 18.2236ZM5.26205 12.8407C4.7323 11.91 5.04426 10.7184 5.96838 10.1849C6.27445 10.007 6.60407 9.92405 6.93369 9.92405C7.60471 9.92405 8.25218 10.2738 8.61123 10.8963C8.87021 11.3468 8.93496 11.8685 8.80547 12.3724C8.67009 12.8763 8.35224 13.2913 7.9049 13.5521C7.45756 13.813 6.93958 13.8841 6.43926 13.7477C5.93895 13.6114 5.52103 13.2913 5.26205 12.8407Z" fill="white" fill-opacity="0.87"/>
<path d="M15.398 12.188V10.7178C15.7276 10.6467 16.0572 10.5281 16.3633 10.3444C17.9879 9.40179 18.5471 7.29727 17.6112 5.66108C17.1579 4.8667 16.4222 4.30352 15.5452 4.06639C14.6681 3.82926 13.7499 3.95376 12.9612 4.41023C12.1724 4.8667 11.6133 5.60773 11.3778 6.49103C11.1424 7.37434 11.266 8.29914 11.7192 9.09352C12.2136 9.95904 13.0318 10.5163 13.9324 10.7178V11.447H12.7139C12.3078 11.447 11.9782 11.779 11.9782 12.188V30.5655H13.4497V12.9291H14.6681C15.0684 12.9291 15.398 12.5971 15.398 12.188ZM12.9906 8.34656C12.7316 7.89602 12.6669 7.37434 12.7964 6.87044C12.9317 6.36654 13.2496 5.95156 13.6969 5.69072C13.9971 5.51881 14.3267 5.42988 14.6622 5.42988C14.8329 5.42988 14.9977 5.45359 15.1626 5.49509C15.6629 5.63144 16.0749 5.95156 16.3339 6.40211C16.8636 7.33284 16.5517 8.52441 15.6276 9.05795C14.7093 9.59742 13.5262 9.27729 12.9906 8.34656Z" fill="white" fill-opacity="0.87"/>
<path d="M17.6464 33.441H8.1992C7.79306 33.441 7.46344 33.773 7.46344 34.182C7.46344 34.5911 7.79306 34.923 8.1992 34.923H17.6464C18.0525 34.923 18.3821 34.5911 18.3821 34.182C18.3821 33.773 18.0525 33.441 17.6464 33.441Z" fill="white" fill-opacity="0.87"/>
<path d="M16.0278 36.5183H9.81208C9.40594 36.5183 9.07632 36.8503 9.07632 37.2593C9.07632 37.6684 9.40594 38.0004 9.81208 38.0004H16.0219C16.428 38.0004 16.7577 37.6684 16.7577 37.2593C16.7577 36.8503 16.4339 36.5183 16.0278 36.5183Z" fill="white" fill-opacity="0.87"/>
</svg>
