<svg width="45" height="50" viewBox="0 0 45 50" fill="none" xmlns="http://www.w3.org/2000/svg">
<path fill-rule="evenodd" clip-rule="evenodd" d="M22.67 0.283857C22.5199 0.103382 22.304 0 22.0772 0C21.8504 0 21.6346 0.103382 21.4845 0.283857L15.5559 7.41429C15.2671 7.76169 15.2983 8.2918 15.6257 8.59833C15.953 8.90486 16.4525 8.87173 16.7414 8.52433L21.2868 3.05751V49.913H22.8677V3.05751L27.4131 8.52433C27.7019 8.87173 28.2015 8.90486 28.5288 8.59833C28.8562 8.2918 28.8874 7.76169 28.5985 7.41429L22.67 0.283857Z" fill="white" fill-opacity="0.87"/>
<path fill-rule="evenodd" clip-rule="evenodd" d="M39.8244 6.77055C40.26 6.61285 40.7407 6.82492 40.9035 7.2467L44.0995 15.5228C44.2641 15.949 44.0426 16.4286 43.6048 16.5942C43.167 16.7597 42.6787 16.5484 42.5141 16.1223L40.0856 9.83362C39.5479 10.6457 38.8272 11.876 38.1035 13.5401C36.6408 16.9036 35.1607 22.0504 35.1607 29.1165C35.1607 36.1822 36.6405 41.1141 38.0957 44.2589C38.824 45.8329 39.5481 46.9636 40.0823 47.6931C40.3494 48.058 40.5691 48.3227 40.7182 48.4925C40.7928 48.5774 40.8497 48.6385 40.886 48.6766C40.9042 48.6956 40.9172 48.7089 40.9247 48.7164L40.931 48.7228C40.931 48.7228 40.9304 48.7221 40.3419 49.3176C39.7534 49.9132 39.7527 49.9124 39.7527 49.9124L39.7517 49.9115L39.7495 49.9093L39.7433 49.9032C39.7385 49.8984 39.7322 49.8922 39.7246 49.8845C39.7093 49.8692 39.6885 49.8479 39.6625 49.8207C39.6106 49.7664 39.5381 49.6882 39.448 49.5856C39.2677 49.3803 39.0169 49.0772 38.7194 48.6708C38.1243 47.858 37.3428 46.6327 36.5654 44.9527C35.0091 41.5894 33.4775 36.4207 33.4775 29.1165C33.4775 21.8128 35.0088 16.4425 36.5575 12.8814C37.3135 11.1431 38.0724 9.83853 38.6567 8.95236L31.8493 11.4166C31.4092 11.576 30.9241 11.3577 30.7659 10.9292C30.6077 10.5007 30.8363 10.0242 31.2764 9.86488L39.8244 6.77055Z" fill="white" fill-opacity="0.87"/>
<path fill-rule="evenodd" clip-rule="evenodd" d="M3.81422 6.77529C3.6147 6.68998 3.38714 6.70107 3.18599 6.80591C2.98484 6.91075 2.82823 7.0999 2.75363 7.32808L0.0474978 15.6059C-0.100889 16.0598 0.109999 16.5393 0.51853 16.6769C0.927061 16.8145 1.37853 16.5581 1.52692 16.1042L3.51558 10.0211C3.95735 10.8312 4.52119 11.999 5.08738 13.537C6.32875 16.9088 7.58488 22.0689 7.58488 29.1518C7.58488 36.2345 6.32887 41.1802 5.09357 44.3337C4.47548 45.9116 3.86121 47.0443 3.40877 47.7743C3.18249 48.1394 2.99655 48.404 2.87066 48.5733C2.80771 48.658 2.75977 48.7188 2.72929 48.7565C2.71405 48.7754 2.70318 48.7885 2.69698 48.7958L2.69213 48.8016C2.69213 48.8016 2.69272 48.8009 3.29793 49.3571C3.90314 49.9132 3.90384 49.9124 3.90384 49.9124L3.90467 49.9114L3.90666 49.9092L3.91202 49.9029C3.9162 49.8981 3.92158 49.8917 3.92814 49.8839C3.94124 49.8684 3.959 49.8469 3.98111 49.8196C4.02534 49.7648 4.08696 49.6864 4.16345 49.5835C4.31645 49.3777 4.52892 49.0743 4.78075 48.668C5.28449 47.8553 5.94515 46.6316 6.60199 44.9547C7.91654 41.5989 9.21038 36.4419 9.21038 29.1518C9.21038 21.8619 7.91666 16.5027 6.60818 12.9485C5.98938 11.2677 5.36804 9.99263 4.88041 9.10952L10.4103 11.4742C10.8072 11.6439 11.2726 11.4224 11.4498 10.9795C11.627 10.5366 11.449 10.04 11.0521 9.87026L3.81422 6.77529Z" fill="white" fill-opacity="0.87"/>
</svg>
