<svg width="26" height="38" viewBox="0 0 26 38" fill="none" xmlns="http://www.w3.org/2000/svg">
<path d="M12.92 0C5.79779 0 0 5.83929 0 13.0124C0 14.3048 1.14779 16.5812 3.02545 20.1856C4.89722 23.784 7.0221 27.8685 7.15748 30.1568C7.22222 31.2417 8.10514 32.0954 9.1764 32.0954H16.6458C17.7171 32.0954 18.6059 31.2476 18.6648 30.1568C18.7884 28.0464 20.7249 24.4242 22.4319 21.2289C24.2624 17.8143 25.8399 14.862 25.8399 13.0065C25.8399 5.83929 20.0421 0 12.92 0ZM21.1369 20.5294C19.2651 24.0211 17.3345 27.6314 17.1932 30.0738C17.1756 30.3762 16.9343 30.6133 16.64 30.6133H9.1764C8.8821 30.6133 8.64077 30.3762 8.62311 30.0738C8.47596 27.4654 6.26868 23.2327 4.32627 19.4979C2.92538 16.7946 1.47152 14.0024 1.47152 13.0124C1.47152 6.65739 6.61007 1.48205 12.92 1.48205C19.2298 1.48205 24.3684 6.65739 24.3684 13.0124C24.3684 14.4945 22.7262 17.5653 21.1369 20.5294Z" fill="white" fill-opacity="0.87"/>
<path d="M18.6472 12.5197C17.882 12.3122 17.0815 12.4189 16.3987 12.8161C15.7159 13.2133 15.2215 13.8594 15.0155 14.6301C14.8095 15.4008 14.9154 16.207 15.3098 16.8947C15.7042 17.5883 16.3458 18.0803 17.1109 18.2878C17.1227 18.2878 17.1345 18.2937 17.1404 18.2937V19.8469H16.0102C15.6041 19.8469 15.2745 20.1789 15.2745 20.588V30.5651H16.746V21.329H17.8761C18.2823 21.329 18.6119 20.997 18.6119 20.588V18.2937C18.8709 18.2285 19.1181 18.1277 19.3594 17.9855C20.0422 17.5883 20.5366 16.9421 20.7427 16.1714C20.9487 15.4008 20.8427 14.5945 20.4483 13.9069C20.054 13.2192 19.4124 12.7271 18.6472 12.5197ZM18.6295 16.705C18.2823 16.9065 17.882 16.9599 17.4994 16.8532C17.1168 16.7465 16.7931 16.5034 16.593 16.1536C16.1809 15.4363 16.4282 14.5175 17.1404 14.1025C17.3699 13.9661 17.623 13.9009 17.882 13.9009C18.0115 13.9009 18.141 13.9187 18.2705 13.9543C18.6531 14.061 18.9768 14.304 19.177 14.6538C19.5831 15.3711 19.3418 16.29 18.6295 16.705Z" fill="white" fill-opacity="0.87"/>
<path d="M9.92974 18.2233H7.67536V15.2117C8.01087 15.1347 8.33461 15.0161 8.64068 14.8383C9.42942 14.3818 9.9886 13.6408 10.224 12.7575C10.4595 11.8742 10.3359 10.9494 9.88265 10.155C8.94676 8.51879 6.8572 7.95561 5.23264 8.89819C3.60808 9.84078 3.0489 11.9453 3.98479 13.5815C4.43802 14.3759 5.17378 14.939 6.05081 15.1762C6.09789 15.188 6.14498 15.194 6.19796 15.2058V18.9584C6.19796 19.3674 6.52758 19.6994 6.93372 19.6994H9.18809V30.5599H10.6596V18.9643C10.6655 18.5493 10.3359 18.2233 9.92974 18.2233ZM5.26207 12.8405C4.73232 11.9097 5.04429 10.7182 5.9684 10.1846C6.27448 10.0068 6.6041 9.92378 6.93372 9.92378C7.60473 9.92378 8.2522 10.2735 8.61125 10.896C8.87024 11.3465 8.93499 11.8682 8.80549 12.3721C8.67011 12.876 8.35226 13.291 7.90492 13.5518C7.45758 13.8127 6.9396 13.8838 6.43929 13.7475C5.93897 13.6111 5.52106 13.291 5.26207 12.8405Z" fill="white" fill-opacity="0.87"/>
<path d="M15.3978 12.1886V10.7184C15.7274 10.6472 16.057 10.5287 16.3631 10.3449C17.9877 9.4023 18.5468 7.29778 17.611 5.6616C17.1577 4.86721 16.422 4.30403 15.5449 4.06691C14.6679 3.82978 13.7497 3.95427 12.9609 4.41074C12.1722 4.86721 11.613 5.60824 11.3776 6.49155C11.1421 7.37485 11.2658 8.29965 11.719 9.09403C12.2134 9.95955 13.0316 10.5168 13.9322 10.7184V11.4475H12.7137C12.3076 11.4475 11.978 11.7795 11.978 12.1886V30.566H13.4495V12.9296H14.6679C15.0682 12.9296 15.3978 12.5976 15.3978 12.1886ZM12.9904 8.34708C12.7314 7.89653 12.6666 7.37485 12.7961 6.87095C12.9315 6.36705 13.2494 5.95208 13.6967 5.69124C13.9969 5.51932 14.3265 5.4304 14.662 5.4304C14.8327 5.4304 14.9975 5.45411 15.1623 5.49561C15.6627 5.63195 16.0747 5.95208 16.3337 6.40262C16.8634 7.33335 16.5515 8.52492 15.6273 9.05846C14.7091 9.59793 13.526 9.27781 12.9904 8.34708Z" fill="white" fill-opacity="0.87"/>
<path d="M17.6463 33.4414H8.19914C7.793 33.4414 7.46338 33.7734 7.46338 34.1824C7.46338 34.5915 7.793 34.9235 8.19914 34.9235H17.6463C18.0524 34.9235 18.3821 34.5915 18.3821 34.1824C18.3821 33.7734 18.0524 33.4414 17.6463 33.4414Z" fill="white" fill-opacity="0.87"/>
<path d="M16.0276 36.5176H9.81193C9.40579 36.5176 9.07617 36.8496 9.07617 37.2586C9.07617 37.6676 9.40579 37.9996 9.81193 37.9996H16.0217C16.4279 37.9996 16.7575 37.6676 16.7575 37.2586C16.7575 36.8496 16.4338 36.5176 16.0276 36.5176Z" fill="white" fill-opacity="0.87"/>
</svg>
