<svg width="45" height="50" viewBox="0 0 45 50" fill="none" xmlns="http://www.w3.org/2000/svg">
<path fill-rule="evenodd" clip-rule="evenodd" d="M22.6702 0.283857C22.5201 0.103382 22.3043 0 22.0775 0C21.8507 0 21.6348 0.103382 21.4847 0.283857L15.5562 7.41429C15.2673 7.76169 15.2985 8.2918 15.6259 8.59833C15.9532 8.90486 16.4528 8.87173 16.7416 8.52433L21.287 3.05751V49.913H22.8679V3.05751L27.4133 8.52433C27.7022 8.87173 28.2017 8.90486 28.529 8.59833C28.8564 8.2918 28.8876 7.76169 28.5988 7.41429L22.6702 0.283857Z" fill="white" fill-opacity="0.87"/>
<path fill-rule="evenodd" clip-rule="evenodd" d="M39.8243 6.77086C40.2599 6.61316 40.7406 6.82523 40.9035 7.24701L44.0994 15.5231C44.264 15.9493 44.0425 16.4289 43.6047 16.5945C43.1669 16.76 42.6786 16.5487 42.514 16.1226L40.0855 9.83393C39.5478 10.646 38.8271 11.8763 38.1034 13.5405C36.6407 16.9039 35.1606 22.0507 35.1606 29.1168C35.1606 36.1825 36.6404 41.1144 38.0956 44.2592C38.8239 45.8332 39.548 46.9639 40.0822 47.6935C40.3493 48.0583 40.5691 48.323 40.7182 48.4928C40.7927 48.5777 40.8496 48.6388 40.8859 48.6769C40.9041 48.6959 40.9171 48.7092 40.9246 48.7167L40.9309 48.7231C40.9306 48.7228 40.9303 48.7224 40.3418 49.318C39.7534 49.9135 39.753 49.9131 39.7526 49.9127L39.7516 49.9118L39.7494 49.9096L39.7432 49.9035C39.7384 49.8988 39.7321 49.8925 39.7245 49.8848C39.7092 49.8695 39.6884 49.8482 39.6624 49.821C39.6105 49.7667 39.538 49.6885 39.4479 49.5859C39.2676 49.3806 39.0168 49.0775 38.7193 48.6711C38.1242 47.8583 37.3427 46.633 36.5653 44.953C35.009 41.5897 33.4775 36.421 33.4775 29.1168C33.4775 21.8131 35.0088 16.4428 36.5574 12.8817C37.3134 11.1434 38.0723 9.83885 38.6566 8.95267L31.8492 11.4169C31.4091 11.5763 30.924 11.3581 30.7658 10.9296C30.6076 10.5011 30.8362 10.0245 31.2763 9.86519L39.8243 6.77086Z" fill="white" fill-opacity="0.87"/>
<path fill-rule="evenodd" clip-rule="evenodd" d="M3.81422 6.77561C3.6147 6.69029 3.38714 6.70138 3.18599 6.80622C2.98484 6.91106 2.82823 7.10021 2.75363 7.32839L0.0474978 15.6062C-0.100889 16.0601 0.109999 16.5396 0.51853 16.6772C0.927061 16.8149 1.37853 16.5585 1.52692 16.1046L3.51558 10.0214C3.95735 10.8315 4.52119 11.9994 5.08738 13.5373C6.32875 16.9091 7.58488 22.0692 7.58488 29.1521C7.58488 36.2348 6.32887 41.1805 5.09357 44.3341C4.47548 45.9119 3.86121 47.0447 3.40877 47.7746C3.18249 48.1397 2.99655 48.4043 2.87066 48.5736C2.80771 48.6583 2.75977 48.7191 2.72929 48.7569C2.71405 48.7757 2.70318 48.7888 2.69698 48.7962L2.69213 48.8019C2.69242 48.8016 2.69272 48.8012 3.29793 49.3574C3.90314 49.9135 3.90348 49.9131 3.90384 49.9127L3.90467 49.9118L3.90666 49.9095L3.91202 49.9032C3.9162 49.8984 3.92158 49.892 3.92814 49.8843C3.94124 49.8687 3.959 49.8472 3.98111 49.8199C4.02534 49.7651 4.08696 49.6867 4.16345 49.5838C4.31645 49.378 4.52892 49.0746 4.78075 48.6683C5.28449 47.8556 5.94515 46.6319 6.60199 44.955C7.91654 41.5992 9.21038 36.4422 9.21038 29.1521C9.21038 21.8622 7.91666 16.503 6.60818 12.9489C5.98938 11.268 5.36804 9.99294 4.88041 9.10983L10.4103 11.4745C10.8072 11.6442 11.2726 11.4227 11.4498 10.9798C11.627 10.5369 11.449 10.0403 11.0521 9.87057L3.81422 6.77561Z" fill="white" fill-opacity="0.87"/>
</svg>
